<?xml version="1.0" encoding="UTF-8"?> <svg xmlns="http://www.w3.org/2000/svg" viewBox="0 0 385.02 102.48"><defs><style>.cls-1{fill:#e84680;}.cls-2{fill:#205691;}.cls-3{fill:#307fc6;}</style></defs><g id="Calque_2" data-name="Calque 2"><g id="Logo_Couleur" data-name="Logo Couleur"><polygon class="cls-1" points="270.83 41.66 266.6 49.75 262.36 41.66 270.83 41.66"></polygon><path class="cls-2" d="M91.86,41.68h11.32c8.87,0,14.33,2.65,14.33,13,0,9.2-5.16,13.16-13.73,13.16H97V83H91.86ZM97,63.28h6.89c6,0,8.45-2.9,8.45-8.8,0-6.25-2.51-8.2-9.29-8.2H97Z"></path><path class="cls-2" d="M126.38,41.68H138c8.75,0,14.08,3.42,14.08,12.57,0,8.2-4.85,10.85-7.85,11.8l9,16.93h-5.75L139.2,66.82h-7.73V83h-5.09Zm5.09,20.53h6.83c5.45,0,8.57-2.06,8.57-8,0-6.32-3.24-8-9.23-8h-6.17Z"></path><path class="cls-2" d="M166.89,59.62h15v4.6h-15V78.38h16.29V83H161.79V41.68h21.39v4.6H166.89Z"></path><path class="cls-2" d="M190.44,79.27l18.45-33H191.34v-4.6H215v3.84L196.55,78.38H215V83H190.44Z"></path><path class="cls-2" d="M229.45,59.62h15v4.6h-15V78.38h16.3V83H224.36V41.68h21.39v4.6h-16.3Z"></path><path class="cls-2" d="M263.49,83l-12.11-41.3h5.46l9.64,34.93h.24l9.65-34.93h5.39L269.66,83Z"></path><path class="cls-2" d="M294.47,59.62h15v4.6h-15V78.38h16.3V83H289.38V41.68h21.39v4.6h-16.3Z"></path><path class="cls-2" d="M320.24,41.68h3.89l19.6,31h.3v-31h4.79V83h-4.43l-19.06-30.5H325V83h-4.79Z"></path><path class="cls-2" d="M373.69,83H368.6V46.28H357.21v-4.6H385v4.6H373.69Z"></path><polygon class="cls-1" points="0 71.5 0 87.75 0 102.48 27.39 87.75 0 71.5"></polygon><polygon class="cls-2" points="32.58 15.91 32.58 51.63 59.37 30.65 32.58 15.91"></polygon><polygon class="cls-1" points="32.58 51.63 59.37 66.36 59.37 30.65 32.58 51.63"></polygon><polygon class="cls-2" points="0 0 0 16.25 0 30.98 26.76 16.25 0 0"></polygon><polygon class="cls-3" points="0 30.98 0 71.5 27.39 87.75 26.76 16.25 0 30.98"></polygon></g></g></svg> 