<?xml version="1.0" encoding="UTF-8"?> <svg xmlns="http://www.w3.org/2000/svg" viewBox="0 0 150.04 42.58"><defs><style>.cls-1{fill:#fc8686;}</style></defs><g id="Calque_2" data-name="Calque 2"><g id="Calque_1-2" data-name="Calque 1"><path d="M0,2l1.83,0,2.29,0c.87,0,1.71,0,2.53,0l1.74,0A9,9,0,0,1,14,3.55,4.71,4.71,0,0,1,15.9,7.41a6,6,0,0,1-.38,2.05,5.29,5.29,0,0,1-1.29,2,6.67,6.67,0,0,1-2.48,1.48,11.77,11.77,0,0,1-4,.57H5v-.55h2.5A3.58,3.58,0,0,0,10,12.21a3.81,3.81,0,0,0,1.14-1.92,10.6,10.6,0,0,0,.31-2.58,7.8,7.8,0,0,0-.76-3.86A2.79,2.79,0,0,0,8,2.58c-.7,0-1.16.15-1.37.46a3.72,3.72,0,0,0-.31,1.87v13.3a4.15,4.15,0,0,0,.22,1.57,1.14,1.14,0,0,0,.84.68,8.54,8.54,0,0,0,1.84.19v.6l-2.17-.06-2.79,0L2,21.19l-2,.06v-.54a4.84,4.84,0,0,0,1.3-.22,1,1,0,0,0,.59-.65A5.84,5.84,0,0,0,2,18.37V4.91a5.76,5.76,0,0,0-.15-1.48,1,1,0,0,0-.6-.65A4,4,0,0,0,0,2.58Z"></path><path d="M26.46,6.84a2.42,2.42,0,0,1,1.41.37,2.18,2.18,0,0,1,.8.93,2.9,2.9,0,0,1,.26,1.19A2.37,2.37,0,0,1,28.34,11a2,2,0,0,1-1.53.63,2.14,2.14,0,0,1-1.48-.47,1.63,1.63,0,0,1-.53-1.26,2.23,2.23,0,0,1,.34-1.26A3.2,3.2,0,0,1,26,7.76a1.23,1.23,0,0,0-.76,0A2.22,2.22,0,0,0,24,8.45a4,4,0,0,0-.89,1.32,3.88,3.88,0,0,0-.32,1.49v7.19a2.06,2.06,0,0,0,.64,1.77,3.22,3.22,0,0,0,1.91.46v.57l-1.82-.07c-.8,0-1.63,0-2.5,0-.72,0-1.45,0-2.19,0l-1.69.07v-.57a1.85,1.85,0,0,0,1.35-.41,2.28,2.28,0,0,0,.39-1.55V10.18a3.42,3.42,0,0,0-.37-1.81,1.48,1.48,0,0,0-1.37-.58V7.22c.58,0,1.14.08,1.69.08q1.14,0,2.13-.09a15.27,15.27,0,0,0,1.83-.29V9.44a5,5,0,0,1,.87-1.33,4,4,0,0,1,1.24-.93A3.55,3.55,0,0,1,26.46,6.84Z"></path><path d="M36.42,6.84a7.74,7.74,0,0,1,3.47.73,5.24,5.24,0,0,1,2.34,2.36,9.49,9.49,0,0,1,.84,4.32,9.37,9.37,0,0,1-.84,4.3,5.27,5.27,0,0,1-2.34,2.35,8.54,8.54,0,0,1-6.91,0,5.31,5.31,0,0,1-2.36-2.35,9.23,9.23,0,0,1-.85-4.3,9.35,9.35,0,0,1,.85-4.32A5.28,5.28,0,0,1,33,7.57,7.76,7.76,0,0,1,36.42,6.84Zm0,.54c-.73,0-1.33.54-1.82,1.62a13.6,13.6,0,0,0-.73,5.25,13.48,13.48,0,0,0,.73,5.23c.49,1.07,1.09,1.61,1.82,1.61s1.35-.54,1.83-1.61A13.72,13.72,0,0,0,39,14.25,13.84,13.84,0,0,0,38.25,9Q37.53,7.38,36.42,7.38Z"></path><path d="M50.29,6.92V23.47a1.87,1.87,0,0,0,.65,1.7,3.27,3.27,0,0,0,1.79.42v.57l-1.94-.07c-.83,0-1.7,0-2.62,0-.67,0-1.33,0-2,0l-1.45.07v-.57A1.71,1.71,0,0,0,46,25.21a2.16,2.16,0,0,0,.37-1.46V10.18A3.41,3.41,0,0,0,46,8.37a1.51,1.51,0,0,0-1.36-.58V7.22c.58,0,1.14.08,1.68.08.74,0,1.45,0,2.12-.09A15.63,15.63,0,0,0,50.29,6.92Zm4.2-.08A4.32,4.32,0,0,1,58,8.52a7.82,7.82,0,0,1,1.4,5.08A10.89,10.89,0,0,1,58.56,18a6,6,0,0,1-2.18,2.7,5.93,5.93,0,0,1-3.33.91,4.8,4.8,0,0,1-1.92-.37,2.87,2.87,0,0,1-1.33-1l.27-.36a1.88,1.88,0,0,0,.77.76A2.3,2.3,0,0,0,52,20.9a2.4,2.4,0,0,0,1.93-.83,5.18,5.18,0,0,0,1-2.34,17.77,17.77,0,0,0,.31-3.59,17.36,17.36,0,0,0-.3-3.66,4.29,4.29,0,0,0-.81-1.9A1.63,1.63,0,0,0,52.89,8a2.53,2.53,0,0,0-1.78.76,3.25,3.25,0,0,0-.91,2.17L50.07,10a4.24,4.24,0,0,1,1.67-2.35A4.78,4.78,0,0,1,54.49,6.84Z"></path><path d="M64.61,21.44a3.3,3.3,0,0,1-2.63-1,3.43,3.43,0,0,1-.81-2.31,3.12,3.12,0,0,1,.53-1.9,4.23,4.23,0,0,1,1.37-1.21,10.8,10.8,0,0,1,1.77-.78c.63-.21,1.22-.42,1.8-.63A4.68,4.68,0,0,0,68,12.94a1.25,1.25,0,0,0,.53-1V9.8a3.42,3.42,0,0,0-.23-1.27,1.81,1.81,0,0,0-.71-.85,2.26,2.26,0,0,0-1.23-.3,4.09,4.09,0,0,0-1.09.15,2,2,0,0,0-.89.5,2.51,2.51,0,0,1,1.18.83A2,2,0,0,1,66,10.12a1.84,1.84,0,0,1-.64,1.47,2.27,2.27,0,0,1-1.51.54,1.81,1.81,0,0,1-1.48-.61,2.28,2.28,0,0,1-.5-1.48,2,2,0,0,1,.4-1.3,4.12,4.12,0,0,1,1.1-1,6.73,6.73,0,0,1,1.83-.68,10.53,10.53,0,0,1,2.32-.24,8.69,8.69,0,0,1,2.25.26A3.56,3.56,0,0,1,71.45,8a3,3,0,0,1,.82,1.54,12,12,0,0,1,.19,2.29v7.38a2.26,2.26,0,0,0,.13.92.48.48,0,0,0,.46.27,1.06,1.06,0,0,0,.52-.13A2.79,2.79,0,0,0,74,20l.27.46a4,4,0,0,1-1.31.75,5.18,5.18,0,0,1-1.67.26,2.66,2.66,0,0,1-2.16-.67,2.54,2.54,0,0,1-.56-1.53,4.57,4.57,0,0,1-1.67,1.66A4.76,4.76,0,0,1,64.61,21.44ZM66.7,19.7a2,2,0,0,0,1-.24,2.87,2.87,0,0,0,.88-.87V13a2.82,2.82,0,0,1-.91.91c-.39.24-.79.5-1.19.78a3.59,3.59,0,0,0-1,1.07A3.29,3.29,0,0,0,65,17.53a2.32,2.32,0,0,0,.49,1.67A1.6,1.6,0,0,0,66.7,19.7Z"></path><path d="M80.35,26.35a14.31,14.31,0,0,1-3-.28,5.1,5.1,0,0,1-2.06-.87,1.75,1.75,0,0,1-.74-1.43,1.94,1.94,0,0,1,.76-1.5,5.24,5.24,0,0,1,2.25-1.05l.24.44a2.51,2.51,0,0,0-.74.88,2.12,2.12,0,0,0-.23,1,1.92,1.92,0,0,0,1,1.75,5.6,5.6,0,0,0,2.84.61,6.7,6.7,0,0,0,2.18-.33,3.33,3.33,0,0,0,1.52-1A2.4,2.4,0,0,0,85,23a1.82,1.82,0,0,0-.6-1.38A3.65,3.65,0,0,0,82,21.06H80.3a6.62,6.62,0,0,1-1.94-.25A2.68,2.68,0,0,1,77.07,20a2,2,0,0,1-.46-1.34,2.74,2.74,0,0,1,.89-2,9,9,0,0,1,2.66-1.63l.27.22a11.77,11.77,0,0,0-1,.69,1.16,1.16,0,0,0-.45.94c0,.58.36.86,1.09.86h3a7.64,7.64,0,0,1,3.74.83,2.89,2.89,0,0,1,1.49,2.76,4,4,0,0,1-.85,2.47,5.8,5.8,0,0,1-2.62,1.83A12.44,12.44,0,0,1,80.35,26.35Zm.27-10.88a6.71,6.71,0,0,1-3.85-1.05,3.66,3.66,0,0,1-1.55-3.27,3.66,3.66,0,0,1,1.55-3.28,7.75,7.75,0,0,1,7.72,0A3.67,3.67,0,0,1,86,11.15a3.67,3.67,0,0,1-1.53,3.27A6.69,6.69,0,0,1,80.62,15.47Zm0-.49a1.26,1.26,0,0,0,1.14-.83,7.39,7.39,0,0,0,.41-3,7.46,7.46,0,0,0-.41-3,1.19,1.19,0,0,0-2.26,0,7.42,7.42,0,0,0-.42,3,7.35,7.35,0,0,0,.42,3A1.26,1.26,0,0,0,80.62,15Zm4.24-5.81L84.31,9a4.09,4.09,0,0,1,1.32-1.76,3.16,3.16,0,0,1,2-.71A1.72,1.72,0,0,1,88.92,7a1.75,1.75,0,0,1,.44,1.23,1.54,1.54,0,0,1-.43,1.21,1.44,1.44,0,0,1-1,.39,1.27,1.27,0,0,1-.85-.32,1.36,1.36,0,0,1-.45-1,3.54,3.54,0,0,1,.46-1.73L87.3,7a4.3,4.3,0,0,0-1.55.88A4.29,4.29,0,0,0,84.86,9.17Z"></path><path d="M93.41,21.44a3.32,3.32,0,0,1-2.64-1A3.43,3.43,0,0,1,90,18.18a3.19,3.19,0,0,1,.53-1.9,4.23,4.23,0,0,1,1.37-1.21,10.54,10.54,0,0,1,1.78-.78l1.79-.63a4.68,4.68,0,0,0,1.38-.72,1.25,1.25,0,0,0,.53-1V9.8a3.42,3.42,0,0,0-.23-1.27,1.75,1.75,0,0,0-.71-.85,2.24,2.24,0,0,0-1.23-.3,4.15,4.15,0,0,0-1.09.15,2,2,0,0,0-.89.5,2.51,2.51,0,0,1,1.18.83,2,2,0,0,1,.42,1.26,1.81,1.81,0,0,1-.64,1.47,2.25,2.25,0,0,1-1.5.54,1.78,1.78,0,0,1-1.48-.61,2.23,2.23,0,0,1-.5-1.48,2.09,2.09,0,0,1,.39-1.3,4.28,4.28,0,0,1,1.1-1A6.73,6.73,0,0,1,94,7.08a10.59,10.59,0,0,1,2.32-.24,8.69,8.69,0,0,1,2.25.26,3.56,3.56,0,0,1,1.68.93,3,3,0,0,1,.82,1.54,11.2,11.2,0,0,1,.19,2.29v7.38a2.26,2.26,0,0,0,.13.92.48.48,0,0,0,.47.27,1,1,0,0,0,.51-.13,2.43,2.43,0,0,0,.46-.33l.27.46a4,4,0,0,1-1.31.75,5.18,5.18,0,0,1-1.67.26A2.66,2.66,0,0,1,98,20.77a2.47,2.47,0,0,1-.55-1.53,4.65,4.65,0,0,1-1.67,1.66A4.79,4.79,0,0,1,93.41,21.44ZM95.5,19.7a2,2,0,0,0,1-.24,2.77,2.77,0,0,0,.88-.87V13a2.82,2.82,0,0,1-.91.91c-.39.24-.79.5-1.19.78a3.59,3.59,0,0,0-1,1.07,3.29,3.29,0,0,0-.41,1.74,2.36,2.36,0,0,0,.49,1.67A1.62,1.62,0,0,0,95.5,19.7Z"></path><path d="M114,6.84a5,5,0,0,1,1.85.28A2.72,2.72,0,0,1,117,7.9a3.24,3.24,0,0,1,.64,1.33,9.71,9.71,0,0,1,.2,2.19v7.3a2.22,2.22,0,0,0,.4,1.55,1.82,1.82,0,0,0,1.34.41v.57L118,21.18c-.69,0-1.36,0-2,0s-1.36,0-2,0l-1.51.07v-.57a1.4,1.4,0,0,0,1.14-.41,2.61,2.61,0,0,0,.32-1.55V10.29a4.66,4.66,0,0,0-.13-1.19,1.44,1.44,0,0,0-.49-.78A1.66,1.66,0,0,0,112.21,8a2.41,2.41,0,0,0-1.91.9,3.31,3.31,0,0,0-.77,2.25v7.54a2.59,2.59,0,0,0,.33,1.55,1.42,1.42,0,0,0,1.13.41v.57l-1.42-.07c-.63,0-1.28,0-1.94,0s-1.4,0-2.12,0l-1.63.07v-.57a1.82,1.82,0,0,0,1.34-.41,2.22,2.22,0,0,0,.4-1.55V10.18a3.42,3.42,0,0,0-.37-1.81,1.48,1.48,0,0,0-1.37-.58V7.22c.58,0,1.14.08,1.68.08q1.14,0,2.13-.09a15.78,15.78,0,0,0,1.84-.29V9.36a4,4,0,0,1,1.84-1.95A5.88,5.88,0,0,1,114,6.84Z"></path><path d="M127,6.84a5.33,5.33,0,0,1,2.11.39,2.92,2.92,0,0,1,1.42,1.32l-.32.3a2.13,2.13,0,0,0-.94-.94A2.77,2.77,0,0,0,128,7.63a2.44,2.44,0,0,0-2.2,1.61,11.25,11.25,0,0,0-.79,5,17.19,17.19,0,0,0,.31,3.68,4.07,4.07,0,0,0,.9,2,1.81,1.81,0,0,0,1.34.6,2.28,2.28,0,0,0,1.66-.73,2.83,2.83,0,0,0,.78-2l.14.95a4.18,4.18,0,0,1-1.32,2.18,3.58,3.58,0,0,1-2.37.75,5.23,5.23,0,0,1-2.86-.79,5.05,5.05,0,0,1-2-2.43,10.83,10.83,0,0,1-.71-4.24,9.4,9.4,0,0,1,.79-4.09,5.58,5.58,0,0,1,2.16-2.43A6,6,0,0,1,127,6.84ZM133.89,0V18.26a3.41,3.41,0,0,0,.38,1.81,1.51,1.51,0,0,0,1.36.58v.57c-.56,0-1.12-.08-1.68-.08-.76,0-1.47,0-2.13.08a12.05,12.05,0,0,0-1.83.3V3.26a3.52,3.52,0,0,0-.37-1.81,1.48,1.48,0,0,0-1.37-.58V.3c.58,0,1.14.08,1.68.08a20.51,20.51,0,0,0,2.12-.1A13.46,13.46,0,0,0,133.89,0Z"></path><path d="M140.35,21.44a3.3,3.3,0,0,1-2.63-1,3.43,3.43,0,0,1-.81-2.31,3.12,3.12,0,0,1,.53-1.9,4.23,4.23,0,0,1,1.37-1.21,10.8,10.8,0,0,1,1.77-.78c.63-.21,1.22-.42,1.8-.63a4.81,4.81,0,0,0,1.38-.72,1.25,1.25,0,0,0,.53-1V9.8a3.42,3.42,0,0,0-.23-1.27,1.81,1.81,0,0,0-.71-.85,2.26,2.26,0,0,0-1.23-.3,4,4,0,0,0-1.09.15,2,2,0,0,0-.89.5,2.51,2.51,0,0,1,1.18.83,2,2,0,0,1,.42,1.26,1.84,1.84,0,0,1-.64,1.47,2.27,2.27,0,0,1-1.51.54,1.81,1.81,0,0,1-1.48-.61,2.28,2.28,0,0,1-.5-1.48,2,2,0,0,1,.4-1.3,4.22,4.22,0,0,1,1.09-1,6.93,6.93,0,0,1,1.84-.68,10.53,10.53,0,0,1,2.32-.24,8.69,8.69,0,0,1,2.25.26,3.56,3.56,0,0,1,1.68.93A3,3,0,0,1,148,9.57a12,12,0,0,1,.19,2.29v7.38a2.26,2.26,0,0,0,.13.92.48.48,0,0,0,.46.27,1.06,1.06,0,0,0,.52-.13,2.79,2.79,0,0,0,.46-.33l.27.46a4,4,0,0,1-1.31.75,5.18,5.18,0,0,1-1.67.26,2.66,2.66,0,0,1-2.16-.67,2.54,2.54,0,0,1-.56-1.53,4.57,4.57,0,0,1-1.67,1.66A4.76,4.76,0,0,1,140.35,21.44Zm2.09-1.74a2,2,0,0,0,1-.24,2.87,2.87,0,0,0,.88-.87V13a2.82,2.82,0,0,1-.91.91c-.39.24-.79.5-1.19.78a3.59,3.59,0,0,0-1,1.07,3.29,3.29,0,0,0-.41,1.74,2.32,2.32,0,0,0,.49,1.67A1.6,1.6,0,0,0,142.44,19.7Z"></path><path class="cls-1" d="M59.45,42.46h-1V34.78H55.74v-.89h6.42v.89H59.45Z"></path><path class="cls-1" d="M67.7,42.46V38.31a1.68,1.68,0,0,0-.36-1.18,1.49,1.49,0,0,0-1.12-.38,1.83,1.83,0,0,0-1.48.55,2.8,2.8,0,0,0-.46,1.8v3.36h-1V33.34h1V36.1a6.14,6.14,0,0,1,0,.83h.06a2,2,0,0,1,.82-.73,2.6,2.6,0,0,1,1.21-.27,2.48,2.48,0,0,1,1.76.56,2.35,2.35,0,0,1,.59,1.78v4.19Z"></path><path class="cls-1" d="M73.38,42.58a2.93,2.93,0,0,1-2.24-.87,3.36,3.36,0,0,1-.83-2.41,3.7,3.7,0,0,1,.77-2.46,2.53,2.53,0,0,1,2-.92,2.42,2.42,0,0,1,1.91.8,3,3,0,0,1,.71,2.09v.62H71.32a2.54,2.54,0,0,0,.57,1.71,2,2,0,0,0,1.53.59,5.18,5.18,0,0,0,2-.44v.87a4.65,4.65,0,0,1-1,.32A5,5,0,0,1,73.38,42.58Zm-.26-5.84a1.55,1.55,0,0,0-1.23.5,2.35,2.35,0,0,0-.55,1.39H74.7a2.07,2.07,0,0,0-.41-1.4A1.42,1.42,0,0,0,73.12,36.74Z"></path><path class="cls-1" d="M85.59,42.46V38.28a1.73,1.73,0,0,0-.33-1.15,1.29,1.29,0,0,0-1-.38,1.64,1.64,0,0,0-1.34.52,2.47,2.47,0,0,0-.43,1.6v3.59h-1V38.28a1.79,1.79,0,0,0-.32-1.15,1.31,1.31,0,0,0-1-.38,1.57,1.57,0,0,0-1.34.55,3,3,0,0,0-.42,1.79v3.37h-1V36h.79l.16.88h.05a1.78,1.78,0,0,1,.78-.73,2.29,2.29,0,0,1,1.12-.27,1.91,1.91,0,0,1,2,1.09h0a2.09,2.09,0,0,1,.84-.8,2.61,2.61,0,0,1,1.24-.29,2.19,2.19,0,0,1,1.63.56,2.5,2.5,0,0,1,.54,1.79v4.19Z"></path><path class="cls-1" d="M91.28,42.58A3,3,0,0,1,89,41.71a3.35,3.35,0,0,1-.82-2.41A3.69,3.69,0,0,1,89,36.84,2.55,2.55,0,0,1,91,35.92a2.43,2.43,0,0,1,1.91.8,3,3,0,0,1,.7,2.09v.62H89.22a2.54,2.54,0,0,0,.57,1.71,2,2,0,0,0,1.52.59,5.15,5.15,0,0,0,2-.44v.87a4.58,4.58,0,0,1-1,.32A5.13,5.13,0,0,1,91.28,42.58ZM91,36.74a1.58,1.58,0,0,0-1.23.5,2.28,2.28,0,0,0-.54,1.39H92.6a2.13,2.13,0,0,0-.41-1.4A1.46,1.46,0,0,0,91,36.74Z"></path></g></g></svg> 