<svg xmlns="http://www.w3.org/2000/svg" viewBox="0 0 1053.01 332.53"><defs><style>.cls-1{fill:#8ca6dd;}</style></defs><g id="Calque_2" data-name="Calque 2"><g id="Calque_1-2" data-name="Calque 1"><path class="cls-1" d="M121.66,189.82h44.39v42.42A70.39,70.39,0,0,1,149.61,237a114.74,114.74,0,0,1-18.75,1.48q-17.1,0-30.41-5.43a62,62,0,0,1-22.36-15.12,63.44,63.44,0,0,1-13.64-23.18,90.79,90.79,0,0,1-4.61-29.6,80.64,80.64,0,0,1,5.1-29.09,68.51,68.51,0,0,1,14.3-23,65.79,65.79,0,0,1,21.7-15.13,67.91,67.91,0,0,1,27.29-5.42q17.1,0,30.58,6.08t21.7,15.62L216,73.76q-14.79-14.13-38.47-22.53a152.57,152.57,0,0,0-51.29-8.38A141.47,141.47,0,0,0,76.61,51.4,118.64,118.64,0,0,0,36.5,75.89,112.59,112.59,0,0,0,9.7,114.53Q0,137.21,0,165.16q0,27.63,9.54,50.15A113.83,113.83,0,0,0,36,253.94a118.76,118.76,0,0,0,40.45,25q23.51,8.88,51.45,8.88a209.82,209.82,0,0,0,49.82-5.59q22.85-5.6,39.95-14.47V144.45H167A45.37,45.37,0,0,0,121.66,189.82Z"/><path class="cls-1" d="M530,49.1H451.14a3.39,3.39,0,0,0-3.21,2.29l-49.7,146.36a.93.93,0,0,1-.88.62.92.92,0,0,1-.87-.61l-52-146.55a3.17,3.17,0,0,0-3-2.11H263.7V281.89h52.94l-1.32-164.73h1l58.85,164.73h39.46l60.5-164.73h1l-1.32,164.73H530Z"/><path class="cls-1" d="M577.7,226.56v55.33h50.58A269.15,269.15,0,0,1,577.7,226.56Z"/><path class="cls-1" d="M629.71,49.1h-52v56.55A264.94,264.94,0,0,1,629.71,49.1Z"/><ellipse class="cls-1" cx="801.27" cy="165.76" rx="71.35" ry="67.49"/><path class="cls-1" d="M801.56,0c-76,0-129.32,21.55-171.85,49.1h4.55V281.89h-6c39,32.05,95.67,50.64,173.28,50.64,199.77,0,251.45-166,251.45-166S1001.33,0,801.56,0Zm-.29,287.25c-70.92,0-128.42-54.39-128.42-121.49S730.35,44.28,801.27,44.28,929.7,98.67,929.7,165.76,872.2,287.25,801.27,287.25Z"/><path class="cls-1" d="M546.56,166.49s8.5,27.2,31.14,60.07V105.65C555,138.86,546.56,166.49,546.56,166.49Z"/></g></g></svg>