<svg xmlns="http://www.w3.org/2000/svg" viewBox="0 0 1390.54 461.26"><defs><style>.cls-1{fill:#f0a21e;}.cls-2{fill:#f4af1c;}.cls-3{fill:#494444;}</style></defs><g id="Calque_2" data-name="Calque 2"><g id="Calque_1-2" data-name="Calque 1"><path class="cls-1" d="M279.53,271.83h12.7a0,0,0,0,1,0,0v97.34a0,0,0,0,1,0,0H252.61a0,0,0,0,1,0,0V298.75A26.92,26.92,0,0,1,279.53,271.83Z"/><path class="cls-1" d="M147.66,92.08a3.84,3.84,0,0,0-3.83,3.83v23a3.83,3.83,0,0,0,7.66,0v-23A3.84,3.84,0,0,0,147.66,92.08Z"/><path class="cls-1" d="M112.33,303.91a3.83,3.83,0,0,0-4.9,2.29l-1.31,3.6a3.88,3.88,0,0,0-.23,1.31,3.82,3.82,0,0,0,7.42,1.3l1.31-3.59A3.83,3.83,0,0,0,112.33,303.91Z"/><path class="cls-1" d="M235.57,133.19a3.83,3.83,0,0,0-5.38-.59l-2.93,2.46a3.83,3.83,0,1,0,4.92,5.86l2.93-2.46A3.83,3.83,0,0,0,235.57,133.19Z"/><path class="cls-1" d="M103.15,122.11,95.5,108.86a3.83,3.83,0,0,0-6.63,3.83l7.65,13.25a3.83,3.83,0,1,0,6.63-3.83Z"/><path class="cls-1" d="M66.74,155.72l-13.25-7.65a3.82,3.82,0,0,0-3.83,6.62l13.26,7.66a3.87,3.87,0,0,0,1.91.51,3.83,3.83,0,0,0,1.91-7.14Z"/><path class="cls-1" d="M68.16,252.72a3.83,3.83,0,0,0-5.24-1.36L49.67,259a3.83,3.83,0,0,0,1.91,7.14,3.88,3.88,0,0,0,1.92-.51L66.75,258l0,0A3.82,3.82,0,0,0,68.16,252.72Z"/><path class="cls-1" d="M101.75,286.33a3.83,3.83,0,0,0-5.22,1.44L88.88,301a3.77,3.77,0,0,0-.51,1.91,3.83,3.83,0,0,0,7.14,1.92l7.65-13.26,0,0A3.83,3.83,0,0,0,101.75,286.33Z"/><path class="cls-1" d="M205.06,107.49a3.84,3.84,0,0,0-5.24,1.37l-7.65,13.25a3.87,3.87,0,0,0-.51,1.91,3.83,3.83,0,0,0,7.14,1.92l7.65-13.25A3.85,3.85,0,0,0,205.06,107.49Z"/><path class="cls-1" d="M59.67,203h-23a3.83,3.83,0,1,0,0,7.65h23a3.83,3.83,0,1,0,0-7.65Z"/><path class="cls-1" d="M135,199.13a15.32,15.32,0,0,0-.46,15.51l6.3-4.89a7.63,7.63,0,0,1,7-10.22,7.44,7.44,0,0,1,4.4,1.31l31.27-24.29L202.1,158a3.83,3.83,0,0,0-5.41-5.41l-41.26,41.26a14.78,14.78,0,0,0-14.84,0L121,174.25a3.83,3.83,0,1,0-5.43,5.41Z"/><path class="cls-2" d="M128.1,354.21l-16.47-4.14A147.71,147.71,0,0,1,146.75,59.19h.91A146.94,146.94,0,0,1,263,114.6l8.4,10.49-140.22,109a7.8,7.8,0,0,0-3,6.2ZM147.66,85.68h-.75A121.19,121.19,0,0,0,101.6,319v-78.7a34.14,34.14,0,0,1,13.27-27.12h0l118.42-92A120.44,120.44,0,0,0,147.66,85.68Z"/><path class="cls-3" d="M349.59,73.16c0-1.39.59-2,2-2h2.17c1.39,0,2,.59,2,2V198.87a1,1,0,0,0,1.18,1.19h68.7c1.39,0,2,.59,2,2v1.78c0,1.39-.59,2-2,2h-74c-1.39,0-2-.59-2-2Z"/><path class="cls-3" d="M511.33,205.8c-1.38,0-2-.59-2-2V192.54h-.2c-3.36,8.9-14.45,15.24-30.29,15.24-19.79,0-31.47-9.9-31.47-27.32,0-18,11.68-26.93,34.84-26.93h25.93a1,1,0,0,0,1.19-1.18V140.27c0-18.21-6.14-24.75-26.13-24.75-11.09,0-19.2,2.58-24.55,7.53a2,2,0,0,1-2.77.39l-1.39-1.19c-1-1-1.18-1.78-.2-2.77,6.14-6.33,15.64-9.5,28.91-9.5,23,0,32.07,7.52,32.07,30.29v63.55c0,1.39-.59,2-2,2Zm-2-27.72V160.27a1,1,0,0,0-1.19-1.19H482.63c-20.4,0-29.3,6.93-29.3,21.38,0,14.06,9.5,21.78,26.33,21.78C497.08,202.24,509.35,192.14,509.35,178.08Z"/><path class="cls-3" d="M603.59,73.16c0-1.39.59-2,2-2h2.77a2.65,2.65,0,0,1,2.57,2L657.83,176.5h.6L705.15,73.16c.6-1.39,1.39-2,2.57-2h2.78c1.38,0,2,.59,2,2V203.82c0,1.39-.6,2-2,2h-2.18c-1.39,0-2-.59-2-2V87h-.59l-44,96.22a3.3,3.3,0,0,1-3.36,2h-.79a3.31,3.31,0,0,1-3.37-2L610.32,87h-.59V203.82c0,1.39-.6,2-2,2h-2.18c-1.39,0-2-.59-2-2Z"/><path class="cls-3" d="M753.06,83.05c-1.38,0-2-.59-2-2V73.16c0-1.39.6-2,2-2h4.75c1.39,0,2,.59,2,2v7.91c0,1.39-.59,2-2,2Zm1.39,122.75c-1.39,0-2-.59-2-2V113.94c0-1.39.59-2,2-2h2c1.38,0,2,.59,2,2v89.88c0,1.39-.6,2-2,2Z"/><path class="cls-3" d="M862.15,205.8c-1.39,0-2-.59-2-2V147.59c0-22-9.11-32.07-27.52-32.07-16.43,0-28.71,11.09-28.71,29.1v59.2c0,1.39-.59,2-2,2h-2c-1.38,0-2-.59-2-2V113.94c0-1.39.6-2,2-2h2c1.39,0,2,.59,2,2V127.2h.2C808.89,116.31,819.58,110,833,110c21.39,0,33.07,12.27,33.07,36.23v57.61c0,1.39-.6,2-2,2Z"/><path class="cls-3" d="M966.08,205.8c-1.38,0-2-.59-2-2V190.56h-.19c-4.56,10.88-15.25,17.22-28.51,17.22q-32.67,0-32.67-36.23V113.94c0-1.39.59-2,2-2h2c1.39,0,2,.59,2,2v56.22c0,22.18,8.71,32.08,27.12,32.08,16,0,28.31-11.09,28.31-29.11V113.94c0-1.39.6-2,2-2h2c1.39,0,2,.59,2,2v89.88c0,1.39-.59,2-2,2Z"/><path class="cls-3" d="M1036.36,206.2c-17.42,0-23.55-6.14-23.55-24.55v-63a1.05,1.05,0,0,0-1.19-1.19h-11.49c-1.38,0-2-.59-2-2v-1.58c0-1.39.59-2,2-2h11.49a1.05,1.05,0,0,0,1.19-1.19V83.05c0-1.38.59-2,2-2h2c1.39,0,2,.6,2,2v27.72a1,1,0,0,0,1.18,1.19h19.8c1.39,0,2,.59,2,2v1.58c0,1.39-.59,2-2,2h-19.8a1,1,0,0,0-1.18,1.19v62.56c0,15.25,4.35,19.4,17.81,19.4h3.17c1.39,0,2,.6,2,2v1.59c0,1.38-.59,2-2,2Z"/><path class="cls-3" d="M1066.06,183.63c-1.78-5.74-2.77-14.06-2.77-24.95,0-11.09,1-19.4,2.77-24.94,5-15.64,17.23-23.76,33.26-23.76q25.54,0,33.26,23.76c1.78,5.54,2.77,13.26,2.77,23.36,0,1.38-.79,2-2.18,2h-62.75c-.8,0-1.19.39-1.19,1.38,0,8.91.79,16,2.37,21.19,4.56,13.66,14.26,20.59,28.91,20.59,12.27,0,21.78-4.56,28.31-13.66a1.79,1.79,0,0,1,2.77-.4l1.19,1a1.77,1.77,0,0,1,.2,2.77c-7.33,10.49-18.22,15.84-32.47,15.84C1082.69,207.78,1071.21,199.66,1066.06,183.63Zm62.17-30.1a1,1,0,0,0,1.18-1.18,59.31,59.31,0,0,0-2.17-16.44c-4.36-13.66-13.67-20.39-27.92-20.39s-23.56,6.73-27.91,20.39a58.92,58.92,0,0,0-2.18,16.44,1,1,0,0,0,1.19,1.18Z"/><path class="cls-3" d="M349.59,246.71c0-1.38.59-2,2-2h25.14c1.39,0,2,.59,2,2V377.38c0,1.39-.59,2-2,2H351.57c-1.39,0-2-.59-2-2Z"/><path class="cls-3" d="M521.23,379.36c-1.38,0-2-.59-2-2v-55c0-10.89-5.34-17.42-15-17.42-9.31,0-14.85,6.93-14.85,17.42v55c0,1.39-.6,2-2,2H463.62c-1.38,0-2-.59-2-2v-55c0-10.89-5.15-17.42-14.85-17.42-9.5,0-15,6.93-15,17.42v55c0,1.39-.6,2-2,2H406c-1.39,0-2-.59-2-2V285.52c0-1.39.59-2,2-2h23.76c1.38,0,2,.59,2,2v6.73h.19c5.35-7.33,13.47-10.89,24.75-10.89,11.48,0,20,4,25.74,12.08h.2c7.72-8.12,17.62-12.08,30.09-12.08,22.17,0,34.25,14.06,34.25,35.64v60.38c0,1.39-.59,2-2,2Z"/><path class="cls-3" d="M688.32,379.36c-1.38,0-2-.59-2-2v-55c0-10.89-5.34-17.42-15-17.42-9.31,0-14.85,6.93-14.85,17.42v55c0,1.39-.59,2-2,2H630.71c-1.38,0-2-.59-2-2v-55c0-10.89-5.14-17.42-14.85-17.42-9.5,0-15,6.93-15,17.42v55c0,1.39-.6,2-2,2H573.1c-1.39,0-2-.59-2-2V285.52c0-1.39.59-2,2-2h23.76c1.38,0,2,.59,2,2v6.73h.2c5.34-7.33,13.46-10.89,24.74-10.89,11.49,0,20,4,25.74,12.08h.2c7.72-8.12,17.62-12.08,30.09-12.08,22.17,0,34.25,14.06,34.25,35.64v60.38c0,1.39-.59,2-2,2Z"/><path class="cls-3" d="M733.46,331.45a75.25,75.25,0,0,1,3.17-23.16c5.54-17.23,21-26.93,41.58-26.93s36,9.7,41.57,26.93a86.19,86.19,0,0,1,0,46.32c-5.54,17.23-21,26.93-41.57,26.93s-36-9.7-41.58-26.93A75.25,75.25,0,0,1,733.46,331.45Zm61.38,0c0-7.32-.6-12.67-1.79-16.43-2.17-6.93-7.12-10.3-14.84-10.3s-12.68,3.37-14.85,10.3c-1.19,3.76-1.79,9.11-1.79,16.43s.6,12.67,1.79,16.43c2.17,6.93,7.12,10.3,14.85,10.3s12.67-3.37,14.84-10.3C794.24,344.12,794.84,338.77,794.84,331.45Z"/><path class="cls-3" d="M871.06,370.45h-.2v6.93c0,1.39-.59,2-2,2H845.12c-1.38,0-2-.59-2-2V246.71c0-1.38.6-2,2-2h23.76c1.39,0,2,.59,2,2v45.74h.2c5-7.33,13.26-11.09,25.14-11.09,16.63,0,27.52,7.72,32.47,23,2.18,7.12,3.36,16.23,3.36,27.12s-1.18,20-3.36,27.12c-4.95,15.25-15.84,23-32.47,23C884.32,381.54,876,377.78,871.06,370.45Zm31.08-22.57c1.19-3.76,1.78-9.3,1.78-16.43s-.59-12.67-1.78-16.43c-2.18-6.93-7.13-10.3-14.85-10.3s-12.47,3.37-14.65,10.3c-1.19,3.76-1.78,9.3-1.78,16.43s.59,12.67,1.78,16.43c2.18,6.93,7.13,10.3,14.65,10.3C895,358.18,900,354.81,902.14,347.88Z"/><path class="cls-3" d="M954.21,268.29c-1.39,0-2-.59-2-2V246.71c0-1.38.59-2,2-2H978c1.39,0,2,.59,2,2v19.61c0,1.38-.59,2-2,2Zm0,111.07c-1.39,0-2-.59-2-2V285.52c0-1.39.59-2,2-2H978c1.39,0,2,.59,2,2v91.86c0,1.39-.59,2-2,2Z"/><path class="cls-3" d="M1034.19,380.55c-21.19,0-29.7-9.11-29.7-30.49V246.71c0-1.38.59-2,2-2h23.76c1.38,0,2,.59,2,2V347.88c0,6.14,2.77,9.11,8.31,9.11h4.16c1.39,0,2,.59,2,2v19.6c0,1.38-.59,2-2,2Z"/><path class="cls-3" d="M1067.05,268.29c-1.39,0-2-.59-2-2V246.71c0-1.38.59-2,2-2h23.76c1.38,0,2,.59,2,2v19.61c0,1.38-.6,2-2,2Zm0,111.07c-1.39,0-2-.59-2-2V285.52c0-1.39.59-2,2-2h23.76c1.38,0,2,.59,2,2v91.86c0,1.39-.6,2-2,2Z"/><path class="cls-3" d="M1116.34,354.22a73.67,73.67,0,0,1-3.36-22.77c0-8.91,1-16.63,3.17-23,5.54-17.22,20.78-27.12,41.18-27.12,20.78,0,35.83,10.1,41.37,26.93,2.18,6.73,3.17,16.63,3.17,29.5,0,1.38-.79,2-2.18,2h-58a1,1,0,0,0-1.19,1.18,21.13,21.13,0,0,0,1.19,5.35c2.57,8.51,9.3,12.67,19.79,12.67a31,31,0,0,0,22-8.51c1.19-1,2.18-1,2.77,0l13.07,12.27c1,1,1.19,1.78.2,2.77-10.1,10.69-23.56,16-40.79,16C1137.13,381.54,1121.89,371.64,1116.34,354.22ZM1152,270.28a4.29,4.29,0,0,1-3.76-2l-19.6-25.73c-.79-1-.4-2,1-2h23a3.76,3.76,0,0,1,3.57,2l15,25.73c.6,1.39.4,2-1,2Zm21.38,51.07a1,1,0,0,0,1.19-1.18,27.1,27.1,0,0,0-1-7.13c-2.38-6.93-7.72-10.49-16-10.49s-13.66,3.56-16,10.49a26.69,26.69,0,0,0-1,7.13,1,1,0,0,0,1.19,1.18Z"/><path class="cls-3" d="M1224,379.36c-1.38,0-2-.59-2-2V285.52c0-1.39.6-2,2-2h23.76c1.39,0,2,.59,2,2v8.12h.2c5-8.12,13.26-12.28,24.94-12.28a25.5,25.5,0,0,1,16.83,5.74,2,2,0,0,1,.6,2.77l-11.09,20.2a2,2,0,0,1-2.77.39c-4.75-3-9.31-4.55-13.86-4.35q-14.85.58-14.85,20.79v50.48c0,1.39-.59,2-2,2Z"/><path class="cls-3" d="M1305,354.22a73.67,73.67,0,0,1-3.36-22.77c0-8.91,1-16.63,3.17-23,5.54-17.22,20.78-27.12,41.18-27.12,20.78,0,35.83,10.1,41.37,26.93,2.18,6.73,3.17,16.63,3.17,29.5,0,1.38-.79,2-2.18,2h-58a1,1,0,0,0-1.19,1.18,21.13,21.13,0,0,0,1.19,5.35c2.57,8.51,9.3,12.67,19.79,12.67a31,31,0,0,0,22-8.51c1.19-1,2.18-1,2.77,0L1388,362.73c1,1,1.19,1.78.2,2.77-10.1,10.69-23.56,16-40.79,16C1325.8,381.54,1310.56,371.64,1305,354.22Zm57-32.87a1,1,0,0,0,1.19-1.18,27.1,27.1,0,0,0-1-7.13c-2.37-6.93-7.72-10.49-16-10.49s-13.66,3.56-16,10.49a26.69,26.69,0,0,0-1,7.13,1,1,0,0,0,1.19,1.18Z"/><path class="cls-2" d="M305.48,382.42H135.94a34.39,34.39,0,0,1-34.34-34.34V240.27a34.14,34.14,0,0,1,13.27-27.12L305.48,65ZM279,119.15,131.13,234.07a7.8,7.8,0,0,0-3,6.2V348.08a7.85,7.85,0,0,0,7.84,7.85H279Z"/><path class="cls-1" d="M153.53,250.32h32.81a0,0,0,0,1,0,0v63.34a0,0,0,0,1,0,0H153.53a6.69,6.69,0,0,1-6.69-6.69V257A6.69,6.69,0,0,1,153.53,250.32Z"/><path class="cls-1" d="M193.34,250.32h32.81a6.69,6.69,0,0,1,6.69,6.69v50a6.69,6.69,0,0,1-6.69,6.69H193.34a0,0,0,0,1,0,0V250.32A0,0,0,0,1,193.34,250.32Z"/><path class="cls-2" d="M292.23,461.26A13.25,13.25,0,0,1,279,448V13.25a13.25,13.25,0,1,1,26.49,0V448A13.25,13.25,0,0,1,292.23,461.26Z"/><path class="cls-2" d="M279,79.08,79.53,234.1a18.4,18.4,0,0,0,22.58,29L279,125.68Z"/></g></g></svg>