<svg xmlns="http://www.w3.org/2000/svg" viewBox="0 0 758.4 262.52"><g id="Calque_2" data-name="Calque 2"><g id="Calque_1-2" data-name="Calque 1"><path d="M8.7,1.3C8.5,2,6.8,10,4.8,19.1S1,36.6.7,37.8L0,40.1H15.6c13.3,0,15.6.2,15.6,1.5,0,.9-4.1,20.7-9,44.1s-8.8,42.9-8.6,43.2,12.3.5,26.8.2l26.3-.5.3-2.5c.5-3.1,17.1-81.9,17.8-84.2.5-1.5,2.4-1.8,16.1-2l15.7-.3,3.7-18c2.1-9.9,3.8-18.8,3.9-19.8C124.2.2,120.8.1,66.7.1,21.5.1,9,.4,8.7,1.3Zm106.8,9c-.3,1.8-1.6,7.6-2.7,12.8l-2.1,9.5L95,32.9c-8.7.1-15.8.4-15.8.6s-1.4,6.9-3,14.8S71.6,70,69.7,79.1c-7.5,36.3-8.9,42.5-9.9,43.2-1.2.8-37,1.1-37.8.3-.3-.4,8.3-42.8,17.8-86.8l.6-2.7H24.8c-8.6,0-15.6-.1-15.6-.3s.9-4.6,2.1-9.8,2.3-10.9,2.6-12.7l.6-3.2H116.2Z"/><path d="M147.9,6.8c-5.6,24.7-25.7,121.6-25.4,122,.2.2,12.1.4,26.3.4,24.2,0,25.9-.1,26.5-1.9.4-1,1.7-6.8,2.9-12.8,2.4-12.1,3-14.7,3.5-14.2.2.2,1.8,6.6,3.6,14.3s3.3,14.1,3.4,14.3,12.3.3,27.1.3c22,0,27-.3,27.2-1.4.3-1.3-7.2-35.9-8.4-39.1-.3-.9,1.1-2.5,3.9-4.4,10.7-7.4,20.2-21.6,22.8-34A77,77,0,0,0,262,36c-.7-15.3-7.7-25.6-21.7-32.3L233.7.6,191.5.3,149.4,0Zm90.5,3.6c10.9,5.4,16.9,15.3,16.9,27.9,0,17.8-9.4,33.8-25.5,43.2-3.6,2.1-6.6,4.1-6.6,4.4a14.84,14.84,0,0,0,2.6,3.3c2.1,2.2,3.2,5.6,5.9,17.5,1.8,8.2,3.1,15.2,2.9,15.6s-9.3.8-20,.8c-22.7,0-19.8,2-24-16.2-1.6-7.1-3.4-12.4-4.4-13.3-2-1.8-8-2.9-9.5-1.8-.6.4-2.3,7.1-3.9,14.8s-3.3,14.6-3.8,15.2c-.8,1-5.9,1.3-19.3,1.3-10,0-18.4-.2-18.7-.5s.4-4.5,1.4-9.3,2.7-12.8,3.8-17.7c4-19.6,5.4-26.1,11.6-55.5,3.5-16.8,6.6-31.1,6.9-31.8.4-1.1,8.1-1.2,39.2-1l38.8.3Z"/><path d="M187.7,37.3c-.3.7-1.4,5.8-2.5,11.3s-2.4,10.8-2.6,11.7c-.5,1.6.4,1.8,10.1,1.8,9,0,11.3-.3,14.5-2.1,8.6-4.9,10.4-18.6,2.9-22.4C206.4,35.7,188.4,35.5,187.7,37.3Zm19.5,7.3c1.4,1.7.5,5.2-2.3,8.2-1.7,1.9-3.1,2.3-7.9,2.3-3.2,0-5.8-.4-5.8-1s.5-3.2,1.1-6l1.1-5h6.3C203.9,43.1,206.3,43.6,207.2,44.6Z"/><path d="M299.8,1.8c-1.4,4.9-26.6,125.7-26.4,126.5s51.6,1.3,52.5.5c.3-.4,12.1-55.5,20.2-94.2,1.1-5.5,3.2-15.4,4.6-22S353.2.5,353.2.3,341.3.1,326.8.1C302.5.1,300.3.2,299.8,1.8Zm44.4,6.5c0,2.9-23.4,112.4-24.3,113.5-.7,1-5.8,1.3-19.3,1.3-10,0-18.5-.3-18.7-.8s5-26.5,11.7-57.9L305.7,7.1H325C339.7,7.1,344.2,7.4,344.2,8.3Z"/><path d="M384.6,1.6c-.9,2.4-27.3,126.9-26.9,127.3.1.1,12.1.3,26.5.3s26.4-.2,26.5-.3,1.2-5.5,2.4-11.8,2.5-12.3,2.7-13.3c.5-1.5,2-1.7,14.2-1.7,15.7,0,24.6-1.6,34-6C477.1,90,487.5,78,493.1,62.6c9.7-26.8,3.2-49.4-16.8-58.9L469.7.6,427.4.3C388.9,0,385.1.1,384.6,1.6Zm89,8.4A30.67,30.67,0,0,1,488,24.9c5,10.9,2.5,30.7-5.7,44.7a50.79,50.79,0,0,1-26.6,22.7c-5.1,1.8-8.9,2.2-25.5,2.7l-19.5.6-.8,3.5c-.5,1.9-1.8,8-3,13.5l-2.2,10-18.4.3c-10.2.1-18.8-.1-19.3-.6-.8-.8,13.6-71.8,22.3-110.5L390.4,7l39.2.3,39.1.3Z"/><path d="M422.7,38.3c-1.6,6.9-5.5,25.9-5.5,26.8,0,1.6,18.5,1.3,22.3-.4,4.3-1.8,7.3-5.3,9.2-10.5,2.5-7.1,2-10.8-1.9-14.7l-3.4-3.4H433.3C423.7,36.1,423.2,36.2,422.7,38.3Zm19.3,6c2.6,2.6.4,10.2-4,13.2-1.4,1-4.4,1.6-7.6,1.6-4.6,0-5.3-.2-4.9-1.8.3-.9,1.1-4.2,1.7-7.2s1.5-5.8,1.7-6.3C429.6,42.6,440.7,43,442,44.3Z"/><path d="M527.8,7.3c-1.6,7.6-6.2,29.4-9.6,45.8-1.1,5.2-3.5,16.9-5.5,26-6.1,28.3-9.8,46.4-9.9,48.3-.1,1.6,2.9,1.7,50.9,1.7,40.4.1,51.2-.2,51.8-1.2,1.2-2.1,8.7-39,8.1-40-.3-.5-11.4-.8-24.7-.8l-24.2.2.3-2.4c.1-1.3,4-20.3,8.7-42.4s8.5-40.6,8.5-41.3S574.9.1,555.8.1H529.4Zm46,1.5c-.3,1-2.1,9.4-4.1,18.8s-5.6,26.7-8.1,38.5-4.8,23-5.1,24.7l-.6,3.3h49.5l-.7,4.7c-.4,2.7-1.7,9.1-2.9,14.3l-2.2,9.5-44.2.3c-41.6.2-44.2.1-44.2-1.5S533.8,11.3,534.7,8.3c.3-.9,5.2-1.2,20-1.2C572.9,7.1,574.3,7.2,573.8,8.8Z"/><path d="M652.7,1.3c-1.2,3.3-26.6,125.2-26.3,126.4s8.1,1.4,52.2,1.4c28.5,0,52-.1,52.1-.2.3-.4,7.7-35.8,7.9-37.6.1-1-5.4-1.3-25.4-1.5-24.8-.2-25.5-.3-25.5-2.2s.8-2,22.6-2.3l22.6-.2,4.2-19.8c2.3-10.8,4.1-20,4.1-20.5s-9.9-.7-22-.7c-21.3,0-22-.1-22-2s.8-2,26.2-2.2l26.3-.3,3.6-16.5c1.9-9.1,3.9-18,4.3-19.8l.8-3.2H705.7C664.6.1,653,.4,652.7,1.3Zm96.5,6.8c0,.6-1.1,6.2-2.5,12.6s-2.5,11.7-2.5,12-11.8.5-26.2.6l-26.2.3-1.7,8c-1,4.4-1.8,8.3-1.8,8.7s9.7.8,21.7.8,22.1.2,22.4.5-2.5,15.8-4.6,23.9l-.6,2.6-22.3.2-22.2.3L681,85.1a59.17,59.17,0,0,0-1.7,8.7l-.1,2.3h25.5c23.6,0,25.5.1,25.5,1.7-.1,2.6-4.6,22.9-5.4,24.2s-89.2,1.6-90,.2c-.3-.4,1-8,2.8-16.7s6.6-31.2,10.6-49.9,7.8-37.3,8.7-41.3l1.7-7.2h45.3C733.9,7.1,749.2,7.4,749.2,8.1Z"/><path d="M198.2,138.6c-8,1.7-19.1,6-24.5,9.3-6.6,4.2-15.5,13.3-19.6,20.3-8,13.4-13.9,35-13.9,50.6,0,21.9,8.8,34.4,28.9,41.2,7,2.3,9,2.5,26.1,2.5,16.2.1,19.6-.2,27-2.2,23.8-6.4,38.2-19.7,46.9-43.2,5.1-13.8,6.5-22,6.6-36.5,0-13.3-.1-14.3-2.9-20.2-5.2-11.2-15.5-18.7-30.3-21.8C233.7,136.7,207.1,136.7,198.2,138.6ZM223,177.5c4.4,2.3,5.6,5.5,4.9,13.8-1.1,13.7-5.9,25-12.5,29.4-6.8,4.7-19.5,4.2-24.5-.8-2.9-2.9-3-3-2.4-11.2,1.1-15.2,6.3-26.7,13.9-30.5C207.5,175.7,218.7,175.3,223,177.5Z"/><path d="M27.7,139.3c-.6,1.8-25.5,119.8-25.5,120.9,0,1.3,68.5,1.1,77.3-.2,31.2-4.6,49.1-22.8,57.1-58,2.6-11.4,2.9-18.7,1.2-26.7-2.1-9.9-5.1-15.6-11.7-22.3-7-7-15.9-11.4-27.5-13.4S28.4,137.4,27.7,139.3Zm54.4,37.9c7.8,1.6,9.5,4.4,8.8,14.4-.5,8.9-4.4,21.8-8,26.7s-9,7.1-18.4,7.6c-6.6.4-8.3.2-8.3-.9,0-3,9.4-46.5,10.3-47.7C67.7,175.8,75.4,175.7,82.1,177.2Z"/><path d="M294.8,139.8c-.3,1-1.9,8.3-3.6,16.3s-3.9,18.8-5,24c-7.4,33.7-8.2,38.5-7.7,45.5.7,9.5,3.3,15.9,9,22.1,5.3,5.8,10.4,9,19.9,12.5,5.7,2.1,7.9,2.3,24.3,2.3,16.7-.1,18.7-.3,27-2.8,26.4-8,38-21.8,44.9-53.6,6.5-29.7,13.9-64.5,14-66,.1-1.3-3.1-1.5-22.9-1.5H371.8l-1.8,8c-2.5,11.5-7.5,35.1-10.5,49.5-3.2,15.4-5.1,20.6-8.8,23.8-3.9,3.5-10.1,4.8-16.8,3.8-8.6-1.4-9.4-5.5-5.3-24.8,9.2-43,12.6-59.1,12.6-59.9,0-.5-9.5-.9-22.9-.9C297.3,138.1,295.3,138.3,294.8,139.8Z"/><path d="M429.7,139.3c-.5,1.6-25.5,120.2-25.5,121.1,0,.4,18.8.7,41.8.7,38.7,0,42.5-.2,49.8-2,16.8-4.3,26.8-14,31.8-30.9a50.43,50.43,0,0,0,1.6-12c0-5.5-.5-7.3-2.5-10.4-1.4-2-2.9-3.7-3.3-3.7a7.32,7.32,0,0,1-2.6-1.5c-1.8-1.4-1.7-1.6,2.5-5.4,8.1-7,13.6-20.7,12.6-31.1-1.1-12.6-9.8-21.6-23.5-24.5C503.2,137.6,430.4,137.4,429.7,139.3Zm59.9,32.4c3.1,3,1.3,10.3-3.1,12.3-1.3.6-6.9,1.1-12.3,1.1-8.9,0-10-.2-10-1.8a78.11,78.11,0,0,1,2.5-12C467.4,169.3,487.6,169.6,489.6,171.7Zm-8.8,44.9c2,2.7,1,7.3-2.1,10.5-2.4,2.3-3.4,2.5-13.5,2.8-8.1.3-11,.1-11-.8,0-1.6,3-13.2,3.7-14.3.3-.5,5.2-.7,11-.5C478,214.6,479.6,214.9,480.8,216.6Z"/><path d="M554.8,139.8c-.3,1-5.9,27.7-12.6,59.3s-12.4,58.5-12.7,59.7l-.5,2.3h96.7l3.4-15.8c1.8-8.6,3.4-16.4,3.5-17.2.1-1.3-3.4-1.5-24.6-1.8-13.7-.1-24.8-.6-24.8-1s4.1-19.8,9-43.2,9-42.8,9-43.2-10.3-.8-22.9-.8C557.3,138.1,555.3,138.2,554.8,139.8Z"/><path d="M659.4,139.3a4.71,4.71,0,0,0-1.2,3,58.62,58.62,0,0,1-1.5,8.1c-.8,3.4-6.2,28.7-12,56.2s-10.8,51-11.1,52.2l-.6,2.3h49c27,0,49.3-.4,49.6-.8.5-.8,6.6-29.9,6.6-31.4,0-.4-11.5-.8-25.5-.8H687.2l.1-2.8a29.66,29.66,0,0,1,.8-5.2l.7-2.5,22.4-.5,22.5-.5,3.1-14.1c1.7-7.8,3.4-15.3,3.8-16.8l.6-2.6H719.3c-12.1,0-22.2-.4-22.5-.8s0-2.9.6-5.5l1-4.7,26.1-.2,26.1-.3,3.2-15c1.8-8.3,3.4-15.7,3.6-16.5.3-1.3-5.7-1.5-48.2-1.8C672.2,138.1,660.3,138.4,659.4,139.3Z"/></g></g></svg>