<svg xmlns="http://www.w3.org/2000/svg" viewBox="0 0 140.22 70.96"><defs><style>.cls-1{fill:#c1d4ff;}.cls-2{isolation:isolate;}</style></defs><g id="Calque_2" data-name="Calque 2"><g id="Calque_1-2" data-name="Calque 1"><g id="Calque_2-2" data-name="Calque 2"><g id="Calque_1-2-2" data-name="Calque 1-2"><path class="cls-1" d="M73.31,18.19H70.24V13.35h3.07V7.18C73.31,2.43,75.55,0,80.09,0a6.79,6.79,0,0,1,5.65,2.33L82.59,6.23a2.26,2.26,0,0,0-1.86-1c-1,0-1.59.52-1.59,1.86v6.25h5v4.84h-5l.18,38.34H73.49Z"/><path class="cls-1" d="M86.6,22.62C86.6,17,91.05,13,96.75,13s10.1,4,10.1,9.62-4.4,9.54-10.1,9.54S86.6,28.16,86.6,22.62Zm14.29,0c0-2.76-1.55-4.62-4.14-4.62s-4.19,1.83-4.19,4.62,1.6,4.62,4.19,4.62S100.89,25.31,100.89,22.62Z"/><path class="cls-1" d="M110.13,22.62c0-5.61,4.45-9.62,10.14-9.62s10.1,4,10.1,9.62-4.4,9.54-10.1,9.54S110.13,28.16,110.13,22.62Zm14.29,0c0-2.76-1.56-4.62-4.15-4.62s-4.21,1.83-4.21,4.62,1.59,4.62,4.18,4.62S124.42,25.31,124.42,22.62Z"/><path class="cls-1" d="M134.43.62h5.79v56h-5.79Z"/><g class="cls-2"><g class="cls-2"><path d="M0,20.69V2H6V20.34c0,4.28,1.86,5.92,5.87,5.92s5.79-1.64,5.79-5.92V2h6V20.69c0,7.42-5.14,11-11.83,11S0,28.11,0,20.69Z"/></g><g class="cls-2"><path d="M26.76,28.2l3.41-3a6.6,6.6,0,0,0,4.58,1.94c1.9,0,2.5-.34,2.5-1.12,0-1-1.16-1-4.14-1.77-2.5-.65-5.31-2-5.31-5.87,0-4.15,3.19-5.83,7.12-5.83a8.87,8.87,0,0,1,6.69,2.55l-3.1,3.32A5.71,5.71,0,0,0,35,17c-1.34,0-2,.35-2,1.08,0,1,1.17,1.16,3.67,1.73,2.68.6,6,1.85,6,5.74,0,3.36-1.77,6.13-7.55,6.13C30.87,31.7,28.36,30.1,26.76,28.2Z"/><path d="M56.33,26.86A7.94,7.94,0,0,0,61,25.39L64.28,29a11,11,0,0,1-7.86,2.72c-6.56,0-10.79-4-10.79-9.63s4.45-9.54,10.14-9.54c6.61,0,10.19,4.92,9.76,11.35H51.59C52.15,25.78,53.7,26.86,56.33,26.86Zm3.33-6.34a3.48,3.48,0,0,0-3.84-3.24c-2.29,0-3.85,1-4.32,3.24Z"/></g></g><path class="cls-1" d="M91.62,40.19l3.44,2.9a2.2,2.2,0,0,0-.7,1.42c0,.91.52,1.34,1.47,1.34h21.54v5.82H96.06c-4.23,0-6.65-2.28-6.65-6.6A6.54,6.54,0,0,1,91.62,40.19Zm32.51,4.88a3.65,3.65,0,0,1,3.63,3.66v.05a3.65,3.65,0,0,1-7.29.38v-.38a3.65,3.65,0,0,1,3.59-3.71Z"/><path class="cls-1" d="M102.11,55.09l3,3.41a6.59,6.59,0,0,0-1.94,4.57c0,1.9.35,2.51,1.12,2.51,1,0,1-1.17,1.77-4.15.65-2.5,2-5.31,5.87-5.31,4.15,0,5.83,3.2,5.83,7.12a8.83,8.83,0,0,1-2.55,6.69l-3.32-3.1a5.65,5.65,0,0,0,1.38-3.54c0-1.34-.34-2-1.08-2-1,0-1.16,1.17-1.72,3.67-.61,2.68-1.86,6-5.75,6-3.36,0-6.13-1.77-6.13-7.55C98.61,59.19,100.21,56.68,102.11,55.09Z"/></g></g></g></g></svg>