<?xml version="1.0" encoding="UTF-8"?><svg id="Calque_1" xmlns="http://www.w3.org/2000/svg" viewBox="0 0 1080 1080"><defs><style>.cls-1{fill:#f44336;}.cls-1,.cls-2,.cls-3,.cls-4,.cls-5{stroke:#000;stroke-miterlimit:10;stroke-width:11px;}.cls-2{fill:#4caf50;}.cls-3{fill:#ffc107;}.cls-6{fill:#2196f3;}.cls-4{fill:#fff;}.cls-7{fill:#4bb1f7;}.cls-8{fill:#097ece;}.cls-5{fill:none;stroke-linecap:round;}</style></defs><path d="M819.67,681.96h-25.12l49.49,62.85-292.77-1.74c.27,3.16,.42,6.56,.42,10.23,0,57.3-43.59,48.72-43.59,48.72l-338.2,.44c-6,0-10.86,5.49-10.86,12.25s4.87,12.25,10.87,12.25H824.74s51.2-9.87,51.2-76.92-56.27-68.08-56.27-68.08Z"/><path class="cls-1" d="M151.08,505.68H483.77s33.72,5.62,33.72-42.97-41.65-41.32-41.65-41.32l-323.14-.37c-5.73,0-10.38-4.66-10.38-10.39h0c0-5.74,4.65-10.39,10.39-10.39H778.39s48.92,8.37,48.92,65.23-53.77,57.73-53.77,57.73H151.08c-4.84,0-8.76-3.92-8.76-8.76h0c0-4.84,3.92-8.76,8.76-8.76Z"/><path class="cls-4" d="M483.77,505.68s33.72,5.62,33.72-42.97-41.65-41.32-41.65-41.32l-317.32-.37h0s11.9,11.27,11.9,40.69-13.55,43.96-13.55,43.96H483.77Z"/><path class="cls-3" d="M855.42,543.86H510.14s-34.99-6.63-34.99,50.67,43.22,48.72,43.22,48.72l335.37,.44c5.95,0,10.77,5.49,10.77,12.25h0c0,6.77-4.83,12.25-10.78,12.25H204.37s-50.77-9.87-50.77-76.92,55.8-68.08,55.8-68.08H855.42c5.02,0,9.09,4.62,9.09,10.33h0c0,5.7-4.07,10.33-9.09,10.33Z"/><path class="cls-4" d="M510.14,543.86s-34.99-6.63-34.99,50.67,43.22,48.72,43.22,48.72l329.33,.43h0s-12.35-13.3-12.35-47.99,14.07-51.84,14.07-51.84H510.14Z"/><line class="cls-5" x1="194.87" y1="443.13" x2="348.25" y2="443.13"/><line class="cls-5" x1="194.87" y1="464.24" x2="427.58" y2="464.24"/><line class="cls-5" x1="184.3" y1="484.88" x2="384.38" y2="484.88"/><line class="cls-5" x1="413.91" y1="484.88" x2="448.29" y2="484.88"/><line class="cls-5" x1="375.57" y1="443.13" x2="452.26" y2="443.13"/><line class="cls-5" x1="797.15" y1="568.5" x2="643.77" y2="568.5"/><line class="cls-5" x1="797.15" y1="591.87" x2="564.44" y2="591.87"/><line class="cls-5" x1="807.72" y1="618.55" x2="607.64" y2="618.55"/><line class="cls-5" x1="578.11" y1="618.55" x2="543.73" y2="618.55"/><line class="cls-5" x1="616.45" y1="568.5" x2="539.76" y2="568.5"/><path class="cls-2" d="M162.68,688.85H507.97s34.99-6.63,34.99,50.67c0,57.3-43.22,48.72-43.22,48.72l-335.37,.44c-5.95,0-10.77,5.49-10.77,12.25h0c0,6.77,4.83,12.25,10.78,12.25H813.74s50.77-9.87,50.77-76.92c0-67.04-55.8-68.08-55.8-68.08H162.68c-5.02,0-9.09,4.62-9.09,10.33h0c0,5.7,4.07,10.33,9.09,10.33Z"/><path class="cls-4" d="M507.97,688.85s34.99-6.63,34.99,50.67-43.22,48.72-43.22,48.72l-329.33,.43h0s12.35-13.3,12.35-47.99-14.07-51.84-14.07-51.84H507.97Z"/><line class="cls-5" x1="220.96" y1="713.49" x2="374.33" y2="713.49"/><line class="cls-5" x1="220.96" y1="736.87" x2="453.66" y2="736.87"/><line class="cls-5" x1="210.39" y1="763.55" x2="410.47" y2="763.55"/><line class="cls-5" x1="440" y1="763.55" x2="474.38" y2="763.55"/><line class="cls-5" x1="401.66" y1="713.49" x2="478.34" y2="713.49"/><g><polygon class="cls-6" points="781.52 424.7 634.83 191.23 908.65 223.54 1055.34 457.01 781.52 424.7"/><g><polygon class="cls-7" points="781.52 424.7 634.83 191.23 634.83 191.23 617.42 218.78 764.11 452.25 1037.93 484.56 1055.34 457.01 1055.34 457.01 781.52 424.7"/><path d="M1061.84,457.02l-3.24-5.16-145.29-231.24-1.4-2.23-273.83-32.31-6.05-.71-3.7,5.86-17.41,27.55,149.93,238.63,279.88,33.03,17.41-27.55,3.7-5.86Zm-156.45-228.32l139.17,221.5-19.09-2.25-240.7-28.4-139.17-221.5,259.79,30.65Zm129.74,249.99l-267.77-31.6-143.44-228.31,10.9-17.24,143.44,228.31,267.77,31.59-10.9,17.24Z"/></g><g><path class="cls-8" d="M764.11,452.25l-108.35-172.45-63.36,100.24c-54.92,86.9,255.69,283.22,310.61,196.32l63.35-100.24-202.26-23.87Z"/><path d="M854.21,603.56c-9.6,0-20.21-1.2-31.75-3.62-35.43-7.43-77.65-25.87-118.88-51.92-41.23-26.06-76-56.28-97.92-85.1-25.78-33.9-31.97-63.58-17.91-85.82l68.02-107.62,111.6,177.61,208.32,24.58-68.02,107.62c-10.17,16.08-28.39,24.27-53.45,24.27Zm-198.47-313.45l-58.69,92.86c-25.11,39.74,37.54,108.43,112.4,155.75,74.87,47.32,163.8,74.43,188.91,34.69l58.69-92.86-196.21-23.15-105.11-167.29Z"/></g><path d="M897.78,603.56c-.18,0-.36,0-.54-.03-3.02-.29-5.24-2.98-4.94-6.01l15.16-156.06-67.11-114.57c-1.54-2.62-.66-5.99,1.97-7.53,2.62-1.54,5.99-.66,7.53,1.97l68.92,117.64-15.5,159.61c-.28,2.84-2.67,4.97-5.47,4.97Z"/><g><path class="cls-7" d="M897.25,744.81l-30.22-3.08,22.05-147.21c.65-4.32,4.57-7.36,8.91-6.92h0c4.34,.44,7.57,4.22,7.34,8.58l-8.09,148.63Z"/><path d="M902.42,750.86l-41.69-4.25,22.91-152.91c1.08-7.24,7.63-12.32,14.91-11.58,7.28,.74,12.67,7.04,12.27,14.35l-8.4,154.39Zm-29.1-14.02l18.75,1.91,7.77-142.87c.08-1.43-.98-2.66-2.4-2.81-1.4-.15-2.71,.85-2.92,2.27l-21.2,141.5Z"/></g></g><path d="M957.06,480.55s-120.85-9.67-213.25,9.87c0,0-34.81-112.35-88.07-200.31l105.11,167.29,196.21,23.15Z"/><path d="M580.4,400.24s-14.51,87.24,63.37,122.96c0,0,12.78,3.26,11.97,20.66,0,0,64.72,80.51,173.91,57.45l-35.18-13.75-40.89-14.75-27.56-16.89-29.22-18.85-34.53-23.37-34.47-26.22-22.67-32.44-18.67-41.78-.56-13.02h-5.52Z"/><path class="cls-4" d="M894.22,257.68h0s0,0,0,0c.77-14.65-2.68-29.22-9.94-41.97h0s0,0,0,0c14.65,.77,29.22-2.68,41.97-9.94h0s0,0,0,0c-.77,14.65,2.68,29.22,9.94,41.97h0s0,0,0,0c-14.65-.77-29.22,2.68-41.97,9.94Z"/><path class="cls-4" d="M841.82,268.46h0s0,0,0,0c.5-9.48-1.73-18.91-6.43-27.16h0s0,0,0,0c9.48,.5,18.91-1.73,27.16-6.43h0s0,0,0,0c-.5,9.48,1.73,18.91,6.43,27.16h0s0,0,0,0c-9.48-.5-18.91,1.73-27.16,6.43Z"/><path class="cls-4" d="M159.48,696.59h0s0,0,0,0c-4.75-8.22-11.76-14.91-20.19-19.27h0s0,0,0,0c8.22-4.75,14.91-11.76,19.27-20.19h0s0,0,0,0c4.75,8.22,11.76,14.91,20.19,19.27h0s0,0,0,0c-8.22,4.75-14.91,11.76-19.27,20.19Z"/></svg>