<?xml version="1.0" encoding="UTF-8"?><svg id="Calque_1" xmlns="http://www.w3.org/2000/svg" viewBox="0 0 1080 1080"><defs><style>.cls-1{fill:#4bb1f7;}.cls-1,.cls-2,.cls-3,.cls-4,.cls-5,.cls-6,.cls-7{stroke:#000;stroke-miterlimit:10;stroke-width:11px;}.cls-8{fill:#5f656e;}.cls-2{fill:#ffc107;}.cls-3{fill:#2196f3;}.cls-4{fill:#fff;}.cls-5{fill:#e8e8e8;}.cls-7{fill:#097ece;}</style></defs><g><rect class="cls-3" x="182.56" y="325.82" width="685.48" height="473.14" rx="83.51" ry="83.51"/><path class="cls-1" d="M781.97,325.82c47.34,0,86.07,38.73,86.07,86.07v300.99c0,47.34-38.73,86.07-86.07,86.07,117.02,0,118.47-75.12,118.47-75.12V413.13c0-95.12-118.47-87.31-118.47-87.31Z"/><g><circle class="cls-8" cx="520.88" cy="561.88" r="142.21" transform="translate(-244.75 532.89) rotate(-45)"/><path d="M520.88,425.17c75.5,0,136.71,61.21,136.71,136.71s-61.21,136.71-136.71,136.71-136.71-61.21-136.71-136.71,61.21-136.71,136.71-136.71m0-11c-39.46,0-76.55,15.36-104.45,43.26-27.9,27.9-43.26,64.99-43.26,104.45s15.36,76.55,43.26,104.45c27.9,27.9,64.99,43.26,104.45,43.26s76.55-15.36,104.45-43.26c27.9-27.9,43.26-64.99,43.26-104.45s-15.36-76.55-43.26-104.45c-27.9-27.9-64.99-43.26-104.45-43.26h0Z"/></g><path class="cls-4" d="M520.19,371.62c-104.59,0-189.38,84.79-189.38,189.39s84.79,189.38,189.38,189.38,189.39-84.79,189.39-189.38-84.79-189.39-189.39-189.39Zm0,341.2c-83.84,0-151.81-67.97-151.81-151.81s67.97-151.82,151.81-151.82,151.82,67.97,151.82,151.82-67.97,151.81-151.82,151.81Z"/><circle class="cls-4" cx="324.36" cy="383.72" r="17.22"/><circle class="cls-6" cx="261.73" cy="408.59" r="29.71"/><path class="cls-2" d="M278.81,325.82h0c0-13.97,11.32-25.29,25.29-25.29h81.3c13.97,0,25.29,11.32,25.29,25.29h0s-131.88,0-131.88,0Z"/><path class="cls-2" d="M504.02,325.82v-34.8c0-23.43,18.99-42.42,42.42-42.42h175.84c23.43,0,42.42,18.99,42.42,42.42v34.8H504.02Z"/><path class="cls-4" d="M555.46,325.46v-17.84c0-12.01,10.97-21.74,24.51-21.74h101.59c13.53,0,24.51,9.74,24.51,21.74v18.2l-150.6-.36Z"/><rect class="cls-6" x="697.88" y="351.6" width="105.27" height="34.32" rx="9.89" ry="9.89"/><circle class="cls-5" cx="520.88" cy="561.88" r="58.61"/><circle class="cls-4" cx="530.04" cy="546.59" r="34.16"/><circle class="cls-4" cx="568.81" cy="472.42" r="18.52"/><path class="cls-6" d="M648.42,421.65c37.59,34.61,61.16,84.23,61.16,139.36,0,104.59-84.79,189.38-189.39,189.38-42.12,0-81.02-13.76-112.47-37.01,33.73,31.05,78.76,50.03,128.23,50.03,104.6,0,189.39-84.79,189.39-189.38,0-62.48-30.26-117.88-76.91-152.37Z"/><circle class="cls-7" cx="256.26" cy="400.94" r="29.71"/><rect class="cls-7" x="695.42" y="348.59" width="105.27" height="34.32" rx="9.89" ry="9.89"/></g><path class="cls-4" d="M226.4,357.76h0s0,0,0,0c.77-14.65-2.68-29.22-9.94-41.97h0s0,0,0,0c14.65,.77,29.22-2.68,41.97-9.94h0s0,0,0,0c-.77,14.65,2.68,29.22,9.94,41.97h0s0,0,0,0c-14.65-.77-29.22,2.68-41.97,9.94Z"/><path class="cls-4" d="M197.87,515.73h0s0,0,0,0c-9.34-1.72-18.98-.73-27.77,2.85h0s0,0,0,0c1.72-9.34,.73-18.98-2.85-27.77h0s0,0,0,0c9.34,1.72,18.98,.73,27.77-2.85h0s0,0,0,0c-1.72,9.34-.73,18.98,2.85,27.77Z"/><path class="cls-4" d="M815.22,764.72h0s0,0,0,0c10.66-6.56,19.23-16.03,24.67-27.3h0s0,0,0,0c6.56,10.66,16.03,19.23,27.3,24.67h0s0,0,0,0c-10.66,6.56-19.23,16.03-24.67,27.3h0s0,0,0,0c-6.56-10.66-16.03-19.23-27.3-24.67Z"/></svg>