<?xml version="1.0" encoding="UTF-8"?><svg id="Calque_1" xmlns="http://www.w3.org/2000/svg" viewBox="0 0 1080 1080"><defs><style>.cls-1,.cls-2{fill:#fff;}.cls-3{fill:#2196f3;}.cls-2{stroke:#000;stroke-miterlimit:10;stroke-width:11px;}.cls-4{fill:#1976d2;}</style></defs><g><g><g><path class="cls-1" d="M745.32,426.4c-1.78,1.39-3.52,3.05-5.19,4.92,.46-4.85,.7-9.65,.7-14.35,0-48.38-25.21-67.99-56.3-43.8-5.12,3.99-10.09,8.92-14.81,14.58-9.81-51.82-44.49-68.79-85.77-36.68-36.48,28.38-67.8,87.07-81.36,146.64-5.13,1.88-10.51,4.95-16.06,9.26-31.71,24.66-57.92,81.62-62.19,132.44-.2,.15-.41,.31-.61,.46-19.77,15.38-35.79,52.77-35.79,83.52,0,30.75,16.02,43.22,35.79,27.84l321.59-250.17c13.25-10.31,24-35.38,24-56,0-20.62-10.74-28.98-24-18.67Z"/><path d="M407.71,762.72c-3.05,0-5.98-.66-8.71-2-10.14-4.96-15.95-18.56-15.95-37.32,0-32.01,15.99-69.65,36.61-86.53,2.36-24.71,9.8-51.44,21.05-75.55,11.77-25.21,26.97-45.88,42.81-58.2,4.98-3.88,9.98-6.9,14.88-9,14.53-61.62,46.78-119.08,82.55-146.9,26.01-20.23,45.62-19.13,57.49-14.65,15.88,6,27.74,21.79,33.97,44.92,3-3.06,6.05-5.79,9.12-8.18,14.47-11.26,28.92-14.29,40.68-8.53,14.95,7.31,23.52,27.79,23.52,56.19,0,1.07-.01,2.16-.04,3.25,7.86-4.67,13.86-3.13,16.92-1.63,7.48,3.66,11.6,13.06,11.6,26.48,0,22.28-11.37,48.58-25.89,59.87l-321.59,250.17c-6.48,5.04-13,7.62-19.03,7.62Zm215.73-423.05c-11.07,0-23.46,5.16-36.47,15.28-34.58,26.9-65.82,83.37-79.6,143.86l-.59,2.59-2.5,.92c-4.75,1.74-9.71,4.62-14.75,8.53-30.18,23.48-56.11,78.93-60.31,128.98l-.18,2.19-1.76,1.32c-.22,.16-.38,.29-.55,.41-18.69,14.54-33.9,50.27-33.9,79.65,0,14.66,3.91,25.32,10.46,28.53,4.58,2.24,10.77,.62,17.43-4.55l321.59-250.17c11.98-9.32,22.11-33.2,22.11-52.14,0-10.83-3.16-16.23-6.11-17.68-3.36-1.64-7.7,1.1-9.99,2.88h0c-1.5,1.17-3.03,2.62-4.54,4.31l-9.93,11.13,1.4-14.85c.45-4.76,.68-9.44,.68-13.89,0-24.16-6.74-41.88-18.03-47.4-10.54-5.15-22.33,1.21-30.37,7.47-4.74,3.68-9.46,8.34-14.05,13.85l-6.64,7.98-1.93-10.2c-4.69-24.74-15.32-41.42-29.94-46.94-3.65-1.38-7.51-2.06-11.54-2.06Z"/></g><g><path class="cls-4" d="M406.31,757.83c22.42-36.28-18.36-3.67-18.36-34.43s16.02-68.14,35.79-83.52c.2-.16,.41-.31,.61-.46,4.27-50.82,30.48-107.77,62.19-132.44,5.55-4.32,10.94-7.38,16.06-9.26,13.56-59.57,44.88-118.26,81.36-146.64,14.1-10.97,27.42-16.21,39.26-16.29h-70.39c-.37,0-.74,0-1.12,0l-6.83,.65c-9.96,1.71-20.8,6.82-32.13,15.64-36.48,28.38-67.8,87.07-81.36,146.64-5.13,1.88-10.51,4.95-16.06,9.26-31.71,24.66-57.92,81.62-62.19,132.44-.2,.15-.41,.31-.61,.46-19.77,15.38-35.79,52.77-35.79,83.52,0,21.98,8.19,34.61,20.07,34.42h69.5Z"/><path d="M409.04,762.72h-72.23c-5.46,.07-10.51-1.98-14.55-5.96-6.81-6.7-10.41-18.24-10.41-33.36,0-32.01,15.99-69.65,36.61-86.53,2.36-24.71,9.8-51.44,21.05-75.55,11.77-25.21,26.97-45.88,42.81-58.2,4.98-3.88,9.98-6.9,14.88-9,14.53-61.62,46.78-119.08,82.55-146.9,11.72-9.12,23.26-14.7,34.31-16.6l.37-.05,7.23-.67c.42,0,.84,0,1.25,0h70.32s.03,9.79,.03,9.79c-11.01,.08-23.55,5.35-36.28,15.26-34.58,26.9-65.82,83.37-79.6,143.86l-.59,2.59-2.5,.92c-4.75,1.74-9.71,4.62-14.75,8.53-30.18,23.48-56.11,78.93-60.31,128.98l-.18,2.19-1.76,1.32c-.2,.15-.37,.28-.54,.41-18.69,14.54-33.9,50.27-33.9,79.65,0,9.51,3.62,10,11.8,10.22,4.6,.12,9.82,.25,12.29,4.81,2.42,4.48,.67,10.44-6.45,21.97l-1.44,2.32Zm-72.31-9.8h66.82c3.13-5.32,4.15-8.03,4.46-9.33-1.03-.12-2.52-.16-3.62-.19-6.93-.18-21.34-.55-21.34-20,0-32.01,15.99-69.65,36.61-86.53,2.36-24.71,9.8-51.44,21.05-75.55,11.77-25.21,26.97-45.88,42.81-58.2,4.98-3.88,9.98-6.9,14.88-9,14.54-61.62,46.78-119.08,82.55-146.9,3.68-2.86,7.32-5.37,10.94-7.53h-39.06c-.32,0-.59,0-.86,0l-6.44,.61c-9.39,1.65-19.41,6.58-29.78,14.64-34.58,26.9-65.82,83.37-79.6,143.86l-.59,2.59-2.5,.92c-4.75,1.74-9.71,4.62-14.75,8.53-30.18,23.48-56.11,78.93-60.31,128.98l-.18,2.19-1.83,1.38c-.16,.12-.31,.23-.47,.36-18.69,14.54-33.9,50.27-33.9,79.65,0,12.08,2.73,21.7,7.49,26.38,2.2,2.16,4.7,3.18,7.61,3.14Z"/></g><g><path class="cls-3" d="M745.32,426.4c-1.78,1.39-3.52,3.05-5.19,4.92,.46-4.85,.7-9.65,.7-14.35,0-48.38-25.21-67.99-56.3-43.8-5.12,3.99-10.09,8.92-14.81,14.58-9.81-51.82-44.49-68.79-85.77-36.68-36.48,28.38-67.8,87.07-81.36,146.64-5.13,1.88-10.51,4.95-16.06,9.26-31.71,24.66-57.92,81.62-62.19,132.44-.2,.15-.41,.31-.61,.46-19.77,15.38-35.79,52.77-35.79,83.52,0,30.75,16.02,43.22,35.79,27.84l321.59-250.17c13.25-10.31,24-35.38,24-56,0-20.62-10.74-28.98-24-18.67Z"/><path d="M407.71,762.72c-3.05,0-5.98-.66-8.71-2-10.14-4.96-15.95-18.56-15.95-37.32,0-32.01,15.99-69.65,36.61-86.53,2.36-24.71,9.8-51.44,21.05-75.55,11.77-25.21,26.97-45.88,42.81-58.2,4.98-3.88,9.98-6.9,14.88-9,14.53-61.62,46.78-119.08,82.55-146.9,26.01-20.23,45.62-19.13,57.49-14.65,15.88,6,27.74,21.79,33.97,44.92,3-3.06,6.05-5.79,9.12-8.18,14.47-11.26,28.92-14.29,40.68-8.53,14.95,7.31,23.52,27.79,23.52,56.19,0,1.07-.01,2.16-.04,3.25,7.86-4.67,13.86-3.13,16.92-1.63,7.48,3.66,11.6,13.06,11.6,26.48,0,22.28-11.37,48.58-25.89,59.87l-321.59,250.17c-6.48,5.04-13,7.62-19.03,7.62Zm215.73-423.05c-11.07,0-23.46,5.16-36.47,15.28-34.58,26.9-65.82,83.37-79.6,143.86l-.59,2.59-2.5,.92c-4.75,1.74-9.71,4.62-14.75,8.53-30.18,23.48-56.11,78.93-60.31,128.98l-.18,2.19-1.76,1.32c-.22,.16-.38,.29-.55,.41-18.69,14.54-33.9,50.27-33.9,79.65,0,14.66,3.91,25.32,10.46,28.53,4.58,2.24,10.77,.62,17.43-4.55l321.59-250.17c11.98-9.32,22.11-33.2,22.11-52.14,0-10.83-3.16-16.23-6.11-17.68-3.36-1.64-7.7,1.1-9.99,2.88h0c-1.5,1.17-3.03,2.62-4.54,4.31l-9.93,11.13,1.4-14.85c.45-4.76,.68-9.44,.68-13.89,0-24.16-6.74-41.88-18.03-47.4-10.54-5.15-22.33,1.21-30.37,7.47-4.74,3.68-9.46,8.34-14.05,13.85l-6.64,7.98-1.93-10.2c-4.69-24.74-15.32-41.42-29.94-46.94-3.65-1.38-7.51-2.06-11.54-2.06Z"/></g></g><g><path d="M465.99,259.53c-.88,2.56,.47,5.34,3.02,6.23l24.9,8.62c-66.56,11.34-125.62,46.63-167.32,100.29-41.49,53.39-61.12,118.95-55.94,185.91l-14.05-23.05c-1.41-2.31-4.42-3.04-6.73-1.63-2.31,1.41-3.04,4.42-1.63,6.73l28.79,47.24,24.43-49.63c1.19-2.43,.2-5.36-2.23-6.56-2.43-1.2-5.36-.2-6.56,2.23l-12.18,24.74c-10.73-134.17,83.71-255.02,216.72-276.88l-22.13,17.59c-2.12,1.68-2.47,4.76-.79,6.88,.97,1.22,2.4,1.85,3.84,1.85,1.07,0,2.14-.35,3.04-1.06l43.31-34.42-52.28-18.1c-2.55-.89-5.34,.47-6.23,3.02Z"/><path d="M831.8,540.87l-28.05-47.68-25.2,49.25c-1.23,2.41-.28,5.36,2.13,6.59,.71,.37,1.48,.54,2.23,.54,1.78,0,3.5-.97,4.36-2.67l12.57-24.56c4.21,64.88-15.67,128.08-56.62,179.12-41.33,51.52-99.41,84.76-164.39,94.38l22.41-17.25c2.14-1.65,2.54-4.72,.89-6.87-1.65-2.14-4.72-2.54-6.87-.89l-43.84,33.74,51.99,18.91c.55,.2,1.12,.3,1.67,.3,2,0,3.88-1.24,4.6-3.22,.92-2.54-.39-5.35-2.93-6.28l-24.76-9c66.73-10.3,126.33-44.68,168.86-97.68,42.31-52.74,62.96-117.99,58.82-185.02l13.69,23.27c1.37,2.33,4.37,3.11,6.7,1.74,2.33-1.37,3.11-4.37,1.74-6.7Z"/></g></g><path class="cls-2" d="M758.32,507.81h0s0,0,0,0c-12.32,6.74-22.45,16.87-29.19,29.19h0s0,0,0,0c-6.74-12.32-16.87-22.45-29.19-29.19h0s0,0,0,0c12.32-6.74,22.45-16.87,29.19-29.19h0s0,0,0,0c6.74,12.32,16.87,22.45,29.19,29.19Z"/><path class="cls-2" d="M414.03,528.68h0s0,0,0,0c-11.07,6.06-20.18,15.16-26.24,26.24h0s0,0,0,0c-6.06-11.07-15.16-20.18-26.24-26.24h0s0,0,0,0c11.07-6.06,20.18-15.16,26.24-26.24h0s0,0,0,0c6.06,11.07,15.16,20.18,26.24,26.24Z"/><path class="cls-2" d="M386.92,589.85h0s0,0,0,0c-7.14,3.9-13.01,9.77-16.91,16.91h0s0,0,0,0c-3.9-7.14-9.77-13.01-16.91-16.91h0s0,0,0,0c7.14-3.9,13.01-9.77,16.91-16.91h0s0,0,0,0c3.9,7.14,9.77,13.01,16.91,16.91Z"/></svg>