<?xml version="1.0" encoding="UTF-8"?><svg id="Calque_1" xmlns="http://www.w3.org/2000/svg" viewBox="0 0 1080 1080"><defs><style>.cls-1,.cls-2{fill:#fff;}.cls-3{fill:#4caf50;}.cls-3,.cls-4,.cls-5,.cls-6,.cls-2,.cls-7{stroke:#000;stroke-miterlimit:10;stroke-width:11px;}.cls-4{fill:#4bb1f7;}.cls-5{fill:#2196f3;}.cls-8{fill:#f44336;}.cls-6{fill:#67c967;}</style></defs><path class="cls-7" d="M895.09,542.38c2.74-54.9-32.16-110.31-104.74-152.21-126.61-73.1-324.42-80.04-464.54-20.82-14.7,6.2-28.76,13.15-42.04,20.81-13.28,7.67-25.3,15.79-36.05,24.27-45.91,36.21-68.84,79.09-68.84,121.96h0s-.01,0-.01,0v86.22h.01c0,52.93,34.95,105.85,104.9,146.24,139.89,80.76,366.69,80.76,506.58,0,69.95-40.38,104.92-93.31,104.92-146.24v-86.22c0,1.99-.08,3.98-.18,5.98Z"/><path class="cls-3" d="M796.76,379.4c139.89,80.76,139.9,211.71,0,292.48-139.89,80.76-366.69,80.76-506.58,0-126.61-73.1-138.63-187.3-36.05-268.2,10.76-8.48,22.77-16.61,36.05-24.27,13.28-7.67,27.34-14.61,42.04-20.82,140.12-59.23,337.93-52.28,464.54,20.82Z"/><path class="cls-6" d="M901.68,525.63c0,52.93-34.97,105.85-104.92,146.24-139.89,80.76-366.69,80.76-506.58,0-69.95-40.38-104.9-93.31-104.9-146.24h-.02v86.22h.02c0,52.93,34.95,105.85,104.9,146.24,139.89,80.76,366.69,80.76,506.58,0,69.95-40.38,104.92-93.31,104.92-146.24v-86.22h0Z"/><ellipse class="cls-4" cx="543.47" cy="525.63" rx="287.7" ry="166.1"/><path class="cls-5" d="M746.9,456.83c-112.35-64.87-294.51-64.87-406.86,0-45.43,26.23-72.48,59.05-81.17,93.13,8.69,34.08,35.74,66.9,81.17,93.13,112.35,64.87,294.51,64.87,406.86,0,45.43-26.23,72.48-59.05,81.17-93.13-8.69-34.08-35.74-66.9-81.17-93.13Z"/><path class="cls-2" d="M173.3,516.72h0s0,0,0,0c.77-14.65-2.68-29.22-9.94-41.97h0s0,0,0,0c14.65,.77,29.22-2.68,41.97-9.94h0s0,0,0,0c-.77,14.65,2.68,29.22,9.94,41.97h0s0,0,0,0c-14.65-.77-29.22,2.68-41.97,9.94Z"/><path class="cls-2" d="M520.14,335.62h0s0,0,0,0c.5-9.48-1.73-18.91-6.43-27.16h0s0,0,0,0c9.48,.5,18.91-1.73,27.16-6.43h0s0,0,0,0c-.5,9.48,1.73,18.91,6.43,27.16h0s0,0,0,0c-9.48-.5-18.91,1.73-27.16,6.43Z"/><path class="cls-2" d="M822.27,642.57h0s0,0,0,0c10.66-6.56,19.23-16.03,24.67-27.3h0s0,0,0,0c6.56,10.66,16.03,19.23,27.3,24.67h0s0,0,0,0c-10.66,6.56-19.23,16.03-24.67,27.3h0s0,0,0,0c-6.56-10.66-16.03-19.23-27.3-24.67Z"/><polygon points="600.36 531.08 537.06 420.95 473.77 531.08 470.61 536.58 473.77 542.08 537.06 652.2 600.36 542.08 603.52 536.58 600.36 531.08"/><g><path class="cls-1" d="M392.64,450.9c-2.01,0-3.99-.53-5.73-1.54l-54.1-31.24c-2.66-1.53-4.56-4.01-5.35-6.97-.79-2.96-.39-6.06,1.15-8.71,2.04-3.54,5.86-5.74,9.95-5.74,2.01,0,3.99,.53,5.74,1.54l54.1,31.23c2.66,1.53,4.56,4.01,5.35,6.97s.39,6.06-1.15,8.71c-2.04,3.54-5.85,5.74-9.95,5.74Z"/><path d="M338.55,402.2c1.02,0,2.04,.26,2.99,.8l54.1,31.23c2.86,1.65,3.84,5.31,2.19,8.17-1.11,1.92-3.12,2.99-5.18,2.99-1.02,0-2.04-.26-2.99-.8l-54.1-31.23c-2.86-1.65-3.84-5.31-2.19-8.17,1.11-1.92,3.12-2.99,5.18-2.99m0-11h0c-6.05,0-11.69,3.26-14.71,8.5-2.27,3.92-2.87,8.5-1.7,12.88,1.17,4.38,3.98,8.04,7.91,10.31l54.1,31.23c2.57,1.49,5.51,2.28,8.49,2.28,6.05,0,11.69-3.25,14.71-8.49,2.27-3.92,2.87-8.5,1.7-12.88-1.17-4.38-3.98-8.04-7.91-10.31l-54.1-31.23c-2.58-1.49-5.51-2.28-8.49-2.28h0Z"/></g><path class="cls-6" d="M332.22,358.58l28.59,61.6-106.69-16.51c10.76-8.48,22.77-16.61,36.05-24.27,13.28-7.67,27.34-14.61,42.04-20.82Z"/><path class="cls-1" d="M756.72,414.13c-3.17-2.02-6.44-4.01-9.82-5.96-3.85-2.22-7.8-4.37-11.81-6.44l-48.03,27.73c-2.66,1.53-4.56,4.01-5.35,6.97-.79,2.96-.39,6.06,1.15,8.71,2.04,3.54,5.86,5.74,9.95,5.74,2.01,0,3.99-.53,5.74-1.54l54.1-31.23c1.7-.98,3.09-2.35,4.08-3.99Z"/><path d="M761.33,417.15c-3-2-6.09-3.98-9.29-5.92-.51,.86-1.23,1.6-2.15,2.13l-54.1,31.23c-.94,.54-1.97,.8-2.99,.8-2.07,0-4.08-1.07-5.18-2.99-1.65-2.86-.67-6.52,2.19-8.17l51.01-29.45c-3.8-2.07-7.68-4.07-11.62-5.99l-44.9,25.92c-3.93,2.27-6.74,5.93-7.91,10.31-1.17,4.38-.57,8.96,1.7,12.89,3.02,5.24,8.66,8.49,14.71,8.49,2.97,0,5.91-.79,8.49-2.28l54.1-31.23c2.46-1.42,4.48-3.39,5.94-5.74Z"/><path class="cls-1" d="M756.72,637.12c-.99-1.63-2.37-3-4.07-3.98l-54.09-31.23c-1.74-1.01-3.73-1.54-5.74-1.54-4.09,0-7.9,2.2-9.95,5.74-1.53,2.66-1.94,5.75-1.15,8.71,.79,2.96,2.69,5.44,5.35,6.97l48.03,27.73c4.01-2.07,7.96-4.21,11.81-6.44,3.38-1.95,6.64-3.94,9.81-5.96Z"/><path d="M755.39,628.38l-54.1-31.23c-2.57-1.49-5.51-2.28-8.49-2.28h0c-6.05,0-11.69,3.25-14.71,8.49-2.27,3.93-2.87,8.5-1.7,12.89,1.17,4.38,3.98,8.04,7.91,10.31l44.9,25.92c3.94-1.93,7.82-3.92,11.62-6l-51.01-29.45c-2.86-1.65-3.84-5.31-2.19-8.17,1.11-1.92,3.12-2.99,5.18-2.99,1.02,0,2.04,.26,2.99,.8l54.1,31.23c.92,.53,1.64,1.27,2.15,2.13,3.19-1.94,6.29-3.91,9.29-5.92-1.46-2.35-3.48-4.32-5.94-5.74Z"/><path class="cls-1" d="M340.04,643.08c3.85,2.22,7.8,4.37,11.81,6.44l48.03-27.73c2.66-1.53,4.56-4.01,5.35-6.97s.39-6.06-1.15-8.71c-2.04-3.54-5.86-5.74-9.95-5.74-2.01,0-3.99,.53-5.74,1.54l-54.1,31.23c-1.7,.98-3.08,2.35-4.07,3.98,3.17,2.02,6.44,4.01,9.81,5.96Z"/><path d="M397.13,617.03l-51.01,29.45c3.8,2.07,7.68,4.07,11.62,5.99l44.9-25.92c3.93-2.27,6.74-5.93,7.91-10.31,1.17-4.38,.57-8.96-1.7-12.89-3.02-5.24-8.66-8.49-14.71-8.49h0c-2.97,0-5.91,.79-8.48,2.28l-54.1,31.23c-2.46,1.42-4.48,3.39-5.94,5.74,3,2,6.09,3.98,9.29,5.92,.51-.85,1.23-1.6,2.15-2.13l54.1-31.23c.94-.54,1.97-.8,2.99-.8,2.07,0,4.08,1.07,5.18,2.99,1.65,2.86,.67,6.52-2.19,8.17Z"/><g><polygon class="cls-8" points="543.47 421.04 483.36 525.63 603.59 525.63 543.47 421.04"/><polygon class="cls-1" points="543.47 630.22 603.59 525.63 483.36 525.63 543.47 630.22"/><path d="M609.93,525.63l-3.16-5.5-63.3-110.12-63.3,110.12-3.16,5.5,3.16,5.5,63.3,110.12,63.3-110.12,3.16-5.5Zm-66.46-93.55l50.61,88.05h-101.22l50.61-88.05Zm0,187.1l-50.61-88.05h101.22l-50.61,88.05Z"/></g></svg>