<?xml version="1.0" encoding="UTF-8"?><svg id="Calque_1" xmlns="http://www.w3.org/2000/svg" viewBox="0 0 1080 1080"><defs><style>.cls-1{fill:none;}.cls-1,.cls-2,.cls-3,.cls-4,.cls-5,.cls-6,.cls-7,.cls-8,.cls-9{stroke:#000;stroke-miterlimit:10;stroke-width:11px;}.cls-2{fill:#f44336;}.cls-3{fill:#4caf50;}.cls-4{fill:#ffc107;}.cls-5{fill:#ce302c;}.cls-6{fill:#2c842c;}.cls-7{fill:#fff;}.cls-8{fill:#e5e5e5;}.cls-9{fill:#5f656e;}</style></defs><rect class="cls-7" x="273.87" y="163.49" width="575.8" height="815.88" rx="45.1" ry="45.1"/><path class="cls-8" d="M812.36,163.49H311.19c-20.52,0-37.31,16.79-37.31,37.31v83.16H849.67v-83.16c0-20.52-16.79-37.31-37.31-37.31Z"/><circle class="cls-2" cx="330.5" cy="223.72" r="19.12"/><circle class="cls-3" cx="388.58" cy="223.72" r="19.12"/><circle class="cls-4" cx="446.66" cy="223.72" r="19.12"/><rect class="cls-9" x="333.07" y="675.93" width="215.02" height="32.36"/><rect class="cls-9" x="333.07" y="734.76" width="457.4" height="32.36"/><rect class="cls-9" x="333.07" y="793.59" width="457.4" height="32.36"/><rect class="cls-9" x="644.26" y="852.42" width="146.21" height="32.36"/><rect class="cls-8" x="333.07" y="375.45" width="457.4" height="225.02"/><path d="M382.72,664.46c-49.84-19.31-105.18,3.99-123.39,51.83-3.43,9.01-5.29,18.24-5.73,27.43-.22,4.55-.08,9.09,.39,13.58,.51,26.32,6.29,69.04-2.42,98.35-.87,2.92,.79,6.06,3.76,7.19l5,1.9-5.28,13.87-9.98-3.8c-2.97-1.13-6.29,.36-7.42,3.33l-2.63,6.9c-1.13,2.97,.36,6.29,3.33,7.42l9.98,3.8-6.65,17.47,39.75,15.13-40.82-15.54c-7.89-3-16.73,.96-19.73,8.85l-1.74,4.58c-3,7.89,.96,16.73,8.85,19.73l81.63,31.08c7.89,3,16.73-.96,19.73-8.85l1.74-4.58c3-7.89-.96-16.73-8.85-19.73l-1.06-.4,1.62-4.25c.09,.06,.18,.13,.26,.19l3.51-9.21-.29-.11,1.55-4.08,9.98,3.8c2.97,1.13,6.29-.36,7.42-3.33l2.63-6.9c1.13-2.97-.36-6.29-3.33-7.42l-9.98-3.8,.65-1.7,1.75-4.6,2.88-7.57-30.08-11.45,35.09,13.36c2.97,1.13,6.29-.11,7.58-2.87,12.99-27.68,45.71-55.74,63.59-75.06,3.34-3.04,6.46-6.34,9.32-9.89h0c5.86-7.25,10.66-15.52,14.1-24.68,17.72-47.19-7.72-100.96-56.72-119.95Z"/><g><path class="cls-4" d="M408.74,809.08h0c5.86-7.25,10.66-15.52,14.1-24.68,17.71-47.19-7.72-100.96-56.72-119.95-49.84-19.31-105.18,3.99-123.39,51.83-3.43,9.01-5.29,18.24-5.73,27.43h0c-.22,4.55-.08,9.09,.39,13.58,.51,26.32,6.29,69.04-2.42,98.35-.87,2.92,.79,6.06,3.76,7.19l44.76,17.04,44.76,17.04c2.97,1.13,6.29-.11,7.58-2.87,12.99-27.68,45.71-55.74,63.59-75.06,3.34-3.04,6.46-6.34,9.32-9.89h0Z"/><rect class="cls-7" x="238.07" y="879.33" width="85.08" height="16.19" transform="translate(334.07 -41.77) rotate(20.84)"/><rect class="cls-7" x="225.86" y="909.47" width="85.08" height="20.04" transform="translate(344.68 -35.33) rotate(20.84)"/><rect class="cls-4" x="215.88" y="893.11" width="117.93" height="18.89" rx="6.95" ry="6.95" transform="translate(339.08 -38.73) rotate(20.84)"/><rect class="cls-4" x="199.56" y="927.69" width="117.93" height="35.48" rx="17.74" ry="17.74" transform="translate(353.26 -30.12) rotate(20.84)"/><line class="cls-4" x1="283.49" y1="879.86" x2="316.2" y2="793.91"/><polygon class="cls-7" points="328.91 760.54 350.77 768.86 332.93 782.85 315.09 796.85 311.07 774.53 307.05 752.22 328.91 760.54"/><path d="M242.6,867.69s54.25,23.81,76,39.48l3.51-9.21-79.51-30.27Z"/><path d="M230.47,900.44s54.25,23.81,76,39.48l3.51-9.21-79.51-30.27Z"/></g><path class="cls-7" d="M346.26,665.67h0s0,0,0,0c-10.19,5.57-18.57,13.95-24.15,24.15h0s0,0,0,0c-5.57-10.19-13.95-18.57-24.15-24.15h0s0,0,0,0c10.19-5.57,18.57-13.95,24.15-24.15h0s0,0,0,0c5.57,10.19,13.95,18.57,24.15,24.15Z"/><path class="cls-7" d="M307.78,702.52h0s0,0,0,0c-7.38,4.04-13.44,10.1-17.48,17.48h0s0,0,0,0c-4.04-7.38-10.1-13.44-17.48-17.48h0s0,0,0,0c7.38-4.04,13.44-10.1,17.48-17.48h0s0,0,0,0c4.04,7.38,10.1,13.44,17.48,17.48Z"/><rect class="cls-7" x="416.61" y="508.66" width="69.27" height="91.82"/><rect class="cls-7" x="527.14" y="471.15" width="69.27" height="129.32"/><rect class="cls-7" x="637.66" y="416" width="69.27" height="184.47"/><path d="M873.64,285.62c-43.08-89.06-127.88-137.12-189.39-107.36-2.7,1.31-5.31,2.75-7.83,4.31-2.79,1.01-5.54,2.16-8.24,3.47-61.52,29.76-76.46,126.08-33.38,215.13,43.08,89.05,127.88,137.12,189.39,107.36,2.63-1.27,5.15-2.71,7.61-4.23,0,0,0,0,0,0,2.86-1.03,5.69-2.21,8.46-3.55,61.52-29.76,76.46-126.08,33.38-215.13Z"/><ellipse class="cls-2" cx="795.35" cy="296.85" rx="142.52" ry="206.32" transform="translate(-49.89 375.99) rotate(-25.82)"/><ellipse class="cls-7" cx="795.35" cy="296.85" rx="116.24" ry="168.28" transform="translate(-49.89 375.99) rotate(-25.82)"/><ellipse class="cls-2" cx="795.35" cy="296.85" rx="89.97" ry="130.24" transform="translate(-49.89 375.99) rotate(-25.82)"/><ellipse class="cls-7" cx="795.35" cy="296.85" rx="63.69" ry="92.2" transform="translate(-49.89 375.99) rotate(-25.82)"/><ellipse class="cls-2" cx="795.35" cy="296.85" rx="37.41" ry="54.16" transform="translate(-49.89 375.99) rotate(-25.82)"/><path class="cls-5" d="M686.99,120.07c2.9-1.4,5.85-2.65,8.84-3.76,.11-.04,.19,.11,.08,.18-62.7,39.35-76.16,144.66-28.86,242.42,46.83,96.8,136.44,151.55,205.93,128.61,.32-.1,.52,.33,.23,.5-2.12,1.25-4.28,2.43-6.52,3.52-70.86,34.28-168.52-21.09-218.15-123.67-49.62-102.58-32.41-213.52,38.44-247.8Z"/><path d="M944.75,293.47l-134.53-7.24c-5.17-.27-4.4-14.49,.76-14.2l129.87,6.99c1.44,4.82,2.74,9.65,3.9,14.45Z"/><path d="M949.14,387.14c-2.46,14.38-6.48,27.84-12.02,40.02l-15.02-29.21-130.71-86.2c-4.32-2.85,3.52-14.73,7.83-11.88l131.42,85.84,18.5,1.43Z"/><g><path class="cls-6" d="M792.35,310.09l196.35,59.77c3.67,1.12,7.81-12.5,4.14-13.61l-196.35-59.77c-4.95-1.51-9.09,12.11-4.14,13.61Z"/><path class="cls-3" d="M988.36,347.81l18.02-18.99-72.23,8.07c-.8,.09-.91,1.22-.13,1.45l41.9,12.76c4.44,1.35,9.25,.08,12.44-3.29Z"/><path class="cls-3" d="M979.92,372.26l4.74,27.92-55.49-46.95c-.62-.52-.08-1.52,.7-1.28l43.95,13.38c3.18,.97,5.54,3.65,6.1,6.93Z"/></g><path class="cls-6" d="M813.37,284.95l195.74-61.74c3.66-1.15-.62-14.72-4.28-13.57l-195.74,61.74c-4.93,1.56-.65,15.13,4.28,13.57Z"/><path class="cls-3" d="M997.04,200.96l3.44-21.6-55.01,47.5c-.61,.53-.06,1.52,.71,1.27l37.66-11.88c6.94-2.19,12.05-8.11,13.19-15.3Z"/><path class="cls-3" d="M1006.01,233.03l16.91,17.47-72.31-7.34c-.8-.08-.92-1.21-.15-1.45l39.99-12.61c5.51-1.74,11.54-.21,15.56,3.94Z"/><path class="cls-7" d="M771.97,137.08h0s0,0,0,0c-10.19,5.57-18.57,13.95-24.15,24.15h0s0,0,0,0c-5.57-10.19-13.95-18.57-24.15-24.15h0s0,0,0,0c10.19-5.57,18.57-13.95,24.15-24.15h0s0,0,0,0c5.57,10.19,13.95,18.57,24.15,24.15Z"/><path class="cls-7" d="M804.92,105.42h0s0,0,0,0c-8.31,4.54-15.14,11.38-19.68,19.68h0s0,0,0,0c-4.54-8.31-11.38-15.14-19.68-19.68h0s0,0,0,0c8.31-4.54,15.14-11.38,19.68-19.68h0s0,0,0,0c4.54,8.31,11.38,15.14,19.68,19.68Z"/><polyline class="cls-1" points="333.07 595.8 407.7 482.18 476.97 482.18 514.47 447.99 596.41 452.4 638.7 384.39"/></svg>