<?xml version="1.0" encoding="UTF-8"?><svg id="Calque_1" xmlns="http://www.w3.org/2000/svg" viewBox="0 0 1080 1080"><defs><style>.cls-1{fill:#f26561;}.cls-2{fill:#edab07;}.cls-3{fill:#ffce55;}.cls-4{fill:#f44336;}.cls-5{fill:#fff;stroke:#000;stroke-miterlimit:10;stroke-width:11px;}.cls-6{fill:#ffc107;}.cls-7{fill:#ce302c;}</style></defs><g><g><polygon class="cls-7" points="560.74 661.84 560.74 923.13 555.25 919.96 278.23 760.02 278.23 498.75 555.25 658.67 560.74 661.84"/><path d="M566.24,658.66l-5.49-3.17-5.5,3.18-277.02-159.92v261.27l277.02,159.94,5.49,3.17,5.51-3.18v-261.28h0Zm-10.99,254.94l-271.52-156.76v-248.58l271.52,156.75v248.59Z"/><polygon points="848.76 489.22 848.76 763.2 846.01 764.78 566.25 926.31 560.75 929.48 555.25 926.31 272.73 763.2 272.73 489.22 560.75 655.49 555.25 658.67 278.23 498.75 278.23 760.02 555.25 919.96 560.74 923.13 566.25 919.95 843.26 760.02 843.26 498.75 566.24 658.66 560.75 655.49 848.76 489.22"/></g><g><polygon class="cls-7" points="843.26 498.75 843.26 760.02 566.25 919.95 560.74 923.13 560.74 661.84 566.24 658.66 843.26 498.75"/><path d="M566.24,658.66l-5.49-3.17-5.5,3.18v261.29l5.49,3.17,5.51-3.18,277.01-159.93V498.75l-277.02,159.91Zm271.52,98.19l-271.51,156.76v-248.59l271.51-156.75v248.58Z"/></g><g><polygon class="cls-4" points="560.74 596.91 560.74 661.84 555.25 658.67 230.11 470.95 230.11 406.02 555.25 593.74 560.74 596.91"/><path d="M566.24,593.73l-5.49-3.17L241.11,406.02l-5.5-3.17-5.5,3.17v6.35l-5.5-3.17v64.93l330.64,190.89,5.5,3.17,5.5,3.18v-77.63h0Zm-10.99,6.35v52.23L235.61,467.78v-52.23l319.64,184.54Z"/></g><g><polygon class="cls-4" points="891.38 406.04 891.38 470.95 566.25 658.66 560.74 661.84 560.74 596.91 566.24 593.73 891.38 406.04"/><path d="M891.38,412.39v-6.35l-5.5-3.17-5.5,3.17-319.63,184.52-5.5,3.18v77.63l5.5-3.18,5.5-3.17,327.88-189.31,2.75-1.58v-64.91l-5.5,3.17Zm-5.5,55.39l-319.63,184.54v-52.23l319.63-184.52v52.21Z"/></g><g><polygon class="cls-1" points="891.38 406.04 566.24 593.73 560.74 596.91 555.25 593.74 230.11 406.02 235.61 402.85 560.75 215.15 885.88 402.87 891.38 406.04"/><path d="M891.39,399.69l-330.64-190.89L230.11,399.67l5.5,3.18-5.5,3.17v6.35l5.5,3.18,319.64,184.53h0s5.49,3.17,5.49,3.17h0s5.5-3.16,5.5-3.16h0s319.63-184.52,319.63-184.52l5.5-3.18v-6.35l-5.5-3.17,5.51-3.18Zm-330.64,190.87L241.11,406.02l319.64-184.52,319.63,184.54-319.63,184.52Z"/><polygon points="896.88 409.22 891.38 412.39 891.38 406.04 885.88 402.87 891.39 399.69 896.88 402.86 896.88 409.22"/><polygon points="235.61 402.85 230.11 406.02 230.11 412.37 224.61 409.2 224.61 402.84 230.11 399.67 235.61 402.85"/></g><g><polygon class="cls-2" points="740.04 819.62 681.53 853.39 681.53 592.11 740.04 558.33 740.04 819.62"/><path d="M676.03,862.92v-273.99l69.5-40.12v273.98l-69.5,40.13Zm11-267.64v248.58l47.5-27.43v-248.58l-47.5,27.42Z"/></g><g><polygon class="cls-6" points="412.04 575.99 353.53 542.22 353.53 477.28 412.04 511.05 412.04 575.99"/><path d="M417.54,585.52l-69.5-40.13v-77.64l69.5,40.13v77.64Zm-58.5-46.48l47.5,27.42v-52.24l-47.5-27.43v52.24Z"/></g><g><polygon class="cls-6" points="768.29 542.02 709.79 575.8 709.79 511.05 768.29 477.28 768.29 542.02"/><path d="M704.29,585.33v-77.45l69.5-40.13v77.45l-69.5,40.13Zm11-71.1v52.04l47.5-27.42v-52.05l-47.5,27.43Z"/></g><g><polygon class="cls-3" points="412.04 511.05 353.53 477.28 683.99 286.3 742.49 320.08 412.04 511.05"/><path d="M412.04,517.4l-69.5-40.13,341.45-197.33,69.5,40.13-341.45,197.33Zm-47.51-40.13l47.51,27.43,319.46-184.62-47.51-27.43-319.46,184.62Z"/></g><g><polygon class="cls-3" points="768.29 477.28 709.79 511.05 379 320.07 437.5 286.3 768.29 477.28"/><path d="M709.79,517.4l-341.79-197.33,69.51-40.13,341.79,197.33-69.5,40.13Zm-319.79-197.33l319.79,184.63,47.5-27.43-319.79-184.63-47.51,27.42Z"/></g><g><polygon class="cls-2" points="439 852.84 380.5 819.06 380.5 557.78 439 591.56 439 852.84"/><path d="M444.5,862.37l-69.5-40.13v-273.98l69.5,40.13v273.99Zm-58.5-46.48l47.5,27.43v-248.58l-47.5-27.42v248.58Z"/></g><g><path d="M278.23,498.74s263.23,162.3,282.52,228.07c0,0,130.63-153.04,282.52-228.07l-282.52,163.1-282.52-163.1Z"/><path d="M558.33,738.12l-2.86-9.75c-5.26-17.92-34.92-56.02-146.37-135.75-67.29-48.13-133.1-88.79-133.76-89.2l5.64-9.45,279.77,161.51,211.63-122.17c21.94-14.38,44.93-27.88,68.45-39.5l5.19,9.69-67.92,39.21c-51.01,33.47-96.34,71.84-129.2,102.14-50.84,46.89-83.64,85.15-83.96,85.54l-6.6,7.73Zm-138.08-151.04c79.9,57.51,127.62,100.97,142.21,129.47,11.7-13.09,40.09-43.91,78.86-79.67,14.98-13.81,32.52-29.29,52.01-45.22l-132.58,76.54-140.5-81.11Z"/></g><polygon points="371.68 324.3 702.01 515.36 707.8 509.9 379 320.07 371.68 324.3"/><g><path d="M670.25,333.37c-5.48-7.93-13.97-12.4-22.91-14.28-36.72-8.17-66.99,12.93-92.75,42.65-3.49,3.86-6.7,7.59-9.86,11.09-4.3-7.6-8.19-15.55-11.2-23.98-3.44-9.41-5.47-19.61-8.17-29.41-7.04-24.14-28.41-39.51-52.56-34.96-19.42,3.57-36.6,20.79-38.38,43.2-.7,9.48,1.42,18.72,4.97,26.6,6.34,13.96,16.29,24.78,26.95,34.12,13.25,11.4,29.39,20.85,47.35,22.09,14.43,1.3,29.08-4.1,42.1-12.17,.25-.15,.5-.31,.76-.46,8.72,9.59,19.77,16.46,32.54,18.9,27.33,5.52,59.75-7.25,78.08-35.04,9.75-14.55,12.9-34.42,3.09-48.33Zm-144.82,56.16c-12.61,6.87-27.07,5.03-38.28-1.68-14.35-8.42-24.88-24.59-26.36-43.34-.24-2.96-.16-6.19,.31-9.15,.19-1.21,.56-2.67,.89-3.83,.7-2.09,2.07-4.22,3.55-5.42,12.39-9.39,31.03-3.72,41.09,6.96,.78,.66,6.35,7.47,7.08,8.36l11.58,13.77c5.65,6.63,11.32,13.61,16.34,20.98-5,5.28-10.08,9.88-16.19,13.36Zm107.11-24.46c-5.84,7.92-13.3,15.04-21.05,21.07-16.96,13.31-35.17,17.36-49.43,8.17,13.11-8.84,26.35-20.59,38.11-26.94,11.89-6.54,20.15-8.33,31.88-5.24,0,0,2.06,.76,.49,2.94Z"/><path d="M601.81,423.5c-4.65,0-9.27-.45-13.82-1.36-11.9-2.28-23.03-8.24-32.36-17.33-14.84,8.58-29.08,12.33-42.38,11.15-16.82-1.17-33.81-9.04-50.51-23.4-8.59-7.53-20.83-19.41-28.38-36.02-4.28-9.5-6.17-19.62-5.45-29.28,1.88-23.72,19.92-43.98,42.87-48.2,26.08-4.92,50.84,11.42,58.83,38.83,.91,3.29,1.72,6.57,2.52,9.74,1.62,6.5,3.3,13.21,5.54,19.33,1.9,5.31,4.25,10.7,7.14,16.34,1.5-1.7,3.04-3.44,4.64-5.21,32.38-37.33,64.46-51.84,98.06-44.37,11.31,2.37,20.4,8.08,26.23,16.5,11.86,16.85,7.03,39.53-3.03,54.54-15.84,24.01-43.18,38.73-69.92,38.73Zm-29.36-19.28c5.51,3.53,11.46,5.94,17.67,7.13,26.47,5.34,56.24-8.09,72.45-32.67,7.99-11.92,12.06-29.55,3.19-42.13l-.03-.04c-5.3-7.67-13.54-10.77-19.52-12.03-29.78-6.63-57.55,6.36-87.47,40.87l-.08,.09c-1.83,2.02-3.58,4-5.28,5.93-1.55,1.76-3.07,3.48-4.58,5.15l-.17,.18,.03,.04-1.54,1.62-3.44,3.81-.08-.13c-4,4.05-9.15,8.69-15.46,12.28l-.09,.05c-13.36,7.28-29.71,6.61-43.74-1.79-16.32-9.58-27.46-27.83-29.02-47.63-.28-3.53-.16-7.15,.37-10.45,.24-1.54,.69-3.28,1.03-4.46l.08-.25c1.05-3.14,3.03-6.11,5.3-7.96l.14-.11c14.83-11.23,36.56-4.9,48.29,7.44,.62,.6,2.18,2.32,7.46,8.79l10.11,12.02c-2.28-6.41-3.97-13.15-5.6-19.67-.78-3.11-1.58-6.32-2.43-9.41-6.46-22.14-25.48-34.93-46.24-31.02-18.17,3.34-32.42,19.42-33.92,38.23-.73,9.87,2.05,18.45,4.5,23.9,5.07,11.15,13.19,21.41,25.56,32.25,14.83,12.76,29.69,19.74,44.11,20.74h.12c11.79,1.07,24.81-2.75,38.71-11.36l3.43-2.08,2.67-1.8c5.06-3.41,10.26-7.36,15.28-11.17,8.13-6.18,15.82-12.01,23.29-16.04,11.5-6.33,21.54-9.5,35.9-5.72l.51,.16c.79,.29,3.42,1.49,4.37,4.6,.39,1.28,.73,3.86-1.33,6.72l-.03,.04c-5.67,7.69-13.1,15.14-22.1,22.15-14.51,11.39-29.34,16.07-42.43,13.73Zm.8-11.1c10.26,2.27,22.51-1.61,34.85-11.29,6.42-5,11.93-10.2,16.45-15.51-6.91-.69-12.96,1.06-21.73,5.89-6.77,3.65-14.12,9.23-21.9,15.15-2.52,1.92-5.09,3.86-7.67,5.77Zm-106-59.94c-.34,1.21-.59,2.29-.71,3.05-.38,2.42-.48,5.21-.27,7.86,1.28,16.27,10.35,31.23,23.66,39.04,10.67,6.39,22.92,6.98,32.82,1.61,3.91-2.23,7.56-5.05,11.74-9.14-4.56-6.31-9.46-12.2-13.4-16.83l-11.6-13.8c-2.68-3.29-5.77-7-6.56-7.82l-.31-.31c-8.45-8.97-23.97-13.66-33.67-6.41-.54,.47-1.3,1.59-1.71,2.75Zm35.8,4.07s.02,.02,.03,.03l-.03-.03Z"/></g><g><path class="cls-3" d="M676.82,326.6c-5.48-7.93-13.97-12.4-22.91-14.28-36.72-8.17-66.99,12.93-92.75,42.65-3.49,3.86-6.7,7.59-9.86,11.09-4.3-7.6-8.19-15.55-11.2-23.98-3.44-9.41-5.47-19.61-8.17-29.41-7.04-24.14-28.41-39.51-52.56-34.96-19.42,3.57-36.6,20.79-38.38,43.2-.7,9.48,1.42,18.72,4.97,26.6,6.34,13.96,16.29,24.78,26.95,34.12,13.25,11.4,29.39,20.85,47.35,22.09,14.43,1.3,29.08-4.1,42.1-12.17,.25-.15,.5-.31,.76-.46,8.72,9.59,19.77,16.46,32.54,18.9,27.33,5.52,59.75-7.25,78.08-35.04,9.75-14.55,12.9-34.42,3.09-48.33Zm-144.82,56.16c-12.61,6.87-27.07,5.03-38.28-1.68-14.35-8.42-24.88-24.59-26.36-43.34-.24-2.96-.16-6.19,.31-9.15,.19-1.21,.56-2.67,.89-3.83,.7-2.09,2.07-4.22,3.55-5.42,12.39-9.39,31.03-3.72,41.09,6.96,.78,.66,6.35,7.47,7.08,8.36l11.58,13.77c5.65,6.63,11.32,13.61,16.34,20.98-5,5.28-10.08,9.88-16.19,13.36Zm107.11-24.46c-5.84,7.92-13.3,15.04-21.05,21.07-16.96,13.31-35.17,17.36-49.43,8.17,13.11-8.84,26.35-20.59,38.11-26.94,11.89-6.54,20.15-8.33,31.88-5.24,0,0,2.06,.76,.49,2.94Z"/><path d="M608.38,416.72c-4.65,0-9.27-.44-13.82-1.36-11.9-2.28-23.03-8.24-32.36-17.33-14.84,8.58-29.08,12.33-42.38,11.15-16.82-1.17-33.81-9.04-50.5-23.4-8.59-7.52-20.83-19.4-28.38-36.02-4.28-9.5-6.17-19.62-5.45-29.28,1.88-23.72,19.91-43.98,42.87-48.2,26.08-4.92,50.83,11.42,58.83,38.83,.91,3.3,1.73,6.58,2.52,9.75,1.62,6.49,3.3,13.21,5.53,19.32,1.9,5.31,4.25,10.7,7.14,16.34,1.5-1.7,3.04-3.44,4.64-5.21,32.38-37.33,64.46-51.85,98.06-44.37,11.31,2.37,20.4,8.08,26.23,16.5,11.87,16.85,7.03,39.54-3.03,54.55-15.84,24.01-43.19,38.73-69.92,38.73Zm-29.36-19.28c5.51,3.53,11.46,5.94,17.67,7.13,26.47,5.35,56.24-8.09,72.46-32.67,7.99-11.92,12.06-29.55,3.19-42.13l-.03-.04c-5.3-7.67-13.54-10.77-19.52-12.02-29.78-6.63-57.55,6.36-87.47,40.86l-.08,.09c-1.83,2.02-3.59,4.01-5.29,5.95-1.55,1.76-3.06,3.47-4.56,5.13l-.17,.19,.03,.04-1.5,1.59-3.47,3.84-.08-.14c-4,4.06-9.15,8.69-15.47,12.28l-.09,.05c-13.36,7.28-29.71,6.61-43.74-1.79-16.32-9.58-27.46-27.83-29.02-47.63-.28-3.53-.16-7.15,.37-10.45,.24-1.54,.69-3.28,1.03-4.46l.08-.25c1.05-3.14,3.03-6.11,5.3-7.96l.14-.11c14.83-11.23,36.56-4.89,48.29,7.44,.61,.6,2.18,2.32,7.46,8.79l10.11,12.02c-2.28-6.4-3.97-13.14-5.6-19.66-.78-3.11-1.58-6.33-2.43-9.42-6.46-22.14-25.47-34.93-46.24-31.02-18.17,3.34-32.42,19.42-33.92,38.23-.73,9.87,2.04,18.45,4.5,23.9,5.07,11.16,13.19,21.41,25.56,32.25,14.83,12.76,29.69,19.74,44.11,20.74h.12c11.79,1.07,24.81-2.75,38.7-11.36l.81-.5,2.64-1.6,2.65-1.79c5.06-3.41,10.25-7.36,15.28-11.17,8.13-6.18,15.82-12.01,23.3-16.05,11.5-6.33,21.53-9.5,35.9-5.72l.51,.16c.79,.29,3.42,1.48,4.37,4.59,.39,1.28,.73,3.86-1.33,6.72l-.03,.04c-5.67,7.69-13.1,15.14-22.1,22.15-14.51,11.38-29.35,16.07-42.43,13.73Zm.8-11.1c10.26,2.27,22.51-1.61,34.85-11.29,6.42-5,11.93-10.2,16.45-15.51-6.92-.7-12.96,1.06-21.73,5.89-6.77,3.65-14.12,9.24-21.91,15.15-2.52,1.92-5.08,3.86-7.67,5.77Zm-106-59.94c-.34,1.21-.59,2.29-.71,3.05-.38,2.42-.48,5.21-.27,7.86,1.28,16.27,10.35,31.23,23.66,39.04,10.67,6.39,22.93,6.98,32.82,1.62,3.91-2.23,7.56-5.05,11.74-9.14-4.56-6.31-9.46-12.2-13.4-16.83l-11.6-13.8c-2.68-3.29-5.78-7-6.56-7.82l-.31-.31c-8.45-8.97-23.96-13.66-33.67-6.41-.54,.47-1.3,1.59-1.71,2.74Zm35.8,4.07s.02,.02,.03,.02l-.03-.02Z"/></g></g><path class="cls-5" d="M549.13,246.72h0s0,0,0,0c-4.06-15.1-12.36-28.72-23.92-39.24h0s0,0,0,0c15.1-4.06,28.72-12.36,39.24-23.92h0s0,0,0,0c4.06,15.1,12.36,28.72,23.92,39.24h0s0,0,0,0c-15.1,4.06-28.72,12.36-39.24,23.92Z"/><path class="cls-5" d="M581.18,280.38h0s0,0,0,0c3.9-9.33,5.04-19.59,3.29-29.56h0s0,0,0,0c9.33,3.9,19.59,5.04,29.56,3.29h0s0,0,0,0c-3.9,9.33-5.04,19.59-3.29,29.56h0s0,0,0,0c-9.33-3.9-19.59-5.04-29.56-3.29Z"/><path class="cls-5" d="M819.62,739.52h0s0,0,0,0c15.62-.66,30.72-5.78,43.52-14.76h0s0,0,0,0c.66,15.62,5.78,30.72,14.76,43.52h0s0,0,0,0c-15.62,.66-30.72,5.78-43.52,14.76h0s0,0,0,0c-.66-15.62-5.78-30.72-14.76-43.52Z"/></svg>