<?xml version="1.0" encoding="UTF-8"?><svg id="Calque_1" xmlns="http://www.w3.org/2000/svg" viewBox="0 0 1080 1080"><defs><style>.cls-1{fill:#ffc107;}.cls-1,.cls-2,.cls-3,.cls-4,.cls-5,.cls-6{stroke:#000;stroke-miterlimit:10;stroke-width:11px;}.cls-2{fill:#2196f3;}.cls-3{fill:#fff;}.cls-5{fill:#edab07;}.cls-6{fill:#d8d8d8;}</style></defs><ellipse class="cls-4" cx="667.14" cy="781.85" rx="216" ry="22.47"/><ellipse class="cls-4" cx="530.12" cy="788.47" rx="61.33" ry="22.47"/><path class="cls-2" d="M547.45,337.88l-86.4,160.05-31.56-95.99c-1.38-4.21-6.9-5.16-9.62-1.66L124.11,781.29h87.83l188.73-247.41,45.02,136.92,112.09-207.64,15.2,23.01c18.58-25.04,36.65-43.81,46.76-53.65l-62.81-95.06c-2.3-3.49-7.49-3.25-9.47,.42Z"/><path class="cls-3" d="M326.26,511.29h0s0,0,0,0c4.39-15,4.39-30.95,0-45.95h0s0,0,0,0c15,4.39,30.95,4.39,45.95,0h0s0,0,0,0c-4.39,15-4.39,30.95,0,45.95h0s0,0,0,0c-15-4.39-30.95-4.39-45.95,0Z"/><path class="cls-4" d="M621.35,424.91s-110.53,92.53-121.54,207.81c-11.01,115.28-55.38,148.84,89.46,147.82,144.84-1.02,256.14,13.15,270.05-53.6,12.76-61.22-10.8-103.5-43.43-178.47-25.23-57.99-62.53-80.6-100.19-121.61l-94.36-1.95Z"/><path class="cls-1" d="M628.02,424.77s-108.59,94.8-117.21,210.28c-8.62,115.48-52.28,149.96,92.5,145.93,144.78-4.02,256.36,7.84,268.89-59.18,11.49-61.48-12.94-103.26-47.11-177.53-26.43-57.45-55.73-79.29-94.22-119.5h-102.84Z"/><path class="cls-6" d="M626.01,399.05s-6.32-.1-6.27,7.32c.02,3.17,1.23,3.63,1.23,6.22s-3.29,2.27-3.29,7.15,10.34,5.03,10.34,5.03h102.84s3.02-1.01,3.02-6.89-2.44-4.6-2.15-7.9c.29-3.3,3.45-10.92-4.31-10.92h-101.41Z"/><path class="cls-1" d="M631.06,399.05c-3.19,0-6.2-1.47-8.16-4-10.32-13.34-43.12-56.54-50.17-75.36-8.4-22.41,23.7,5.39,39,4.09,15.3-1.29,17.88-7.54,26.29-7.54s22.84,18.96,28.22,17.45c5.39-1.51,5.82-30.38,35.55-30.38,10.56,0,9.05,19.18,18.74,19.61s52.14-22.62,55.59-12.07c2.94,9-34.48,66.69-45.62,83.56-1.91,2.89-5.14,4.63-8.61,4.63h-90.83Z"/><path class="cls-2" d="M834.09,756.91l-124.98-189.14c-14.75,8.94-35.81,25.23-48.69,50.74l109.91,166.34c2.13,3.22,.89,7.59-2.62,9.2l-23.45,10.8,117.85,76.9,4.75-136.83-24.2,14.01c-2.94,1.7-6.7,.82-8.57-2.02Z"/><g><path class="cls-1" d="M660.42,618.51h0c5.69-11.27,12.97-20.73,20.6-28.56-.57-.89-.86-1.91-.86-3.07,0-4.97,4.97-8.34,12.12-8.34,.44,0,.88,.03,1.32,.05,5.5-4.39,10.83-7.98,15.51-10.82l7.32,11.08,13.59-19.18c.99-1.39,.99-2.58-.4-3.38-8.94-5.76-18.87-9.53-29.8-11.12v-15.3c0-1.1-.89-1.99-1.99-1.99h-21.06c-1.1,0-1.99,.89-1.99,1.99v16.09c-21.65,4.97-34.76,22.45-34.76,44.5,0,14.2,5.59,25.31,15.78,32.57,2.94,2.1,6.6-1.5,4.61-4.52Z"/><path class="cls-1" d="M681.25,650.03c-7.45-.22-14.89-3.2-22.15-9.12-.99-.79-1.79-.59-2.58,.4l-19.67,23.84c-.99,1.19-.79,2.38,.4,3.38,9.93,8.34,22.45,13.31,37.54,15.1v15.1c0,1.39,.6,1.99,1.99,1.99h21.06c1.39,0,1.99-.6,1.99-1.99v-16.29c.82-.2,1.62-.42,2.41-.64l-20.99-31.76Z"/></g><circle cx="534.44" cy="719.97" r="79.55" transform="translate(-108.43 94.9) rotate(-9.22)"/><path d="M647.06,640.38c-.66,0-1.32-.09-1.99-.29-3.63-1.09-5.68-4.92-4.58-8.55,18.5-61.3,78.05-84.28,80.58-85.23,3.55-1.33,7.5,.47,8.83,4.01,1.33,3.55-.46,7.5-4,8.83-.72,.27-55.79,21.76-72.27,76.35-.9,2.97-3.62,4.88-6.56,4.88Z"/><g><circle class="cls-5" cx="524.24" cy="724.76" r="79.55"/><circle class="cls-1" cx="524.24" cy="724.76" r="55.44"/><path d="M515.74,753.65l2.74-12.9c.11-.53,.37-.76,.9-.66,4.07,.84,7.59,.44,10.52-1.08,3.08-1.6,4.3-3.86,3.04-6.27-.86-1.65-2.57-2-5.21-1.01l-1.43,.55c-10.59,4.08-19.42,1.42-24.08-7.53-4.34-8.34-2.83-17.54,4.39-23.69l-3.17-6.09c-.27-.53-.17-.87,.36-1.14l7.97-4.15c.53-.27,.87-.17,1.14,.36l3.01,5.79c4.45-1.55,8.95-2.08,13.47-1.66,.68,.03,.92,.48,.82,1.2l-1.69,12.35c-.1,.53-.44,.8-.94,.77-3-.25-5.61,.24-7.94,1.46-2.71,1.41-3.92,3.67-2.94,5.55,.78,1.5,2.53,1.74,5.21,.82l1.92-.71c10.89-4.05,18.74-1.45,23.59,7.88,4.54,8.72,2.91,17.88-4.45,24.3l3.21,6.16c.27,.53,.17,.87-.36,1.14l-7.97,4.15c-.53,.27-.87,.17-1.14-.36l-2.97-5.71c-6.07,2.3-11.78,2.89-17.18,1.69-.65-.14-.96-.55-.82-1.2Z"/><path d="M504.64,687.12c25.21-13.13,55.85-4.97,71.43,17.98-.76-2.01-1.64-3.99-2.65-5.95-14.14-27.16-47.62-37.71-74.78-23.57-27.16,14.14-37.71,47.62-23.57,74.78,1.02,1.95,2.14,3.81,3.35,5.58-9.87-25.93,1.02-55.71,26.22-68.83Z"/></g><path class="cls-4" d="M625.82,426.79c-3.83,3.55-11.92,11.19-18.34,18.21,0,0,80.76-20.84,126.41-20.09l-102.89-.14c-1.92,0-3.76,.72-5.17,2.02Z"/><path class="cls-3" d="M566.16,671.95h0s0,0,0,0c-5.88-8.4-14.04-14.95-23.52-18.85h0s0,0,0,0c8.4-5.88,14.95-14.04,18.85-23.52h0s0,0,0,0c5.88,8.4,14.04,14.95,23.52,18.85h0s0,0,0,0c-8.4,5.88-14.95,14.04-18.85,23.52Z"/><path class="cls-3" d="M365.1,448.01h0s0,0,0,0c3.9-9.33,5.04-19.59,3.29-29.56h0s0,0,0,0c9.33,3.9,19.59,5.04,29.56,3.29h0s0,0,0,0c-3.9,9.33-5.04,19.59-3.29,29.56h0s0,0,0,0c-9.33-3.9-19.59-5.04-29.56-3.29Z"/><path class="cls-3" d="M668.22,310.11h0s0,0,0,0c8.2-5.93,14.52-14.08,18.23-23.5h0s0,0,0,0c5.93,8.2,14.08,14.52,23.5,18.23h0s0,0,0,0c-8.2,5.93-14.52,14.08-18.23,23.5h0s0,0,0,0c-5.93-8.2-14.08-14.52-23.5-18.23Z"/></svg>