<?xml version="1.0" encoding="UTF-8"?><svg id="Calque_1" xmlns="http://www.w3.org/2000/svg" viewBox="0 0 1080 1080"><defs><style>.cls-1{fill:#f44336;}.cls-1,.cls-2,.cls-3,.cls-4,.cls-5,.cls-6,.cls-7,.cls-8{stroke:#000;stroke-miterlimit:10;stroke-width:11px;}.cls-2{fill:#4caf50;}.cls-3{fill:#ffc107;}.cls-4{fill:#2196f3;}.cls-5{fill:#fff;}.cls-7{fill:#5f656e;}.cls-8{fill:none;stroke-linecap:round;}</style></defs><rect class="cls-6" x="201.52" y="279.35" width="700.97" height="566.26" rx="49.55" ry="49.55"/><rect class="cls-3" x="189.51" y="268.46" width="700.97" height="566.26" rx="49.55" ry="49.55"/><circle class="cls-6" cx="483.69" cy="560.48" r="231.88"/><path class="cls-5" d="M823.28,299.92h0s0,0,0,0c.77-14.65-2.68-29.22-9.94-41.97h0s0,0,0,0c14.65,.77,29.22-2.68,41.97-9.94h0s0,0,0,0c-.77,14.65,2.68,29.22,9.94,41.97h0s0,0,0,0c-14.65-.77-29.22,2.68-41.97,9.94Z"/><path class="cls-5" d="M179.15,685h0s0,0,0,0c.5-9.48-1.73-18.91-6.43-27.16h0s0,0,0,0c9.48,.5,18.91-1.73,27.16-6.43h0s0,0,0,0c-.5,9.48,1.73,18.91,6.43,27.16h0s0,0,0,0c-9.48-.5-18.91,1.73-27.16,6.43Z"/><path class="cls-5" d="M716.49,823.4h0s0,0,0,0c10.66-6.56,19.23-16.03,24.67-27.3h0s0,0,0,0c6.56,10.66,16.03,19.23,27.3,24.67h0s0,0,0,0c-10.66,6.56-19.23,16.03-24.67,27.3h0s0,0,0,0c-6.56-10.66-16.03-19.23-27.3-24.67Z"/><circle class="cls-6" cx="274.57" cy="775.74" r="28.16"/><circle class="cls-7" cx="472.14" cy="551.59" r="231.88"/><circle class="cls-1" cx="472.14" cy="551.59" r="88.79"/><path class="cls-8" d="M517.98,736.04c-14.68,3.64-30.04,5.57-45.85,5.57-43.67,0-83.9-14.73-115.99-39.49"/><path class="cls-8" d="M547.5,374.55c13.92,5.93,27.34,13.63,39.97,23.14,34.88,26.28,58.14,62.25,68.87,101.34"/><path class="cls-8" d="M329.3,551.59c0-78.88,63.95-142.83,142.83-142.83"/><circle class="cls-7" cx="472.14" cy="551.59" r="16.24"/><rect class="cls-7" x="811.33" y="640.39" width="23.59" height="158.18" rx="6.89" ry="6.89"/><g><path d="M811.57,372.69l-12.55,22.48s.02,0,.02,0c-4.93-1.34-10.25-1.76-15.76-.99-18.22,2.55-32.34,17.81-33.49,36.17-.77,12.24,4.12,23.36,12.28,31.02,0,0,0,0,0,0l-48.65,87.17-97.1,81.08,12.07,14.46,99.77-83.32,50.34-90.19s-.01,0-.02,0c4.94,1.35,10.25,1.77,15.77,1,18.23-2.54,32.36-17.81,33.51-36.18,.74-11.84-3.8-22.62-11.48-30.24-.48-.47-.59-1.2-.27-1.79l11.48-20.57,.93,.66c2.52,1.8,6.02,1.22,7.83-1.29l12.21-18.11c1.81-2.52,1.24-6.03-1.27-7.85l-15.99-11.53c-2.52-1.82-6.04-1.25-7.85,1.28l-12.24,18.19c-1.82,2.53-1.24,6.05,1.3,7.86l-.84,.68Z"/><path class="cls-6" d="M613.7,627.64c-3.01-3.92-8.49-4.94-12.71-2.35l-41.59,25.54c-8.69,5.34-11.04,16.92-5.12,25.23l10.73,15.05c6.09,8.54,18.26,9.9,26.08,2.89l36.91-33.05c3.76-3.36,4.29-9.06,1.22-13.06l-15.52-20.25Z"/></g><ellipse class="cls-6" cx="828.25" cy="689.94" rx="19.91" ry="14.27"/><circle class="cls-4" cx="778.6" cy="424.23" r="39.07"/><path class="cls-4" d="M802.23,363.37l16.03,11.45c2.52,1.8,6.02,1.22,7.83-1.29l19.69-27.34c1.81-2.52,1.24-6.03-1.27-7.85l-15.99-11.53c-2.52-1.82-6.04-1.25-7.85,1.28l-19.73,27.43c-1.82,2.53-1.24,6.05,1.3,7.86Z"/><path class="cls-4" d="M603.52,619l15.52,20.25c3.07,4,2.54,9.69-1.22,13.06l-36.91,33.05c-7.82,7-19.99,5.65-26.08-2.89l-10.73-15.05c-5.92-8.31-3.57-19.89,5.12-25.23l41.59-25.54c4.21-2.59,9.7-1.57,12.71,2.35Z"/><g><path class="cls-7" d="M805.29,395.71l12.55-22.48-16.45-9.18-12.55,22.48c6.24,1.69,11.86,4.89,16.45,9.18Z"/><path class="cls-7" d="M750.09,455.95l-46.85,83.94-97.1,81.08,12.07,14.46,99.77-83.32,50.34-90.19c-5.07-1.38-9.73-3.75-13.76-6.9-1.46-1.14-3.58-.69-4.48,.92Z"/></g><ellipse class="cls-2" cx="823.13" cy="684.21" rx="19.91" ry="14.27"/><circle class="cls-1" cx="267.91" cy="770.41" r="28.16"/></svg>