<?xml version="1.0" encoding="UTF-8"?><svg id="Calque_1" xmlns="http://www.w3.org/2000/svg" viewBox="0 0 1080 1080"><defs><style>.cls-1{fill:#90caf9;}.cls-2,.cls-3{fill:#fff;}.cls-4{fill:#2196f3;}.cls-5{fill:#f44336;}.cls-3{stroke:#000;stroke-miterlimit:10;stroke-width:11px;}.cls-6{fill:#e8e8e8;}.cls-7{fill:#606060;}.cls-8{fill:#1976d2;}</style></defs><g><path class="cls-1" d="M915.46,493.13c0,197.94-160.47,358.39-358.4,358.39s-346.12-148.46-357.7-335.95h89.66c18.28,0,33.1-14.82,33.1-33.1s-14.82-33.09-33.1-33.09c-7.72,0-14.82,2.65-20.45,7.08,.02-.65,.05-1.29,.05-1.95,0-32-24.63-58.25-55.97-60.83,11.4-39.57,29.43-76.32,52.82-108.98,6.06,6.58,14.74,10.7,24.38,10.7h246.07c18.28,0,33.1-14.82,33.1-33.09s-14.82-33.1-33.1-33.1c-7.72,0-14.82,2.66-20.45,7.08,.02-.65,.05-1.29,.05-1.94,0-33.72-27.33-61.06-61.05-61.06-18.22,0-34.55,7.98-45.73,20.63-6.1-6.91-13.75-12.42-22.4-16,50.76-27.55,108.91-43.2,170.73-43.2,117.55,0,221.89,56.59,287.24,144.02-18.25,9.92-30.87,28.87-31.87,50.86-3.77-1.5-7.88-2.33-12.18-2.33-18.28,0-33.1,14.83-33.1,33.1s14.82,33.1,33.1,33.1h101.16c9.14,31.64,14.04,65.07,14.04,99.65Z"/><path d="M557.05,856.91c-93.2,0-181.85-35.21-249.6-99.14-67.47-63.66-107.77-149.56-113.47-241.87l-.35-5.72h95.39c15.28,0,27.71-12.43,27.71-27.71s-12.43-27.7-27.71-27.7c-6.27,0-12.19,2.05-17.11,5.93l-9.07,7.15,.37-12.04c.01-.43,.03-.86,.03-1.29,0-28.75-22.41-53.11-51.02-55.46l-6.56-.54,1.82-6.32c11.43-39.7,29.47-76.92,53.61-110.63l3.86-5.39,4.49,4.87c5.25,5.7,12.69,8.96,20.41,8.96h246.07c15.28,0,27.71-12.43,27.71-27.7s-12.43-27.71-27.71-27.71c-6.26,0-12.18,2.05-17.12,5.93l-9.08,7.13,.38-12.03c.01-.43,.03-.85,.03-1.28,0-30.7-24.97-55.67-55.66-55.67-15.93,0-31.13,6.85-41.69,18.81l-4.04,4.57-4.04-4.57c-5.59-6.32-12.65-11.37-20.43-14.59l-10.44-4.33,9.93-5.39c52.85-28.69,112.78-43.86,173.3-43.86s114.08,13.4,165.65,39.82c49.19,25.2,92.73,61.98,125.91,106.37l3.73,4.99-5.47,2.97c-17.04,9.26-28.18,27.03-29.06,46.37l-.34,7.56-7.03-2.79c-3.26-1.29-6.69-1.95-10.19-1.95-15.28,0-27.71,12.43-27.71,27.71s12.43,27.71,27.71,27.71h105.22l1.13,3.89c9.46,32.73,14.25,66.76,14.25,101.15,0,49.11-9.62,96.75-28.59,141.6-18.32,43.32-44.55,82.22-77.96,115.63-33.41,33.41-72.31,59.64-115.63,77.96-44.85,18.97-92.5,28.59-141.61,28.59ZM205.14,520.97c14.26,182.8,167.74,325.17,351.92,325.17,194.65,0,353.02-158.36,353.02-353.01,0-32.01-4.28-63.7-12.73-94.27h-97.09c-21.22,0-38.49-17.27-38.49-38.49s17.27-38.49,38.49-38.49c2.52,0,5.01,.24,7.46,.73,2.76-18.36,13.25-34.96,28.68-45.36-67.43-87.24-168.9-137.14-279.34-137.14-55.28,0-110.04,13.04-159.05,37.78,3.84,2.39,7.44,5.17,10.72,8.28,12.29-11.67,28.66-18.26,45.73-18.26,34.16,0,62.38,25.91,66.04,59.12,4.81-2.11,10.02-3.21,15.41-3.21,21.22,0,38.49,17.27,38.49,38.49s-17.27,38.48-38.49,38.48h-246.07c-8.52,0-16.79-2.86-23.48-8-20.49,29.66-36.19,62.03-46.75,96.38,14.04,2.57,26.9,9.61,36.73,20.23,9.72,10.51,15.72,23.71,17.27,37.79,4.81-2.11,10.02-3.2,15.41-3.2,21.22,0,38.49,17.26,38.49,38.48s-17.27,38.49-38.49,38.49h-83.88Z"/></g><path class="cls-7" d="M667.73,465.21c8.27,0,15-6.73,15-15s-6.73-15-15-15c-3.32,0-6.38,1.1-8.86,2.93l8.38,27.05c.16,0,.32,.02,.49,.02Z"/><path class="cls-7" d="M789.01,741.43c-8.27,0-15,6.73-15,15s6.73,15,15,15,15-6.73,15-15-6.73-15-15-15Z"/><polygon class="cls-5" points="643.4 206.73 643.4 240.56 680.79 223.64 643.4 206.73"/><path class="cls-7" d="M647.34,325.41c8.27,0,15-6.73,15-15,0-.44-.03-.87-.07-1.3l-23.86-10.74c-3.68,2.74-6.08,7.1-6.08,12.03,0,8.27,6.73,15,15,15Z"/><path class="cls-7" d="M774.19,572.45c0-8.27-6.73-15-15-15s-15,6.73-15,15,6.73,15,15,15,15-6.73,15-15Z"/><path class="cls-7" d="M903.34,892.21c-8.27,0-15,6.73-15,15s6.73,15,15,15,15-6.73,15-15-6.73-15-15-15Z"/><circle class="cls-5" cx="759.19" cy="572.45" r="20.39"/><circle class="cls-5" cx="789.01" cy="756.43" r="20.39"/><circle class="cls-5" cx="903.34" cy="907.21" r="20.39"/><g><path class="cls-4" d="M954.81,853.92l-33.19,18.13-55.45-185.48-46.19-40.42-6.12-36.23-43.23-124.05-48.34-55.35-31.01-68.66-21.58,14.94-28.77,3.37,14.65,47.32c1.02-.55,2.09-1.03,3.19-1.44l-.11-.76,10.67-1.56,.11,.77c13.43,.88,24.09,12.07,24.09,25.72,0,6.48-2.41,12.41-6.37,16.94l6.91,9.24-8.63,6.46-6.9-9.23c-2.47,1.14-5.15,1.91-7.97,2.22l2.06,6.66-2.82,38.03,35.05,72.97v103.39l27.73,39.39-17.86,101.38,6.09,37.19,27.56,65.04h239.21l-32.76-85.97Zm-299.18-449.33l-3.02-20.68,10.67-1.56,3.02,20.68-10.67,1.56Zm54.83,111.73l-12.52-16.74,8.63-6.46,12.52,16.74-8.63,6.46Zm72.29,167.79l3.35,20.63-10.64,1.72-3.35-20.63,10.64-1.72Zm-13.98-18.91l-3.34-20.63,10.64-1.72,3.34,20.63-10.64,1.72Zm-45.78-132.15l8.63-6.46,12.52,16.74-8.63,6.46-12.52-16.74Zm10.42,39.4c0-14.22,11.57-25.78,25.78-25.78s25.78,11.57,25.78,25.78-11.57,25.78-25.78,25.78-25.78-11.57-25.78-25.78Zm25.32,30.85l10.64-1.72,3.35,20.63-10.64,1.72-3.35-20.63Zm53.99,175.47l-8.59,6.51-4.18-5.51c-3.32,1.56-7.03,2.44-10.93,2.44-14.22,0-25.78-11.57-25.78-25.78,0-10.92,6.82-20.26,16.43-24.02l-.86-5.31,10.64-1.72,.86,5.31c13.62,.67,24.49,11.96,24.49,25.75,0,6.42-2.37,12.3-6.26,16.82l4.19,5.52Zm16.67,39.83l-12.63-16.66,8.59-6.51,12.63,16.66-8.59,6.51Zm25.26,33.31l-12.63-16.66,8.59-6.51,12.63,16.66-8.59,6.51Zm21.22,10.14l12.63,16.66-8.59,6.51-12.63-16.66,8.59-6.51Zm27.48,70.94c-14.22,0-25.78-11.57-25.78-25.78s11.57-25.78,25.78-25.78,25.78,11.57,25.78,25.78-11.57,25.78-25.78,25.78Z"/><path class="cls-2" d="M665.77,366.4l21-14.53-15-33.22c-3.45,10.19-13.09,17.54-24.42,17.54-14.22,0-25.78-11.57-25.78-25.78,0-6.42,2.36-12.29,6.25-16.81l-15.91-7.16,25.77,83.24,28.09-3.29Zm-8.52-25.42l3.02,20.68-10.67,1.56-3.02-20.68,10.67-1.56Z"/></g><g><polygon class="cls-6" points="602.48 387.19 627.37 372.82 603.52 295.79 581.78 374.35 602.48 387.19"/><path class="cls-8" d="M721.18,738.81l-27.12-38.51v-104.35l-35.24-73.36,2.88-38.86-2.89-9.33c-9.83-3.64-16.86-13.11-16.86-24.19,0-5.55,1.77-10.69,4.76-14.9l-16.08-51.93-28.36,16.37-23.5-14.57-27.14,98.07-16.99,.04-31.67,126.35-.36,2.36,42.09,40.08,13.09,70.4,4.01,14.33,24.46-21.85h0s83.48,168.53,83.48,168.53l36.75-29.26-2.73-16.66,17.4-98.77Z"/></g><g><polygon class="cls-2" points="479.47 586.57 460.73 537.03 412.88 515.58 444.44 595.92 479.47 586.57"/><polygon class="cls-4" points="706.28 868.2 666.03 900.25 582.9 732.44 556.1 756.37 547.25 724.69 534.76 657.48 491.13 615.93 491.13 615.93 490.27 615.12 489.84 613.97 483.25 596.56 448.52 606.31 457.93 630.27 426.11 630.27 472.5 713.18 472.5 780.46 503.16 806.74 483.39 874.48 501.14 939.88 736.65 939.88 706.28 868.2"/></g><g><polygon class="cls-8" points="490.87 810.4 461.72 785.42 461.72 715.99 407.73 619.49 442.12 619.49 437.17 606.9 388.54 598.25 369.29 582.39 335.58 647.7 313.94 619.57 252.15 725.76 234.91 794.12 233.99 795.12 101.3 939.88 489.97 939.88 472.19 874.37 490.87 810.4"/><polygon class="cls-6" points="391.23 587.71 432.76 595.68 402.37 518.3 374.06 573.15 391.23 587.71"/></g><path class="cls-3" d="M823.54,217.39h0s0,0,0,0c-14.57,7.97-26.55,19.95-34.52,34.52h0s0,0,0,0c-7.97-14.57-19.95-26.55-34.52-34.52h0s0,0,0,0c14.57-7.97,26.55-19.95,34.52-34.52h0s0,0,0,0c7.97,14.57,19.95,26.55,34.52,34.52Z"/><path class="cls-3" d="M271.57,326.69h0s0,0,0,0c-11.31,6.19-20.61,15.49-26.8,26.8h0s0,0,0,0c-6.19-11.31-15.49-20.61-26.8-26.8h0s0,0,0,0c11.31-6.19,20.61-15.49,26.8-26.8h0s0,0,0,0c6.19,11.31,15.49,20.61,26.8,26.8Z"/><path class="cls-3" d="M314.41,391.66h0s0,0,0,0c-9.04,4.94-16.47,12.38-21.42,21.42h0s0,0,0,0c-4.94-9.04-12.38-16.47-21.42-21.42h0s0,0,0,0c9.04-4.94,16.47-12.38,21.42-21.42h0s0,0,0,0c4.94,9.04,12.38,16.47,21.42,21.42Z"/><polygon points="501.97 613.05 562.51 648.29 573.33 697.01 600.66 690.53 669.01 883.5 585.62 716.02 561.16 737.87 557.15 723.53 544.06 653.13 501.97 613.05"/><g><path d="M960.49,838.54l-32.36,17.67-52.52-175.7-45.63-39.93-5.63-33.35-44.21-126.88-48.67-55.72-54.53-120.75-5.41-2.43c-3.65-9.82-13.11-16.82-24.17-16.82-1.34,0-2.66,.11-3.94,.3v-32.54l63.54-28.74-74.31-33.63v93.93l-24.97-11.24-7.95-3.58-56.27,203.36-17.2,.04-31.24,124.62-25.77-68.12-61.99-27.79-6.65-2.99-66.81,129.43-21.08-27.41-70.63,121.37-16.94,67.2-148.34,161.82H1003.21l-42.72-112.13ZM643.4,206.73l37.38,16.92-37.38,16.91v-33.84Zm-4.98,91.65l23.85,10.74c.04,.43,.07,.86,.07,1.29,0,8.27-6.73,15-15,15s-15-6.73-15-15c0-4.93,2.4-9.3,6.09-12.03Zm-10.61-4.77c-3.89,4.52-6.25,10.39-6.25,16.81,0,14.22,11.56,25.78,25.78,25.78,11.34,0,20.98-7.35,24.42-17.54l15,33.22-20.99,14.53-28.09,3.28-25.77-83.23,15.9,7.15Zm-24.29,2.19l23.85,77.03-24.9,14.37-20.7-12.84,21.74-78.57Zm-100.54,313.85l31.67-126.35,16.99-.04,27.13-98.07,23.5,14.57,28.37-16.37,16.07,51.92c-3,4.21-4.76,9.36-4.76,14.9,0,11.08,7.03,20.55,16.86,24.18l2.89,9.34-2.88,38.86,35.24,73.35v104.35l27.11,38.52-17.39,98.77,2.72,16.66-36.75,29.25-83.49-168.52h0s-24.46,21.84-24.46,21.84l-4.01-14.34-13.09-70.4-42.09-40.09,.35-2.36Zm155.89-171.5c2.48-1.83,5.55-2.93,8.86-2.93,8.27,0,15,6.73,15,15s-6.73,15-15,15c-.17,0-.32-.02-.49-.03l-8.37-27.04Zm-198.14,98.89l18.74,49.54-35.03,9.35-31.56-80.34,47.86,21.45Zm-58.36-18.73l30.4,77.38-41.54-7.97-17.18-14.56,28.32-54.85ZM101.3,939.89l132.7-144.76,.91-1.01,17.24-68.37,61.8-106.18,21.64,28.12,33.71-65.31,19.25,15.86,48.62,8.64,4.95,12.59h-34.38l53.99,96.51v69.43l29.14,24.98-18.67,63.98,17.78,65.52H101.3Zm399.84,0l-17.76-65.41,19.77-67.74-30.66-26.28v-67.28l-46.39-82.92h31.82l-9.41-23.96,34.73-9.74,6.58,17.4,.44,1.15,.85,.81,43.62,41.56,12.5,67.2,8.85,31.69,26.8-23.94,83.12,167.82,40.25-32.05,30.37,71.69h-235.51Zm219.66-65.05l-6.1-37.2,17.86-101.38-27.73-39.38v-103.39l-35.05-72.98,2.81-38.03-2.06-6.65c2.81-.3,5.5-1.07,7.97-2.21l6.91,9.23,8.63-6.46-6.91-9.24c3.96-4.54,6.37-10.47,6.37-16.94,0-13.65-10.66-24.84-24.09-25.72l-.11-.76-10.67,1.55,.12,.77c-1.11,.4-2.17,.89-3.19,1.44l-14.65-47.32,28.77-3.37,21.59-14.93,31.01,68.66,48.34,55.34,43.23,124.05,6.11,36.23,46.19,40.42,55.44,185.48,33.2-18.14,32.76,85.98h-239.21l-27.55-65.05Z"/><path d="M784.97,572.45c0-14.22-11.57-25.78-25.78-25.78s-25.78,11.57-25.78,25.78,11.57,25.78,25.78,25.78,25.78-11.57,25.78-25.78Zm-40.78,0c0-8.27,6.73-15,15-15s15,6.73,15,15-6.73,15-15,15-15-6.73-15-15Z"/><path d="M790.3,730.68l-.86-5.31-10.64,1.72,.86,5.31c-9.6,3.75-16.43,13.1-16.43,24.02,0,14.22,11.57,25.78,25.78,25.78,3.91,0,7.61-.88,10.93-2.44l4.18,5.51,8.59-6.51-4.19-5.52c3.9-4.52,6.26-10.39,6.26-16.82,0-13.78-10.87-25.08-24.49-25.75Zm-16.29,25.75c0-8.27,6.73-15,15-15s15,6.73,15,15-6.73,15-15,15-15-6.73-15-15Z"/><path d="M903.34,881.43c-14.22,0-25.78,11.57-25.78,25.78s11.57,25.78,25.78,25.78,25.78-11.57,25.78-25.78-11.57-25.78-25.78-25.78Zm0,40.78c-8.27,0-15-6.73-15-15s6.73-15,15-15,15,6.73,15,15-6.73,15-15,15Z"/><rect x="728.17" y="527.74" width="10.78" height="20.9" transform="translate(-176.22 546.67) rotate(-36.8)"/><rect x="648.03" y="341.65" width="10.78" height="20.9" transform="translate(-43.98 98.01) rotate(-8.3)"/><rect x="760.33" y="602.3" width="10.78" height="20.9" transform="translate(-88.17 130.4) rotate(-9.21)"/><rect x="654.07" y="383.02" width="10.78" height="20.9" transform="translate(-49.89 99.31) rotate(-8.3)"/><rect x="703.13" y="494.27" width="10.78" height="20.9" transform="translate(-161.15 525) rotate(-36.8)"/><rect x="847.24" y="829.87" width="10.78" height="20.9" transform="translate(-334.5 685.88) rotate(-37.17)"/><rect x="872.5" y="863.19" width="10.78" height="20.9" transform="translate(-349.49 707.91) rotate(-37.17)"/><rect x="821.98" y="796.56" width="10.78" height="20.9" transform="translate(-319.51 663.89) rotate(-37.17)"/><rect x="773.71" y="684.84" width="10.78" height="20.9" transform="translate(-101.23 133.65) rotate(-9.21)"/><rect x="767.02" y="643.57" width="10.78" height="20.9" transform="translate(-94.69 132.01) rotate(-9.21)"/></g><circle class="cls-5" cx="667.73" cy="450.21" r="15"/><circle class="cls-5" cx="647.34" cy="310.41" r="15" transform="translate(-66.26 231.77) rotate(-19.33)"/></svg>