<?xml version="1.0" encoding="UTF-8"?><svg id="Calque_1" xmlns="http://www.w3.org/2000/svg" viewBox="0 0 1080 1080"><defs><style>.cls-1,.cls-2,.cls-3,.cls-4{stroke:#000;stroke-miterlimit:10;stroke-width:11px;}.cls-1,.cls-5{fill:#ffc107;}.cls-6{fill:#2196f3;}.cls-7{fill:#f44336;}.cls-8{fill:#4caf50;}.cls-2{fill:#fff;}.cls-3{fill:#5f656e;}.cls-4{fill:none;stroke-linecap:round;}</style></defs><path d="M536.72,328.79c.64,.04,1.27,.06,1.91,.1v-21.63h31.76c8.15,0,14.82-6.86,14.82-15.25l-.15-18.86c0-8.39-6.67-15.25-14.82-15.25h-113.67c-8.15,0-14.82,6.86-14.82,15.25l.15,18.86c0,8.39,6.67,15.25,14.82,15.25h31.76v21.63c.63-.04,1.27-.07,1.91-.1-220.92,12.38-396.36,200.62-396.36,431.03H933.08c0-230.42-175.44-418.66-396.36-431.03Z"/><path class="cls-1" d="M538.25,333.48c-231.7,0-419.53,187.83-419.53,419.53H957.77c0-231.7-187.83-419.53-419.53-419.53Z"/><path class="cls-2" d="M538.25,419.81c-184.02,0-333.2,149.18-333.2,333.2H871.45c0-184.02-149.18-333.2-333.2-333.2Z"/><rect class="cls-3" x="466.59" y="263.44" width="143.3" height="37.15" rx="12" ry="12"/><path d="M546.63,742.24l93.85-123.18-126.27,93.65c-5.98,.99-11.69,3.91-16.09,8.74-8.07,8.86-9.37,21.5-4.21,31.57h49.7c1.74-3.4,2.75-7.07,3.01-10.77Z"/><line class="cls-4" x1="538.25" y1="333.48" x2="538.25" y2="374.96"/><line class="cls-4" x1="264.55" y1="434.47" x2="293.88" y2="463.8"/><line class="cls-4" x1="808.64" y1="434.47" x2="779.31" y2="463.8"/><path class="cls-2" d="M538.25,333.48c8.42,0,16.78,.26,25.08,.74v-33.64h-50.16v33.64c8.3-.49,16.66-.74,25.08-.74Z"/><g><path class="cls-8" d="M278.07,745.5c-3.11-69.6,22.61-139.03,70.56-190.51,5.48-5.9,11.29-11.64,17.27-17.06l3.88-3.52,21.14,21.14-5.03,3.81c-6.15,4.66-12.2,9.71-17.97,14.99-47.73,43.56-76.47,105.92-78.86,171.1l-10.99,.04Z"/><path d="M369.6,542.01l12.97,12.97c-6.25,4.74-12.38,9.84-18.36,15.31-48.61,44.36-78.22,108.7-80.64,174.96-3.03-67.87,22.45-136.44,69.09-186.52,5.48-5.9,11.13-11.47,16.94-16.73m.37-15.18l-7.76,7.03c-6.1,5.53-12.02,11.38-17.61,17.4-23.87,25.63-43.04,56.84-55.42,90.25-12.41,33.46-18.14,69.51-16.59,104.25l21.98-.09c2.33-63.71,30.42-124.67,77.06-167.24,5.66-5.18,11.58-10.11,17.59-14.68l10.05-7.62-8.92-8.92-12.97-12.97-7.41-7.41h0Z"/></g><g><path class="cls-6" d="M370.51,533.76l4.65-3.86c44.75-37.1,99.29-58.43,157.72-61.69l5.81-.32v43.64l-5.63-.13c-1.84-.04-3.71-.07-5.55-.07-47.09,0-92.72,14.21-131.96,41.09l-3.77,2.58-21.26-21.24Z"/><path d="M533.18,473.71v32.19c-1.89-.04-3.79-.07-5.68-.07-46.02,0-93.02,13.25-135.07,42.05l-13.76-13.75c45.61-37.81,99.8-57.38,154.51-60.43m11-11.63l-11.61,.65c-59.61,3.32-115.26,25.09-160.92,62.94l-9.3,7.71,8.55,8.54,13.76,13.75,6.46,6.45,7.53-5.16c38.33-26.25,82.88-40.13,128.85-40.13,1.8,0,3.63,.02,5.42,.06l11.26,.27v-55.09h0Z"/></g><g><path class="cls-5" d="M672.18,560.94c-35.97-28.17-81.22-45.57-127.42-48.97l-5.1-.38v-43.73l5.43-.07c1.11-.01,2.22-.02,3.33-.02,57.77,0,115.71,18.28,163.15,51.46l5.37,3.76-40.94,40.94-3.84-3Z"/><path d="M548.43,473.29c56.53,0,112.81,17.46,159.99,50.47l-32.86,32.86c-37.08-29.04-82.8-46.62-130.4-50.12v-33.18c1.09-.01,2.18-.02,3.27-.02m0-11v0c-1.14,0-2.27,0-3.4,.02l-10.87,.13v54.27l10.19,.75c45.11,3.32,89.3,20.3,124.43,47.81l7.67,6.01,6.89-6.89,32.86-32.86,9.27-9.27-10.75-7.52c-24.31-17.01-51.06-30.16-79.5-39.09-28.23-8.87-57.43-13.36-86.8-13.36h0Z"/></g><g><path class="cls-7" d="M756.43,750.76l.16-5.66c2-69.89-24.77-132.63-75.36-176.68l-4.45-3.87,40.92-40.92,3.83,2.93c37.04,28.39,65.71,64.61,85.23,107.65,15.74,34.27,24.8,72.61,26.19,110.85l.21,5.7h-76.73Z"/><path d="M718.19,530.92c34.72,26.61,63.85,62.08,83.57,105.55,15.56,33.86,24.34,71.12,25.7,108.78h-65.37c2.19-76.59-29.11-139.08-77.25-180.99l33.35-33.35m-.96-14.6l-6.82,6.82-33.35,33.35-8.33,8.33,8.89,7.74c49.33,42.95,75.43,104.16,73.48,172.37l-.32,11.31h88.09l-.41-11.4c-1.41-38.95-10.64-78.01-26.69-112.95-10.02-22.08-22.66-42.74-37.57-61.4-14.4-18.01-30.99-34.27-49.31-48.32l-7.65-5.87h0Z"/></g><path class="cls-3" d="M565.37,740.07l68.77-107.4-102.57,80.03c-5.98,.99-11.69,3.91-16.09,8.74-8.07,8.86-9.37,21.5-4.21,31.57h49.7c1.39-2.71,2.31-5.6,2.76-8.54,.24-1.57,.78-3.07,1.64-4.4Z"/><path class="cls-2" d="M362.73,338.15h0s0,0,0,0c-9.46,15.45-14.3,33.29-13.93,51.41h0s0,0,0,0c-15.45-9.46-33.29-14.3-51.41-13.93h0s0,0,0,0c9.46-15.45,14.3-33.29,13.93-51.41h0s0,0,0,0c15.45,9.46,33.29,14.3,51.41,13.93Z"/><path class="cls-2" d="M411.68,419.62h0s0,0,0,0c-9.09,4.97-16.57,12.45-21.54,21.54h0s0,0,0,0c-4.97-9.09-12.45-16.57-21.54-21.54h0s0,0,0,0c9.09-4.97,16.57-12.45,21.54-21.54h0s0,0,0,0c4.97,9.09,12.45,16.57,21.54,21.54Z"/><path class="cls-2" d="M831.23,684.08h0s0,0,0,0c-11.81,6.46-21.52,16.17-27.97,27.97h0s0,0,0,0c-6.46-11.81-16.17-21.52-27.97-27.97h0s0,0,0,0c11.81-6.46,21.52-16.17,27.97-27.97h0s0,0,0,0c6.46,11.81,16.17,21.52,27.97,27.97Z"/></svg>