<?xml version="1.0" encoding="UTF-8"?><svg id="Calque_1" xmlns="http://www.w3.org/2000/svg" viewBox="0 0 1080 1080"><defs><style>.cls-1{fill:none;}.cls-1,.cls-2,.cls-3,.cls-4,.cls-5,.cls-6,.cls-7{stroke:#000;stroke-miterlimit:10;stroke-width:11px;}.cls-2{fill:#f44336;}.cls-3,.cls-8{fill:#ce302c;}.cls-4{stroke-linecap:round;}.cls-4,.cls-6{fill:#e8e8e8;}.cls-5{fill:#fff;}.cls-7{fill:#5f656e;}</style></defs><polygon class="cls-8" points="386.06 750.1 386.06 731.05 401.84 713.16 419.46 709.73 436.35 712.73 447.02 722.2 451.55 737.07 453.71 750.1 447.15 762.67 439.89 770.02 432.03 774.39 425.37 776.26 413.55 776.26 401.33 771.59 392.55 763.72 386.06 750.1"/><path class="cls-6" d="M315.71,635.04l10.06-16.11-10.96-48.8s34.69-46.22,20.12-111.07c-28.25-125.78-112-169.57-112-169.57l82.18,365.89c2.96-6.94,6.48-13.74,10.6-20.33Z"/><g><path class="cls-3" d="M305.11,655.37l-18.48-82.27c-51.55,48.83-61.78,129.76-20.64,190.28h0c18.13,26.67,43.61,45.51,71.96,55.7-43.23-42.17-56.7-107.67-32.84-163.71Z"/><path class="cls-1" d="M314.1,637.69c.53-.88,1.06-1.76,1.6-2.63-.55,.87-1.08,1.75-1.6,2.63Z"/><path class="cls-3" d="M329.3,541.78c-6.66,17.91-14.49,28.35-14.49,28.35l10.96,48.8,81.15-129.91-77.62,52.76Z"/><path class="cls-1" d="M312.56,640.35c.32-.56,.64-1.11,.96-1.66-.32,.55-.65,1.11-.96,1.66Z"/><path class="cls-1" d="M306.19,652.92c.02-.05,.05-.1,.07-.16-.02,.05-.05,.1-.07,.16Z"/><path class="cls-1" d="M307.18,650.75c.12-.25,.24-.51,.36-.76-.12,.25-.24,.51-.36,.76Z"/><path class="cls-1" d="M308.39,648.23c.17-.34,.33-.68,.5-1.01-.17,.34-.33,.68-.5,1.01Z"/><path class="cls-1" d="M311.09,642.99c.25-.46,.51-.93,.76-1.39-.26,.46-.51,.93-.76,1.39Z"/><path class="cls-1" d="M309.7,645.63c.21-.4,.42-.8,.63-1.2-.21,.4-.42,.8-.63,1.2Z"/></g><path class="cls-6" d="M748.26,656.2c-73.13-11.7-89.96,7.43-93.84,16.87-1.11,2.72-3.9,4.35-6.8,3.89l-8.95-1.43-13.5,21.62,190.14,30.41s28-56.15-67.04-71.35Z"/><g><path class="cls-3" d="M765.37,423.93h0c-7.05-10.36-15.2-19.54-24.21-27.5,16.9,42.1,14.38,91.42-11.08,132.72v97.24c64-46.52,80.07-136.58,35.29-202.46Z"/><path class="cls-3" d="M675.95,615.84l-37.28,59.68,9.01,1.44c2.82,.45,5.62-1.07,6.68-3.73,1.91-4.78,7.16-12.17,21.59-16.7v-40.69Z"/></g><g><path class="cls-7" d="M730.08,653.79v-124.64c-.15,.25-.3,.5-.45,.74l-53.68,85.94v40.69c11.38-3.58,28.47-5.38,54.13-2.74Z"/><path class="cls-7" d="M675.95,705.26v96.01c0,14.89,12.18,27.06,27.07,27.06h0c14.89,0,27.07-12.18,27.07-27.06v-87.35l-54.13-8.66Z"/></g><path class="cls-2" d="M682.61,326.41h0c-68.89-43.03-160.46-21.87-203.49,47.02l-163.41,261.62c-43.03,68.89-21.87,160.46,47.02,203.49h0c68.89,43.03,160.46,21.87,203.49-47.02l163.41-261.62c43.03-68.89,21.87-160.46-47.02-203.49Zm-263.15,450.37c-18.91,0-34.25-15.33-34.25-34.25s15.33-34.25,34.25-34.25,34.25,15.33,34.25,34.25-15.33,34.25-34.25,34.25Z"/><path class="cls-1" d="M425.81,459.7c-2.52-5.45-10.42-7.17-17.65-3.84h0c-7.23,3.34-15.13,1.62-17.65-3.84l-4.98-10.8c-2.52-5.45,1.31-12.58,8.54-15.92h0c7.23-3.34,11.05-10.46,8.54-15.92l-5.84-12.65c-2.52-5.45-10.42-7.17-17.65-3.84h0c-7.23,3.34-15.13,1.62-17.65-3.84l-4.56-9.88c-2.52-5.45,1.31-12.58,8.54-15.92h0c7.23-3.34,11.05-10.46,8.54-15.92l-4.56-9.88c-2.52-5.45-10.42-7.17-17.65-3.84h0c-7.23,3.34-15.13,1.62-17.65-3.84"/><path class="cls-5" d="M664.25,432.24l-26.85-16.77,16.77-26.85c.98-1.58,.5-3.67-1.08-4.65l-21.44-13.39c-1.58-.98-3.67-.5-4.65,1.08l-16.77,26.85-26.85-16.77c-1.58-.98-3.67-.5-4.65,1.08l-13.39,21.44c-.98,1.58-.5,3.67,1.08,4.65l26.85,16.77-16.77,26.85c-.98,1.58-.5,3.67,1.08,4.65l21.44,13.39c1.58,.98,3.67,.5,4.65-1.08l16.77-26.85,26.85,16.77c1.58,.98,3.67,.5,4.65-1.08l13.39-21.44c.98-1.58,.5-3.67-1.08-4.65Z"/><path d="M729.63,529.89l-.05,24.55c-13.9,27.39-47.63,69.92-53.63,85.9v-24.51l53.68-85.94Z"/><polygon points="635.56 698.8 649.78 677.3 638.67 675.52 625.17 697.13 635.56 698.8"/><path d="M729.58,554.44s53.72-44.83,25.01-144.48l-13.43-13.53,8.1,35.26,2.45,28.01-1.66,15.73-8.99,32.12-11.43,22.34-.05,24.55Z"/><line class="cls-4" x1="286.71" y1="482.73" x2="288.18" y2="489.02"/><line class="cls-4" x1="256.38" y1="352.96" x2="277.48" y2="443.22"/><path class="cls-4" d="M688.27,670.16s22.6-4.64,55.19,2.03"/><path class="cls-5" d="M514.97,346.82h0s0,0,0,0c.6-11.51-2.1-22.94-7.8-32.95h0s0,0,0,0c11.5,.6,22.94-2.1,32.95-7.8h0s0,0,0,0c-.6,11.51,2.1,22.94,7.8,32.95h0s0,0,0,0c-11.51-.6-22.94,2.1-32.95,7.8Z"/><path class="cls-5" d="M760.48,735.88h0s0,0,0,0c.47-8.94-1.64-17.84-6.07-25.62h0s0,0,0,0c8.94,.47,17.84-1.64,25.62-6.07h0s0,0,0,0c-.47,8.94,1.64,17.84,6.07,25.62h0s0,0,0,0c-8.94-.47-17.84,1.64-25.62,6.07Z"/><path class="cls-5" d="M198.95,342.92h0s0,0,0,0c9.84-6.05,17.74-14.79,22.76-25.19h0s0,0,0,0c6.05,9.84,14.79,17.74,25.19,22.76h0s0,0,0,0c-9.84,6.05-17.74,14.79-22.76,25.19h0s0,0,0,0c-6.05-9.84-14.79-17.74-25.19-22.76Z"/></svg>