<?xml version="1.0" encoding="utf-8"?>
<!-- Generator: Adobe Illustrator 26.3.1, SVG Export Plug-In . SVG Version: 6.00 Build 0)  -->
<svg version="1.1" id="Calque_1" xmlns="http://www.w3.org/2000/svg" xmlns:xlink="http://www.w3.org/1999/xlink" x="0px" y="0px"
	 viewBox="0 0 1080 1080" style="enable-background:new 0 0 1080 1080;" xml:space="preserve">
<style type="text/css">
	.st0{fill:#FFCE55;}
	.st1{fill:#F26561;}
	.st2{fill:#67C967;}
	.st3{fill:#EDAB07;}
	.st4{fill:#2C842C;}
	.st5{fill:#F44336;}
	.st6{fill:#097ECE;}
	.st7{fill:#4BB1F7;}
	.st8{fill:#2196F3;}
	.st9{fill:#FFC107;}
	.st10{fill:#4CAF50;}
	.st11{fill:#CE302C;}
</style>
<g>
	<g>
		<path d="M949.9,298.4l-7.7-4.4l-136.9-79l0,0L535.5,59l-76.1,43.9l0,0l-127.2,73.5l0,0l-133.1,76.8l0,0l-70.3,40.6l-7.7,4.4v8.9
			v180.4v17.8v158v17.8v95.7l254.4,146.9l0,0l76.1,43.9l0,0l76.1,43.9l7.7,4.4l7.7-4.4l137.4-79.3l0,0l199.9-115.4l0,0l69.4-40.1
			V505.4v-17.8V307.2L949.9,298.4L949.9,298.4z M288.7,664.5v-80.1l-69.4-40.1V444.1l69.4,40.1V404l86.8,50.1v80.1l69.4,40.1v41.3
			v17.8v41.3l-69.4-40.1v80.1l-43.4-25.1L288.7,664.5z M204,535.5l-67.5-39V316.1l136.9,79v62.4L204,417.4V535.5L204,535.5z
			 M290.6,306.2l31.1-17.9l35.5-20.5l11,6.4l65.1,37.6l0,0l86.8,50.1l-39.8,23l-26.8,15.5l-81-46.8l-21.2-12.2l0,0l-43.6-25.1
			L290.6,306.2z M411.7,735.5l-20.7-12V661l69.4,40.1v-59l33.7,19.5l33.7,19.5v121.4l-60.7-35.1l0,0L411.7,735.5z M390.9,525.4V463
			l136.9,79v121.4l-33.7-19.5l-33.7-19.5v-59L390.9,525.4z M453.6,418L453.6,418l29.1-16.8l52.8-30.5l136.9,79l-136.9,79l-136.9-79
			l39.1-22.6L453.6,418z M698.5,258.8l-60.7,35.1l-102.2-59l-102.2,59l-60.7-35.1l163-94.1l103.1,59.5L698.5,258.8z M448.7,302.8
			l86.8-50.1l86.8,50.1l-20.4,11.8l-66.4,38.3l-21.7-12.5L448.7,302.8z M550.9,361.8l66.6-38.4l12.6-7.3v91.4L584,380.9L550.9,361.8
			z M543.2,663.4V542l136.9-79v62.4l-65.5,37.8l-3.9,2.1v0.1v29v17.8v12.2L576.9,644L543.2,663.4z M626.1,633.4v-12.2l11.8,6.8
			l34.4,19.9L626,674.7L626.1,633.4L626.1,633.4z M630,605.7l-4-2.3v-28.9l4-2.2V605.7z M782.3,395.1v180.4l-86.8-50.1v-71.3v-8.9
			l-7.7-4.4l-22.6-13.1l-19.7-11.4V316.1l8,4.6L782.3,395.1z M351.4,359l43.3,25l43.6,25.2l-13.5,7.8l-41.4,23.9l-86.8-50.1
			l27.5-15.8L351.4,359z M543.2,802.5V681.2l33.7-19.5l33.7-19.5v59l69.4-40.1v31.1h-0.1l0.1,13.4v4.3v13.5l-68.4,39.5L543.2,802.5z
			 M695.9,810l-0.4-91.1l79.1,45.7L695.9,810z M782.3,751.2l-86.8-50.1v-48.9v-8.9l0,0l-7.7-4.4l-42.4-24.4v-50.8l42.4-25l94.5,54.6
			v8.9V751.2z M790,381.8l-128.9-74.4l-8-4.6l22.3-12.9L790,223.6l136.9,79L790,381.8z M535.5,76.9l239.1,138l-60.7,35.1l-213-123
			l-26.1-15.1L535.5,76.9z M459.4,120.8l60.7,35.1l-35.5,20.5l-76.3,44.1l-30.4-17.6l-30.4-17.5L459.4,120.8z M332.2,194.2
			l30.4,17.5l30.4,17.5l-35.8,20.7l0,0l-16.1,9.3l-65.9,38l-25.3-14.6l-35.4-20.5L332.2,194.2z M199.1,271.1l53.7,31l22.5,13l0,0
			l60.1,34.7l0.6,0.4L308.5,366L281,381.8l-136.9-79L199.1,271.1z M136.5,672.2v-158l21.8,12.6l115.1,66.4v62.4v17.8v77.9
			L136.5,672.2z M136.5,768V690L288.7,778v-95.7l43.4,25.1l43.4,25.1V906L136.5,768z M390.9,914.9V741.2l60.7,35.1V950L390.9,914.9z
			 M527.8,993.9l-60.7-35.1V785.2l38.8,22.4l21.9,12.7V993.9L527.8,993.9z M543.2,993.9V820.2l68.4-39.5l68.4-39.5v173.6
			L543.2,993.9z M696,827.8l94-54.3l7.7-4.4l0,0v-8.9V593.2l33.5-19.4l33.9-19.6V808L696,905.7V827.8L696,827.8z M934.5,768
			l-54,31.2V545.5l54-31.2V768z M934.5,316.1v180.4l-30.7,17.7l-38.7,22.3l0,0l-67.5,39V395.1l38.4-22.2L934.5,316.1z"/>
		<polygon class="st0" points="408.3,220.4 484.6,176.3 520.1,155.8 459.4,120.8 347.5,185.3 377.9,202.8 		"/>
		<polygon class="st1" points="308.5,366 336,350.1 335.3,349.7 275.2,315 275.2,315 252.8,302.1 199.1,271.1 144.2,302.8 
			281,381.8 		"/>
		<polygon class="st0" points="653.1,302.8 661.1,307.4 790,381.8 926.8,302.8 790,223.8 675.4,289.9 		"/>
		<polygon class="st2" points="698.5,258.8 638.6,224.2 535.5,164.8 372.6,258.8 433.3,293.9 535.5,234.8 637.7,293.9 		"/>
		<polygon class="st1" points="713.9,249.9 774.6,214.8 535.5,76.9 474.8,111.9 500.9,126.9 		"/>
		<polygon class="st3" points="288.7,682.2 288.7,778 136.5,690 136.5,768 375.6,906 375.6,732.4 332.2,707.4 		"/>
		<polygon class="st4" points="445,633.4 445,615.5 445,574.2 375.6,534.2 375.6,454.1 288.7,404 288.7,484.1 219.3,444.1 
			219.3,544.2 288.7,584.4 288.7,664.5 332.2,689.5 375.6,714.7 375.6,634.5 445,674.5 		"/>
		<polygon class="st5" points="204,417.4 273.4,457.5 273.4,395.1 136.5,316.1 136.5,496.5 204,535.5 		"/>
		<polygon class="st6" points="273.4,673.4 273.4,655.7 273.4,593.2 158.3,526.8 136.5,514.2 136.5,672.2 273.4,751.2 		"/>
		<polygon class="st7" points="275.2,297.2 341.1,259.2 357.2,249.9 392.9,229.2 362.5,211.8 332.2,194.2 214.5,262.2 249.9,282.7 
					"/>
		<polygon class="st8" points="680.1,463 543.2,542 543.2,663.4 576.9,644 610.7,624.5 610.7,612.2 610.7,594.5 610.7,565.5 
			610.7,565.2 614.6,563.2 680.1,525.4 		"/>
		<polygon class="st8" points="630,407.5 630,316.1 617.5,323.4 550.9,361.8 584,380.9 		"/>
		<polygon class="st9" points="626.1,574.5 626.1,603.4 630,605.7 630,572.2 		"/>
		<polygon class="st3" points="695.5,525.4 782.3,575.5 782.3,395.1 653.4,320.7 645.4,316.1 645.4,416.4 665.2,427.8 687.8,440.8 
			695.5,445.2 695.5,454.1 		"/>
		<polygon class="st0" points="626.1,633.4 626.1,674.5 672.4,647.9 637.9,628 626.1,621 		"/>
		<polygon class="st2" points="323.9,374.8 296.4,390.7 383.3,440.8 424.7,416.9 438.2,409.1 394.6,384 351.4,359 		"/>
		<polygon class="st7" points="601.9,314.6 622.4,302.8 535.5,252.6 448.7,302.8 513.8,340.4 535.5,352.9 		"/>
		<polygon class="st0" points="480.4,384.8 520.1,361.8 433.3,311.7 433.3,311.7 368.2,274.1 357.2,267.7 321.7,288.2 290.6,306.2 
			307.8,316.1 351.4,341.2 372.5,353.4 453.6,400.2 		"/>
		<polygon class="st5" points="390.9,914.9 451.7,950 451.7,776.4 390.9,741.2 		"/>
		<polygon class="st8" points="880.5,799.2 934.5,768 934.5,514.2 880.5,545.5 		"/>
		<polygon class="st9" points="797.7,395.1 797.7,575.5 865.1,536.5 865.1,536.5 903.8,514.2 934.5,496.5 934.5,316.1 836.1,372.9 
					"/>
		<polygon class="st2" points="695.5,719 695.9,810 774.6,764.7 		"/>
		<polygon class="st6" points="390.9,525.4 460.4,565.5 460.4,624.5 494.1,644 527.8,663.4 527.8,542 390.9,463 		"/>
		<polygon class="st7" points="535.5,370.7 482.7,401.2 453.6,418 453.6,418 437.7,427.1 398.7,449.7 535.5,528.7 672.4,449.7 		"/>
		<polygon class="st8" points="543.2,820.2 543.2,993.9 680.1,914.9 680.1,741.2 611.6,780.8 		"/>
		<polygon class="st3" points="460.4,642.2 460.4,701.2 390.9,661.2 390.9,723.5 411.7,735.5 467.1,767.5 467.1,767.5 527.8,802.5 
			527.8,681.2 494.1,661.7 		"/>
		<polygon class="st10" points="797.7,593.2 797.7,760.2 797.7,769 797.7,769 790,773.5 696,827.8 696,905.7 865.1,808 865.1,554.2 
			831.2,573.9 		"/>
		<polygon class="st6" points="467.1,785.2 467.1,958.8 527.8,993.9 527.8,820.2 505.9,807.7 		"/>
		<polygon class="st4" points="695.5,652.2 695.5,701.2 782.3,751.2 782.3,602.2 782.3,593.2 687.8,538.7 645.4,563.7 645.4,614.5 
			687.8,639 695.5,643.4 695.5,643.4 		"/>
		<polygon class="st9" points="610.7,642.2 576.9,661.7 543.2,681.2 543.2,802.5 611.6,763 680.1,723.5 680.1,710 680.1,705.7 
			680,692.2 680.1,692.2 680.1,661.2 610.7,701.2 		"/>
	</g>
	<g>
		<path d="M1061.9,577.2v-8.1l-7-4l-145-83.7l-86.4,50.4l-7,4.1v8.1v80.6L754.2,661l-7,4.1v8V772l69.2,40.7v96.2L961,992.4l7,4l7-4
			l86.8-49.9L1061.9,577.2z M837.5,539.8l72.5-42.3l131,75.6l-54.7,31.5l-18.2,10.5l-63.4-36.5L837.5,539.8z M902.1,593.3l59,34.1
			v72.9l-118-68.5l-12.6-7.3V552L902.1,593.3z M823.5,636.5l17.1,9.9l113.5,65.9l-41.4,24l-14,8.1l-130.5-75.6L823.5,636.5z
			 M761.3,763.9v-82.8l130.4,75.5v83.9l-18.8-11l-56.4-33.1l0,0L761.3,763.9z M830.5,900.7v-79.9l61.2,35.9l7,4.1l7-4.1l55.4-32V976
			L830.5,900.7z M975.1,800.5l-69.4,40.1v-84l14.1-8.1l48.3-28l7-4v-8.1v-81l18.2-10.5l54.6-31.5v348.9L975,976.2V800.5H975.1z"/>
		<polygon class="st11" points="961.1,700.2 961.1,627.4 902.1,593.3 830.5,552 830.5,624.5 843.1,631.9 		"/>
		<polygon class="st11" points="891.7,840.5 891.7,756.5 761.3,681 761.3,763.9 816.6,796.4 816.6,796.4 872.9,829.5 		"/>
		<polygon class="st1" points="912.7,736.4 954.2,712.5 840.7,646.5 823.5,636.5 768.2,668.9 898.7,744.5 		"/>
		<polygon class="st1" points="968.1,615.2 986.3,604.8 1041,573.2 909.9,497.6 837.5,539.8 904.7,578.7 		"/>
		<polygon class="st11" points="898.7,860.8 891.7,856.8 830.5,820.8 830.5,900.7 961.1,976 961.1,824.8 905.7,856.8 		"/>
		<polygon class="st5" points="993.3,616.9 975.1,627.4 975.1,708.5 975.1,716.5 968.1,720.5 919.8,748.5 905.7,756.5 905.7,840.7 
			975.1,800.5 975.1,976 1047.9,934.2 1047.9,585.3 		"/>
	</g>
</g>
</svg>
