<?xml version="1.0" encoding="UTF-8"?><svg id="Calque_1" xmlns="http://www.w3.org/2000/svg" viewBox="0 0 1080 1080"><defs><style>.cls-1{fill:#f26561;}.cls-2{fill:#edab07;}.cls-3{fill:#ffce55;}.cls-4{fill:#2196f3;}.cls-5{fill:#f44336;}.cls-6{fill:#2c842c;}.cls-7{fill:#4caf50;}.cls-8{fill:#fff;stroke:#000;stroke-miterlimit:10;stroke-width:11px;}.cls-9{fill:#ffc107;}.cls-10{fill:#4bb1f7;}.cls-11{fill:#ce302c;}.cls-12{fill:#097ece;}.cls-13{fill:#67c967;}</style></defs><path d="M589.77,542.9l80.15,46.27v134.06h0v-134.06l-80.15-46.27Zm80.15,31.21v-153.02s-109.34-63.13-109.34-63.13l109.34,63.13v153.02s0,0,0,0Zm122.62-231.35l-116.1,67.03h0l116.1-67.03-116.1-67.03h0l116.1,67.03Zm-35.24,35.4l-41.76,24.11-16.29,9.4,16.29-9.4,41.76-24.11Zm-93.9-109.96l-51.53,29.75,51.53-29.75-202.8-117.09,202.8,117.09Zm-67.08,427.58l67.09,38.73-66.73,38.53,66.73-38.53-67.09-38.73Zm143.88,75.54l-143.48,82.84,143.48-82.84v-215.2h0v215.2Zm-43.02-190.36l14.21-8.21,14.4-8.31-14.4,8.31-14.22,8.21Zm101.88,156.38l-45.82,26.46h0s45.82-26.46,45.82-26.46v-215.2h0v215.2Zm0-230.26l-26.07,15.05-32.8,18.94h0s-57.23,33.04-57.23,33.04h0s57.23-33.04,57.23-33.04h0s32.8-18.94,32.8-18.94l26.07-15.05v-153.02h0v153.02Z"/><g><path d="M818.62,331.08l-6.52-3.77-116.1-67.03h0s-228.88-132.14-228.88-132.14l-64.57,37.28h0s-107.92,62.31-107.92,62.31h0s-112.86,65.16-112.86,65.16h0s-59.63,34.43-59.63,34.43l-6.52,3.76v405.87l215.84,124.61h0s64.57,37.28,64.57,37.28h0s64.57,37.28,64.57,37.28l6.52,3.76,6.52-3.76,116.55-67.29h0s169.56-97.89,169.56-97.89h0s58.87-33.99,58.87-33.99V331.08ZM257.8,641.69v-67.97l-58.87-33.99v-85.05l58.87,33.99v-67.97l73.66,42.53v67.97l58.87,33.99v85.05l-58.87-33.99v67.97l-36.83-21.26-36.83-21.26Zm-71.91-109.49l-57.23-33.04v-153.03l116.1,67.03v52.91l-58.87-33.99v100.11Zm73.48-194.51l26.35-15.21,30.12-17.39,9.34,5.39,55.23,31.89h0s73.66,42.53,73.66,42.53l-33.72,19.47-22.75,13.14-68.74-39.69-17.96-10.37h0l-36.94-21.33-14.59-8.42Zm102.69,364.19l-17.57-10.14v-52.91l58.87,33.99v-50.06l28.62,16.52,28.62,16.52v102.97l-51.53-29.75h0s-47-27.14-47-27.14Zm-17.57-178.22v-52.91l116.1,67.03v102.97l-28.62-16.52-28.62-16.52v-50.06l-58.87-33.99Zm53.11-91.1h0s24.7-14.26,24.7-14.26l44.82-25.87,116.1,67.03-116.1,67.03-116.1-67.03,33.15-19.14,13.43-7.76Zm207.74-135l-51.53,29.75-86.7-50.06-86.7,50.06-51.53-29.75,138.23-79.81,87.48,50.5,50.75,29.3Zm-211.89,37.28l73.66-42.53,73.66,42.53-17.33,10.01-56.33,32.52-18.42-10.63-55.24-31.89Zm86.7,50.06l56.46-32.6,10.67-6.16v77.52l-39.09-22.57-28.05-16.2Zm-6.52,255.85v-102.97l116.1-67.03v52.91s-55.54,32.07-55.54,32.07l-3.33,1.81v50.16l-28.62,16.52-28.62,16.52Zm70.27-25.51v-10.39l10.09,5.83,29.21,16.87-39.3,22.69v-35Zm3.39-23.49l-3.39-1.95v-24.51l3.39-1.85v28.31Zm129.14-178.58v153.02s-73.66-42.53-73.66-42.53v-67.97l-6.52-3.76-19.17-11.07-16.74-9.67v-85.05l6.76,3.9,109.34,63.13Zm-365.53-30.66l36.71,21.19,36.95,21.33-11.43,6.6-35.15,20.29-73.66-42.53,23.29-13.45,23.29-13.45Zm162.73,376.27v-102.97l28.62-16.52,28.62-16.52v50.06l58.87-33.99v26.41l-.05-.03,.05,11.41v15.12l-58.05,33.51-58.05,33.51Zm129.54,6.35l-.35-77.26,67.09,38.73-66.73,38.53Zm73.25-49.82l-73.66-42.53v-49h0s-6.52-3.76-6.52-3.76l-35.92-20.74v-43.09l35.95-21.2,80.15,46.27v134.06Zm6.52-313.43l-109.34-63.13-6.76-3.9,18.89-10.91,97.2-56.12,116.1,67.03-116.1,67.03ZM467.12,143.2l202.8,117.09-51.53,29.75-180.65-104.3-22.15-12.79,51.53-29.75Zm-64.57,37.28l51.53,29.75-30.13,17.4-64.74,37.38-25.76-14.87-25.76-14.87,94.88-54.78Zm-107.92,62.31l25.76,14.87,25.76,14.87-30.31,17.5h0l-13.65,7.88-55.87,32.25-21.47-12.39-30.06-17.36,99.82-57.63Zm-112.86,65.16l45.52,26.28,19.05,11h0s50.98,29.44,50.98,29.44l.54,.31-23.29,13.45-23.29,13.45-116.1-67.03,46.58-26.9Zm-53.11,340.33v-134.06l18.49,10.67,97.61,56.35v134.06l-116.1-67.03Zm0,81.14v-66.08l129.14,74.56v-81.14l36.83,21.26,36.83,21.26v147.23l-202.8-117.09Zm215.84,124.61v-147.23l51.53,29.75v147.23l-51.53-29.75Zm116.1,67.03l-51.53-29.75v-147.23l32.91,19,18.61,10.75v147.23Zm13.04,0v-147.23l58.05-33.51,58.05-33.51v147.23l-116.1,67.03Zm129.59-140.91l79.72-46.03,6.52-3.76h0v-149.11l28.43-16.41,28.8-16.63v215.2l-143.48,82.84v-66.09Zm202.34-50.74l-45.82,26.46v-215.2l45.82-26.46v215.2Zm0-383.28v153.02l-26.07,15.05-32.8,18.94h0s-57.23,33.04-57.23,33.04v-153.03l32.58-18.81,83.52-48.22Z"/><polygon class="cls-3" points="359.2 265.01 423.94 227.63 454.08 210.23 402.55 180.48 307.67 235.26 333.44 250.13 359.2 265.01"/><polygon class="cls-1" points="274.57 388.42 297.87 374.98 297.32 374.66 246.34 345.23 246.34 345.23 227.29 334.23 181.77 307.95 135.19 334.84 251.28 401.87 274.57 388.42"/><polygon class="cls-3" points="566.86 334.84 573.62 338.74 682.96 401.87 799.05 334.84 682.96 267.82 585.76 323.93 566.86 334.84"/><polygon class="cls-13" points="605.35 297.56 554.6 268.26 467.12 217.76 328.89 297.56 380.42 327.31 467.12 277.26 553.82 327.31 605.35 297.56"/><polygon class="cls-1" points="618.39 290.03 669.92 260.29 467.12 143.2 415.59 172.95 437.74 185.74 618.39 290.03"/><polygon class="cls-2" points="257.8 656.75 257.8 737.89 128.66 663.34 128.66 729.42 331.46 846.51 331.46 699.28 294.63 678.01 257.8 656.75"/><polygon class="cls-6" points="390.33 615.24 390.33 600.18 390.33 565.18 331.46 531.19 331.46 463.22 257.8 420.69 257.8 488.67 198.94 454.68 198.94 539.73 257.8 573.72 257.8 641.69 294.63 662.95 331.46 684.22 331.46 616.25 390.33 650.23 390.33 615.24"/><polygon class="cls-5" points="185.9 432.09 244.76 466.08 244.76 413.17 128.66 346.14 128.66 499.16 185.9 532.2 185.9 432.09"/><polygon class="cls-12" points="244.76 649.22 244.76 634.16 244.76 581.25 147.15 524.9 128.66 514.22 128.66 648.28 244.76 715.31 244.76 649.22"/><polygon class="cls-10" points="246.34 330.17 302.2 297.91 315.85 290.03 346.16 272.54 320.4 257.66 294.63 242.79 194.81 300.42 224.87 317.77 246.34 330.17"/><polygon class="cls-4" points="589.74 470.75 473.64 537.78 473.64 640.75 502.26 624.23 530.87 607.7 530.87 597.32 530.87 582.26 530.87 557.65 530.87 557.54 534.2 555.73 589.74 523.66 589.74 470.75"/><polygon class="cls-4" points="547.3 423.66 547.3 346.14 536.62 352.3 480.16 384.9 508.21 401.1 547.3 423.66"/><polygon class="cls-9" points="543.91 565.29 543.91 589.79 547.3 591.75 547.3 563.44 543.91 565.29"/><polygon class="cls-2" points="602.78 523.66 676.44 566.19 676.44 413.17 567.1 350.04 560.34 346.14 560.34 431.19 577.08 440.86 596.26 451.93 602.78 455.69 602.78 463.22 602.78 523.66"/><polygon class="cls-3" points="543.91 615.23 543.91 650.23 583.22 627.54 554.01 610.68 543.91 604.85 543.91 615.23"/><polygon class="cls-13" points="287.62 395.95 264.32 409.4 337.98 451.93 373.13 431.63 384.57 425.03 347.61 403.7 310.91 382.51 287.62 395.95"/><polygon class="cls-10" points="523.45 344.85 540.78 334.84 467.12 292.32 393.46 334.84 448.7 366.74 467.12 377.37 523.45 344.85"/><polygon class="cls-3" points="420.36 404.37 454.08 384.9 380.42 342.37 380.42 342.37 325.19 310.48 315.85 305.09 285.73 322.48 259.38 337.7 273.97 346.12 310.91 367.45 328.87 377.82 397.61 417.5 420.36 404.37"/><polygon class="cls-5" points="344.5 854.04 396.03 883.79 396.03 736.56 344.5 706.81 344.5 854.04"/><polygon class="cls-4" points="759.75 755.88 805.58 729.42 805.58 514.22 759.75 540.68 759.75 755.88"/><polygon class="cls-9" points="689.48 413.17 689.48 566.19 746.71 533.15 746.71 533.15 779.51 514.21 805.58 499.16 805.58 346.14 722.06 394.36 689.48 413.17"/><polygon class="cls-13" points="602.83 687.87 603.19 765.13 669.92 726.6 602.83 687.87"/><polygon class="cls-12" points="344.5 523.66 403.37 557.65 403.37 607.71 431.98 624.23 460.6 640.75 460.6 537.78 344.5 470.75 344.5 523.66"/><polygon class="cls-10" points="467.12 392.43 422.3 418.3 397.61 432.56 397.61 432.56 384.17 440.32 351.02 459.46 467.12 526.49 583.22 459.46 467.12 392.43"/><polygon class="cls-4" points="473.64 773.83 473.64 921.06 589.74 854.03 589.74 706.81 531.69 740.32 473.64 773.83"/><polygon class="cls-2" points="403.37 622.77 403.37 672.82 344.5 638.83 344.5 691.75 362.07 701.89 409.07 729.03 409.07 729.03 460.6 758.78 460.6 655.81 431.98 639.29 403.37 622.77"/><polygon class="cls-7" points="689.48 581.25 689.48 722.83 689.48 730.36 689.48 730.36 682.96 734.13 603.24 780.16 603.24 846.24 746.71 763.41 746.71 548.21 717.91 564.84 689.48 581.25"/><polygon class="cls-12" points="409.07 744.09 409.07 891.31 460.6 921.06 460.6 773.83 441.99 763.09 409.07 744.09"/><polygon class="cls-6" points="602.78 631.31 602.78 672.78 676.44 715.31 676.44 588.78 676.44 581.25 596.29 534.98 560.34 556.18 560.34 599.27 596.26 620.01 602.78 623.78 602.78 623.78 602.78 631.31"/><polygon class="cls-9" points="530.87 622.76 502.26 639.29 473.64 655.81 473.64 758.78 531.69 725.26 589.74 691.75 589.74 680.31 589.74 676.63 589.69 665.22 589.74 665.25 589.74 638.83 530.87 672.82 530.87 622.76"/></g><g><path d="M961.31,490.5v-6.84l-5.93-3.42-123.02-71.03-73.27,42.75-5.91,3.45v75.18l-52.8,30.81-5.92,3.45v90.74l58.72,34.5v81.59l122.62,70.79,5.92,3.42,5.94-3.41,73.66-42.3V490.5Zm-190.4-31.72l61.48-35.87,111.13,64.16-46.35,26.76-15.45,8.92-53.79-31.05-57.02-32.92Zm54.82,45.34l50.06,28.9v61.84l-100.08-58.09-10.68-6.2v-61.49l60.7,35.04Zm-66.62,36.72l14.53,8.43,96.26,55.87-35.16,20.33-11.88,6.87-110.68-64.12,46.93-27.38Zm-52.8,107.95v-70.26l110.62,64.09v71.17l-15.94-9.37-47.81-28.09h0s-46.87-27.54-46.87-27.54Zm58.72,116.03v-67.78l51.9,30.49,5.9,3.47,5.95-3.44,47.01-27.14v128.35l-110.76-63.95Zm122.62-84.93l-58.87,33.99v-71.26l11.92-6.89,41.01-23.71,5.93-3.43v-75.55l15.45-8.92,46.35-26.76v295.96s-61.8,35.49-61.8,35.49v-148.91Z"/><polygon class="cls-11" points="875.79 594.86 875.79 533.03 825.73 504.12 765.03 469.08 765.03 530.57 775.71 536.77 875.79 594.86"/><polygon class="cls-11" points="816.93 713.78 816.93 642.61 706.31 578.53 706.31 648.79 753.17 676.33 753.17 676.33 800.98 704.42 816.93 713.78"/><polygon class="cls-1" points="834.74 625.48 869.89 605.15 773.64 549.28 759.11 540.84 712.18 568.22 822.86 632.35 834.74 625.48"/><polygon class="cls-1" points="881.72 522.76 897.17 513.84 943.52 487.08 832.39 422.91 770.91 458.78 827.93 491.7 881.72 522.76"/><polygon class="cls-11" points="822.83 731 816.93 727.54 765.03 697.04 765.03 764.82 875.79 828.77 875.79 700.42 828.78 727.56 822.83 731"/><polygon class="cls-5" points="903.1 524.1 887.65 533.03 887.65 601.75 887.65 608.58 881.71 612.01 840.71 635.72 828.78 642.62 828.78 713.88 887.65 679.89 887.65 828.8 949.45 793.3 949.45 497.34 903.1 524.1"/></g><path class="cls-8" d="M453.51,171.78h0s0,0,0,0c-22.33,10.02-41.31,26.24-54.7,46.73h0s0,0,0,0c-10.02-22.33-26.24-41.31-46.73-54.7h0s0,0,0,0c22.33-10.02,41.31-26.24,54.7-46.73h0s0,0,0,0c10.02,22.33,26.24,41.31,46.73,54.7Z"/><path class="cls-8" d="M991.2,568.82h0s0,0,0,0c-15.3,2-29.7,8.35-41.5,18.29h0s0,0,0,0c-2-15.3-8.35-29.7-18.29-41.5h0s0,0,0,0c15.3-2,29.7-8.35,41.5-18.29h0s0,0,0,0c2,15.3,8.35,29.7,18.29,41.5Z"/><path class="cls-8" d="M365.18,211.44h0s0,0,0,0c-11.85,9.71-20.66,22.61-25.4,37.18h0s0,0,0,0c-9.71-11.85-22.61-20.66-37.18-25.4h0s0,0,0,0c11.85-9.71,20.66-22.61,25.4-37.18h0s0,0,0,0c9.71,11.85,22.61,20.66,37.18,25.4Z"/></svg>