<?xml version="1.0" encoding="UTF-8"?><svg id="Calque_1" xmlns="http://www.w3.org/2000/svg" viewBox="0 0 1080 1080"><defs><style>.cls-1,.cls-2,.cls-3,.cls-4,.cls-5,.cls-6,.cls-7,.cls-8,.cls-9,.cls-10{stroke:#000;stroke-miterlimit:10;stroke-width:11px;}.cls-1,.cls-10{fill:none;}.cls-2,.cls-11{fill:#f44336;}.cls-3,.cls-12{fill:#4caf50;}.cls-4{fill:#d1d1d1;}.cls-13{fill:#5f656e;}.cls-5,.cls-14{fill:#ffc107;}.cls-6,.cls-15{fill:#2196f3;}.cls-7{fill:#2c842c;}.cls-16{fill:#e5e5e5;}.cls-8{fill:#fff;}.cls-9{fill:#e8e8e8;}.cls-10{stroke-linecap:round;}</style></defs><rect class="cls-8" x="187.51" y="443.25" width="235.48" height="235.48" rx="12" ry="12"/><g><circle class="cls-5" cx="353.45" cy="611.74" r="40.8"/><rect class="cls-6" x="266.97" y="525.26" width="86.48" height="86.48"/><polygon class="cls-2" points="264.45 469.43 216.25 552.92 312.65 552.92 264.45 469.43"/></g><path d="M395.99,586.31c-6.6,0-12,5.4-12,12v80.42h27c6.6,0,12-5.4,12-12v-80.42h-27Z"/><path d="M410.99,443.25h-78.51v83.7c0,6.6,5.4,12,12,12h78.51v-83.7c0-6.6-5.4-12-12-12Z"/><rect class="cls-9" x="347.3" y="214.79" width="311.52" height="311.52" rx="12" ry="12"/><rect class="cls-9" x="400.88" y="586.31" width="289.36" height="289.36" rx="12" ry="12"/><g><path class="cls-8" d="M431.58,304.23c.39-1.38,1.18-1.97,2.57-1.97h40.27c1.38,0,2.17,.59,2.57,1.97l45.4,130.27c.39,1.38,0,1.97-1.38,1.97h-40.07c-1.38,0-2.17-.59-2.57-1.97l-4.93-17.57h-39.48l-4.93,17.57c-.39,1.38-1.18,1.97-2.57,1.97h-40.07c-1.38,0-1.78-.59-1.38-1.97l46.58-130.27Zm13.75,78.95h17.04c.89,0,1.54-.85,1.3-1.71l-9.4-34.01h-.59l-9.74,33.89c-.26,.92,.43,1.84,1.38,1.84Z"/><path class="cls-8" d="M585.93,436.47c-1.38,0-1.97-.59-1.97-1.97v-4.74h-.2c-5.72,6.12-14.21,9.08-25.26,9.08-17.37,0-30.79-10.07-30.79-29.8,0-21.32,17.17-32.37,42.44-32.37h12.83c.79,0,1.18-.39,1.18-1.18v-1.58c0-4.93-3.55-6.71-16.97-6.71-8.09,0-14.8,1.58-20.13,4.93-1.18,.59-1.97,.39-2.57-.59l-11.84-21.32c-.79-1.38-.59-2.57,.59-3.36,9.67-6.32,22.7-9.47,39.48-9.47,35.33,0,48.56,11.45,48.56,37.5v59.61c0,1.38-.59,1.97-1.97,1.97h-33.36Zm-1.78-31.38v-5.13c0-.79-.39-1.18-1.18-1.18h-9.28c-6.12,0-9.28,2.37-9.28,6.91,0,4.15,2.76,6.32,8.49,6.32,7.5,0,11.25-2.37,11.25-6.91Z"/></g><g><path class="cls-13" d="M644.66,736.17c-3.53,0-6.86-1.38-9.36-3.88l-36.19-36.19c-5.16-5.16-5.16-13.55,0-18.71l15.89-15.89c2.5-2.5,5.82-3.88,9.36-3.88s6.86,1.38,9.35,3.88l36.19,36.19c5.16,5.16,5.16,13.55,0,18.71l-15.89,15.89c-2.5,2.5-5.82,3.88-9.36,3.88Z"/><path d="M624.36,663.13c1.98,0,3.96,.75,5.47,2.26l36.19,36.19c3.02,3.02,3.02,7.91,0,10.93l-15.89,15.89c-1.51,1.51-3.49,2.26-5.47,2.26s-3.96-.75-5.47-2.26l-36.19-36.19c-3.02-3.02-3.02-7.91,0-10.93l15.89-15.89c1.51-1.51,3.49-2.26,5.47-2.26m0-11c-5,0-9.71,1.95-13.24,5.49l-15.89,15.89c-7.3,7.3-7.3,19.19,0,26.49l36.19,36.19c3.54,3.54,8.24,5.49,13.24,5.49s9.71-1.95,13.24-5.49l15.89-15.89c3.54-3.54,5.49-8.24,5.49-13.24s-1.95-9.71-5.49-13.24l-36.19-36.19c-3.54-3.54-8.24-5.49-13.24-5.49h0Z"/></g><g><path class="cls-16" d="M527.24,828.96c-3.13,0-6.07-1.22-8.28-3.43-2.21-2.21-3.43-5.15-3.43-8.27,0-.5,.03-1,.09-1.48-.49,.06-.98,.09-1.48,.09-3.13,0-6.07-1.22-8.28-3.43-2.21-2.21-3.43-5.15-3.43-8.27s1.22-6.07,3.43-8.28c.78-.78,1.66-1.44,2.62-1.97l39.79-75.27,37.62-20.56,47.41,47.41-20.56,37.62-75.27,39.79c-.53,.96-1.19,1.84-1.97,2.62-2.21,2.21-5.15,3.43-8.27,3.43Z"/><path d="M584.92,704.9l41.58,41.58-17.79,32.55-75.51,39.93c-.28,.98-.8,1.91-1.58,2.69-1.21,1.21-2.8,1.82-4.39,1.82s-3.17-.61-4.39-1.82c-2.42-2.42-2.42-6.35,0-8.77,1.17-1.17,2.7-1.77,4.23-1.81l50.42-50.42-6.75-6.75-50.42,50.42c-.04,1.54-.64,3.06-1.81,4.24-1.21,1.21-2.8,1.82-4.39,1.82s-3.17-.61-4.39-1.82c-2.42-2.42-2.42-6.35,0-8.77,.77-.77,1.7-1.3,2.69-1.58l39.92-75.51,32.55-17.79m1.95-13.6l-7.23,3.95-32.55,17.79-2.9,1.59-1.55,2.92-38.33,72.5c-.83,.58-1.61,1.23-2.33,1.95-3.25,3.25-5.04,7.57-5.04,12.16s1.79,8.92,5.04,12.16c2.36,2.36,5.27,3.94,8.45,4.64,.7,3.18,2.28,6.1,4.64,8.45,3.25,3.25,7.57,5.04,12.16,5.04s8.91-1.79,12.16-5.04c.72-.72,1.37-1.5,1.95-2.33l72.5-38.33,2.92-1.55,1.59-2.9,17.79-32.55,3.95-7.23-5.82-5.82-41.58-41.58-5.82-5.82h0Z"/></g><path class="cls-10" d="M504.67,822.1s-21.58,23.53-35.66-15.68c-11.54-32.15-3.42-84.29-2.43-110.35,.59-15.56,5.35-63.21-43.42-63.21"/><path d="M591.65,373.11c-19.19,0-34.89,15.7-34.89,34.89v118.31h90.06c6.6,0,12-5.4,12-12v-141.2h-67.17Z"/><path d="M678.23,586.31h-121.24c1.98,23.38,16.81,41.69,34.66,41.69h98.58v-25.52c0-8.9-5.4-16.18-12-16.18Z"/><rect class="cls-8" x="569.2" y="373.11" width="245.65" height="244.12" rx="34.89" ry="34.89"/><g><g><path class="cls-15" d="M698.54,547.69c23.92-2.1,43.19-20.96,45.88-44.74h39.44c-2.87,45.46-39.71,81.89-85.32,84.12v-39.38Z"/><path d="M777.8,508.45c-2.42,18.34-10.75,35.28-24.06,48.56-13.58,13.55-30.95,21.91-49.7,24.1v-28.61c22.54-4.06,40.5-21.66,45.07-44.05h28.69m11.73-11h-50.3c-.11,24.83-20.27,44.93-45.14,44.93-.36,0-.71-.02-1.06-.03v50.3c.35,0,.7,.03,1.06,.03,52.64,0,95.32-42.62,95.43-95.23h0Z"/></g><g><path class="cls-11" d="M682.99,586.89c-21.59-1.65-41.66-10.92-57.01-26.46-15.39-15.57-24.42-35.81-25.77-57.48h39.43c2.55,23.03,20.38,41.32,43.35,44.45v39.49Z"/><path d="M634.94,508.45c4.34,21.64,21.01,38.71,42.55,43.54v28.75c-18-2.65-34.6-11.03-47.6-24.18-13.05-13.21-21.23-29.99-23.63-48.11h28.67m9.89-11h-50.3c.11,52.12,42,94.4,93.96,95.19v-50.3c-24.18-.78-43.55-20.55-43.66-44.9h0Z"/></g><g><path class="cls-14" d="M600.21,487.4c1.35-21.67,10.39-41.91,25.77-57.48,15.35-15.54,35.42-24.81,57.01-26.46v39.49c-22.97,3.13-40.79,21.41-43.35,44.45h-39.43Z"/><path d="M677.49,409.61v28.75c-21.55,4.83-38.22,21.9-42.56,43.54h-28.67c2.39-18.12,10.58-34.91,23.63-48.11,13-13.15,29.6-21.53,47.6-24.18m11-11.9c-51.96,.79-93.85,43.08-93.96,95.2h50.3c.11-24.34,19.48-44.12,43.66-44.9v-50.3h0Z"/></g><g><path class="cls-12" d="M744.41,487.4c-2.69-23.78-21.95-42.64-45.88-44.74v-39.38c45.6,2.23,82.45,38.66,85.32,84.12h-39.44Z"/><path d="M704.04,409.25c18.76,2.19,36.13,10.55,49.7,24.1,13.31,13.28,21.64,30.22,24.06,48.56h-28.69c-4.57-22.38-22.52-39.99-45.07-44.05v-28.61m-9.94-11.58c-.36,0-.71,.02-1.06,.03v50.3c.35,0,.7-.03,1.06-.03,24.86,0,45.02,20.1,45.14,44.93h50.3c-.11-52.61-42.79-95.23-95.43-95.23h0Z"/></g></g><g><path class="cls-9" d="M860.84,205.49h5.4c14.35,0,25.99,11.65,25.99,25.99v28.44h-57.39v-28.44c0-14.35,11.65-25.99,25.99-25.99Z" transform="translate(217.62 -385.87) rotate(28.68)"/><path class="cls-4" d="M867.44,301.5l-63.93-34.97c-3.59-1.97-8.67-9.49-4.77-16.29l3.48-6.37c3.17-5.79,10.5-7.94,16.29-4.77l63.93,34.97c5.79,3.17,7.94,10.5,4.77,16.29l-3.48,6.37c-3.17,5.79-10.5,7.94-16.29,4.77Z"/><path class="cls-1" d="M812.35,271.36c-1.13-.62-2.55-.2-3.16,.93l-64.6,118.1c-3.91,7.14-3.53,15.52,.24,22.14,.47,.83,.45,1.85-.02,2.67v.02c-.08,.12-.14,.25-.19,.38l-5.13,12.98c-2.78,5.09-.9,11.53,4.19,14.31l7.54,4.12c5.09,2.78,11.53,.9,14.31-4.19l8.17-11.32c.08-.11,.16-.23,.22-.36v-.02c.44-.85,1.29-1.41,2.25-1.46,7.61-.4,14.87-4.6,18.77-11.74l64.55-118.01c.65-1.18,.21-2.66-.97-3.31l-46.16-25.25Z"/><path class="cls-3" d="M744.81,412.51c.48,.84,.47,1.86-.02,2.69,0,0,0,.01,0,.02-.07,.12-.13,.25-.18,.38l-5.13,12.98c-2.78,5.09-.9,11.53,4.19,14.31l7.54,4.12c5.09,2.78,11.53,.9,14.31-4.19l8.17-11.32c.08-.11,.16-.23,.22-.36,0,0,0-.01,0-.02,.44-.86,1.29-1.41,2.26-1.46,7.6-.4,14.85-4.61,18.75-11.74l7.49-13.69s-18.03-5.12-20.67-21.99c-2.64-16.88-21.12-21.17-21.12-21.17l-16.03,29.31c-3.9,7.13-3.53,15.5,.23,22.12Z"/><path class="cls-7" d="M783.92,372.52c-2.55,.34-4.16,2.96-3.29,5.39,.48,1.34,.86,2.79,1.11,4.34,2.64,16.88,20.67,21.99,20.67,21.99l13.37-24.44c-14.41-7.88-25.68-8.11-31.86-7.27Z"/></g><path class="cls-8" d="M399.63,215.45h0s0,0,0,0c-12.87,7.04-23.46,17.63-30.5,30.5h0s0,0,0,0c-7.04-12.87-17.63-23.46-30.5-30.5h0s0,0,0,0c12.87-7.04,23.46-17.63,30.5-30.5h0s0,0,0,0c7.04,12.87,17.63,23.46,30.5,30.5Z"/><path class="cls-8" d="M440.92,254.38h0s0,0,0,0c-10.27,5.62-18.72,14.06-24.34,24.34h0s0,0,0,0c-5.62-10.27-14.06-18.72-24.34-24.34h0s0,0,0,0c10.27-5.62,18.72-14.06,24.34-24.34h0s0,0,0,0c5.62,10.27,14.06,18.72,24.34,24.34Z"/><path class="cls-8" d="M711.15,809.77h0s0,0,0,0c-9.56,5.23-17.43,13.09-22.66,22.66h0s0,0,0,0c-5.23-9.56-13.09-17.43-22.66-22.66h0s0,0,0,0c9.56-5.23,17.43-13.09,22.66-22.66h0s0,0,0,0c5.23,9.56,13.09,17.43,22.66,22.66Z"/></svg>