<?xml version="1.0" encoding="UTF-8"?><svg id="Calque_1" xmlns="http://www.w3.org/2000/svg" viewBox="0 0 1080 1080"><defs><style>.cls-1{fill:#ffce55;}.cls-1,.cls-2,.cls-3,.cls-4{stroke:#000;stroke-miterlimit:10;stroke-width:11px;}.cls-2,.cls-5{fill:#ffc107;}.cls-3{fill:#fff;}</style></defs><path class="cls-4" d="M537.42,826.48c-19.32,0-37.77-3.9-51.55-11.86l-279.04-161.1c-14.12-8.15-21.89-19.7-21.89-32.52,0-.59,.02-1.17,.05-1.75-.07-.84-.1-1.68-.1-2.53,0-.59,.02-1.16,.05-1.75-.07-.83-.1-1.68-.1-2.52,0-.59,.02-1.17,.05-1.76-.06-.83-.1-1.67-.1-2.52,0-.59,.03-1.17,.05-1.75-.06-.84-.1-1.68-.1-2.53,0-.58,.03-1.16,.05-1.75-.06-.83-.1-1.67-.1-2.52,0-.59,.03-1.17,.06-1.76-.07-.83-.11-1.67-.11-2.52,0-.59,.03-1.16,.06-1.75-.07-.84-.1-1.68-.1-2.53,0-.58,.02-1.16,.05-1.75-.07-.83-.1-1.67-.1-2.52,0-.59,.02-1.17,.05-1.76-.07-.83-.1-1.67-.1-2.52,0-.59,.02-1.16,.05-1.75-.07-.84-.1-1.68-.1-2.53,0-.58,.02-1.16,.05-1.75-.07-.83-.1-1.67-.1-2.52,0-.59,.02-1.17,.05-1.75-.07-.84-.1-1.68-.1-2.53,0-.59,.03-1.16,.05-1.75-.06-.84-.1-1.68-.1-2.52,0-.59,.03-1.17,.05-1.76-.06-.83-.1-1.67-.1-2.52,0-.59,.03-1.17,.06-1.75-.07-.84-.11-1.68-.11-2.53,0-.59,.03-1.16,.06-1.75-.07-.83-.11-1.68-.11-2.52,0-.59,.03-1.17,.06-1.76-.07-.83-.1-1.67-.1-2.52,0-.59,.02-1.17,.05-1.75-.07-.84-.1-1.68-.1-2.53,0-.59,.02-1.16,.05-1.75-.07-.83-.1-1.68-.1-2.52,0-.59,.02-1.17,.05-1.76-.07-.83-.1-1.67-.1-2.52,0-.59,.02-1.17,.05-1.75-.07-.84-.1-1.68-.1-2.53,0-.58,.03-1.16,.05-1.75-.06-.83-.1-1.67-.1-2.52,0-.59,.03-1.17,.05-1.76-.06-.83-.1-1.67-.1-2.52,0-.59,.03-1.16,.05-1.75-.06-.84-.1-1.68-.1-2.53,0-.58,.03-1.16,.06-1.75-.07-.83-.1-1.67-.1-2.52,0-.59,.02-1.17,.05-1.75-.07-.84-.1-1.68-.1-2.53,0-.59,.02-1.16,.05-1.75-.07-.84-.1-1.68-.1-2.52,0-.59,.02-1.17,.05-1.76-.07-.83-.1-1.67-.1-2.52,0-.59,.02-1.17,.05-1.75-.07-.84-.1-1.68-.1-2.53,0-.59,.02-1.16,.05-1.75-.07-.84-.1-1.68-.1-2.52,0-.59,.03-1.17,.05-1.76-.06-.83-.1-1.67-.1-2.52,0-15.14,10.94-30.14,30.02-41.15l253.62-146.43c-1.28,.67-2.54,1.35-3.77,2.06L200.43,454.8c-19.08,11.01-30.02,26.01-30.02,41.15,0,.85,.04,1.69,.1,2.52-.03,.59-.05,1.17-.05,1.76,0,.84,.03,1.68,.1,2.52-.03,.59-.05,1.16-.05,1.75,0,.85,.04,1.69,.1,2.53-.03,.58-.05,1.16-.05,1.75,0,.85,.04,1.69,.1,2.52-.03,.59-.05,1.17-.05,1.76,0,.84,.03,1.68,.1,2.52-.04,.59-.05,1.16-.05,1.75,0,.85,.04,1.69,.1,2.53-.03,.58-.05,1.16-.05,1.75,0,.85,.04,1.69,.1,2.52-.03,.59-.06,1.17-.06,1.75,0,.85,.04,1.69,.1,2.53-.03,.59-.05,1.16-.05,1.75,0,.85,.04,1.69,.1,2.52-.03,.59-.05,1.17-.05,1.76,0,.85,.04,1.69,.1,2.52-.03,.59-.05,1.17-.05,1.75,0,.85,.03,1.69,.1,2.53-.04,.58-.05,1.16-.05,1.75,0,.85,.03,1.69,.1,2.52-.03,.59-.05,1.17-.05,1.76,0,.84,.03,1.69,.1,2.52-.03,.59-.05,1.16-.05,1.75,0,.85,.04,1.69,.1,2.53-.04,.58-.05,1.16-.05,1.75,0,.85,.03,1.69,.1,2.52-.03,.59-.06,1.17-.06,1.76,0,.84,.04,1.69,.11,2.52-.04,.59-.06,1.16-.06,1.75,0,.85,.04,1.69,.11,2.53-.03,.58-.06,1.16-.06,1.75,0,.85,.04,1.69,.1,2.52-.03,.59-.05,1.17-.05,1.76,0,.84,.04,1.68,.1,2.52-.03,.59-.05,1.16-.05,1.75,0,.85,.04,1.69,.1,2.53-.04,.58-.05,1.16-.05,1.75,0,.85,.03,1.69,.1,2.52-.04,.59-.05,1.17-.05,1.75,0,.85,.03,1.69,.1,2.53-.03,.59-.05,1.16-.05,1.75,0,.85,.04,1.69,.1,2.52-.03,.59-.05,1.17-.05,1.76,0,.85,.04,1.69,.1,2.52-.03,.59-.05,1.17-.05,1.75,0,.85,.04,1.69,.1,2.53-.03,.59-.06,1.16-.06,1.75,0,.85,.04,1.69,.11,2.52-.04,.59-.06,1.17-.06,1.76,0,.85,.04,1.69,.1,2.52-.03,.59-.05,1.17-.05,1.75,0,.85,.04,1.69,.1,2.53-.03,.58-.05,1.16-.05,1.75,0,.85,.04,1.69,.1,2.52-.03,.59-.05,1.17-.05,1.76,0,.84,.04,1.69,.1,2.52-.04,.59-.05,1.16-.05,1.75,0,.85,.03,1.69,.1,2.53-.04,.58-.05,1.16-.05,1.75,0,12.82,7.77,24.38,21.89,32.52l279.04,161.1c13.77,7.96,32.23,11.86,51.55,11.86,23.13,0,47.48-5.6,66.44-16.54l9.1-5.25c-18.34,9.56-41,14.45-62.61,14.45Z"/><path class="cls-1" d="M896.56,614.53c.03-.58,.05-1.16,.05-1.75,0-.84-.03-1.68-.1-2.52,.03-.59,.05-1.16,.05-1.75,0-.85-.03-1.69-.1-2.52,.03-.59,.06-1.17,.06-1.76,0-.85-.04-1.69-.11-2.52,.03-.59,.06-1.17,.06-1.76,0-.84-.04-1.68-.11-2.52,.03-.58,.06-1.16,.06-1.75,0-.85-.04-1.69-.1-2.52,.03-.59,.05-1.17,.05-1.76,0-.85-.04-1.69-.1-2.52,.03-.59,.05-1.17,.05-1.75,0-.85-.04-1.69-.1-2.53,.03-.58,.05-1.16,.05-1.75,0-.85-.03-1.69-.1-2.52,.03-.59,.05-1.17,.05-1.76,0-.85-.03-1.69-.1-2.52,.03-.59,.05-1.17,.05-1.75,0-.85-.03-1.69-.1-2.53,.03-.58,.05-1.16,.05-1.75,0-.85-.03-1.69-.1-2.52,.03-.59,.05-1.17,.05-1.76,0-.85-.03-1.69-.1-2.52,.03-.59,.06-1.17,.06-1.75,0-.85-.04-1.69-.11-2.53,.03-.58,.06-1.16,.06-1.75,0-.85-.04-1.69-.1-2.52,.03-.59,.05-1.17,.05-1.76,0-.84-.04-1.69-.1-2.52,.03-.59,.05-1.16,.05-1.75,0-.85-.04-1.69-.1-2.52,.03-.59,.05-1.17,.05-1.76,0-.85-.03-1.69-.1-2.52,.03-.59,.05-1.17,.05-1.76,0-.84-.03-1.69-.1-2.52,.03-.59,.05-1.16,.05-1.75,0-.85-.03-1.69-.1-2.52,.03-.59,.05-1.17,.05-1.76,0-.85-.03-1.69-.1-2.52,.03-.59,.05-1.17,.05-1.75,0-.85-.03-1.7-.1-2.53,.03-.59,.06-1.16,.06-1.75,0-.85-.04-1.69-.11-2.52,.03-.59,.06-1.17,.06-1.76,0-.85-.04-1.69-.1-2.52,.03-.59,.05-1.17,.05-1.75,0-.85-.04-1.69-.1-2.53,.03-.58,.05-1.16,.05-1.75,0-.85-.04-1.69-.1-2.53,.03-.58,.05-1.16,.05-1.75,0-.84-.03-1.68-.1-2.52,.03-.59,.05-1.17,.05-1.75,0-.85-.03-1.69-.1-2.53,.03-.58,.05-1.16,.05-1.75,0-.85-.03-1.69-.1-2.53,.03-.58,.05-1.16,.05-1.75,0-.84-.03-1.68-.1-2.52,.03-.59,.05-1.16,.05-1.75,0-.85-.03-1.69-.1-2.52,.03-.59,.12-1.17,.06-1.76-1.27-11.89-7.78-24.38-21.89-32.52l-279.05-161.1c-30.28-17.49-83.21-15.39-117.99,4.68L213.36,447.45c-19.08,11.01-30.02,26.01-30.02,41.15,0,.85,.04,1.69,.1,2.52-.03,.59-.05,1.17-.05,1.76,0,.84,.03,1.68,.1,2.52-.03,.59-.05,1.16-.05,1.75,0,.85,.03,1.69,.1,2.53-.03,.58-.05,1.16-.05,1.75,0,.85,.03,1.69,.1,2.52-.03,.59-.05,1.17-.05,1.76,0,.84,.03,1.68,.1,2.52-.03,.59-.05,1.16-.05,1.75,0,.85,.03,1.69,.1,2.53-.03,.58-.05,1.16-.05,1.75,0,.85,.03,1.69,.1,2.52-.03,.59-.06,1.17-.06,1.75,0,.85,.04,1.69,.1,2.53-.03,.59-.05,1.16-.05,1.75,0,.85,.04,1.69,.1,2.52-.03,.59-.05,1.17-.05,1.76,0,.85,.04,1.69,.1,2.52-.03,.59-.05,1.17-.05,1.75,0,.85,.03,1.69,.1,2.53-.03,.58-.05,1.16-.05,1.75,0,.85,.03,1.69,.1,2.52-.03,.59-.05,1.17-.05,1.76,0,.84,.03,1.69,.1,2.52-.03,.59-.05,1.16-.05,1.75,0,.85,.03,1.69,.1,2.53-.03,.58-.05,1.16-.05,1.75,0,.85,.03,1.69,.1,2.52-.03,.59-.06,1.17-.06,1.76,0,.84,.04,1.69,.11,2.52-.03,.59-.06,1.16-.06,1.75,0,.85,.04,1.69,.11,2.53-.03,.58-.06,1.16-.06,1.75,0,.85,.04,1.69,.1,2.52-.03,.59-.05,1.17-.05,1.76,0,.84,.04,1.68,.1,2.52-.03,.59-.05,1.16-.05,1.75,0,.85,.03,1.69,.1,2.53-.03,.58-.05,1.16-.05,1.75,0,.85,.03,1.69,.1,2.52-.03,.59-.05,1.17-.05,1.75,0,.85,.03,1.69,.1,2.53-.03,.59-.05,1.16-.05,1.75,0,.85,.03,1.69,.1,2.52-.03,.59-.05,1.17-.05,1.76,0,.85,.03,1.69,.1,2.52-.03,.59-.05,1.17-.05,1.75,0,.85,.03,1.69,.1,2.53-.03,.59-.06,1.16-.06,1.75,0,.85,.04,1.69,.11,2.52-.03,.59-.06,1.17-.06,1.76,0,.85,.04,1.69,.1,2.52-.03,.59-.05,1.17-.05,1.75,0,.85,.04,1.69,.1,2.53-.03,.58-.05,1.16-.05,1.75,0,.85,.04,1.69,.1,2.52-.03,.59-.05,1.17-.05,1.76,0,.84,.03,1.69,.1,2.52-.03,.59-.05,1.16-.05,1.75,0,.85,.03,1.69,.1,2.53-.03,.58-.05,1.16-.05,1.75,0,12.82,7.77,24.38,21.89,32.52l279.04,161.1c13.77,7.96,32.23,11.86,51.55,11.86,23.13,0,47.48-5.6,66.44-16.54l262.78-151.72c19.08-11.01,30.02-26.01,30.02-41.15,0-.85-.03-1.69-.1-2.53Zm-194.59-40.07c-89.15,51.47-233.69,51.47-322.83,0-89.15-51.47-89.15-134.92,0-186.39,89.15-51.47,233.69-51.47,322.83,0,89.15,51.47,89.15,134.92,0,186.39Z"/><path class="cls-2" d="M870.78,451.54l-279.05-161.1c-28.89-16.68-79.82-14.57-113.18,4.68L215.76,446.85c-33.36,19.26-37.01,48.66-8.13,65.35l279.04,161.1c28.89,16.68,79.83,14.57,113.19-4.69l262.78-151.72c33.36-19.26,37.01-48.67,8.13-65.35Zm-168.8,122.92c-89.15,51.47-233.69,51.47-322.83,0-89.15-51.47-89.15-134.92,0-186.39,89.15-51.47,233.69-51.47,322.83,0,89.15,51.47,89.15,134.92,0,186.39Z"/><g><path class="cls-5" d="M540.56,591.98c-52.83,0-102.41-11.83-139.6-33.3-13.36-7.7-24.79-16.59-33.71-26.17l212.89,57.18c-12.98,1.52-26.21,2.29-39.58,2.29h0Zm-141.04-100.92c3.1-2.15,5.12-3.62,5.27-3.73,3.59-2.63,5.02-6.38,3.82-10.04-1.76-5.38-8.29-7.84-13.6-7.84-3.35,0-6.5,.89-9.1,2.59-.29,.2-21.34,14.4-35.88,22.79-.98,.57-2.08,1.19-3.29,1.87-8.5-33.79,11.35-68.1,54.24-92.86,31.33-18.09,72.01-29.44,115.82-32.48-1.34,2.56-2.04,5.3-2.04,8.15,0,7.58,4.97,14.79,13.63,19.79,11.76,6.79,27.18,8.88,45.03,11.3l4.28,.58c15.12,2.38,32.61,5.72,49.05,15.21,10.69,6.17,19.38,15.77,31.4,29.05l2.45,2.7,19.74,21.13-173.96-49.9c3.1-2.15,5.11-3.62,5.27-3.73,3.59-2.63,5.02-6.39,3.82-10.05-1.76-5.38-8.28-7.83-13.6-7.83-3.35,0-6.5,.9-9.11,2.59-.29,.2-21.34,14.4-35.88,22.79-13.68,7.9-38.74,20.31-38.99,20.44-5.4,2.77-6.48,7.15-5.71,10.34,1.21,5,6.97,8.63,13.7,8.63,2.68,0,5.32-.62,7.64-1.78,.99-.45,7.5-3.4,14.52-6.94l79.27,21.29,49.06,56.67-176.84-50.72Z"/><path d="M509.33,377.49c-.07,.73-.09,1.41-.09,2.03,0,9.59,5.97,18.54,16.38,24.55,12.7,7.33,28.61,9.49,47.04,11.99,1.39,.19,2.8,.38,4.21,.57,14.62,2.3,31.5,5.52,47.1,14.53,9.94,5.74,18.39,15.07,30.08,27.98l2.45,2.71,.05,.06,.06,.06,6.12,6.55-144.61-41.48c3.55-4.35,3.77-9.41,2.55-13.15-2.63-8.03-11.35-11.63-18.82-11.63-4.42,0-8.6,1.2-12.1,3.48l-.08,.05-.08,.06c-.21,.14-21.1,14.24-35.47,22.53-13.52,7.8-38.43,20.15-38.68,20.27l-.07,.04-.07,.04c-8.18,4.2-9.68,11.5-8.47,16.48,.2,.82,.47,1.61,.81,2.37-3.71-2.48-8.36-3.64-12.61-3.64s-8.6,1.2-12.1,3.48l-.08,.05-.08,.06c-.19,.13-18.01,12.15-32.06,20.53-1.42-11.51,.72-23,6.38-34.32,8.4-16.77,24.53-32.38,46.65-45.15,28.76-16.6,65.64-27.4,105.61-31.12m-60.72,92.2l75.63,20.31,35.85,41.4-148.8-42.68c3.55-4.35,3.77-9.4,2.55-13.14-.14-.44-.31-.87-.49-1.28,3.41,2.36,7.8,3.76,12.51,3.76,3.49,0,6.94-.8,10-2.31,1.17-.53,6.59-2.99,12.76-6.05m-60.28,74.18l158.44,42.56c-2.07,.04-4.14,.06-6.21,.06-51.88,0-100.48-11.57-136.86-32.57-5.48-3.16-10.62-6.52-15.37-10.04m143.38-178.71c-48.53,1.23-96.44,12.53-133.49,33.92-49.73,28.71-67.97,68.7-54.77,105.71,3.44-1.87,6.66-3.65,9.33-5.19,14.89-8.6,36.13-22.95,36.13-22.95,1.84-1.2,4.01-1.7,6.11-1.7,6.1,0,11.56,4.26,6.53,7.94,0,0-6.81,4.98-14.94,10.19l206.02,59.09-62.27-71.93-82.94-22.27c-8.11,4.17-16.28,7.83-16.28,7.83-1.7,.88-3.53,1.25-5.27,1.25-6.56,0-11.97-5.24-5.55-8.53,0,0,25.31-12.53,39.3-20.6,14.89-8.59,36.13-22.95,36.13-22.95,1.85-1.2,4.02-1.7,6.11-1.7,6.1,0,11.56,4.26,6.53,7.94,0,0-6.82,4.99-14.94,10.19l204.46,58.65-33.25-35.59c-13.53-14.92-22.99-25.79-35.18-32.83-17.59-10.16-36.09-13.54-51-15.89-18.94-2.6-35.63-4.43-47.36-11.2-13.09-7.55-15.34-20.32-1.37-28.39,.63-.36,1.31-.66,1.96-1h0Zm-179.11,157.73c10.09,15.22,25.63,29.05,45.61,40.56,39.31,22.7,90.83,34.04,142.35,34.04,22.33,0,44.65-2.13,65.99-6.39l-253.95-68.21h0Z"/></g><g><path class="cls-5" d="M571.04,496.88l140.78,37.81c-8.59,8.76-19.21,16.81-31.66,24-12.33,7.12-26.26,13.26-41.44,18.26l-67.67-80.07Zm86.19-86.99c-7.75-10.42-16.29-19.15-26.21-26.74,18.11,5.37,34.73,12.36,49.12,20.69,24.34,14.05,41.69,31.45,50.18,50.31,6.78,15.07,7.79,30.87,3.04,46.16l-76.12-90.43Z"/><path d="M653.92,397.07c8.35,3.47,16.2,7.33,23.47,11.54,37.86,21.86,56.61,50.64,53,79.64l-68.84-81.77c-2.44-3.27-4.98-6.4-7.63-9.4m-67.34,109.68l114.27,30.69c-6.8,5.89-14.64,11.41-23.45,16.49-11.06,6.38-23.44,11.96-36.91,16.62l-53.92-63.8m10.58-137.03h0s0,0,0,0h0Zm0,0c5.15,2.26,10.36,4.88,15.6,7.9,14.44,8.34,27.99,19.27,40.16,35.69l82.23,97.68c17.64-38.68,.26-81.58-52.26-111.91-23.83-13.8-53.33-23.9-85.73-29.36h0Zm-41.66,117.29l81.39,96.31c16.91-5.32,32.4-12.01,46.01-19.87,16.58-9.57,29.6-20.4,39.2-31.95-1.02-.13-2.01-.31-2.97-.55l-163.63-43.94h0Z"/></g><path class="cls-3" d="M279.85,432.92h0s0,0,0,0c-12.32,6.74-22.45,16.87-29.19,29.19h0s0,0,0,0c-6.74-12.32-16.87-22.45-29.19-29.19h0s0,0,0,0c12.32-6.74,22.45-16.87,29.19-29.19h0s0,0,0,0c6.74,12.32,16.87,22.45,29.19,29.19Z"/><path class="cls-3" d="M902.52,454.35h0s0,0,0,0c-11.62,6.35-21.17,15.91-27.52,27.52h0s0,0,0,0c-6.35-11.62-15.91-21.17-27.52-27.52h0s0,0,0,0c11.62-6.35,21.17-15.91,27.52-27.52h0s0,0,0,0c6.35,11.62,15.91,21.17,27.52,27.52Z"/><path class="cls-3" d="M250.78,483.34h0s0,0,0,0c-9.18,5.02-16.73,12.57-21.75,21.75h0s0,0,0,0c-5.02-9.18-12.57-16.73-21.75-21.75h0s0,0,0,0c9.18-5.02,16.73-12.57,21.75-21.75h0s0,0,0,0c5.02,9.18,12.57,16.73,21.75,21.75Z"/></svg>