<?xml version="1.0" encoding="UTF-8"?><svg id="Calque_1" xmlns="http://www.w3.org/2000/svg" viewBox="0 0 1080 1080"><defs><style>.cls-1{fill:#f44336;}.cls-1,.cls-2,.cls-3,.cls-4,.cls-5,.cls-6,.cls-7{stroke:#000;stroke-miterlimit:10;stroke-width:11px;}.cls-2,.cls-8{fill:#4caf50;}.cls-9,.cls-7{fill:#5f656e;}.cls-3{stroke-linecap:round;}.cls-3,.cls-5{fill:#fff;}.cls-4{fill:#ffc107;}.cls-10{fill:#2196f3;}.cls-11{fill:#4bb1f7;}.cls-12{fill:#e8e8e8;}.cls-6{fill:#e5e5e5;}.cls-13{fill:#67c967;}</style></defs><g><rect class="cls-5" x="252.1" y="189.36" width="530.87" height="701.28" rx="12" ry="12"/><path class="cls-6" d="M769.06,189.36H266.01c-7.65,0-13.91,6.26-13.91,13.91v81.76H782.97v-81.76c0-7.65-6.26-13.91-13.91-13.91Z"/><path class="cls-6" d="M266.01,890.64h503.05c7.65,0,13.91-6.26,13.91-13.91v-35.41H252.1v35.41c0,7.65,6.26,13.91,13.91,13.91Z"/><g><path class="cls-4" d="M334.66,331.69c.38-1.33,1.14-1.9,2.47-1.9h38.82c1.33,0,2.09,.57,2.47,1.9l43.77,125.59c.38,1.33,0,1.9-1.33,1.9h-38.63c-1.33,0-2.09-.57-2.47-1.9l-4.76-16.94h-38.06l-4.76,16.94c-.38,1.33-1.14,1.9-2.47,1.9h-38.63c-1.33,0-1.71-.57-1.33-1.9l44.91-125.59Zm11.42,76.12h19.98l-9.52-34.44h-.57l-9.9,34.44Z"/><path class="cls-4" d="M483.47,459.18c-1.33,0-1.9-.57-1.9-1.9v-4.57h-.19c-5.52,5.9-13.7,8.75-24.36,8.75-16.75,0-29.69-9.7-29.69-28.73,0-20.55,16.56-31.21,40.91-31.21h12.37c.76,0,1.14-.38,1.14-1.14v-1.52c0-4.76-3.43-6.47-16.36-6.47-7.8,0-14.27,1.52-19.41,4.76-1.14,.57-1.9,.38-2.47-.57l-11.42-20.55c-.76-1.33-.57-2.47,.57-3.24,9.32-6.09,21.88-9.13,38.06-9.13,34.06,0,46.81,11.04,46.81,36.16v57.47c0,1.33-.57,1.9-1.9,1.9h-32.16Zm-1.71-30.26v-4.95c0-.76-.38-1.14-1.14-1.14h-8.94c-5.9,0-8.94,2.28-8.94,6.66,0,4,2.66,6.09,8.18,6.09,7.23,0,10.85-2.28,10.85-6.66Z"/></g><path class="cls-3" d="M571.98,351.62s16.48-17.16,53.57-17.16,65.93,27.78,120.52,27.78"/><path class="cls-3" d="M571.98,405.33s16.48-17.16,53.57-17.16,65.93,27.78,120.52,27.78"/><path class="cls-3" d="M571.98,459.05s16-17.16,52.01-17.16,64.01,27.78,117.03,27.78"/><rect class="cls-7" x="289.61" y="529.95" width="214.57" height="32.29"/><rect class="cls-7" x="289.61" y="588.66" width="456.45" height="32.29"/><rect class="cls-7" x="289.61" y="647.37" width="456.45" height="32.29"/><rect class="cls-7" x="289.61" y="706.07" width="456.45" height="32.29"/><rect class="cls-7" x="600.16" y="764.78" width="145.91" height="32.29"/><circle class="cls-1" cx="300.47" cy="237.2" r="16.67"/><circle class="cls-2" cx="351.11" cy="237.2" r="16.67"/><circle class="cls-4" cx="401.75" cy="237.2" r="16.67"/><polygon points="782.97 290.21 616.54 511.88 613.14 516.41 611.84 521.82 602.04 562.61 602.04 562.61 589.5 614.79 636.12 588.19 636.12 588.19 672.55 567.4 677.38 564.64 680.78 560.11 782.97 424.01 782.97 290.21"/><g><rect class="cls-8" x="697.95" y="195.57" width="28.44" height="352.67" transform="translate(244.81 -281.61) rotate(26.86)"/><polygon class="cls-13" points="619.82 522.79 599.77 517.12 759.09 202.49 779.14 208.16 619.82 522.79"/><polygon class="cls-13" points="661.63 548.45 645.2 535.64 804.51 221.01 820.95 233.81 661.63 548.45"/><polygon class="cls-12" points="599.77 517.12 619.82 522.79 645.2 535.64 661.63 548.45 594.5 604.29 599.77 517.12"/><polygon class="cls-11" points="737.24 245.65 757.29 251.31 779.14 208.16 759.09 202.49 737.24 245.65"/><rect class="cls-10" x="756.71" y="221.94" width="48.37" height="28.44" transform="translate(217.44 826.15) rotate(-63.14)"/><polygon class="cls-11" points="782.66 264.16 799.09 276.97 820.95 233.81 804.51 221.01 782.66 264.16"/><path class="cls-9" d="M596.79,566.41s7.59-4.27,16.71,.35c9.12,4.62,10.17,13.27,10.17,13.27l-29.18,24.27,2.29-37.88Z"/><path d="M666.02,551.95l2.56-5.06,132.4-261.48,26.91-53.15-16.43-12.8-3.99-3.11-5.38-2.73-15.56-7.88-5.38-2.73-4.87-1.38-20.05-5.67-26.91,53.15-132.4,261.48-2.56,5.06-.34,5.56-2.54,41.87h0s-3.24,53.57-3.24,53.57l41.26-34.32h0s32.25-26.82,32.25-26.82l4.28-3.56Zm-38.81-31.58l132.5-261.66,15.56,7.88-132.5,261.66-15.56-7.88Zm32.53,19.63l-7.59-5.91,132.4-261.48,7.59,5.91-132.4,261.48Zm154.25-304.63l-16.79,33.15-7.59-5.91,16.79-33.15,7.59,5.91Zm-16.87-11.94l-16.88,33.34-15.56-7.88,16.88-33.34,15.56,7.88Zm-35.17-14.41l9.26,2.62-16.79,33.15-9.26-2.62,16.79-33.15Zm-12.59,45.77l-132.4,261.48-9.26-2.62,132.4-261.48,9.26,2.62Zm-148.61,337.14l1.31-21.56c2.13-.43,5.36-.53,8.96,1.29,3.6,1.82,5.43,4.49,6.34,6.45l-16.61,13.81Zm25.2-20.96c-1.94-3.18-5.03-6.63-9.96-9.12s-9.54-2.95-13.25-2.63l2.12-34.94,12.96,3.66,24.42,12.37,10.62,8.28-26.91,22.38Z"/></g></g><path class="cls-5" d="M274.35,179.56h0s0,0,0,0c-9.14,10.37-15.12,23.15-17.22,36.82h0s0,0,0,0c-10.37-9.14-23.15-15.12-36.82-17.22h0s0,0,0,0c9.14-10.37,15.12-23.15,17.22-36.82h0s0,0,0,0c10.37,9.14,23.15,15.12,36.82,17.22Z"/><path class="cls-5" d="M802.71,868.51h0s0,0,0,0c-12.3,9.09-21.73,21.51-27.18,35.8h0s0,0,0,0c-9.09-12.3-21.51-21.73-35.8-27.18h0s0,0,0,0c12.3-9.09,21.73-21.51,27.18-35.8h0s0,0,0,0c9.09,12.3,21.51,21.73,35.8,27.18Z"/><path class="cls-5" d="M328.51,203.06h0s0,0,0,0c-8.21-3.02-17.11-3.63-25.66-1.75h0s0,0,0,0c3.02-8.21,3.63-17.11,1.75-25.66h0s0,0,0,0c8.21,3.02,17.11,3.63,25.66,1.75h0s0,0,0,0c-3.02,8.21-3.63,17.11-1.75,25.66Z"/></svg>