<svg id="_x31__x2C_5" height="512" viewBox="0 0 24 24" width="512" xmlns="http://www.w3.org/2000/svg"><g fill="#cfd8dc"><path d="m14.25 18.25h-4.5c-.552 0-1-.448-1-1v-7.5c0-.552.448-1 1-1h4.5c.552 0 1 .448 1 1v7.5c0 .552-.448 1-1 1z"/><path d="m21.25 17.25h-1.5c-.552 0-1-.448-1-1v-5.5c0-.552.448-1 1-1h1.5c1.105 0 2 .895 2 2v3.5c0 1.105-.895 2-2 2z"/><path d="m4.25 17.25h-1.5c-1.105 0-2-.895-2-2v-3.5c0-1.105.895-2 2-2h1.5c.552 0 1 .448 1 1v5.5c0 .552-.448 1-1 1z"/></g><path d="m14.25 19h-4.5c-.965 0-1.75-.785-1.75-1.75v-7.5c0-.965.785-1.75 1.75-1.75h4.5c.965 0 1.75.785 1.75 1.75v7.5c0 .965-.785 1.75-1.75 1.75zm-4.5-9.5c-.138 0-.25.112-.25.25v7.5c0 .138.112.25.25.25h4.5c.138 0 .25-.112.25-.25v-7.5c0-.138-.112-.25-.25-.25z"/><path d="m21.25 18h-1.5c-.965 0-1.75-.785-1.75-1.75v-5.5c0-.965.785-1.75 1.75-1.75h1.5c1.517 0 2.75 1.233 2.75 2.75v3.5c0 1.517-1.233 2.75-2.75 2.75zm-1.5-7.5c-.138 0-.25.112-.25.25v5.5c0 .138.112.25.25.25h1.5c.689 0 1.25-.561 1.25-1.25v-3.5c0-.689-.561-1.25-1.25-1.25z"/><path d="m4.25 18h-1.5c-1.517 0-2.75-1.233-2.75-2.75v-3.5c0-1.517 1.233-2.75 2.75-2.75h1.5c.965 0 1.75.785 1.75 1.75v5.5c0 .965-.785 1.75-1.75 1.75zm-1.5-7.5c-.689 0-1.25.561-1.25 1.25v3.5c0 .689.561 1.25 1.25 1.25h1.5c.138 0 .25-.112.25-.25v-5.5c0-.138-.112-.25-.25-.25z"/><path d="m10.75 24c-.414 0-.75-.336-.75-.75v-5c0-.414.336-.75.75-.75s.75.336.75.75v5c0 .414-.336.75-.75.75z"/><path d="m13.25 24c-.414 0-.75-.336-.75-.75v-5c0-.414.336-.75.75-.75s.75.336.75.75v5c0 .414-.336.75-.75.75z"/><path d="m12 9.5c-.414 0-.75-.336-.75-.75v-2c0-.414.336-.75.75-.75s.75.336.75.75v2c0 .414-.336.75-.75.75z"/><path d="m8.75 14.5h-3.5c-.414 0-.75-.336-.75-.75s.336-.75.75-.75h3.5c.414 0 .75.336.75.75s-.336.75-.75.75z"/><path d="m18.75 14.5h-3.5c-.414 0-.75-.336-.75-.75s.336-.75.75-.75h3.5c.414 0 .75.336.75.75s-.336.75-.75.75z"/><path d="m13.875 5.5c-.224 0-.444-.1-.592-.29-.713-.916-1.854-.916-2.566 0-.255.327-.727.386-1.052.132-.328-.255-.386-.726-.132-1.052.637-.82 1.537-1.29 2.467-1.29s1.83.47 2.467 1.29c.254.327.196.798-.131 1.052-.137.106-.299.158-.461.158z"/><path d="m15.75 3.5c-.224 0-.445-.1-.593-.29-.855-1.103-1.977-1.71-3.157-1.71s-2.302.607-3.158 1.71c-.253.327-.725.387-1.052.132-.327-.254-.387-.725-.132-1.052 1.129-1.455 2.712-2.29 4.342-2.29s3.213.835 4.342 2.29c.254.327.195.798-.132 1.052-.137.107-.299.158-.46.158z"/></svg>