<svg id="regular" enable-background="new 0 0 24 24" height="512" viewBox="0 0 24 24" width="512" xmlns="http://www.w3.org/2000/svg"><path d="m9.392 17c-.151 0-.302-.045-.43-.136-.235-.165-.356-.449-.311-.732l.431-2.7-1.867-1.898c-.196-.201-.266-.494-.177-.761.088-.267.318-.462.596-.506l2.541-.396 1.135-2.437c.122-.265.397-.425.68-.434.29 0 .554.167.678.429l1.151 2.429 2.542.379c.278.042.51.235.6.501.091.266.024.561-.172.762l-1.854 1.911.45 2.696c.047.284-.072.569-.306.735-.236.167-.544.185-.795.046l-2.269-1.242-2.259 1.258c-.113.065-.239.096-.364.096z" fill="#ffc107"/><path d="m9.392 17c-.151 0-.302-.046-.43-.136-.235-.164-.356-.449-.311-.732l.431-2.7-1.866-1.897c-.197-.201-.267-.495-.178-.762.088-.268.318-.462.597-.506l2.54-.396 1.135-2.437c.122-.264.386-.433.676-.434h.003c.29 0 .554.167.678.429l1.151 2.43 2.542.378c.278.042.51.235.6.502.091.266.024.561-.172.763l-1.854 1.911.45 2.697c.047.283-.072.568-.306.734-.235.166-.544.184-.795.047l-2.269-1.243-2.259 1.258c-.112.063-.238.094-.363.094zm-.082-5.477 1.107 1.126c.168.17.244.409.206.645l-.247 1.55 1.271-.708c.227-.126.499-.127.726-.003l1.278.7-.259-1.548c-.039-.234.036-.475.202-.646l1.1-1.135-1.493-.222c-.247-.037-.46-.195-.567-.421l-.639-1.349-.63 1.353c-.105.227-.317.386-.564.425z"/><path d="m12 22c-5.514 0-10-4.486-10-10s4.486-10 10-10 10 4.486 10 10-4.486 10-10 10zm0-18.5c-4.687 0-8.5 3.813-8.5 8.5s3.813 8.5 8.5 8.5 8.5-3.813 8.5-8.5-3.813-8.5-8.5-8.5z"/><path d="m12 5c-.414 0-.75-.336-.75-.75v-3.5c0-.414.336-.75.75-.75s.75.336.75.75v3.5c0 .414-.336.75-.75.75z"/><path d="m12 5c-.414 0-.75-.336-.75-.75v-3.5c0-.414.336-.75.75-.75s.75.336.75.75v3.5c0 .414-.336.75-.75.75z"/><path d="m23.25 12.75h-3.5c-.414 0-.75-.336-.75-.75s.336-.75.75-.75h3.5c.414 0 .75.336.75.75s-.336.75-.75.75z"/><path d="m12 24c-.414 0-.75-.336-.75-.75v-3.5c0-.414.336-.75.75-.75s.75.336.75.75v3.5c0 .414-.336.75-.75.75z"/><path d="m4.25 12.75h-3.5c-.414 0-.75-.336-.75-.75s.336-.75.75-.75h3.5c.414 0 .75.336.75.75s-.336.75-.75.75z"/></svg>