<svg enable-background="new 0 0 24 24" height="512" viewBox="0 0 24 24" width="512" xmlns="http://www.w3.org/2000/svg"><g id="Color"><g><path d="m20.25.04h-5.5c-.965 0-1.75.785-1.75 1.75v8.45c0 2.481 2.019 4.5 4.5 4.5s4.5-2.019 4.5-4.5v-8.45c0-.965-.785-1.75-1.75-1.75z" fill="#f5f5f5"/></g><g><g><path d="m11 10.66v11.59c0 .96-.79 1.75-1.75 1.75h-5.5c-.96 0-1.75-.79-1.75-1.75v-11.59c0-.47.18-.91.51-1.24l1.42-1.41c.04-.05.07-.11.07-.18v-2.79h5v2.79c0 .07.03.13.07.18l1.42 1.41c.33.33.51.77.51 1.24z" fill="#ffca28"/></g></g><g><g><path d="m9 1.7v3.34h-5v-3.34c0-.96.79-1.75 1.75-1.75h1.5c.96 0 1.75.79 1.75 1.75z" fill="#ffa726"/></g></g><g><path d="m20.906 6.595v3.633c0 1.889-1.526 3.406-3.406 3.406s-3.406-1.517-3.406-3.406v-3.633z" fill="#ffca28"/></g></g><g id="_x31_.5"><g><path d="m9.25 23.995h-5.5c-.965 0-1.75-.785-1.75-1.75v-11.586c0-.467.182-.907.513-1.237l1.414-1.415c.046-.047.073-.111.073-.176v-6.128c0-.965.785-1.75 1.75-1.75h1.5c.965 0 1.75.785 1.75 1.75v6.127c0 .066.027.13.073.177l1.414 1.415c.331.33.513.77.513 1.237v11.586c0 .965-.785 1.75-1.75 1.75zm-3.5-22.542c-.138 0-.25.112-.25.25v6.127c0 .467-.182.907-.513 1.237l-1.414 1.415c-.046.047-.073.111-.073.177v11.586c0 .138.112.25.25.25h5.5c.138 0 .25-.112.25-.25v-11.586c0-.066-.027-.13-.073-.177l-1.414-1.414c-.331-.331-.513-.77-.513-1.237v-6.128c0-.138-.112-.25-.25-.25z"/></g><g><path d="m8.25 5.035h-3.5c-.414 0-.75-.336-.75-.75s.336-.75.75-.75h3.5c.414 0 .75.336.75.75s-.336.75-.75.75z"/></g><g><path d="m17.5 14.745c-2.481 0-4.5-2.019-4.5-4.5v-8.458c0-.965.785-1.75 1.75-1.75h5.5c.965 0 1.75.785 1.75 1.75v8.458c0 2.482-2.019 4.5-4.5 4.5zm-2.75-13.208c-.138 0-.25.112-.25.25v8.458c0 1.654 1.346 3 3 3s3-1.346 3-3v-8.458c0-.138-.112-.25-.25-.25z"/></g><g><path d="m17.5 23.995c-.414 0-.75-.336-.75-.75v-9.25c0-.414.336-.75.75-.75s.75.336.75.75v9.25c0 .414-.336.75-.75.75z"/></g><g><path d="m21.248 23.995h-7.498c-.414 0-.75-.336-.75-.75s.336-.75.75-.75h7.498c.414 0 .75.336.75.75s-.336.75-.75.75z"/></g><g><path d="m21.25 6.995h-7.5c-.414 0-.75-.336-.75-.75s.336-.75.75-.75h7.5c.414 0 .75.336.75.75s-.336.75-.75.75z"/></g></g></svg>