<svg fill="none" height="512" viewBox="0 0 24 24" width="512" xmlns="http://www.w3.org/2000/svg"><g clip-rule="evenodd" fill-rule="evenodd"><path d="m4.5 8.25c.41421 0 .75.33579.75.75v1c0 .4142-.33579.75-.75.75s-.75-.3358-.75-.75v-1c0-.41421.33579-.75.75-.75z" fill="#f44336"/><path d="m7 9.25c.41421 0 .75.33579.75.75v7c0 .4142-.33579.75-.75.75h-5c-.9665 0-1.75-.7835-1.75-1.75v-4c0-.2508.125326-.4849.333975-.624l2.999995-2.00004c.12321-.08213.26796-.12596.41603-.12596z" fill="#90a7b2"/><path d="m21 4.25c1.5188 0 2.75 1.23122 2.75 2.75v9c0 .9665-.7835 1.75-1.75 1.75h-14c-.9665 0-1.75-.7835-1.75-1.75v-9c0-1.51878 1.23122-2.75 2.75-2.75z" fill="#e5e6e8"/><path d="m4.75 9.25v.75 2c0 1.5188-1.23122 2.75-2.75 2.75h-1-.75v-2.75c0-.2508.125326-.4849.333975-.624l2.999995-2.00004c.12321-.08213.26796-.12596.41603-.12596z" fill="#486472"/><path d="m18.5 16.25c1.2426 0 2.25 1.0074 2.25 2.25s-1.0074 2.25-2.25 2.25-2.25-1.0074-2.25-2.25 1.0074-2.25 2.25-2.25z" fill="#486472"/><path d="m5.5 16.25c1.24264 0 2.25 1.0074 2.25 2.25s-1.00736 2.25-2.25 2.25-2.25-1.0074-2.25-2.25 1.00736-2.25 2.25-2.25z" fill="#486472"/><path d="m15 8.25c.4142 0 .75.33579.75.75v4c0 .4142-.3358.75-.75.75s-.75-.3358-.75-.75v-4c0-.41421.3358-.75.75-.75z" fill="#f44336"/><path d="m17.75 11c0 .4142-.3358.75-.75.75h-4c-.4142 0-.75-.3358-.75-.75s.3358-.75.75-.75h4c.4142 0 .75.3358.75.75z" fill="#f44336"/><g fill="#000"><path d="m23.75 7c0-1.51878-1.2312-2.75-2.75-2.75h-12c-1.51878 0-2.75 1.23122-2.75 2.75v9c0 .9665.7835 1.75 1.75 1.75h14c.9665 0 1.75-.7835 1.75-1.75zm-2.75-1.25c.6904 0 1.25.55964 1.25 1.25v9c0 .1381-.1119.25-.25.25h-14c-.13807 0-.25-.1119-.25-.25v-9c0-.69036.55964-1.25 1.25-1.25z"/><path d="m7.75 10c0-.41421-.33579-.75-.75-.75h-3c-.14807 0-.29282.04383-.41603.12596l-2.999995 2.00004c-.208649.1391-.333975.3732-.333975.624v4c0 .9665.7835 1.75 1.75 1.75h5c.41421 0 .75-.3358.75-.75zm-1.5.75v5.5h-4.25c-.13807 0-.25-.1119-.25-.25v-3.5986l2.47708-1.6514z"/><path d="m4 9.25c-.41421 0-.75.33579-.75.75v2c0 .6904-.55964 1.25-1.25 1.25h-1c-.414214 0-.75.3358-.75.75s.335786.75.75.75h1c1.51878 0 2.75-1.2312 2.75-2.75v-2c0-.41421-.33579-.75-.75-.75z"/><path d="m18.5 17.75c.4142 0 .75.3358.75.75s-.3358.75-.75.75-.75-.3358-.75-.75.3358-.75.75-.75zm2.25.75c0-1.2426-1.0074-2.25-2.25-2.25s-2.25 1.0074-2.25 2.25 1.0074 2.25 2.25 2.25 2.25-1.0074 2.25-2.25z"/><path d="m5.5 17.75c.41421 0 .75.3358.75.75s-.33579.75-.75.75-.75-.3358-.75-.75.33579-.75.75-.75zm2.25.75c0-1.2426-1.00736-2.25-2.25-2.25s-2.25 1.0074-2.25 2.25 1.00736 2.25 2.25 2.25 2.25-1.0074 2.25-2.25z"/><path d="m15 8.25c.4142 0 .75.33579.75.75v4c0 .4142-.3358.75-.75.75s-.75-.3358-.75-.75v-4c0-.41421.3358-.75.75-.75z"/><path d="m17.75 11c0 .4142-.3358.75-.75.75h-4c-.4142 0-.75-.3358-.75-.75s.3358-.75.75-.75h4c.4142 0 .75.3358.75.75z"/><path d="m4.5 8.25c.41421 0 .75.33579.75.75v1c0 .4142-.33579.75-.75.75s-.75-.3358-.75-.75v-1c0-.41421.33579-.75.75-.75z"/></g></g></svg>