<svg fill="none" height="512" viewBox="0 0 24 24" width="512" xmlns="http://www.w3.org/2000/svg"><g clip-rule="evenodd" fill-rule="evenodd"><path d="m12 .25c-4.21718 0-7.77285 3.13325-8.24071 7.29204l-1.50459 13.37416c-.00313.0278-.0047.0558-.0047.0838 0 .3826.17782.6903.38113.9111.1996.2168.45794.3898.7273.5313.54029.2839 1.27282.5168 2.11491.704 1.69634.3769 4.00349.6036 6.52666.6036 2.5232 0 4.8303-.2267 6.5267-.6036.842-.1872 1.5746-.4201 2.1149-.704.2693-.1415.5277-.3145.7273-.5313.2033-.2208.3811-.5285.3811-.9111 0-.028-.0016-.056-.0047-.0838l-1.5046-13.37415c-.4679-4.1588-4.0235-7.29205-8.2407-7.29205z" fill="#e5e6e8"/><path d="m8 7.75c-.9665 0-1.75.7835-1.75 1.75v6c0 .9665.7835 1.75 1.75 1.75h8c.9665 0 1.75-.7835 1.75-1.75v-6c0-.9665-.7835-1.75-1.75-1.75z" fill="#2196f3"/><path d="m12.5303 10.9697c.2929.2929.2929.7677 0 1.0606l-2 2c-.2929.2929-.76774.2929-1.06063 0s-.29289-.7677 0-1.0606l2.00003-2c.2929-.2929.7677-.2929 1.0606 0z" fill="#fafafa"/><path d="m14.5303 11.9697c.2929.2929.2929.7677 0 1.0606l-1 1c-.2929.2929-.7677.2929-1.0606 0s-.2929-.7677 0-1.0606l1-1c.2929-.2929.7677-.2929 1.0606 0z" fill="#fafafa"/><g fill="#000"><path d="m3.75936 7.54204c.46786-4.15879 4.02353-7.29204 8.24074-7.29204 4.2171 0 7.7728 3.13325 8.2407 7.29205l1.5046 13.37415c.0463.4116-.2499.7828-.6615.8291s-.7828-.2498-.8291-.6615l-1.5046-13.37406c-.3809-3.38547-3.2817-5.95974-6.7501-5.95974-3.46843 0-6.36928 2.57427-6.75015 5.95974l-1.50458 13.37406c-.04631.4117-.41753.7078-.82915.6615s-.70776-.4175-.66145-.8291z"/><path d="m3.74403 20.9049c-.04674-.3693-.36203-.6549-.74403-.6549-.41421 0-.75.3358-.75.75 0 .3826.17782.6903.38113.9111.1996.2168.45794.3898.7273.5313.54029.2839 1.27282.5168 2.11491.704 1.69634.3769 4.00349.6036 6.52666.6036 2.5232 0 4.8303-.2267 6.5267-.6036.842-.1872 1.5746-.4201 2.1149-.704.2693-.1415.5277-.3145.7273-.5313.2033-.2208.3811-.5285.3811-.9111 0-.4142-.3358-.75-.75-.75-.382 0-.6973.2856-.744.6549-.0448.045-.1393.1189-.3121.2096-.3706.1947-.956.3928-1.7426.5676-1.5611.3469-3.7539.5679-6.2013.5679-2.44739 0-4.64025-.221-6.20126-.5679-.7866-.1748-1.37208-.3729-1.74265-.5676-.17277-.0907-.26728-.1646-.31206-.2096z"/><path d="m6.25 9.5c0-.9665.7835-1.75 1.75-1.75h8c.9665 0 1.75.7835 1.75 1.75v6c0 .9665-.7835 1.75-1.75 1.75h-8c-.9665 0-1.75-.7835-1.75-1.75zm1.75-.25c-.13807 0-.25.11193-.25.25v6c0 .1381.11193.25.25.25h8c.1381 0 .25-.1119.25-.25v-6c0-.13807-.1119-.25-.25-.25z"/><path d="m12.5303 10.9697c.2929.2929.2929.7677 0 1.0606l-2 2c-.2929.2929-.76774.2929-1.06063 0s-.29289-.7677 0-1.0606l2.00003-2c.2929-.2929.7677-.2929 1.0606 0z"/><path d="m14.5303 11.9697c.2929.2929.2929.7677 0 1.0606l-1 1c-.2929.2929-.7677.2929-1.0606 0s-.2929-.7677 0-1.0606l1-1c.2929-.2929.7677-.2929 1.0606 0z"/></g></g></svg>