<svg id="_x31__x2C_5" height="512" viewBox="0 0 24 24" width="512" xmlns="http://www.w3.org/2000/svg"><path d="m16.38 17.38c0 1.22-.74 2.26-1.78 2.7-.71.31-1.13 1.82-1.13 2.61v1.3l-5.81.01v-1.31c0-.79-.42-2.3-1.14-2.61-1.04-.44-1.77-1.48-1.77-2.7 0-1.19.7-2.21 1.71-2.67.37-.17.77-.26 1.2-.26 1.6 0 2.9 1.31 2.9 2.93 0-1.62 1.3-2.93 2.91-2.93.71 0 1.37.26 1.88.7.63.53 1.03 1.33 1.03 2.23z" fill="#cfd8dc"/><path d="m16.36 12.17c-.03 1.12-.39 2.15-1.01 2.98-.51-.44-1.17-.7-1.88-.7-1.61 0-2.91 1.31-2.91 2.93 0-1.62-1.3-2.93-2.9-2.93-.43 0-.83.09-1.2.26-.48-.79-.74-1.72-.74-2.71 0-1.53.63-2.9 1.65-3.87.24.44.61.82 1.07 1.09 1.39.81 3.17.33 3.97-1.07-.8 1.4-.33 3.2 1.06 4.01.92.54 2.02.51 2.89.01z" fill="#607d8b"/><path d="m17.25 7.85c.68.91.8 2.18.19 3.23-.27.48-.65.84-1.08 1.09-.87.5-1.97.53-2.89-.01-1.39-.81-1.86-2.61-1.06-4.01-.8 1.4-2.58 1.88-3.97 1.07-.46-.27-.83-.65-1.07-1.09-.5-.88-.53-1.98.01-2.92.6-1.05 1.75-1.58 2.87-1.44.77.09 1.51-.36 1.9-1.04l1.88-2.73 6.97.01-3.82 5.66c-.38.68-.4 1.55.07 2.18z" fill="#cfd8dc"/><path d="m7.656 24c-.414 0-.75-.336-.75-.75v-1.313c0-.523-.272-.99-.678-1.164-1.353-.58-2.228-1.911-2.228-3.392 0-2.032 1.64-3.686 3.656-3.686 1.184 0 2.238.569 2.906 1.451.668-.882 1.723-1.451 2.906-1.451 2.016 0 3.656 1.653 3.656 3.686 0 1.481-.875 2.813-2.228 3.393-.406.174-.678.641-.678 1.164v1.302c0 .414-.336.75-.75.75s-.75-.336-.75-.75v-1.302c0-1.133.624-2.131 1.588-2.543.801-.343 1.318-1.134 1.318-2.014 0-1.205-.967-2.186-2.156-2.186s-2.156.98-2.156 2.186c0 .414-.336.75-.75.75s-.75-.336-.75-.75c0-1.205-.967-2.186-2.156-2.186s-2.156.981-2.156 2.186c0 .88.518 1.671 1.319 2.014.964.412 1.587 1.41 1.587 2.543v1.313c0 .413-.336.749-.75.749z"/><path d="m14.921 13.302c-.634 0-1.26-.168-1.824-.496-1.024-.598-1.653-1.623-1.794-2.725-.151.063-.308.117-.469.16-.943.253-1.927.121-2.771-.372-1.743-1.015-2.343-3.271-1.337-5.028.736-1.288 2.157-2.004 3.619-1.817.43.052.897-.213 1.155-.662l1.134-1.983c.206-.359.664-.481 1.023-.279.359.206.484.664.278 1.023l-1.134 1.983c-.562.983-1.598 1.539-2.642 1.406-.865-.104-1.697.313-2.132 1.073-.597 1.045-.243 2.386.791 2.989.497.289 1.075.369 1.626.218.558-.149 1.025-.511 1.314-1.017.207-.359.665-.484 1.023-.279.242.139.378.392.378.652 0 .126-.032.254-.099.371-.598 1.046-.243 2.388.791 2.99.495.289 1.074.365 1.627.218.558-.15 1.024-.511 1.314-1.017.437-.765.379-1.713-.147-2.416-.629-.843-.674-2.02-.113-2.999l3.081-4.935c.22-.351.683-.457 1.034-.238s.458.682.239 1.033l-3.066 4.91c-.245.429-.24.973.027 1.33.884 1.182.981 2.775.248 4.059-.489.855-1.28 1.467-2.228 1.721-.312.085-.63.127-.946.127z"/><path d="m15.357 15.91c-.153 0-.307-.046-.44-.143-.335-.243-.41-.712-.167-1.048.542-.747.841-1.64.865-2.583.011-.414.377-.745.769-.73.414.011.741.355.73.77-.032 1.247-.429 2.431-1.149 3.425-.147.202-.376.309-.608.309z"/><path d="m6.456 15.46c-.255 0-.503-.13-.644-.365-.552-.921-.843-1.991-.843-3.095 0-1.665.653-3.219 1.841-4.38.137-.152.335-.249.556-.249.414 0 .75.331.75.745 0 .204-.083.409-.23.55-.914.88-1.417 2.063-1.417 3.334 0 .832.218 1.637.63 2.325.213.355.097.815-.258 1.028-.121.073-.254.107-.385.107z"/></svg>