<svg id="_x31__x2C_5" height="512" viewBox="0 0 24 24" width="512" xmlns="http://www.w3.org/2000/svg"><path d="m8.75 6.5v-1.469c0-.607.411-1.133 1-1.281.588-.147 1-.673 1-1.281v-.469c0-.689.561-1.25 1.25-1.25s1.25.561 1.25 1.25v.469c0 .607.412 1.134 1 1.281s1 .674 1 1.281v1.469z" fill="#cfd8dc"/><path d="m6.75 9.5v-.75c0-1.103.897-2 2-2h6.5c1.103 0 2 .897 2 2v.75z" fill="#607d8b"/><path d="m6.75 23.25c-1.103 0-2-.897-2-2v-9.5c0-1.103.897-2 2-2h10.5c1.103 0 2 .897 2 2v9.5c0 1.103-.897 2-2 2z" fill="#cfd8dc"/><path d="m8.75 19.25c-.551 0-1-.449-1-1v-3.5c0-.551.449-1 1-1h6.5c.551 0 1 .449 1 1v3.5c0 .551-.449 1-1 1z" fill="#607d8b"/><path d="m17.25 24h-10.5c-1.517 0-2.75-1.233-2.75-2.75v-9.5c0-1.517 1.233-2.75 2.75-2.75h10.5c1.517 0 2.75 1.233 2.75 2.75v9.5c0 1.517-1.233 2.75-2.75 2.75zm-10.5-13.5c-.689 0-1.25.561-1.25 1.25v9.5c0 .689.561 1.25 1.25 1.25h10.5c.689 0 1.25-.561 1.25-1.25v-9.5c0-.689-.561-1.25-1.25-1.25z"/><path d="m18 9.5h-1.5v-.75c0-.689-.561-1.25-1.25-1.25h-6.5c-.689 0-1.25.561-1.25 1.25v.75h-1.5v-.75c0-1.517 1.233-2.75 2.75-2.75h6.5c1.517 0 2.75 1.233 2.75 2.75z"/><path d="m16 6.5h-1.5v-1.469c0-.262-.178-.49-.432-.553-.923-.231-1.568-1.057-1.568-2.009v-.469c0-.276-.224-.5-.5-.5s-.5.224-.5.5v.469c0 .952-.645 1.777-1.568 2.008-.254.064-.432.292-.432.554v1.469h-1.5v-1.469c0-.952.645-1.777 1.568-2.008.254-.064.432-.292.432-.554v-.469c0-1.103.897-2 2-2s2 .897 2 2v.469c0 .262.178.49.432.553.923.231 1.568 1.057 1.568 2.009z"/><path d="m15.25 20h-6.5c-.965 0-1.75-.785-1.75-1.75v-3.5c0-.965.785-1.75 1.75-1.75h6.5c.965 0 1.75.785 1.75 1.75v3.5c0 .965-.785 1.75-1.75 1.75zm-6.5-5.5c-.138 0-.25.112-.25.25v3.5c0 .138.112.25.25.25h6.5c.138 0 .25-.112.25-.25v-3.5c0-.138-.112-.25-.25-.25z"/></svg>