<?xml version="1.0" encoding="iso-8859-1"?>
<!-- Generator: Adobe Illustrator 19.0.0, SVG Export Plug-In . SVG Version: 6.00 Build 0)  -->
<svg version="1.1" id="Capa_1" xmlns="http://www.w3.org/2000/svg" xmlns:xlink="http://www.w3.org/1999/xlink" x="0px" y="0px"
	 viewBox="0 0 511.98 511.98" style="enable-background:new 0 0 511.98 511.98;" xml:space="preserve">
<path style="fill:#FFC107;" d="M496.448,332.398c-28.716-71.435-72.268-135.961-127.776-189.312
	C240.416,14.83,90.432-36.146,27.168,27.118s-12.32,213.248,115.968,341.504c53.351,55.508,117.877,99.06,189.312,127.776
	c24.846,9.596,51.164,14.825,77.792,15.456c27.475,1.362,54.325-8.489,74.4-27.296C516.416,452.846,520.576,398.798,496.448,332.398
	z"/>
<g>
	<path style="fill:#FFE082;" d="M315.2,196.558c-0.069,31.359-12.919,61.335-35.584,83.008
		c-21.688,22.643-51.654,35.489-83.008,35.584c0.069-31.359,12.919-61.335,35.584-83.008
		C253.865,209.477,283.841,196.627,315.2,196.558z"/>
	<path style="fill:#FFE082;" d="M415.904,297.198c-0.095,31.354-12.941,61.32-35.584,83.008
		c-21.69,22.686-51.686,35.558-83.072,35.648C298.801,350.977,351.026,298.751,415.904,297.198z"/>
	<path style="fill:#FFE082;" d="M214.56,95.854c-0.009,31.402-12.812,61.444-35.456,83.2c-21.756,22.644-51.798,35.447-83.2,35.456
		c0.077-31.364,12.939-61.341,35.616-83.008C153.19,108.806,183.18,95.931,214.56,95.854z"/>
</g>
<path d="M410.208,511.854c-74.144,0-176-52.096-267.072-143.104C14.848,240.366-36.096,90.35,27.168,27.118
	s213.28-12.32,341.504,115.968s179.2,278.4,115.968,341.504l0,0C464.544,503.381,437.687,513.219,410.208,511.854z M101.824,31.534
	c-19.088-1.185-37.848,5.379-52.032,18.208C0.928,98.606,54.016,234.286,165.76,345.998S413.184,510.83,462.016,461.966
	s-4.224-184.544-115.968-296.256C262.624,82.254,165.856,31.534,101.824,31.534z"/>
<path d="M202.112,328.494h-3.2c-8.441-0.266-15.222-7.047-15.488-15.488c-0.208-34.369,13.723-67.313,38.528-91.104
	c23.739-24.85,56.674-38.812,91.04-38.592c8.417,0.282,15.174,7.039,15.456,15.456c0.186,34.359-13.77,67.282-38.592,91.04
	C266.846,313.756,235.314,327.659,202.112,328.494z M294.912,216.718c-38.959,8.844-69.364,39.298-78.144,78.272
	c39.009-8.801,69.471-39.263,78.272-78.272L294.912,216.718z"/>
<path d="M298.112,424.494h-3.2c-8.441-0.266-15.222-7.047-15.488-15.488c1.164-71.106,58.526-128.467,129.632-129.632
	c8.417,0.282,15.174,7.039,15.456,15.456c0.186,34.359-13.77,67.282-38.592,91.04C362.883,409.812,331.327,423.692,298.112,424.494z
	 M390.912,312.718c-39.009,8.801-69.471,39.263-78.272,78.272C351.649,382.19,382.112,351.727,390.912,312.718z"/>
<path d="M106.112,232.494h-3.2c-8.441-0.266-15.222-7.047-15.488-15.488c-0.208-34.369,13.723-67.313,38.528-91.104
	c23.739-24.85,56.674-38.812,91.04-38.592c8.417,0.282,15.174,7.039,15.456,15.456c0.186,34.359-13.77,67.282-38.592,91.04
	C170.846,217.756,139.314,231.659,106.112,232.494z M198.912,120.718c-38.959,8.844-69.364,39.298-78.144,78.272
	c19.173-4.151,36.713-13.817,50.464-27.808c13.991-13.751,23.657-31.291,27.808-50.464H198.912z"/>
<g>
</g>
<g>
</g>
<g>
</g>
<g>
</g>
<g>
</g>
<g>
</g>
<g>
</g>
<g>
</g>
<g>
</g>
<g>
</g>
<g>
</g>
<g>
</g>
<g>
</g>
<g>
</g>
<g>
</g>
</svg>
