<?xml version="1.0" encoding="iso-8859-1"?>
<!-- Generator: Adobe Illustrator 19.0.0, SVG Export Plug-In . SVG Version: 6.00 Build 0)  -->
<svg version="1.1" id="Capa_1" xmlns="http://www.w3.org/2000/svg" xmlns:xlink="http://www.w3.org/1999/xlink" x="0px" y="0px"
	 viewBox="0 0 512.007 512.007" style="enable-background:new 0 0 512.007 512.007;" xml:space="preserve">
<g>
	<path style="fill:#455A64;" d="M496.003,64.004h-224v-48c0-8.837-7.163-16-16-16c-8.837,0-16,7.163-16,16v48h-224
		c-8.837,0-16,7.163-16,16s7.163,16,16,16h224v352h-32c-26.51,0-48,21.49-48,48l0,0c0,8.837,7.163,16,16,16h160
		c8.837,0,16-7.163,16-16l0,0c0-26.51-21.49-48-48-48h-32v-352h224c8.837,0,16-7.163,16-16S504.84,64.004,496.003,64.004z"/>
	<path style="fill:#455A64;" d="M176.003,240.004c-5.82,0.012-11.187-3.138-14.016-8.224L96.003,112.964L29.987,231.78
		c-4.295,7.723-14.037,10.503-21.76,6.208c-7.723-4.295-10.503-14.037-6.208-21.76c0,0,0,0,0,0l80-144
		c4.981-7.723,15.28-9.946,23.003-4.965c1.989,1.283,3.682,2.976,4.965,4.965l80,144c4.295,7.723,1.516,17.465-6.207,21.759
		c0,0-0.001,0-0.001,0.001C181.401,239.31,178.725,240.004,176.003,240.004z"/>
</g>
<path style="fill:#FFC107;" d="M0.003,224.004v32c0,35.346,28.654,64,64,64h64c35.346,0,64-28.654,64-64v-32H0.003z"/>
<path style="fill:#455A64;" d="M496.003,240.004c-5.82,0.012-11.187-3.138-14.016-8.224l-65.984-118.816L349.987,231.78
	c-4.295,7.723-14.037,10.503-21.76,6.208c-7.723-4.295-10.503-14.037-6.208-21.76l0,0l80-144c4.981-7.723,15.28-9.946,23.003-4.965
	c1.989,1.283,3.682,2.976,4.965,4.965l80,144c4.295,7.723,1.515,17.465-6.207,21.759
	C501.402,239.31,498.725,240.004,496.003,240.004z"/>
<path style="fill:#FFC107;" d="M320.003,224.004v32c0,35.346,28.654,64,64,64h64c35.346,0,64-28.654,64-64v-32H320.003z"/>
<path d="M336.003,512.004h-160c-8.837,0-16-7.163-16-16v-32c0-26.51,21.49-48,48-48h96c26.51,0,48,21.49,48,48v32
	C352.003,504.84,344.84,512.004,336.003,512.004z M192.003,480.004h128v-16c0-8.837-7.163-16-16-16h-96c-8.837,0-16,7.163-16,16
	V480.004z"/>
<path d="M256.003,448.004c-8.837,0-16-7.163-16-16v-416c0-8.837,7.163-16,16-16c8.837,0,16,7.163,16,16v416
	C272.003,440.84,264.84,448.004,256.003,448.004z"/>
<path d="M496.003,96.004h-480c-8.837,0-16-7.163-16-16s7.163-16,16-16h480c8.837,0,16,7.163,16,16S504.84,96.004,496.003,96.004z"/>
<path d="M128.003,320.004h-64c-35.346,0-64-28.654-64-64v-32c0-2.721,0.694-5.398,2.016-7.776l80-144
	c5-7.732,15.321-9.947,23.053-4.947c1.98,1.281,3.666,2.967,4.947,4.947l80,144c1.311,2.381,1.994,5.058,1.984,7.776v32
	C192.003,291.35,163.35,320.004,128.003,320.004z M32.003,228.132v27.872c0,17.673,14.327,32,32,32h64c17.673,0,32-14.327,32-32
	v-27.872l-64-115.168L32.003,228.132z"/>
<path d="M176.003,256.004h-160c-8.837,0-16-7.163-16-16s7.163-16,16-16h160c8.837,0,16,7.163,16,16S184.84,256.004,176.003,256.004z
	"/>
<path d="M448.003,320.004h-64c-35.346,0-64-28.654-64-64v-32c0-2.721,0.694-5.398,2.016-7.776l80-144
	c5-7.732,15.321-9.947,23.053-4.947c1.98,1.281,3.666,2.967,4.947,4.947l80,144c1.311,2.381,1.994,5.058,1.984,7.776v32
	C512.003,291.35,483.35,320.004,448.003,320.004z M352.003,228.132v27.872c0,17.673,14.327,32,32,32h64c17.673,0,32-14.327,32-32
	v-27.872l-64-115.2L352.003,228.132z"/>
<path d="M496.003,256.004h-160c-8.837,0-16-7.163-16-16s7.163-16,16-16h160c8.837,0,16,7.163,16,16S504.84,256.004,496.003,256.004z
	"/>
<g>
</g>
<g>
</g>
<g>
</g>
<g>
</g>
<g>
</g>
<g>
</g>
<g>
</g>
<g>
</g>
<g>
</g>
<g>
</g>
<g>
</g>
<g>
</g>
<g>
</g>
<g>
</g>
<g>
</g>
</svg>
