<?xml version="1.0" encoding="iso-8859-1"?>
<!-- Generator: Adobe Illustrator 19.0.0, SVG Export Plug-In . SVG Version: 6.00 Build 0)  -->
<svg version="1.1" id="Capa_1" xmlns="http://www.w3.org/2000/svg" xmlns:xlink="http://www.w3.org/1999/xlink" x="0px" y="0px"
	 viewBox="0 0 512.02 512.02" style="enable-background:new 0 0 512.02 512.02;" xml:space="preserve">
<path style="fill:#455A64;" d="M495.992,106.573l-22.623-67.9l-67.868-22.623v45.245l-16.831,16.799l-9.343-9.375
	c-6.272-6.272-16.383-6.272-22.655,0c-6.272,6.272-6.272,16.383,0,22.655l9.375,9.343L183.115,283.682l45.245,45.245
	l182.965-182.933l9.343,9.375c6.272,6.272,16.383,6.272,22.655,0s6.272-16.383,0-22.655l-9.375-9.343l16.799-16.799L495.992,106.573
	L495.992,106.573z"/>
<circle style="fill:#F44336;" cx="176.012" cy="336.031" r="175.989"/>
<path style="fill:#FAFAFA;" d="M176.012,448.024c-61.852,0-111.993-50.141-111.993-111.993s50.141-111.993,111.993-111.993
	s111.993,50.141,111.993,111.993S237.864,448.024,176.012,448.024z"/>
<path style="fill:#455A64;" d="M176.012,384.028c-4.256,0-8.319-1.664-11.327-4.672l-31.998-31.998
	c-6.272-6.272-6.272-16.383,0-22.655c6.272-6.272,16.383-6.272,22.655,0l31.998,31.998c6.272,6.24,6.272,16.383,0.032,22.623
	C184.363,382.332,180.268,384.028,176.012,384.028z"/>
<path d="M309.763,263.715c-8.831-0.032-15.967-7.2-15.967-16.031c0-4.224,1.696-8.255,4.672-11.263L439.547,95.31
	c3.008-3.008,7.072-4.704,11.327-4.704h22.879l-12.959-39.198l-39.358-12.959v22.719c0,4.256-1.696,8.319-4.704,11.327
	L275.622,213.574c-6.336,6.144-16.479,5.952-22.623-0.416c-5.984-6.208-5.984-16.031,0-22.239L389.439,54.416V16.019
	c0-5.152,2.464-9.983,6.656-12.991c4.16-3.04,9.567-3.84,14.431-2.176l67.836,22.719c4.768,1.6,8.479,5.312,10.079,10.079
	l22.719,67.836c2.816,8.383-1.696,17.439-10.079,20.255c-1.632,0.544-3.36,0.832-5.088,0.832h-38.398L321.091,259.011
	C318.083,262.019,314.019,263.715,309.763,263.715z"/>
<path d="M447.995,176.041c-4.256,0-8.319-1.664-11.327-4.672l-25.278-25.31c-6.144-6.368-5.952-16.479,0.384-22.623
	c6.208-5.984,16.031-5.984,22.239,0l25.31,25.278c6.272,6.24,6.272,16.383,0.032,22.623
	C456.346,174.345,452.251,176.041,447.995,176.041z"/>
<path d="M377.279,105.325c-4.224,0-8.287-1.696-11.295-4.672l-25.31-25.278c-6.272-6.272-6.272-16.383,0-22.655
	s16.383-6.272,22.655,0l25.278,25.31c6.24,6.272,6.208,16.383-0.032,22.623C385.567,103.629,381.535,105.325,377.279,105.325z"/>
<path d="M176.012,512.02c-97.21,0-175.989-78.779-175.989-175.989s78.779-175.989,175.989-175.989s175.989,78.779,175.989,175.989
	C351.905,433.177,273.158,511.892,176.012,512.02z M176.012,192.04c-79.515,0-143.991,64.476-143.991,143.991
	s64.476,143.991,143.991,143.991s143.991-64.476,143.991-143.991C319.939,256.548,255.495,192.104,176.012,192.04z"/>
<path d="M176.012,448.024c-61.852,0-111.993-50.141-111.993-111.993s50.141-111.993,111.993-111.993s111.993,50.141,111.993,111.993
	S237.864,448.024,176.012,448.024z M176.012,256.036c-44.189,0-79.995,35.806-79.995,79.995s35.806,79.995,79.995,79.995
	s79.995-35.806,79.995-79.995S220.201,256.036,176.012,256.036z"/>
<path d="M176.012,256.036c-8.831,0-15.999-7.168-15.999-15.999v-63.996c0-8.831,7.168-15.999,15.999-15.999
	s15.999,7.168,15.999,15.999v63.996C192.011,248.868,184.843,256.036,176.012,256.036z"/>
<path d="M176.012,512.02c-8.831,0-15.999-7.168-15.999-15.999v-63.996c0-8.831,7.168-15.999,15.999-15.999
	s15.999,7.168,15.999,15.999v63.996C192.011,504.852,184.843,512.02,176.012,512.02z"/>
<path d="M80.018,352.03H16.022c-8.831,0-15.999-7.168-15.999-15.999s7.168-15.999,15.999-15.999h63.996
	c8.831,0,15.999,7.168,15.999,15.999S88.849,352.03,80.018,352.03z"/>
<path d="M336.002,352.03h-63.996c-8.831,0-15.999-7.168-15.999-15.999s7.168-15.999,15.999-15.999h63.996
	c8.831,0,15.999,7.168,15.999,15.999S344.833,352.03,336.002,352.03z"/>
<path d="M289.285,465.303c-4.224,0-8.287-1.696-11.295-4.672l-45.437-45.437c-6.368-6.144-6.528-16.255-0.384-22.623
	s16.255-6.528,22.623-0.384c0.128,0.128,0.256,0.256,0.384,0.384l45.437,45.437c6.24,6.272,6.208,16.383-0.032,22.623
	C297.572,463.607,293.54,465.303,289.285,465.303z"/>
<path d="M108.176,284.194c-4.256,0-8.319-1.696-11.327-4.704l-45.437-45.437c-6.144-6.368-5.952-16.479,0.416-22.623
	c6.208-5.984,16.031-5.984,22.239,0l45.437,45.437c6.272,6.24,6.272,16.383,0.032,22.623
	C116.496,282.498,112.432,284.194,108.176,284.194z"/>
<path d="M62.739,465.303c-8.831,0-15.999-7.168-15.999-15.999c0-4.224,1.664-8.287,4.672-11.295l45.437-45.437
	c6.144-6.368,16.255-6.528,22.623-0.384s6.528,16.255,0.384,22.623c-0.128,0.128-0.256,0.256-0.384,0.384l-45.437,45.437
	C71.058,463.607,66.995,465.303,62.739,465.303z"/>
<path d="M243.848,284.194c-8.831,0-15.999-7.168-15.999-15.999c0-4.256,1.696-8.319,4.704-11.327l45.437-45.437
	c6.368-6.144,16.479-5.984,22.623,0.384c5.984,6.208,5.984,16.031,0,22.239l-45.437,45.437
	C252.199,282.498,248.103,284.194,243.848,284.194z"/>
<path d="M176.012,384.028c-4.256,0-8.319-1.664-11.327-4.672l-31.998-31.998c-6.272-6.272-6.272-16.383,0-22.655
	c6.272-6.272,16.383-6.272,22.655,0l31.998,31.998c6.272,6.24,6.272,16.383,0.032,22.623
	C184.363,382.332,180.268,384.028,176.012,384.028z"/>
<g>
</g>
<g>
</g>
<g>
</g>
<g>
</g>
<g>
</g>
<g>
</g>
<g>
</g>
<g>
</g>
<g>
</g>
<g>
</g>
<g>
</g>
<g>
</g>
<g>
</g>
<g>
</g>
<g>
</g>
</svg>
