<?xml version="1.0" encoding="iso-8859-1"?>
<!-- Generator: Adobe Illustrator 19.0.0, SVG Export Plug-In . SVG Version: 6.00 Build 0)  -->
<svg version="1.1" id="Capa_1" xmlns="http://www.w3.org/2000/svg" xmlns:xlink="http://www.w3.org/1999/xlink" x="0px" y="0px"
	 viewBox="0 0 512 512" style="enable-background:new 0 0 512 512;" xml:space="preserve">
<rect x="64" y="223.999" style="fill:#90A4AE;" width="384" height="160"/>
<rect x="64" y="223.999" style="fill:#78909C;" width="384" height="32"/>
<g>
	<path style="fill:#CFD8DC;" d="M503.52,161.887l-240-128c-4.709-2.514-10.363-2.514-15.072,0l-240,128
		c-5.203,2.786-8.45,8.21-8.448,14.112v32c0,8.837,7.163,16,16,16h480c8.837,0,16-7.163,16-16v-32
		C511.996,170.09,508.736,164.664,503.52,161.887z"/>
	<path style="fill:#CFD8DC;" d="M480,383.999H32c-17.673,0-32,14.327-32,32v48c0,8.837,7.163,16,16,16h480c8.837,0,16-7.163,16-16
		v-48C512,398.326,497.673,383.999,480,383.999z"/>
</g>
<g>
	<rect x="64" y="223.999" style="fill:#B0BEC5;" width="64" height="160"/>
	<rect x="224" y="223.999" style="fill:#B0BEC5;" width="64" height="160"/>
	<rect x="384" y="223.999" style="fill:#B0BEC5;" width="64" height="160"/>
</g>
<path d="M496,223.999H16c-8.837,0-16-7.163-16-16v-32c0.004-5.909,3.264-11.335,8.48-14.112l240-128
	c4.709-2.514,10.363-2.514,15.072,0l240,128c5.203,2.786,8.45,8.21,8.448,14.112v32C512,216.835,504.837,223.999,496,223.999z
	 M32,191.999h448v-6.4L256,66.143L32,185.599V191.999z"/>
<path d="M496,479.999H16c-8.837,0-16-7.163-16-16v-48c0-17.673,14.327-32,32-32h448c17.673,0,32,14.327,32,32v48
	C512,472.835,504.837,479.999,496,479.999z M32,447.999h448v-32H32V447.999z"/>
<path d="M48,415.999c-8.837,0-16-7.163-16-16v-192c0-8.837,7.163-16,16-16s16,7.163,16,16v192C64,408.835,56.837,415.999,48,415.999
	z"/>
<path d="M112,415.999c-8.837,0-16-7.163-16-16v-192c0-8.837,7.163-16,16-16s16,7.163,16,16v192
	C128,408.835,120.837,415.999,112,415.999z"/>
<path d="M224,415.999c-8.837,0-16-7.163-16-16v-192c0-8.837,7.163-16,16-16s16,7.163,16,16v192
	C240,408.835,232.837,415.999,224,415.999z"/>
<path d="M288,415.999c-8.837,0-16-7.163-16-16v-192c0-8.837,7.163-16,16-16s16,7.163,16,16v192
	C304,408.835,296.837,415.999,288,415.999z"/>
<path d="M400,415.999c-8.837,0-16-7.163-16-16v-192c0-8.837,7.163-16,16-16s16,7.163,16,16v192
	C416,408.835,408.837,415.999,400,415.999z"/>
<path d="M464,415.999c-8.837,0-16-7.163-16-16v-192c0-8.837,7.163-16,16-16s16,7.163,16,16v192
	C480,408.835,472.837,415.999,464,415.999z"/>
<g>
</g>
<g>
</g>
<g>
</g>
<g>
</g>
<g>
</g>
<g>
</g>
<g>
</g>
<g>
</g>
<g>
</g>
<g>
</g>
<g>
</g>
<g>
</g>
<g>
</g>
<g>
</g>
<g>
</g>
</svg>
