<?xml version="1.0" encoding="iso-8859-1"?>
<!-- Generator: Adobe Illustrator 19.0.0, SVG Export Plug-In . SVG Version: 6.00 Build 0)  -->
<svg version="1.1" id="Capa_1" xmlns="http://www.w3.org/2000/svg" xmlns:xlink="http://www.w3.org/1999/xlink" x="0px" y="0px"
	 viewBox="0 0 480 480" style="enable-background:new 0 0 480 480;" xml:space="preserve">
<path d="M16,144c-8.837,0-16-7.163-16-16V64c0-8.837,7.163-16,16-16h64c8.837,0,16,7.163,16,16s-7.163,16-16,16H32v48
	C32,136.837,24.837,144,16,144z"/>
<path d="M464,432h-64c-8.837,0-16-7.163-16-16s7.163-16,16-16h48v-48c0-8.837,7.163-16,16-16s16,7.163,16,16v64
	C480,424.837,472.837,432,464,432z"/>
<path d="M464,144c-8.837,0-16-7.163-16-16V80h-48c-8.837,0-16-7.163-16-16s7.163-16,16-16h64c8.837,0,16,7.163,16,16v64
	C480,136.837,472.837,144,464,144z"/>
<path d="M80,432H16c-8.837,0-16-7.163-16-16v-64c0-8.837,7.163-16,16-16s16,7.163,16,16v48h48c8.837,0,16,7.163,16,16
	S88.837,432,80,432z"/>
<path d="M80,368c-8.837,0-16-7.163-16-16V128c0-8.837,7.163-16,16-16s16,7.163,16,16v224C96,360.837,88.837,368,80,368z"/>
<path d="M144,304c-8.837,0-16-7.163-16-16V128c0-8.837,7.163-16,16-16s16,7.163,16,16v160C160,296.837,152.837,304,144,304z"/>
<path d="M208,304c-8.837,0-16-7.163-16-16V128c0-8.837,7.163-16,16-16s16,7.163,16,16v160C224,296.837,216.837,304,208,304z"/>
<path d="M272,368c-8.837,0-16-7.163-16-16V128c0-8.837,7.163-16,16-16s16,7.163,16,16v224C288,360.837,280.837,368,272,368z"/>
<path d="M336,304c-8.837,0-16-7.163-16-16V128c0-8.837,7.163-16,16-16s16,7.163,16,16v160C352,296.837,344.837,304,336,304z"/>
<path d="M400,368c-8.837,0-16-7.163-16-16V128c0-8.837,7.163-16,16-16s16,7.163,16,16v224C416,360.837,408.837,368,400,368z"/>
<path d="M144.64,368c-8.837,0-16-7.163-16-16s7.163-16,16-16h0.32c8.837,0,16,7.163,16,16s-7.163,16-16,16H144.64z"/>
<path d="M208.64,368c-8.837,0-16-7.163-16-16s7.163-16,16-16h0.32c8.837,0,16,7.163,16,16s-7.163,16-16,16H208.64z"/>
<path d="M336.64,368c-8.837,0-16-7.163-16-16c0-8.774,7.066-15.912,15.84-16h0.32c8.837,0,16,7.163,16,16s-7.163,16-16,16H336.64z"
	/>
<g>
</g>
<g>
</g>
<g>
</g>
<g>
</g>
<g>
</g>
<g>
</g>
<g>
</g>
<g>
</g>
<g>
</g>
<g>
</g>
<g>
</g>
<g>
</g>
<g>
</g>
<g>
</g>
<g>
</g>
</svg>
