<svg id="_x31__x2C_5" height="512" viewBox="0 0 24 24" width="512" xmlns="http://www.w3.org/2000/svg"><path d="m1.717 1.031 6.334 4.354c-4.24-1.12-6.678.246-7.301 4.115l7.582-3.922.151.104c-.017-.053-.036-.102-.053-.154l.053-.028c-.024-.007-.046-.012-.07-.019-1.208-3.588-3.438-5.484-6.696-4.45z" fill="#4caf50"/><path d="m8.658 5.558.006-.005 6.586 1.947c-.92-2.907-3.02-3.625-6.273-2.208l5.306-4.422c-3.466-.651-5.387 1.41-5.772 4.618-.009.005-.018.007-.028.012l.025.008v.001c-.008-.003-.016-.007-.025-.009l.022.034c-.007.057-.016.112-.022.17l.085-.071 3.782 5.867c.614-3.18-.715-5.097-3.692-5.942z" fill="#4caf50"/><path d="m10.98 24c-2.071-3.885-5.817-6.509-10.078-7.067l-.902-.123v7.19z" fill="#607d8b"/><path d="m.75 10.25c-.155 0-.31-.048-.439-.143-.23-.166-.346-.447-.301-.726.332-2.064 1.166-3.529 2.478-4.355 1.49-.938 3.579-1.02 6.209-.245.292.086.504.343.533.648.029.304-.13.596-.402.737l-7.733 4c-.109.057-.227.084-.345.084zm4.716-4.499c-.875 0-1.604.182-2.18.544-.593.373-1.054.963-1.377 1.761l4.366-2.258c-.282-.031-.552-.047-.809-.047z"/><path d="m8.483 6.433c-.148 0-.297-.044-.425-.132l-6.766-4.652c-.236-.162-.359-.445-.317-.728s.242-.518.515-.605c3.492-1.111 6.306.762 7.707 5.138.099.306-.009.639-.267.83-.132.099-.289.149-.447.149zm-4.737-4.916 2.971 2.041c-.792-1.251-1.784-1.934-2.971-2.041z"/><path d="m8.483 6.454c-.12 0-.24-.028-.351-.087-.268-.142-.424-.432-.395-.735.202-2.096.986-3.712 2.263-4.672 1.155-.867 2.685-1.152 4.422-.827.285.054.514.268.587.549.073.28-.022.579-.245.765l-5.8 4.834c-.138.115-.309.173-.481.173zm3.791-4.886c-.519.097-.978.293-1.373.591-.484.363-.873.876-1.157 1.518z"/><path d="m15.25 8.25c-.071 0-.143-.01-.213-.03l-6.767-2c-.296-.088-.508-.35-.534-.658-.026-.309.141-.601.419-.737 2.15-1.043 3.937-1.275 5.312-.685 1.157.498 1.998 1.552 2.498 3.133.084.265.015.554-.18.752-.142.146-.337.225-.535.225zm-4.376-2.825 2.97.878c-.274-.364-.596-.623-.969-.784-.539-.232-1.207-.263-2.001-.094z"/><path d="m12.35 12.25c-.252 0-.49-.127-.631-.344l-3.866-6c-.167-.26-.159-.596.023-.846s.503-.364.798-.285c3.573.939 5.099 3.314 4.412 6.868-.058.301-.293.536-.594.594-.048.008-.096.013-.142.013zm-1.836-4.983 1.103 1.71c-.18-.687-.547-1.253-1.103-1.71z"/><path d="m2.5 17.5c-.192 0-.384-.073-.53-.22-.293-.293-.293-.768 0-1.061 3.359-3.359 5.037-6.501 5.791-10.847.071-.409.468-.674.867-.611.408.071.682.459.611.867-.812 4.679-2.611 8.055-6.209 11.652-.146.147-.338.22-.53.22z"/><path d="m10.981 24c-.264 0-.52-.14-.657-.386-1.807-3.257-5.106-5.481-8.828-5.95l-.844-.111c-.411-.054-.7-.431-.646-.841.053-.411.422-.71.841-.646l.84.11c4.19.527 7.911 3.036 9.949 6.709.2.362.069.819-.292 1.021-.115.064-.24.094-.363.094z"/><path d="m6.25 24c-.192 0-.384-.073-.53-.22l-.5-.5c-.293-.293-.293-.768 0-1.061s.768-.293 1.061 0l.5.5c.293.293.293.768 0 1.061-.147.147-.339.22-.531.22z"/><path d="m.75 21c-.192 0-.384-.073-.53-.22-.293-.293-.293-.768 0-1.061l.5-.5c.293-.293.768-.293 1.061 0s.293.768 0 1.061l-.5.5c-.147.147-.339.22-.531.22z"/><path d="m23.25 19.5h-15.75c-.414 0-.75-.336-.75-.75s.336-.75.75-.75h15.75c.414 0 .75.336.75.75s-.336.75-.75.75z"/><path d="m17.25 22.5h-2.5c-.414 0-.75-.336-.75-.75s.336-.75.75-.75h2.5c.414 0 .75.336.75.75s-.336.75-.75.75z"/><path d="m23.25 24h-2.75c-.414 0-.75-.336-.75-.75s.336-.75.75-.75h2.75c.414 0 .75.336.75.75s-.336.75-.75.75z"/></svg>