<svg id="_x31__x2C_5" height="512" viewBox="0 0 24 24" width="512" xmlns="http://www.w3.org/2000/svg"><path d="m8.73 23.25c-1.736 0-3.385-.755-4.522-2.071-1.136-1.322-1.645-3.081-1.396-4.823l.95-6.294c.3-1.981 1.296-3.735 2.818-4.981.082.463.236.911.46 1.326.783 1.445 2.289 2.343 3.93 2.343h2.061c1.641 0 3.146-.898 3.929-2.343.221-.419.375-.868.458-1.327 1.525 1.249 2.521 3.002 2.82 4.983l.95 6.299c.249 1.737-.26 3.496-1.397 4.819-1.136 1.314-2.785 2.069-4.521 2.069z" fill="#cfd8dc"/><path d="m11.999 19.249c-1.296-.915-3.749-3.067-3.749-4.649 0-1.02.878-1.85 1.957-1.85.484 0 .948.168 1.309.473l.484.412.485-.412c.36-.305.825-.473 1.309-.473 1.079 0 1.957.83 1.957 1.85 0 1.583-2.453 3.734-3.75 4.651-.001-.001-.001-.001-.002-.002z" fill="#607d8b"/><path d="m15.267 24h-6.534c-1.955 0-3.811-.851-5.089-2.333-1.287-1.491-1.858-3.465-1.569-5.417l.946-6.301c.353-2.307 1.568-4.334 3.422-5.711l.895 1.204c-1.535 1.14-2.541 2.82-2.833 4.731l-.946 6.298c-.225 1.518.22 3.055 1.221 4.216.993 1.152 2.434 1.813 3.953 1.813h6.534c1.519 0 2.96-.661 3.954-1.813 1.001-1.161 1.446-2.698 1.221-4.217l-.946-6.298c-.292-1.91-1.298-3.59-2.833-4.729l.895-1.204c1.854 1.376 3.069 3.404 3.421 5.709l.947 6.302c.29 1.953-.282 3.927-1.569 5.418-1.279 1.481-3.135 2.332-5.09 2.332z"/><path d="m12.868 9h-1.736c-1.738 0-3.353-.937-4.215-2.446-.624-1.092-.8-2.366-.495-3.586l.6-2.4c.1-.401.505-.644.91-.545.402.101.646.508.545.91l-.6 2.4c-.21.842-.089 1.722.342 2.477.596 1.043 1.712 1.69 2.913 1.69h1.736c1.201 0 2.317-.647 2.912-1.69.432-.755.553-1.635.342-2.478l-.6-2.4c-.101-.402.144-.809.545-.91.403-.098.81.144.91.545l.6 2.4c.305 1.221.129 2.495-.495 3.586-.861 1.51-2.476 2.447-4.214 2.447z"/><path d="m12 20c-.151 0-.303-.046-.433-.137-.416-.294-4.067-2.938-4.067-5.263 0-1.434 1.214-2.6 2.707-2.6.674 0 1.308.24 1.793.651.485-.411 1.119-.651 1.793-.651 1.492 0 2.707 1.166 2.707 2.6 0 2.325-3.651 4.969-4.067 5.263-.13.091-.282.137-.433.137zm-1.793-6.5c-.666 0-1.207.493-1.207 1.1 0 1.002 1.634 2.662 3 3.717 1.366-1.055 3-2.715 3-3.717 0-.606-.541-1.1-1.207-1.1-.488 0-.924.264-1.112.672-.244.533-1.119.533-1.363 0-.187-.408-.624-.672-1.111-.672z"/></svg>