<svg id="Regular" height="512" viewBox="0 0 24 24" width="512" xmlns="http://www.w3.org/2000/svg"><circle cx="7.5" cy="16.5" fill="#cfd8dc" r="6.75"/><circle cx="7.5" cy="16.5" fill="#607d8b" r="2"/><circle cx="21.25" cy="21.25" fill="#cfd8dc" r="2"/><path d="m7.5 24c-4.136 0-7.5-3.364-7.5-7.5s3.364-7.5 7.5-7.5 7.5 3.364 7.5 7.5-3.364 7.5-7.5 7.5zm0-13.5c-3.309 0-6 2.691-6 6s2.691 6 6 6 6-2.691 6-6-2.691-6-6-6z"/><path d="m7.5 19.25c-1.517 0-2.75-1.233-2.75-2.75s1.233-2.75 2.75-2.75 2.75 1.233 2.75 2.75-1.233 2.75-2.75 2.75zm0-4c-.689 0-1.25.561-1.25 1.25s.561 1.25 1.25 1.25 1.25-.561 1.25-1.25-.561-1.25-1.25-1.25z"/><path d="m21.25 24c-1.517 0-2.75-1.233-2.75-2.75s1.233-2.75 2.75-2.75 2.75 1.233 2.75 2.75-1.233 2.75-2.75 2.75zm0-4c-.689 0-1.25.561-1.25 1.25s.561 1.25 1.25 1.25 1.25-.561 1.25-1.25-.561-1.25-1.25-1.25z"/><path d="m7.5 15.25c-.414 0-.75-.336-.75-.75v-9.75c0-1.517 1.233-2.75 2.75-2.75h2.75c.414 0 .75.336.75.75s-.336.75-.75.75h-2.75c-.689 0-1.25.561-1.25 1.25v9.75c0 .414-.336.75-.75.75z"/><path d="m21.25 20c-.414 0-.75-.336-.75-.75v-2c0-5.701-4.299-10-10-10h-3c-.414 0-.75-.336-.75-.75s.336-.75.75-.75h3c6.449 0 11.5 5.051 11.5 11.5v2c0 .414-.336.75-.75.75z"/><path d="m21.5 6.5h-4c-.414 0-.75-.336-.75-.75s.336-.75.75-.75h4c.414 0 .75.336.75.75s-.336.75-.75.75z"/><path d="m18.25 10c-.084 0-.169-.014-.252-.043-.39-.14-.593-.569-.454-.959l1.25-3.5c.14-.391.568-.594.959-.454.39.14.593.569.454.959l-1.25 3.5c-.11.306-.399.497-.707.497z"/><path d="m7.5 24c-.414 0-.75-.336-.75-.75v-4.75c0-.414.336-.75.75-.75s.75.336.75.75v4.75c0 .414-.336.75-.75.75z"/><path d="m14.25 17.25h-4.75c-.414 0-.75-.336-.75-.75s.336-.75.75-.75h4.75c.414 0 .75.336.75.75s-.336.75-.75.75z"/><path d="m5.5 17.25h-4.75c-.414 0-.75-.336-.75-.75s.336-.75.75-.75h4.75c.414 0 .75.336.75.75s-.336.75-.75.75z"/><path d="m2.8 21.95c-.192 0-.384-.073-.53-.22-.293-.293-.293-.768 0-1.061l3.286-3.286c.293-.293.768-.293 1.061 0s.293.768 0 1.061l-3.286 3.286c-.147.146-.339.22-.531.22z"/><path d="m8.914 15.836c-.192 0-.384-.073-.53-.22-.293-.293-.293-.768 0-1.061l3.286-3.286c.293-.293.768-.293 1.061 0s.293.768 0 1.061l-3.286 3.286c-.147.147-.339.22-.531.22z"/><path d="m12.2 21.95c-.192 0-.384-.073-.53-.22l-3.286-3.286c-.293-.293-.293-.768 0-1.061s.768-.293 1.061 0l3.286 3.286c.293.293.293.768 0 1.061-.148.146-.339.22-.531.22z"/><path d="m6.086 15.836c-.192 0-.384-.073-.53-.22l-3.286-3.285c-.293-.293-.293-.768 0-1.061s.768-.293 1.061 0l3.286 3.286c.293.293.293.768 0 1.061-.147.146-.339.219-.531.219z"/></svg>