<svg enable-background="new 0 0 24 24" height="512" viewBox="0 0 24 24" width="512" xmlns="http://www.w3.org/2000/svg"><path d="m10.5 10.773h3v4.009h-3z" fill="#90a4ae"/><path d="m11 5.512c0-1.934-1.57-3.508-3.5-3.508-1.449 0-2.766.913-3.277 2.274-.001.002-.001.004-.002.006l-3.869 10.309c0 .001-.001.001-.001.001-.233.622-.351 1.275-.351 1.942 0 3.039 2.468 5.512 5.5 5.512s5.5-2.473 5.5-5.512z" fill="#607d8b"/><path d="m5.5 20.889c-2.395 0-4.344-1.953-4.344-4.353 0-.528.093-1.043.276-1.532.634-1.687 2.268-2.821 4.068-2.821 2.395 0 4.344 1.953 4.344 4.353s-1.949 4.353-4.344 4.353z" fill="#fff"/><path d="m23.648 14.596-3.869-10.312c-.001-.002-.001-.004-.002-.006l-.001-.001c-.511-1.359-1.827-2.273-3.276-2.273s-2.766.913-3.277 2.274c-.148.395-.223.811-.223 1.234v11.024c0 3.039 2.468 5.512 5.5 5.512s5.5-2.473 5.5-5.512c0-.667-.118-1.32-.352-1.94z" fill="#607d8b"/><path d="m18.5 20.993c-2.452 0-4.447-2-4.447-4.457s1.995-4.457 4.447-4.457c1.843 0 3.515 1.161 4.164 2.888v.001c.187.5.283 1.028.283 1.568 0 2.457-1.995 4.457-4.447 4.457z" fill="#fff"/><path d="m5.5 22.046c-3.032 0-5.5-2.472-5.5-5.51 0-.666.118-1.318.351-1.939.802-2.136 2.871-3.571 5.149-3.571 3.032 0 5.5 2.472 5.5 5.51s-2.468 5.51-5.5 5.51zm0-9.52c-1.656 0-3.161 1.044-3.745 2.598-.169.451-.255.927-.255 1.412 0 2.211 1.794 4.01 4 4.01s4-1.799 4-4.01-1.794-4.01-4-4.01z"/><path d="m10.25 17.286c-.414 0-.75-.336-.75-.75v-11.024c0-.414.336-.75.75-.75s.75.336.75.75v11.024c0 .414-.336.75-.75.75z"/><path d="m1.053 15.61c-.088 0-.177-.015-.264-.048-.388-.146-.584-.578-.438-.966l3.872-10.318c.146-.387.579-.584.965-.438.388.146.584.578.438.966l-3.871 10.318c-.113.301-.399.486-.702.486z"/><path d="m10.25 6.262c-.414 0-.75-.336-.75-.75 0-1.106-.897-2.006-2-2.006-.826 0-1.577.521-1.868 1.297-.027.066-.044.11-.056.154-.103.402-.515.645-.913.54-.4-.103-.643-.511-.54-.913.029-.116.072-.233.115-.334.498-1.332 1.814-2.244 3.262-2.244 1.93 0 3.5 1.573 3.5 3.506 0 .414-.336.75-.75.75z"/><path d="m13.75 6.262c-.414 0-.75-.336-.75-.75 0-1.934 1.57-3.506 3.5-3.506 1.448 0 2.764.913 3.272 2.271l.086.248c.137.391-.07.818-.462.955-.388.136-.818-.07-.954-.462l-.08-.23c-.285-.759-1.036-1.28-1.862-1.28-1.103 0-2 .9-2 2.006 0 .412-.336.748-.75.748z"/><path d="m13.75 17.286c-.414 0-.75-.336-.75-.75v-11.024c0-.414.336-.75.75-.75s.75.336.75.75v11.024c0 .414-.336.75-.75.75z"/><path d="m22.947 15.61c-.304 0-.589-.186-.702-.486l-3.872-10.318c-.146-.388.051-.82.438-.966s.819.051.966.438l3.872 10.318c.146.388-.051.82-.438.966-.087.033-.176.048-.264.048z"/><path d="m18.5 22.046c-3.032 0-5.5-2.472-5.5-5.51s2.468-5.51 5.5-5.51c2.278 0 4.348 1.435 5.149 3.571.233.621.351 1.274.351 1.939 0 3.039-2.468 5.51-5.5 5.51zm0-9.52c-2.206 0-4 1.799-4 4.01s1.794 4.01 4 4.01 4-1.799 4-4.01c0-.485-.086-.961-.255-1.413-.584-1.553-2.089-2.597-3.745-2.597z"/><path d="m13.75 16.033h-3.5c-.414 0-.75-.336-.75-.75s.336-.75.75-.75h3.5c.414 0 .75.336.75.75s-.336.75-.75.75z"/><path d="m13.75 11.523h-3.5c-.414 0-.75-.336-.75-.75s.336-.75.75-.75h3.5c.414 0 .75.336.75.75s-.336.75-.75.75z"/></svg>