<svg enable-background="new 0 0 24 24" height="512" viewBox="0 0 24 24" width="512" xmlns="http://www.w3.org/2000/svg"><g id="color"><g><circle cx="12" cy="12" fill="#ffc107" r="11"/></g></g><g id="regular"><g><g><path d="m12.13 12.75h-2.38c-.414 0-.75-.336-.75-.75v-3.25c0-.414.336-.75.75-.75h2.38c1.307 0 2.37 1.063 2.37 2.37 0 1.317-1.063 2.38-2.37 2.38zm-1.63-1.5h1.63c.48 0 .87-.39.87-.87 0-.49-.39-.88-.87-.88h-1.63z"/></g><g><path d="m12.63 16h-2.88c-.414 0-.75-.336-.75-.75v-3.25c0-.414.336-.75.75-.75h2.88c1.307 0 2.37 1.063 2.37 2.37 0 1.317-1.063 2.38-2.37 2.38zm-2.13-1.5h2.13c.48 0 .87-.391.87-.87 0-.489-.39-.88-.87-.88h-2.13z"/></g><g><path d="m10.75 9.5c-.414 0-.75-.336-.75-.75v-1c0-.414.336-.75.75-.75s.75.336.75.75v1c0 .414-.336.75-.75.75z"/></g><g><path d="m12.75 9.5c-.414 0-.75-.336-.75-.75v-1c0-.414.336-.75.75-.75s.75.336.75.75v1c0 .414-.336.75-.75.75z"/></g><g><path d="m12.75 17c-.414 0-.75-.336-.75-.75v-1c0-.414.336-.75.75-.75s.75.336.75.75v1c0 .414-.336.75-.75.75z"/></g><g><path d="m10.75 17c-.414 0-.75-.336-.75-.75v-1c0-.414.336-.75.75-.75s.75.336.75.75v1c0 .414-.336.75-.75.75z"/></g></g><g><path d="m12 23c-6.065 0-11-4.935-11-11s4.935-11 11-11 11 4.935 11 11-4.935 11-11 11zm0-20.5c-5.238 0-9.5 4.262-9.5 9.5s4.262 9.5 9.5 9.5 9.5-4.262 9.5-9.5-4.262-9.5-9.5-9.5z"/></g></g></svg>