<svg enable-background="new 0 0 24 24" height="512" viewBox="0 0 24 24" width="512" xmlns="http://www.w3.org/2000/svg"><g id="color"><g><g><circle cx="9.432" cy="9.578" fill="#ffc107" r="7.828"/></g></g></g><g id="regular"><g><g><path d="m.75 24c-.25 0-.493-.125-.636-.351-.22-.351-.114-.814.236-1.034l10.75-6.75c.297-.186.682-.142.929.105l3.47 3.47 7.22-7.22c.293-.293.768-.293 1.061 0s.293.768 0 1.061l-7.75 7.75c-.293.293-.768.293-1.061 0l-3.577-3.577-10.243 6.431c-.124.078-.262.115-.399.115z"/></g></g><g><g><path d="m23.25 17.5c-.414 0-.75-.336-.75-.75v-3.25h-3.25c-.414 0-.75-.336-.75-.75s.336-.75.75-.75h4c.414 0 .75.336.75.75v4c0 .414-.336.75-.75.75z"/></g></g><g><g><path d="m6.549 17.42c-.095 0-.191-.018-.285-.057-3.198-1.315-5.264-4.402-5.264-7.863 0-4.687 3.813-8.5 8.5-8.5s8.5 3.813 8.5 8.5c0 2.611-1.171 5.037-3.214 6.657-.325.258-.797.203-1.054-.121-.258-.325-.203-.796.121-1.054 1.683-1.334 2.647-3.332 2.647-5.482 0-3.86-3.14-7-7-7s-7 3.14-7 7c0 2.851 1.702 5.393 4.335 6.477.383.157.566.596.408.979-.119.289-.399.464-.694.464z"/></g></g><g><g><path d="m10.88 10.25h-3.13c-.414 0-.75-.336-.75-.75v-2.75c0-.414.336-.75.75-.75h3.13c1.169 0 2.12.951 2.12 2.12 0 1.179-.951 2.13-2.12 2.13zm-2.38-1.5h2.38c.342 0 .62-.278.62-.62 0-.352-.278-.63-.62-.63h-2.38z"/></g></g><g><g><path d="m11.38 13h-3.63c-.414 0-.75-.336-.75-.75v-2.75c0-.414.336-.75.75-.75h3.63c1.169 0 2.12.951 2.12 2.12 0 1.179-.951 2.13-2.12 2.13zm-2.88-1.5h2.88c.342 0 .62-.278.62-.62 0-.352-.278-.63-.62-.63h-2.88z"/></g></g><g><g><path d="m8.75 7.5c-.414 0-.75-.336-.75-.75v-1.5c0-.414.336-.75.75-.75s.75.336.75.75v1.5c0 .414-.336.75-.75.75z"/></g></g><g><g><path d="m10.75 7.5c-.414 0-.75-.336-.75-.75v-1.5c0-.414.336-.75.75-.75s.75.336.75.75v1.5c0 .414-.336.75-.75.75z"/></g></g><g><g><path d="m10.75 14.5c-.414 0-.75-.336-.75-.75v-1.5c0-.414.336-.75.75-.75s.75.336.75.75v1.5c0 .414-.336.75-.75.75z"/></g></g><g><g><path d="m8.75 14.5c-.414 0-.75-.336-.75-.75v-1.5c0-.414.336-.75.75-.75s.75.336.75.75v1.5c0 .414-.336.75-.75.75z"/></g></g></g></svg>