<svg enable-background="new 0 0 24 24" height="512" viewBox="0 0 24 24" width="512" xmlns="http://www.w3.org/2000/svg"><g id="Color"><g><g><path d="m8.88 17.364-2.273-2.287c-.229-.229-.634-.229-.862 0l-4.207 4.232c-.781.786-.781 2.065 0 2.852l.291.292c.38.382.885.592 1.423.592.537 0 1.043-.21 1.422-.592l4.206-4.233c.235-.236.235-.619 0-.856z" fill="#607d8b"/></g></g><g><g><path d="m19.871 2.06c-.04-.25-.218-.457-.46-.534-.239-.076-.505-.014-.686.167l-12.495 12.572 4.425 4.455c.435.435 1.007.653 1.579.653s1.145-.218 1.582-.655l7.286-7.328c.152-.153.221-.37.187-.584z" fill="#eceff1"/></g></g><g><g><path d="m21.705 2.368-.851-.858c-.114-.115-.268-.18-.43-.18-.001 0-.001 0-.001 0-.162 0-.316.064-.43.178l-.405.405c-.07.07-.121.155-.15.248l-.994 3.189c-.108.395-.026.808.223 1.134.25.328.631.516 1.043.516.054 0 .097.044.097.097v3.775c0 .991.807 1.798 1.798 1.798.996 0 1.807-.807 1.807-1.798v-4.298c.017-1.593-.589-3.088-1.707-4.206z" fill="#ef5350"/></g></g><g><g><path d="m21.75 15.946c-.974 0-1.476 1.495-1.476 2.132 0 .814.663 1.476 1.476 1.476s1.476-.663 1.476-1.476c0-.637-.502-2.132-1.476-2.132z" fill="#ef5350"/></g></g></g><g id="_x31_.5"><g><g><g><path d="m2.841 24c-.664 0-1.288-.26-1.757-.731l-.359-.36c-.964-.972-.964-2.55 0-3.521l5.193-5.225c.281-.283.781-.283 1.064 0l2.807 2.823c.29.292.29.765 0 1.057l-5.192 5.226c-.469.471-1.093.731-1.756.731zm3.609-8.245-4.661 4.689c-.385.388-.385 1.019 0 1.406l.359.36c.368.373 1.014.372 1.384.001l4.667-4.697z"/></g></g><g><g><path d="m12.065 20.37c-.662 0-1.285-.259-1.756-.729l-4.39-4.421c-.291-.292-.292-.766-.001-1.058l13.861-13.942c.142-.141.311-.243.533-.22.199 0 .391.081.53.222l1.051 1.06c1.38 1.381 2.129 3.228 2.107 5.197-.005.411-.34.741-.75.741-.003 0-.006 0-.009 0-.414-.005-.746-.344-.741-.759.019-1.562-.575-3.026-1.67-4.121l-.522-.527-12.799 12.876 3.865 3.894c.386.388.996.387 1.386-.003l7.008-7.049c.292-.294.769-.294 1.061-.003.294.292.296.767.004 1.061l-7.01 7.05c-.473.472-1.096.731-1.758.731z"/></g></g></g><g><g><path d="m21.77 14c-1.224 0-2.22-.996-2.22-2.22v-4.66c0-.066-.054-.12-.12-.12-.509 0-.979-.232-1.288-.637-.308-.402-.408-.913-.275-1.4l1.229-3.937c.124-.396.544-.619.939-.492.396.124.616.544.492.939l-1.221 3.91c.044.091.074.117.124.117.894 0 1.62.727 1.62 1.62v4.61c0 .447.323.77.72.77.402 0 .73-.323.73-.72v-5.31c0-.414.336-.75.75-.75s.75.336.75.75v5.31c0 1.224-1.001 2.22-2.23 2.22z"/></g></g><g><g><path d="m21.75 20.5c-1.24 0-2.25-1.01-2.25-2.25 0-.972.766-3.25 2.25-3.25s2.25 2.278 2.25 3.25c0 1.24-1.01 2.25-2.25 2.25zm-.03-4.004c-.223.101-.72 1.132-.72 1.754 0 .413.337.75.75.75s.75-.337.75-.75c0-.622-.497-1.653-.78-1.754z"/></g></g></g></svg>