<svg id="_x31__x2C_5" height="512" viewBox="0 0 24 24" width="512" xmlns="http://www.w3.org/2000/svg"><path d="m6.75 19.25c-.552 0-1-.448-1-1v-1.75h4.5v1.75c0 .552-.448 1-1 1z" fill="#eceff1"/><path d="m4.75 16.25c-1.103 0-2-.897-2-2v-8.5c0-1.103.897-2 2-2h6.5c1.103 0 2 .897 2 2v8.5c0 1.103-.897 2-2 2z" fill="#f44336"/><path d="m11.25 17h-6.5c-1.517 0-2.75-1.233-2.75-2.75v-8.5c0-1.517 1.233-2.75 2.75-2.75h6.5c1.517 0 2.75 1.233 2.75 2.75v8.5c0 1.517-1.233 2.75-2.75 2.75zm-6.5-12.5c-.689 0-1.25.561-1.25 1.25v8.5c0 .689.561 1.25 1.25 1.25h6.5c.689 0 1.25-.561 1.25-1.25v-8.5c0-.689-.561-1.25-1.25-1.25z"/><path d="m10.25 4.25c-.414 0-.75-.336-.75-.75v-.5c0-.827-.673-1.5-1.5-1.5s-1.5.673-1.5 1.5v.5c0 .414-.336.75-.75.75s-.75-.336-.75-.75v-.5c0-1.654 1.346-3 3-3s3 1.346 3 3v.5c0 .414-.336.75-.75.75z"/><path d="m9.25 20h-2.5c-.965 0-1.75-.785-1.75-1.75v-1.75c0-.414.336-.75.75-.75s.75.336.75.75v1.75c0 .138.112.25.25.25h2.5c.138 0 .25-.112.25-.25v-1.75c0-.414.336-.75.75-.75s.75.336.75.75v1.75c0 .965-.785 1.75-1.75 1.75z"/><path d="m13.5 24h-1.75c-2.481 0-4.5-2.019-4.5-4.5 0-.414.336-.75.75-.75s.75.336.75.75c0 1.654 1.346 3 3 3h1.75c1.654 0 3-1.346 3-3v-3.75c0-1.517 1.233-2.75 2.75-2.75h2c.414 0 .75.336.75.75s-.336.75-.75.75h-2c-.689 0-1.25.561-1.25 1.25v3.75c0 2.481-2.019 4.5-4.5 4.5z"/><path d="m13.25 9h-2.5c-.414 0-.75-.336-.75-.75s.336-.75.75-.75h2.5c.414 0 .75.336.75.75s-.336.75-.75.75z"/><path d="m13.25 13h-1.5c-.414 0-.75-.336-.75-.75s.336-.75.75-.75h1.5c.414 0 .75.336.75.75s-.336.75-.75.75z"/></svg>