<?xml version="1.0" encoding="iso-8859-1"?>
<!-- Generator: Adobe Illustrator 19.0.0, SVG Export Plug-In . SVG Version: 6.00 Build 0)  -->
<svg version="1.1" id="Capa_1" xmlns="http://www.w3.org/2000/svg" xmlns:xlink="http://www.w3.org/1999/xlink" x="0px" y="0px"
	 viewBox="0 0 512.002 512.002" style="enable-background:new 0 0 512.002 512.002;" xml:space="preserve">
<path style="fill:#607D8B;" d="M399.361,84.386l-83.2-48c-7.649-4.424-17.437-1.809-21.861,5.841
	c-0.009,0.016-0.018,0.032-0.027,0.047l-22.272,39.072c-4.337,7.575-1.803,17.229,5.696,21.696l82.56,48.96
	c2.47,1.465,5.288,2.239,8.16,2.24c1.37-0.012,2.734-0.184,4.064-0.512c4.139-1.096,7.666-3.804,9.792-7.52l23.072-40
	c4.374-7.678,1.696-17.448-5.981-21.823C399.362,84.387,399.362,84.386,399.361,84.386z"/>
<circle style="fill:#455A64;" cx="224.001" cy="288.002" r="224"/>
<path d="M224.001,512.002c-123.712,0-224-100.288-224-224s100.288-224,224-224s224,100.288,224,224
	C447.842,411.648,347.647,511.843,224.001,512.002z M224.001,96.002c-106.039,0-192,85.961-192,192s85.961,192,192,192
	s192-85.961,192-192C415.895,182.007,329.995,96.107,224.001,96.002z"/>
<path d="M368.321,154.242c-8.837,0.017-16.014-7.132-16.032-15.968c-0.006-2.819,0.734-5.59,2.144-8.032l15.104-26.112l-55.488-32
	l-14.432,25.12c-4.418,7.661-14.211,10.29-21.872,5.872c-7.661-4.418-10.29-14.211-5.872-21.872l22.4-39.04
	c4.398-7.665,14.176-10.313,21.841-5.915c0.016,0.009,0.032,0.018,0.047,0.027l83.2,48c7.66,4.405,10.299,14.186,5.894,21.846
	c-0.002,0.003-0.004,0.006-0.006,0.01l-23.072,40C379.335,151.152,374.05,154.228,368.321,154.242z"/>
<path d="M496.001,112.002c-8.837,0-16-7.163-16-16c0.106-35.24-28.375-63.894-63.615-64c-0.128,0-0.256,0-0.385,0
	c-14.513-0.045-28.091,7.158-36.192,19.2l-19.936,29.856c-4.904,7.352-14.84,9.336-22.192,4.432
	c-7.352-4.904-9.336-14.84-4.432-22.192l0,0l19.84-29.728c13.951-21.102,37.616-33.729,62.912-33.568
	c52.913-0.106,95.894,42.702,96,95.616c0,0.128,0,0.256,0,0.384C512.001,104.838,504.837,112.002,496.001,112.002z"/>
<g>
</g>
<g>
</g>
<g>
</g>
<g>
</g>
<g>
</g>
<g>
</g>
<g>
</g>
<g>
</g>
<g>
</g>
<g>
</g>
<g>
</g>
<g>
</g>
<g>
</g>
<g>
</g>
<g>
</g>
</svg>
