<?xml version="1.0" encoding="iso-8859-1"?>
<!-- Generator: Adobe Illustrator 19.0.0, SVG Export Plug-In . SVG Version: 6.00 Build 0)  -->
<svg version="1.1" id="Capa_1" xmlns="http://www.w3.org/2000/svg" xmlns:xlink="http://www.w3.org/1999/xlink" x="0px" y="0px"
	 viewBox="0 0 514.17 514.17" style="enable-background:new 0 0 514.17 514.17;" xml:space="preserve">
<g>
	<path style="fill:#CFD8DC;" d="M342.651,407.202l24.48,35.776c2.592,3.835,6.923,6.127,11.552,6.112h78.912
		c4.626,0.004,8.953-2.286,11.552-6.112l24.416-35.776c37.6-55.008,17.952-126.496-12.8-175.04
		c-27.962-44.647-36.492-98.773-23.616-149.856l4.064-31.808c1.641-12.722-2.25-25.538-10.688-35.2
		c-16.326-17.832-44.016-19.053-61.849-2.727c-0.949,0.869-1.859,1.779-2.727,2.727c-8.456,9.651-12.34,22.48-10.656,35.2
		l4.352,33.6c12.436,50.54,3.821,103.963-23.872,148.032C324.763,280.706,305.083,352.194,342.651,407.202z"/>
	<path style="fill:#CFD8DC;" d="M20.571,407.202l24.448,35.776c2.603,3.822,6.928,6.11,11.552,6.112h79.008
		c4.636,0.009,8.974-2.281,11.584-6.112l24.416-35.776c37.6-55.008,17.952-126.496-12.992-175.04
		c-27.937-44.657-36.454-98.776-23.584-149.856l4.032-31.808c1.684-12.72-2.2-25.549-10.656-35.2
		C112.01-2.543,84.278-3.737,66.437,12.632c-0.927,0.85-1.816,1.74-2.666,2.666c-8.426,9.667-12.306,22.482-10.656,35.2l4.48,33.6
		c12.398,50.557,3.736,103.982-24,148.032C2.651,280.706-16.997,352.194,20.571,407.202z"/>
</g>
<path style="fill:#D32F2F;" d="M60.027,97.09c3.716,21.159,3.868,42.791,0.448,64h71.296c-3.37-21.21-3.251-42.828,0.352-64H60.027z
	"/>
<path style="fill:#ECEFF1;" d="M169.595,465.09l27.936,40.896c2.972,4.443,7.967,7.108,13.312,7.104h90.304
	c5.287,0.001,10.234-2.61,13.216-6.976l28.032-41.024c42.976-62.848,20.512-144.544-14.848-200.064
	c-31.936-50.985-41.711-112.783-27.072-171.136l4.608-36.352c1.918-14.538-2.525-29.198-12.192-40.224
	c-18.692-20.386-50.371-21.759-70.757-3.067c-1.066,0.977-2.089,2.001-3.067,3.067c-9.643,11.026-14.073,25.67-12.16,40.192
	l4.992,38.4c14.208,57.774,4.358,118.84-27.296,169.216C149.211,320.674,126.747,402.37,169.595,465.09z"/>
<path style="fill:#F44336;" d="M217.083,129.09c1.9,21.399,0.66,42.96-3.68,64h85.184c-4.275-21.049-5.504-42.602-3.648-64H217.083z
	"/>
<path style="fill:#D32F2F;" d="M382.139,97.09c3.716,21.159,3.868,42.791,0.448,64h71.264c-3.37-21.21-3.251-42.828,0.352-64
	H382.139z"/>
<path d="M311.291,513.09H200.699c-5.287,0.001-10.234-2.61-13.216-6.976l-33.344-48.8c-46.336-67.808-23.968-152.992,12.448-210.112
	c23.211-37.214,30.238-82.286,19.456-124.8l-4.672-35.2c-2.869-21.863,3.799-43.904,18.304-60.512
	C228.9-4.415,277.808-5.938,308.912,23.287c1.169,1.099,2.304,2.233,3.403,3.403c14.47,16.577,21.135,38.563,18.304,60.384
	l-4.224,33.536c-11.152,43.038-4.215,88.765,19.2,126.56c36.384,57.152,58.784,142.336,12.448,210.144l-33.344,48.8
	C321.679,510.537,316.646,513.155,311.291,513.09z M209.147,481.09h93.696l28.576-41.824c37.536-54.944,17.92-126.368-12.992-174.88
	c-27.914-44.607-36.42-98.672-23.552-149.696l4.032-31.776c1.684-12.72-2.2-25.549-10.656-35.2
	c-16.293-17.814-43.942-19.048-61.757-2.755c-0.959,0.877-1.878,1.796-2.755,2.755c-8.456,9.651-12.34,22.48-10.656,35.2
	l4.512,33.568c12.403,50.515,3.74,103.902-24,147.904c-30.944,48.512-50.592,119.936-13.024,174.88L209.147,481.09z"/>
<path d="M89.595,449.09h-32.96c-5.759,0.003-11.075-3.089-13.92-8.096l-24-42.24c-26.785-57.912-23.729-125.233,8.192-180.48
	c0.244-0.643,0.522-1.273,0.832-1.888c16.526-33.484,21.402-71.526,13.856-108.096l-3.424-30.4
	c-2.733-20.906,3.576-41.985,17.344-57.952C65.664,8.118,80.417,1.249,95.995,1.09c34.62,2.776,60.575,32.868,58.24,67.52
	c0.058,3.1-0.091,6.2-0.448,9.28l-3.2,28.96c-5.816,27.315-4.716,55.65,3.2,82.432c2.651,8.439-2.041,17.429-10.48,20.08
	s-17.429-2.041-20.08-10.48c-9.408-31.485-10.848-64.813-4.192-96.992l2.976-27.68c0.199-1.86,0.273-3.73,0.224-5.6
	c0-19.52-11.776-35.52-26.24-35.52c-6.47,0.198-12.537,3.185-16.64,8.192c-7.574,9.179-10.973,21.103-9.376,32.896l3.2,29.152
	c8.744,42.728,3.025,87.151-16.256,126.272c-0.235,0.693-0.524,1.367-0.864,2.016c-27.605,45.908-31.185,102.365-9.6,151.392
	l19.488,34.08h23.648c8.837,0,16,7.163,16,16S98.431,449.09,89.595,449.09z"/>
<path d="M455.355,449.09h-32.96c-8.837,0-16-7.163-16-16s7.163-16,16-16h23.648l19.392-34.144
	c21.569-49.008,17.989-105.439-9.6-151.328c-0.366-0.693-0.686-1.409-0.96-2.144c-19.349-39.573-24.978-84.459-16-127.584
	l2.976-27.68c0.199-1.86,0.273-3.73,0.224-5.6c0.16-19.52-11.616-35.52-26.08-35.52c-6.47,0.198-12.537,3.185-16.64,8.192
	c-7.574,9.179-10.973,21.103-9.376,32.896l3.2,29.152c6.345,31.63,4.94,64.327-4.096,95.296c-2.35,8.518-11.16,13.519-19.678,11.17
	c-8.518-2.35-13.519-11.16-11.169-19.678c0.059-0.216,0.123-0.43,0.192-0.643c7.629-26.402,8.727-54.263,3.2-81.184l-3.456-30.4
	c-2.733-20.906,3.576-41.985,17.344-57.952c10.149-11.82,24.902-18.689,40.48-18.848c34.62,2.776,60.575,32.868,58.24,67.52
	c0.058,3.1-0.091,6.2-0.448,9.28l-3.2,28.96c-7.825,37.009-3.025,75.573,13.632,109.536c0.344,0.662,0.644,1.346,0.896,2.048
	c31.866,55.196,34.91,122.439,8.16,180.288l-24.032,42.272C466.404,445.991,461.102,449.081,455.355,449.09z"/>
<path d="M311.675,225.09h-111.36c-8.837,0-16-7.163-16-16s7.163-16,16-16h111.36c8.837,0,16,7.163,16,16
	S320.511,225.09,311.675,225.09z"/>
<path d="M306.235,161.09h-100.48c-8.837,0-16-7.163-16-16s7.163-16,16-16h100.48c8.837,0,16,7.163,16,16
	S315.071,161.09,306.235,161.09z"/>
<rect x="61.115" y="129.09" width="69.76" height="32"/>
<rect x="381.115" y="129.09" width="69.76" height="32"/>
<g>
</g>
<g>
</g>
<g>
</g>
<g>
</g>
<g>
</g>
<g>
</g>
<g>
</g>
<g>
</g>
<g>
</g>
<g>
</g>
<g>
</g>
<g>
</g>
<g>
</g>
<g>
</g>
<g>
</g>
</svg>
