<?xml version="1.0" encoding="iso-8859-1"?>
<!-- Generator: Adobe Illustrator 19.0.0, SVG Export Plug-In . SVG Version: 6.00 Build 0)  -->
<svg version="1.1" id="Capa_1" xmlns="http://www.w3.org/2000/svg" xmlns:xlink="http://www.w3.org/1999/xlink" x="0px" y="0px"
	 viewBox="0 0 512.668 512.668" style="enable-background:new 0 0 512.668 512.668;" xml:space="preserve">
<g>
	<path style="fill:#2196F3;" d="M94.894,240.202c-39.321,2.899-72.984,29.291-85.184,66.784
		c-19.379,44.679-9.197,96.681,25.6,130.752c17.733,17.43,41.697,27.051,66.56,26.72c71.424,0,145.344-69.152,149.44-73.024
		c5.599-5.323,6.596-13.886,2.368-20.352C244.974,357.674,166.126,240.202,94.894,240.202z"/>
	<path style="fill:#2196F3;" d="M502.958,306.954c-12.218-37.475-45.874-63.849-85.184-66.752
		c-71.232,0-150.08,117.472-158.816,130.88c-4.228,6.466-3.231,15.029,2.368,20.352c4.096,3.872,78.016,73.024,149.44,73.024
		c24.86,0.316,48.819-9.302,66.56-26.72C512.131,403.659,522.325,351.65,502.958,306.954z"/>
</g>
<path d="M101.902,464.426c-24.863,0.331-48.827-9.29-66.56-26.72c-34.797-34.071-44.979-86.073-25.6-130.752
	c12.214-37.465,45.854-63.837,85.152-66.752c71.232,0,150.08,117.44,158.848,130.848c4.238,6.48,3.227,15.065-2.4,20.384
	C247.278,395.306,173.326,464.426,101.902,464.426z M94.894,272.202c-26.169,3.049-47.992,21.422-55.456,46.688
	c-14.355,32.561-7.195,70.599,18.016,95.712c49.568,47.456,132.768-13.536,161.632-37.504
	C192.59,339.818,136.014,272.202,94.894,272.202z"/>
<path d="M410.766,464.426c-71.424,0-145.376-69.12-149.44-72.992c-5.627-5.319-6.638-13.904-2.4-20.384
	c8.768-13.408,87.616-130.848,158.848-130.848c39.31,2.903,72.966,29.277,85.184,66.752c19.379,44.679,9.197,96.681-25.6,130.752
	C459.617,455.144,435.64,464.765,410.766,464.426z M293.582,377.098c28.8,23.968,112,84.928,161.632,37.504
	c25.211-25.113,32.371-63.151,18.016-95.712c-7.464-25.266-29.287-43.639-55.456-46.688
	C376.654,272.202,320.078,339.818,293.582,377.098z"/>
<path d="M272.334,395.818h-32c-8.837,0-16-7.163-16-16s7.163-16,16-16h32c8.837,0,16,7.163,16,16S281.17,395.818,272.334,395.818z"
	/>
<path d="M80.334,274.122c-8.837,0-16-7.163-16-16v-129.92c0-26.51-21.49-48-48-48c-8.837,0-16-7.163-16-16s7.163-16,16-16
	c44.183,0,80,35.817,80,80v129.92C96.334,266.958,89.17,274.122,80.334,274.122C80.334,274.122,80.334,274.122,80.334,274.122z"/>
<path d="M432.334,274.122c-8.837,0-16-7.163-16-16v-129.92c0-44.183,35.817-80,80-80c8.837,0,16,7.163,16,16s-7.163,16-16,16
	c-26.51,0-48,21.49-48,48v129.92C448.334,266.958,441.17,274.122,432.334,274.122C432.334,274.122,432.334,274.122,432.334,274.122z
	"/>
<g>
</g>
<g>
</g>
<g>
</g>
<g>
</g>
<g>
</g>
<g>
</g>
<g>
</g>
<g>
</g>
<g>
</g>
<g>
</g>
<g>
</g>
<g>
</g>
<g>
</g>
<g>
</g>
<g>
</g>
</svg>
