<svg id="_x31__x2C_5" height="512" viewBox="0 0 24 24" width="512" xmlns="http://www.w3.org/2000/svg"><path d="m12 7.25c-.689 0-1.25-.561-1.25-1.25s.561-1.25 1.25-1.25 1.25.561 1.25 1.25-.561 1.25-1.25 1.25z" fill="#00bcd4"/><path d="m16.57 19.25h-11.328c-1.374 0-2.492-1.049-2.492-2.338 0-.669.301-1.274.783-1.7-.482-.427-.783-1.031-.783-1.7 0-1.289 1.118-2.338 2.492-2.338h11.015c.553 0 1.001.448 1 1.001l-.007 6.438c0 .351-.304.637-.68.637z" fill="#00bcd4"/><path d="m21.25 19.75h-4v-7.5c0-.552-.448-1-1-1h-11.5c-.966 0-1.75-.783-1.75-1.75 0-.966.784-1.75 1.75-1.75h13.5c1.657 0 3 1.343 3 3z" fill="#4dd0e1"/><path d="m20.448 22.083h-17.305c-1.419 0-2.572-.951-2.572-2.12v-.385c0-.319.314-.578.702-.578h21.046c.387 0 .702.259.702.578v.385c-.001 1.17-1.155 2.12-2.573 2.12z" fill="#cfd8dc"/><path d="m21.25 23h-18.5c-1.517 0-2.75-1.233-2.75-2.75v-1c0-.414.336-.75.75-.75h22.5c.414 0 .75.336.75.75v1c0 1.517-1.233 2.75-2.75 2.75zm-19.75-3v.25c0 .689.561 1.25 1.25 1.25h18.5c.689 0 1.25-.561 1.25-1.25v-.25z"/><path d="m21.5 20h-16.75c-1.517 0-2.75-1.233-2.75-2.75s1.233-2.75 2.75-2.75h7.5c.414 0 .75.336.75.75s-.336.75-.75.75h-7.5c-.689 0-1.25.561-1.25 1.25s.561 1.25 1.25 1.25h16.75c.414 0 .75.336.75.75s-.336.75-.75.75z"/><path d="m12.25 16h-7.5c-1.517 0-2.75-1.233-2.75-2.75s1.233-2.75 2.75-2.75h11.25c.414 0 .75.336.75.75s-.336.75-.75.75h-11.25c-.689 0-1.25.561-1.25 1.25s.561 1.25 1.25 1.25h7.5c.414 0 .75.336.75.75s-.336.75-.75.75z"/><path d="m21.25 19.75c-.414 0-.75-.336-.75-.75v-8.25c0-1.24-1.009-2.25-2.25-2.25h-13.75c-.551 0-1 .448-1 1s.449 1 1 1h11.75c.965 0 1.75.785 1.75 1.75v6.75c0 .414-.336.75-.75.75s-.75-.336-.75-.75v-6.75c0-.138-.112-.25-.25-.25h-11.75c-1.378 0-2.5-1.121-2.5-2.5s1.122-2.5 2.5-2.5h13.75c2.068 0 3.75 1.683 3.75 3.75v8.25c0 .414-.336.75-.75.75z"/><path d="m12 8c-1.103 0-2-.897-2-2s.897-2 2-2 2 .897 2 2-.897 2-2 2zm0-2.5c-.276 0-.5.225-.5.5s.224.5.5.5.5-.225.5-.5-.224-.5-.5-.5z"/><path d="m12 5.25c-.414 0-.75-.336-.75-.75 0-1.792 1.399-3.303 3.186-3.439l.757-.059c.416-.016.774.277.805.69.032.413-.277.773-.69.806l-.758.059c-1.01.077-1.8.931-1.8 1.943 0 .414-.336.75-.75.75z"/></svg>