<svg enable-background="new 0 0 24 24" height="512" viewBox="0 0 24 24" width="512" xmlns="http://www.w3.org/2000/svg"><g id="Color"><g><g><path d="m22.118 8.643c-.099-.264-.351-.439-.632-.439h-18.972c-.282 0-.533.175-.632.439-.453 1.21-.682 2.482-.682 3.783 0 5.955 4.845 10.8 10.8 10.8s10.8-4.845 10.8-10.8c0-1.301-.229-2.573-.682-3.783z" fill="#607d8b"/></g></g><g><g><path d="m21 5.543h-18c-.993 0-1.8.699-1.8 1.558 0 .607.406 1.159.984 1.383.237.115.519.176.816.176h18c.297 0 .579-.061.764-.153.63-.246 1.036-.798 1.036-1.405 0-.86-.807-1.559-1.8-1.559z" fill="#455a64"/></g></g><g><g><circle cx="18" cy="2.05" fill="#66bb6a" r="1.181"/></g></g><g><g><path d="m12.512 5.806c-.235-2.12-2.02-3.718-4.154-3.718s-3.92 1.599-4.154 3.718c.743 0 3.136-.01 3.136-.01v2.854c0 1.425 1.159 2.584 2.584 2.584 1.429 0 2.592-1.159 2.592-2.584v-2.738c-.001-.022-.002-.083-.004-.106z" fill="#66bb6a"/></g></g></g><g id="_x31_.5"><g><g><path d="m12 24.06c-6.617 0-12-5.383-12-12 0-1.445.255-2.858.757-4.203.145-.388.579-.584.965-.44.388.145.585.577.44.965-.439 1.176-.662 2.413-.662 3.678 0 5.79 4.71 10.5 10.5 10.5s10.5-4.71 10.5-10.5c0-1.265-.223-2.502-.663-3.677-.145-.388.052-.82.44-.965.388-.142.82.052.965.44.503 1.344.758 2.757.758 4.202 0 6.617-5.383 12-12 12z"/></g></g><g><g><path d="m20.315 24.061c-.192 0-.384-.073-.53-.22l-1.966-1.966c-.293-.293-.293-.768 0-1.061s.768-.293 1.061 0l1.966 1.966c.293.293.293.768 0 1.061-.147.146-.339.22-.531.22z"/></g></g><g><g><path d="m3.685 24.061c-.192 0-.384-.073-.53-.22-.293-.293-.293-.768 0-1.061l1.966-1.966c.293-.293.768-.293 1.061 0s.293.768 0 1.061l-1.966 1.966c-.148.146-.34.22-.531.22z"/></g></g><g><g><path d="m18 4.05c-1.103 0-2-.897-2-2s.897-2 2-2 2 .897 2 2-.897 2-2 2zm0-2.5c-.276 0-.5.224-.5.5s.224.5.5.5.5-.224.5-.5-.224-.5-.5-.5z"/></g></g><g><g><path d="m10.04 12.32c-1.759 0-3.19-1.431-3.19-3.19v-3.38c0-.414.336-.75.75-.75s.75.336.75.75v3.38c0 .932.758 1.69 1.69 1.69.938 0 1.7-.758 1.7-1.69v-3.38c0-.414.336-.775.75-.775s.75.311.75.725v3.43c0 1.759-1.435 3.19-3.2 3.19z"/></g></g><g><g><path d="m12.479 6.452c-.377 0-.702-.284-.745-.667-.205-1.856-1.769-3.255-3.637-3.255-1.869 0-3.432 1.399-3.637 3.255-.045.41-.409.702-.828.663-.412-.046-.709-.416-.663-.828.289-2.617 2.494-4.59 5.128-4.59s4.839 1.974 5.128 4.59c.045.412-.251.782-.663.828-.028.003-.056.004-.083.004z"/></g></g><g><g><path d="m7.6 9h-5.6c-.33 0-.644-.078-.907-.226-.641-.287-1.093-.995-1.093-1.774 0-1.103.897-2 2-2h5.6c.414 0 .75.336.75.75s-.336.75-.75.75h-5.6c-.276 0-.5.224-.5.5 0 .191.105.363.269.437.072.037.127.063.231.063h5.6c.414 0 .75.336.75.75s-.336.75-.75.75z"/></g></g><g><g><path d="m22 9h-9.51c-.414 0-.75-.336-.75-.75s.336-.75.75-.75h9.51c.104 0 .159-.026.173-.034.222-.103.327-.275.327-.466 0-.276-.224-.5-.5-.5h-9.51c-.414 0-.75-.336-.75-.75s.336-.75.75-.75h9.51c1.103 0 2 .897 2 2 0 .779-.452 1.487-1.151 1.803-.205.119-.519.197-.849.197z"/></g></g></g></svg>