<?xml version="1.0" encoding="iso-8859-1"?>
<!-- Generator: Adobe Illustrator 19.0.0, SVG Export Plug-In . SVG Version: 6.00 Build 0)  -->
<svg version="1.1" id="Capa_1" xmlns="http://www.w3.org/2000/svg" xmlns:xlink="http://www.w3.org/1999/xlink" x="0px" y="0px"
	 viewBox="0 0 480.032 480.032" style="enable-background:new 0 0 480.032 480.032;" xml:space="preserve">
<path style="fill:#ECEFF1;" d="M304.016,0h-192c-17.673,0-32,14.327-32,32v384c0,17.673,14.327,32,32,32h320
	c17.673,0,32-14.327,32-32V160L304.016,0z"/>
<path style="fill:#CFD8DC;" d="M320.016,16v96c0,17.673,14.327,32,32,32h96L320.016,16z"/>
<path style="fill:#F44336;" d="M148.688,352.288c-1.777-7.125-8.176-12.126-15.52-12.128H58.896
	c-7.344,0.002-13.743,5.003-15.52,12.128l-26.88,107.84c-2.137,8.574,3.082,17.257,11.656,19.394
	c3.705,0.923,7.618,0.491,11.032-1.218l56.832-28.416l56.832,28.448c7.902,3.956,17.514,0.757,21.47-7.144
	c1.709-3.414,2.141-7.327,1.218-11.032L148.688,352.288z"/>
<circle style="fill:#FFC107;" cx="96.016" cy="304" r="80"/>
<path d="M432.016,448h-192c-8.837,0-16-7.163-16-16s7.163-16,16-16h192V150.624L313.392,32H112.016v144c0,8.837-7.163,16-16,16
	s-16-7.163-16-16V32c0-17.673,14.327-32,32-32h208c4.246-0.008,8.322,1.673,11.328,4.672l128,128
	c2.999,3.006,4.68,7.082,4.672,11.328v272C464.016,433.673,449.689,448,432.016,448z"/>
<path d="M448.016,160h-112c-17.673,0-32-14.327-32-32V16c0-8.837,7.163-16,16-16s16,7.163,16,16v112h112c8.837,0,16,7.163,16,16
	S456.853,160,448.016,160z"/>
<path d="M96.016,384c-44.183,0-80-35.817-80-80s35.817-80,80-80s80,35.817,80,80S140.199,384,96.016,384z M96.016,256
	c-26.51,0-48,21.49-48,48s21.49,48,48,48s48-21.49,48-48S122.526,256,96.016,256z"/>
<path d="M160.016,480c-2.489,0-4.943-0.581-7.168-1.696l-56.832-28.416l-56.832,28.416c-7.902,3.956-17.514,0.757-21.47-7.144
	c-1.709-3.414-2.141-7.327-1.218-11.032l26.88-107.84c2.138-8.58,10.828-13.802,19.408-11.664
	c8.58,2.138,13.802,10.828,11.664,19.408l-18.496,74.112l32.928-16.448c4.503-2.25,9.801-2.25,14.304,0l32.928,16.448
	l-18.496-74.112c-2.138-8.58,3.084-17.27,11.664-19.408c8.58-2.138,17.27,3.084,19.408,11.664l26.88,107.84
	c2.138,8.574-3.079,17.258-11.652,19.396C162.64,479.843,161.331,480.002,160.016,480z"/>
<path d="M256.016,128h-96c-8.837,0-16-7.163-16-16s7.163-16,16-16h96c8.837,0,16,7.163,16,16S264.853,128,256.016,128z"/>
<path d="M384.016,224h-192c-8.837,0-16-7.163-16-16s7.163-16,16-16h192c8.837,0,16,7.163,16,16S392.853,224,384.016,224z"/>
<path d="M384.016,320h-160c-8.837,0-16-7.163-16-16s7.163-16,16-16h160c8.837,0,16,7.163,16,16S392.853,320,384.016,320z"/>
<g>
</g>
<g>
</g>
<g>
</g>
<g>
</g>
<g>
</g>
<g>
</g>
<g>
</g>
<g>
</g>
<g>
</g>
<g>
</g>
<g>
</g>
<g>
</g>
<g>
</g>
<g>
</g>
<g>
</g>
</svg>
