<?xml version="1.0" encoding="iso-8859-1"?>
<!-- Generator: Adobe Illustrator 19.0.0, SVG Export Plug-In . SVG Version: 6.00 Build 0)  -->
<svg version="1.1" id="Capa_1" xmlns="http://www.w3.org/2000/svg" xmlns:xlink="http://www.w3.org/1999/xlink" x="0px" y="0px"
	 viewBox="0 0 512.572 512.572" style="enable-background:new 0 0 512.572 512.572;" xml:space="preserve">
<path style="fill:#FFE082;" d="M496.537,176.286c0,0-11.744-144-257.056-144l-222.944,192"/>
<path style="fill:#FFC107;" d="M496.537,176.286l-480,48v238.848c-0.022,8.837,7.124,16.018,15.961,16.039
	c0.387,0.001,0.773-0.012,1.159-0.039l448-33.344c8.384-0.576,14.88,8.448,14.88,0V176.286z"/>
<circle style="fill:#FFE082;" cx="400.537" cy="288.286" r="32"/>
<path d="M400.537,336.286c-26.51,0-48-21.49-48-48s21.49-48,48-48s48,21.49,48,48S427.047,336.286,400.537,336.286z
	 M400.537,272.286c-8.837,0-16,7.163-16,16s7.163,16,16,16s16-7.163,16-16S409.373,272.286,400.537,272.286z"/>
<circle style="fill:#FFE082;" cx="224.537" cy="384.286" r="32"/>
<path d="M224.537,432.286c-26.51,0-48-21.49-48-48s21.49-48,48-48s48,21.49,48,48S251.047,432.286,224.537,432.286z
	 M224.537,368.286c-8.837,0-16,7.163-16,16s7.163,16,16,16s16-7.163,16-16S233.373,368.286,224.537,368.286z"/>
<path style="fill:#FFE082;" d="M16.537,371.806c8.709,8.05,20.14,12.509,32,12.48c26.51,0,48-21.49,48-48s-21.49-48-48-48
	c-11.86-0.029-23.291,4.43-32,12.48"/>
<path d="M48.537,400.286c-15.892,0.026-31.207-5.952-42.88-16.736c-6.486-6.009-6.873-16.138-0.864-22.624
	c6.009-6.486,16.138-6.873,22.624-0.864l0,0c5.748,5.311,13.294,8.249,21.12,8.224c17.673,0,32-14.327,32-32s-14.327-32-32-32
	c-7.826-0.025-15.372,2.913-21.12,8.224c-6.486,6.009-16.615,5.622-22.624-0.864c-6.009-6.486-5.622-16.615,0.864-22.624
	c11.673-10.784,26.988-16.762,42.88-16.736c35.346,0,64,28.654,64,64S83.883,400.286,48.537,400.286z"/>
<path d="M16.537,240.286C7.7,240.578,0.3,233.651,0.009,224.814s6.635-16.236,15.472-16.528l480-32
	c8.837-0.583,16.473,6.107,17.056,14.944c0.583,8.837-6.107,16.473-14.944,17.056l-480,32H16.537z"/>
<path d="M16.537,496.286c-8.837,0-16-7.163-16-16v-256c-0.017-4.672,2.033-9.111,5.6-12.128l224-192
	c2.885-2.505,6.579-3.881,10.4-3.872c240.8,0,271.488,171.712,271.776,173.44l0.224,258.56c0.018,8.44-6.522,15.443-14.944,16
	l-480,32H16.537z M32.537,231.646v231.52l448-29.856V192.286c-0.8-3.2-26.816-141.408-234.112-144L32.537,231.646z"/>
<g>
</g>
<g>
</g>
<g>
</g>
<g>
</g>
<g>
</g>
<g>
</g>
<g>
</g>
<g>
</g>
<g>
</g>
<g>
</g>
<g>
</g>
<g>
</g>
<g>
</g>
<g>
</g>
<g>
</g>
</svg>
