<svg enable-background="new 0 0 24 24" height="512" viewBox="0 0 24 24" width="512" xmlns="http://www.w3.org/2000/svg"><g id="Color"><g><path d="m9.653 12.352c-1.041 0-2.059.352-2.544.546-.484-.194-1.503-.546-2.544-.546-3.855 0-3.855 3.568-3.855 4.912 0 3.376 2.871 6.122 6.398 6.122s6.398-2.747 6.398-6.122c.001-1.343.001-4.912-3.853-4.912z" fill="#ef5350"/></g><g><path d="m9.596 2.042c-.02-.344-.294-.618-.638-.638-.124-.007-3.09-.148-4.896 1.658-1.805 1.806-1.665 4.772-1.658 4.896.019.344.294.618.637.637.019.001.103.006.237.006.757 0 3.126-.13 4.66-1.663 1.805-1.806 1.665-4.772 1.658-4.896z" fill="#66bb6a"/></g><g><path d="m19.435 12.352c-1.041 0-2.059.352-2.544.546-.484-.194-1.503-.546-2.544-.546-3.855 0-3.855 3.568-3.855 4.912 0 3.376 2.871 6.122 6.398 6.122s6.398-2.747 6.398-6.122c.001-1.343.001-4.912-3.853-4.912z" fill="#e57373"/></g></g><g id="_x31_.5"><g><path d="m7.108 24c-3.92 0-7.108-3.053-7.108-6.806 0-1.492 0-5.455 4.281-5.455 1.16 0 2.289.391 2.827.608.538-.218 1.668-.608 2.827-.608 1.008 0 1.814.201 2.467.616.35.222.453.686.23 1.035-.222.35-.685.452-1.035.23-.398-.253-.958-.382-1.662-.382-1.214 0-2.49.596-2.503.602-.204.097-.441.099-.647 0-.013-.006-1.28-.602-2.504-.602-1.762 0-2.781.647-2.781 3.955 0 2.926 2.516 5.306 5.608 5.306 1.679 0 3.256-.702 4.327-1.926.273-.312.747-.341 1.059-.07.312.272.343.747.07 1.059-1.355 1.549-3.344 2.438-5.456 2.438z"/></g><g><path d="m16.892 24c-3.92 0-7.109-3.052-7.109-6.803 0-1.493 0-5.458 4.283-5.458 1.156 0 2.288.391 2.826.606.538-.216 1.67-.606 2.826-.606 4.282 0 4.282 3.965 4.282 5.458 0 3.751-3.188 6.803-7.108 6.803zm-2.827-10.761c-1.763 0-2.783.647-2.783 3.958 0 2.924 2.517 5.303 5.609 5.303s5.608-2.379 5.608-5.303c0-3.311-1.021-3.958-2.782-3.958-1.22 0-2.492.595-2.505.601-.203.096-.439.096-.643 0-.011-.006-1.284-.601-2.504-.601z"/></g><g><path d="m16.892 13.729c-.414 0-.75-.336-.75-.75 0-5.295-3.006-11.479-11.479-11.479-.414 0-.75-.336-.75-.75s.336-.75.75-.75c9.579 0 12.979 6.991 12.979 12.979 0 .414-.336.75-.75.75z"/></g><g><path d="m7.108 13.729c-.414 0-.75-.336-.75-.75 0-3.309 3.72-8.576 8.127-8.576.414 0 .75.336.75.75s-.336.75-.75.75c-3.417 0-6.627 4.414-6.627 7.076 0 .414-.336.75-.75.75z"/></g><g><path d="m2.976 9.001c-.149 0-.242-.005-.263-.006-.382-.021-.687-.326-.708-.708-.008-.139-.164-3.434 1.842-5.44 2.007-2.006 5.302-1.852 5.44-1.842.382.021.687.326.708.708.008.139.164 3.434-1.842 5.44-1.704 1.703-4.337 1.848-5.177 1.848zm5.503-6.479c-.925.07-2.531.345-3.572 1.385-1.046 1.047-1.319 2.646-1.387 3.57.926-.069 2.531-.345 3.572-1.385 1.047-1.046 1.32-2.646 1.387-3.57z"/></g></g></svg>