<svg id="regular" enable-background="new 0 0 24 24" height="512" viewBox="0 0 24 24" width="512" xmlns="http://www.w3.org/2000/svg"><path d="m17.23 18.631h-10.543c-.201 0-.394-.081-.534-.224-.142-.144-.219-.337-.216-.538.048-3.083 1.017-5.915 2.881-8.438l-2.946.246c-.476.039-.949-.123-1.3-.446-.35-.322-.551-.78-.551-1.257v-.867c0-1.184.795-2.238 1.934-2.564l5.025-1.597v-2.196c0-.284.16-.543.414-.671.256-.126.56-.099.785.07l2.23 1.669c3.22 2.01 4.505 6.21 2.938 9.736-.763 1.715-.722 3.441.122 5.129l.431.861c.116.232.104.509-.033.73-.136.222-.377.357-.637.357z" fill="#eceff1"/><path d="m19.25 21.5h-14.5c-.414 0-.75-.336-.75-.75v-1.25c0-.944.748-2 1.75-2h12.5c1.002 0 1.75 1.056 1.75 2v1.25c0 .414-.336.75-.75.75z" fill="#cfd8dc"/><path d="m21.25 24h-18.5c-.414 0-.75-.336-.75-.75v-1.5c0-.965.785-1.75 1.75-1.75h16.5c.965 0 1.75.785 1.75 1.75v1.5c0 .414-.336.75-.75.75z" fill="#eceff1"/><path d="m17.231 18.631c-.275 0-.54-.152-.672-.415l-.431-.861c-1.039-2.079-1.091-4.295-.151-6.409 1.266-2.847.228-6.239-2.414-7.891l-1.083-.808v1.248c0 .327-.212.616-.522.715l-5.569 1.77c-.52.149-.867.61-.867 1.128v.867c0 .076.036.125.067.153.03.028.076.061.159.054l4.711-.393c.313-.024.594.137.731.409.138.272.098.601-.104.831l-.292.335c-2.179 2.504-3.309 5.374-3.357 8.528-.007.414-.341.774-.762.738-.414-.006-.744-.348-.738-.762.048-3.083 1.017-5.915 2.881-8.438l-2.946.247c-.478.036-.949-.123-1.3-.446-.35-.322-.551-.78-.551-1.257v-.867c0-1.184.795-2.238 1.934-2.564l5.025-1.597v-2.196c0-.284.16-.543.414-.671.256-.125.56-.099.785.07l2.23 1.669c3.22 2.01 4.505 6.21 2.938 9.736-.763 1.715-.722 3.441.122 5.129l.431.861c.186.371.035.821-.336 1.006-.106.055-.22.081-.333.081z"/><path d="m13.511 19.002c-.117 0-.236-.026-.346-.081-.146-.072-1.415-.784-1.415-3.421 0-1.475.506-2.449.994-3.39.518-.997 1.006-1.938 1.006-3.61 0-.414.336-.75.75-.75s.75.336.75.75c0 2.039-.624 3.24-1.175 4.301-.442.854-.825 1.59-.825 2.699 0 1.672.614 2.094.62 2.099.371.185.504.626.318.997-.129.259-.4.406-.677.406z"/><path d="m21.25 24h-18.5c-.414 0-.75-.336-.75-.75v-1.5c0-.965.785-1.75 1.75-1.75h16.5c.965 0 1.75.785 1.75 1.75v1.5c0 .414-.336.75-.75.75zm-17.75-1.5h17v-.75c0-.138-.112-.25-.25-.25h-16.5c-.138 0-.25.112-.25.25z"/><path d="m19.25 21.5h-14.5c-.414 0-.75-.336-.75-.75v-1.25c0-.944.748-2 1.75-2h12.5c1.002 0 1.75 1.056 1.75 2v1.25c0 .414-.336.75-.75.75zm-13.75-1.5h13v-.5c0-.203-.174-.469-.271-.502l-12.479.002c-.076.031-.25.297-.25.5z"/></svg>