<svg enable-background="new 0 0 24 24" height="512" viewBox="0 0 24 24" width="512" xmlns="http://www.w3.org/2000/svg"><g id="Color"><g><path d="m18.622 5.22c-1.593-1.787-3.835-2.693-6.664-2.693-9.527 0-10.048 7.072-10.052 7.143-.019.33.203.625.524.698l2.05-.108c.232.053.468-.019.632-.187.334-.343.751-.501 1.254-.515.356.22.55 3.424-.021 5.715l-.009.045c-.069.359.163.686.521.765.353.075.716-.163.805-.518.009-.035.019-.079.029-.119h12.146c.001.316.211.6.533.663.043.008.086.012.129.012.316 0 .599-.224.662-.546.004-.017.015-.08.017-.097.029-.248.667-6.641-2.556-10.258z" fill="#ef5350"/></g><g><path d="m20.3 15.35h-12.6c-1.489 0-2.7 1.211-2.7 2.7s1.211 2.7 2.7 2.7h12.6c1.489 0 2.7-1.211 2.7-2.7s-1.211-2.7-2.7-2.7z" fill="#e3f2fd"/></g><g><circle cx="2.5" cy="11.55" fill="#e3f2fd" r="2.25"/></g></g><g id="_x31_.5"><g><path d="m21 21.05h-14c-1.654 0-3-1.346-3-3s1.346-3 3-3h14c1.654 0 3 1.346 3 3s-1.346 3-3 3zm-14-4.5c-.827 0-1.5.673-1.5 1.5s.673 1.5 1.5 1.5h14c.827 0 1.5-.673 1.5-1.5s-.673-1.5-1.5-1.5z"/></g><g><path d="m2.5 14.05c-1.379 0-2.5-1.122-2.5-2.5s1.121-2.5 2.5-2.5 2.5 1.121 2.5 2.5-1.121 2.5-2.5 2.5zm0-3.5c-.552 0-1 .449-1 1s.448 1 1 1 1-.449 1-1-.448-1-1-1z"/></g><g><path d="m21.491 16.35c-.048 0-.096-.004-.144-.014-.407-.079-.673-.473-.594-.879.008-.054.661-6.16-2.474-9.671-1.471-1.65-3.585-2.486-6.279-2.486-9.131 0-9.653 6.26-9.671 6.527-.028.412-.391.721-.796.7-.412-.026-.726-.378-.702-.791.005-.079.584-7.936 11.169-7.936 3.144 0 5.635 1.007 7.404 2.992 3.582 4.019 2.873 10.567 2.841 10.844-.002.019-.015.088-.019.107-.069.359-.383.607-.735.607z"/></g><g><path d="m6.485 16.324c-.051 0-.102-.005-.152-.017-.397-.088-.656-.451-.579-.85.645-2.597.671-4.911.275-5.155-.591-.005-1.021.191-1.394.572-.288.297-.763.303-1.061.013-.296-.29-.302-.764-.012-1.061.657-.671 1.5-1.026 2.438-1.026.493 0 .932.215 1.236.605 1.105 1.416.272 5.201-.009 6.327-.085.343-.4.592-.742.592z"/></g></g></svg>