<svg id="_x31__x2C_5" enable-background="new 0 0 24 24" height="512" viewBox="0 0 24 24" width="512" xmlns="http://www.w3.org/2000/svg"><path d="m5.152 16.25c-2.436 0-4.402-1.943-4.402-4.35s1.966-4.35 4.402-4.35h.078c.47-3.287 3.317-5.8 6.77-5.8 2.739 0 5.106 1.585 6.192 3.886 2.827.155 5.058 2.465 5.058 5.297 0 2.939-2.407 5.317-5.38 5.317z" fill="#2196f3"/><path d="m9.5 18c-.192 0-.384-.073-.53-.22l-1.75-1.75c-.293-.293-.293-.768 0-1.061l1.75-1.75c.293-.293.768-.293 1.061 0s.293.768 0 1.061l-1.22 1.22 1.22 1.22c.293.293.293.768 0 1.061-.147.146-.339.219-.531.219z"/><path d="m16.25 16.25h-8.25c-.414 0-.75-.336-.75-.75s.336-.75.75-.75h8.25c.414 0 .75.336.75.75s-.336.75-.75.75z"/><path d="m14.5 23c-.192 0-.384-.073-.53-.22-.293-.293-.293-.768 0-1.061l1.22-1.22-1.22-1.22c-.293-.293-.293-.768 0-1.061s.768-.293 1.061 0l1.75 1.75c.293.293.293.768 0 1.061l-1.75 1.75c-.147.148-.339.221-.531.221z"/><path d="m16 21.25h-8.25c-.414 0-.75-.336-.75-.75s.336-.75.75-.75h8.25c.414 0 .75.336.75.75s-.336.75-.75.75z"/><path d="m4.581 16.96c-.031 0-.063-.002-.094-.006-2.558-.32-4.487-2.493-4.487-5.054 0-2.629 2.02-4.8 4.603-5.071.777-3.364 3.852-5.829 7.397-5.829 2.792 0 5.363 1.529 6.671 3.93 3.022.377 5.329 2.933 5.329 6 0 2.69-1.742 5.021-4.334 5.798-.399.12-.815-.106-.935-.503-.118-.396.106-.815.503-.934 1.953-.586 3.266-2.338 3.266-4.361 0-2.417-1.91-4.412-4.35-4.541-.275-.015-.521-.18-.639-.43-.986-2.101-3.15-3.459-5.511-3.459-3.017 0-5.607 2.216-6.027 5.156-.053.369-.369.644-.743.644-2.093 0-3.73 1.615-3.73 3.6 0 1.807 1.364 3.34 3.173 3.566.411.051.703.426.651.837-.047.38-.37.657-.743.657z"/></svg>