<?xml version="1.0" encoding="iso-8859-1"?>
<!-- Generator: Adobe Illustrator 19.0.0, SVG Export Plug-In . SVG Version: 6.00 Build 0)  -->
<svg version="1.1" id="Capa_1" xmlns="http://www.w3.org/2000/svg" xmlns:xlink="http://www.w3.org/1999/xlink" x="0px" y="0px"
	 viewBox="0 0 512 512" style="enable-background:new 0 0 512 512;" xml:space="preserve">
<circle style="fill:#8BC34A;" cx="112" cy="96" r="96"/>
<path style="fill:#ECEFF1;" d="M304,352c-105.995-0.106-191.894-86.005-192-192v-48c0-8.837,7.163-16,16-16h352
	c8.837,0,16,7.163,16,16v48C495.894,265.995,409.995,351.894,304,352z"/>
<path style="fill:#2196F3;" d="M304,320c88.322-0.106,159.894-71.678,160-160H144C144.106,248.322,215.678,319.894,304,320z"/>
<path d="M304,512c-8.837,0-16-7.163-16-16V336c0-8.837,7.163-16,16-16s16,7.163,16,16v160C320,504.837,312.837,512,304,512z"/>
<path d="M384,512H224c-8.837,0-16-7.163-16-16s7.163-16,16-16h160c8.837,0,16,7.163,16,16S392.837,512,384,512z"/>
<path d="M304,128c-1.72,0.002-3.428-0.279-5.056-0.832c-8.373-2.798-12.897-11.847-10.112-20.224l32-96
	C323.007,4.413,329.116,0.005,336,0h96c8.837,0,16,7.163,16,16s-7.163,16-16,16h-84.48l-28.352,85.056
	C316.993,123.587,310.884,127.995,304,128z"/>
<path d="M112,192c-53.019,0-96-42.981-96-96S58.981,0,112,0s96,42.981,96,96c-0.044,6.347-0.665,12.677-1.856,18.912
	c-1.608,8.695-9.961,14.44-18.656,12.832s-14.44-9.961-12.832-18.656c0.856-4.311,1.306-8.693,1.344-13.088
	c0-35.346-28.654-64-64-64S48,60.654,48,96s28.654,64,64,64c4.309,0.029,8.605-0.455,12.8-1.44
	c8.621-1.94,17.182,3.476,19.122,12.097c1.877,8.34-3.134,16.682-11.378,18.943C125.817,191.223,118.92,192.029,112,192z"/>
<path d="M304,352c-105.995-0.106-191.894-86.005-192-192v-48c0-8.837,7.163-16,16-16h352c8.837,0,16,7.163,16,16v48
	C495.894,265.995,409.995,351.894,304,352z M144,128v32c0,88.366,71.634,160,160,160s160-71.634,160-160v-32H144z"/>
<path d="M479.04,192H128.96c-8.837,0-16-7.163-16-16s7.163-16,16-16h350.08c8.837,0,16,7.163,16,16S487.877,192,479.04,192z"/>
<g>
</g>
<g>
</g>
<g>
</g>
<g>
</g>
<g>
</g>
<g>
</g>
<g>
</g>
<g>
</g>
<g>
</g>
<g>
</g>
<g>
</g>
<g>
</g>
<g>
</g>
<g>
</g>
<g>
</g>
</svg>
