<svg id="_x31__x2C_5" height="512" viewBox="0 0 24 24" width="512" xmlns="http://www.w3.org/2000/svg"><path d="m16.332 23.25h-8.664c-1.053 0-1.926-.817-1.996-1.867l-.92-13.836h14.496l-.92 13.835c-.07 1.051-.943 1.868-1.996 1.868z" fill="#cfd8dc"/><path d="m18.418 4.867h-13.154c-.212 0-.411-.085-.54-.23-.128-.145-.173-.334-.118-.51l.548-1.776c.291-.943 1.283-1.601 2.411-1.601h8.553c1.128 0 2.119.658 2.41 1.601l.548 1.776c.055.177.011.365-.118.51s-.328.23-.54.23z" fill="#cfd8dc"/><path d="m12.656 18.25c-.925 0-1.924-.408-2.711-1.195-1.389-1.389-1.598-3.441-.464-4.575s3.186-.924 4.575.464c1.389 1.389 1.598 3.441.464 4.575-.492.492-1.157.731-1.864.731z" fill="#00bcd4"/><path d="m20.25 7.25h-16.5c-.552 0-1-.448-1-1v-.5c0-.552.448-1 1-1h16.5c.552 0 1 .448 1 1v.5c0 .552-.448 1-1 1z" fill="#90a4ae"/><path d="m16.373 24h-8.746c-1.446 0-2.652-1.131-2.744-2.575l-.881-13.878c-.026-.413.287-.77.7-.796.411-.023.771.287.796.701l.881 13.878c.042.656.591 1.17 1.248 1.17h8.746c.657 0 1.206-.514 1.248-1.171l.881-13.876c.025-.415.38-.735.796-.701.413.026.727.383.7.796l-.881 13.877c-.092 1.444-1.298 2.575-2.744 2.575z"/><path d="m20.25 8h-16.5c-.965 0-1.75-.785-1.75-1.75v-.5c0-.965.785-1.75 1.75-1.75h16.5c.965 0 1.75.785 1.75 1.75v.5c0 .965-.785 1.75-1.75 1.75zm-16.5-2.5c-.138 0-.25.112-.25.25v.5c0 .138.112.25.25.25h16.5c.138 0 .25-.112.25-.25v-.5c0-.138-.112-.25-.25-.25z"/><path d="m19.25 5.25c-.332 0-.635-.221-.725-.557l-.604-2.265c-.146-.546-.642-.928-1.207-.928h-9.428c-.565 0-1.062.382-1.207.928l-.604 2.265c-.106.4-.516.638-.918.531-.4-.107-.638-.518-.531-.918l.604-2.264c.32-1.203 1.413-2.042 2.656-2.042h9.428c1.243 0 2.336.839 2.656 2.042l.604 2.265c.106.4-.131.811-.531.918-.064.017-.13.025-.193.025z"/><path d="m12.806 18.993c-1.137 0-2.364-.501-3.331-1.468-1.707-1.707-1.963-4.228-.57-5.621 1.393-1.394 3.915-1.136 5.621.57 1.707 1.707 1.963 4.228.57 5.621-.604.604-1.421.898-2.29.898zm-1.614-6.488c-.481 0-.916.149-1.228.46-.794.794-.533 2.396.57 3.5 1.104 1.103 2.705 1.363 3.5.57.794-.794.533-2.396-.57-3.5-.67-.671-1.526-1.03-2.272-1.03z"/><path d="m15.15 17.73h-1.5c-.01-.045-.02-.172-.029-.298-.038-.496-.063-.824-.461-1.222-.398-.396-.727-.422-1.222-.463-.609-.05-1.367-.113-2.157-.895-.778-.79-.847-1.541-.901-2.144-.01-.105-.019-.211-.033-.317l1.486-.202c.018.128.029.256.041.384.045.493.074.819.47 1.22.395.392.723.419 1.218.459.609.05 1.367.113 2.157.895.793.793.854 1.589.897 2.17.009.104.016.208.028.313z"/></svg>