<?xml version="1.0" encoding="iso-8859-1"?>
<!-- Generator: Adobe Illustrator 19.0.0, SVG Export Plug-In . SVG Version: 6.00 Build 0)  -->
<svg version="1.1" id="Capa_1" xmlns="http://www.w3.org/2000/svg" xmlns:xlink="http://www.w3.org/1999/xlink" x="0px" y="0px"
	 viewBox="0 0 512.142 512.142" style="enable-background:new 0 0 512.142 512.142;" xml:space="preserve">
<circle style="fill:#FFD54F;" cx="336.027" cy="176.142" r="176"/>
<circle style="fill:#FFE082;" cx="176.027" cy="336.142" r="176"/>
<g>
	<circle style="fill:#8D6E63;" cx="320.027" cy="112.142" r="32"/>
	<circle style="fill:#8D6E63;" cx="208.027" cy="400.142" r="32"/>
	<circle style="fill:#8D6E63;" cx="112.027" cy="304.142" r="32"/>
</g>
<path d="M176.027,512.142c-97.202,0-176-78.798-176-176s78.798-176,176-176s176,78.798,176,176
	C351.921,433.3,273.185,512.036,176.027,512.142z M176.027,192.142c-79.529,0-144,64.471-144,144s64.471,144,144,144
	s144-64.471,144-144C319.939,256.65,255.52,192.23,176.027,192.142z"/>
<path d="M399.387,339.342c-8.837-0.01-15.992-7.182-15.981-16.019c0.007-6.348,3.767-12.091,9.581-14.637
	c73.13-31.523,106.86-116.361,75.337-189.491S351.964,12.335,278.833,43.857c-33.794,14.567-60.74,41.503-75.318,75.293
	c-3.535,8.112-12.976,11.823-21.088,8.288c-8.112-3.535-11.823-12.976-8.288-21.088c38.597-89.326,142.3-130.449,231.626-91.852
	s130.449,142.3,91.852,231.626c-17.798,41.191-50.642,74.038-91.83,91.842C403.771,338.861,401.593,339.329,399.387,339.342z"/>
<path d="M208.027,448.142c-26.51,0-48-21.49-48-48s21.49-48,48-48s48,21.49,48,48S234.537,448.142,208.027,448.142z
	 M208.027,384.142c-8.837,0-16,7.163-16,16s7.163,16,16,16s16-7.163,16-16S216.864,384.142,208.027,384.142z"/>
<path d="M112.027,352.142c-26.51,0-48-21.49-48-48s21.49-48,48-48s48,21.49,48,48S138.537,352.142,112.027,352.142z
	 M112.027,288.142c-8.837,0-16,7.163-16,16s7.163,16,16,16s16-7.163,16-16S120.864,288.142,112.027,288.142z"/>
<path d="M208.667,288.142c-8.837,0-16-7.163-16-16s7.163-16,16-16h0.32c8.837,0,16,7.163,16,16s-7.163,16-16,16H208.667z"/>
<path d="M272.667,352.142c-8.837,0-16-7.163-16-16c-0.002-8.713,6.969-15.826,15.68-16h0.32c8.837,0,16,7.163,16,16
	S281.504,352.142,272.667,352.142z"/>
<path d="M336.027,160.142c-26.51,0-48-21.49-48-48s21.49-48,48-48s48,21.49,48,48S362.537,160.142,336.027,160.142z M336.027,96.142
	c-8.837,0-16,7.163-16,16s7.163,16,16,16s16-7.163,16-16S344.864,96.142,336.027,96.142z"/>
<path d="M400.667,224.142c-8.837,0-16-7.163-16-16c-0.002-8.713,6.969-15.826,15.68-16h0.32c8.837,0,16,7.163,16,16
	S409.504,224.142,400.667,224.142z"/>
<g>
</g>
<g>
</g>
<g>
</g>
<g>
</g>
<g>
</g>
<g>
</g>
<g>
</g>
<g>
</g>
<g>
</g>
<g>
</g>
<g>
</g>
<g>
</g>
<g>
</g>
<g>
</g>
<g>
</g>
</svg>
