<svg id="_x31__x2C_5" enable-background="new 0 0 24 24" height="512" viewBox="0 0 24 24" width="512" xmlns="http://www.w3.org/2000/svg"><path d="m21.75 19.898c-.171 0-.326-.096-.403-.249l-1.16-2.32c-.156-.311-.237-.659-.237-1.006v-8.125c0-.993.808-1.8 1.8-1.8s1.8.807 1.8 1.8v8.125c0 .347-.082.695-.237 1.006l-1.16 2.32c-.077.152-.232.249-.403.249zm1.16-2.77h.009z" fill="#ffc107"/><path d="m14.625 22.95h-11.25c-1.365 0-2.475-1.11-2.475-2.475v-13.95c0-1.365 1.11-2.475 2.475-2.475h11.25c1.365 0 2.475 1.11 2.475 2.475v13.95c0 1.365-1.11 2.475-2.475 2.475z" fill="#2196f3"/><path d="m11.632 5.68h-5.265c-.782 0-1.418-.636-1.418-1.417v-1.215c0-.335.272-.608.608-.608h1.299c.266-.934 1.126-1.62 2.144-1.62s1.878.686 2.144 1.62h1.299c.335 0 .608.272.608.608v1.215c-.001.781-.637 1.417-1.419 1.417z" fill="#1976d2"/><path d="m21.75 21c-.284 0-.544-.161-.671-.415l-1.289-2.578c-.189-.38-.29-.806-.29-1.23v-8.527c0-1.241 1.01-2.25 2.25-2.25s2.25 1.009 2.25 2.25v8.528c0 .424-.101.85-.29 1.229l-1.289 2.578c-.127.254-.387.415-.671.415zm0-13.5c-.413 0-.75.336-.75.75v8.528c0 .193.046.387.132.56l.618 1.236.618-1.236c.086-.173.132-.367.132-.56v-8.528c0-.414-.337-.75-.75-.75zm1.289 10.172h.01z"/><path d="m14.25 10.5h-10.5c-.414 0-.75-.336-.75-.75s.336-.75.75-.75h10.5c.414 0 .75.336.75.75s-.336.75-.75.75z"/><path d="m14.25 13.5h-10.5c-.414 0-.75-.336-.75-.75s.336-.75.75-.75h10.5c.414 0 .75.336.75.75s-.336.75-.75.75z"/><path d="m14.25 16.5h-10.5c-.414 0-.75-.336-.75-.75s.336-.75.75-.75h10.5c.414 0 .75.336.75.75s-.336.75-.75.75z"/><path d="m14.25 19.5h-10.5c-.414 0-.75-.336-.75-.75s.336-.75.75-.75h10.5c.414 0 .75.336.75.75s-.336.75-.75.75z"/><path d="m15.25 24h-12.5c-1.517 0-2.75-1.233-2.75-2.75v-15.5c0-1.517 1.233-2.75 2.75-2.75h1.883c.414 0 .75.336.75.75s-.336.75-.75.75h-1.883c-.689 0-1.25.561-1.25 1.25v15.5c0 .689.561 1.25 1.25 1.25h12.5c.689 0 1.25-.561 1.25-1.25v-15.5c0-.689-.561-1.25-1.25-1.25h-1.883c-.414 0-.75-.336-.75-.75s.336-.75.75-.75h1.883c1.517 0 2.75 1.233 2.75 2.75v15.5c0 1.517-1.233 2.75-2.75 2.75z"/><path d="m12.25 6.5h-6.5c-.965 0-1.75-.785-1.75-1.75v-2c0-.414.336-.75.75-.75h1.604c.328-1.153 1.389-2 2.646-2s2.318.847 2.646 2h1.604c.414 0 .75.336.75.75v2c0 .965-.785 1.75-1.75 1.75zm-6.75-3v1.25c0 .138.112.25.25.25h6.5c.138 0 .25-.112.25-.25v-1.25h-1.5c-.414 0-.75-.336-.75-.75 0-.689-.561-1.25-1.25-1.25s-1.25.561-1.25 1.25c0 .414-.336.75-.75.75z"/></svg>