<?xml version="1.0" encoding="iso-8859-1"?>
<!-- Generator: Adobe Illustrator 19.0.0, SVG Export Plug-In . SVG Version: 6.00 Build 0)  -->
<svg version="1.1" id="Capa_1" xmlns="http://www.w3.org/2000/svg" xmlns:xlink="http://www.w3.org/1999/xlink" x="0px" y="0px"
	 viewBox="0 0 512 512" style="enable-background:new 0 0 512 512;" xml:space="preserve">
<path style="fill:#1E88E5;" d="M447.2,138.95l-32-96c-2.704-8.136-11.341-12.694-19.584-10.336l-336,96
	c-8.501,2.413-13.436,11.26-11.023,19.761c1.955,6.888,8.248,11.638,15.407,11.631h368c8.837,0.011,16.009-7.144,16.02-15.98
	C448.022,142.301,447.745,140.587,447.2,138.95z"/>
<path style="fill:#2196F3;" d="M480,128.006H32c-17.673,0-32,14.327-32,32v288c0,17.673,14.327,32,32,32h448
	c17.673,0,32-14.327,32-32v-288C512,142.333,497.673,128.006,480,128.006z"/>
<rect y="192.006" style="fill:#455A64;" width="512" height="96"/>
<rect x="64" y="336.006" style="fill:#FAFAFA;" width="384" height="64"/>
<path d="M480,480.006H32c-17.673,0-32-14.327-32-32v-288c0-17.673,14.327-32,32-32h448c17.673,0,32,14.327,32,32v288
	C512,465.679,497.673,480.006,480,480.006z M32,160.006v288h448v-288H32z"/>
<rect x="16" y="192.006" width="480" height="32"/>
<rect x="16" y="256.006" width="480" height="32"/>
<path d="M432,160.006c-6.896,0.009-13.021-4.402-15.2-10.944L389.632,67.59L68.416,159.398c-8.501,2.43-17.362-2.491-19.792-10.992
	c-2.43-8.501,2.491-17.362,10.992-19.792l0,0l336-96c8.243-2.358,16.88,2.2,19.584,10.336l32,96
	c2.792,8.384-1.74,17.444-10.124,20.236C435.439,159.732,433.725,160.008,432,160.006z"/>
<path d="M432,416.006H80c-8.837,0-16-7.163-16-16v-64c0-8.837,7.163-16,16-16h352c8.837,0,16,7.163,16,16v64
	C448,408.843,440.837,416.006,432,416.006z M96,384.006h320v-32H96V384.006z"/>
<g>
</g>
<g>
</g>
<g>
</g>
<g>
</g>
<g>
</g>
<g>
</g>
<g>
</g>
<g>
</g>
<g>
</g>
<g>
</g>
<g>
</g>
<g>
</g>
<g>
</g>
<g>
</g>
<g>
</g>
</svg>
