<svg id="_x31__x2C_5" height="512" viewBox="0 0 24 24" width="512" xmlns="http://www.w3.org/2000/svg"><path d="m21.446 15.697c-.086 0-.172-.002-.257-.012-.306-.037-.53-.306-.512-.613l.187-3.101c.019-.308.274-.548.582-.548 1.179 0 2.137.959 2.137 2.137s-.958 2.137-2.137 2.137z" fill="#90a4ae"/><path d="m17.302 18.927c-.318-.568-.938-.927-1.612-.927l-3.69.017v5.233c2.451 0 4.546-.875 6.25-2.634z" fill="#00bcd4"/><path d="m15 6.68v-5.545c-.98-.2-2-.295-3-.295v8.16l1.84-.739c.71-.287 1.16-.903 1.16-1.581z" fill="#00bcd4"/><path d="m21.009 12.549v-3.9c0-4.206-2.428-6.596-5.806-7.399v5.349c0 .746-.405 1.424-1.045 1.74l-2.158.812v9l3.648-.019c.667 0 1.279.392 1.595 1.013l.937 1.845c.504-.574.973-1.243 1.405-1.988 1.442-2.706 1.433-4.273 1.424-6.453z" fill="#607d8b"/><path d="m2.534 15.636c-1.145 0-2.076-.931-2.076-2.076s.931-2.076 2.076-2.076c.299 0 .547.233.565.532l.181 3.012c.018.299-.2.56-.497.596-.082.01-.165.012-.249.012z" fill="#ffcc80"/><path d="m2.542 7.997v3.091c0 1.32.142 2.507.407 3.579l1.996-4.748s3.282-.886 3.282-3.543c0 0 .227 1.674 3.774 2.71v-8.246c-4.55 0-9.459 2.241-9.459 7.157z" fill="#90a4ae"/><path d="m8.247 6.25c0 2.845-3.264 3.793-3.264 3.793l-1.985 5.093c1.242 5.453 5.136 7.938 9.002 7.947v-13.931c-3.527-1.11-3.753-2.902-3.753-2.902z" fill="#ffcc80"/><circle cx="8" cy="13.5" r="1.5"/><circle cx="16" cy="13.5" r="1.5"/><path d="m3.697 14.861-1.414-.502 1.55-4.36c.081-.228.267-.402.499-.47.118-.034 2.928-.889 2.928-3.279 0-.396.308-.724.702-.748.391-.042.742.26.792.653.001 0 .33 1.459 3.47 2.438l-.447 1.432c-1.723-.537-2.789-1.231-3.448-1.874-.788 1.604-2.45 2.399-3.202 2.688z"/><path d="m12 19.03c-1.122 0-2.185-.444-2.99-1.25-.293-.293-.293-.768 0-1.061s.768-.293 1.061 0c.522.522 1.208.811 1.93.811.414 0 .75.336.75.75s-.337.75-.751.75z"/><path d="m2.75 16.31c-1.517 0-2.75-1.234-2.75-2.75s1.233-2.75 2.75-2.75v1.5c-.689 0-1.25.561-1.25 1.25 0 .708.604 1.25 1.306 1.25.031 0 .063 0 .094-.004l.182 1.488c-.111.014-.222.016-.332.016z"/><path d="m11.998 24c-4.977 0-9.998-3.844-9.998-12.431v-3.492c0-5.55 5.183-8.077 9.998-8.077.414 0 .75.336.75.75v22.5c0 .414-.336.75-.75.75zm-.75-22.477c-3.863.237-7.748 2.31-7.748 6.554v3.492c0 7.558 4.018 10.548 7.748 10.896z"/><path d="m21.25 16.31c-.11 0-.221-.002-.331-.016l.182-1.488c.05.006.099.003.149.004.689 0 1.25-.561 1.25-1.25s-.561-1.25-1.25-1.25v-1.5c1.517 0 2.75 1.233 2.75 2.75s-1.233 2.75-2.75 2.75z"/><path d="m11.998 24c-.414 0-.75-.336-.75-.75s.336-.75.75-.75c2.988 0 5.321-1.423 7.131-4.35 1.386-2.461 1.38-3.787 1.37-5.984l-.002-4.089c0-4.519-4.405-6.577-8.499-6.577-.414 0-.75-.336-.75-.75s.336-.75.75-.75c4.815 0 9.999 2.527 9.999 8.077l.002 4.082c.01 2.276.018 3.921-1.579 6.754-2.092 3.384-4.92 5.087-8.422 5.087z"/><path d="m12 10c-.283 0-.555-.161-.681-.436-.174-.376-.01-.822.366-.995l2.088-.964c.442-.204.727-.649.727-1.134v-5.221c0-.414.336-.75.75-.75s.75.336.75.75v5.221c0 1.068-.627 2.049-1.598 2.496l-2.088.964c-.101.047-.209.069-.314.069z"/><path d="m18 21.5c-.298 0-.579-.179-.696-.472l-.495-1.238c-.191-.478-.647-.786-1.162-.786-.001 0-.002 0-.003 0l-3.642.011s-.001 0-.002 0c-.413 0-.749-.334-.75-.748s.334-.751.748-.752l3.642-.011h.007c1.132 0 2.135.678 2.555 1.729l.495 1.238c.154.385-.033.821-.418.975-.091.036-.186.054-.279.054z"/></svg>