<svg id="_x31__x2C_5" height="512" viewBox="0 0 24 24" width="512" xmlns="http://www.w3.org/2000/svg"><path d="m18.5 15.25 1.25 8.75h-15.5l1.25-8.75z" fill="#cfd8dc"/><path d="m19.347 7.079c-.74-1.758-1.038-3.68-1.038-5.596v-1.483h-12.618v1.483c0 1.916-.298 3.838-1.038 5.596-.575 1.367-.903 2.858-.903 4.171 0 4.14 4.232 6 8.25 6s8.25-1.86 8.25-6c0-1.313-.328-2.804-.903-4.171z" fill="#ffcc80"/><path d="m4.251 24c-.038 0-.077-.003-.117-.009-.409-.064-.688-.448-.625-.857l1.25-8c.063-.409.437-.685.857-.625.409.064.688.448.625.857l-1.25 8c-.057.37-.377.634-.74.634z"/><path d="m19.749 24c-.363 0-.683-.264-.74-.634l-1.25-8c-.063-.409.216-.793.625-.857.422-.059.794.217.857.625l1.25 8c.063.409-.216.793-.625.857-.04.006-.079.009-.117.009z"/><path d="m12 24c-.414 0-.75-.336-.75-.75v-2.5c0-.414.336-.75.75-.75s.75.336.75.75v2.5c0 .414-.336.75-.75.75z"/><path d="m12 18c-4.335 0-9-2.112-9-6.75 0-1.404.342-2.988.962-4.462.65-1.545.979-3.331.979-5.306v-.732c0-.414.336-.75.75-.75s.75.336.75.75v.732c0 2.176-.369 4.157-1.097 5.887-.544 1.295-.844 2.673-.844 3.881 0 3.626 3.767 5.25 7.5 5.25s7.5-1.624 7.5-5.25c0-1.208-.3-2.586-.845-3.88-.728-1.731-1.097-3.712-1.097-5.888v-.732c0-.414.336-.75.75-.75s.75.336.75.75v.732c0 1.975.329 3.76.979 5.306.621 1.474.963 3.058.963 4.462 0 4.638-4.665 6.75-9 6.75z"/><path d="m12.75 14h-1.5c-.414 0-.75-.336-.75-.75s.336-.75.75-.75h1.5c.414 0 .75.336.75.75s-.336.75-.75.75z"/></svg>