<?xml version="1.0" encoding="iso-8859-1"?>
<!-- Generator: Adobe Illustrator 19.0.0, SVG Export Plug-In . SVG Version: 6.00 Build 0)  -->
<svg version="1.1" id="Capa_1" xmlns="http://www.w3.org/2000/svg" xmlns:xlink="http://www.w3.org/1999/xlink" x="0px" y="0px"
	 viewBox="0 0 480.093 480.093" style="enable-background:new 0 0 480.093 480.093;" xml:space="preserve">
<circle style="fill:#2196F3;" cx="192" cy="192.046" r="192"/>
<path d="M192,384.046c-106.039,0-192-85.961-192-192s85.961-192,192-192s192,85.961,192,192
	C383.894,298.041,297.995,383.941,192,384.046z M192,32.046c-88.366,0-160,71.634-160,160s71.634,160,160,160s160-71.634,160-160
	C351.894,103.725,280.322,32.152,192,32.046z"/>
<path d="M464,480.046c-4.325,0.008-8.469-1.735-11.488-4.832L307.2,325.454c-6.186-6.345-6.057-16.502,0.288-22.688
	c6.345-6.186,16.502-6.057,22.688,0.288l145.28,149.728c6.221,6.276,6.177,16.406-0.099,22.627
	C472.338,478.403,468.251,480.071,464,480.046z"/>
<rect x="96" y="192.046" width="32" height="64"/>
<rect x="160" y="160.046" width="32" height="96"/>
<rect x="224" y="128.046" width="32" height="128"/>
<g>
</g>
<g>
</g>
<g>
</g>
<g>
</g>
<g>
</g>
<g>
</g>
<g>
</g>
<g>
</g>
<g>
</g>
<g>
</g>
<g>
</g>
<g>
</g>
<g>
</g>
<g>
</g>
<g>
</g>
</svg>
