<svg id="_x31__x2C_5_1_" height="512" viewBox="0 0 24 24" width="512" xmlns="http://www.w3.org/2000/svg"><path d="m16.25 16.25c0 1.105-.895 2-2 2h-4.5c-1.105 0-2-.896-2-2 0-.64-.254-1.254-.707-1.707-.828-.828-1.293-1.951-1.293-3.121v-1.672c0-2.761 2.239-5 5-5h2.5c2.761 0 5 2.239 5 5v1.672c0 1.171-.465 2.293-1.293 3.121-.453.453-.707 1.067-.707 1.707z" fill="#cfd8dc"/><g fill="#607d8b"><path d="m21.75 18.25c-.96 0-1.88-.38-2.56-1.06l-2.43-2.43-1.1 2.9 1.53 1.53c.68.68 1.06 1.6 1.06 2.56 0 .83.67 1.5 1.5 1.5s1.5-.67 1.5-1.5c0-.24-.06-.47-.17-.67.2.11.43.17.67.17.83 0 1.5-.67 1.5-1.5s-.67-1.5-1.5-1.5z"/><path d="m2.25 5.75c.96 0 1.88.38 2.56 1.06l1.24 1.24 1.71-2.29-.95-.95c-.68-.68-1.06-1.6-1.06-2.56 0-.83-.67-1.5-1.5-1.5s-1.5.67-1.5 1.5c0 .24.06.47.17.67-.2-.11-.43-.17-.67-.17-.83 0-1.5.67-1.5 1.5s.67 1.5 1.5 1.5z"/><path d="m4.81 17.19c-.68.68-1.6 1.06-2.56 1.06-.83 0-1.5.67-1.5 1.5s.67 1.5 1.5 1.5c.24 0 .47-.06.67-.17-.11.2-.17.43-.17.67 0 .83.67 1.5 1.5 1.5s1.5-.67 1.5-1.5c0-.96.38-1.88 1.06-2.56l1.53-1.53-1.1-2.9z"/><path d="m19.19 6.81c.68-.68 1.6-1.06 2.56-1.06.83 0 1.5-.67 1.5-1.5s-.67-1.5-1.5-1.5c-.24 0-.47.06-.67.17.11-.2.17-.43.17-.67 0-.83-.67-1.5-1.5-1.5s-1.5.67-1.5 1.5c0 .96-.38 1.88-1.06 2.56l-.95.95 1.71 2.29z"/></g><path d="m14.25 19h-4.5c-1.517 0-2.75-1.233-2.75-2.75 0-.444-.173-.862-.487-1.177-.976-.975-1.513-2.272-1.513-3.651v-1.672c0-3.171 2.579-5.75 5.75-5.75h2.5c3.171 0 5.75 2.579 5.75 5.75v1.672c0 1.379-.537 2.676-1.513 3.651-.314.315-.487.733-.487 1.177 0 1.517-1.233 2.75-2.75 2.75zm-3.5-13.5c-2.344 0-4.25 1.906-4.25 4.25v1.672c0 .979.381 1.898 1.073 2.591.598.597.927 1.392.927 2.237 0 .689.561 1.25 1.25 1.25h4.5c.689 0 1.25-.561 1.25-1.25 0-.845.329-1.64.927-2.237.692-.693 1.073-1.613 1.073-2.591v-1.672c0-2.344-1.906-4.25-4.25-4.25z"/><path d="m10.25 19c-.414 0-.75-.336-.75-.75v-2.5c0-.414.336-.75.75-.75s.75.336.75.75v2.5c0 .414-.336.75-.75.75z"/><path d="m13.75 19c-.414 0-.75-.336-.75-.75v-2.5c0-.414.336-.75.75-.75s.75.336.75.75v2.5c0 .414-.336.75-.75.75z"/><circle cx="9.5" cy="10.5" r="1.5"/><circle cx="14.5" cy="10.5" r="1.5"/><path d="m19.75 24c-1.24 0-2.25-1.01-2.25-2.25 0-.767-.298-1.487-.84-2.029l-1.53-1.53 1.061-1.061 1.53 1.53c.825.825 1.279 1.922 1.279 3.09 0 .413.337.75.75.75s.75-.337.75-.75c0-.11-.026-.217-.077-.308-.161-.293-.109-.656.127-.893s.599-.288.893-.127c.091.051.197.077.308.077.413 0 .75-.337.75-.75s-.338-.749-.751-.749c-1.168 0-2.265-.454-3.09-1.279l-2.431-2.431 1.061-1.061 2.431 2.431c.542.542 1.263.84 2.029.84 1.24 0 2.25 1.01 2.25 2.25 0 1.16-.883 2.118-2.013 2.237-.119 1.13-1.077 2.013-2.237 2.013z"/><path d="m5.52 8.58-1.24-1.24c-.543-.542-1.263-.84-2.03-.84-1.24 0-2.25-1.01-2.25-2.25 0-1.16.883-2.118 2.013-2.237.119-1.13 1.077-2.013 2.237-2.013 1.24 0 2.25 1.01 2.25 2.25 0 .767.298 1.487.84 2.029l.95.95-1.061 1.061-.95-.95c-.825-.825-1.279-1.922-1.279-3.09 0-.413-.337-.75-.75-.75s-.75.337-.75.75c0 .11.026.217.077.308.161.293.11.656-.127.892s-.6.286-.893.127c-.09-.051-.197-.077-.307-.077-.413 0-.75.337-.75.75s.337.75.75.75c1.168 0 2.265.454 3.09 1.279l1.24 1.24z"/><path d="m4.25 24c-1.16 0-2.118-.883-2.237-2.013-1.13-.119-2.013-1.077-2.013-2.237 0-1.24 1.01-2.25 2.25-2.25.767 0 1.487-.298 2.029-.84l2.431-2.431 1.061 1.061-2.431 2.431c-.825.825-1.922 1.279-3.09 1.279-.413 0-.75.337-.75.75s.337.75.75.75c.11 0 .217-.026.308-.077.294-.161.655-.11.893.127.236.236.288.6.127.893-.052.09-.078.197-.078.307 0 .413.337.75.75.75s.75-.337.75-.75c0-1.168.454-2.265 1.279-3.09l1.53-1.53 1.061 1.06-1.53 1.53c-.542.543-.84 1.263-.84 2.03 0 1.24-1.01 2.25-2.25 2.25z"/><path d="m18.48 8.58-1.06-1.06 1.24-1.24c.825-.826 1.922-1.28 3.09-1.28.413 0 .75-.337.75-.75s-.337-.75-.75-.75c-.11 0-.217.026-.308.077-.293.16-.656.109-.893-.127s-.288-.6-.127-.893c.052-.09.078-.197.078-.307 0-.413-.337-.75-.75-.75s-.75.337-.75.75c0 1.168-.454 2.265-1.279 3.09l-.95.95-1.061-1.061.95-.95c.542-.542.84-1.263.84-2.029 0-1.24 1.01-2.25 2.25-2.25 1.16 0 2.118.883 2.237 2.013 1.13.119 2.013 1.077 2.013 2.237 0 1.24-1.01 2.25-2.25 2.25-.767 0-1.487.298-2.029.84z"/></svg>