<?xml version="1.0" encoding="utf-8"?>
<!-- Generator: Adobe Illustrator 25.3.1, SVG Export Plug-In . SVG Version: 6.00 Build 0)  -->
<svg version="1.1" id="Calque_1" xmlns="http://www.w3.org/2000/svg" xmlns:xlink="http://www.w3.org/1999/xlink" x="0px" y="0px"
	 viewBox="0 0 512 512" style="enable-background:new 0 0 512 512;" xml:space="preserve">
<style type="text/css">
	.st0{fill:#B0BEC5;stroke:#000000;stroke-width:8;stroke-miterlimit:10;}
	.st1{fill:#CFD8DC;stroke:#000000;stroke-width:8;stroke-miterlimit:10;}
	.st2{fill:#ECEFF1;stroke:#000000;stroke-width:8;stroke-miterlimit:10;}
	.st3{fill:#90A4AE;stroke:#000000;stroke-width:8;stroke-miterlimit:10;}
	.st4{fill:#455A64;stroke:#000000;stroke-width:8;stroke-miterlimit:10;}
	.st5{fill:#607D8B;stroke:#000000;stroke-width:8;stroke-miterlimit:10;}
	.st6{stroke:#000000;stroke-width:8;stroke-miterlimit:10;}
</style>
<path class="st0" d="M256.4,224.9v279.5c-1.7,0-3.1-0.4-4.6-1L24.1,389.5c-3.5-1.9-5.8-5.4-5.8-9.3V121.4c0-1.5,0.2-2.9,1-4.1
	L256.4,224.9z"/>
<path class="st1" d="M494.5,121.4v258.8c0,3.9-2.3,7.5-5.8,9.3L261,503.4c-1.4,0.6-2.9,1-4.6,1V224.9l237.1-107.7
	C494.3,118.5,494.5,119.9,494.5,121.4z"/>
<path class="st2" d="M493.5,117.2L256.4,224.9L19.4,117.2c0.8-2.3,2.7-4.1,5-5.4L252.1,8.3c2.7-1.2,6-1.2,8.7,0l227.7,103.5
	C490.8,113.1,492.7,115,493.5,117.2z"/>
<path class="st3" d="M287.5,121.4c0-11.4-13.9-20.7-31.1-20.7s-31.1,9.3-31.1,20.7c0,11.4,13.9,20.7,31.1,20.7
	S287.5,132.8,287.5,121.4z"/>
<g>
	<path class="st4" d="M225.4,266.3c0-17.2-9.3-31.1-20.7-31.1c-11.4,0-20.7,13.9-20.7,31.1s9.3,31.1,20.7,31.1
		C216.1,297.4,225.4,283.5,225.4,266.3z"/>
	<path class="st4" d="M163.2,303c0-17.2-9.3-31.1-20.7-31.1c-11.4,0-20.7,13.9-20.7,31.1c0,17.2,9.3,31.1,20.7,31.1
		C154,334,163.2,320.1,163.2,303z"/>
	<path class="st4" d="M101.1,338.8c0-17.2-9.3-31.1-20.7-31.1c-11.4,0-20.7,13.9-20.7,31.1c0,17.2,9.3,31.1,20.7,31.1
		C91.9,369.8,101.1,355.9,101.1,338.8z"/>
</g>
<path class="st5" d="M339.2,276.7c0-17.2-9.3-31.1-20.7-31.1s-20.7,13.9-20.7,31.1c0,17.2,9.3,31.1,20.7,31.1
	S339.2,293.8,339.2,276.7z"/>
<path class="st5" d="M442.8,328.4c0-17.2-9.3-31.1-20.7-31.1c-11.4,0-20.7,13.9-20.7,31.1s9.3,31.1,20.7,31.1
	C433.5,359.5,442.8,345.6,442.8,328.4z"/>
<path class="st6" d="M256.4,504.4c-1.6,0-3.2-0.4-4.6-1.1L24,389.4c-3.5-1.8-5.7-5.3-5.7-9.3V121.4c0-4.1,2.4-7.7,6.1-9.4L252.1,8.4
	c2.7-1.2,5.9-1.2,8.6,0L488.4,112c3.7,1.7,6.1,5.4,6.1,9.4v258.8c0,3.9-2.2,7.5-5.7,9.3L261.1,503.3
	C259.6,504,258,504.4,256.4,504.4z M39,373.8l217.4,108.7l217.4-108.7V128L256.4,29.2L39,128V373.8z"/>
<path class="st6" d="M256.4,235.2c-1.4,0-2.9-0.3-4.3-0.9L24.4,130.8c-5.2-2.4-7.5-8.5-5.1-13.7c2.4-5.2,8.5-7.5,13.7-5.1
	l223.5,101.6L479.9,112c5.2-2.4,11.3-0.1,13.7,5.1c2.4,5.2,0.1,11.3-5.1,13.7L260.7,234.3C259.4,234.9,257.9,235.2,256.4,235.2z"/>
<path class="st6" d="M256.4,504.4c-5.7,0-10.4-4.6-10.4-10.3V224.9c0-5.7,4.6-10.3,10.4-10.3c5.7,0,10.4,4.6,10.4,10.3V494
	C266.8,499.8,262.1,504.4,256.4,504.4z"/>
<path class="st6" d="M256.4,142.1c-18,0-31.1-8.7-31.1-20.7c0-12,13.1-20.7,31.1-20.7c18,0,31.1,8.7,31.1,20.7
	C287.5,133.4,274.4,142.1,256.4,142.1z M256.4,121.4h0.2H256.4z"/>
<path class="st6" d="M225.4,266.3c0-17.2-9.3-31.1-20.7-31.1c-11.4,0-20.7,13.9-20.7,31.1s9.3,31.1,20.7,31.1
	C216.1,297.4,225.4,283.5,225.4,266.3z"/>
<path class="st6" d="M163.2,303c0-17.2-9.3-31.1-20.7-31.1c-11.4,0-20.7,13.9-20.7,31.1c0,17.2,9.3,31.1,20.7,31.1
	C154,334,163.2,320.1,163.2,303z"/>
<path class="st6" d="M101.1,338.8c0-17.2-9.3-31.1-20.7-31.1c-11.4,0-20.7,13.9-20.7,31.1c0,17.2,9.3,31.1,20.7,31.1
	C91.9,369.8,101.1,355.9,101.1,338.8z"/>
<path class="st6" d="M339.2,276.7c0-17.2-9.3-31.1-20.7-31.1s-20.7,13.9-20.7,31.1c0,17.2,9.3,31.1,20.7,31.1
	S339.2,293.8,339.2,276.7z"/>
<path class="st6" d="M442.8,328.4c0-17.2-9.3-31.1-20.7-31.1c-11.4,0-20.7,13.9-20.7,31.1s9.3,31.1,20.7,31.1
	C433.5,359.5,442.8,345.6,442.8,328.4z"/>
</svg>
