<svg id="_x31_px" enable-background="new 0 0 24 24" height="512" viewBox="0 0 24 24" width="512" xmlns="http://www.w3.org/2000/svg"><path d="m17.134 1.717-2.151-.662c-.438-.136-.895-.088-1.285.127-.409.224-.701.584-.827 1.032-.545 1.879-1.054 3.523-2.047 4.944-.925 1.362-2.054 2.521-3.397 3.484-1.431 1.041-3.095 1.859-5.003 2.462-.448.146-.808.448-1.012.857-.204.399-.243.857-.097 1.285l.642 1.917c.078.243.272.428.526.487.049.01.107.019.165.019.195 0 .38-.078.516-.214l5.431-5.431 3.66-3.66 5.181-5.431c.175-.185.253-.448.185-.691-.059-.252-.244-.447-.487-.525z" fill="#ffd54f"/><path d="m6.046 23.332c-.027 0-.054-.001-.081-.002-3.234-.169-5.035-1.97-5.205-5.208-.03-.526.238-1.036.7-1.329 2.229-1.419 5.166-3.947 7.053-5.67l2.631-2.632c1.703-1.868 4.23-4.805 5.649-7.036.292-.461.8-.725 1.332-.698 3.234.169 5.035 1.97 5.205 5.208.03.526-.238 1.036-.7 1.329-2.122 1.342-5.06 3.709-6.893 5.357l-3.098 3.098c-1.63 1.813-3.998 4.756-5.342 6.881-.278.439-.752.702-1.251.702z" fill="#ffc107"/><path d="m17.423 13.679-6.859-5.887c-.031-.023-1.726 1.952-2.799 2.721.008.016 5.918 6.905 5.918 6.905.303.368.948.214 1.019-.295l.327-2.099 2.099-.327c.498-.069.666-.698.295-1.018z" fill="#607d8b"/><path d="m6.104 24c-.031 0-.063-.001-.094-.002-3.732-.195-5.812-2.274-6.008-6.011-.034-.607.274-1.196.808-1.534 2.573-1.638 4.984-3.478 7.163-5.467.307-.278.781-.256 1.06.049.279.306.258.78-.048 1.06-2.243 2.047-4.723 3.939-7.371 5.625-.07.044-.117.122-.113.186.156 2.98 1.615 4.439 4.592 4.595.073.009.146-.043.189-.113 1.595-2.522 3.401-4.909 5.366-7.093.278-.307.752-.333 1.06-.056s.333.751.056 1.059c-1.909 2.122-3.664 4.441-5.215 6.893-.322.505-.869.809-1.445.809z"/><path d="m15.795 12.956c-.205 0-.409-.083-.558-.248-.277-.308-.252-.782.056-1.06 2.183-1.964 4.569-3.77 7.095-5.368.069-.043.116-.121.112-.185-.156-2.98-1.615-4.439-4.592-4.595-.064 0-.146.043-.189.113-1.685 2.647-3.577 5.127-5.625 7.371-.279.307-.753.327-1.06.049-.306-.279-.327-.754-.048-1.06 1.989-2.181 3.829-4.591 5.467-7.165.337-.532.923-.837 1.537-.806 3.732.195 5.812 2.274 6.008 6.011.034.607-.274 1.196-.808 1.534-2.454 1.553-4.773 3.308-6.894 5.216-.143.129-.322.193-.501.193z"/><path d="m1.729 17.396c-.314 0-.606-.199-.712-.513l-.658-1.975c-.146-.438-.11-.907.099-1.319.214-.421.583-.732 1.037-.877 5.73-1.819 9.325-5.48 10.99-11.19.134-.459.438-.835.854-1.06.405-.219.871-.267 1.316-.129l2.212.681c.396.122.618.542.496.938s-.543.617-.938.496l-2.212-.681c-.058-.017-.112-.011-.164.016-.034.019-.097.064-.125.16-1.789 6.14-5.818 10.245-11.976 12.2-.093.029-.136.093-.154.128-.026.053-.031.108-.012.165l.658 1.975c.131.393-.082.818-.475.949-.077.024-.157.036-.236.036z"/><path d="m14.5 19c-.218 0-.429-.095-.573-.266l-6.75-8c-.267-.317-.227-.79.09-1.057.315-.266.79-.227 1.057.089l5.687 6.74.249-1.62c.05-.323.304-.577.627-.627l1.62-.249-6.74-5.687c-.317-.267-.357-.74-.09-1.057s.74-.356 1.057-.089l8 6.75c.225.189.318.493.238.776-.079.283-.317.494-.607.538l-2.707.417-.416 2.707c-.045.291-.255.528-.538.608-.068.018-.137.027-.204.027z"/></svg>