<svg id="_x31__x2C_5" height="512" viewBox="0 0 24 24" width="512" xmlns="http://www.w3.org/2000/svg"><path d="m21.25.75h-7c-.86 0-1.63.36-2.18.94l-10.77 11.19c-.34.35-.55.84-.55 1.37 0 .55.22 1.05.59 1.41l7 7c.36.37.86.59 1.41.59.53 0 1.02-.21 1.37-.55l11.19-10.77c.58-.55.94-1.32.94-2.18v-7c0-1.1-.9-2-2-2z" fill="#cfd8dc"/><path d="m9 19.188c-.655 0-1.188-.533-1.188-1.188s.533-1.187 1.188-1.187 1.187.533 1.187 1.187-.532 1.188-1.187 1.188z" fill="#ffc107"/><path d="m11 10.188c-.655 0-1.188-.533-1.188-1.188s.533-1.187 1.188-1.187 1.187.532 1.187 1.187-.532 1.188-1.187 1.188z" fill="#ffc107"/><path d="m19 6.25c-.689 0-1.25-.561-1.25-1.25s.561-1.25 1.25-1.25 1.25.561 1.25 1.25-.561 1.25-1.25 1.25z" fill="#90a4ae"/><path d="m9 20c-1.103 0-2-.897-2-2s.897-2 2-2 2 .897 2 2-.897 2-2 2zm0-2.5c-.275 0-.5.224-.5.5s.225.5.5.5.5-.224.5-.5-.225-.5-.5-.5z"/><path d="m11 11c-1.103 0-2-.897-2-2s.897-2 2-2 2 .897 2 2-.897 2-2 2zm0-2.5c-.275 0-.5.224-.5.5s.225.5.5.5.5-.224.5-.5-.225-.5-.5-.5z"/><path d="m4.749 15c-.367 0-.688-.27-.741-.644-.059-.41.226-.79.636-.849l10.5-1.5c.412-.056.791.227.849.637.059.41-.226.79-.636.849l-10.5 1.5c-.037.005-.073.007-.108.007z"/><path d="m9.75 24c-.735 0-1.427-.286-1.945-.806l-6.999-7c-.52-.518-.806-1.209-.806-1.944 0-.706.267-1.377.752-1.89l10.778-11.192c.7-.74 1.694-1.168 2.72-1.168h7c1.517 0 2.75 1.233 2.75 2.75v7c0 1.025-.427 2.017-1.171 2.722l-11.184 10.771c-.518.49-1.19.757-1.895.757zm4.5-22.5c-.625 0-1.205.25-1.635.704l-10.778 11.192c-.216.228-.337.533-.337.854 0 .334.13.648.366.883l7 7c.464.463 1.268.474 1.742.024l11.183-10.767c.002-.002.004-.003.005-.005.454-.429.704-1.01.704-1.635v-7c0-.689-.561-1.25-1.25-1.25z"/><path d="m19 7c-1.103 0-2-.897-2-2s.897-2 2-2 2 .897 2 2-.897 2-2 2zm0-2.5c-.275 0-.5.224-.5.5s.225.5.5.5.5-.224.5-.5-.225-.5-.5-.5z"/></svg>