<svg id="_x31__x2C_5" height="512" viewBox="0 0 24 24" width="512" xmlns="http://www.w3.org/2000/svg"><path d="m16.731 4.938.508-3.526c.065-.449.628-.614.925-.269l1.763 2.059c.209.244.153.616-.115.788l-2.271 1.466c-.378.246-.875-.067-.81-.518z" fill="#607d8b"/><g fill="#00bcd4"><path d="m23.135 7.223c-.063-1.956-2.169-3.198-3.371-3.434-1.512-.28-2.907.917-2.907 2.514 0 1.218.841 2.294 2.027 2.522.244.039.487.102.731.157.907.208 2.028.491 2.789-.024.548-.343.784-1.096.731-1.735z"/><path d="m2 7.5c-.827 0-1.5-.673-1.5-1.5s.673-1.5 1.5-1.5 1.5.673 1.5 1.5-.673 1.5-1.5 1.5z"/><path d="m5.621 18.25c-.004 0-.009 0-.014 0-2.082-.007-3.774-1.471-3.774-3.27 0-1.803 1.699-3.27 3.789-3.27.387 0 .772.052 1.145.154 2.482.302 4.985.302 7.467 0 .373-.103.758-.154 1.145-.154 2.089 0 3.789 1.467 3.789 3.27 0 1.799-1.692 3.264-3.776 3.27-.008 0-.016 0-.024 0-.376-.001-.75-.051-1.113-.149-2.495-.306-5.012-.306-7.508 0-.363.098-.736.148-1.112.149-.005 0-.01 0-.014 0z"/></g><path d="m8.673 23.489h-3.846c-.347 0-.616-.304-.572-.649l.415-2.812h1.696c1.591 0 2.885 1.294 2.885 2.885-.001.318-.259.576-.578.576z" fill="#607d8b"/><path d="m19.173 23.489h-3.846c-.347 0-.616-.304-.572-.649l.415-2.812h1.696c1.591 0 2.885 1.294 2.885 2.885-.001.318-.259.576-.578.576z" fill="#607d8b"/><path d="m21.673 10c-.681 0-1.427-.172-2.159-.341-.314-.072-.628-.145-.931-.202-1.697-.318-2.833-2.008-2.534-3.769.149-.879.625-1.637 1.34-2.135.681-.474 1.5-.652 2.31-.501 1.675.313 4.746 2.189 4.248 5.106-.113.664-.41 1.16-.882 1.474-.405.27-.88.368-1.392.368zm-2.815-2.018c.323.061.658.138.993.215.882.204 1.979.456 2.382.188.042-.029.173-.116.235-.478.331-1.94-2.013-3.187-3.045-3.38-.409-.077-.828.015-1.176.258-.382.266-.638.677-.719 1.156-.164.957.433 1.873 1.33 2.041z"/><path d="m16.028 9.46h3.105v1.5h-3.105z" transform="matrix(.258 -.966 .966 .258 3.183 24.563)"/><path d="m17.521 5.857-1.484-.214.721-5c.042-.292.25-.531.533-.613.282-.082.586.009.779.232l2.5 2.92-1.14.976-1.424-1.664z"/><path d="m22.977 8.5c-.114 0-.229-.026-.337-.081l-2.478-1.25c-.37-.187-.518-.638-.332-1.007.187-.369.639-.518 1.007-.332l2.478 1.25c.37.187.518.638.332 1.007-.132.262-.396.413-.67.413z"/><path d="m2.3 7.34h1.5v4.509h-1.5z" transform="matrix(.96 -.28 .28 .96 -2.56 1.235)"/><path d="m2 8c-1.103 0-2-.897-2-2s.897-2 2-2 2 .897 2 2-.897 2-2 2zm0-2.5c-.276 0-.5.224-.5.5s.224.5.5.5.5-.224.5-.5-.224-.5-.5-.5z"/><path d="m5.152 19c-.005 0-.01 0-.015 0-2.283-.008-4.137-1.799-4.137-4 0-2.206 1.863-4 4.153-4 .424 0 .846.063 1.255.189 2.721.369 5.464.369 8.185 0 .408-.126.83-.189 1.254-.189 2.29 0 4.153 1.794 4.153 4 0 2.201-1.855 3.993-4.139 4-.009 0-.018 0-.026 0-.412-.001-.822-.063-1.22-.182-2.735-.374-5.494-.374-8.229 0-.398.12-.808.181-1.219.182-.005 0-.01 0-.015 0zm5.348-1.962c1.807 0 3.613.154 5.408.462 1.435-.031 2.592-1.14 2.592-2.5 0-1.353-1.146-2.458-2.572-2.499-3.603.62-7.253.62-10.855 0-1.427.041-2.573 1.146-2.573 2.499 0 1.359 1.157 2.469 2.592 2.5 1.795-.309 3.601-.462 5.408-.462z"/><circle cx="16" cy="15" r="1.5"/><path d="m19.75 24h-5c-.215 0-.42-.093-.563-.254-.143-.162-.208-.376-.182-.59l.379-2.99c.003-.028.008-.057.014-.084l.742-4.221c.072-.409.463-.679.869-.609.408.072.681.461.609.869l-.595 3.38h.727c2.068 0 3.75 1.682 3.75 3.75 0 .413-.336.749-.75.749zm-4.149-1.5h3.271c-.31-.873-1.144-1.5-2.122-1.5h-.96z"/><circle cx="5.5" cy="15" r="1.5"/><path d="m9.25 24h-5c-.215 0-.42-.093-.563-.254-.143-.162-.208-.376-.182-.59l.379-2.99c.003-.028.008-.057.014-.084l.742-4.221c.072-.409.462-.679.869-.609.408.072.681.461.609.869l-.595 3.379h.727c2.068 0 3.75 1.682 3.75 3.75 0 .414-.336.75-.75.75zm-4.149-1.5h3.271c-.31-.873-1.144-1.5-2.122-1.5h-.96z"/></svg>