<svg id="_x31__x2C_5" height="512" viewBox="0 0 24 24" width="512" xmlns="http://www.w3.org/2000/svg"><g fill="#00bcd4"><path d="m6 11.25c-2.895 0-5.25-2.355-5.25-5.25s2.355-5.25 5.25-5.25 5.25 2.355 5.25 5.25-2.355 5.25-5.25 5.25z"/><path d="m18 11.25c-2.895 0-5.25-2.355-5.25-5.25s2.355-5.25 5.25-5.25 5.25 2.355 5.25 5.25-2.355 5.25-5.25 5.25z"/><path d="m6 23.167c-2.849 0-5.167-2.318-5.167-5.167s2.318-5.167 5.167-5.167 5.167 2.318 5.167 5.167-2.318 5.167-5.167 5.167z"/><path d="m18 23.243c-2.891 0-5.243-2.352-5.243-5.243s2.352-5.243 5.243-5.243 5.243 2.352 5.243 5.243-2.352 5.243-5.243 5.243z"/></g><path d="m12 16.25c-2.343 0-4.25-1.907-4.25-4.25s1.907-4.25 4.25-4.25 4.25 1.907 4.25 4.25-1.907 4.25-4.25 4.25z" fill="#607d8b"/><path d="m12 17c-2.757 0-5-2.243-5-5s2.243-5 5-5 5 2.243 5 5-2.243 5-5 5zm0-8.5c-1.93 0-3.5 1.57-3.5 3.5s1.57 3.5 3.5 3.5 3.5-1.57 3.5-3.5-1.57-3.5-3.5-3.5z"/><path d="m18 12c-.742 0-1.473-.138-2.172-.411l.545-1.397c.525.204 1.072.308 1.627.308 2.481 0 4.5-2.019 4.5-4.5s-2.019-4.5-4.5-4.5-4.5 2.019-4.5 4.5c0 .555.104 1.102.309 1.627l-1.397.545c-.274-.699-.412-1.43-.412-2.172 0-3.309 2.691-6 6-6s6 2.691 6 6-2.691 6-6 6z"/><path d="m6 12c-3.309 0-6-2.691-6-6s2.691-6 6-6 6 2.691 6 6c0 .742-.138 1.473-.411 2.172l-1.397-.545c.204-.525.308-1.072.308-1.627 0-2.481-2.019-4.5-4.5-4.5s-4.5 2.019-4.5 4.5 2.019 4.5 4.5 4.5c.555 0 1.102-.104 1.627-.309l.545 1.397c-.699.274-1.43.412-2.172.412z"/><path d="m18 24c-3.309 0-6-2.691-6-6 0-.742.138-1.473.411-2.172l1.397.545c-.204.525-.308 1.072-.308 1.627 0 2.481 2.019 4.5 4.5 4.5s4.5-2.019 4.5-4.5-2.019-4.5-4.5-4.5c-.555 0-1.102.104-1.627.309l-.545-1.397c.699-.274 1.43-.412 2.172-.412 3.309 0 6 2.691 6 6s-2.691 6-6 6z"/><path d="m6 24c-3.309 0-6-2.691-6-6s2.691-6 6-6c.742 0 1.473.138 2.172.411l-.545 1.397c-.525-.204-1.072-.308-1.627-.308-2.481 0-4.5 2.019-4.5 4.5s2.019 4.5 4.5 4.5 4.5-2.019 4.5-4.5c0-.555-.104-1.102-.309-1.627l1.397-.545c.274.699.412 1.43.412 2.172 0 3.309-2.691 6-6 6z"/><path d="m8.818 9.568c-.192 0-.384-.073-.53-.22l-3.068-3.068c-.293-.293-.293-.768 0-1.061s.768-.293 1.061 0l3.068 3.068c.293.293.293.768 0 1.061-.147.147-.339.22-.531.22z"/><path d="m18.25 19c-.192 0-.384-.073-.53-.22l-3.074-3.074c-.293-.293-.293-.768 0-1.061s.768-.293 1.061 0l3.074 3.074c.293.293.293.768 0 1.061-.147.147-.339.22-.531.22z"/><path d="m3.75 7.5c-.192 0-.384-.073-.53-.22-.293-.293-.293-.768 0-1.061l3-3c.293-.293.768-.293 1.061 0s.293.768 0 1.061l-3 3c-.147.147-.339.22-.531.22z"/><path d="m17.25 21c-.192 0-.384-.073-.53-.22-.293-.293-.293-.768 0-1.061l3-3c.293-.293.768-.293 1.061 0s.293.768 0 1.061l-3 3c-.147.147-.339.22-.531.22z"/><path d="m15.182 9.568c-.192 0-.384-.073-.53-.22-.293-.293-.293-.768 0-1.061l3.068-3.067c.293-.293.768-.293 1.061 0s.293.768 0 1.061l-3.068 3.068c-.147.146-.339.219-.531.219z"/><path d="m5.75 19c-.192 0-.384-.073-.53-.22-.293-.293-.293-.768 0-1.061l3.068-3.068c.293-.293.768-.293 1.061 0s.293.768 0 1.061l-3.069 3.068c-.146.147-.338.22-.53.22z"/><path d="m20.25 7.5c-.192 0-.384-.073-.53-.22l-3-3c-.293-.293-.293-.768 0-1.061s.768-.293 1.061 0l3 3c.293.293.293.768 0 1.061-.147.147-.339.22-.531.22z"/><path d="m6.75 21c-.192 0-.384-.073-.53-.22l-3-3c-.293-.293-.293-.768 0-1.061s.768-.293 1.061 0l3 3c.293.293.293.768 0 1.061-.147.147-.339.22-.531.22z"/><path d="m13.25 11.5h-2.5c-.414 0-.75-.336-.75-.75s.336-.75.75-.75h2.5c.414 0 .75.336.75.75s-.336.75-.75.75z"/><path d="m13.25 14h-2.5c-.414 0-.75-.336-.75-.75s.336-.75.75-.75h2.5c.414 0 .75.336.75.75s-.336.75-.75.75z"/></svg>