<?xml version="1.0" encoding="iso-8859-1"?>
<!-- Generator: Adobe Illustrator 19.0.0, SVG Export Plug-In . SVG Version: 6.00 Build 0)  -->
<svg version="1.1" id="Capa_1" xmlns="http://www.w3.org/2000/svg" xmlns:xlink="http://www.w3.org/1999/xlink" x="0px" y="0px"
	 viewBox="0 0 512.013 512.013" style="enable-background:new 0 0 512.013 512.013;" xml:space="preserve">
<path style="fill:#F44336;" d="M48.007,256.01h416c8.832,0,16,7.168,16,16v224c0,8.832-7.168,16-16,16h-416c-8.832,0-16-7.168-16-16
	v-224C32.007,263.178,39.175,256.01,48.007,256.01z"/>
<g>
	<path style="fill:#607D8B;" d="M363.207,111.69c-8.832-0.032-15.968-7.2-15.968-16.032c0.032-5.6,2.944-10.752,7.744-13.664
		l132.8-79.712c7.584-4.544,17.408-2.08,21.952,5.504c4.544,7.584,2.08,17.408-5.504,21.952l0,0l-132.832,79.68
		C368.935,110.922,366.087,111.69,363.207,111.69z"/>
	<path style="fill:#607D8B;" d="M148.775,111.69c-2.88,0-5.728-0.8-8.192-2.272l-132.8-79.68C0.199,25.194-2.265,15.37,2.279,7.786
		S16.647-2.262,24.231,2.282l132.8,79.712c7.552,4.576,9.984,14.4,5.44,21.952C159.559,108.746,154.375,111.69,148.775,111.69z"/>
</g>
<path style="fill:#ECEFF1;" d="M476.167,261.61c-5.728-6.592-15.712-7.36-22.4-1.728l-100.768,86.4l-85.664-85.6
	c-6.24-6.24-16.352-6.272-22.624-0.032l-0.032,0.032l-85.504,85.536l-100.768-86.4c-7.008-5.376-17.056-4.064-22.432,2.944
	c-4.96,6.496-4.256,15.68,1.632,21.312l106.4,91.296v120.64c0,8.832,7.168,16,16,16s16-7.168,16-16V374.634l80-80l80,80V496.01
	c0,8.832,7.168,16,16,16s16-7.168,16-16V375.37l106.4-91.232C481.095,278.41,481.895,268.33,476.167,261.61z"/>
<g>
	<path style="fill:#455A64;" d="M336.007,160.01c-26.496,0-48-21.472-48-48s21.504-48,48-48s48,21.504,48,48
		S362.535,160.01,336.007,160.01z"/>
	<path style="fill:#455A64;" d="M176.007,160.01c-26.496,0-48-21.472-48-48s21.504-48,48-48s48,21.504,48,48
		S202.535,160.01,176.007,160.01z"/>
</g>
<g>
	<path style="fill:#FFC107;" d="M16.007,192.01h480c8.832,0,16,7.168,16,16v64c0,8.832-7.168,16-16,16h-480c-8.832,0-16-7.168-16-16
		v-64C0.007,199.178,7.175,192.01,16.007,192.01z"/>
	<path style="fill:#FFC107;" d="M496.007,512.01h-480c-8.832,0-16-7.168-16-16s7.168-16,16-16h480c8.832,0,16,7.168,16,16
		S504.839,512.01,496.007,512.01z"/>
</g>
<path d="M496.007,512.01h-480c-8.832,0-16-7.168-16-16s7.168-16,16-16h480c8.832,0,16,7.168,16,16S504.839,512.01,496.007,512.01z"
	/>
<path d="M496.007,288.01h-480c-8.832,0-16-7.168-16-16v-64c0-8.832,7.168-16,16-16h480c8.832,0,16,7.168,16,16v64
	C512.007,280.842,504.839,288.01,496.007,288.01z M32.007,256.01h448v-32h-448V256.01z"/>
<path d="M464.007,512.01c-8.832,0-16-7.168-16-16V306.794l-85.6,73.376c-6.336,5.44-15.808,5.088-21.728-0.832l-84.672-84.704
	l-84.672,84.704c-5.92,5.92-15.392,6.272-21.728,0.832l-85.6-73.376V496.01c0,8.832-7.168,16-16,16s-16-7.168-16-16v-224
	c0.032-8.832,7.2-16,16.032-15.968c3.808,0,7.488,1.376,10.368,3.84l100.768,86.4l85.504-85.6c6.368-5.984,16.288-5.984,22.656,0
	l85.504,85.536l100.768-86.4c6.72-5.728,16.8-4.96,22.56,1.76c2.496,2.912,3.84,6.624,3.84,10.432v224
	C480.007,504.842,472.839,512.01,464.007,512.01z"/>
<path d="M160.007,512.01c-8.832,0-16-7.168-16-16v-128c0-8.832,7.168-16,16-16s16,7.168,16,16v128
	C176.007,504.842,168.839,512.01,160.007,512.01z"/>
<path d="M352.007,512.01c-8.832,0-16-7.168-16-16v-128c0-8.832,7.168-16,16-16s16,7.168,16,16v128
	C368.007,504.842,360.839,512.01,352.007,512.01z"/>
<path d="M336.007,160.01c-26.496,0-48-21.472-48-48s21.504-48,48-48s48,21.504,48,48S362.535,160.01,336.007,160.01z M336.007,96.01
	c-8.832,0-16,7.168-16,16s7.168,16,16,16s16-7.168,16-16S344.839,96.01,336.007,96.01z"/>
<path d="M363.207,111.69c-8.832-0.032-15.968-7.2-15.968-16.032c0.032-5.6,2.944-10.752,7.744-13.664l132.8-79.712
	c7.584-4.544,17.408-2.08,21.952,5.504c4.544,7.584,2.08,17.408-5.504,21.952l0,0l-132.832,79.68
	C368.935,110.922,366.087,111.69,363.207,111.69z"/>
<path d="M176.007,160.01c-26.496,0-48-21.472-48-48s21.504-48,48-48s48,21.504,48,48S202.535,160.01,176.007,160.01z M176.007,96.01
	c-8.832,0-16,7.168-16,16s7.168,16,16,16s16-7.168,16-16S184.839,96.01,176.007,96.01z"/>
<path d="M148.807,111.69c-2.88,0-5.728-0.8-8.192-2.272L7.783,29.738C0.199,25.194-2.265,15.37,2.279,7.786
	S16.647-2.262,24.231,2.282l132.8,79.712c7.552,4.576,9.984,14.4,5.44,21.952C159.559,108.746,154.407,111.69,148.807,111.69z"/>
<g>
</g>
<g>
</g>
<g>
</g>
<g>
</g>
<g>
</g>
<g>
</g>
<g>
</g>
<g>
</g>
<g>
</g>
<g>
</g>
<g>
</g>
<g>
</g>
<g>
</g>
<g>
</g>
<g>
</g>
</svg>
