<?xml version="1.0" encoding="utf-8"?>
<!-- Generator: Adobe Illustrator 25.3.1, SVG Export Plug-In . SVG Version: 6.00 Build 0)  -->
<svg version="1.1" id="Calque_1" xmlns="http://www.w3.org/2000/svg" xmlns:xlink="http://www.w3.org/1999/xlink" x="0px" y="0px"
	 viewBox="0 0 512 512" style="enable-background:new 0 0 512 512;" xml:space="preserve">
<style type="text/css">
	.st0{fill:#90CAF9;stroke:#000000;stroke-width:8;stroke-miterlimit:10;}
	.st1{fill:#2196F3;stroke:#000000;stroke-width:8;stroke-miterlimit:10;}
	.st2{stroke:#000000;stroke-width:8;stroke-miterlimit:10;}
</style>
<path class="st0" d="M500.5,278.1c-5.8-4.2-12.3-14.5-18.6-24.5c-13-20.7-27.8-43.9-50.8-38.3c-15,3.7-16.9,19.5-18.2,29.9
	c-0.2,1.6-0.4,3.6-0.7,5.5c-12.1-13.6-33.9-37.1-46.1-44.6c-8.1-5-30-10.6-34.3-11.7c-3.9-0.9-7.9,0.4-10.5,3.4
	c-2.6,3-3.2,7.2-1.6,10.9c1.5,3.4,14.6,33.7,22,43.7c3.1,4.3,10.5,11.5,16,16.7c-6.1,10.5-15.9,28.2-17.8,37.7
	c-1.9,9.2-1.1,22.8-0.3,35.9c0.6,10.1,1.3,21.5,0.3,26.7c-3.9,19.9-42.1,52.3-63.7,54.2c-8.8,1-25.8-9.8-30.6-33
	c0-1.9,2.8-7.4,4.4-10.7c3.2-6.5,6.3-12.7,6.3-18.9c0-24.5-3.3-67.6-25.7-81.8c-10.5-6.6-26.1-4.5-41.3-2.4
	c-8.6,1.2-19.3,2.7-23.7,1.3c-3.3-1.1-12.3-10.1-14.5-15.1c-3.5-8-3.9-27.1-0.8-31.9c18.7-28.7,25.6-34.7,35.6-37.4
	c11.3-3,36-0.5,57.7,1.7c40,4,58,5.2,63.8-7.4c4.5-9.7,3.6-20.4-2.3-29.5c-11.7-17.9-39.8-27.9-80.4-27
	c-12.7,0.1-24.3,6.9-34.5,12.9c-6.4,3.7-13.6,8-17.7,9c-0.6-2,1.8-10.1,9-16.9c3.6-3.3,10.8-8.6,18.9-5.7c5.2,1.8,10.9-0.6,13.1-5.6
	c2.8-6.3,7.6-16.4,9.7-19.4c16.5-23,28.5-35.6,35.3-37.3c4.3-0.6,20.7,3.9,35.3,9.9c2.6,1.1,5.5,1.1,8.2-0.1
	c2.6-1.1,4.6-3.3,5.6-5.9c4.2-11.1,14.7-30.6,24.9-35.3c3.9-1.8,6.3-5.8,6-10.1c-0.3-4.3-3.1-8-7.2-9.3
	c-23.8-7.7-49.1-11.6-75.2-11.6C145.5,6.3,49.3,77.5,16.9,183.5c-0.3,1-0.3,3.9-0.3,4.9L17,191c8.3,54.9,15.4,89.1,21.3,101.3
	c4.2,9,10.9,15.8,16.9,21.7c6.3,6.3,11.7,11.7,13.9,18.7c6.9,21.9,1.9,75.4,0.5,86.6c0,2.6,1,5.1,2.8,7.1
	c47.1,51.2,114.2,80.5,184,80.5c126.2,0,233-94.3,248.4-219.2C505.2,284,503.6,280.3,500.5,278.1z"/>
<path class="st1" d="M331.4,17.9c-2.5-0.7-5.1-0.6-7.5,0.5c-14.9,6.9-25.8,25.5-31.4,37.2c-12.1-4.4-29.2-9.5-38.7-7.2
	c-15.8,3.9-32.1,24.1-47.8,45.9c-2.3,3.2-5.5,9.7-7.9,15c-11.8-1-23.6,4.3-33.2,14.6c-9.5,10.1-16.7,25.7-11.4,37.8
	c3.2,7.4,10.2,11.6,19.4,11.6c9.6,0,18.6-5.3,28.1-10.8c8.3-4.9,17-10,24.2-10c37.3-1,56.9,8.7,62.6,17.5c1.5,2.3,2.1,4.7,1.6,7.1
	c-7.6,1.3-29-0.8-43.6-2.3c-24.7-2.4-50.2-5-65.1-1.1c-18.4,4.9-29.2,17.6-47.8,46.1c-8.7,13.3-5.5,41-0.8,51.6
	c3.6,8.2,16.3,23.1,27.2,26.6c8.9,2.9,20.6,1.3,33-0.4c9.2-1.3,23.2-3.2,27.2-0.7c9.6,6.1,16,31.9,16,64.1c-0.1,1.7-2.6,6.8-4.1,9.8
	c-3.8,7.8-7.7,15.8-6.1,23.6c6.4,31.7,30.5,50.1,50.3,50.1c0.9,0,1.8,0,2.6-0.1c31.1-2.8,76.5-41.9,82.3-70.9
	c1.6-7.9,0.9-19.6,0.1-32.1c-0.7-11.2-1.5-23.9-0.1-30.5c1.3-6.6,12.2-26.4,19.5-38.3c2.7-4.3,1.8-9.9-1.9-13.2
	c-6.5-5.8-16.8-15.7-19.4-19.3c-2.4-3.3-6.4-10.9-10.3-19.1c3.2,1.1,5.7,2.1,6.9,2.9c11.7,7.2,39.8,38.6,49.7,50
	c2.4,2.9,6.2,4.1,9.9,3.5c15.6-3,17.6-19,18.9-29.7c0.5-3.8,1.3-10.9,2.5-12.2c8.7-2.2,19.4,15.3,28.2,29.2
	c7.7,12.2,14.9,23.6,23.9,30.2c3,2.2,6.9,2.6,10.3,1.2c3.4-1.4,5.8-4.6,6.2-8.3c1.3-10.2,1.9-20.7,1.9-31.1
	C506.7,146.7,436.3,50.7,331.4,17.9z"/>
<path class="st1" d="M89,326.5c-3.8-11.9-11.9-20-19-27.2c-5.2-5.2-10.1-10.1-12.8-15.9c-2.3-4.8-8.7-23.6-19.5-95.5l-0.4-2.8
	c-0.8-4.8-4.7-8.4-9.6-8.8c-5.1-0.4-9.3,2.7-10.7,7.3C9.7,206.9,6,231.5,6,256.7c0,63.1,23.6,123.4,66.4,169.6
	c2,2.2,4.8,3.3,7.7,3.3c1.1,0,2.1-0.2,3.1-0.5c3.9-1.2,6.7-4.6,7.2-8.6C90.5,419.9,98.3,356.1,89,326.5z"/>
<path class="st2" d="M256.3,507C118.3,507,6,394.7,6,256.7S118.3,6.3,256.3,6.3s250.3,112.3,250.3,250.3S394.4,507,256.3,507z
	 M256.3,27.2c-126.5,0-229.5,103-229.5,229.5s103,229.5,229.5,229.5s229.5-103,229.5-229.5S382.9,27.2,256.3,27.2z"/>
<path class="st2" d="M80.1,429.8c-0.4,0-0.8,0-1.2-0.1c-5.7-0.7-9.8-5.9-9.1-11.6c2-16.9,5.7-65.1-0.6-85.4
	c-2.2-7.1-7.7-12.6-14-18.9c-5.9-5.9-12.6-12.6-16.8-21.5c-9.5-20.3-20.5-95.9-21.7-104.5c-0.8-5.7,3.2-11,8.8-11.8
	c5.7-0.9,11,3.1,11.8,8.8c4.6,32.3,13.8,85.3,20,98.5c2.6,5.6,7.5,10.5,12.7,15.7c7.2,7.2,15.4,15.3,19.1,27.4
	c9,28.7,1.8,91.4,1.5,94.1C89.8,425.9,85.3,429.8,80.1,429.8z"/>
<path class="st2" d="M275.4,444.5c-19.7,0-43.7-18.4-50.2-50.2c-1.6-7.8,2.3-15.9,6.1-23.7c1.5-3,3.9-8.1,4.1-9.8
	c0-32.2-6.4-58-16-64.1c-4-2.6-18-0.6-27.3,0.7c-12.3,1.7-23.9,3.3-32.9,0.5c-11-3.5-23.7-18.4-27.3-26.7c-5.2-12-7.5-38.7,0.8-51.5
	c18.6-28.5,29.4-41.3,47.8-46.1c14.9-3.9,40.4-1.4,65,1.1c14.7,1.5,36.2,3.6,43.7,2.3c0.5-2.4,0-4.8-1.6-7.1
	c-5.7-8.8-25.2-18.4-62.6-17.5c-7.2,0.1-15.9,5.2-24.3,10.1c-9.5,5.6-18.5,10.8-28,10.8c-9.1,0-16.1-4.2-19.3-11.6
	c-5.3-12.1,1.9-27.6,11.3-37.7c9.6-10.3,21.5-15.5,33.2-14.7c2.5-5.3,5.7-11.9,8.1-15.2c15.6-21.6,31.9-41.8,47.7-45.8
	c9.5-2.3,26.5,2.7,38.7,7.2c5.6-11.7,16.5-30.2,31.3-37.2c5.2-2.5,11.4-0.2,13.9,5c2.5,5.2,0.2,11.4-5,13.9
	c-11.5,5.4-22.1,28-24.9,35.4c-1,2.6-3,4.8-5.6,5.9c-2.6,1.1-5.5,1.1-8.2,0c-14.6-6.1-31.1-10.6-35.3-9.9
	c-6.9,1.7-18.9,14.3-35.5,37.4c-1.9,2.7-6.4,12-9.6,19.3c-2.2,5-7.9,7.5-13,5.7c-8.1-2.9-15.4,2.3-19,5.7c-7.2,6.7-9.5,14.8-9,16.8
	c4.1-1.1,11.3-5.3,17.7-9c10.2-6,21.8-12.7,34.5-12.9c39.9-0.5,68.8,9,80.4,27c5.9,9.1,6.7,19.9,2.2,29.6
	c-5.9,12.6-23.8,11.4-63.9,7.4c-21.7-2.2-46.4-4.7-57.6-1.7c-10.1,2.7-17,8.7-35.6,37.3c-3.1,4.8-2.6,23.9,0.8,31.9
	c2.2,5,11.2,14,14.5,15.1c4.5,1.4,15.1-0.1,23.7-1.2c15.2-2.1,30.9-4.3,41.4,2.4c22.3,14.2,25.7,57.4,25.7,81.8
	c0,6.2-3,12.4-6.2,18.9c-1.6,3.3-4.3,8.8-4.4,10.8c4.7,23.2,22.1,33.6,30.5,32.9c21.8-1.9,59.9-34.3,63.7-54.2
	c1-5.1,0.3-16.4-0.3-26.3c-0.8-13.3-1.6-27,0.3-36.4c2-9.5,11.7-27.2,17.8-37.7c-5.6-5.2-12.9-12.4-16-16.7
	c-7.3-10.1-20.5-40.3-22-43.7c-1.6-3.6-1-7.9,1.6-10.9c2.6-3,6.7-4.4,10.5-3.4c4.3,1.1,26.2,6.7,34.3,11.7
	c12.2,7.6,33.9,30.9,46.1,44.6c0.3-1.9,0.5-3.9,0.7-5.5c1.3-10.4,3.3-26.2,18.2-29.9c23.3-5.6,37.9,17.8,50.9,38.4
	c6.3,9.9,12.7,20.2,18.5,24.4c4.7,3.4,5.7,10,2.2,14.6c-3.4,4.6-9.9,5.7-14.6,2.2c-8.9-6.6-16.1-18-23.8-30.1
	c-8.8-14-19.7-31.3-28.3-29.3c-1.1,1.3-2,8.4-2.5,12.2c-1.3,10.6-3.3,26.6-18.9,29.6c-3.6,0.8-7.4-0.6-9.9-3.4
	c-9.8-11.5-38-42.8-49.7-50.1c-1.2-0.7-3.7-1.7-6.8-2.8c4,8.2,7.9,15.9,10.3,19.2c2.5,3.5,12.9,13.3,19.4,19.2
	c3.7,3.4,4.5,8.9,1.9,13.2c-7.3,12-18.2,31.8-19.5,38.4c-1.4,6.7-0.6,19.5,0.1,30.9c0.7,12.2,1.4,23.8-0.1,31.6
	c-6.1,31.3-53.5,68.4-82.3,71C277.2,444.5,276.3,444.5,275.4,444.5z"/>
</svg>
