<svg id="_x31__x2C_5" height="512" viewBox="0 0 24 24" width="512" xmlns="http://www.w3.org/2000/svg"><path d="m12.25 6.25c0 .55-.22 1.05-.59 1.41l-4 4c-.36.37-.86.59-1.41.59s-1.05-.22-1.41-.59l-3.25-3.25 6.82-6.81 3.11 3.11.14.13c.37.36.59.86.59 1.41z" fill="#607d8b"/><path d="m.75 10c-.192 0-.384-.073-.53-.22-.293-.293-.293-.768 0-1.061l8.5-8.5c.293-.293.768-.293 1.061 0s.293.768 0 1.061l-8.5 8.5c-.147.147-.339.22-.531.22z"/><path d="m6.5 4.25c-.192 0-.384-.073-.53-.22l-2.75-2.75c-.293-.293-.293-.768 0-1.061s.768-.293 1.061 0l2.75 2.75c.293.293.293.768 0 1.061-.147.147-.339.22-.531.22z"/><path d="m3.5 7.25c-.192 0-.384-.073-.53-.22l-2.75-2.75c-.293-.293-.293-.768 0-1.061s.768-.293 1.061 0l2.75 2.75c.293.293.293.768 0 1.061-.147.147-.339.22-.531.22z"/><path d="m6.25 13c-.743 0-1.434-.29-1.947-.816l-3.243-3.244c-.293-.293-.293-.768 0-1.061s.768-.293 1.061 0l3.25 3.25c.471.482 1.296.476 1.753.007l4.006-4.006c.241-.235.37-.545.37-.88s-.129-.645-.363-.873l-.127-.117-3.135-3.135c-.293-.293-.293-.768 0-1.061s.768-.293 1.061 0l3.234 3.226c.54.525.83 1.217.83 1.96s-.29 1.435-.816 1.948l-3.994 3.992c-.506.52-1.197.81-1.94.81z"/><path d="m23.25 24c-.192 0-.384-.073-.53-.22l-2.5-2.5c-1.086-1.086-2.854-1.086-3.939 0l-.464.464c-.811.81-1.887 1.256-3.031 1.256-2.364 0-4.286-1.922-4.286-4.286 0-1.145.446-2.221 1.255-3.03l.464-.464c1.086-1.086 1.086-2.854 0-3.939l-1.002-1.002c-.293-.293-.293-.768 0-1.061s.768-.293 1.061 0l1.002 1.002c1.671 1.671 1.671 4.39 0 6.061l-.464.464c-.526.526-.816 1.225-.816 1.969 0 1.536 1.25 2.786 2.786 2.786.744 0 1.443-.29 1.97-.816l.464-.464c1.671-1.671 4.39-1.671 6.061 0l2.5 2.5c.293.293.293.768 0 1.061-.147.146-.339.219-.531.219z"/></svg>