<svg id="_x31__x2C_5" height="512" viewBox="0 0 24 24" width="512" xmlns="http://www.w3.org/2000/svg"><g fill="#cfd8dc"><path d="m3.016 14.125h1.719c.285 0 .516-.3.516-.669v-10.923c0-.984-.617-1.783-1.375-1.783s-1.376.8-1.376 1.783v10.923c0 .369.231.669.516.669z"/><path d="m5 21.083h-2c-.276 0-.5.224-.5.5v.333c0 .827.673 1.5 1.5 1.5s1.5-.673 1.5-1.5v-.333c0-.276-.224-.5-.5-.5z"/><path d="m11.016 8.25h1.719c.285 0 .516-.28.516-.625v-5.208c0-.919-.617-1.667-1.375-1.667s-1.376.747-1.376 1.667v5.208c0 .345.231.625.516.625z"/><path d="m12.75 15.25h-2c-.276 0-.5.283-.5.632v5.474c0 1.045.673 1.895 1.5 1.895s1.5-.85 1.5-1.895v-5.474c0-.349-.224-.632-.5-.632z"/><path d="m20.781 9.589h-1.563c-.259 0-.469.303-.469.677v11.054c0 .995.561 1.805 1.25 1.805s1.25-.809 1.25-1.805v-11.054c.001-.374-.209-.677-.468-.677z"/><path d="m20 .583c-.827 0-1.5.673-1.5 1.5v.333c0 .276.224.5.5.5h2c.276 0 .5-.224.5-.5v-.333c0-.827-.673-1.5-1.5-1.5z"/></g><path d="m5.188 14.25h-2.625c-.724 0-1.313.661-1.313 1.474v2.526h5.25v-2.526c0-.813-.589-1.474-1.312-1.474z" fill="#607d8b"/><path d="m1.5 19.85c0 .772.561 1.4 1.25 1.4h2.5c.689 0 1.25-.628 1.25-1.4v-1.6h-5z" fill="#90a4ae"/><path d="m9.25 13.714c0 .758.617 1.375 1.375 1.375h2.75c.758 0 1.375-.617 1.375-1.375v-1.571h-5.5z" fill="#90a4ae"/><path d="m13.375 8.411h-2.75c-.758 0-1.375.617-1.375 1.375v2.357h5.5v-2.357c0-.758-.617-1.375-1.375-1.375z" fill="#607d8b"/><path d="m22.75 8.214c0 .758-.617 1.375-1.375 1.375h-2.75c-.758 0-1.375-.617-1.375-1.375v-1.571h5.5z" fill="#90a4ae"/><path d="m17.25 6.643v-2.357c0-.758.617-1.375 1.375-1.375h2.75c.758 0 1.375.617 1.375 1.375v2.357z" fill="#607d8b"/><path d="m5.25 15h-2.5c-.414 0-.75-.336-.75-.75v-12.25c0-1.103.897-2 2-2s2 .897 2 2v12.25c0 .414-.336.75-.75.75zm-1.75-1.5h1v-11.5c0-.276-.224-.5-.5-.5s-.5.224-.5.5z"/><path d="m4 24c-1.241 0-2.25-1.009-2.25-2.25v-.5c0-.414.336-.75.75-.75s.75.336.75.75v.5c0 .414.336.75.75.75s.75-.336.75-.75v-.5c0-.414.336-.75.75-.75s.75.336.75.75v.5c0 1.241-1.009 2.25-2.25 2.25z"/><path d="m5.75 22h-3.5c-.965 0-1.75-.785-1.75-1.75v-5c0-.965.785-1.75 1.75-1.75h3.5c.965 0 1.75.785 1.75 1.75v5c0 .965-.785 1.75-1.75 1.75zm-3.5-7c-.138 0-.25.112-.25.25v5c0 .138.112.25.25.25h3.5c.138 0 .25-.112.25-.25v-5c0-.138-.112-.25-.25-.25z"/><path d="m6.5 19h-5c-.414 0-.75-.336-.75-.75s.336-.75.75-.75h5c.414 0 .75.336.75.75s-.336.75-.75.75z"/><path d="m13.25 9h-2.5c-.414 0-.75-.336-.75-.75v-6.25c0-1.103.897-2 2-2s2 .897 2 2v6.25c0 .414-.336.75-.75.75zm-1.75-1.5h1v-5.5c0-.276-.224-.5-.5-.5s-.5.224-.5.5z"/><path d="m12 24c-1.241 0-2.25-1.009-2.25-2.25v-6.5c0-.414.336-.75.75-.75s.75.336.75.75v6.5c0 .414.336.75.75.75s.75-.336.75-.75v-6.5c0-.414.336-.75.75-.75s.75.336.75.75v6.5c0 1.241-1.009 2.25-2.25 2.25z"/><path d="m13.75 16h-3.5c-.965 0-1.75-.785-1.75-1.75v-5c0-.965.785-1.75 1.75-1.75h3.5c.965 0 1.75.785 1.75 1.75v5c0 .965-.785 1.75-1.75 1.75zm-3.5-7c-.138 0-.25.112-.25.25v5c0 .138.112.25.25.25h3.5c.138 0 .25-.112.25-.25v-5c0-.138-.112-.25-.25-.25z"/><path d="m14.5 13h-5c-.414 0-.75-.336-.75-.75s.336-.75.75-.75h5c.414 0 .75.336.75.75s-.336.75-.75.75z"/><path d="m20 24c-1.103 0-2-.897-2-2v-12.25c0-.414.336-.75.75-.75h2.5c.414 0 .75.336.75.75v12.25c0 1.103-.897 2-2 2zm-.5-13.5v11.5c0 .276.224.5.5.5s.5-.224.5-.5v-11.5z"/><path d="m21.5 3.5c-.414 0-.75-.336-.75-.75v-.5c0-.414-.336-.75-.75-.75s-.75.336-.75.75v.5c0 .414-.336.75-.75.75s-.75-.336-.75-.75v-.5c0-1.241 1.009-2.25 2.25-2.25s2.25 1.009 2.25 2.25v.5c0 .414-.336.75-.75.75z"/><path d="m21.75 10.5h-3.5c-.965 0-1.75-.785-1.75-1.75v-5c0-.965.785-1.75 1.75-1.75h3.5c.965 0 1.75.785 1.75 1.75v5c0 .965-.785 1.75-1.75 1.75zm-3.5-7c-.138 0-.25.112-.25.25v5c0 .138.112.25.25.25h3.5c.138 0 .25-.112.25-.25v-5c0-.138-.112-.25-.25-.25z"/><path d="m22.5 7.5h-5c-.414 0-.75-.336-.75-.75s.336-.75.75-.75h5c.414 0 .75.336.75.75s-.336.75-.75.75z"/></svg>