<svg enable-background="new 0 0 24 24" height="512" viewBox="0 0 24 24" width="512" xmlns="http://www.w3.org/2000/svg"><g id="color"><g><circle cx="12" cy="12" fill="#ffc107" r="11"/></g></g><g id="regular"><g><path d="m12.965 16.5c-2.481 0-4.5-2.019-4.5-4.5s2.019-4.5 4.5-4.5c1.215 0 2.394.501 3.231 1.374.287.299.277.774-.021 1.061-.299.288-.774.277-1.061-.021-.565-.59-1.328-.914-2.149-.914-1.654 0-3 1.346-3 3s1.346 3 3 3c.821 0 1.584-.324 2.149-.913.287-.299.762-.308 1.061-.021s.309.762.021 1.061c-.838.872-2.016 1.373-3.231 1.373z"/></g><g><path d="m11.75 11.25h-4c-.414 0-.75-.336-.75-.75s.336-.75.75-.75h4c.414 0 .75.336.75.75s-.336.75-.75.75z"/></g><g><path d="m11.75 14.25h-4.25c-.414 0-.75-.336-.75-.75s.336-.75.75-.75h4.25c.414 0 .75.336.75.75s-.336.75-.75.75z"/></g><g><path d="m12 23c-6.065 0-11-4.935-11-11s4.935-11 11-11 11 4.935 11 11-4.935 11-11 11zm0-20.5c-5.238 0-9.5 4.262-9.5 9.5s4.262 9.5 9.5 9.5 9.5-4.262 9.5-9.5-4.262-9.5-9.5-9.5z"/></g></g></svg>