<svg id="Regular" height="512" viewBox="0 0 24 24" width="512" xmlns="http://www.w3.org/2000/svg"><path d="m2.36 5.85c-.53.32-.73.94-.54 1.5.2.56.77.9 1.36.9.27 0 .55-.08.79-.24 4.64-3.14 11.58-4.27 18.28-1.59-5.54-5-13.38-4.59-19.89-.57z" fill="#607d8b"/><path d="m3.177 9.002c-.234 0-.47-.037-.702-.113-.642-.209-1.137-.679-1.357-1.289-.323-.899.025-1.88.845-2.387 7.347-4.539 15.312-4.293 20.789.645.27.243.326.645.134.954-.193.308-.578.435-.915.3-5.95-2.376-12.687-1.796-17.578 1.518-.364.245-.785.372-1.216.372zm9.365-5.519c-3.174 0-6.542.999-9.791 3.007-.214.132-.303.374-.221.602.061.17.211.306.41.371.214.07.437.042.611-.075 3.957-2.68 9.014-3.715 13.991-3.002-1.573-.601-3.257-.903-5-.903z"/><path d="m12 19.016c-3.934 0-7.868-1.91-11.774-5.729-.296-.29-.301-.764-.012-1.061.29-.296.764-.301 1.061-.012 7.217 7.057 14.234 7.057 21.451 0 .297-.289.772-.284 1.061.012.29.296.284.771-.012 1.061-3.907 3.819-7.841 5.729-11.775 5.729z"/><path d="m12 22c-.414 0-.75-.336-.75-.75v-2.75c0-.414.336-.75.75-.75s.75.336.75.75v2.75c0 .414-.336.75-.75.75z"/><path d="m23.25 17.357c-.215 0-.428-.092-.576-.27l-1.8-2.157c-.266-.318-.223-.791.095-1.056.317-.266.792-.222 1.056.095l1.8 2.157c.266.318.223.791-.095 1.056-.14.118-.31.175-.48.175z"/><path d="m.75 17.25c-.175 0-.352-.062-.494-.187-.312-.273-.342-.747-.069-1.058l1.8-2.05c.272-.312.747-.342 1.058-.069.312.273.342.747.069 1.058l-1.8 2.05c-.148.17-.356.256-.564.256z"/><path d="m18.25 20.5c-.268 0-.528-.144-.663-.397l-1.25-2.348c-.194-.366-.056-.82.31-1.015.363-.194.82-.057 1.015.31l1.25 2.348c.194.366.056.82-.31 1.015-.112.059-.232.087-.352.087z"/><path d="m5.75 20.5c-.119 0-.24-.028-.352-.088-.366-.195-.504-.649-.31-1.015l1.25-2.348c.194-.366.649-.503 1.015-.31.366.195.504.649.31 1.015l-1.25 2.348c-.136.254-.395.398-.663.398z"/></svg>