<?xml version="1.0" encoding="iso-8859-1"?>
<!-- Generator: Adobe Illustrator 19.0.0, SVG Export Plug-In . SVG Version: 6.00 Build 0)  -->
<svg version="1.1" id="Capa_1" xmlns="http://www.w3.org/2000/svg" xmlns:xlink="http://www.w3.org/1999/xlink" x="0px" y="0px"
	 viewBox="0 0 512 512" style="enable-background:new 0 0 512 512;" xml:space="preserve">
<path style="fill:#1565C0;" d="M0,240v224c0,8.837,7.163,16,16,16h144V224H16C7.163,224,0,231.163,0,240z"/>
<path style="fill:#BBDEFB;" d="M448,192H320V96c0-35.346-28.654-64-64-64h-48c-8.837,0-16,7.163-16,16v75.744l-61.888,108.32
	c-1.392,2.413-2.121,5.151-2.112,7.936v224c0,8.837,7.163,16,16,16h256.8c25.299,0.003,48.225-14.896,58.496-38.016l51.2-115.488
	c0.946-2.038,1.458-4.25,1.504-6.496v-64C512,220.654,483.346,192,448,192z"/>
<path d="M144,480H16c-8.837,0-16-7.163-16-16V240c0-8.837,7.163-16,16-16h128c8.837,0,16,7.163,16,16s-7.163,16-16,16H32v192h112
	c8.837,0,16,7.163,16,16S152.837,480,144,480z"/>
<path d="M400.8,480H144c-8.837,0-16-7.163-16-16V240c0.002-2.784,0.73-5.519,2.112-7.936L192,123.744V48c0-8.837,7.163-16,16-16h48
	c35.346,0,64,28.654,64,64v96h128c35.346,0,64,28.654,64,64v64c-0.019,2.205-0.487,4.382-1.376,6.4l-51.2,115.488
	C449.163,465.088,426.168,480.037,400.8,480z M160,448h240.8c12.649,0.002,24.112-7.448,29.248-19.008L480,316.608V256
	c0-17.673-14.327-32-32-32H304c-8.837,0-16-7.163-16-16V96c0-17.673-14.327-32-32-32h-32v64c-0.002,2.784-0.73,5.519-2.112,7.936
	L160,244.256V448z"/>
<g>
</g>
<g>
</g>
<g>
</g>
<g>
</g>
<g>
</g>
<g>
</g>
<g>
</g>
<g>
</g>
<g>
</g>
<g>
</g>
<g>
</g>
<g>
</g>
<g>
</g>
<g>
</g>
<g>
</g>
</svg>
