<?xml version="1.0" encoding="iso-8859-1"?>
<!-- Generator: Adobe Illustrator 19.0.0, SVG Export Plug-In . SVG Version: 6.00 Build 0)  -->
<svg version="1.1" id="Capa_1" xmlns="http://www.w3.org/2000/svg" xmlns:xlink="http://www.w3.org/1999/xlink" x="0px" y="0px"
	 viewBox="0 0 512.209 512.209" style="enable-background:new 0 0 512.209 512.209;" xml:space="preserve">
<path style="fill:#ECEFF1;" d="M111.609,52.57c-43.732,23.56-81.073,57.409-108.8,98.624c-4.422,6.621-3.304,15.485,2.624,20.8
	L187.897,336.09c2.936,2.637,6.742,4.095,10.688,4.096c0.999,0.001,1.996-0.096,2.976-0.288c4.908-0.933,9.098-4.106,11.328-8.576
	c4.235-8.591,10.915-15.739,19.2-20.544L111.609,52.57z"/>
<g>
	<path style="fill:#F44336;" d="M509.465,151.194c-27.709-41.232-65.054-75.084-108.8-98.624L280.377,310.842
		c8.279,4.813,14.957,11.958,19.2,20.544c3.948,7.906,13.557,11.114,21.463,7.167c1.278-0.638,2.465-1.445,3.529-2.398l182.4-164.16
		C512.855,166.645,513.918,157.784,509.465,151.194z"/>
	<path style="fill:#F44336;" d="M346.905,436.186l-80-72c-6.08-5.458-15.296-5.458-21.376,0l-80,72
		c-6.576,5.903-7.122,16.019-1.219,22.595c0.277,0.309,0.567,0.607,0.867,0.893c50.948,48.64,131.132,48.64,182.08,0
		c6.404-6.089,6.66-16.216,0.572-22.62c-0.286-0.301-0.583-0.59-0.892-0.868H346.905z"/>
	<path style="fill:#F44336;" d="M111.609,52.57l120.704,258.08c7.183-4.386,15.456-6.659,23.872-6.56v-288
		C205.722,16.143,156.056,28.675,111.609,52.57z"/>
</g>
<path style="fill:#ECEFF1;" d="M256.185,16.09v288c8.416-0.099,16.689,2.174,23.872,6.56L400.761,52.57
	C356.317,28.668,306.648,16.135,256.185,16.09z"/>
<path d="M336.185,464.09c-3.95-0.009-7.757-1.48-10.688-4.128l-320-288c-6.666-5.801-7.367-15.907-1.566-22.573
	c5.801-6.666,15.907-7.367,22.573-1.566c0.125,0.109,0.248,0.219,0.369,0.331l320,288c6.592,5.885,7.166,15.999,1.281,22.591
	C345.11,462.154,340.755,464.099,336.185,464.09z"/>
<path d="M176.185,464.09c-8.837-0.002-15.999-7.166-15.997-16.003c0.001-4.541,1.931-8.867,5.309-11.901l320-288
	c6.666-5.801,16.772-5.1,22.573,1.566c5.674,6.52,5.144,16.369-1.197,22.242l-320,288
	C183.937,462.63,180.131,464.089,176.185,464.09z"/>
<path d="M256.185,496.09c-33.919,0.021-66.535-13.06-91.04-36.512c-6.598-5.878-7.181-15.992-1.302-22.59
	c5.878-6.598,15.992-7.181,22.59-1.302c0.273,0.243,0.537,0.495,0.792,0.756c38.593,36.84,99.327,36.84,137.92,0
	c6.18-6.316,16.31-6.426,22.626-0.246c6.316,6.18,6.426,16.31,0.246,22.626c-0.255,0.261-0.52,0.513-0.793,0.756
	C322.72,483.03,290.104,496.111,256.185,496.09z"/>
<path d="M496.185,176.09c-5.334-0.006-10.314-2.67-13.28-7.104C398.892,43.772,229.28,10.372,104.066,94.385
	c-29.481,19.78-54.821,45.12-74.601,74.601c-5.239,7.116-15.254,8.639-22.37,3.4c-6.674-4.913-8.492-14.109-4.19-21.192
	C96.712,11.311,286.154-26.041,426.037,67.766c32.975,22.113,61.314,50.453,83.428,83.428c4.904,7.336,2.943,17.258-4.384,22.176
	C502.46,175.157,499.357,176.106,496.185,176.09z"/>
<path d="M313.785,340.25c-6.088-0.006-11.645-3.467-14.336-8.928c-11.555-23.859-40.264-33.833-64.123-22.277
	c-9.721,4.708-17.569,12.557-22.277,22.277c-3.906,7.953-13.519,11.234-21.472,7.328c-7.953-3.906-11.234-13.519-7.328-21.472
	c19.259-39.764,67.107-56.388,106.871-37.129c16.201,7.847,29.282,20.928,37.129,37.129c3.916,7.921,0.67,17.518-7.252,21.434
	c-0.004,0.002-0.008,0.004-0.012,0.006C318.74,339.701,316.277,340.26,313.785,340.25z"/>
<path d="M256.185,304.09c-8.837,0-16-7.163-16-16v-256c0-8.837,7.163-16,16-16c8.837,0,16,7.163,16,16v256
	C272.185,296.926,265.021,304.09,256.185,304.09z"/>
<path d="M223.865,313.05c-6.271-0.002-11.964-3.667-14.56-9.376l-104.64-230.4c-3.478-8.123,0.288-17.528,8.412-21.006
	c7.867-3.368,16.991,0.05,20.708,7.758l104.64,230.4c3.656,8.041,0.104,17.524-7.936,21.184
	C228.412,312.568,226.151,313.06,223.865,313.05z"/>
<path d="M288.505,313.05c-2.287,0.01-4.548-0.482-6.624-1.44c-8.039-3.66-11.592-13.143-7.936-21.184l104.64-230.4
	c3.839-7.959,13.403-11.299,21.362-7.46c7.707,3.718,11.126,12.842,7.758,20.708l-104.64,230.4
	C300.468,309.383,294.776,313.048,288.505,313.05z"/>
<g>
</g>
<g>
</g>
<g>
</g>
<g>
</g>
<g>
</g>
<g>
</g>
<g>
</g>
<g>
</g>
<g>
</g>
<g>
</g>
<g>
</g>
<g>
</g>
<g>
</g>
<g>
</g>
<g>
</g>
</svg>
