<svg id="_x31__x2C_5" height="512" viewBox="0 0 24 24" width="512" xmlns="http://www.w3.org/2000/svg"><path d="m22.233 13.223c-.159-2.394-1.931-4.295-4.33-4.62-1.791-.243-4.014 1.146-4.809 3.003-.307.717-.454 1.33-.464 1.895-3.092-.516-3.43 1.505-4.348 3.084-.301.518-1.044.579-1.449.132-.766-.846-1.443-1.939-1.656-2.346-.443-.849-1.148-1.181-1.935-1.095-1.112.121-1.974.673-1.191 3.176 1.332 4.259 6.38 7.193 11.047 6.754 4.946-.464 9.468-4.965 9.135-9.983z" fill="#ffcc80"/><path d="m12.16 24.001c-4.791 0-9.511-3.126-10.824-7.325-.457-1.46-.45-2.475.02-3.192.532-.813 1.491-.918 1.807-.952 1.143-.125 2.12.421 2.681 1.493.186.356.833 1.401 1.546 2.19.052.056.121.058.146.052.032-.003.075-.017.1-.058.146-.252.276-.516.406-.777.64-1.294 1.419-2.868 3.921-2.767.089-.424.237-.873.443-1.354.924-2.156 3.49-3.733 5.599-3.451 2.749.372 4.796 2.558 4.978 5.313.347 5.219-4.238 10.256-9.811 10.78-.338.032-.675.048-1.012.048zm-8.683-9.987c-.05 0-.101.003-.152.009-.51.055-.651.188-.714.282-.091.139-.256.603.157 1.924 1.205 3.854 5.816 6.653 10.262 6.231 4.799-.451 8.75-4.744 8.455-9.187-.135-2.036-1.649-3.651-3.683-3.927-1.465-.19-3.362 1.022-4.019 2.555-.753 1.759-.688 2.76 1.664 4.404.34.237.422.704.185 1.044-.237.339-.704.423-1.044.185-1.6-1.118-2.464-2.162-2.674-3.369-1.531-.075-1.938.735-2.53 1.931-.145.293-.29.587-.453.867-.262.45-.714.74-1.24.796-.53.052-1.058-.146-1.413-.537-.789-.872-1.501-1.998-1.765-2.503-.247-.473-.588-.705-1.036-.705z"/><circle cx="17" cy="13" r="1"/><path d="m9.804 14.706c-.097 0-.195-.019-.29-.059-1.908-.8-3.072-2.654-2.966-4.723.105-2.068 1.452-3.792 3.431-4.394l1.041-.316c.828-.251 1.499-.852 1.842-1.648.344-.798.318-1.702-.069-2.48-.186-.371-.034-.821.336-1.006.371-.186.821-.034 1.006.336.586 1.174.625 2.539.105 3.744-.518 1.202-1.532 2.11-2.784 2.49l-1.041.316c-1.658.504-2.311 1.898-2.369 3.035-.059 1.138.449 2.593 2.048 3.264.382.16.562.6.401.981-.12.287-.398.46-.691.46z"/></svg>