<?xml version="1.0" encoding="iso-8859-1"?>
<!-- Generator: Adobe Illustrator 19.0.0, SVG Export Plug-In . SVG Version: 6.00 Build 0)  -->
<svg version="1.1" id="Capa_1" xmlns="http://www.w3.org/2000/svg" xmlns:xlink="http://www.w3.org/1999/xlink" x="0px" y="0px"
	 viewBox="0 0 512.001 512.001" style="enable-background:new 0 0 512.001 512.001;" xml:space="preserve">
<g>
	<path style="fill:#D32F2F;" d="M144.001,256.001h-48c-35.346,0-64,28.654-64,64s28.654,64,64,64h48c8.837,0,16-7.163,16-16v-96
		C160.001,263.165,152.837,256.001,144.001,256.001z"/>
	<path style="fill:#D32F2F;" d="M416.001,256.001h-48c-8.837,0-16,7.163-16,16v96c0,8.837,7.163,16,16,16h48
		c35.346,0,64-28.654,64-64S451.347,256.001,416.001,256.001z"/>
</g>
<g>
	<path style="fill:#F44336;" d="M346.433,37.729c-23.812-24.273-56.43-37.881-90.432-37.728
		c-63.539,0.217-117.357,46.891-126.56,109.76c-1.238,8.749,4.852,16.846,13.602,18.083c0.794,0.112,1.596,0.165,2.398,0.157h221.44
		c8.837,0.004,16.003-7.157,16.007-15.993c0-0.773-0.055-1.546-0.167-2.311C378.77,82.401,366.031,57.136,346.433,37.729z"/>
	<path style="fill:#F44336;" d="M384.001,128.001h-256v368c0,8.837,7.163,16,16,16h224c8.837,0,16-7.163,16-16V128.001z"/>
</g>
<path style="fill:#D32F2F;" d="M128.001,112.001h256c17.673,0,32,14.327,32,32l0,0c0,17.673-14.327,32-32,32h-256
	c-17.673,0-32-14.327-32-32l0,0C96.001,126.328,110.328,112.001,128.001,112.001z"/>
<path d="M366.689,128.001c-7.937-0.013-14.665-5.842-15.808-13.696c-2.908-20.436-12.401-39.367-27.04-53.92
	c-17.834-18.261-42.315-28.504-67.84-28.384c-47.619,0.16-87.96,35.126-94.88,82.24c-1.085,8.77-9.075,14.999-17.844,13.913
	c-8.77-1.085-14.999-9.075-13.913-17.844c0.023-0.184,0.049-0.367,0.078-0.549c9.229-62.855,63.031-109.516,126.56-109.76
	c34.002-0.153,66.62,13.455,90.432,37.728c19.54,19.429,32.222,44.691,36.128,71.968c1.362,8.731-4.612,16.913-13.343,18.275
	c-0.064,0.01-0.129,0.02-0.193,0.029C368.247,128.065,367.466,128.065,366.689,128.001z"/>
<path d="M368.001,512.001h-224c-8.837,0-16-7.163-16-16v-320c0-8.837,7.163-16,16-16h224c8.837,0,16,7.163,16,16v320
	C384.001,504.838,376.837,512.001,368.001,512.001z M160.001,480.001h192v-288h-192V480.001z"/>
<path d="M400.001,512.001h-288c-8.837,0-16-7.163-16-16s7.163-16,16-16h288c8.837,0,16,7.163,16,16S408.837,512.001,400.001,512.001
	z"/>
<path d="M144.001,384.001h-48c-35.346,0-64-28.654-64-64s28.654-64,64-64h48c8.837,0,16,7.163,16,16v96
	C160.001,376.838,152.837,384.001,144.001,384.001z M96.001,288.001c-17.673,0-32,14.327-32,32s14.327,32,32,32h32v-64H96.001z"/>
<path d="M416.001,384.001h-48c-8.837,0-16-7.163-16-16v-96c0-8.837,7.163-16,16-16h48c35.346,0,64,28.654,64,64
	S451.347,384.001,416.001,384.001z M384.001,352.001h32c17.673,0,32-14.327,32-32s-14.327-32-32-32h-32V352.001z"/>
<path d="M384.001,192.001h-256c-26.51,0-48-21.49-48-48s21.49-48,48-48h256c26.51,0,48,21.49,48,48S410.51,192.001,384.001,192.001z
	 M128.001,128.001c-8.837,0-16,7.163-16,16s7.163,16,16,16h256c8.837,0,16-7.163,16-16s-7.163-16-16-16H128.001z"/>
<path d="M208.001,416.001c-8.837,0-16-7.163-16-16v-160c0-8.837,7.163-16,16-16s16,7.163,16,16v160
	C224.001,408.838,216.837,416.001,208.001,416.001z"/>
<path d="M304.001,416.001c-8.837,0-16-7.163-16-16v-160c0-8.837,7.163-16,16-16s16,7.163,16,16v160
	C320.001,408.838,312.837,416.001,304.001,416.001z"/>
<g>
</g>
<g>
</g>
<g>
</g>
<g>
</g>
<g>
</g>
<g>
</g>
<g>
</g>
<g>
</g>
<g>
</g>
<g>
</g>
<g>
</g>
<g>
</g>
<g>
</g>
<g>
</g>
<g>
</g>
</svg>
