<svg id="regular" enable-background="new 0 0 24 24" height="512" viewBox="0 0 24 24" width="512" xmlns="http://www.w3.org/2000/svg"><path d="m22.562 23.25h-8.716c-.225 0-.434-.117-.552-.31-.118-.192-.127-.431-.024-.633l4.182-8.205c.109-.213.326-.349.566-.353.273.019.463.125.578.334l4.534 8.205c.111.201.108.445-.009.642-.118.199-.33.32-.559.32z" fill="#1976d2"/><path d="m13.243 13.2-1.641 1.385c-.149.128-.33.192-.512.192-.202 0-.405-.075-.565-.234l-1.034-1.034-1.034 1.034c-.298.298-.767.309-1.076.043l-1.577-1.322-4.828 8.826c-.365.666.118 1.48.877 1.48h15.519c.765 0 1.247-.824.871-1.491z" fill="#2196f3"/><path d="m14.655 4.483h-4.56c-.329 0-.595-.267-.595-.595v-2.776c0-.328.266-.595.595-.595h4.56c.232 0 .443.135.54.346s.063.459-.089.636l-.857 1.001.858 1.001c.151.177.186.425.089.636s-.308.346-.541.346z" fill="#f44336"/><path d="m12.887 12.617-1.753 1.481c-.115.099-.255.148-.395.148-.156 0-.313-.058-.436-.181l-.798-.798-.798.798c-.23.23-.592.239-.831.033l-1.703-1.432.609-1.103 2.18-3.991c.107-.197.313-.321.543-.321.206-.025.428.115.535.313l2.23 3.958z" fill="#eceff1"/><path d="m18.5 24h-17.75c-.265 0-.51-.14-.645-.368s-.14-.51-.013-.742l8.75-16c.131-.239.381-.389.654-.39.236-.013.524.145.658.382l9 16c.13.232.128.516-.006.746-.135.23-.381.372-.648.372zm-16.485-1.5h15.203l-7.709-13.704z"/><path d="m9.5 8c-.414 0-.75-.336-.75-.75v-6.5c0-.414.336-.75.75-.75h5.75c.293 0 .559.17.681.437.123.266.079.579-.112.802l-1.081 1.261 1.082 1.262c.191.223.234.536.112.802-.123.266-.389.436-.682.436h-5v2.25c0 .414-.336.75-.75.75zm.75-4.5h3.369l-.438-.512c-.241-.281-.241-.695 0-.977l.438-.511h-3.369z"/><path d="m11 15c-.192 0-.385-.074-.53-.22l-.97-.97-.97.97c-.274.274-.71.294-1.008.048l-1.43-1.18c-.319-.264-.365-.736-.101-1.056.264-.319.734-.365 1.056-.101l.904.747 1.019-1.018c.293-.293.768-.293 1.061 0l1.018 1.018.904-.747c.321-.263.792-.218 1.056.101.264.32.218.792-.101 1.056l-1.43 1.18c-.14.115-.309.172-.478.172z"/><g><path d="m23.25 24h-4.75c-.414 0-.75-.336-.75-.75s.336-.75.75-.75h3.479l-3.951-7.15-1.659 3.26c-.188.369-.64.517-1.009.328-.369-.188-.516-.639-.328-1.009l2.3-4.52c.126-.247.378-.405.656-.41.281 0 .535.144.669.387l5.25 9.5c.128.232.125.515-.01.744-.136.23-.381.37-.647.37z"/></g></svg>