<svg id="_x31__x2C_5" height="512" viewBox="0 0 24 24" width="512" xmlns="http://www.w3.org/2000/svg"><path d="m5.218 1.066c.328-.428.753-.419 1.079.014.599.794.606 2.522.014 3.325-.343.465-.784.46-1.131-.013-.548-.746-.611-2.48.038-3.326z" fill="#cfd8dc"/><path d="m11.621 23.148c1.145-.331 1.951-1.073 2.299-2.266.633-2.17 1.249-4.347 1.814-6.538.632-2.45-.329-4.788-2.443-6.049-1.435-.855-2.971-1.195-4.592-.758-2.458.662-3.075 3.115-1.733 5.27.609.978 1.987 2.315 1.237 4.722-.161.516-.329 1.033-.446 1.561-.418 1.886.634 3.653 2.421 4.098.297.074.946.104 1.443-.04z" fill="#cfd8dc"/><path d="m9.613 5c-.24 0-.679-.101-.91-.774-.233-.683-.278-2.168.017-2.992.238-.665.682-.757.895-.734.19 0 .658.075.896.748.264.751.267 2.23.007 2.987-.23.666-.665.765-.905.765z"/><path d="m5.753 5.5c-.445 0-.863-.236-1.178-.665-.707-.965-.844-3.064.048-4.226.301-.392.701-.609 1.128-.609h.004c.431.001.836.224 1.141.627.799 1.06.808 3.15.019 4.222-.309.42-.721.651-1.162.651zm-.001-3.889c-.355.584-.316 1.757-.012 2.27.341-.62.33-1.737.012-2.27z"/><path d="m12.511 5.697c-.318-.029-.722-.231-.84-1.023-.092-.617-.06-1.304.086-1.837.221-.799.746-.843.954-.834.337.024.762.238.874 1.121.078.602.018 1.404-.141 1.864-.152.442-.477.745-.933.709z"/><path d="m15.33 6.992c-.329-.047-.737-.285-.813-1.156-.049-.572.003-1.101.152-1.572.248-.78.808-.778.978-.759.501.059.784.473.842 1.232.034.451-.011 1.117-.191 1.587v.001c-.201.524-.589.721-.968.667z"/><path d="m17.58 9.742c-.329-.047-.737-.285-.813-1.156-.049-.572.003-1.101.152-1.572.248-.78.808-.776.978-.759.501.059.784.473.842 1.232.034.451-.011 1.117-.191 1.587v.001c-.201.524-.589.721-.968.667z"/><path d="m10.802 24.001c-.308 0-.594-.032-.805-.085-2.203-.549-3.481-2.693-2.973-4.988.11-.494.262-.979.413-1.463l.05-.159c.525-1.688-.186-2.701-.813-3.594-.127-.18-.245-.349-.345-.509-.838-1.346-1.035-2.837-.541-4.09.445-1.132 1.41-1.948 2.716-2.301 1.721-.465 3.459-.182 5.171.839 2.4 1.433 3.493 4.133 2.785 6.881-.489 1.897-1.051 3.92-1.82 6.561-.408 1.402-1.38 2.362-2.811 2.776-.322.093-.688.132-1.027.132zm-.681-15.906c-.408 0-.816.056-1.227.166-.847.228-1.439.714-1.71 1.402-.318.808-.165 1.809.419 2.747.086.138.188.283.298.439.703.999 1.765 2.509 1.019 4.902l-.051.162c-.139.442-.278.887-.379 1.339-.328 1.481.476 2.86 1.871 3.208.175.043.691.07 1.053-.033.938-.271 1.521-.845 1.787-1.755.765-2.624 1.322-4.634 1.807-6.516.547-2.119-.258-4.118-2.1-5.217-.948-.564-1.868-.844-2.787-.844z"/></svg>