<svg enable-background="new 0 0 24 24" height="512" viewBox="0 0 24 24" width="512" xmlns="http://www.w3.org/2000/svg"><g id="color"><g><g><path d="m12 1.2h-.009c-.177 0-.346.069-.472.192l-10.107 9.9c-.109.107-.179.249-.198.401-.012.099-.014.197-.014.307 0 5.955 4.845 10.8 10.8 10.8s10.8-4.845 10.8-10.8-4.845-10.8-10.8-10.8z" fill="#2196f3"/></g></g><g><g><path d="m11.432 1.367c-.227-.102-.494-.054-.672.12l-9.096 8.91c-.178.175-.231.441-.134.67.095.225.316.372.56.372h.014c5.209-.12 9.465-4.289 9.69-9.491.009-.249-.134-.479-.362-.581z" fill="#64b5f6"/></g></g></g><g id="_x31_.5"><g><g><path d="m12 24c-6.617 0-12-5.383-12-12 0-.122.002-.231.015-.341.05-.41.425-.707.835-.653.411.05.704.424.654.835-.006.051-.004.101-.004.159 0 5.79 4.71 10.5 10.5 10.5s10.5-4.71 10.5-10.5-4.71-10.5-10.5-10.5c-.414 0-.755-.336-.755-.75s.331-.75.745-.75h.01c6.617 0 12 5.383 12 12s-5.383 12-12 12z"/></g></g><g><g><path d="m.75 12.5c-.301 0-.574-.181-.691-.459-.12-.283-.054-.611.166-.827l11.23-11c.22-.215.549-.274.83-.148.281.125.458.409.444.717-.276 6.422-5.531 11.569-11.962 11.717-.005 0-.011 0-.017 0zm10.177-9.669-8.073 7.908c3.953-.895 7.099-3.977 8.073-7.908z"/></g></g><g><g><g><path d="m14.975 14.311c-.192 0-.384-.073-.53-.22l-3.536-3.535c-.141-.141-.22-.331-.22-.53s.079-.39.22-.53l1.768-1.768c.293-.293.768-.293 1.061 0s.293.768 0 1.061l-1.238 1.236 2.475 2.475 1.237-1.237c.293-.293.768-.293 1.061 0s.293.768 0 1.061l-1.768 1.768c-.146.145-.338.219-.53.219z"/></g></g><g><g><path d="m13.207 12.543c-.192 0-.384-.073-.53-.22-.293-.293-.293-.768 0-1.061l1.768-1.768c.293-.293.768-.293 1.061 0s.293.768 0 1.061l-1.768 1.768c-.147.147-.339.22-.531.22z"/></g></g><g><g><path d="m18.157 11.129c-.192 0-.384-.073-.53-.22l-3.536-3.536c-.141-.141-.22-.331-.22-.53s.079-.39.22-.53l1.768-1.768c.293-.293.768-.293 1.061 0s.293.768 0 1.061l-1.238 1.237 2.475 2.476 1.238-1.237c.293-.293.768-.293 1.061 0s.293.768 0 1.061l-1.768 1.768c-.147.145-.339.218-.531.218z"/></g></g><g><g><path d="m16.389 9.361c-.192 0-.384-.073-.53-.22-.293-.293-.293-.768 0-1.061l1.768-1.769c.293-.293.768-.293 1.061 0s.293.768 0 1.061l-1.768 1.769c-.147.147-.339.22-.531.22z"/></g></g><g><g><path d="m8.611 20.675c-.192 0-.384-.073-.53-.22l-3.536-3.536c-.141-.141-.22-.331-.22-.53s.079-.39.22-.53l1.768-1.768c.293-.293.768-.293 1.061 0s.293.768 0 1.061l-1.238 1.237 3.005 3.006c.293.293.293.768 0 1.061-.146.146-.338.219-.53.219z"/></g></g><g><g><path d="m11.793 17.492c-.192 0-.384-.073-.53-.22l-1.756-1.756c-.008-.008-.017-.016-.024-.024l-1.755-1.755c-.141-.141-.22-.331-.22-.53s.079-.39.22-.53l.884-.884c.778-.779 2.048-.78 2.829 0 .658.658.76 1.665.308 2.432h1.813c.414 0 .75.336.75.75s-.336.75-.75.75h-1.725l.487.487c.293.293.293.768 0 1.061-.147.146-.339.219-.531.219zm-2.475-4.285.707.707.354-.354c.194-.195.194-.512 0-.707-.195-.196-.512-.194-.707 0z"/></g></g><g><g><path d="m6.843 18.907c-.192 0-.384-.073-.53-.22-.293-.293-.293-.768 0-1.061l1.768-1.769c.292-.293.768-.293 1.061 0s.293.768 0 1.061l-1.768 1.769c-.147.147-.339.22-.531.22z"/></g></g></g></g></svg>