<svg enable-background="new 0 0 24 24" height="512" viewBox="0 0 24 24" width="512" xmlns="http://www.w3.org/2000/svg"><g id="color"><g><path d="m17.1 20.112h-7.2c-.249 0-.45-.246-.45-.549v-5.765c0-.303.201-.549.45-.549h7.2c.249 0 .45.246.45.549v5.765c0 .304-.201.549-.45.549z" fill="#2196f3"/></g><g><path d="m8.6 20.112h-7.2c-.249 0-.45-.246-.45-.549v-5.765c0-.303.201-.549.45-.549h7.2c.249 0 .45.246.45.549v5.765c0 .304-.201.549-.45.549z" fill="#4caf50"/></g><g><path d="m17.1 12.938h-7.2c-.249 0-.45-.201-.45-.45v-4.726c0-.249.201-.45.45-.45h7.2c.249 0 .45.201.45.45v4.725c0 .249-.201.451-.45.451z" fill="#4caf50"/></g><g><path d="m8.6 12.938h-7.2c-.249 0-.45-.201-.45-.45v-4.726c0-.249.201-.45.45-.45h7.2c.249 0 .45.201.45.45v4.725c0 .249-.201.451-.45.451z" fill="#2196f3"/></g><g><path d="m8.6 6.688h-7.2c-.249 0-.45-.201-.45-.45v-4.725c0-.249.201-.45.45-.45h7.2c.249 0 .45.201.45.45v4.725c0 .248-.201.45-.45.45z" fill="#ffb300"/></g><g><path d="m20.183 23.288h-16.808c-.203 0-.393-.102-.505-.271l-1.62-2.43c-.124-.186-.136-.426-.03-.624.106-.197.312-.321.536-.321h13.162c1.005 0 1.822-.818 1.822-1.823 0-.335.272-.608.608-.608h5.265c.21 0 .406.109.517.288.11.179.121.403.026.591l-2.43 4.86c-.103.207-.313.338-.543.338z" fill="#607d8b"/></g></g><g id="reg"><g><path d="m20.25 24h-17.5c-.251 0-.485-.125-.624-.334l-2-3c-.153-.23-.168-.526-.037-.77.13-.244.385-.396.661-.396h13c1.241 0 2.25-1.01 2.25-2.25 0-.414.336-.75.75-.75h6.5c.26 0 .501.135.638.355.136.222.149.497.033.729l-3 6c-.127.256-.387.416-.671.416zm-17.099-1.5h16.635l2.25-4.5h-4.612c-.349 1.71-1.864 3-3.675 3h-11.598z"/></g><g><path d="m13.75 21h-4.5c-.414 0-.75-.336-.75-.75v-7c0-.414.336-.75.75-.75h8c.414 0 .75.336.75.75v4c0 .414-.336.75-.75.75s-.75-.336-.75-.75v-3.25h-6.5v5.5h3.75c.414 0 .75.336.75.75s-.336.75-.75.75z"/></g><g><path d="m11.75 18.75c-.414 0-.75-.336-.75-.75v-2.75c0-.414.336-.75.75-.75s.75.336.75.75v2.75c0 .414-.336.75-.75.75z"/></g><g><path d="m13.75 21h-4.5c-.414 0-.75-.336-.75-.75v-7c0-.414.336-.75.75-.75h8c.414 0 .75.336.75.75v4c0 .414-.336.75-.75.75s-.75-.336-.75-.75v-3.25h-6.5v5.5h3.75c.414 0 .75.336.75.75s-.336.75-.75.75z"/></g><g><path d="m14.75 18c-.414 0-.75-.336-.75-.75v-2c0-.414.336-.75.75-.75s.75.336.75.75v2c0 .414-.336.75-.75.75z"/></g><g><path d="m11.75 18.75c-.414 0-.75-.336-.75-.75v-2.75c0-.414.336-.75.75-.75s.75.336.75.75v2.75c0 .414-.336.75-.75.75z"/></g><g><path d="m9.25 21h-8c-.414 0-.75-.336-.75-.75v-7c0-.414.336-.75.75-.75h8c.414 0 .75.336.75.75v7c0 .414-.336.75-.75.75zm-7.25-1.5h6.5v-5.5h-6.5z"/></g><g><path d="m3.75 18.75c-.414 0-.75-.336-.75-.75v-2.75c0-.414.336-.75.75-.75s.75.336.75.75v2.75c0 .414-.336.75-.75.75z"/></g><g><path d="m9.25 21h-8c-.414 0-.75-.336-.75-.75v-7c0-.414.336-.75.75-.75h8c.414 0 .75.336.75.75v7c0 .414-.336.75-.75.75zm-7.25-1.5h6.5v-5.5h-6.5z"/></g><g><path d="m6.75 18.75c-.414 0-.75-.336-.75-.75v-2.75c0-.414.336-.75.75-.75s.75.336.75.75v2.75c0 .414-.336.75-.75.75z"/></g><g><path d="m3.75 18.75c-.414 0-.75-.336-.75-.75v-2.75c0-.414.336-.75.75-.75s.75.336.75.75v2.75c0 .414-.336.75-.75.75z"/></g><g><path d="m9.25 14h-8c-.414 0-.75-.336-.75-.75v-6c0-.414.336-.75.75-.75h8c.414 0 .75.336.75.75v6c0 .414-.336.75-.75.75zm-7.25-1.5h6.5v-4.5h-6.5z"/></g><g><path d="m3.75 12c-.414 0-.75-.336-.75-.75v-2c0-.414.336-.75.75-.75s.75.336.75.75v2c0 .414-.336.75-.75.75z"/></g><g><path d="m9.25 14h-8c-.414 0-.75-.336-.75-.75v-6c0-.414.336-.75.75-.75h8c.414 0 .75.336.75.75v6c0 .414-.336.75-.75.75zm-7.25-1.5h6.5v-4.5h-6.5z"/></g><g><path d="m6.75 12c-.414 0-.75-.336-.75-.75v-2c0-.414.336-.75.75-.75s.75.336.75.75v2c0 .414-.336.75-.75.75z"/></g><g><path d="m3.75 12c-.414 0-.75-.336-.75-.75v-2c0-.414.336-.75.75-.75s.75.336.75.75v2c0 .414-.336.75-.75.75z"/></g><g><path d="m9.25 8h-8c-.414 0-.75-.336-.75-.75v-6c0-.414.336-.75.75-.75h8c.414 0 .75.336.75.75v6c0 .414-.336.75-.75.75zm-7.25-1.5h6.5v-4.5h-6.5z"/></g><g><path d="m3.75 6c-.414 0-.75-.336-.75-.75v-2c0-.414.336-.75.75-.75s.75.336.75.75v2c0 .414-.336.75-.75.75z"/></g><g><path d="m9.25 8h-8c-.414 0-.75-.336-.75-.75v-6c0-.414.336-.75.75-.75h8c.414 0 .75.336.75.75v6c0 .414-.336.75-.75.75zm-7.25-1.5h6.5v-4.5h-6.5z"/></g><g><path d="m6.75 6c-.414 0-.75-.336-.75-.75v-2c0-.414.336-.75.75-.75s.75.336.75.75v2c0 .414-.336.75-.75.75z"/></g><g><path d="m3.75 6c-.414 0-.75-.336-.75-.75v-2c0-.414.336-.75.75-.75s.75.336.75.75v2c0 .414-.336.75-.75.75z"/></g><g><path d="m17.25 14h-8c-.414 0-.75-.336-.75-.75v-6c0-.414.336-.75.75-.75h8c.414 0 .75.336.75.75v6c0 .414-.336.75-.75.75zm-7.25-1.5h6.5v-4.5h-6.5z"/></g><g><path d="m14.75 12c-.414 0-.75-.336-.75-.75v-2c0-.414.336-.75.75-.75s.75.336.75.75v2c0 .414-.336.75-.75.75z"/></g><g><path d="m11.75 12c-.414 0-.75-.336-.75-.75v-2c0-.414.336-.75.75-.75s.75.336.75.75v2c0 .414-.336.75-.75.75z"/></g><g><path d="m21.25 18c-.414 0-.75-.336-.75-.75v-4.5c0-.414.336-.75.75-.75s.75.336.75.75v4.5c0 .414-.336.75-.75.75z"/></g></g></svg>