<svg enable-background="new 0 0 24 24" height="512" viewBox="0 0 24 24" width="512" xmlns="http://www.w3.org/2000/svg"><path d="m22.015 9.557-1.762-.224c-.145-.447-.324-.878-.534-1.288l1.089-1.401c.44-.568.389-1.368-.114-1.856l-1.476-1.476c-.493-.508-1.293-.559-1.861-.119l-1.4 1.088c-.41-.209-.841-.388-1.289-.533l-.224-1.759c-.085-.707-.684-1.239-1.394-1.239h-2.1c-.71 0-1.309.532-1.393 1.235l-.224 1.762c-.448.146-.879.324-1.289.533l-1.401-1.088c-.567-.44-1.367-.389-1.856.114l-1.476 1.476c-.508.493-.559 1.294-.119 1.862l1.089 1.401c-.21.41-.389.841-.534 1.288l-1.759.223c-.706.085-1.238.684-1.238 1.394v2.1c0 .71.532 1.309 1.235 1.393l1.762.224c.145.447.324.878.534 1.288l-1.089 1.401c-.44.568-.389 1.368.114 1.856l1.477 1.477c.493.507 1.293.558 1.861.119l1.401-1.089c.41.21.841.389 1.288.534l.224 1.759c.085.706.684 1.238 1.393 1.238h2.1c.71 0 1.309-.532 1.393-1.235l.224-1.762c.447-.145.878-.324 1.288-.534l1.401 1.089c.567.441 1.368.389 1.856-.114l1.476-1.476c.508-.493.559-1.293.119-1.861l-1.089-1.401c.21-.41.389-.841.534-1.288l1.759-.224c.706-.085 1.238-.684 1.238-1.393v-2.1c.001-.711-.531-1.31-1.234-1.394zm-10.015 8.068c-3.101 0-5.625-2.524-5.625-5.625s2.524-5.625 5.625-5.625 5.625 2.524 5.625 5.625-2.524 5.625-5.625 5.625z" fill="#00bcd4"/><circle cx="12" cy="12" fill="#00bcd4" r="2.5"/><path d="m13.096 24h-2.191c-.873 0-1.609-.654-1.713-1.521l-.213-1.671c-.37-.127-.729-.276-1.076-.446l-1.332 1.035c-.696.541-1.68.478-2.289-.147l-1.538-1.54c-.617-.6-.681-1.584-.141-2.281l1.035-1.332c-.169-.347-.318-.706-.446-1.076l-1.676-.213c-.862-.103-1.516-.84-1.516-1.712v-2.191c0-.873.654-1.609 1.521-1.713l1.683-.214c.14-.368.315-.766.448-1.058l-1.048-1.35c-.541-.696-.478-1.68.146-2.288l1.539-1.538c.6-.619 1.584-.68 2.281-.141l1.332 1.035c.347-.169.706-.318 1.077-.446l.213-1.676c.103-.862.84-1.516 1.712-1.516h2.191c.873 0 1.609.654 1.713 1.521l.213 1.671c.37.127.729.276 1.076.446l1.332-1.035c.697-.54 1.681-.477 2.289.147l1.538 1.539c.617.601.681 1.584.141 2.281l-1.035 1.332c.169.347.318.706.446 1.076l1.676.213c.862.104 1.516.841 1.516 1.713v2.191c0 .873-.654 1.609-1.521 1.713l-1.671.213c-.127.37-.276.729-.446 1.076l1.035 1.332c.541.697.477 1.681-.147 2.289l-1.538 1.539c-.602.618-1.586.68-2.281.141l-1.332-1.035c-.347.169-.706.318-1.076.446l-.213 1.676c-.105.861-.842 1.515-1.714 1.515zm-5.273-5.276c.125 0 .252.031.366.095.521.292 1.087.526 1.68.697.288.083.499.329.537.626l.274 2.152c.014.116.114.206.224.206h2.191c.11 0 .21-.09.224-.2l.274-2.158c.038-.297.249-.543.537-.626.593-.17 1.159-.405 1.68-.697.263-.146.589-.123.826.062l1.712 1.33c.09.07.221.066.294-.009l1.553-1.553c.083-.081.086-.21.016-.301l-1.33-1.711c-.185-.238-.209-.563-.062-.826.292-.521.526-1.087.697-1.68.083-.288.329-.499.626-.537l2.152-.274c.116-.014.206-.114.206-.224v-2.191c0-.11-.09-.21-.2-.224l-2.158-.274c-.297-.038-.543-.249-.626-.537-.17-.593-.405-1.159-.697-1.68-.147-.263-.122-.588.062-.826l1.33-1.712c.07-.091.067-.22-.009-.294l-1.552-1.554c-.081-.083-.21-.087-.302-.016l-1.711 1.33c-.237.185-.563.209-.826.062-.521-.292-1.087-.526-1.68-.697-.288-.083-.499-.329-.537-.626l-.274-2.151c-.014-.116-.114-.206-.224-.206h-2.191c-.11 0-.21.09-.224.2l-.274 2.158c-.038.297-.249.543-.537.626-.593.17-1.159.405-1.68.697-.263.146-.59.122-.827-.063l-1.712-1.33c-.091-.071-.222-.067-.294.009l-1.553 1.553c-.083.081-.086.21-.015.301l1.33 1.711c.175.225.207.53.083.787-.153.316-.58 1.242-.717 1.72-.083.288-.329.499-.626.537l-2.153.274c-.116.014-.206.114-.206.224v2.191c0 .11.09.21.2.224l2.158.274c.297.038.543.249.626.537.17.593.405 1.159.697 1.68.147.263.122.588-.062.826l-1.33 1.712c-.07.091-.067.22.009.293l1.553 1.553c.08.082.209.087.302.016l1.711-1.33c.133-.103.296-.156.459-.156z"/><path d="m12 19c-3.86 0-7-3.14-7-7s3.14-7 7-7 7 3.14 7 7-3.14 7-7 7zm0-12.5c-3.033 0-5.5 2.467-5.5 5.5s2.467 5.5 5.5 5.5 5.5-2.467 5.5-5.5-2.467-5.5-5.5-5.5z"/><path d="m12 14.5c-1.378 0-2.5-1.122-2.5-2.5s1.122-2.5 2.5-2.5 2.5 1.122 2.5 2.5-1.122 2.5-2.5 2.5zm0-3.5c-.551 0-1 .449-1 1s.449 1 1 1 1-.449 1-1-.449-1-1-1z"/><path d="m18.25 12.75h-4.5c-.414 0-.75-.336-.75-.75s.336-.75.75-.75h4.5c.414 0 .75.336.75.75s-.336.75-.75.75z"/><path d="m11.13 11.24c-.259 0-.511-.134-.65-.375l-2.25-3.9c-.207-.359-.084-.818.275-1.025.357-.208.817-.085 1.025.275l2.25 3.9c.207.359.083.818-.275 1.024-.118.069-.247.101-.375.101z"/><path d="m8.87 18.16c-.127 0-.256-.032-.375-.101-.358-.207-.481-.666-.275-1.024l2.25-3.9c.207-.359.665-.483 1.025-.274.358.207.481.666.275 1.024l-2.25 3.9c-.139.241-.391.375-.65.375z"/></svg>