<?xml version="1.0" encoding="iso-8859-1"?>
<!-- Generator: Adobe Illustrator 19.0.0, SVG Export Plug-In . SVG Version: 6.00 Build 0)  -->
<svg version="1.1" id="Capa_1" xmlns="http://www.w3.org/2000/svg" xmlns:xlink="http://www.w3.org/1999/xlink" x="0px" y="0px"
	 viewBox="0 0 512.006 512.006" style="enable-background:new 0 0 512.006 512.006;" xml:space="preserve">
<path style="fill:#455A64;" d="M256.003,352c-53.019,0-96-42.981-96-96s42.981-96,96-96V64c-11.701-0.016-23.378,1.055-34.88,3.2
	L191.427,16c-4.417-7.633-14.179-10.252-21.824-5.856l-83.2,48C78.751,62.563,76.129,72.348,80.547,80l29.632,51.2
	c-15.405,17.901-27.332,38.521-35.168,60.8H16.003c-8.837,0-16,7.163-16,16v96c0,8.837,7.163,16,16,16h59.008
	c7.835,22.286,19.774,42.908,35.2,60.8L80.579,432c-4.418,7.652-1.796,17.438,5.856,21.856l83.2,48
	c7.652,4.418,17.438,1.796,21.856-5.856l29.664-51.2c11.49,2.154,23.158,3.225,34.848,3.2V352z"/>
<circle style="fill:#FAFAFA;" cx="256.003" cy="256" r="96"/>
<path style="fill:#64B5F6;" d="M256.003,8v496c136.967,0,248-111.033,248-248S392.97,8,256.003,8z"/>
<path style="fill:#2196F3;" d="M256.003,0c-5.978-0.007-11.952,0.346-17.888,1.056c-8.056,0.957-14.12,7.792-14.112,15.904v478.08
	c-0.059,8.138,6.001,15.024,14.08,16c5.947,0.693,11.932,1.014,17.92,0.96c141.385,0,256-114.615,256-256S397.388,0,256.003,0z
	 M256.003,474.112V352c25.947,0.195,51.84,2.421,77.44,6.656C317.155,402.74,290.61,442.315,256.003,474.112z M256.003,320V192
	c29.147-0.202,58.227-2.814,86.944-7.808c12.093,47.097,12.093,96.487,0,143.584C314.229,322.793,285.149,320.192,256.003,320z
	 M256.003,37.888c34.613,31.792,61.159,71.369,77.44,115.456c-25.6,4.236-51.493,6.462-77.44,6.656V37.888z M374.403,178.208
	c27.32-6.34,54.075-14.901,80-25.6c34.009,64.756,34.009,142.092,0,206.848c-25.927-10.692-52.682-19.254-80-25.6
	c12.743-51.079,12.743-104.505,0-155.584V178.208z M437.283,124.8c-23.281,9.374-47.258,16.917-71.712,22.56
	c-14.447-41.035-36.921-78.783-66.112-111.04C354.916,47.374,404.146,78.978,437.283,124.8z M299.459,475.68
	c29.209-32.304,51.684-70.108,66.112-111.2c24.453,5.648,48.43,13.191,71.712,22.56C404.173,432.92,354.939,464.583,299.459,475.68z
	"/>
<path d="M177.571,504c-2.809,0-5.568-0.74-8-2.144l-83.2-48c-7.652-4.418-10.274-14.203-5.856-21.856l29.632-51.2
	c-15.417-17.898-27.355-38.518-35.2-60.8H16.003c-8.837,0-16-7.163-16-16v-96c0-8.837,7.163-16,16-16h59.008
	c7.845-22.282,19.783-42.902,35.2-60.8L80.547,80c-4.418-7.652-1.796-17.438,5.856-21.856l83.2-48
	c7.645-4.396,17.406-1.777,21.824,5.856l29.664,51.2c5.696-1.088,11.456-1.931,17.28-2.528c8.837-0.884,16.716,5.563,17.6,14.4
	c0.884,8.837-5.563,16.716-14.4,17.6c-8.269,0.831-16.463,2.286-24.512,4.352c-6.951,1.803-14.252-1.245-17.856-7.456l-27.52-47.616
	l-55.488,32l27.52,47.584c3.582,6.227,2.575,14.079-2.464,19.2c-18.517,18.882-31.976,42.126-39.136,67.584
	c-1.935,6.901-8.224,11.674-15.392,11.68h-54.72v64h54.72c7.168,0.006,13.457,4.779,15.392,11.68
	c7.163,25.499,20.646,48.778,39.2,67.68c5.039,5.121,6.046,12.973,2.464,19.2l-27.52,47.584l55.488,32l27.52-47.616
	c3.604-6.211,10.905-9.259,17.856-7.456c8.049,2.066,16.243,3.521,24.512,4.352c8.837,0.884,15.284,8.763,14.4,17.6
	c-0.884,8.837-8.763,15.284-17.6,14.4c-5.803-0.619-11.563-1.461-17.28-2.528l-29.664,51.2
	C188.597,501.029,183.29,504.043,177.571,504z"/>
<path d="M256.003,192c-5.76,0-11.52,0-16.96-0.352l1.952-32C245.827,160,251.075,160,256.003,160
	c68.518,0.206,136.309-14.046,198.944-41.824l12.992,29.248C401.215,177.025,328.997,192.214,256.003,192z"/>
<path d="M454.947,393.824c-63.002-27.794-131.14-42.043-200-41.824c-4.736,0-9.6,0-13.984,0.288l-1.952-32
	C244.483,320,250.243,320,256.003,320c72.994-0.214,145.212,14.975,211.936,44.576L454.947,393.824z"/>
<path d="M256.003,512c-5.978,0.007-11.952-0.346-17.888-1.056l-14.112-1.664V2.72l14.112-1.664c5.936-0.71,11.91-1.063,17.888-1.056
	c141.385,0,256,114.615,256,256S397.388,512,256.003,512z M256.003,32v448c123.712,0,224-100.288,224-224S379.715,32,256.003,32z"/>
<path d="M266.275,508.256l-20.576-24.544C371.47,378.314,387.985,190.914,282.586,65.143c-11.19-13.353-23.534-25.697-36.887-36.887
	l20.576-24.512C405.601,120.51,423.889,328.114,307.123,467.44c-12.393,14.787-26.061,28.456-40.849,40.849V508.256z"/>
<path d="M240.003,366.4c-0.868,0.005-1.735-0.059-2.592-0.192c-60.866-10.09-102.029-67.611-91.939-128.477
	c7.818-47.161,44.778-84.121,91.939-91.939c8.7-1.546,17.007,4.253,18.553,12.953c1.546,8.7-4.253,17.007-12.953,18.553
	c-0.16,0.028-0.32,0.054-0.48,0.078c-43.414,7.302-72.689,48.415-65.387,91.829c5.635,33.503,31.885,59.753,65.387,65.387
	c8.731,1.364,14.703,9.547,13.339,18.278c-1.222,7.823-7.981,13.575-15.899,13.53L240.003,366.4z"/>
<rect x="224.003" y="16.96" width="32" height="478.08"/>
<g>
</g>
<g>
</g>
<g>
</g>
<g>
</g>
<g>
</g>
<g>
</g>
<g>
</g>
<g>
</g>
<g>
</g>
<g>
</g>
<g>
</g>
<g>
</g>
<g>
</g>
<g>
</g>
<g>
</g>
</svg>
