<?xml version="1.0" encoding="iso-8859-1"?>
<!-- Generator: Adobe Illustrator 19.0.0, SVG Export Plug-In . SVG Version: 6.00 Build 0)  -->
<svg version="1.1" id="Capa_1" xmlns="http://www.w3.org/2000/svg" xmlns:xlink="http://www.w3.org/1999/xlink" x="0px" y="0px"
	 viewBox="0 0 512 512" style="enable-background:new 0 0 512 512;" xml:space="preserve">
<path style="fill:#FFC107;" d="M32,239.078v224c0,17.673,14.327,32,32,32h384c17.673,0,32-14.327,32-32v-224H32z"/>
<path style="fill:#FFD54F;" d="M480,143.078H32c-17.673,0-32,14.327-32,32v80c0,8.837,7.163,16,16,16h480c8.837,0,16-7.163,16-16
	v-80C512,157.405,497.673,143.078,480,143.078z"/>
<rect x="224" y="143.078" style="fill:#F44336;" width="64" height="352"/>
<path d="M496,271.686H16c-8.837,0-16-7.163-16-16v-80c0-17.673,14.327-32,32-32h448c17.673,0,32,14.327,32,32v80
	C512,264.523,504.837,271.686,496,271.686z M32,239.686h448v-64H32V239.686z"/>
<path d="M448,495.686H64c-17.673,0-32-14.327-32-32v-208h32v208h384v-208h32v208C480,481.359,465.673,495.686,448,495.686z"/>
<rect x="208" y="159.686" width="32" height="320"/>
<rect x="272" y="159.686" width="32" height="320"/>
<path d="M295.808,175.686h-79.616c-37.581-4.667-72.801-20.841-100.832-46.304c-25.775-26.089-25.775-68.055,0-94.144
	c26.198-25.232,67.658-25.232,93.856,0c13.888,13.92,50.72,70.592,45.632,108.448h2.304c-5.088-37.856,31.744-94.528,45.6-108.448
	c26.198-25.232,67.658-25.232,93.856,0c25.792,26.082,25.792,68.062,0,94.144C368.593,154.852,333.382,171.027,295.808,175.686z
	 M295.808,143.686c28.966-4.761,56.023-17.53,78.112-36.864c13.538-13.387,13.659-35.214,0.272-48.752s-35.214-13.659-48.752-0.272
	l0,0c-21.568,21.696-43.008,77.12-35.584,84.832C291.694,143.558,293.763,143.925,295.808,143.686z M162.336,47.686
	c-9.114-0.018-17.854,3.625-24.256,10.112c-13.403,13.593-13.403,35.431,0,49.024c22.089,19.334,49.146,32.103,78.112,36.864
	c4.576,0,5.92-1.024,5.92-1.056c7.456-7.712-14.112-63.136-35.552-84.832C180.168,51.316,171.44,47.673,162.336,47.686z"/>
<g>
</g>
<g>
</g>
<g>
</g>
<g>
</g>
<g>
</g>
<g>
</g>
<g>
</g>
<g>
</g>
<g>
</g>
<g>
</g>
<g>
</g>
<g>
</g>
<g>
</g>
<g>
</g>
<g>
</g>
</svg>
