<svg id="_x31__x2C_5px" enable-background="new 0 0 24 24" height="512" viewBox="0 0 24 24" width="512" xmlns="http://www.w3.org/2000/svg"><path d="m8.472 22.214c-.764-.801-1.317-1.933-1.557-3.189-.241-1.259-.14-2.501.284-3.497.429-1.01 1.132-1.642 1.978-1.78.717-.117 1.34.166 1.736.424.35.228.769.364 1.119.364.329 0 .684-.122 1.056-.364.575-.374 1.16-.519 1.735-.424.847.137 1.549.77 1.979 1.78.423.995.524 2.237.283 3.496-.241 1.256-.793 2.388-1.557 3.189-1.122 1.174-2.512 1.392-3.529.552-.318.263-.668.427-1.042.487-.941.155-1.827-.348-2.485-1.038z" fill="#f44336"/><path d="m10.408 24c-.84 0-1.703-.425-2.468-1.227-.879-.922-1.515-2.225-1.792-3.67-.277-1.449-.161-2.878.327-4.024.494-1.162 1.302-1.89 2.276-2.048.823-.134 1.542.192 1.998.488.403.263.885.419 1.288.419.378 0 .788-.141 1.215-.419.661-.431 1.334-.596 1.997-.488.975.158 1.783.886 2.277 2.049.487 1.146.604 2.574.326 4.023-.277 1.445-.913 2.748-1.792 3.67-1.291 1.352-2.891 1.602-4.061.635-.366.303-.769.491-1.199.561-.129.021-.26.031-.392.031zm1.496-.675c0 .001 0 .001 0 0zm.096-1.46c.337 0 .66.122.907.345.598.536 1.326.305 2.068-.472.682-.716 1.18-1.751 1.403-2.916.222-1.16.139-2.28-.233-3.155-.286-.673-.689-1.083-1.136-1.155-.283-.046-.599.043-.939.265-.677.439-1.36.662-2.034.662-.691 0-1.459-.241-2.106-.661-.234-.152-.589-.32-.939-.266-.447.072-.851.482-1.136 1.154-.373.876-.456 1.996-.233 3.156.223 1.165.722 2.2 1.404 2.916.525.551 1.087.826 1.536.75.18-.029.36-.123.533-.278.245-.223.568-.345.905-.345z"/><path d="m12.039 14.994c-.028 0-.056-.002-.084-.005-.412-.046-.708-.417-.663-.828.108-.964-.106-1.401-.848-1.732-.378-.168-.548-.611-.379-.99s.611-.551.991-.379c1.341.598 1.906 1.667 1.728 3.268-.043.383-.368.666-.745.666z"/><path d="m12 9.75c-.414 0-.75-.336-.75-.75v-3.25c0-.414.336-.75.75-.75s.75.336.75.75v3.25c0 .414-.336.75-.75.75z"/><path d="m5.75 6c-.414 0-.75-.336-.75-.75v-4.5c0-.414.336-.75.75-.75s.75.336.75.75v4.5c0 .414-.336.75-.75.75z"/><path d="m5.75 11c-.414 0-.75-.336-.75-.75v-1.5c0-.414.336-.75.75-.75s.75.336.75.75v1.5c0 .414-.336.75-.75.75z"/><path d="m18.25 11c-.414 0-.75-.336-.75-.75v-4.5c0-.414.336-.75.75-.75s.75.336.75.75v4.5c0 .414-.336.75-.75.75z"/><path d="m18.25 3c-.414 0-.75-.336-.75-.75v-1.5c0-.414.336-.75.75-.75s.75.336.75.75v1.5c0 .414-.336.75-.75.75z"/><path d="m15.25 6c-.414 0-.75-.336-.75-.75v-2.5c0-.414.336-.75.75-.75s.75.336.75.75v2.5c0 .414-.336.75-.75.75z"/><path d="m12 3c-.414 0-.75-.336-.75-.75v-1.5c0-.414.336-.75.75-.75s.75.336.75.75v1.5c0 .414-.336.75-.75.75z"/><path d="m8.75 7c-.414 0-.75-.336-.75-.75v-2.5c0-.414.336-.75.75-.75s.75.336.75.75v2.5c0 .414-.336.75-.75.75z"/><path d="m12 10c-.192 0-.384-.073-.53-.22l-1.25-1.25c-.293-.293-.293-.768 0-1.061s.768-.293 1.061 0l.719.72.72-.72c.293-.293.768-.293 1.061 0s.293.768 0 1.061l-1.25 1.25c-.147.147-.339.22-.531.22z"/></svg>