<?xml version="1.0" encoding="iso-8859-1"?>
<!-- Generator: Adobe Illustrator 19.0.0, SVG Export Plug-In . SVG Version: 6.00 Build 0)  -->
<svg version="1.1" id="Capa_1" xmlns="http://www.w3.org/2000/svg" xmlns:xlink="http://www.w3.org/1999/xlink" x="0px" y="0px"
	 viewBox="0 0 512.011 512.011" style="enable-background:new 0 0 512.011 512.011;" xml:space="preserve">
<path style="fill:#FFC107;" d="M346.308,215.652c-0.608-0.96-1.312-1.856-2.112-2.656l-45.117-45.085
	c-0.8-0.8-1.696-1.504-2.624-2.144c-47.613-30.718-100.09-30.75-130.648-0.224c-15.487,15.871-23.743,37.406-22.879,59.548
	c-39.454-9.951-81.243,0.928-110.841,28.83C10.969,275.584-0.551,304.83,0.089,335.068c1.376,46.365,20.991,90.33,54.589,122.296
	c31.966,33.63,75.931,53.245,122.296,54.621l0,0c30.206,0.64,59.42-10.911,81.051-31.998c27.934-29.63,38.814-71.452,28.798-110.937
	c22.111,0.96,43.645-7.328,59.42-22.847C377.026,315.71,376.994,263.201,346.308,215.652z"/>
<circle style="fill:#FAFAFA;" cx="176.078" cy="335.996" r="31.998"/>
<g>
	<path style="fill:#455A64;" d="M128.081,431.99c-4.256,0-8.319-1.664-11.327-4.672l-31.998-31.998
		c-6.272-6.272-6.272-16.383,0-22.655c6.272-6.272,16.383-6.272,22.655,0l0,0l31.998,31.998c6.272,6.24,6.272,16.383,0.032,22.623
		C136.433,430.326,132.337,432.022,128.081,431.99z"/>
	<path style="fill:#455A64;" d="M446.109,20.72l45.245,45.245c6.24,6.24,6.24,16.383,0,22.623l-45.245,45.245
		c-6.24,6.24-16.383,6.24-22.623,0l-45.245-45.245c-6.24-6.24-6.24-16.383,0-22.623l45.245-45.245
		C429.726,14.48,439.87,14.48,446.109,20.72z"/>
	<path style="fill:#455A64;" d="M418.815,48.014l45.245,45.245l0,0L316.997,240.322c-6.24,6.24-16.383,6.24-22.623,0L271.752,217.7
		c-6.24-6.24-6.24-16.383,0-22.623L418.815,48.014L418.815,48.014z"/>
</g>
<path d="M176.974,511.985c-46.365-1.376-90.33-21.023-122.296-54.653C21.08,425.367,1.465,381.401,0.089,335.036
	c-0.64-30.238,10.879-59.452,31.998-81.115c29.598-27.934,71.452-38.814,110.905-28.798c-0.864-22.143,7.392-43.677,22.879-59.548
	c33.95-28.414,82.587-31.038,119.385-6.4l75.067-75.323l-11.455-11.487c-3.584-3.648-5.216-8.799-4.384-13.855
	s4.064-9.407,8.639-11.711l90.554-45.117c6.144-3.072,13.567-1.856,18.431,3.008l45.149,45.149
	c4.864,4.864,6.08,12.287,3.008,18.431l-45.117,90.554c-3.936,7.904-13.535,11.167-21.439,7.232c-1.536-0.768-2.944-1.76-4.16-2.976
	l-11.423-11.263l-75.163,75.067c24.67,36.83,22.047,85.499-6.4,119.481c-15.679,15.679-37.31,23.966-59.452,22.783
	c9.919,39.486-1.024,81.307-29.022,110.841c-21.631,21.119-50.845,32.638-81.051,31.998H176.974z M113.234,254.017
	c-21.823-0.704-43.005,7.456-58.748,22.591c-15.103,15.615-23.167,36.734-22.399,58.428c1.568,37.822,17.759,73.595,45.213,99.674
	c26.078,27.454,61.82,43.677,99.674,45.277l0,0c21.695,0.768,42.781-7.328,58.396-22.399
	c24.446-28.062,30.142-67.836,14.559-101.626c-3.04-8.287,1.216-17.503,9.503-20.543c2.944-1.088,6.144-1.28,9.183-0.544
	c19.007,6.208,39.87,2.048,55.037-10.975c19.455-27.742,17.695-65.084-4.224-90.906c-4.096-6.336-3.2-14.687,2.144-19.999
	l95.354-95.034c6.208-6.112,16.191-6.112,22.399,0l7.008,6.912l30.142-60.508l-28.798-28.798l-60.412,30.046l6.912,7.008
	c6.112,6.208,6.112,16.191,0,22.399l-95.034,95.354c-5.344,5.344-13.663,6.24-19.999,2.144
	c-25.758-21.887-63.036-23.711-90.746-4.384c-13.087,15.167-17.311,36.094-11.071,55.133c2.016,8.607-3.296,17.215-11.903,19.263
	c-3.072,0.704-6.24,0.512-9.183-0.576C142.48,256.833,127.921,254.145,113.234,254.017z"/>
<path d="M176.078,383.993c-26.494,0-47.997-21.503-47.997-47.997s21.471-47.997,47.997-47.997s47.997,21.503,47.997,47.997
	S202.573,383.993,176.078,383.993z M176.078,319.997c-8.831,0-15.999,7.168-15.999,15.999s7.168,15.999,15.999,15.999
	s15.999-7.168,15.999-15.999S184.91,319.997,176.078,319.997z"/>
<path d="M128.081,431.99c-4.256,0-8.319-1.664-11.327-4.672l-31.998-31.998c-6.272-6.272-6.272-16.383,0-22.655
	c6.272-6.272,16.383-6.272,22.655,0l0,0l31.998,31.998c6.272,6.24,6.272,16.383,0.032,22.623
	C136.433,430.326,132.337,432.022,128.081,431.99z"/>
<g>
</g>
<g>
</g>
<g>
</g>
<g>
</g>
<g>
</g>
<g>
</g>
<g>
</g>
<g>
</g>
<g>
</g>
<g>
</g>
<g>
</g>
<g>
</g>
<g>
</g>
<g>
</g>
<g>
</g>
</svg>
