<?xml version="1.0" encoding="iso-8859-1"?>
<!-- Generator: Adobe Illustrator 19.0.0, SVG Export Plug-In . SVG Version: 6.00 Build 0)  -->
<svg version="1.1" id="Capa_1" xmlns="http://www.w3.org/2000/svg" xmlns:xlink="http://www.w3.org/1999/xlink" x="0px" y="0px"
	 viewBox="0 0 511.993 511.993" style="enable-background:new 0 0 511.993 511.993;" xml:space="preserve">
<path style="fill:#607D8B;" d="M238.265,197.82c-3.04-3.689-7.571-5.825-12.352-5.824h-128c-7.616-0.017-14.189,5.338-15.712,12.8
	l-49.92,256c-1.767,8.658,3.819,17.109,12.477,18.877c1.065,0.217,2.149,0.326,3.235,0.323h128
	c7.616,0.017,14.189-5.338,15.712-12.8l49.92-256C242.582,206.459,241.347,201.543,238.265,197.82z"/>
<path style="fill:#455A64;" d="M495.993,63.996h-448C41.109,64.001,35,68.409,32.825,74.94l-32,96
	c-1.346,4.028-1.035,8.425,0.864,12.224l16,32c2.713,5.413,8.249,8.832,14.304,8.832h464c8.837,0,16-7.163,16-16v-128
	C511.993,71.16,504.829,63.996,495.993,63.996z"/>
<path style="fill:#90A4AE;" d="M415.993,63.996h-256v48c0,8.837,7.163,16,16,16h224c8.837,0,16-7.163,16-16V63.996z"/>
<path d="M495.993,223.996h-464c-6.055,0-11.591-3.419-14.304-8.832l-16-32c-1.899-3.799-2.21-8.196-0.864-12.224l32-96
	C35,68.409,41.109,64.001,47.993,63.996h448c8.837,0,16,7.163,16,16v128C511.993,216.833,504.829,223.996,495.993,223.996z
	 M41.881,191.996h438.112v-96H59.513l-26.24,78.784L41.881,191.996z"/>
<path d="M175.993,479.996h-128c-8.837,0.019-16.016-7.128-16.035-15.965c-0.002-1.087,0.106-2.171,0.323-3.235l49.92-256
	c1.697-8.678,10.106-14.337,18.784-12.64c8.678,1.697,14.337,10.106,12.64,18.784L67.417,447.996h95.392l47.392-243.2
	c1.697-8.677,10.107-14.337,18.784-12.64s14.337,10.107,12.64,18.784l0,0l-49.92,256
	C190.289,474.504,183.688,479.989,175.993,479.996z"/>
<path d="M463.993,95.996c-8.837,0-16-7.163-16-16v-32c0-8.837,7.163-16,16-16s16,7.163,16,16v32
	C479.993,88.833,472.829,95.996,463.993,95.996z"/>
<path d="M399.993,159.996h-224c-8.837,0-16-7.163-16-16v-64c0-8.837,7.163-16,16-16s16,7.163,16,16v48h192v-48
	c0-8.837,7.163-16,16-16s16,7.163,16,16v64C415.993,152.833,408.829,159.996,399.993,159.996z"/>
<path d="M247.353,351.996h-46.4c-8.837,0-16-7.163-16-16s7.163-16,16-16h46.4c24.214-0.092,44.642-18.046,47.84-42.048l8.8-71.936
	c0.888-8.792,8.735-15.199,17.527-14.311c8.792,0.888,15.199,8.735,14.311,17.527c-0.025,0.251-0.057,0.502-0.094,0.752l-8.96,72
	C321.555,321.907,287.619,351.824,247.353,351.996z"/>
<g>
</g>
<g>
</g>
<g>
</g>
<g>
</g>
<g>
</g>
<g>
</g>
<g>
</g>
<g>
</g>
<g>
</g>
<g>
</g>
<g>
</g>
<g>
</g>
<g>
</g>
<g>
</g>
<g>
</g>
</svg>
