<?xml version="1.0" encoding="iso-8859-1"?>
<!-- Generator: Adobe Illustrator 19.0.0, SVG Export Plug-In . SVG Version: 6.00 Build 0)  -->
<svg version="1.1" id="Capa_1" xmlns="http://www.w3.org/2000/svg" xmlns:xlink="http://www.w3.org/1999/xlink" x="0px" y="0px"
	 viewBox="0 0 512.025 512.025" style="enable-background:new 0 0 512.025 512.025;" xml:space="preserve">
<g>
	<path style="fill:#607D8B;" d="M496.013,129.165L382.893,16.013c-6.248-6.246-16.376-6.246-22.624,0l-45.28,45.248
		c-6.246,6.248-6.246,16.376,0,22.624l113.152,113.152c6.248,6.246,16.376,6.246,22.624,0l45.248-45.248
		C502.259,145.541,502.259,135.413,496.013,129.165z"/>
	<path style="fill:#607D8B;" d="M197.037,428.141L83.885,314.989c-6.344-6.01-16.28-6.01-22.624,0l-45.248,45.28
		c-6.246,6.248-6.246,16.376,0,22.624l113.152,113.12c6.248,6.246,16.376,6.246,22.624,0l45.248-45.248
		C203.283,444.517,203.283,434.389,197.037,428.141z"/>
	<path style="fill:#607D8B;" d="M337.741,174.637c-6.248-6.246-16.376-6.246-22.624,0l-140.48,140.48
		c-6.139,6.356-5.963,16.485,0.393,22.624c6.2,5.989,16.03,5.989,22.231,0l140.48-140.48c6.297-6.2,6.464-16.24,0.264-22.537
		C337.947,174.664,337.888,174.605,337.741,174.637z"/>
</g>
<g>
	<path style="fill:#455A64;" d="M507.341,230.989L281.037,4.685c-6.248-6.246-16.376-6.246-22.624,0l-56.544,56.576
		c-6.246,6.248-6.246,16.376,0,22.624l226.272,226.272c6.248,6.246,16.376,6.246,22.624,0l56.576-56.544
		C513.587,247.365,513.587,237.237,507.341,230.989z"/>
	<path style="fill:#455A64;" d="M310.157,428.141L83.885,201.869c-6.248-6.246-16.376-6.246-22.624,0L4.685,258.413
		c-6.246,6.248-6.246,16.376,0,22.624l226.304,226.304c6.248,6.246,16.376,6.246,22.624,0l56.544-56.576
		C316.403,444.517,316.403,434.389,310.157,428.141z"/>
</g>
<path d="M439.437,201.613c-4.235-0.001-8.297-1.681-11.296-4.672L314.989,83.885c-6.246-6.248-6.246-16.376,0-22.624l45.248-45.248
	c6.248-6.246,16.376-6.246,22.624,0l113.152,113.152c6.246,6.248,6.246,16.376,0,22.624l-45.248,45.248
	C447.743,200,443.669,201.646,439.437,201.613z M348.813,72.589l90.624,90.624l22.624-22.624l-90.496-90.624L348.813,72.589z"/>
<path d="M439.437,314.861c-4.24-0.009-8.303-1.701-11.296-4.704L201.869,83.885c-6.246-6.248-6.246-16.376,0-22.624l56.544-56.576
	c6.248-6.246,16.376-6.246,22.624,0l226.304,226.304c6.246,6.248,6.246,16.376,0,22.624l-56.576,56.544
	C447.763,313.167,443.688,314.86,439.437,314.861z M235.789,72.589l203.648,203.648l33.952-33.952L269.741,38.637L235.789,72.589z"
	/>
<path d="M140.461,500.685c-4.239,0.02-8.309-1.663-11.296-4.672L16.013,382.861c-6.246-6.248-6.246-16.376,0-22.624l45.248-45.248
	c6.248-6.246,16.376-6.246,22.624,0l113.152,113.152c6.246,6.248,6.246,16.376,0,22.624l-45.248,45.248
	C148.782,499.011,144.707,500.692,140.461,500.685z M49.965,371.565l90.496,90.496l22.624-22.624l-90.496-90.624L49.965,371.565z"/>
<path d="M242.285,512.013c-4.235-0.001-8.297-1.681-11.296-4.672L4.685,281.037c-6.246-6.248-6.246-16.376,0-22.624l56.576-56.544
	c6.248-6.246,16.376-6.246,22.624,0l226.272,226.272c6.246,6.248,6.246,16.376,0,22.624l-56.544,56.576
	C250.606,510.339,246.531,512.02,242.285,512.013z M38.637,269.741l203.648,203.648l33.952-33.952L72.589,235.789L38.637,269.741z"
	/>
<path d="M185.933,342.413c-8.837-0.02-15.984-7.199-15.965-16.035c0.009-4.223,1.687-8.27,4.669-11.261l140.48-140.48
	c6.139-6.356,16.268-6.532,22.624-0.393s6.532,16.268,0.393,22.624c-0.129,0.133-0.26,0.264-0.393,0.393l-140.48,140.48
	C194.254,340.739,190.179,342.42,185.933,342.413z"/>
<g>
</g>
<g>
</g>
<g>
</g>
<g>
</g>
<g>
</g>
<g>
</g>
<g>
</g>
<g>
</g>
<g>
</g>
<g>
</g>
<g>
</g>
<g>
</g>
<g>
</g>
<g>
</g>
<g>
</g>
</svg>
