<?xml version="1.0" encoding="utf-8"?>
<!-- Generator: Adobe Illustrator 25.3.1, SVG Export Plug-In . SVG Version: 6.00 Build 0)  -->
<svg version="1.1" id="Calque_1" xmlns="http://www.w3.org/2000/svg" xmlns:xlink="http://www.w3.org/1999/xlink" x="0px" y="0px"
	 viewBox="0 0 512 512" style="enable-background:new 0 0 512 512;" xml:space="preserve">
<style type="text/css">
	.st0{fill:#CFD8DC;stroke:#000000;stroke-width:8;stroke-miterlimit:10;}
	.st1{fill:#90A4AE;stroke:#000000;stroke-width:8;stroke-miterlimit:10;}
	.st2{stroke:#000000;stroke-width:8;stroke-miterlimit:10;}
</style>
<path class="st0" d="M360.5,67.9c-5,0-10,0.5-15.4,1.5C332.5,31.7,296.6,5.3,256,5.3s-76.5,26.4-89.1,64.2c-5.3-1-10.4-1.5-15.4-1.5
	c-51.8,0-94,42.2-94,94c0,39.9,25.4,75.1,62.7,88.4v183.3c0,4.3,2.6,8.1,6.6,9.7c2.2,0.9,55,21.6,129.3,21.6s127-20.8,129.3-21.6
	c4-1.6,6.6-5.4,6.6-9.7V250.3c37.3-13.2,62.7-48.5,62.7-88.4C454.5,110.1,412.3,67.9,360.5,67.9z"/>
<path class="st1" d="M387.2,425c-2.9-1.9-6.5-2.4-9.7-1.1c-0.5,0.2-51.5,20.2-121.5,20.2c-70,0-121-20-121.5-20.1
	c-3.2-1.3-6.9-0.9-9.7,1.1c-2.9,1.9-4.6,5.2-4.6,8.6v41.8c0,3.6,1.8,6.9,4.8,8.8c1.5,0.9,36.7,22.5,131,22.5
	c74.3,0,127-20.8,129.3-21.6c4-1.6,6.6-5.4,6.6-9.7v-41.8C391.8,430.1,390.1,426.9,387.2,425z"/>
<path class="st2" d="M339.6,109.7c-5.8,0-10.4-4.7-10.4-10.4c0-40.3-32.8-73.1-73.1-73.1c-40.3,0-73.1,32.8-73.1,73.1
	c0,5.8-4.7,10.4-10.4,10.4c-5.8,0-10.4-4.7-10.4-10.4c0-51.8,42.2-94,94-94c51.8,0,94,42.2,94,94C350,105.1,345.3,109.7,339.6,109.7
	z"/>
<path class="st2" d="M256,506.7c-94.2,0-129.5-21.6-131-22.5c-3-1.9-4.9-5.3-4.9-8.8V250.3c-37.3-13.2-62.7-48.4-62.7-88.3
	c0-51.8,42.2-94,94-94c5,0,10,0.5,15.3,1.5C179.5,31.7,215.5,5.3,256,5.3s76.5,26.4,89.1,64.2c5.3-1,10.4-1.5,15.3-1.5
	c51.8,0,94,42.2,94,94c0,40-25.4,75.2-62.7,88.3v225.1c0,4.3-2.6,8.1-6.6,9.7C383,486,330.3,506.7,256,506.7z M141.1,468.9
	c11.9,5.1,46.6,16.9,114.9,16.9c55.5,0,99-12.5,114.9-17.8V242.6c0-4.8,3.2-8.9,7.8-10.1c32.3-8.4,54.8-37.3,54.8-70.5
	c0-40.3-32.8-73.1-73.1-73.1c-6.1,0-12.4,1-19.9,3.1c-2.8,0.8-5.8,0.4-8.3-1.1c-2.5-1.5-4.2-3.9-4.8-6.8
	c-7.1-33.6-37.2-57.9-71.5-57.9s-64.4,24.4-71.5,57.9c-0.6,2.8-2.3,5.3-4.8,6.8c-2.5,1.5-5.5,1.9-8.3,1.1
	c-7.5-2.1-13.8-3.1-19.9-3.1c-40.3,0-73.1,32.8-73.1,73.1c0,33.2,22.5,62.1,54.8,70.5c4.6,1.2,7.8,5.3,7.8,10.1V468.9z M381.4,475.4
	h0.2H381.4z"/>
<path class="st2" d="M151.5,256c-7.1,0-14.1-0.8-20.9-2.3c-5.6-1.3-9.2-6.9-7.9-12.5c1.3-5.6,6.6-9.2,12.5-7.9
	c5.3,1.2,10.7,1.8,16.2,1.8c5.8,0,10.4,4.7,10.4,10.4C162,251.3,157.3,256,151.5,256z"/>
<path class="st2" d="M360.5,256c-5.8,0-10.4-4.7-10.4-10.4c0-5.8,4.7-10.4,10.4-10.4c5.7,0,11.5-0.7,16.9-2
	c5.6-1.4,11.3,2.1,12.6,7.7c1.3,5.6-2.1,11.3-7.7,12.6C375.2,255.1,367.9,256,360.5,256z"/>
<path class="st2" d="M256,457.1c-74.3,0-127-20.8-129.3-21.6c-5.4-2.2-8-8.2-5.8-13.6c2.2-5.4,8.3-8,13.6-5.8
	c0.5,0.2,51.4,20.1,121.5,20.1s121-20,121.5-20.1c5.3-2.1,11.4,0.5,13.6,5.8c2.2,5.3-0.4,11.4-5.8,13.6
	C383,436.3,330.3,457.1,256,457.1z"/>
</svg>
