<svg id="_x31__x2C_5" height="512" viewBox="0 0 24 24" width="512" xmlns="http://www.w3.org/2000/svg"><path d="m11 21.25c-.111 0-.222-.026-.323-.079-.404-.211-9.891-5.269-9.891-13.719 0-3.144 2.562-5.702 5.711-5.702 1.813 0 3.451.787 4.503 2.11 1.052-1.323 2.69-2.11 4.504-2.11 3.149 0 5.711 2.558 5.711 5.702 0 8.45-9.487 13.508-9.891 13.719-.102.053-.213.079-.324.079z" fill="#f44336"/><path d="m12.5 16c-.002 0-.005 0-.008 0-.293-.003-.558-.177-.677-.445l-1.802-4.055h-2.263c-.414 0-.75-.336-.75-.75s.336-.75.75-.75h2.75c.296 0 .565.174.686.445l1.334 3.002 3.302-7.017c.117-.249.362-.414.637-.43.282-.019.537.122.681.356l3.78 6.143h2.331c.414 0 .75.336.75.75s-.337.751-.751.751h-2.75c-.26 0-.502-.135-.639-.357l-3.273-5.319-3.409 7.245c-.124.264-.388.431-.679.431z"/><path d="m11 22c-.119 0-.239-.028-.348-.085-.435-.228-10.652-5.675-10.652-14.775 0-3.386 2.759-6.14 6.15-6.14 1.953 0 3.717.847 4.85 2.272 1.133-1.425 2.897-2.272 4.85-2.272 3.391 0 6.15 2.754 6.15 6.14 0 .38-.022.749-.065 1.118-.048.411-.421.711-.833.657-.411-.048-.706-.421-.657-.833.037-.311.055-.622.055-.942 0-2.559-2.086-4.64-4.65-4.64-1.822 0-3.423.958-4.176 2.5-.252.515-1.096.515-1.348 0-.753-1.542-2.354-2.5-4.176-2.5-2.564 0-4.65 2.082-4.65 4.64 0 7.312 7.75 12.232 9.5 13.25 1.025-.596 4.106-2.526 6.476-5.47.26-.322.733-.373 1.055-.114.323.26.374.732.114 1.055-3.073 3.818-7.125 5.964-7.297 6.054-.109.057-.228.085-.348.085z"/></svg>