<?xml version="1.0" encoding="iso-8859-1"?>
<!-- Generator: Adobe Illustrator 19.0.0, SVG Export Plug-In . SVG Version: 6.00 Build 0)  -->
<svg version="1.1" id="Capa_1" xmlns="http://www.w3.org/2000/svg" xmlns:xlink="http://www.w3.org/1999/xlink" x="0px" y="0px"
	 viewBox="0 0 512 512" style="enable-background:new 0 0 512 512;" xml:space="preserve">
<path style="fill:#455A64;" d="M496,16H368c-26.51,0-48,21.49-48,48v68.256c0.007,2.299,0.509,4.569,1.472,6.656
	C339.205,175.57,349.576,215.35,352,256c5.515,47.504-28.524,90.485-76.029,96c-6.635,0.77-13.337,0.77-19.971,0
	c-47.504,5.515-90.485-28.524-96-76.029c-0.77-6.635-0.77-13.337,0-19.971c2.415-40.634,12.799-80.397,30.56-117.024
	c0.942-2.104,1.432-4.383,1.44-6.688V64c0-26.51-21.49-48-48-48H16C7.163,16,0,23.163,0,32v64c0,8.837,7.163,16,16,16h65.856
	C61.525,157.413,50.035,206.285,48,256c0,165.792,104.48,240,208,240s208-74.208,208-240c-2.028-49.716-13.519-98.589-33.856-144
	H496c8.837,0,16-7.163,16-16V32C512,23.163,504.837,16,496,16z"/>
<path d="M256,496c-103.52,0-208-74.208-208-240c2.028-49.716,13.519-98.589,33.856-144H16c-8.837,0-16-7.163-16-16V32
	c0-8.837,7.163-16,16-16h128c26.51,0,48,21.49,48,48v68.288c-0.002,2.309-0.504,4.591-1.472,6.688
	C172.763,175.6,162.39,215.365,160,256c-5.515,47.504,28.524,90.485,76.029,96c6.635,0.77,13.337,0.77,19.971,0
	c47.504,5.515,90.485-28.524,96-76.029c0.77-6.635,0.77-13.337,0-19.971c-2.424-40.65-12.795-80.43-30.528-117.088
	c-0.963-2.087-1.465-4.357-1.472-6.656V64c0-26.51,21.49-48,48-48h128c8.837,0,16,7.163,16,16v64c0,8.837-7.163,16-16,16h-65.856
	c20.337,45.411,31.828,94.284,33.856,144C464,421.792,359.52,496,256,496z M32,80h74.848c8.837,0,16,7.164,16,16
	c0,2.464-0.569,4.895-1.664,7.104C96.723,150.555,82.682,202.683,80,256c0,124.416,70.72,208,176,208s176-83.584,176-208
	c-2.682-53.317-16.723-105.445-41.184-152.896c-3.923-7.918-0.685-17.517,7.232-21.44c2.208-1.094,4.639-1.664,7.104-1.664H480V48
	H368c-8.837,0-16,7.163-16,16v64.8c18.919,39.886,29.793,83.11,32,127.2c5.324,65.368-43.352,122.676-108.72,128
	c-6.416,0.523-12.864,0.523-19.28,0c-65.368,5.324-122.676-43.352-128-108.72c-0.523-6.416-0.523-12.864,0-19.28
	c2.188-44.083,13.063-87.3,32-127.168V64c0-8.837-7.163-16-16-16H32V80z"/>
<path d="M256.64,432c-8.837,0-16-7.163-16-16s7.163-16,16-16h0.32c8.837,0,16,7.163,16,16s-7.163,16-16,16H256.64z"/>
<path d="M176.64,416c-8.837,0-16-7.163-16-16s7.163-16,16-16h0.32c8.837,0,16,7.163,16,16s-7.163,16-16,16H176.64z"/>
<path d="M112.64,352c-8.837,0-16-7.163-16-16c0-8.774,7.066-15.912,15.84-16h0.32c8.837,0,16,7.163,16,16s-7.163,16-16,16H112.64z"
	/>
<path d="M336.64,416c-8.837,0-16-7.163-16-16c0-8.774,7.066-15.912,15.84-16h0.32c8.837,0,16,7.163,16,16s-7.163,16-16,16H336.64z"
	/>
<path d="M400.64,352c-8.837,0-16-7.163-16-16c0-8.774,7.066-15.912,15.84-16h0.32c8.837,0,16,7.163,16,16s-7.163,16-16,16H400.64z"
	/>
<g>
</g>
<g>
</g>
<g>
</g>
<g>
</g>
<g>
</g>
<g>
</g>
<g>
</g>
<g>
</g>
<g>
</g>
<g>
</g>
<g>
</g>
<g>
</g>
<g>
</g>
<g>
</g>
<g>
</g>
</svg>
