<svg id="regular" enable-background="new 0 0 24 24" height="512" viewBox="0 0 24 24" width="512" xmlns="http://www.w3.org/2000/svg"><g><g><path d="m12.96.75c-4.57 0-8.29 3.73-8.29 8.32h.01c0 .7-.2 1.38-.57 1.97l-2.28 3.96c-.05.07-.08.16-.08.26 0 .27.21.49.49.49h2.51v3.03c0 .81.65 1.47 1.46 1.47.15 0 .29-.02.43-.07l3.11-.84v3.91h8.5v-5.24c0-1.51.55-2.94 1.43-4.17.97-1.35 1.57-3 1.57-4.77 0-4.59-3.71-8.32-8.29-8.32z" fill="#ffcc80"/></g><g><path d="m17.25 8.5c0 1.3-.67 2.44-1.68 3.11-.54.36-.82.99-.82 1.64v1.42c0 .32-.26.58-.58.58h-1.34c-.32 0-.58-.25-.58-.74v-1.29c0-.64-.29-1.26-.82-1.61-1.21-.8-1.93-2.27-1.6-3.89.28-1.4 1.39-2.55 2.78-2.87 2.46-.56 4.64 1.29 4.64 3.65z" fill="#ffc107"/></g><g><path d="m18.25 24h-8.5c-.414 0-.75-.336-.75-.75v-2.932l-2.162.587c-.152.057-.381.095-.625.095-1.22 0-2.213-.995-2.213-2.218v-2.282h-1.763c-.682 0-1.237-.556-1.237-1.239 0-.231.066-.46.192-.661l2.264-3.93c.312-.498.469-1.043.469-1.601 0-5.002 4.054-9.069 9.038-9.069s9.037 4.067 9.037 9.065c0 1.853-.59 3.655-1.706 5.212-.847 1.184-1.294 2.476-1.294 3.738v5.235c0 .414-.336.75-.75.75zm-7.75-1.5h7v-4.485c0-1.576.545-3.171 1.574-4.61.933-1.301 1.426-2.801 1.426-4.339 0-4.171-3.381-7.565-7.537-7.565s-7.538 3.393-7.538 7.564c0 .843-.236 1.664-.684 2.377l-2.049 3.558h2.058c.414 0 .75.336.75.75v3.032c0 .396.319.718.713.718.07 0 .131-.009.177-.024l3.164-.862c.226-.061.467-.015.651.128.187.142.295.362.295.596zm-8.021-7.132-.002.003c.002-.001.002-.002.002-.003z"/></g><g><path d="m14.173 16h-1.346c-.659 0-1.327-.513-1.327-1.491v-1.285c0-.411-.186-.79-.485-.988-1.535-1.017-2.289-2.849-1.92-4.668.34-1.677 1.684-3.062 3.344-3.445 1.372-.314 2.781-.005 3.861.855 1.081.859 1.7 2.143 1.7 3.522 0 1.506-.755 2.904-2.019 3.738-.297.196-.481.583-.481 1.01v1.425c0 .731-.596 1.327-1.327 1.327zm-1.173-1.5h1v-1.252c0-.938.432-1.784 1.155-2.261.842-.556 1.345-1.486 1.345-2.487 0-.919-.413-1.776-1.134-2.349-.721-.574-1.667-.78-2.59-.567-1.098.253-1.986 1.17-2.211 2.282-.251 1.236.238 2.431 1.277 3.119.725.479 1.158 1.316 1.158 2.239z"/></g></g></svg>