<?xml version="1.0" encoding="iso-8859-1"?>
<!-- Generator: Adobe Illustrator 19.0.0, SVG Export Plug-In . SVG Version: 6.00 Build 0)  -->
<svg version="1.1" id="Capa_1" xmlns="http://www.w3.org/2000/svg" xmlns:xlink="http://www.w3.org/1999/xlink" x="0px" y="0px"
	 viewBox="0 0 512 512" style="enable-background:new 0 0 512 512;" xml:space="preserve">
<g>
	<path style="fill:#455A64;" d="M208,415.734H80c-44.183,0-80,35.817-80,80c0,8.837,7.163,16,16,16h256c8.837,0,16-7.163,16-16
		C288,451.551,252.183,415.734,208,415.734z"/>
	<path style="fill:#455A64;" d="M350.208,66.934l-47.84-48.256C276.936-5.833,236.684-5.876,211.2,18.582
		c-24.54,25.137-24.54,65.263,0,90.4l49.184,48.928c2.993,3.003,7.056,4.695,11.296,4.704c4.387,0.517,8.723-1.305,11.424-4.8
		l67.2-68.48C356.376,83.086,356.333,73.129,350.208,66.934z"/>
</g>
<path style="fill:#FFC107;" d="M406.4,125.014c-6.358-4.599-15.114-3.908-20.672,1.632l-66.784,66.912
	c-5.55,5.55-6.255,14.306-1.664,20.672c11.827,16.169,30.688,25.689,50.72,25.6c35.346,0,64-28.654,64-64
	C432.104,155.767,422.584,136.87,406.4,125.014z"/>
<path style="fill:#607D8B;" d="M443.328,91.862c-44.334-42.285-114.066-42.285-158.4,0c-43.741,43.736-43.745,114.651-0.008,158.392
	c0.003,0.003,0.005,0.005,0.008,0.008c6.248,6.246,16.376,6.246,22.624,0l135.776-135.776
	C449.574,108.238,449.574,98.11,443.328,91.862z"/>
<path d="M272,511.734H16c-8.837,0-16-7.163-16-16c0-44.183,35.817-80,80-80h128c44.183,0,80,35.817,80,80
	C288,504.57,280.837,511.734,272,511.734z M34.72,479.734h218.56c-6.784-19.187-24.929-32.011-45.28-32H80
	C59.649,447.723,41.504,460.547,34.72,479.734z"/>
<path d="M48,319.734c-26.51,0-48-21.49-48-48s21.49-48,48-48s48,21.49,48,48S74.51,319.734,48,319.734z M48,255.734
	c-8.837,0-16,7.163-16,16s7.163,16,16,16s16-7.163,16-16S56.837,255.734,48,255.734z"/>
<path d="M296.224,254.934L296.224,254.934c-4.28,0.033-8.394-1.649-11.424-4.672c-43.656-43.776-43.656-114.624,0-158.4
	c44.328-42.301,114.072-42.301,158.4,0c6.246,6.248,6.246,16.376,0,22.624L307.552,250.262
	C304.546,253.26,300.47,254.941,296.224,254.934z M364.096,91.062c-44.183,0.016-79.987,35.847-79.97,80.03
	c0.006,15.669,4.613,30.992,13.25,44.066l110.88-110.848C395.173,95.617,379.803,91.006,364.096,91.062z"/>
<path d="M271.68,162.614c-4.24-0.009-8.303-1.701-11.296-4.704l-48.992-48.928c-24.594-25.085-24.679-65.211-0.192-90.4
	c25.435-24.418,65.605-24.418,91.04,0l48,48.192c6.23,6.274,6.194,16.41-0.08,22.64c-6.274,6.23-16.41,6.194-22.64-0.08l-48-48.352
	c-12.598-12.487-32.906-12.487-45.504,0c-12.513,12.481-12.538,32.742-0.057,45.255c0.019,0.019,0.038,0.038,0.057,0.057
	l48.992,48.992c6.256,6.24,6.269,16.371,0.029,22.627C280.028,160.929,275.94,162.621,271.68,162.614z"/>
<path d="M70.72,265.014c-8.837-0.002-15.998-7.167-15.997-16.003c0.001-4.234,1.68-8.294,4.669-11.293L211.2,86.134
	c7.069-5.302,17.098-3.869,22.4,3.2c4.267,5.689,4.267,13.511,0,19.2L82.016,260.342C79.017,263.333,74.955,265.013,70.72,265.014z"
	/>
<path d="M144,447.734c-5.625,0.001-10.837-2.951-13.728-7.776l-79.68-132.8c-4.821-7.406-2.726-17.317,4.68-22.138
	s17.317-2.726,22.138,4.68c0.214,0.329,0.416,0.666,0.606,1.01l79.712,132.8c4.542,7.58,2.079,17.407-5.501,21.949
	C149.742,446.948,146.898,447.734,144,447.734z"/>
<path d="M368,239.734c-20.033,0.089-38.893-9.431-50.72-25.6c-5.339-7.041-3.959-17.078,3.083-22.416
	c7.041-5.339,17.078-3.959,22.416,3.083c0.145,0.191,0.285,0.385,0.421,0.582c5.773,7.897,15.019,12.503,24.8,12.352
	c17.673,0,32-14.327,32-32c0.173-9.764-4.395-19.007-12.256-24.8c-7.041-5.339-8.422-15.375-3.083-22.416
	c5.17-6.819,14.791-8.363,21.835-3.504c16.133,11.847,25.615,30.705,25.504,50.72C432,211.08,403.346,239.734,368,239.734z"/>
<path d="M496,191.734h-32c-8.837,0-16-7.163-16-16s7.163-16,16-16h32c8.837,0,16,7.163,16,16S504.837,191.734,496,191.734z"/>
<path d="M368,319.734c-8.837,0-16-7.163-16-16v-32c0-8.837,7.163-16,16-16s16,7.163,16,16v32
	C384,312.57,376.837,319.734,368,319.734z"/>
<path d="M458.528,282.262c-4.251-0.001-8.327-1.693-11.328-4.704l-22.624-22.624c-6.139-6.356-5.963-16.485,0.394-22.624
	c6.2-5.988,16.03-5.988,22.23,0l22.624,22.624c6.256,6.24,6.269,16.371,0.029,22.627
	C466.852,280.569,462.777,282.261,458.528,282.262z"/>
<g>
</g>
<g>
</g>
<g>
</g>
<g>
</g>
<g>
</g>
<g>
</g>
<g>
</g>
<g>
</g>
<g>
</g>
<g>
</g>
<g>
</g>
<g>
</g>
<g>
</g>
<g>
</g>
<g>
</g>
</svg>
