<?xml version="1.0" encoding="iso-8859-1"?>
<!-- Generator: Adobe Illustrator 19.0.0, SVG Export Plug-In . SVG Version: 6.00 Build 0)  -->
<svg version="1.1" id="Capa_1" xmlns="http://www.w3.org/2000/svg" xmlns:xlink="http://www.w3.org/1999/xlink" x="0px" y="0px"
	 viewBox="0 0 512 512" style="enable-background:new 0 0 512 512;" xml:space="preserve">
<path style="fill:#90CAF9;" d="M448,208h-80c-26.51,0-48-21.49-48-48V96c0-44.183-35.817-80-80-80c-26.51,0-48,21.49-48,48v44.544
	c-0.016,20.295-5.546,40.204-16,57.6l-11.104,18.496c-8.686,14.434-24.274,23.29-41.12,23.36H112c-8.837,0-16,7.163-16,16v208
	c-0.001,5.625,2.951,10.837,7.776,13.728l60.992,36.576c14.904,8.977,31.977,13.713,49.376,13.696h197.984
	c16.962-0.056,33.219-6.793,45.248-18.752l35.872-35.872c11.959-12.029,18.696-28.286,18.752-45.248V272
	C512,236.654,483.346,208,448,208z"/>
<path style="fill:#1976D2;" d="M16,208h96c8.837,0,16,7.163,16,16v256c0,8.837-7.163,16-16,16H16c-8.837,0-16-7.163-16-16V224
	C0,215.163,7.163,208,16,208z"/>
<path d="M412.128,496H214.144c-17.399,0.017-34.472-4.719-49.376-13.696l-60.992-36.576C98.951,442.837,95.999,437.625,96,432V224
	c0-8.837,7.163-16,16-16h11.776c16.843-0.051,32.44-8.881,41.152-23.296l11.104-18.56c10.454-17.396,15.984-37.305,16-57.6V64
	c0-26.497,21.471-47.982,47.968-48c44.183,0,80,35.817,80,80v64c0,26.51,21.49,48,48,48h80c35.346,0,64,28.654,64,64v124.128
	c-0.042,16.965-6.781,33.227-18.752,45.248l-35.872,35.872C445.347,489.207,429.09,495.944,412.128,496z M128,422.944l53.248,32
	c9.944,5.94,21.313,9.07,32.896,9.056h197.984c8.486-0.002,16.624-3.374,22.624-9.376l35.872-35.872
	c5.975-6.017,9.343-14.144,9.376-22.624V272c0-17.673-14.327-32-32-32h-80c-44.183,0-80-35.817-80-80V96c0-26.51-21.49-48-48-48
	c-8.837,0-16,7.163-16,16v44.544c-0.016,26.093-7.105,51.694-20.512,74.08l-11.136,18.56C178.643,223.971,154.551,238.502,128,240
	V422.944z"/>
<path d="M112,496H16c-8.837,0-16-7.163-16-16V224c0-8.837,7.163-16,16-16h96c8.837,0,16,7.163,16,16v256
	C128,488.837,120.837,496,112,496z M32,464h64V240H32V464z"/>
<g>
</g>
<g>
</g>
<g>
</g>
<g>
</g>
<g>
</g>
<g>
</g>
<g>
</g>
<g>
</g>
<g>
</g>
<g>
</g>
<g>
</g>
<g>
</g>
<g>
</g>
<g>
</g>
<g>
</g>
</svg>
