<?xml version="1.0" encoding="utf-8"?>
<!-- Generator: Adobe Illustrator 25.3.1, SVG Export Plug-In . SVG Version: 6.00 Build 0)  -->
<svg version="1.1" id="Capa_1" xmlns="http://www.w3.org/2000/svg" xmlns:xlink="http://www.w3.org/1999/xlink" x="0px" y="0px"
	 viewBox="0 0 512 512" style="enable-background:new 0 0 512 512;" xml:space="preserve">
<style type="text/css">
	.st0{fill:#4CAF50;stroke:#000000;stroke-width:8;stroke-miterlimit:10;}
	.st1{fill:#FAFAFA;stroke:#000000;stroke-width:8;stroke-miterlimit:10;}
	.st2{stroke:#000000;stroke-width:8;stroke-miterlimit:10;}
</style>
<g>
	<path class="st0" d="M293.4,19.3c-2.5-2-5.7-2.8-8.8-2.1L16,79.2c-4.7,1.1-8.1,5.3-8,10.2v351.3c0,5.1,3.7,9.4,8.8,10.2l268.7,41.3
		c5.6,0.9,10.9-3,11.8-8.6c0.1-0.5,0.1-1,0.1-1.6V27.4C297.3,24.2,295.9,21.2,293.4,19.3z"/>
	<path class="st0" d="M493.7,451H287c-5.7,0-10.3-4.6-10.3-10.3c0-5.7,4.6-10.3,10.3-10.3h196.3V79H287c-5.7,0-10.3-4.6-10.3-10.3
		c0-5.7,4.6-10.3,10.3-10.3h206.7c5.7,0,10.3,4.6,10.3,10.3v372C504,446.4,499.4,451,493.7,451z"/>
</g>
<g>
	<path class="st1" d="M204.3,347.7c-3.6,0-6.9-1.8-8.8-4.9L92.2,177.5c-3.2-4.7-1.9-11.2,2.8-14.3c4.7-3.2,11.2-1.9,14.3,2.8
		c0.1,0.2,0.2,0.4,0.4,0.6l103.3,165.3c3,4.8,1.5,11.2-3.3,14.2C208.1,347.2,206.3,347.7,204.3,347.7z"/>
	<path class="st1" d="M101,347.7c-5.7,0-10.3-4.6-10.3-10.4c0-1.9,0.5-3.8,1.6-5.5l103.3-165.3c2.9-4.9,9.2-6.6,14.1-3.8
		c4.9,2.9,6.6,9.2,3.8,14.1c-0.1,0.2-0.2,0.4-0.4,0.6L109.8,342.8C107.9,345.9,104.6,347.7,101,347.7z"/>
</g>
<g>
	<path class="st0" d="M369.7,451c-5.7,0-10.3-4.6-10.3-10.3v-372c0-5.7,4.6-10.3,10.3-10.3c5.7,0,10.3,4.6,10.3,10.3v372
		C380,446.4,375.4,451,369.7,451z"/>
	<path class="st0" d="M493.7,389H287c-5.7,0-10.3-4.6-10.3-10.3c0-5.7,4.6-10.3,10.3-10.3h206.7c5.7,0,10.3,4.6,10.3,10.3
		C504,384.4,499.4,389,493.7,389z"/>
	<path class="st0" d="M493.7,327H287c-5.7,0-10.3-4.6-10.3-10.3c0-5.7,4.6-10.3,10.3-10.3h206.7c5.7,0,10.3,4.6,10.3,10.3
		C504,322.4,499.4,327,493.7,327z"/>
	<path class="st0" d="M493.7,265H287c-5.7,0-10.3-4.6-10.3-10.3c0-5.7,4.6-10.3,10.3-10.3h206.7c5.7,0,10.3,4.6,10.3,10.3
		C504,260.4,499.4,265,493.7,265z"/>
	<path class="st0" d="M493.7,203H287c-5.7,0-10.3-4.6-10.3-10.3s4.6-10.3,10.3-10.3h206.7c5.7,0,10.3,4.6,10.3,10.3
		C504,198.4,499.4,203,493.7,203z"/>
	<path class="st0" d="M493.7,141H287c-5.7,0-10.3-4.6-10.3-10.3c0-5.7,4.6-10.3,10.3-10.3h206.7c5.7,0,10.3,4.6,10.3,10.3
		C504,136.4,499.4,141,493.7,141z"/>
</g>
<path class="st2" d="M287,492.4c-0.5,0-1.1,0-1.6-0.1L16.8,450.9c-5-0.8-8.8-5.1-8.8-10.2V89.4c0-4.8,3.3-9,8-10.1l268.7-62
	c5.6-1.3,11.1,2.2,12.4,7.8c0.2,0.8,0.3,1.5,0.3,2.3V482C297.3,487.7,292.7,492.4,287,492.4z M28.7,431.8l248,38.2V40.4l-248,57.3
	L28.7,431.8L28.7,431.8z"/>
<path class="st2" d="M493.7,451H287c-5.7,0-10.3-4.6-10.3-10.3c0-5.7,4.6-10.3,10.3-10.3h196.3V79H287c-5.7,0-10.3-4.6-10.3-10.3
	c0-5.7,4.6-10.3,10.3-10.3h206.7c5.7,0,10.3,4.6,10.3,10.3v372C504,446.4,499.4,451,493.7,451z"/>
<path class="st2" d="M204.3,347.7c-3.6,0-6.9-1.8-8.8-4.9L92.2,177.5c-3-4.8-1.6-11.2,3.3-14.2c4.8-3,11.2-1.6,14.2,3.3l103.3,165.3
	c3,4.8,1.6,11.2-3.3,14.2l0,0C208.2,347.2,206.3,347.7,204.3,347.7z"/>
<path class="st2" d="M101,347.7c-1.9,0-3.8-0.5-5.5-1.6c-4.8-3-6.3-9.4-3.3-14.2l0,0l103.3-165.3c3-4.8,9.4-6.3,14.2-3.3
	c4.8,3,6.3,9.4,3.3,14.2l0,0L109.8,342.9C107.9,345.9,104.6,347.7,101,347.7z"/>
<path class="st2" d="M369.7,451c-5.7,0-10.3-4.6-10.3-10.3v-372c0-5.7,4.6-10.3,10.3-10.3c5.7,0,10.3,4.6,10.3,10.3v372
	C380,446.4,375.4,451,369.7,451z"/>
<path class="st2" d="M493.7,389H287c-5.7,0-10.3-4.6-10.3-10.3c0-5.7,4.6-10.3,10.3-10.3h206.7c5.7,0,10.3,4.6,10.3,10.3
	C504,384.4,499.4,389,493.7,389z"/>
<path class="st2" d="M493.7,327H287c-5.7,0-10.3-4.6-10.3-10.3c0-5.7,4.6-10.3,10.3-10.3h206.7c5.7,0,10.3,4.6,10.3,10.3
	C504,322.4,499.4,327,493.7,327z"/>
<path class="st2" d="M493.7,265H287c-5.7,0-10.3-4.6-10.3-10.3c0-5.7,4.6-10.3,10.3-10.3h206.7c5.7,0,10.3,4.6,10.3,10.3
	C504,260.4,499.4,265,493.7,265z"/>
<path class="st2" d="M493.7,203H287c-5.7,0-10.3-4.6-10.3-10.3s4.6-10.3,10.3-10.3h206.7c5.7,0,10.3,4.6,10.3,10.3
	C504,198.4,499.4,203,493.7,203z"/>
<path class="st2" d="M493.7,141H287c-5.7,0-10.3-4.6-10.3-10.3c0-5.7,4.6-10.3,10.3-10.3h206.7c5.7,0,10.3,4.6,10.3,10.3
	C504,136.4,499.4,141,493.7,141z"/>
</svg>
