<svg id="reg" enable-background="new 0 0 24 24" height="512" viewBox="0 0 24 24" width="512" xmlns="http://www.w3.org/2000/svg"><path d="m19.01 18.73h.01c4.618-2.795 5.869-8.723 2.81-12.99-5.21-7.249-16.681-4.426-18.13 3.13-.262 1.38-.157 3.362-.65 4.43-.21.45-.51.74-1.34.74-.99 0-1.563 1.148-.97 1.96 1.02 1.38 1.72 1.85 3.62 2.89 0 0 4.223 1.444 7.64 1.61 3.417.167 7.01-1.77 7.01-1.77z" fill="#cfd8dc"/><circle cx="16.5" cy="8.5" fill="#fff" r="1"/><circle cx="10.5" cy="8.5" fill="#fff" r="1"/><path d="m17.867 19.783c-.806-2.113-3.99-1.447-3.864.823 0 .998.96 1.991 2.166 1.887 1.102-.095 2.175-1.469 1.698-2.71z" fill="#616161"/><path d="m7.327 18.508c-2.647.227-2.288 4.212.342 3.985 2.642-.228 2.293-4.215-.342-3.985z" fill="#616161"/><path d="m17.763 11.033c-.401-.085-.804.171-.89.577-.719 3.36-6.826 3.374-7.309.015-.058-.411-.444-.7-.849-.636-.41.059-.695.438-.636.849.721 5.035 9.198 5.057 10.26.086.087-.406-.171-.805-.576-.891z"/><path d="m16.402 10.31c.953 0 1.728-.774 1.728-1.726s-.775-1.727-1.728-1.727-1.729.774-1.729 1.727c.001.951.776 1.726 1.729 1.726zm.228-1.727c0 .249-.457.248-.457 0 .001-.299.457-.299.457 0z"/><path d="m10.533 10.31c.953 0 1.728-.774 1.728-1.726s-.775-1.727-1.728-1.727-1.729.774-1.729 1.727c0 .951.776 1.726 1.729 1.726zm.228-1.727c0 .249-.457.248-.457 0 0-.299.457-.299.457 0z"/><path d="m17.431 1.762c-3.706-1.434-7.796-.8-10.948 1.697-3.222 2.583-3.458 5.672-3.614 7.716-.146 1.914-.275 2.066-.935 2.066-.737 0-1.418.429-1.727 1.078-.329.656-.263 1.433.175 2.032 1.099 1.483 1.91 2.01 3.785 3.033.314.172.696.106.944-.223-.184.412-.26.878-.211 1.369.207 2.391 3.217 3.343 4.768 1.508.405-.48.613-1.072.624-1.691.039.356.316.647.685.669.562.035 1.047.039 1.533.021.385-.015.678-.32.707-.695.037 1.586 1.307 2.658 2.691 2.658.078 0 .156-.003.234-.01.857-.073 1.611-.534 2.067-1.263.454-.726.538-1.6.23-2.398-.041-.108-.095-.208-.149-.308.231.268.642.385.965.192 3.457-2.088 5.269-5.941 4.618-9.813-.567-3.442-2.975-6.297-6.442-7.638zm-9.732 19.734c-.659.059-1.248-.434-1.306-1.104-.083-.825.552-1.284 1.246-1.284.61 0 1.092.347 1.162 1.088.055.661-.437 1.242-1.102 1.3zm9.238-.564c-.204.325-.54.531-.923.564-1.055.094-1.713-1.143-1.035-1.962.591-.713 1.732-.523 2.06.332v.001c.137.354.099.742-.102 1.065zm1.605-3.043c-.329.154-.524.547-.381.919-.539-.808-1.489-1.292-2.482-1.203-.729.062-1.388.407-1.855.971-.385.464-.591 1.045-.609 1.627-.044-.385-.357-.679-.766-.665-.441.018-.894.012-1.382-.019-.39-.017-.713.256-.775.629-.002-.028.003-.056.001-.084 0-.001 0-.002 0-.004-.212-2.299-2.694-3.101-4.343-1.923-.322.23-.558.528-.738.856.134-.346.007-.743-.327-.926-1.829-.999-2.391-1.385-3.295-2.606-.104-.141-.119-.317-.036-.484.069-.146.215-.236.379-.236 2.167 0 2.307-1.834 2.431-3.452.152-1.998.342-4.483 3.053-6.657 2.729-2.159 6.271-2.709 9.472-1.471 2.967 1.147 5.023 3.57 5.503 6.484.546 3.241-.964 6.468-3.85 8.244z"/></svg>