<svg id="reg" enable-background="new 0 0 24 24" height="512" viewBox="0 0 24 24" width="512" xmlns="http://www.w3.org/2000/svg"><path d="m12.595.5c7.444 5.83 11.627 19.724 3.321 22.45-2.272.744-6.475.908-9.233-.617-4.772-2.631-3.606-8.401-.279-13.209.573-.823 1.901-2.382 1.915-2.391-.04 2.122 1.036 3.584 1.182 3.604 3.762-2.893 4.371-6.503 3.094-9.837z" fill="#ec407a"/><path d="m9.71 9.288c-.38-.675-.551-1.462-.533-2.427.011-.598-.652-.968-1.155-.645-1.164.748-7.269 8.658-4.126 14.109 1.377 2.389 4.189 3.668 8.004 3.668 13.235 0 10.707-16.283 1.143-23.833-.592-.47-1.436.145-1.166.855.839 2.21 1.1 5.385-2.167 8.273zm4.167-6.354c6.516 6.691 8.743 18.709-.677 19.509-9.625.732-11.115-6.443-5.325-13.744.194.768.531 1.445 1.009 2.038.257.38.773.523 1.149.229 2.849-2.207 4.165-4.997 3.844-8.032z"/></svg>