<?xml version="1.0" encoding="iso-8859-1"?>
<!-- Generator: Adobe Illustrator 19.0.0, SVG Export Plug-In . SVG Version: 6.00 Build 0)  -->
<svg version="1.1" id="Capa_1" xmlns="http://www.w3.org/2000/svg" xmlns:xlink="http://www.w3.org/1999/xlink" x="0px" y="0px"
	 viewBox="0 0 512.151 512.151" style="enable-background:new 0 0 512.151 512.151;" xml:space="preserve">
<polygon style="fill:#2196F3;" points="255.999,496.1 111.999,416.1 111.999,288.1 399.999,284.1 399.999,416.1 "/>
<g>
	<polygon style="fill:#1E88E5;" points="495.999,99.236 345.375,16.1 255.999,104.772 391.871,183.268 	"/>
	<polygon style="fill:#1E88E5;" points="166.623,16.1 15.999,115.204 120.159,183.268 255.999,104.772 	"/>
	<polygon style="fill:#1E88E5;" points="255.999,293.796 150.623,350.468 15.999,267.332 120.127,183.268 255.999,293.796 
		391.839,183.268 495.999,267.332 361.375,366.468 255.999,293.796 	"/>
</g>
<path d="M255.999,304.1c-3.155-0.002-6.239-0.938-8.864-2.688l-144-96c-7.354-4.899-9.345-14.832-4.446-22.186
	c1.412-2.119,3.309-3.871,5.534-5.11l144-80c4.835-2.689,10.717-2.689,15.552,0l144,80c7.721,4.298,10.496,14.041,6.198,21.762
	c-1.239,2.225-2.99,4.122-5.11,5.534l-144,96C262.238,303.162,259.154,304.097,255.999,304.1z M142.687,193.348L255.999,268.9
	l113.312-75.52l-113.312-62.976L142.687,193.348z"/>
<path d="M351.999,384.1c-3.742-0.002-7.366-1.315-10.24-3.712l-86.816-72.352l-86.08,57.376c-4.984,3.32-11.405,3.58-16.64,0.672
	l-144-80c-7.722-4.297-10.498-14.039-6.201-21.761c0.958-1.721,2.225-3.25,3.737-4.511L87.007,192.1L5.759,124.388
	c-6.785-5.661-7.697-15.75-2.037-22.536c0.984-1.18,2.134-2.212,3.413-3.064l144-96c6.351-4.228,14.803-3.384,20.192,2.016
	L255.999,89.7l86.144-84.992c5.098-5.07,12.952-6.118,19.2-2.56l142.624,80c7.71,4.318,10.459,14.069,6.141,21.778
	c-0.719,1.284-1.612,2.462-2.653,3.502l-83.744,83.584l82.528,68.8c6.785,5.661,7.697,15.75,2.037,22.536
	c-0.984,1.18-2.134,2.212-3.413,3.064l-144,96C358.238,383.162,355.154,384.097,351.999,384.1z M255.999,272.1
	c3.753-0.006,7.389,1.308,10.272,3.712l86.784,72.352l116.256-77.472l-79.552-66.304c-6.795-5.649-7.725-15.736-2.077-22.532
	c0.313-0.376,0.643-0.738,0.989-1.084l81.088-81.056L356.031,35.94l-88.8,87.552c-6.241,6.204-16.319,6.204-22.56,0l-86.688-86.784
	l-115.2,76.8l79.456,66.304c6.786,5.659,7.7,15.749,2.041,22.535c-0.617,0.74-1.3,1.423-2.041,2.041l-78.08,65.056l115.2,64
	l87.776-58.656C249.76,273.037,252.844,272.102,255.999,272.1z"/>
<path d="M255.999,512.1c-2.721,0-5.398-0.694-7.776-2.016l-144-80c-5.076-2.823-8.224-8.175-8.224-13.984v-90.56
	c0-8.837,7.163-16,16-16s16,7.163,16,16v81.152l128,71.104l128-71.104V336.1c0-8.837,7.163-16,16-16s16,7.163,16,16v80
	c0,5.809-3.148,11.161-8.224,13.984l-144,80C261.397,511.406,258.72,512.1,255.999,512.1z"/>
<g>
</g>
<g>
</g>
<g>
</g>
<g>
</g>
<g>
</g>
<g>
</g>
<g>
</g>
<g>
</g>
<g>
</g>
<g>
</g>
<g>
</g>
<g>
</g>
<g>
</g>
<g>
</g>
<g>
</g>
</svg>
