<svg id="reg" enable-background="new 0 0 24 24" height="512" viewBox="0 0 24 24" width="512" xmlns="http://www.w3.org/2000/svg"><path d="m21.517 13.677-4.964 2.77-4.2-4.447 4.2-4.447 4.964 2.77c1.308.732 1.309 2.622 0 3.354z" fill="#ffc107"/><path d="m12.353 12-10.309 10.915c-.344-.345-.544-.814-.544-1.332.197-19.776-.451-19.5.544-20.498z" fill="#03a9f4"/><path d="m12.353 12 4.2 4.447c-13.012 7.164-12.273 7.053-13.144 7.053-.535 0-1.021-.22-1.365-.585z" fill="#f44336"/><path d="m16.553 7.553-4.2 4.447-10.309-10.915c.588-.623 1.533-.765 2.291-.345z" fill="#03a9f4"/><path d="m1 21.375c0 .725.303 1.388.693 1.756.354.486 1.186.869 1.919.869.433 0 .87-.108 1.271-.33l11.927-6.666c.019-.011.028-.029.045-.041.686-.303 1.974-1.11 4.801-2.668h.001c1.788-1.003 1.79-3.585-.001-4.59-2.65-1.353-3.938-2.286-4.704-2.643-.801-.568-2.83-1.587-7.245-4.062-5.605-3.14-6.473-3.68-7.821-2.343-1.42.587-.724 4.513-.886 20.718zm10.277-9.398c-.101.099-8.683 9.275-8.777 9.375.147-14.712-.135-16.83.009-18.695.093.1 8.43 8.996 8.768 9.32zm-7.791 10.516c11.543-12.121 8.334-8.746 8.891-9.365.095.101 3.051 3.237 2.862 3.037-11.42 6.296-11.088 6.406-11.753 6.328zm17.437-9.507-4.334 2.424-3.214-3.41 3.214-3.41 4.334 2.424c.768.429.767 1.543 0 1.972zm-5.687-5.148c-1.249 1.312-.144.181-2.906 3.052l-8.846-9.386c1.001.089 4.143 2.117 11.752 6.334z"/></svg>