<?xml version="1.0" encoding="utf-8"?>
<!-- Generator: Adobe Illustrator 25.3.1, SVG Export Plug-In . SVG Version: 6.00 Build 0)  -->
<svg version="1.1" id="Capa_1" xmlns="http://www.w3.org/2000/svg" xmlns:xlink="http://www.w3.org/1999/xlink" x="0px" y="0px"
	 viewBox="0 0 512 512" style="enable-background:new 0 0 512 512;" xml:space="preserve">
<style type="text/css">
	.st0{fill:#FF5722;stroke:#000000;stroke-width:8;stroke-miterlimit:10;}
	.st1{fill:#FAFAFA;stroke:#000000;stroke-width:8;stroke-miterlimit:10;}
	.st2{stroke:#000000;stroke-width:8;stroke-miterlimit:10;}
</style>
<g>
	<path class="st0" d="M371.3,121.6c-5.8,0-10.4,4.7-10.4,10.4v62.6c0,5.8,4.7,10.4,10.4,10.4h62.6c5.8,0,10.4-4.7,10.4-10.4
		C444.4,154.3,411.7,121.6,371.3,121.6z"/>
	<path class="st0" d="M371.3,226c-17.3,0-31.3-14-31.3-31.3v-51.1c-39.9,5.7-67.6,42.6-61.9,82.4s42.6,67.6,82.4,61.9
		c32.1-4.6,57.3-29.8,61.9-61.9L371.3,226L371.3,226z"/>
	<path class="st0" d="M294.3,19.5c-2.5-2-5.7-2.8-8.9-2.1L14.1,80C9.3,81.1,6,85.4,6,90.3v354.9c0,5.1,3.8,9.5,8.9,10.3l271.4,41.8
		c5.7,0.9,11-3,11.9-8.7c0.1-0.5,0.1-1.1,0.1-1.6V27.7C298.3,24.5,296.8,21.5,294.3,19.5z"/>
	<path class="st0" d="M496.6,455.6H287.8c-5.8,0-10.4-4.7-10.4-10.4c0-5.8,4.7-10.4,10.4-10.4h198.3V79.9H287.8
		c-5.8,0-10.4-4.7-10.4-10.4S282,59,287.8,59h208.7c5.8,0,10.4,4.7,10.4,10.4v375.7C507,451,502.3,455.6,496.6,455.6z"/>
	<path class="st0" d="M433.9,393H287.8c-5.8,0-10.4-4.7-10.4-10.4c0-5.8,4.7-10.4,10.4-10.4h146.1c5.8,0,10.4,4.7,10.4,10.4
		C444.4,388.3,439.7,393,433.9,393z"/>
	<path class="st0" d="M433.9,330.4H287.8c-5.8,0-10.4-4.7-10.4-10.4c0-5.8,4.7-10.4,10.4-10.4h146.1c5.8,0,10.4,4.7,10.4,10.4
		C444.4,325.7,439.7,330.4,433.9,330.4z"/>
</g>
<path class="st1" d="M99.9,351.3c-5.8,0-10.4-4.7-10.4-10.4v-167c0-5.8,4.7-10.4,10.4-10.4h41.8c28.8,0,52.2,23.4,52.2,52.2v20.9
	c0,28.8-23.4,52.2-52.2,52.2h-31.3v52.2C110.4,346.6,105.7,351.3,99.9,351.3z M110.4,267.8h31.3c17.3,0,31.3-14,31.3-31.3v-20.9
	c0-17.3-14-31.3-31.3-31.3h-31.3C110.4,184.3,110.4,267.8,110.4,267.8z"/>
<path class="st2" d="M287.8,497.4c-0.5,0-1.1,0-1.6-0.1L14.9,455.5c-5.1-0.8-8.8-5.2-8.9-10.3V90.3c0-4.9,3.4-9.1,8.1-10.2
	l271.4-62.6c5.6-1.3,11.2,2.2,12.5,7.8c0.2,0.8,0.3,1.5,0.3,2.3v459.2C298.3,492.7,293.6,497.4,287.8,497.4z M26.9,436.2l250.5,38.5
	V40.8L26.9,98.7L26.9,436.2L26.9,436.2z"/>
<path class="st2" d="M496.6,455.6H287.8c-5.8,0-10.4-4.7-10.4-10.4c0-5.8,4.7-10.4,10.4-10.4h198.3V79.9H287.8
	c-5.8,0-10.4-4.7-10.4-10.4S282,59,287.8,59h208.7c5.8,0,10.4,4.7,10.4,10.4v375.7C507,451,502.3,455.6,496.6,455.6z"/>
<path class="st2" d="M433.9,393H287.8c-5.8,0-10.4-4.7-10.4-10.4c0-5.8,4.7-10.4,10.4-10.4h146.1c5.8,0,10.4,4.7,10.4,10.4
	C444.4,388.3,439.7,393,433.9,393z"/>
<path class="st2" d="M433.9,330.4H287.8c-5.8,0-10.4-4.7-10.4-10.4c0-5.8,4.7-10.4,10.4-10.4h146.1c5.8,0,10.4,4.7,10.4,10.4
	C444.4,325.7,439.7,330.4,433.9,330.4z"/>
<path class="st2" d="M99.9,351.3c-5.8,0-10.4-4.7-10.4-10.4v-167c0-5.8,4.7-10.4,10.4-10.4h41.8c28.8,0,52.2,23.4,52.2,52.2v20.9
	c0,28.8-23.4,52.2-52.2,52.2h-31.3v52.2C110.4,346.6,105.7,351.3,99.9,351.3z M110.4,267.8h31.3c17.3,0,31.3-14,31.3-31.3v-20.9
	c0-17.3-14-31.3-31.3-31.3h-31.3C110.4,184.3,110.4,267.8,110.4,267.8z"/>
<path class="st2" d="M433.9,205.1h-62.6c-5.8,0-10.4-4.7-10.4-10.4v-62.6c0-5.8,4.7-10.4,10.4-10.4c40.4,0,73.1,32.7,73.1,73.1
	C444.4,200.5,439.7,205.1,433.9,205.1z M381.8,184.3h40.7c-4.2-20.5-20.2-36.5-40.7-40.7V184.3z"/>
<path class="st2" d="M350.4,288.6c-40.4,0-73.1-32.7-73.1-73.1s32.7-73.1,73.1-73.1c5.8,0,10.4,4.7,10.4,10.4
	c0,5.8-4.7,10.4-10.4,10.4c-28.8,0-52.2,23.4-52.2,52.2s23.4,52.2,52.2,52.2c28.8,0,52.2-23.4,52.2-52.2c0-5.8,4.7-10.4,10.4-10.4
	c5.8,0,10.4,4.7,10.4,10.4C423.5,255.9,390.8,288.6,350.4,288.6z"/>
</svg>
