<svg id="reg" enable-background="new 0 0 24 24" height="512" viewBox="0 0 24 24" width="512" xmlns="http://www.w3.org/2000/svg"><path d="m4.35 6.915c-5.246 7.329-.509 13.329 2.593 15.234 3.631 2.229 10.794 2.228 13.647-4.097 3.554-7.876-.609-16.922-1.634-17.426l-.001.001c-.817-.404-4.963.058-7.951 2.943-4.709 4.73-4.596 10.964-4.596 10.964s-.155.641-.818-.289c-1.451-1.861-.691-6.144-.606-6.741.12-.841-.413-.866-.634-.589z" fill="#8bc34a"/><path d="m5.902 7.707c.223-1.568-1.247-2.027-1.948-1.148-.008.01-.016.021-.023.031-2.08 2.916-2.832 5.889-2.236 8.836 2.043 10.103 15.399 11.631 19.364 2.801 3.463-7.697-.333-17.233-1.944-18.026-1.109-.549-5.515.016-8.618 3.023-3.605 3.634-4.286 7.547-4.554 9.722-.649-1.933-.049-5.097-.041-5.239zm.61 7.747c.67-.172.747-.844.864-1.861.216-1.871.665-5.764 4.174-9.301 2.715-2.629 6.335-2.967 6.848-2.778.979.801 4.455 9.07 1.293 16.099-3.389 7.547-14.778 6.162-16.525-2.483-.414-2.044-.056-4.123 1.066-6.2-.266 2.67.042 4.59.906 5.701.265.371.709.994 1.374.823z"/></svg>