<?xml version="1.0" encoding="utf-8"?>
<!-- Generator: Adobe Illustrator 25.3.1, SVG Export Plug-In . SVG Version: 6.00 Build 0)  -->
<svg version="1.1" id="Capa_1" xmlns="http://www.w3.org/2000/svg" xmlns:xlink="http://www.w3.org/1999/xlink" x="0px" y="0px"
	 viewBox="0 0 512.1 512.1" style="enable-background:new 0 0 512.1 512.1;" xml:space="preserve">
<style type="text/css">
	.st0{fill:#4CAF50;stroke:#000000;stroke-width:8;stroke-miterlimit:10;}
	.st1{stroke:#000000;stroke-width:8;stroke-miterlimit:10;}
</style>
<g>
	<path class="st0" d="M507.4,95.8v313.3c0,5.8-4.7,10.4-10.4,10.4H204.5c-5.8,0-10.4-4.7-10.4-10.4V377c3.5,0.6,6.9,0.9,10.4,0.8
		c44.9,0,187.2-36.6,237.1-86.7c4-4.1,3.9-10.6-0.1-14.6c-4-3.9-10.5-3.9-14.5,0c-43.2,43.2-175.7,80.4-222.5,80.4
		c-3.5,0-7-0.4-10.4-1.3v-42.6c6.9,1.4,13.9,2.1,20.9,2.1c75.2,0,155.2-77.7,164-86.7c2-1.9,3.2-4.5,3.1-7.3
		c-0.1-2.8-1.2-5.5-3.1-7.5c-34.3-33.4-112.2-86.5-174.4-86.5c-3.5,0-7,0.2-10.4,0.6v-32c0-5.8,4.7-10.4,10.4-10.4H497
		C502.7,85.4,507.4,90,507.4,95.8z"/>
	<path class="st0" d="M215,294.3c-7.1,0-14.1-0.9-20.9-2.7v-80.8c24.5,2.6,47.6,12.6,66.2,28.8c4.4,3.8,11,3.3,14.8-1
		c3.8-4.4,3.3-11-1-14.8c-22.5-19.4-50.5-31.2-80-33.8v-41.2c3.5-0.4,7-0.6,10.4-0.6c49.3,0,115.3,40.7,151.9,73.3
		C324,251.4,264.9,294.3,215,294.3z"/>
	<path class="st0" d="M194.1,210.7c-22.1,1.9-43.2,10.3-60.6,24.2c10.9,26.9,33,47.6,60.6,56.6v21.5c-60.4-12.7-82.7-77.3-82.9-78.1
		c-1.4-4-0.3-8.5,2.9-11.3c22.5-19.4,50.5-31.2,80-33.8L194.1,210.7L194.1,210.7z"/>
	<path class="st0" d="M74,201.1c-13.6,7.9-27.8,16.3-41.6,23.6c55.6,69.6,121.4,122.6,161.7,131V377
		c-55.4-8.6-133.7-81.5-185.9-149.6c-1.9-2.4-2.5-5.6-1.9-8.6c0.7-3.1,2.8-5.7,5.6-7.1c16.5-8.1,33.6-18.2,51.6-28.6
		c43.7-25.5,88.6-51.6,130.6-55.4v20.9C157.3,152.6,114.9,177.3,74,201.1z"/>
</g>
<path class="st1" d="M204.5,377.8c-55.8,0-140.9-77.9-196.4-150.4c-3.5-4.6-2.6-11.1,1.9-14.6c0.5-0.4,1.1-0.8,1.7-1
	c16.7-8.4,33.6-18.2,51.6-28.7c47.3-27.4,96.2-55.9,141.1-55.9c62.3,0,140,53.1,174.4,86.5c4.1,4.1,4.2,10.7,0.1,14.8
	c0,0-0.1,0.1-0.1,0.1c-8.8,8.9-88.8,86.6-164,86.6c-76.3,0-103.6-79.4-103.9-80.3c-1.3-4-0.1-8.4,3-11.2
	c22.4-19.5,50.4-31.3,80-33.9c29.6,2.6,57.6,14.5,80,33.9c4.3,3.8,4.8,10.4,1,14.7s-10.4,4.8-14.7,1l0,0
	c-18.7-16.1-41.7-26.1-66.2-28.7c-22.1,1.9-43.2,10.4-60.6,24.3c13,34.2,45,57.4,81.5,59.3c50,0,109.1-42.8,141.5-73
	C319.8,188.7,253.9,148,204.5,148c-39.3,0-85.6,27-130.6,53.1c-13.7,8-27.7,16.1-41.4,23.5c60.6,76.1,133.3,132.3,172,132.3
	c46.7,0,179.2-37.3,222.4-80.5c4.1-4,10.8-3.9,14.8,0.3c3.9,4,3.9,10.5,0,14.5C391.6,341.2,249.4,377.8,204.5,377.8z"/>
<path class="st1" d="M497,419.6H204.5c-5.8,0-10.4-4.7-10.4-10.4V95.8c0-5.8,4.7-10.4,10.4-10.4H497c5.8,0,10.4,4.7,10.4,10.4v313.3
	C507.4,414.9,502.7,419.6,497,419.6z M215,398.7h271.6V106.3H215V398.7z"/>
</svg>
