<svg id="reg" enable-background="new 0 0 24 24" height="512" viewBox="0 0 24 24" width="512" xmlns="http://www.w3.org/2000/svg"><path d="m21.99 7.94c-.25 3-4.39 13.76-4.55 14.19-.48.26-.97.48-1.48.67-.02-.04-.04-.08-.06-.12l-3.21-9.18-3.25 9.71c-.85-.19-1.67-.48-2.44-.85v-.01l-5.28-15.5v-.01c.24-.47.51-.93.81-1.36h3.74c.64 0 .63 1.36.07 1.36 0 0-.57.07-1.2.1l3.81 11.8 2.28-7.15-1.63-4.65c-.56-.03-1.09-.1-1.09-.1-.53 0-.47-1.36.06-1.36h5.54c.57 0 .62 1.36.06 1.36 0 0-.56.07-1.19.1l3.78 11.71 1.04-3.63c.45-1.51.79-2.59.79-3.53 0-1.34-.46-2.28-.86-3-.53-.9-1.02-1.66-1.02-2.56 0-1 .52-1.93 1.75-1.93 1.22 0 3.01.63 3.46 2.82.04.35.1.72.07 1.12z" fill="#cfd8dc"/><path d="m9.349 23.679c.854.193 1.739.304 2.651.304 6.538 0 12-5.311 12-11.984 0-6.608-5.383-11.984-12-11.984-6.697.001-12 5.497-12 11.985 0 5.944 4.446 10.738 9.349 11.679zm-6.203-17.291c.451.001 1.16.001 1.81 0-.33.166-.493.547-.378.901l3.72 11.525c.223.691 1.205.694 1.428-.002l2.235-6.982c.05-.155.047-.322-.006-.476-1.679-4.569-1.478-4.729-1.969-4.969h2.644c-.34.165-.501.552-.386.906l3.698 11.434c.229.705 1.232.68 1.434-.024l1.015-3.537c.397-1.313.811-2.577.811-3.657 0-2.848-1.847-4.047-1.847-5.432 0-2.053 3.161-1.191 3.604.965.358 2.631-3.514 12.292-4.251 14.318-.134.067-.268.133-.405.195l-2.918-8.332c-.246-.703-1.2-.642-1.419.009l-2.96 8.814c-.445-.133-.876-.296-1.295-.484l-4.951-14.533c.119-.22.253-.43.386-.639zm3.323 1.32c.509-.003.911-.345 1.073-.863.247.881.928.866 1.569.924l1.345 3.843-1.447 4.521-2.713-8.404c.108-.011.172-.019.173-.021zm-.142-1.489c.013-.004.025-.005.037-.005-.013.002-.024.003-.037.005zm4.154 16.142 2.21-6.582 2.204 6.289c-1.577.454-2.957.506-4.414.293zm8.368-2.432c1.42-3.758 2.784-7.626 3.348-10.387.967 3.997-.474 7.909-3.348 10.387zm-6.849-18.413c2.254 0 4.339.72 6.052 1.931-1.336.175-2.198 1.193-2.198 2.627 0 1.993 1.847 3.022 1.847 5.432 0 .752-.284 1.692-.677 2.994l-.412 1.423-2.649-8.194c.107-.011.171-.02.172-.021 1.562-.014 1.458-2.824-.074-2.824h-5.412c-.526 0-.94.371-1.1.935-.172-.594-.631-.935-1.156-.935-.61.002-1.396.003-2.085.003 1.919-2.067 4.653-3.371 7.692-3.371zm1.987 4.703c.014-.003.028-.005.042-.005h.006c.001 0-.016.002-.048.005zm-12.085 2.942 3.825 11.226c-2.56-1.914-4.227-4.956-4.227-8.387 0-.985.146-1.935.402-2.839z"/></svg>