<?xml version="1.0" encoding="utf-8"?>
<!-- Generator: Adobe Illustrator 25.3.1, SVG Export Plug-In . SVG Version: 6.00 Build 0)  -->
<svg version="1.1" id="Capa_1" xmlns="http://www.w3.org/2000/svg" xmlns:xlink="http://www.w3.org/1999/xlink" x="0px" y="0px"
	 viewBox="0 0 512 512" style="enable-background:new 0 0 512 512;" xml:space="preserve">
<style type="text/css">
	.st0{fill:#1565C0;stroke:#000000;stroke-width:8;stroke-miterlimit:10;}
	.st1{fill:#FAFAFA;stroke:#000000;stroke-width:8;stroke-miterlimit:10;}
	.st2{stroke:#000000;stroke-width:8;stroke-miterlimit:10;}
</style>
<g>
	<path class="st0" d="M295.6,21.4c-2.5-2-5.7-2.8-8.8-2.1L17.1,81.5C12.3,82.6,9,86.9,9,91.8v352.8c0,5.1,3.7,9.5,8.8,10.3
		l269.7,41.5c5.7,0.9,11-3,11.8-8.7c0.1-0.5,0.1-1,0.1-1.6V29.5C299.5,26.3,298.1,23.3,295.6,21.4z"/>
	<path class="st0" d="M496.6,454.9H289.1c-5.7,0-10.4-4.6-10.4-10.4c0-5.7,4.6-10.4,10.4-10.4h197.1V81.4H289.1
		c-5.7,0-10.4-4.6-10.4-10.4s4.6-10.4,10.4-10.4h207.5c5.7,0,10.4,4.6,10.4,10.4v373.5C507,450.2,502.4,454.9,496.6,454.9z"/>
</g>
<path class="st1" d="M185.4,351.1c-4.6,0-8.7-3.1-10-7.5l-31.5-110.3l-31.5,110.3c-2.3,5.5-8.6,8.1-14.1,5.8
	c-2.6-1.1-4.8-3.2-5.8-5.8L50.9,198.4c-1.7-5.5,1.3-11.3,6.7-13s11.3,1.3,13,6.7c0.1,0.2,0.1,0.4,0.2,0.6L102.4,303l31.5-110.3
	c2.3-5.5,8.6-8.1,14.1-5.8c2.6,1.1,4.8,3.2,5.8,5.8L185.4,303l31.5-110.3c1.5-5.5,7.1-8.7,12.6-7.2c0.1,0,0.2,0,0.2,0.1
	c5.5,1.6,8.7,7.3,7.1,12.8l-41.5,145.3C194.1,348.1,190,351.1,185.4,351.1z"/>
<g>
	<path class="st0" d="M455.1,143.6h-166c-5.7,0-10.4-4.6-10.4-10.4s4.6-10.4,10.4-10.4h166c5.7,0,10.4,4.6,10.4,10.4
		C465.5,139,460.9,143.6,455.1,143.6z"/>
	<path class="st0" d="M455.1,205.9h-166c-5.7,0-10.4-4.6-10.4-10.4s4.6-10.4,10.4-10.4h166c5.7,0,10.4,4.6,10.4,10.4
		C465.5,201.2,460.9,205.9,455.1,205.9z"/>
	<path class="st0" d="M455.1,268.1h-166c-5.7,0-10.4-4.6-10.4-10.4c0-5.7,4.6-10.4,10.4-10.4h166c5.7,0,10.4,4.6,10.4,10.4
		C465.5,263.5,460.9,268.1,455.1,268.1z"/>
	<path class="st0" d="M455.1,330.4h-166c-5.7,0-10.4-4.6-10.4-10.4c0-5.7,4.6-10.4,10.4-10.4h166c5.7,0,10.4,4.6,10.4,10.4
		C465.5,325.7,460.9,330.4,455.1,330.4z"/>
	<path class="st0" d="M455.1,392.6h-166c-5.7,0-10.4-4.6-10.4-10.4c0-5.7,4.6-10.4,10.4-10.4h166c5.7,0,10.4,4.6,10.4,10.4
		C465.5,388,460.9,392.6,455.1,392.6z"/>
</g>
<path class="st2" d="M289.1,496.4c-0.5,0-1.1,0-1.6-0.1L17.8,454.8C12.7,454,9,449.6,9,444.5V91.8c0-4.8,3.3-9,8.1-10.1l269.7-62.2
	c5.6-1.3,11.2,2.2,12.4,7.8c0.2,0.8,0.3,1.5,0.3,2.3V486C299.5,491.7,294.9,496.4,289.1,496.4z M29.8,435.6l249,38.3V42.6l-249,57.5
	L29.8,435.6L29.8,435.6z"/>
<path class="st2" d="M496.6,454.9H289.1c-5.7,0-10.4-4.6-10.4-10.4c0-5.7,4.6-10.4,10.4-10.4h197.1V81.4H289.1
	c-5.7,0-10.4-4.6-10.4-10.4s4.6-10.4,10.4-10.4h207.5c5.7,0,10.4,4.6,10.4,10.4v373.5C507,450.2,502.4,454.9,496.6,454.9z"/>
<path class="st2" d="M185.4,351.1c-4.6,0-8.7-3.1-10-7.5l-31.5-110.3l-31.5,110.3c-2.3,5.5-8.6,8.1-14.1,5.8
	c-2.6-1.1-4.8-3.2-5.8-5.8L50.9,198.4c-1.7-5.5,1.3-11.3,6.7-13s11.3,1.3,13,6.7c0.1,0.2,0.1,0.4,0.2,0.6L102.4,303l31.5-110.3
	c2.3-5.5,8.6-8.1,14.1-5.8c2.6,1.1,4.8,3.2,5.8,5.8L185.4,303l31.5-110.3c1.5-5.5,7.1-8.7,12.6-7.2c0.1,0,0.2,0,0.2,0.1
	c5.5,1.6,8.7,7.3,7.1,12.8l-41.5,145.3C194.1,348.1,190,351.1,185.4,351.1z"/>
<path class="st2" d="M455.1,143.6h-166c-5.7,0-10.4-4.6-10.4-10.4s4.6-10.4,10.4-10.4h166c5.7,0,10.4,4.6,10.4,10.4
	C465.5,139,460.9,143.6,455.1,143.6z"/>
<path class="st2" d="M455.1,205.9h-166c-5.7,0-10.4-4.6-10.4-10.4s4.6-10.4,10.4-10.4h166c5.7,0,10.4,4.6,10.4,10.4
	C465.5,201.2,460.9,205.9,455.1,205.9z"/>
<path class="st2" d="M455.1,268.1h-166c-5.7,0-10.4-4.6-10.4-10.4c0-5.7,4.6-10.4,10.4-10.4h166c5.7,0,10.4,4.6,10.4,10.4
	C465.5,263.5,460.9,268.1,455.1,268.1z"/>
<path class="st2" d="M455.1,330.4h-166c-5.7,0-10.4-4.6-10.4-10.4c0-5.7,4.6-10.4,10.4-10.4h166c5.7,0,10.4,4.6,10.4,10.4
	C465.5,325.7,460.9,330.4,455.1,330.4z"/>
<path class="st2" d="M455.1,392.6h-166c-5.7,0-10.4-4.6-10.4-10.4c0-5.7,4.6-10.4,10.4-10.4h166c5.7,0,10.4,4.6,10.4,10.4
	C465.5,388,460.9,392.6,455.1,392.6z"/>
</svg>
