<?xml version="1.0" encoding="utf-8"?>
<!-- Generator: Adobe Illustrator 25.3.1, SVG Export Plug-In . SVG Version: 6.00 Build 0)  -->
<svg version="1.1" id="Capa_1" xmlns="http://www.w3.org/2000/svg" xmlns:xlink="http://www.w3.org/1999/xlink" x="0px" y="0px"
	 viewBox="0 0 494 494" style="enable-background:new 0 0 494 494;" xml:space="preserve">
<style type="text/css">
	.st0{fill:#2196F3;stroke:#000000;stroke-width:8;stroke-miterlimit:10;}
	.st1{fill:#FFC107;stroke:#000000;stroke-width:8;stroke-miterlimit:10;}
	.st2{stroke:#000000;stroke-width:8;stroke-miterlimit:10;}
</style>
<g>
	<path class="st0" d="M239.2,88.5c4.4-3.7,5.1-10.3,1.4-14.7c-2.3-2.8-5.9-4.2-9.5-3.7C130.8,87.3,58.1,175.1,59.9,276.8
		c0,8.6,0.6,17.1,1.8,25.6c0.6,4.7,4.4,8.4,9.1,9c0.4,0,0.9,0,1.3,0c4.3,0,8.1-2.6,9.7-6.6c16.5-40.9,38-79.6,64.1-115.2
		C172.7,152.1,204,118.2,239.2,88.5z"/>
	<path class="st0" d="M453.9,243.9C443.6,169,393,105.7,322.1,79.2c-3.5-1.3-7.5-0.6-10.3,1.9c-19.2,16.7-37.3,34.7-54.1,53.8
		c-3.8,4.3-3.4,10.9,0.9,14.7c1.7,1.5,3.8,2.4,6,2.6c37.3,3.4,69.8,36.7,82.1,82.7H184.8c-3.4,0-6.6,1.7-8.6,4.5
		c-13.4,19.3-26,38.6-37.6,57.4l0,0l0,0c-17.9,28.3-32.8,58.3-44.4,89.8c-1,3.2-0.5,6.7,1.5,9.4c0.2,0.3,0.4,0.5,0.6,0.7
		c35.7,54.8,96.5,88.1,161.9,88.6c83.1-0.9,156.7-53.7,184.3-132c2-5.4-0.7-11.4-6.1-13.4c-1.2-0.4-2.4-0.7-3.7-0.7h-86.6
		c-4,0-7.6,2.2-9.4,5.8c-13.1,32.4-43.6,54.5-78.5,56.8c-40.2,0-75-33.9-88.1-83.5h273.4c5.2,0.1,9.7-3.8,10.4-9
		c1.7-10.9,2.5-21.8,2.6-32.8C456.5,265.7,455.6,254.8,453.9,243.9z"/>
</g>
<path class="st1" d="M396.3,16.4C362-8.3,296.8,13.2,225.9,72.4c-36.6,30.8-69.1,66.1-97,104.9c-27,37-49.4,77.3-66.6,119.8
	c-0.1,0.3-0.3,0.7-0.4,1.1c-33.4,83.7-32.6,153.7,2.1,178.4c11.4,7.9,24.7,12.5,38.6,13.2c2.3,0,4.7-0.2,7-0.7
	c6.3-1,11.8-4.7,15.1-10.2c2.9-4.9,1.4-11.3-3.5-14.3c-6.4-3.9-26-15.9-7.2-71.2c11.1-29.9,25.3-58.6,42.4-85.6
	c11.4-18.5,23.9-37.6,37-56.5l14.8-20.7c20.4-28.4,42.1-55.7,65.3-81.8c16.1-18.4,33.5-35.8,52-51.8c39.4-33.8,56.8-33.1,62.4-31.3
	c5.6,1.8,9.5,7.9,11.8,18.1c1.1,5.1,5.9,8.6,11.1,8.1c5.2-0.5,9.2-4.7,9.5-9.9C421.7,43.3,408,25,396.3,16.4z"/>
<path class="st2" d="M71.9,311.5c-5.3,0-9.8-3.9-10.4-9.2c-1-8.5-1.6-17.1-1.6-25.6C58.1,175.1,130.8,87.3,231,70.1
	c5.7-1,11.1,2.7,12.1,8.4c1,5.7-2.7,11.1-8.4,12.1c-0.3,0-0.5,0.1-0.8,0.1c-90,15.7-155,94.6-153.3,185.9c0,7.7,0.5,15.5,1.5,23.1
	c0.7,5.7-3.4,10.9-9.1,11.6c0,0,0,0,0,0L71.9,311.5z"/>
<path class="st2" d="M258.3,485.5c-65.9-0.6-127.1-34.3-162.8-89.8c-3-4.9-1.5-11.3,3.4-14.4c4.7-2.9,10.9-1.7,14,2.9
	c31.8,49.6,86.5,79.8,145.4,80.4c68.8-0.7,130.9-41.5,158.8-104.4h-64.6c-17.4,36.7-53.6,60.8-94.2,62.6
	c-53.7,0-99.6-46.4-111.7-112.9c-1-5.7,2.7-11.1,8.4-12.1c0.6-0.1,1.2-0.2,1.9-0.2h277.6c0.8-6.9,1.2-13.9,1.3-20.9
	c-0.1-10-0.9-20-2.4-29.8c-9.2-67.3-54.7-124.2-118.3-148c-5.4-2-8.1-8.1-6.1-13.5c2-5.3,7.8-8,13.1-6.2
	c70.9,26.4,121.6,89.7,131.9,164.6c1.7,10.9,2.5,21.9,2.6,32.9c-0.1,11-1,21.9-2.6,32.8c-0.7,5.2-5.2,9-10.4,9H169.7
	c13.1,49.7,48.2,83.5,88.4,83.5c34.9-2.3,65.5-24.4,78.5-56.8c1.8-3.6,5.4-5.8,9.4-5.8h86.7c5.8,0,10.4,4.7,10.4,10.4
	c0,1.3-0.2,2.5-0.7,3.7C414.9,431.8,341.3,484.5,258.3,485.5z"/>
<path class="st2" d="M359.7,255.9H184.8c-5.8,0-10.4-4.7-10.4-10.4s4.7-10.4,10.4-10.4h161.8c-12.4-45.9-44.8-79.3-82.1-82.7
	c-5.7-0.5-10-5.6-9.5-11.3v0c0.7-5.7,5.6-9.8,11.3-9.5c50.6,4.6,92.2,49.6,103.5,112.1c1,5.7-2.7,11.1-8.4,12.1
	C360.9,255.8,360.3,255.9,359.7,255.9L359.7,255.9z"/>
<path class="st2" d="M102.6,489.7c-13.8-0.7-27.2-5.2-38.6-13.1C38.3,458,30.8,414.5,43.4,357.2c16.3-65,45.3-126.2,85.4-179.9
	c39.1-55.6,88.5-103.2,145.7-140c51.8-31.7,96.2-39.2,121.8-20.7c11.8,8.5,25.4,26.7,23.9,65.3c-0.2,5.8-5.1,10.3-10.8,10
	c-4.7-0.2-8.7-3.5-9.8-8.1c-3.9-16.7-11.1-18.1-13.5-18.6c-30-6.1-103.3,62-178,165.4c-93.1,128.9-106.4,187-101.2,213
	c1.4,8.7,6.6,16.3,14.2,20.9c4.9,3,6.5,9.3,3.6,14.2c-3.3,5.4-8.7,9.2-15,10.3C107.3,489.5,105,489.7,102.6,489.7z M361.6,27.3
	C334.2,29.9,308,39.4,285.4,55c-54.7,35.6-102,81.3-139.6,134.6c-38.4,51.4-66.3,109.9-82,172.1c-10.6,48-5.9,84.7,12.4,98
	c5.6,3.8,11.8,6.5,18.4,8.1c-4-6-6.8-12.8-8.2-19.9c-9-44.4,25.3-119.5,104.7-229.4c31.6-43.8,139.7-185.4,199-173.6
	c1.2,0.3,2.5,0.6,3.7,0.9c-2.2-4.9-5.6-9.1-9.9-12.3C377.4,29.2,369.5,27,361.6,27.3z"/>
</svg>
