<?xml version="1.0" encoding="iso-8859-1"?>
<!-- Generator: Adobe Illustrator 19.0.0, SVG Export Plug-In . SVG Version: 6.00 Build 0)  -->
<svg version="1.1" id="Capa_1" xmlns="http://www.w3.org/2000/svg" xmlns:xlink="http://www.w3.org/1999/xlink" x="0px" y="0px"
	 viewBox="0 0 512 512" style="enable-background:new 0 0 512 512;" xml:space="preserve">
<circle style="fill:#EC407A;" cx="400" cy="256" r="112"/>
<circle style="fill:#3F51B5;" cx="112" cy="256" r="112"/>
<path d="M400,368c-61.856,0-112-50.144-112-112s50.144-112,112-112s112,50.144,112,112S461.856,368,400,368z M400,176
	c-44.183,0-80,35.817-80,80s35.817,80,80,80s80-35.817,80-80S444.183,176,400,176z"/>
<path d="M112,368C50.144,368,0,317.856,0,256s50.144-112,112-112s112,50.144,112,112S173.856,368,112,368z M112,176
	c-44.183,0-80,35.817-80,80s35.817,80,80,80s80-35.817,80-80S156.183,176,112,176z"/>
<g>
</g>
<g>
</g>
<g>
</g>
<g>
</g>
<g>
</g>
<g>
</g>
<g>
</g>
<g>
</g>
<g>
</g>
<g>
</g>
<g>
</g>
<g>
</g>
<g>
</g>
<g>
</g>
<g>
</g>
</svg>
