<?xml version="1.0" encoding="utf-8"?>
<!-- Generator: Adobe Illustrator 25.3.1, SVG Export Plug-In . SVG Version: 6.00 Build 0)  -->
<svg version="1.1" id="Capa_1" xmlns="http://www.w3.org/2000/svg" xmlns:xlink="http://www.w3.org/1999/xlink" x="0px" y="0px"
	 viewBox="0 0 512.1 512.1" style="enable-background:new 0 0 512.1 512.1;" xml:space="preserve">
<style type="text/css">
	.st0{fill:#4CAF50;stroke:#000000;stroke-width:8;stroke-miterlimit:10;}
	.st1{fill:#FAFAFA;stroke:#000000;stroke-width:8;stroke-miterlimit:10;}
	.st2{stroke:#000000;stroke-width:8;stroke-miterlimit:10;}
</style>
<g>
	<path class="st0" d="M83.9,173.2c-17,0-30.8,13.8-30.8,30.8v143.6c0,17,13.8,30.8,30.8,30.8s30.8-13.8,30.8-30.8V204
		C114.7,187,100.9,173.2,83.9,173.2z"/>
	<path class="st0" d="M432.6,173.2c-17,0-30.8,13.8-30.8,30.8v143.6c0,17,13.8,30.8,30.8,30.8s30.8-13.8,30.8-30.8V204
		C463.4,187,449.6,173.2,432.6,173.2z"/>
	<path class="st0" d="M371.1,173.2H145.5c-5.7,0-10.3,4.6-10.3,10.3v164.1c0,24.4,17.1,45.4,41,50.3v72.8c0,17,13.8,30.8,30.8,30.8
		s30.8-13.8,30.8-30.8v-71.8h41v71.8c0,17,13.8,30.8,30.8,30.8s30.8-13.8,30.8-30.8v-72.8c23.9-4.9,41-25.9,41-50.3V183.5
		C381.4,177.8,376.8,173.2,371.1,173.2z"/>
	<path class="st0" d="M332.8,51.6l25-25c4.1-3.9,4.2-10.4,0.3-14.5c-3.9-4.1-10.4-4.2-14.5-0.3c-0.1,0.1-0.2,0.2-0.3,0.3l-29.1,29.1
		c-35.7-15.5-76.2-15.5-111.9,0l-29.1-29.1c-4.1-3.9-10.6-3.8-14.5,0.3c-3.8,4-3.8,10.3,0,14.3l25,25
		c-30.5,20.2-48.7,54.3-48.5,90.8c0,5.7,4.6,10.3,10.3,10.3h225.6c5.7,0,10.3-4.6,10.3-10.3C381.5,105.9,363.3,71.8,332.8,51.6z"/>
</g>
<g>
	<circle class="st1" cx="207" cy="101.4" r="10.3"/>
	<circle class="st1" cx="309.6" cy="101.4" r="10.3"/>
</g>
<path class="st2" d="M83.9,378.4c-17,0-30.8-13.8-30.8-30.8V204c0-17,13.8-30.8,30.8-30.8s30.8,13.8,30.8,30.8v143.6
	C114.7,364.6,100.9,378.4,83.9,378.4z M83.9,193.8c-5.7,0-10.3,4.6-10.3,10.3v143.6c0,5.7,4.6,10.3,10.3,10.3
	c5.7,0,10.3-4.6,10.3-10.3V204C94.2,198.3,89.6,193.8,83.9,193.8z"/>
<path class="st2" d="M432.6,378.4c-17,0-30.8-13.8-30.8-30.8V204c0-17,13.8-30.8,30.8-30.8s30.8,13.8,30.8,30.8v143.6
	C463.4,364.6,449.6,378.4,432.6,378.4z M432.6,193.8c-5.7,0-10.3,4.6-10.3,10.3v143.6c0,5.7,4.6,10.3,10.3,10.3s10.3-4.6,10.3-10.3
	V204C442.9,198.3,438.3,193.8,432.6,193.8z"/>
<path class="st2" d="M309.6,501.5c-17,0-30.8-13.8-30.8-30.8v-71.8h-41v71.8c0,17-13.8,30.8-30.8,30.8s-30.8-13.8-30.8-30.8v-72.8
	c-23.9-4.9-41-25.9-41-50.3V183.5c0-5.7,4.6-10.3,10.3-10.3h225.6c5.7,0,10.3,4.6,10.3,10.3v164.1c0,24.4-17.1,45.4-41,50.3v72.8
	C340.3,487.7,326.6,501.5,309.6,501.5z M227.5,378.4H289c5.7,0,10.3,4.6,10.3,10.3v82.1c0,5.7,4.6,10.3,10.3,10.3
	c5.7,0,10.3-4.6,10.3-10.3v-82.1c0-5.7,4.6-10.3,10.3-10.3c17,0,30.8-13.8,30.8-30.8V193.8H155.7v153.8c0,17,13.8,30.8,30.8,30.8
	c5.7,0,10.3,4.6,10.3,10.3v82.1c0,5.7,4.6,10.3,10.3,10.3c5.7,0,10.3-4.6,10.3-10.3v-82.1C217.2,383,221.8,378.4,227.5,378.4z"/>
<path class="st2" d="M371.1,152.7H145.5c-5.7,0-10.3-4.6-10.3-10.3c0-64.3,52.9-112.8,123.1-112.8s123.1,48.5,123.1,112.8
	C381.4,148.1,376.8,152.7,371.1,152.7z M156.3,132.2h204c-5.1-48.1-46.5-82.1-102-82.1C208.1,46.9,163.8,82.5,156.3,132.2z"/>
<path class="st2" d="M196.7,60.4c-2.7,0-5.3-1.1-7.3-3l-30.8-30.8c-4-4-4-10.5,0-14.5c4-4,10.5-4,14.5,0L204,42.9c4,4,4,10.5,0,14.5
	C202.1,59.3,199.5,60.4,196.7,60.4z"/>
<path class="st2" d="M319.8,60.4c-5.7,0-10.3-4.6-10.3-10.2c0-2.7,1.1-5.4,3-7.3l30.8-30.8c3.9-4.1,10.4-4.2,14.5-0.3
	c4.1,3.9,4.2,10.4,0.3,14.5c-0.1,0.1-0.2,0.2-0.3,0.3l-30.8,30.8C325.1,59.3,322.5,60.4,319.8,60.4z"/>
<circle class="st2" cx="207" cy="101.4" r="10.3"/>
<circle class="st2" cx="309.6" cy="101.4" r="10.3"/>
</svg>
