<svg id="reg" enable-background="new 0 0 24 24" height="512" viewBox="0 0 24 24" width="512" xmlns="http://www.w3.org/2000/svg"><path d="m19.708.75h-15.416c-2.129 0-3.854 1.679-3.854 3.75v15c0 2.071 1.726 3.75 3.854 3.75h15.417c2.129 0 3.854-1.679 3.854-3.75v-15c-.001-2.071-1.726-3.75-3.855-3.75z" fill="#0079c0"/><path d="m10.69 17.974c0 .771-.645 1.396-1.44 1.396h-4.44c-.795 0-1.44-.626-1.44-1.396v-13.208c0-.771.645-1.396 1.44-1.396h4.44c.795 0 1.44.625 1.44 1.396z" fill="#fff"/><path d="m20.63 12.43c0 .794-.645 1.44-1.44 1.44h-4.44c-.795 0-1.44-.646-1.44-1.44v-7.62c0-.795.646-1.44 1.44-1.44h4.44c.795 0 1.44.645 1.44 1.44z" fill="#fff"/><path d="m5.025 19.894h4.162c1.158 0 2.1-.942 2.1-2.1v-12.769c0-1.158-.941-2.1-2.1-2.1h-4.162c-1.158 0-2.101.942-2.101 2.1v12.769c.001 1.158.943 2.1 2.101 2.1zm-.6-14.869c0-.331.27-.6.601-.6h4.162c.331 0 .6.269.6.6v12.769c0 .331-.269.6-.6.6h-4.163c-.331 0-.601-.269-.601-.6v-12.769z"/><path d="m3.562 24h16.875c1.965 0 3.563-1.598 3.563-3.562v-16.876c0-1.964-1.598-3.562-3.563-3.562h-16.875c-1.964 0-3.562 1.598-3.562 3.562v16.875c0 1.965 1.598 3.563 3.562 3.563zm-2.062-20.438c0-1.137.925-2.062 2.062-2.062h16.875c1.138 0 2.063.925 2.063 2.062v16.875c0 1.137-.925 2.062-2.063 2.062h-16.875c-1.138 0-2.062-.925-2.062-2.062z"/><path d="m14.813 14.302h4.162c1.158 0 2.1-.942 2.1-2.1 0-.156 0-7.429 0-7.177 0-1.158-.942-2.1-2.101-2.1h-4.162c-1.158 0-2.1.942-2.1 2.1 0 .156 0 7.429 0 7.177.001 1.158.943 2.1 2.101 2.1zm-.6-9.277c0-.331.269-.6.6-.6h4.162c.331 0 .601.269.601.6 0 .156 0 7.429 0 7.177 0 .331-.269.6-.6.6h-4.162c-.331 0-.601-.269-.601-.6 0-.157 0-7.429 0-7.177z"/></svg>