<svg id="reg" enable-background="new 0 0 24 24" height="512" viewBox="0 0 24 24" width="512" xmlns="http://www.w3.org/2000/svg"><path d="m10 .5c.633 0 1.509-.023 2.27.15 1.12.29 1.36 1.47 1.36 1.47s6.53.51 7.16 3.55c1.29 6.18.44 12.24.39 12.24-.79 5.87-5.49 5.59-5.49 5.59-.835 0-1.578-.208-2.27-.71-2.375-1.609-1.197-5.24 1.51-5.24.844 0 1.152 1.155.41 1.6-.239.16-.688.102-.92.32-.804.715-.046 1.95 1.21 1.95 1.25-.01 2.26-.973 2.26-2.35 0-1.16-.431-2.396-2.35-2.84-1.152-.266-3.25-.82-3.38-2.59 0 0 .18 2.55-1.71 3.39-3.833 1.709-7.95-3.354-7.95-7.499 0-.52-.007-.807 0-1.531z" fill="#4caf50"/><path d="m8.5 5.5c-.068-2.69-.392-3.602 0-4l-4.987 5c.952-.969 5.043 1.202 4.987-1z" fill="#fff"/><path d="m8.061 1.201-4.845 4.881c-.005.004-.01.009-.014.014-.688.704.363 1.748 1.062 1.06.224-.118 1.082.012 1.596.089 3.742.564 3.62-.606 3.353-3.938-.04-.488-.08-.992-.084-1.053.692-.707-.373-1.756-1.068-1.053zm-.232 4.627c-.248.198-1.717-.064-2.126-.123l2.032-2.047c.178 2.302.091 2.065.094 2.17z"/><path d="m2.002 8.08c-.039 3.794.865 6.933 4.075 9.013 1.548 1.002 3.226 1.184 4.72.512.909-.406 1.431-1.108 1.728-1.815.61.452 1.404.691 2.157.891-1.355.015-3.295 1.283-3.295 3.566 0 2.017 1.669 3.592 3.969 3.746 2.977.191 5.761-1.907 6.324-6.111.359-1.525.675-7.104-.389-12.224-.619-3.005-5.487-3.826-7.153-4.02-.764-1.659-2.243-1.642-4.085-1.636-.992 0-.993 1.5 0 1.5 1.463-.005 2.544-.086 2.799.983.066.329.343.573.677.599 1.503.118 5.886.899 6.294 2.877 1.126 5.419.539 10.87.398 11.597-.033.104-.573 5.213-4.765 4.937-1.237-.083-2.569-.821-2.569-2.249 0-1.58 1.669-2.295 2.016-2.041l.033.105c-.045.031-.205.069-.302.091-1.181.279-1.569 1.326-1.237 2.194.312.818 1.171 1.368 2.144 1.368 1.678-.014 2.943-1.324 2.943-3.049 0-2.743-1.995-3.293-3.452-3.695-1.455-.401-2.055-.665-2.128-1.671-.03-.411-.372-.735-.799-.692-.412.028-.724.385-.697.796.001.02.108 1.987-1.223 2.582-1.304.584-2.511.104-3.292-.402-2.778-1.8-3.425-4.498-3.391-7.739.009-.995-1.491-1.012-1.5-.013zm14.408 10.19c0-.479-.184-.899-.518-1.187.721.327 1.091.796 1.091 1.833 0 .891-.612 1.542-1.449 1.549-.379 0-.662-.208-.736-.403-.055-.144.126-.187.18-.199.392-.093 1.432-.338 1.432-1.593z"/><path d="m16.911 10.802c.131-.378.872-.282.916.161.095.995 1.588.846 1.492-.146-.09-.923-.799-1.621-1.765-1.735-.946-.117-1.769.382-2.062 1.229-.322.938 1.094 1.43 1.419.491z"/></svg>