<svg id="reg" enable-background="new 0 0 24 24" height="512" viewBox="0 0 24 24" width="512" xmlns="http://www.w3.org/2000/svg"><path d="m2 15.542v7.708c0 .414.336.75.75.75h18.5c.414 0 .75-.336.75-.75v-7.708c0-.992-1.5-.993-1.5 0v6.958h-17v-6.958c0-.992-1.5-.992-1.5 0z"/><path d="m6.645 20.146h9.737c.992 0 .993-1.5 0-1.5h-9.737c-.992 0-.993 1.5 0 1.5z"/><path d="m6.641 15.519c10.153 2.079 9.538 1.973 9.686 1.973.897 0 1.03-1.304.15-1.485l-9.534-1.958c-.972-.199-1.275 1.27-.302 1.47z"/><path d="m7.854 10.326c9.121 4.524 8.692 4.421 9.026 4.421.79 0 1.04-1.069.335-1.421l-8.691-4.342c-.885-.444-1.558.898-.67 1.342z"/><path d="m10.072 6.42 7.616 5.861c.774.597 1.712-.575.915-1.188l-7.616-5.861c-.786-.607-1.702.583-.915 1.188z"/><path d="m20.697 9.309-5.722-7.513c-.6-.789-1.795.119-1.193.909l5.722 7.513c.596.784 1.799-.113 1.193-.909z"/></svg>