<svg id="reg" enable-background="new 0 0 24 24" height="512" viewBox="0 0 24 24" width="512" xmlns="http://www.w3.org/2000/svg"><g fill="#0077b5"><path d="m23.495 23.25v-.001h.005v-8.185c0-4.127-.888-7.305-5.712-7.305-2.319 0-3.875 1.273-4.511 2.48h-.067v-2.095h-4.574v15.105h4.763v-7.353c0-2.002.38-3.937 2.859-3.937 2.443 0 2.479 2.285 2.479 4.067v7.225h4.758z"/><path d="m1.07 8.395h4.769v14.855h-4.769z"/><path d="m3.454.69c-1.524 0-2.762 1.238-2.762 2.762 0 1.525 1.237 2.787 2.762 2.787 1.524 0 2.762-1.263 2.762-2.787 0-1.525-1.238-2.762-2.762-2.762z"/></g><path d="m18.59 24c.103 0 4.762-.001 4.66-.001.414 0 .75-.336.75-.75-.35-7.857 1.842-16.148-6.338-16.148-1.573 0-2.826.537-3.729 1.247 0-1.461-1.579-.653-5.224-.87-.414 0-.75.336-.75.75.302 14.166-.674 15.771.75 15.771h4.66c1.353 0 .492-1.908.75-8.188 0-2.594.75-3.102 2.046-3.102 1.434 0 1.675.996 1.675 3.228.257 6.167-.598 8.063.75 8.063zm-2.425-12.791c-4.491 0-3.546 4.938-3.546 11.29h-3.16v-13.521h2.974v1.298c0 .72 1.097 1.074 1.479.35.492-.934 1.77-2.025 3.75-2.025 3.527 0 4.838 1.733 4.838 6.396v7.503h-3.16c0-7.144.756-11.291-3.175-11.291z"/><path d="m1.122 7.479c-1.42 0-.448 1.585-.75 15.771 0 .414.336.75.75.75h4.665c1.42 0 .448-1.585.75-15.771 0-1.295-1.881-.531-5.415-.75zm3.915 15.021h-3.165v-13.521h3.165z"/><path d="m3.452 0c-4.576 0-4.548 6.929 0 6.929 4.545 0 4.581-6.929 0-6.929zm0 5.429c-2.568 0-2.592-3.929 0-3.929 2.597 0 2.564 3.929 0 3.929z"/></svg>