<svg id="reg" enable-background="new 0 0 24 24" height="512" viewBox="0 0 24 24" width="512" xmlns="http://www.w3.org/2000/svg"><g fill="#f44336"><path d="m11.999 17.426c.015-.926-1.221-1.199-1.751-.618 0 0-3.623 3.931-3.746 4.245-.328.958 1.557 1.569 2.531 1.939 1.059.402 1.812.567 2.259.489.323-.068.531-.238.633-.511.083-.233.075-5.544.074-5.544z"/><path d="m11.548 1.116c-.076-.297-.279-.489-.611-.575-.979-.262-4.482.711-5.173 1.464-.221.228-.306.496-.234.794.204.842 4.5 7.758 4.5 7.758.962 1.561 2.17 1.091 2.091-.652h-.001c-.062-1.15-.514-8.411-.572-8.789z"/><path d="m9.557 15.102c.901-.399.824-1.602.066-1.912-2.02-.844-4.449-1.692-4.992-1.69-.828-.05-.987.814-1.071 1.672-.076.776-.079 1.488-.013 2.136.062.684.209 1.151.882 1.192.962 0 5.128-1.398 5.128-1.398z"/><path d="m20.159 12.05c.381-.27.323-.671.328-.803-.188-1.05-1.846-3.242-2.661-3.643-.31-.146-.58-.137-.811.027-.305.21-3.326 4.209-3.326 4.209-.536.735.333 1.856 1.134 1.642 0 0 5.087-1.264 5.336-1.432z"/><path d="m15.037 15.562c-.832-.302-1.611.763-1.128 1.502.137.237 2.748 4.117 2.969 4.277.213.183.479.21.784.092.855-.347 2.706-2.477 2.826-3.418.048-.333-.04-.593-.27-.78-.187-.169-5.181-1.673-5.181-1.673z"/></g><path d="m8.624 23.367.227.086c.955.365 1.674.542 2.234.542.136 0 .263-.01.382-.031.561-.119.974-.464 1.166-.982.013-.035.205-4.238.07-5.664h.046c.011-.69-.39-1.278-1.043-1.535-.703-.276-1.49-.108-1.96.414-3.61 3.948-3.727 4.243-3.793 4.417-.528 1.553 1.553 2.333 2.671 2.753zm2.232-6.161c.084-.093.396-.062.393.09 0 .004.001.008.001.012.003 1.982-.014 4.932-.068 5.183-.601.106-3.545-1.046-3.793-1.372.386-.499 1.999-2.307 3.467-3.913z"/><path d="m12.865 9.91c-.049-.906-.497-8.234-.562-8.668-.003-.024-.008-.048-.014-.072-.142-.558-.543-.95-1.126-1.103-1.245-.338-4.916.713-5.758 1.638-.394.413-.542.935-.414 1.472.205.847 3.186 5.741 4.457 7.803 1.345 2.199 3.531 1.412 3.417-1.07zm-6.363-7.181c.467-.514 3.563-1.399 4.324-1.206.075.805.472 7.189.542 8.462.024.541-.114.768-.092.782-.057-.008-.279-.128-.55-.571-1.975-3.207-4.117-6.845-4.278-7.372z"/><path d="m4.893 10.762c-1.61-.105-1.767 1.653-1.83 2.312-.078.796-.083 1.549-.015 2.229.039.436.159 1.762 1.604 1.848.946 0 4.922-1.277 5.283-1.433.677-.302 1.091-.943 1.08-1.674-.01-.701-.417-1.318-1.031-1.572-1.131-.476-4.252-1.71-5.086-1.71-.002 0-.003 0-.005 0zm4.622 3.304c.001.084-.027.199-.167.271-1.922.648-4.192 1.314-4.707 1.326-.015-.021-.064-.117-.1-.502-.059-.59-.055-1.244.014-1.942.073-.757.181-.93.288-.958.36.019 2.314.649 4.563 1.596.073.03.108.126.109.209z"/><path d="m14.546 14.226c.127 0 .253-.016.376-.049 5.068-1.269 5.298-1.425 5.421-1.509.004-.003.008-.006.012-.009.646-.461.636-1.13.632-1.367.003-.053-.001-.107-.011-.16-.215-1.209-1.946-3.588-2.999-4.109-.551-.262-1.099-.227-1.536.087-.108.075-.396.275-3.409 4.294-.415.575-.399 1.359.041 1.996.36.523.922.826 1.473.826zm2.775-5.854c.572.284 2.036 2.229 2.166 2.958 0 .025.001.062.002.083-.559.186-2.86.79-4.944 1.312-.097.07-.385-.322-.305-.433 1.329-1.773 2.856-3.751 3.081-3.92z"/><path d="m16.243 21.705c.26.224.575.339.914.339.201 0 .411-.041.621-.124 1.059-.432 3.052-2.744 3.201-3.931.085-.587-.104-1.103-.497-1.423-.144-.131-.307-.28-5.301-1.795-.653-.227-1.365-.007-1.821.564-.479.6-.533 1.414-.158 1.99.022.039 2.672 4.113 3.041 4.38zm-1.71-5.434c.018-.022.074-.086.132-.086.089.024.058.016.064.018 1.991.604 4.202 1.302 4.767 1.521-.021.631-1.654 2.531-2.304 2.801-.466-.598-2.517-3.654-2.711-3.979-.058-.092.008-.22.052-.275z"/></svg>