<?xml version="1.0" encoding="iso-8859-1"?>
<!-- Generator: Adobe Illustrator 19.0.0, SVG Export Plug-In . SVG Version: 6.00 Build 0)  -->
<svg version="1.1" id="Capa_1" xmlns="http://www.w3.org/2000/svg" xmlns:xlink="http://www.w3.org/1999/xlink" x="0px" y="0px"
	 viewBox="0 0 512.001 512.001" style="enable-background:new 0 0 512.001 512.001;" xml:space="preserve">
<path style="fill:#FF7043;" d="M498.944,198.081c-10.816-4.608-57.184,0.544-70.048-11.104c-9.088-8.384-9.6-23.552-13.216-43.776
	c-1.984-18.961-6.907-37.497-14.592-54.944C377.831,38.761,330.183,5.211,275.744,0.001H162.24C72.865,0.158,0.387,72.45,0,161.825
	v188.8c0.528,89.243,72.995,161.325,162.24,161.376H348.8c89.227-0.226,161.623-72.279,162.272-161.504L512,219.841
	C511.984,210.738,506.968,202.379,498.944,198.081z M164.288,132.225h89.984c17.055-0.006,30.885,13.815,30.891,30.869
	s-13.815,30.885-30.869,30.891c-0.007,0-0.014,0-0.021,0h-89.984c-17.055,0.006-30.885-13.815-30.891-30.869
	c-0.006-17.055,13.815-30.885,30.869-30.891C164.274,132.225,164.281,132.225,164.288,132.225z M347.168,378.913h-182.88
	c-17.01,0.548-31.244-12.797-31.793-29.807c-0.548-17.01,12.797-31.245,29.807-31.793c0.662-0.021,1.324-0.021,1.986,0h182.88
	c17.01-0.548,31.245,12.797,31.793,29.807s-12.797,31.245-29.807,31.793C348.492,378.934,347.83,378.934,347.168,378.913z"/>
<path d="M342.912,512.001H168.096C75.497,512.089,0.3,437.207,0,344.609V167.713C0.212,75.026,75.409,0,168.096,0.001h106.4
	C331.78,4.719,382.131,39.801,406.4,91.905c7.826,17.635,12.877,36.373,14.976,55.552l1.696,10.432
	c0.312,7.546,2.279,14.93,5.76,21.632c10.734,2.8,21.806,4.092,32.896,3.84c9.546-0.379,19.088,0.854,28.224,3.648l0,0
	c13.566,6.384,22.176,20.08,22.048,35.072l-0.96,122.656C510.338,437.159,435.336,511.775,342.912,512.001z M168.096,32.001
	C93.075,31.983,32.194,92.692,32,167.713v176.896c0.282,74.933,61.163,135.498,136.096,135.392h174.816
	c74.846-0.208,135.567-60.644,136.128-135.488l0.96-122.56c0-0.832-0.704-4.448-2.304-5.408c-5.605-0.716-11.246-1.111-16.896-1.184
	c-18.605,1.714-37.272-2.557-53.28-12.192c-9.855-11.199-15.511-25.475-16-40.384l-1.568-9.792
	c-1.594-16.35-5.763-32.344-12.352-47.392c-19.298-40.737-58.307-68.583-103.104-73.6H168.096z M341.472,387.201H170.016
	c-24.742,0-44.8-20.058-44.8-44.8c0-24.742,20.058-44.8,44.8-44.8l0,0h171.456c24.742,0,44.8,20.058,44.8,44.8
	C386.272,367.143,366.214,387.201,341.472,387.201z M170.016,329.601c-7.144-0.054-12.997,5.657-13.12,12.8
	c0.207,7.106,6.011,12.768,13.12,12.8h171.456c7.068-0.067,12.805-5.734,12.96-12.8c0.001-7.069-5.73-12.8-12.799-12.801
	c-0.054,0-0.107,0-0.161,0.001H170.016z M254.4,213.857h-84.384c-24.822,0-44.944-20.122-44.944-44.944s20.122-44.944,44.944-44.944
	H254.4c24.822,0,44.944,20.122,44.944,44.944S279.222,213.857,254.4,213.857z M170.016,155.969c-7.149,0-12.944,5.795-12.944,12.944
	s5.795,12.944,12.944,12.944H254.4c7.149,0,12.944-5.795,12.944-12.944s-5.795-12.944-12.944-12.944H170.016z"/>
<g>
</g>
<g>
</g>
<g>
</g>
<g>
</g>
<g>
</g>
<g>
</g>
<g>
</g>
<g>
</g>
<g>
</g>
<g>
</g>
<g>
</g>
<g>
</g>
<g>
</g>
<g>
</g>
<g>
</g>
</svg>
