<svg id="reg" enable-background="new 0 0 24 24" height="512" viewBox="0 0 24 24" width="512" xmlns="http://www.w3.org/2000/svg"><path d="m17.516 19.677c8.986-5.479 5.015-19.177-5.516-19.177-5.8 0-10.5 4.64-10.5 10.362 0 6.695 6.35 11.65 12.975 10.07.995 1.764 2.178 3.014 5.4 2.418v-1.758c0-.001-1.728-.507-2.359-1.915z" fill="#f44336"/><path d="m15.975 16.574c-1.183-1.152-3.122-2.229-5.475-2.109v1.924s1.682.226 2.773 1.941c-7.553 2.035-9.949-14.83-1.275-14.83 7.22 0 6.039 11.214 3.977 13.074z" fill="#fff"/><path d="m22.576 7.979c-1.363-4.847-5.514-7.979-10.576-7.979-6.065 0-11 4.884-11 10.887 0 3.331 1.511 6.434 4.144 8.511 2.53 1.996 5.747 2.776 8.903 2.185.925 1.464 2.089 2.419 4.164 2.419.485 0 1.02-.052 1.613-.163.355-.066.613-.376.613-.737v-1.72c0-.333-.22-.626-.539-.72-.011-.003-.898-.28-1.482-.933 3.809-2.677 5.438-7.208 4.16-11.75zm-5.582 10.891c-.322.197-.448.602-.294.946.513 1.146 1.585 1.783 2.237 2.079v.563c-2.334.268-3.114-.749-3.868-2.088-.135-.24-.387-.382-.653-.382-.058 0-.116.007-.175.021-2.879.688-5.855.038-8.168-1.788-2.271-1.792-3.573-4.465-3.573-7.334 0-5.176 4.262-9.387 9.5-9.387 4.371 0 7.956 2.703 9.133 6.886 1.16 4.124-.465 8.239-4.139 10.484z"/><path d="m11.998 2.935c-2.406 0-4.296 1.214-5.323 3.419-1.504 3.232-.877 8.063 1.399 10.769 1.099 1.306 2.474 1.985 3.969 1.985.628 0 1.671-.058 1.899-.644.086-.222.062-.472-.066-.674-.806-1.269-1.901-1.831-2.59-2.071v-.554c2.087.134 3.518 1.307 4.071 1.846.283.276.733.285 1.026.019 1.184-1.071 1.735-3.224 1.735-6.774.001-4.447-2.401-7.321-6.12-7.321zm3.789 12.462c-1.021-.805-2.855-1.855-5.289-1.734-.399.021-.712.35-.712.749v1.881c0 .371.277.687.644.742.035.006.609.1 1.24.555-.909-.1-1.729-.579-2.447-1.433-1.904-2.263-2.448-6.462-1.188-9.17.542-1.165 1.67-2.553 3.963-2.553 2.851 0 4.621 2.231 4.621 5.822 0 2.465-.279 4.188-.832 5.141z"/></svg>