<?xml version="1.0" encoding="iso-8859-1"?>
<!-- Generator: Adobe Illustrator 19.0.0, SVG Export Plug-In . SVG Version: 6.00 Build 0)  -->
<svg version="1.1" id="Capa_1" xmlns="http://www.w3.org/2000/svg" xmlns:xlink="http://www.w3.org/1999/xlink" x="0px" y="0px"
	 viewBox="0 0 512 512" style="enable-background:new 0 0 512 512;" xml:space="preserve">
<path style="fill:#E53935;" d="M32,48h448c17.673,0,32,14.327,32,32v320c0,17.673-14.327,32-32,32H32c-17.673,0-32-14.327-32-32V80
	C0,62.327,14.327,48,32,48z"/>
<g>
	<circle style="fill:#ECEFF1;" cx="112" cy="416" r="32"/>
	<circle style="fill:#ECEFF1;" cx="400" cy="416" r="32"/>
</g>
<g>
	<rect x="80" y="128" style="fill:#FAFAFA;" width="352" height="64"/>
	<rect x="80" y="256" style="fill:#FAFAFA;" width="416" height="64"/>
	<rect x="208" y="288" style="fill:#FAFAFA;" width="96" height="128"/>
</g>
<path d="M480,432h-48c-8.837,0-16-7.163-16-16s7.163-16,16-16h48V80H32v320h48c8.837,0,16,7.163,16,16s-7.163,16-16,16H32
	c-17.673,0-32-14.327-32-32V80c0-17.673,14.327-32,32-32h448c17.673,0,32,14.327,32,32v320C512,417.673,497.673,432,480,432z"/>
<path d="M368,432H144c-8.837,0-16-7.163-16-16s7.163-16,16-16h224c8.837,0,16,7.163,16,16S376.837,432,368,432z"/>
<path d="M112,464c-26.51,0-48-21.49-48-48s21.49-48,48-48s48,21.49,48,48S138.51,464,112,464z M112,400c-8.837,0-16,7.163-16,16
	s7.163,16,16,16s16-7.163,16-16S120.837,400,112,400z"/>
<path d="M400,464c-26.51,0-48-21.49-48-48s21.49-48,48-48s48,21.49,48,48S426.51,464,400,464z M400,400c-8.837,0-16,7.163-16,16
	s7.163,16,16,16s16-7.163,16-16S408.837,400,400,400z"/>
<path d="M304,432c-8.837,0-16-7.163-16-16V272h-64v144c0,8.837-7.163,16-16,16s-16-7.163-16-16V256c0-8.837,7.163-16,16-16h96
	c8.837,0,16,7.163,16,16v160C320,424.837,312.837,432,304,432z"/>
<path d="M208,336H80c-8.837,0-16-7.163-16-16v-64c0-8.837,7.163-16,16-16h128c8.837,0,16,7.163,16,16s-7.163,16-16,16H96v32h112
	c8.837,0,16,7.163,16,16S216.837,336,208,336z"/>
<path d="M496,336H304c-8.837,0-16-7.163-16-16s7.163-16,16-16h192c8.837,0,16,7.163,16,16S504.837,336,496,336z"/>
<path d="M496,272H304c-8.837,0-16-7.163-16-16s7.163-16,16-16h192c8.837,0,16,7.163,16,16S504.837,272,496,272z"/>
<path d="M400,336c-8.837,0-16-7.163-16-16v-64c0-8.837,7.163-16,16-16s16,7.163,16,16v64C416,328.837,408.837,336,400,336z"/>
<path d="M432,208H80c-8.837,0-16-7.163-16-16v-64c0-8.837,7.163-16,16-16h352c8.837,0,16,7.163,16,16v64
	C448,200.837,440.837,208,432,208z M96,176h320v-32H96V176z"/>
<path d="M256,208c-8.837,0-16-7.163-16-16v-64c0-8.837,7.163-16,16-16c8.837,0,16,7.163,16,16v64C272,200.837,264.837,208,256,208z"
	/>
<path d="M176,208c-8.837,0-16-7.163-16-16v-64c0-8.837,7.163-16,16-16s16,7.163,16,16v64C192,200.837,184.837,208,176,208z"/>
<path d="M336,208c-8.837,0-16-7.163-16-16v-64c0-8.837,7.163-16,16-16s16,7.163,16,16v64C352,200.837,344.837,208,336,208z"/>
<g>
</g>
<g>
</g>
<g>
</g>
<g>
</g>
<g>
</g>
<g>
</g>
<g>
</g>
<g>
</g>
<g>
</g>
<g>
</g>
<g>
</g>
<g>
</g>
<g>
</g>
<g>
</g>
<g>
</g>
</svg>
