<?xml version="1.0" encoding="iso-8859-1"?>
<!-- Generator: Adobe Illustrator 19.0.0, SVG Export Plug-In . SVG Version: 6.00 Build 0)  -->
<svg version="1.1" id="Capa_1" xmlns="http://www.w3.org/2000/svg" xmlns:xlink="http://www.w3.org/1999/xlink" x="0px" y="0px"
	 viewBox="0 0 512.014 512.014" style="enable-background:new 0 0 512.014 512.014;" xml:space="preserve">
<path style="fill:#607D8B;" d="M16.007,160.013h64c8.837,0,16,7.163,16,16v96c0,8.837-7.163,16-16,16h-64c-8.837,0-16-7.163-16-16
	v-96C0.007,167.176,7.171,160.013,16.007,160.013z"/>
<path style="fill:#ECEFF1;" d="M501.415,0.941c-6.36-2.282-13.468-0.322-17.76,4.896c-60.55,73.413-149.323,117.793-244.384,122.176
	c-8.548,0.394-15.273,7.443-15.264,16v160c-0.009,8.557,6.716,15.606,15.264,16c95.054,4.406,183.819,48.783,244.384,122.176
	c3.04,3.689,7.571,5.826,12.352,5.824c1.842-0.001,3.671-0.314,5.408-0.928c6.359-2.284,10.598-8.316,10.592-15.072v-416
	C512.013,9.256,507.774,3.224,501.415,0.941z"/>
<g>
	<path style="fill:#607D8B;" d="M496.007,448.013c-8.837,0-16-7.163-16-16v-416c0-8.837,7.163-16,16-16s16,7.163,16,16v416
		C512.007,440.849,504.844,448.013,496.007,448.013z"/>
	<path style="fill:#607D8B;" d="M250.791,427.405l-65.184-130.56c-2.728-5.444-8.31-8.868-14.4-8.832h-70.4c-8.837,0-16,7.163-16,16
		c0,1.924,0.347,3.831,1.024,5.632l68.192,181.856c4.809,12.352,16.697,20.493,29.952,20.512c8.461-0.024,16.548-3.489,22.4-9.6
		l38.4-38.112C254.503,454.574,256.925,439.718,250.791,427.405z"/>
</g>
<path style="fill:#2196F3;" d="M80.007,128.013h160c8.837,0,16,7.163,16,16v160c0,8.837-7.163,16-16,16h-160
	c-8.837,0-16-7.163-16-16v-160C64.007,135.176,71.171,128.013,80.007,128.013z"/>
<path d="M80.007,288.013h-64c-8.837,0-16-7.163-16-16v-96c0-8.837,7.163-16,16-16h64c8.837,0,16,7.163,16,16s-7.163,16-16,16h-48v64
	h48c8.837,0,16,7.163,16,16S88.844,288.013,80.007,288.013z"/>
<path d="M240.007,320.013h-160c-8.837,0-16-7.163-16-16v-160c0-8.837,7.163-16,16-16h160c8.837,0,16,7.163,16,16v160
	C256.007,312.849,248.844,320.013,240.007,320.013z M96.007,288.013h128v-128h-128V288.013z"/>
<path d="M496.007,448.013c-4.781,0.001-9.311-2.135-12.352-5.824c-60.548-73.398-149.305-117.777-244.352-122.176
	c-8.828-0.379-15.678-7.843-15.299-16.672c0.001-0.021,0.002-0.043,0.003-0.064c0.173-8.623,7.304-15.472,15.927-15.299
	c0.259,0.005,0.519,0.017,0.777,0.035c89.652,4.142,174.723,40.807,239.296,103.136V56.877
	c-64.573,62.329-149.644,98.994-239.296,103.136c-8.295,0.885-15.736-5.122-16.621-13.417c-0.065-0.613-0.093-1.23-0.083-1.847
	c-0.415-8.827,6.405-16.318,15.232-16.733c0.021-0.001,0.043-0.002,0.064-0.003c95.049-4.391,183.809-48.771,244.352-122.176
	c5.617-6.822,15.7-7.799,22.522-2.182c3.693,3.041,5.832,7.574,5.83,12.358v416c0.006,6.756-4.233,12.788-10.592,15.072
	C499.678,447.698,497.849,448.012,496.007,448.013z"/>
<path d="M183.943,512.013c-2.149,0-4.293-0.215-6.4-0.64c-10.723-2.156-19.584-9.675-23.456-19.904L85.863,309.645
	c-3.113-8.27,1.068-17.498,9.338-20.611c8.27-3.113,17.498,1.068,20.611,9.338c0.001,0.003,0.002,0.006,0.003,0.008l68.128,181.632
	l38.4-38.4l-65.536-130.432c-3.959-7.953-0.721-17.609,7.232-21.568c7.953-3.959,17.609-0.721,21.568,7.232l65.28,130.56
	c6.229,12.319,3.855,27.245-5.888,37.024l-38.4,38.112C200.668,508.675,192.475,512.1,183.943,512.013z"/>
<g>
</g>
<g>
</g>
<g>
</g>
<g>
</g>
<g>
</g>
<g>
</g>
<g>
</g>
<g>
</g>
<g>
</g>
<g>
</g>
<g>
</g>
<g>
</g>
<g>
</g>
<g>
</g>
<g>
</g>
</svg>
