<svg fill="none" height="512" viewBox="0 0 24 24" width="512" xmlns="http://www.w3.org/2000/svg"><g clip-rule="evenodd" fill-rule="evenodd"><path d="m19.75 3.00001c0-.24306-.1178-.47105-.316-.61169-.1983-.14064-.4524-.1765-.6818-.09621l-9.99996 3.5c-.30082.10529-.50224.38919-.50224.7079v7.49969c-.62675-.4707-1.4058-.7497-2.25-.7497-2.07107 0-3.75 1.6789-3.75 3.75s1.67893 3.75 3.75 3.75 3.75-1.6789 3.75-3.75c0-.1167-.00533-.2322-.01577-.3463.01034-.0496.01577-.101.01577-.1537v-9.46788l8.5-2.975v6.94258c-.6267-.4707-1.4058-.7497-2.25-.7497-2.0711 0-3.75 1.6789-3.75 3.75s1.6789 3.75 3.75 3.75 3.75-1.6789 3.75-3.75z" fill="#2196f3"/><path d="m19.75 3.00001c0-.24306-.1178-.47105-.316-.61169-.1983-.14064-.4524-.1765-.6818-.09621l-9.99996 3.5c-.30082.10529-.50224.38919-.50224.7079v7.49969c-.62675-.4707-1.4058-.7497-2.25-.7497-2.07107 0-3.75 1.6789-3.75 3.75s1.67893 3.75 3.75 3.75 3.75-1.6789 3.75-3.75c0-.1167-.00533-.2322-.01577-.3463.01034-.0496.01577-.101.01577-.1537v-9.46788l8.5-2.975v6.94258c-.6267-.4707-1.4058-.7497-2.25-.7497-2.0711 0-3.75 1.6789-3.75 3.75s1.6789 3.75 3.75 3.75 3.75-1.6789 3.75-3.75zm-1.5 10.99999c0-1.2426-1.0074-2.25-2.25-2.25s-2.25 1.0074-2.25 2.25 1.0074 2.25 2.25 2.25 2.25-1.0074 2.25-2.25zm-12.25.75c-1.24264 0-2.25 1.0074-2.25 2.25s1.00736 2.25 2.25 2.25 2.25-1.0074 2.25-2.25-1.00736-2.25-2.25-2.25z" fill="#000"/></g></svg>