<svg id="_x31__x2C_5" height="512" viewBox="0 0 24 24" width="512" xmlns="http://www.w3.org/2000/svg"><path d="m19.65.96c-1.001 0-1.943.437-2.584 1.194l-15.731 18.27c-.245.295-.375.65-.375 1.026 0 .876.713 1.59 1.59 1.59.377 0 .733-.13 1.035-.383l18.256-15.72c.762-.644 1.199-1.587 1.199-2.587 0-1.869-1.521-3.39-3.39-3.39z" fill="#607d8b"/><path d="m1.729 24c-.954 0-1.729-.775-1.729-1.728 0-.409.141-.795.407-1.116l17.1-19.858c.696-.823 1.721-1.298 2.808-1.298 2.032 0 3.685 1.653 3.685 3.685 0 1.087-.475 2.112-1.303 2.813l-19.843 17.085c-.329.275-.715.417-1.125.417zm18.586-22.5c-.646 0-1.253.281-1.668.771l-17.094 19.854c-.046.055-.053.108-.053.147 0 .124.104.228.229.228.038 0 .091-.007.154-.06l19.841-17.084c.495-.418.776-1.026.776-1.671 0-1.205-.98-2.185-2.185-2.185z"/><path d="m18.75 6c-.192 0-.384-.073-.53-.22-.293-.293-.293-.768 0-1.061l1.5-1.5c.293-.293.768-.293 1.061 0s.293.768 0 1.061l-1.5 1.5c-.147.147-.339.22-.531.22z"/><path d="m23 17.75c-.192 0-.384-.073-.53-.22l-.75-.75c-1.532-1.533-1.532-4.027 0-5.561.948-.948.948-2.491 0-3.439l-2.75-2.75c-.293-.293-.293-.768 0-1.061s.768-.293 1.061 0l2.75 2.75c1.532 1.533 1.532 4.027 0 5.561-.947.948-.947 2.491 0 3.439l.75.75c.293.293.293.768 0 1.061-.147.147-.339.22-.531.22z"/><path d="m10 3.432c-1.051 0-2.038-.409-2.78-1.152l-.75-.75c-.293-.293-.293-.768 0-1.061s.768-.293 1.061 0l.75.75c.918.919 2.521.919 3.439 0 1.484-1.485 4.076-1.485 5.561 0l.696.697c.293.293.293.768 0 1.061-.293.294-.768.292-1.061 0l-.696-.697c-.918-.919-2.521-.919-3.439 0-.743.743-1.73 1.152-2.781 1.152z"/></svg>