<svg id="_x31__x2C_5_px" enable-background="new 0 0 24 24" height="512" viewBox="0 0 24 24" width="512" xmlns="http://www.w3.org/2000/svg"><path d="m12 7.5c-1.103 0-2-.897-2-2s.897-2 2-2 2 .897 2 2-.897 2-2 2z" fill="#2196f3"/><path d="m7.71 9.36c-.239 0-.475-.114-.62-.328-.713-1.046-1.09-2.267-1.09-3.532s.377-2.486 1.09-3.532c.233-.342.701-.431 1.042-.197.342.233.431.7.197 1.042-.542.795-.829 1.725-.829 2.687s.287 1.892.83 2.688c.233.342.145.809-.197 1.042-.13.088-.277.13-.423.13z"/><path d="m5.241 11c-.237 0-.471-.112-.617-.323-1.062-1.531-1.624-3.322-1.624-5.177s.562-3.646 1.624-5.177c.236-.34.704-.424 1.043-.189.34.236.425.703.189 1.043-.887 1.28-1.356 2.775-1.356 4.323s.469 3.043 1.356 4.323c.236.34.151.808-.189 1.043-.13.091-.279.134-.426.134z"/><path d="m16.29 9.36c-.146 0-.293-.042-.422-.13-.342-.233-.431-.7-.197-1.042.542-.796.829-1.726.829-2.688s-.287-1.892-.83-2.688c-.233-.342-.145-.809.197-1.042.34-.233.809-.146 1.042.197.714 1.047 1.091 2.268 1.091 3.533s-.377 2.486-1.09 3.532c-.145.213-.381.328-.62.328z"/><path d="m18.759 11c-.147 0-.296-.043-.427-.134-.34-.236-.425-.703-.189-1.043.888-1.28 1.357-2.775 1.357-4.323s-.469-3.043-1.356-4.323c-.236-.34-.151-.808.189-1.043.34-.235.808-.151 1.043.189 1.062 1.531 1.624 3.322 1.624 5.177s-.562 3.646-1.624 5.177c-.146.21-.379.323-.617.323z"/><path d="m12 8c-1.378 0-2.5-1.122-2.5-2.5s1.122-2.5 2.5-2.5 2.5 1.122 2.5 2.5-1.122 2.5-2.5 2.5zm0-3.5c-.551 0-1 .449-1 1s.449 1 1 1 1-.449 1-1-.449-1-1-1z"/><path d="m16.835 24h-9.67c-.567 0-1.102-.276-1.429-.74-.328-.463-.41-1.06-.221-1.595l5.148-14.525c.139-.39.566-.594.958-.457.163.058.292.166.379.3.087-.134.217-.242.379-.3.393-.138.819.066.958.457l5.147 14.526c.189.535.107 1.131-.221 1.595-.326.463-.861.739-1.428.739zm-4.835-16.142-5.07 14.309c-.038.106.003.188.031.228s.092.105.204.105h9.67c.112 0 .176-.066.204-.105s.069-.122.031-.228z"/><path d="m6.5 23.449c-.29 0-.565-.168-.688-.451-.165-.38.009-.822.389-.987l8.147-3.538-5.938-2.33c-.269-.105-.453-.355-.474-.643s.125-.562.375-.706l5.565-3.195c.358-.205.817-.083 1.024.277.206.359.082.818-.277 1.024l-4.21 2.417 6.173 2.422c.283.111.471.381.476.685.005.303-.173.58-.451.701l-9.813 4.261c-.096.043-.198.063-.298.063z"/></svg>