<?xml version="1.0" encoding="iso-8859-1"?>
<!-- Generator: Adobe Illustrator 19.0.0, SVG Export Plug-In . SVG Version: 6.00 Build 0)  -->
<svg version="1.1" id="Capa_1" xmlns="http://www.w3.org/2000/svg" xmlns:xlink="http://www.w3.org/1999/xlink" x="0px" y="0px"
	 viewBox="0 0 512.02 512.02" style="enable-background:new 0 0 512.02 512.02;" xml:space="preserve">
<path style="fill:#2196F3;" d="M488.494,256.02l22.4-58.592c2.466-6.47,0.49-13.793-4.896-18.144l-48.64-39.488l-9.856-61.984
	c-1.094-6.842-6.467-12.203-13.312-13.28l-61.952-9.856L332.814,5.972c-4.361-5.415-11.72-7.393-18.208-4.896L256.014,23.54
	L197.422,1.076c-6.482-2.504-13.839-0.539-18.208,4.864L139.79,54.676l-61.984,9.856c-6.832,1.09-12.19,6.448-13.28,13.28
	l-9.856,61.984L5.934,179.22c-5.375,4.36-7.337,11.681-4.864,18.144l22.464,58.656l-22.4,58.592
	c-2.466,6.47-0.49,13.793,4.896,18.144l48.704,39.488l9.856,61.952c1.077,6.845,6.438,12.218,13.28,13.312l61.984,9.856
	l39.36,48.704c4.351,5.386,11.674,7.362,18.144,4.896l58.656-22.464l58.592,22.4c1.825,0.721,3.766,1.101,5.728,1.12
	c4.824-0.011,9.386-2.198,12.416-5.952l39.488-48.704l61.952-9.856c6.855-1.081,12.231-6.457,13.312-13.312l9.856-61.952
	l48.704-39.424c5.386-4.351,7.362-11.674,4.896-18.144L488.494,256.02z"/>
<path d="M320.334,512.02c-1.958,0.001-3.899-0.357-5.728-1.056L256.014,488.5l-58.592,22.4c-6.47,2.466-13.793,0.49-18.144-4.896
	l-39.488-48.64l-61.952-9.856c-6.845-1.077-12.218-6.438-13.312-13.28l-9.856-61.984L5.966,332.82
	c-5.386-4.351-7.362-11.674-4.896-18.144l22.464-58.656l-22.4-58.592c-2.512-6.475-0.56-13.831,4.832-18.208l48.704-39.424
	l9.856-61.984c1.094-6.842,6.467-12.203,13.312-13.28l61.952-9.856l39.424-48.704c4.361-5.415,11.72-7.393,18.208-4.896
	l58.592,22.464l58.592-22.4c6.475-2.512,13.831-0.56,18.208,4.832l39.488,48.704l61.952,9.856
	c6.845,1.077,12.218,6.438,13.312,13.28l9.856,61.984l48.64,39.424c5.386,4.351,7.362,11.674,4.896,18.144l-22.464,58.656
	l22.4,58.592c2.466,6.47,0.49,13.793-4.896,18.144l-48.704,39.488l-9.856,61.984c-1.094,6.842-6.467,12.203-13.312,13.28
	l-61.952,9.856l-39.36,48.704C329.77,509.84,325.181,512.029,320.334,512.02z M256.014,455.348c1.96,0.009,3.901,0.378,5.728,1.088
	l53.472,20.48l36.032-44.48c2.486-3.068,6.02-5.108,9.92-5.728l56.576-8.992l8.96-56.544c0.628-3.905,2.68-7.439,5.76-9.92
	l44.352-36.032l-20.48-53.472c-1.414-3.688-1.414-7.768,0-11.456l20.48-53.472l-44.352-36.032c-3.08-2.481-5.132-6.015-5.76-9.92
	l-8.96-56.544l-56.576-8.992c-3.9-0.62-7.434-2.66-9.92-5.728L315.214,35.22L261.742,55.7c-3.688,1.414-7.768,1.414-11.456,0
	l-53.472-20.48l-36.032,44.384c-2.486,3.068-6.02,5.108-9.92,5.728l-56.576,8.992l-8.96,56.544c-0.628,3.905-2.68,7.439-5.76,9.92
	L35.214,196.82l20.48,53.472c1.414,3.688,1.414,7.768,0,11.456l-20.48,53.472l44.448,36.032c3.08,2.481,5.132,6.015,5.76,9.92
	l8.96,56.544l56.576,8.992c3.9,0.62,7.434,2.66,9.92,5.728l35.936,44.384l53.472-20.48
	C252.119,455.663,254.06,455.326,256.014,455.348z"/>
<g>
	<path style="fill:#FAFAFA;" d="M176.014,336.02c-6.055,0-11.591-3.419-14.304-8.832l-33.696-67.392v60.224c0,8.837-7.163,16-16,16
		s-16-7.163-16-16v-128c0.001-8.837,7.165-16,16.001-15.999c6.054,0,11.59,3.418,14.303,8.831l33.696,67.392V192.02
		c0-8.837,7.163-16,16-16s16,7.163,16,16v128c0.006,7.424-5.095,13.877-12.32,15.584
		C178.487,335.883,177.252,336.023,176.014,336.02z"/>
	<path style="fill:#FAFAFA;" d="M272.014,336.02h-32c-8.837,0-16-7.163-16-16v-128c0-8.837,7.163-16,16-16h32
		c8.837,0,16,7.163,16,16s-7.163,16-16,16h-16v96h16c8.837,0,16,7.163,16,16S280.85,336.02,272.014,336.02z"/>
	<path style="fill:#FAFAFA;" d="M272.014,272.02h-32c-8.837,0-16-7.163-16-16c0-8.837,7.163-16,16-16h32c8.837,0,16,7.163,16,16
		C288.014,264.857,280.85,272.02,272.014,272.02z"/>
	<path style="fill:#FAFAFA;" d="M400.014,336.02c-6.055,0-11.591-3.419-14.304-8.832l-17.696-35.392l-17.696,35.392
		c-3.959,7.9-13.573,11.094-21.473,7.135c-5.413-2.713-8.831-8.248-8.831-14.303v-128c0-8.837,7.163-16,16-16s16,7.163,16,16v60.224
		l1.696-3.392c4.73-7.9,14.969-10.47,22.869-5.739c2.357,1.411,4.328,3.383,5.739,5.739l1.696,3.392V192.02c0-8.837,7.163-16,16-16
		s16,7.163,16,16v128c0.006,7.424-5.095,13.877-12.32,15.584C402.487,335.883,401.252,336.023,400.014,336.02z"/>
</g>
<g>
</g>
<g>
</g>
<g>
</g>
<g>
</g>
<g>
</g>
<g>
</g>
<g>
</g>
<g>
</g>
<g>
</g>
<g>
</g>
<g>
</g>
<g>
</g>
<g>
</g>
<g>
</g>
<g>
</g>
</svg>
