<svg id="_x31__x2C_5" height="512" viewBox="0 0 24 24" width="512" xmlns="http://www.w3.org/2000/svg"><path d="m12 23.25c-3.998 0-7.25-3.252-7.25-7.25v-8c0-3.998 3.252-7.25 7.25-7.25s7.25 3.252 7.25 7.25v8c0 3.998-3.252 7.25-7.25 7.25z" fill="#607d8b"/><circle cx="12" cy="6.375" fill="#ffcc80" r="5.625"/><path d="m12 24c-4.411 0-8-3.589-8-8v-8c0-4.411 3.589-8 8-8s8 3.589 8 8v8c0 4.411-3.589 8-8 8zm0-22.5c-3.584 0-6.5 2.916-6.5 6.5v8c0 3.584 2.916 6.5 6.5 6.5s6.5-2.916 6.5-6.5v-8c0-3.584-2.916-6.5-6.5-6.5z"/><path d="m6.407 21.124-.314-1.467c4.688-1.007 9.169-3.552 12.614-7.165l1.086 1.035c-3.651 3.829-8.405 6.527-13.386 7.597z"/><path d="m13.128 18.466c-3.762-.413-6.786-2.189-8.989-5.281l1.223-.87c1.971 2.767 4.564 4.291 7.931 4.66z"/><path d="m12 13c-3.584 0-6.5-2.916-6.5-6.5s2.916-6.5 6.5-6.5 6.5 2.916 6.5 6.5-2.916 6.5-6.5 6.5zm0-11.5c-2.757 0-5 2.243-5 5s2.243 5 5 5 5-2.243 5-5-2.243-5-5-5z"/><circle cx="10" cy="5" r="1"/><circle cx="14" cy="5" r="1"/><path d="m12 10c-.582 0-1.164-.222-1.719-.665-.323-.259-.376-.73-.117-1.054.26-.324.732-.375 1.055-.117.563.449 1 .449 1.563 0 .323-.258.795-.208 1.055.117.259.324.206.795-.117 1.054-.556.444-1.138.665-1.72.665z"/></svg>