<?xml version="1.0" encoding="iso-8859-1"?>
<!-- Generator: Adobe Illustrator 19.0.0, SVG Export Plug-In . SVG Version: 6.00 Build 0)  -->
<svg version="1.1" id="Capa_1" xmlns="http://www.w3.org/2000/svg" xmlns:xlink="http://www.w3.org/1999/xlink" x="0px" y="0px"
	 viewBox="0 0 512.029 512.029" style="enable-background:new 0 0 512.029 512.029;" xml:space="preserve">
<path style="fill:#B0BEC5;" d="M32.014,128.041h448c17.673,0,32,14.327,32,32v288c0,17.673-14.327,32-32,32h-448
	c-17.673,0-32-14.327-32-32v-288C0.014,142.368,14.341,128.041,32.014,128.041z"/>
<path style="fill:#CFD8DC;" d="M0.014,448.041v-7.68l256-204.8l256,204.8v7.68c0,17.673-14.327,32-32,32h-448
	C14.341,480.041,0.014,465.714,0.014,448.041z"/>
<path style="fill:#ECEFF1;" d="M0.014,160.041v7.68l256,204.8l256-204.8v-7.68c0-17.673-14.327-32-32-32h-448
	C14.341,128.041,0.014,142.368,0.014,160.041z"/>
<path style="fill:#F44336;" d="M309.998,32.041c-19.453,0.08-38.37,6.382-53.984,17.984c-15.626-11.603-34.553-17.905-54.016-17.984
	c-43.64-1.614-80.326,32.455-81.94,76.095c-0.02,0.544-0.035,1.088-0.044,1.633c0,60.448,106.176,130.4,127.456,143.808
	c5.188,3.243,11.772,3.243,16.96,0c13.056-8.032,127.584-80.544,127.584-144c-0.836-43.68-36.923-78.412-80.603-77.576
	C310.94,32.011,310.469,32.024,309.998,32.041z"/>
<path d="M256.014,368.041c-3.627,0.003-7.148-1.227-9.984-3.488l-240-192c-6.91-5.514-8.042-15.586-2.528-22.496
	s15.586-8.042,22.496-2.528l230.016,184l230.016-184c6.91-5.514,16.982-4.382,22.496,2.528c5.514,6.91,4.382,16.982-2.528,22.496
	l-240,192C263.162,366.814,259.641,368.044,256.014,368.041z"/>
<path d="M16.014,464.041C7.178,464.049,0.008,456.892,0,448.056c-0.004-4.948,2.281-9.62,6.19-12.654l182.4-142.08
	c6.853-5.579,16.931-4.547,22.51,2.306c5.579,6.853,4.547,16.931-2.306,22.51c-0.182,0.148-0.367,0.292-0.556,0.432l-182.4,142.272
	C23.008,462.965,19.553,464.09,16.014,464.041z"/>
<path d="M496.014,464.041c-3.557,0.003-7.014-1.179-9.824-3.36l-182.4-142.112c-7.091-5.272-8.566-15.295-3.294-22.386
	c5.272-7.091,15.295-8.566,22.386-3.294c0.188,0.14,0.373,0.284,0.555,0.432l182.4,142.08c6.981,5.418,8.248,15.469,2.83,22.45
	C505.635,461.76,500.963,464.046,496.014,464.041L496.014,464.041z"/>
<path d="M480.014,480.041h-448c-17.478,0.195-31.805-13.814-32-31.292c-0.003-0.236-0.003-0.472,0-0.708v-288
	c-0.195-17.478,13.814-31.805,31.292-32c0.236-0.003,0.472-0.003,0.708,0h116.48c8.837,0,16,7.163,16,16s-7.163,16-16,16H32.014v288
	h448v-288h-116.16c-8.837,0-16-7.163-16-16s7.163-16,16-16h116.16c17.478-0.195,31.805,13.814,32,31.292
	c0.003,0.236,0.003,0.472,0,0.708v288c0.195,17.478-13.814,31.805-31.292,32C480.486,480.044,480.25,480.044,480.014,480.041z"/>
<path d="M256.014,256.041c-3.024,0.002-5.986-0.852-8.544-2.464c-21.28-13.536-127.456-83.424-127.456-143.808
	c0.712-43.664,36.687-78.484,80.351-77.771c0.544,0.009,1.089,0.023,1.633,0.044c19.465,0.066,38.396,6.369,54.016,17.984
	c15.62-11.615,34.551-17.918,54.016-17.984c43.64-1.614,80.326,32.455,81.94,76.095c0.02,0.544,0.035,1.088,0.044,1.633
	c0,63.296-114.528,135.84-127.584,144C261.889,255.291,258.976,256.077,256.014,256.041z M201.998,64.041
	c-26.208-1.378-48.572,18.751-49.95,44.959c-0.013,0.256-0.025,0.513-0.034,0.769c0,28.544,51.04,76.352,104,111.296
	c51.936-33.664,104-82.176,104-111.296c-0.953-26.227-22.988-46.716-49.215-45.762c-0.256,0.009-0.513,0.021-0.769,0.034
	c-15.975-0.042-31.251,6.553-42.176,18.208c-6.432,6.539-16.947,6.626-23.486,0.194c-0.065-0.064-0.13-0.128-0.194-0.194
	C233.249,70.594,217.974,63.999,201.998,64.041z"/>
<g>
</g>
<g>
</g>
<g>
</g>
<g>
</g>
<g>
</g>
<g>
</g>
<g>
</g>
<g>
</g>
<g>
</g>
<g>
</g>
<g>
</g>
<g>
</g>
<g>
</g>
<g>
</g>
<g>
</g>
</svg>
