<svg id="_x31__x2C_5" height="512" viewBox="0 0 24 24" width="512" xmlns="http://www.w3.org/2000/svg"><path d="m20.25 5.75h-16.5c-.552 0-1 .448-1 1v11.25h18.5v-11.25c0-.552-.448-1-1-1z" fill="#fff"/><path d="m18.75 16h-1.5c-.965 0-1.75-.785-1.75-1.75v-2.5c0-.965.785-1.75 1.75-1.75h1.5c.414 0 .75.336.75.75s-.336.75-.75.75h-1.5c-.138 0-.25.112-.25.25v2.5c0 .138.112.25.25.25h1.5c.414 0 .75.336.75.75s-.336.75-.75.75z"/><path d="m10.75 16c-.414 0-.75-.336-.75-.75v-3.5c0-.965.785-1.75 1.75-1.75h1.5c.414 0 .75.336.75.75s-.336.75-.75.75h-1.5c-.138 0-.25.112-.25.25v3.5c0 .414-.336.75-.75.75z"/><path d="m13.25 14h-2.5c-.414 0-.75-.336-.75-.75s.336-.75.75-.75h2.5c.414 0 .75.336.75.75s-.336.75-.75.75z"/><path d="m7.75 16c-.268 0-.521-.144-.655-.386l-1.095-1.969v1.605c0 .414-.336.75-.75.75s-.75-.336-.75-.75v-4.5c0-.342.231-.64.562-.726.331-.084.679.063.844.362l1.094 1.969v-1.605c0-.414.336-.75.75-.75s.75.336.75.75v4.5c0 .342-.231.64-.562.726-.062.016-.125.024-.188.024z"/><path d="m12 8c-.551 0-1-.449-1-1s.449-1 1-1 1 .449 1 1-.449 1-1 1z"/><path d="m14 5.5c-.215 0-.429-.092-.578-.271-.78-.94-2.065-.94-2.846 0-.265.318-.736.363-1.056.098-.318-.264-.362-.737-.097-1.056.68-.82 1.595-1.271 2.577-1.271s1.897.451 2.577 1.271c.265.319.221.792-.098 1.056-.14.116-.31.173-.479.173z"/><path d="m16 3.5c-.216 0-.43-.093-.578-.272-.922-1.114-2.138-1.728-3.422-1.728s-2.5.614-3.422 1.728c-.264.318-.738.362-1.056.1-.319-.264-.364-.737-.1-1.056 1.213-1.465 2.839-2.272 4.578-2.272s3.365.807 4.578 2.272c.264.319.22.792-.1 1.056-.14.115-.309.172-.478.172z"/><path d="m23.25 19h-22.5c-.414 0-.75-.336-.75-.75s.336-.75.75-.75h22.5c.414 0 .75.336.75.75s-.336.75-.75.75z"/><path d="m21.25 19c-.414 0-.75-.336-.75-.75v-11.5c0-.138-.112-.25-.25-.25h-2.5c-.414 0-.75-.336-.75-.75s.336-.75.75-.75h2.5c.965 0 1.75.785 1.75 1.75v11.5c0 .414-.336.75-.75.75z"/><path d="m2.75 19c-.414 0-.75-.336-.75-.75v-11.5c0-.965.785-1.75 1.75-1.75h2.5c.414 0 .75.336.75.75s-.336.75-.75.75h-2.5c-.138 0-.25.112-.25.25v11.5c0 .414-.336.75-.75.75z"/></svg>