<?xml version="1.0" encoding="iso-8859-1"?>
<!-- Generator: Adobe Illustrator 19.0.0, SVG Export Plug-In . SVG Version: 6.00 Build 0)  -->
<svg version="1.1" id="Capa_1" xmlns="http://www.w3.org/2000/svg" xmlns:xlink="http://www.w3.org/1999/xlink" x="0px" y="0px"
	 viewBox="0 0 480.008 480.008" style="enable-background:new 0 0 480.008 480.008;" xml:space="preserve">
<path style="fill:#B0BEC5;" d="M459.128,347.333c-4.286-5.269-11.432-7.258-17.824-4.96c-18.406,6.491-37.796,9.75-57.312,9.632
	c-97.202-0.102-175.917-78.983-175.815-176.185c0.061-58.167,28.857-112.547,76.935-145.287c7.316-4.955,9.23-14.904,4.275-22.22
	c-2.532-3.738-6.525-6.232-10.995-6.868c-7.422-1.02-14.908-1.501-22.4-1.44C123.444-0.006,15.983,107.436,15.971,239.984
	C15.96,372.532,123.402,479.994,255.95,480.005c83.333,0.007,160.705-43.213,204.394-114.176
	C463.915,360.033,463.427,352.612,459.128,347.333z"/>
<path style="fill:#E3F2FD;" d="M431.992,195.013c0-1.024,0-2.016,0-3.008c0.125-53.019-42.755-96.101-95.774-96.225
	c-40.928-0.096-77.417,25.767-90.882,64.417c-1.728-0.192-3.52-0.192-5.344-0.192c-35.346,0-64,28.654-64,64s28.654,64,64,64h176
	c26.421,0.105,47.925-21.228,48.031-47.649C464.104,219.959,451.244,201.754,431.992,195.013z"/>
<path d="M255.992,480.005c-132.548,0-240-107.452-240-240s107.452-240,240-240c7.492-0.061,14.978,0.42,22.4,1.44
	c8.746,1.259,14.816,9.369,13.558,18.116c-0.642,4.462-3.137,8.446-6.87,10.972c-35.387,23.994-60.805,60.074-71.488,101.472
	c-2.209,8.563-10.941,13.713-19.504,11.504s-13.713-10.941-11.504-19.504c8.758-33.991,26.013-65.197,50.144-90.688
	C118.579,46.212,36.496,149.201,49.39,263.35s115.884,196.233,230.033,183.338c48.875-5.521,94.212-28.183,127.961-63.963
	c-58.333,6.203-116.611-12.202-160.8-50.784c-6.592-5.903-7.151-16.032-1.248-22.624c5.903-6.592,16.032-7.151,22.624-1.248
	c31.932,28.46,73.259,44.108,116.032,43.936c19.505,0.142,38.887-3.106,57.28-9.6c8.276-3.096,17.496,1.103,20.592,9.38
	c1.737,4.644,1.223,9.831-1.392,14.044C417.014,437.075,339.445,480.387,255.992,480.005z"/>
<path d="M415.992,288.005h-176c-35.346,0-64-28.654-64-64s28.654-64,64-64c1.835,0,3.627,0.064,5.376,0.192
	c17.493-50.05,72.248-76.443,122.299-58.95c38.571,13.481,64.382,49.899,64.325,90.758c0,0.992,0,1.984,0,3.008
	c24.937,8.731,38.074,36.025,29.343,60.961C454.595,275.226,436.39,288.087,415.992,288.005z M239.992,192.005
	c-17.673,0-32,14.327-32,32s14.327,32,32,32h176c8.837,0.026,16.021-7.116,16.047-15.952c0.021-7.172-4.732-13.481-11.631-15.44
	c-9.475,2.398-19.099-3.339-21.496-12.814c-0.288-1.138-0.462-2.302-0.52-3.474l0,0l0,0c-0.001-1.073,0.095-2.144,0.288-3.2
	c0.835-4.324,1.274-8.716,1.312-13.12c0.218-35.346-28.259-64.176-63.604-64.394c-31.682-0.195-58.738,22.819-63.628,54.121
	c-1.391,8.726-9.593,14.673-18.319,13.282c-1.351-0.215-2.668-0.603-3.921-1.154C247.173,192.534,243.591,191.903,239.992,192.005z"
	/>
<g>
</g>
<g>
</g>
<g>
</g>
<g>
</g>
<g>
</g>
<g>
</g>
<g>
</g>
<g>
</g>
<g>
</g>
<g>
</g>
<g>
</g>
<g>
</g>
<g>
</g>
<g>
</g>
<g>
</g>
</svg>
