<?xml version="1.0" encoding="iso-8859-1"?>
<!-- Generator: Adobe Illustrator 19.0.0, SVG Export Plug-In . SVG Version: 6.00 Build 0)  -->
<svg version="1.1" id="Capa_1" xmlns="http://www.w3.org/2000/svg" xmlns:xlink="http://www.w3.org/1999/xlink" x="0px" y="0px"
	 viewBox="0 0 512 512" style="enable-background:new 0 0 512 512;" xml:space="preserve">
<path style="fill:#F44336;" d="M496,208H16c-8.837,0-16,7.163-16,16c1.86,100.227,65.578,188.832,160,222.496V480
	c0,8.837,7.163,16,16,16h160c8.837,0,16-7.163,16-16v-33.504C446.428,412.84,510.149,324.23,512,224
	C512,215.163,504.837,208,496,208z"/>
<path d="M496,112H112c-8.837,0-16-7.163-16-16s7.163-16,16-16h384c8.837,0,16,7.163,16,16S504.837,112,496,112z"/>
<g>
	<path style="fill:#FFC107;" d="M112,240c-8.837,0-16-7.163-16-16V32c0-8.837,7.163-16,16-16s16,7.163,16,16v192
		C128,232.837,120.837,240,112,240z"/>
	<path style="fill:#FFC107;" d="M176,240c-8.837,0-16-7.163-16-16V32c0-8.837,7.163-16,16-16s16,7.163,16,16v192
		C192,232.837,184.837,240,176,240z"/>
	<path style="fill:#FFC107;" d="M240,240c-8.837,0-16-7.163-16-16V32c0-8.837,7.163-16,16-16s16,7.163,16,16v192
		C256,232.837,248.837,240,240,240z"/>
</g>
<path d="M336,496H176c-8.837,0-16-7.163-16-16v-33.504C65.572,412.84,1.851,324.23,0,224c0-8.837,7.163-16,16-16h480
	c8.837,0,16,7.163,16,16c-1.851,100.23-65.572,188.84-160,222.496V480C352,488.837,344.837,496,336,496z M192,464h128v-28.8
	c0.001-6.913,4.44-13.043,11.008-15.2c81.057-24.837,139.44-95.69,148.32-180H32.672c8.881,84.31,67.263,155.163,148.32,180
	c6.568,2.157,11.007,8.287,11.008,15.2V464z"/>
<path d="M496,48H112c-8.837,0-16-7.163-16-16s7.163-16,16-16h384c8.837,0,16,7.163,16,16S504.837,48,496,48z"/>
<g>
</g>
<g>
</g>
<g>
</g>
<g>
</g>
<g>
</g>
<g>
</g>
<g>
</g>
<g>
</g>
<g>
</g>
<g>
</g>
<g>
</g>
<g>
</g>
<g>
</g>
<g>
</g>
<g>
</g>
</svg>
