<svg enable-background="new 0 0 24 24" height="512" viewBox="0 0 24 24" width="512" xmlns="http://www.w3.org/2000/svg"><circle cx="9.687" cy="20" fill="#ffa000" r="3.296"/><path d="m18.069 17.455c-1.351-1.174-2.126-2.891-2.126-4.71v-2.562c0-3.548-2.807-6.434-6.256-6.434s-6.256 2.886-6.256 6.434v2.562c0 1.819-.775 3.536-2.134 4.717-.348.306-.547.752-.547 1.222 0 .887.702 1.608 1.564 1.608h14.747c.862 0 1.564-.722 1.564-1.608 0-.469-.2-.915-.556-1.229z" fill="#ffc107"/><circle cx="17.5" cy="6.5" fill="#f44336" r="6.5"/><path d="m10 24c-2.067 0-3.75-1.682-3.75-3.75 0-.414.336-.75.75-.75s.75.336.75.75c0 1.241 1.01 2.25 2.25 2.25s2.25-1.009 2.25-2.25c0-.414.336-.75.75-.75s.75.336.75.75c0 2.068-1.683 3.75-3.75 3.75z"/><path d="m18.25 21h-16.5c-.965 0-1.75-.785-1.75-1.75 0-.512.223-.997.612-1.33.025-.022.052-.042.08-.06 1.468-1.281 2.308-3.124 2.308-5.07v-2.79c0-3.257 2.207-6.053 5.367-6.8.404-.096.808.154.903.558.095.403-.155.807-.557.902-2.481.586-4.213 2.782-4.213 5.34v2.79c0 2.416-1.059 4.702-2.903 6.271-.015.012-.028.023-.044.034-.027.034-.053.086-.053.155 0 .136.114.25.25.25h16.5c.136 0 .25-.114.25-.25 0-.07-.026-.121-.054-.155-.015-.011-.029-.022-.043-.034-.896-.764-1.603-1.686-2.101-2.741-.178-.374-.018-.821.357-.999.378-.178.821-.016.998.358.396.836.951 1.57 1.653 2.184.026.018.053.037.076.057.391.333.614.818.614 1.33 0 .965-.785 1.75-1.75 1.75z"/><path d="m17.5 13c-3.584 0-6.5-2.916-6.5-6.5s2.916-6.5 6.5-6.5 6.5 2.916 6.5 6.5-2.916 6.5-6.5 6.5zm0-11.5c-2.757 0-5 2.243-5 5s2.243 5 5 5 5-2.243 5-5-2.243-5-5-5z"/><path d="m17.75 9.5c-.414 0-.75-.336-.75-.75v-3.25h-.5c-.414 0-.75-.336-.75-.75s.336-.75.75-.75h1.25c.414 0 .75.336.75.75v4c0 .414-.336.75-.75.75z"/></svg>