<svg enable-background="new 0 0 24 24" height="512" viewBox="0 0 24 24" width="512" xmlns="http://www.w3.org/2000/svg"><g id="color"><g><g><path d="m6.505 1.219h-4.01c-.703 0-1.276.572-1.276 1.276v4.009c0 .703.572 1.276 1.276 1.276h4.009c.703 0 1.276-.572 1.276-1.276v-4.009c0-.703-.572-1.276-1.275-1.276z" fill="#00bcd4"/></g></g><g><g><path d="m21.505 1.219h-4.009c-.703 0-1.276.572-1.276 1.276v4.009c0 .703.572 1.276 1.276 1.276h4.009c.703 0 1.276-.572 1.276-1.276v-4.009c0-.703-.573-1.276-1.276-1.276z" fill="#00bcd4"/></g></g><g><g><g><path d="m17.272 23.145h4.455c.782 0 1.417-.636 1.417-1.417v-4.455c0-.782-.636-1.417-1.417-1.417h-4.455c-.782 0-1.417.636-1.417 1.417v4.455c0 .781.636 1.417 1.417 1.417z" fill="#00bcd4"/></g></g></g><g><g><g><path d="m2.273 23.145h4.455c.782 0 1.418-.636 1.418-1.417v-4.455c0-.782-.636-1.417-1.418-1.417h-4.455c-.782 0-1.418.636-1.418 1.417v4.455c0 .781.636 1.417 1.418 1.417z" fill="#00bcd4"/></g></g></g></g><g id="regular"><g><g><path d="m7.25 9h-5.5c-.965 0-1.75-.785-1.75-1.75v-5.5c0-.965.785-1.75 1.75-1.75h5.5c.965 0 1.75.785 1.75 1.75v5.5c0 .965-.785 1.75-1.75 1.75zm-5.5-7.5c-.138 0-.25.112-.25.25v5.5c0 .138.112.25.25.25h5.5c.138 0 .25-.112.25-.25v-5.5c0-.138-.112-.25-.25-.25z"/></g></g><g><g><path d="m22.25 9h-5.5c-.965 0-1.75-.785-1.75-1.75v-5.5c0-.965.785-1.75 1.75-1.75h5.5c.965 0 1.75.785 1.75 1.75v5.5c0 .965-.785 1.75-1.75 1.75zm-5.5-7.5c-.138 0-.25.112-.25.25v5.5c0 .138.112.25.25.25h5.5c.138 0 .25-.112.25-.25v-5.5c0-.138-.112-.25-.25-.25z"/></g></g><g><g><path d="m7.25 24h-5.5c-.965 0-1.75-.785-1.75-1.75v-5.5c0-.965.785-1.75 1.75-1.75h5.5c.965 0 1.75.785 1.75 1.75v5.5c0 .965-.785 1.75-1.75 1.75zm-5.5-7.5c-.138 0-.25.112-.25.25v5.5c0 .138.112.25.25.25h5.5c.138 0 .25-.112.25-.25v-5.5c0-.138-.112-.25-.25-.25z"/></g></g><g><g><path d="m22.25 24h-5.5c-.965 0-1.75-.785-1.75-1.75v-5.5c0-.965.785-1.75 1.75-1.75h5.5c.965 0 1.75.785 1.75 1.75v5.5c0 .965-.785 1.75-1.75 1.75zm-5.5-7.5c-.138 0-.25.112-.25.25v5.5c0 .138.112.25.25.25h5.5c.138 0 .25-.112.25-.25v-5.5c0-.138-.112-.25-.25-.25z"/></g></g><g><g><path d="m15.5 5.25h-11c-.414 0-.75-.336-.75-.75s.336-.75.75-.75h11c.414 0 .75.336.75.75s-.336.75-.75.75z"/></g></g><g><g><path d="m19.5 20.25h-11c-.414 0-.75-.336-.75-.75s.336-.75.75-.75h11c.414 0 .75.336.75.75s-.336.75-.75.75z"/></g></g><g><g><path d="m19.5 16.25c-.414 0-.75-.336-.75-.75v-11c0-.414.336-.75.75-.75s.75.336.75.75v11c0 .414-.336.75-.75.75z"/></g></g><g><g><path d="m4.5 20.25c-.414 0-.75-.336-.75-.75v-11c0-.414.336-.75.75-.75s.75.336.75.75v11c0 .414-.336.75-.75.75z"/></g></g></g></svg>