<svg enable-background="new 0 0 24 24" height="512" viewBox="0 0 24 24" width="512" xmlns="http://www.w3.org/2000/svg"><path d="m11.25 15.033h-3.5c-.965 0-1.75.787-1.75 1.754v5.512c0 .967.785 1.754 1.75 1.754h3.5c.965 0 1.75-.787 1.75-1.754v-5.512c0-.967-.785-1.754-1.75-1.754z" fill="#607d8b"/><path d="m17.25 0h-14.5c-1.517 0-2.75 1.236-2.75 2.756v3.508c0 1.52 1.233 2.756 2.75 2.756h14.5c1.517 0 2.75-1.236 2.75-2.756v-3.508c0-1.52-1.233-2.756-2.75-2.756z" fill="#4caf50"/><path d="m17.25 9.018h-14.5c-1.517 0-2.75-1.233-2.75-2.75v-3.517c0-1.517 1.233-2.75 2.75-2.75h14.5c1.517 0 2.75 1.233 2.75 2.75v3.517c0 1.517-1.233 2.75-2.75 2.75zm-14.5-7.517c-.689 0-1.25.561-1.25 1.25v3.517c0 .689.561 1.25 1.25 1.25h14.5c.689 0 1.25-.561 1.25-1.25v-3.517c0-.689-.561-1.25-1.25-1.25z"/><path d="m9.5 16.284c-.414 0-.75-.336-.75-.75v-1.252c0-1.519 1.233-2.754 2.75-2.754h10.75c.138 0 .25-.113.25-.252v-5.764c0-.139-.112-.252-.25-.252h-2.75c-.414 0-.75-.336-.75-.75s.336-.75.75-.75h2.75c.965 0 1.75.786 1.75 1.752v5.762c0 .966-.785 1.752-1.75 1.752h-10.75c-.689 0-1.25.562-1.25 1.254v1.252c0 .416-.336.752-.75.752z"/><path d="m11.25 24.051h-3.5c-.965 0-1.75-.785-1.75-1.75v-5.517c0-.965.785-1.75 1.75-1.75h3.5c.965 0 1.75.785 1.75 1.75v5.517c0 .965-.785 1.75-1.75 1.75zm-3.5-7.517c-.138 0-.25.112-.25.25v5.517c0 .138.112.25.25.25h3.5c.138 0 .25-.112.25-.25v-5.517c0-.138-.112-.25-.25-.25z"/></svg>