<svg id="_x31_px" enable-background="new 0 0 24 24" height="512" viewBox="0 0 24 24" width="512" xmlns="http://www.w3.org/2000/svg"><path d="m12.14.76c-5.04-.19-9.4 2.84-11.17 7.21-.82 2.02.76 4.21 2.94 4.04.97-.08 2.03-.16 3.07-.25 3-.24 5.5 2.26 5.26 5.26-.09 1.04-.17 2.1-.25 3.07-.17 2.18 2.02 3.76 4.04 2.94 4.37-1.77 7.4-6.13 7.21-11.17-.22-5.95-5.15-10.88-11.1-11.1z" fill="#eceff1"/><path d="m12.5 7.173c-.923 0-1.673-.751-1.673-1.673s.75-1.673 1.673-1.673 1.673.751 1.673 1.673-.75 1.673-1.673 1.673z" fill="#ffc107"/><path d="m6 8.188c-.655 0-1.188-.533-1.188-1.188s.533-1.187 1.188-1.187 1.187.532 1.187 1.187-.532 1.188-1.187 1.188z" fill="#2196f3"/><path d="m17.5 14.5c-1.654 0-3-1.346-3-3s1.346-3 3-3 3 1.346 3 3-1.346 3-3 3z" fill="#2196f3"/><path d="m16 20.5c-.827 0-1.5-.673-1.5-1.5s.673-1.5 1.5-1.5 1.5.673 1.5 1.5-.673 1.5-1.5 1.5z" fill="#4caf50"/><path d="m14.915 24c-.772 0-1.534-.244-2.182-.719-1.035-.759-1.593-1.977-1.49-3.256l.245-3.065c.098-1.209-.339-2.394-1.196-3.251-.856-.857-2.039-1.289-3.252-1.197l-3.065.245c-1.281.104-2.497-.455-3.256-1.49-.765-1.042-.93-2.382-.443-3.583 1.943-4.786 6.719-7.859 11.892-7.675 6.388.242 11.582 5.436 11.823 11.824.196 5.169-2.888 9.948-7.674 11.891-.456.185-.931.276-1.402.276zm1.119-.971h.01zm-8.662-12.031c1.489 0 2.919.588 3.981 1.65 1.168 1.169 1.763 2.784 1.631 4.432l-.245 3.065c-.062.758.269 1.478.881 1.927.62.456 1.417.552 2.132.263 4.204-1.707 6.912-5.904 6.74-10.445-.21-5.515-4.866-10.173-10.382-10.382-4.531-.186-8.739 2.535-10.444 6.74-.29.715-.192 1.512.263 2.132.449.612 1.165.945 1.927.881l3.065-.245c.15-.012.302-.018.451-.018z"/><path d="m12.5 8c-1.379 0-2.5-1.122-2.5-2.5s1.121-2.5 2.5-2.5 2.5 1.122 2.5 2.5-1.121 2.5-2.5 2.5zm0-3.5c-.552 0-1 .449-1 1s.448 1 1 1 1-.449 1-1-.448-1-1-1z"/><path d="m6 9c-1.103 0-2-.897-2-2s.897-2 2-2 2 .897 2 2-.897 2-2 2zm0-2.5c-.275 0-.5.224-.5.5s.225.5.5.5.5-.224.5-.5-.225-.5-.5-.5z"/><path d="m17.5 15.05c-1.957 0-3.55-1.592-3.55-3.55s1.593-3.55 3.55-3.55 3.55 1.592 3.55 3.55-1.593 3.55-3.55 3.55zm0-5.6c-1.13 0-2.05.919-2.05 2.05s.92 2.05 2.05 2.05 2.05-.919 2.05-2.05-.92-2.05-2.05-2.05z"/><path d="m16 21c-1.103 0-2-.897-2-2s.897-2 2-2 2 .897 2 2-.897 2-2 2zm0-2.5c-.275 0-.5.224-.5.5s.225.5.5.5.5-.224.5-.5-.225-.5-.5-.5z"/></svg>