<svg id="_x31__x2C_5" height="512" viewBox="0 0 24 24" width="512" xmlns="http://www.w3.org/2000/svg"><path d="m20.55 9.83-.3-.08v-1c0-.55-.45-1-1-1h-8.5c-.55 0-1 .45-1 1v1l-.3.08c-1 .24-1.7 1.14-1.7 2.17s.7 1.92 1.7 2.17l.3.08v1c0 .55.45 1 1 1h8.5c.55 0 1-.45 1-1v-1l.3-.08c1-.25 1.7-1.14 1.7-2.17s-.7-1.93-1.7-2.17z" fill="#607d8b"/><path d="m4.75 24c-.414 0-.75-.336-.75-.75v-22.5c0-.414.336-.75.75-.75s.75.336.75.75v22.5c0 .414-.336.75-.75.75z"/><path d="m22.25 4.5h-20.5c-.414 0-.75-.336-.75-.75s.336-.75.75-.75h20.5c.414 0 .75.336.75.75s-.336.75-.75.75z"/><path d="m19.25 17h-8.5c-.965 0-1.75-.785-1.75-1.75v-.428c-1.19-.416-2-1.54-2-2.822s.81-2.405 2-2.822v-.428c0-.965.785-1.75 1.75-1.75h8.5c.965 0 1.75.785 1.75 1.75v.427c1.19.417 2 1.541 2 2.822s-.81 2.406-2 2.823v.428c0 .965-.785 1.75-1.75 1.75zm-8.5-8.5c-.138 0-.25.112-.25.25v1c0 .344-.234.644-.567.728l-.302.076c-.666.166-1.131.76-1.131 1.446s.465 1.28 1.129 1.447l.303.076c.334.083.568.383.568.728v1c0 .138.112.25.25.25h8.5c.138 0 .25-.112.25-.25v-1c0-.344.234-.645.568-.728l.302-.075c.665-.168 1.13-.762 1.13-1.448s-.465-1.281-1.129-1.447l-.303-.076c-.334-.083-.568-.383-.568-.727v-1c0-.138-.112-.25-.25-.25z"/><path d="m11.75 8.5c-.414 0-.75-.336-.75-.75v-4c0-.414.336-.75.75-.75s.75.336.75.75v4c0 .414-.336.75-.75.75z"/><path d="m18.25 8.5c-.414 0-.75-.336-.75-.75v-4c0-.414.336-.75.75-.75s.75.336.75.75v4c0 .414-.336.75-.75.75z"/></svg>