<svg enable-background="new 0 0 24 24" height="512" viewBox="0 0 24 24" width="512" xmlns="http://www.w3.org/2000/svg"><path d="m11.937 13.674-3.285-1.374c-.201-.082-.43-.061-.612.059-.181.12-.29.324-.29.542v4.99c0 .269.165.51.416.607.076.03.156.044.235.044.18 0 .356-.075.482-.214l3.285-3.616c.142-.156.2-.372.153-.579-.046-.206-.189-.377-.384-.459z" fill="#2196f3"/><path d="m23.76.2c-.21-.195-.514-.253-.782-.149l-22.5 8.75c-.289.112-.479.391-.478.702s.193.588.483.698l17.75 6.75c.086.032.177.049.267.049.113 0 .226-.025.33-.076.187-.092.327-.256.388-.454l4.75-15.5c.083-.275.003-.574-.208-.77z" fill="#64b5f6"/><path d="m7.75 13 11.25-8-8.417 9.333z" fill="#2196f3"/><path d="m18.5 17c-.09 0-.181-.017-.267-.049l-17.75-6.75c-.29-.11-.482-.388-.483-.698s.188-.59.479-.702l22.5-8.75c.267-.103.571-.046.782.149.21.196.291.495.206.77l-4.75 15.5c-.061.198-.201.362-.387.454-.104.051-.217.076-.33.076zm-15.66-7.508 15.178 5.772 4.061-13.254z"/><path d="m8.5 19c-.091 0-.183-.017-.271-.051-.289-.111-.479-.389-.479-.699v-5.75c0-.229.104-.444.282-.587l14.75-11.75c.325-.256.797-.205 1.055.119s.204.796-.119 1.055l-14.468 11.524v3.448l2.481-2.73c.278-.308.753-.329 1.059-.051.307.278.33.753.051 1.059l-3.786 4.167c-.145.16-.348.246-.555.246z"/><path d="m7.986 19.854c-.143 0-.286-.04-.414-.125-.345-.229-.438-.694-.21-1.04.294-.442.462-.766.471-.782.188-.368.638-.515 1.009-.323.368.188.514.64.326 1.008 0 0-.199.39-.556.928-.144.216-.383.334-.626.334z"/><path d="m2.807 22.61c-.064 0-.131-.009-.196-.026-.943-.256-1.634-.824-2.053-1.69-.18-.373-.023-.821.35-1.002.376-.18.822-.022 1.002.35.229.477.567.752 1.094.896.399.108.636.521.527.92-.092.333-.393.552-.724.552zm2.079-.005c-.316 0-.61-.201-.714-.519-.127-.395.089-.817.482-.945.479-.154.976-.476 1.476-.954.299-.286.773-.277 1.061.023.286.3.275.774-.023 1.061-.665.636-1.354 1.072-2.05 1.298-.078.025-.156.036-.232.036z"/><path d="m.779 19.251c-.392 0-.722-.305-.747-.701-.021-.327-.032-.678-.032-1.05 0-.414.336-.75.75-.75s.75.336.75.75c0 .337.009.654.028.952.027.413-.285.771-.699.797-.017.001-.033.002-.05.002z"/></svg>