<svg enable-background="new 0 0 24 24" height="512" viewBox="0 0 24 24" width="512" xmlns="http://www.w3.org/2000/svg"><path d="m21 1h-18c-1.654 0-3 1.346-3 3v16c0 1.654 1.346 3 3 3h18c1.654 0 3-1.346 3-3v-16c0-1.654-1.346-3-3-3z" fill="#78909c"/><path d="m21.787 21.656h-19.575c-.6 0-1.087-.488-1.087-1.087v-15.225h21.75v15.225c0 .599-.488 1.087-1.088 1.087z" fill="#fafafa"/><path d="m21.25 23h-18.5c-1.517 0-2.75-1.233-2.75-2.75v-16.5c0-1.517 1.233-2.75 2.75-2.75h18.5c1.517 0 2.75 1.233 2.75 2.75v16.5c0 1.517-1.233 2.75-2.75 2.75zm-18.5-20.5c-.689 0-1.25.561-1.25 1.25v16.5c0 .689.561 1.25 1.25 1.25h18.5c.689 0 1.25-.561 1.25-1.25v-16.5c0-.689-.561-1.25-1.25-1.25z"/><path d="m23.25 6.5h-22.5c-.414 0-.75-.336-.75-.75s.336-.75.75-.75h22.5c.414 0 .75.336.75.75s-.336.75-.75.75z"/><path d="m5.5 17.25c-.414 0-.75-.336-.75-.75v-4c0-.414.336-.75.75-.75s.75.336.75.75v4c0 .414-.336.75-.75.75z"/><path d="m3.769 16.25c-.259 0-.511-.135-.65-.375-.207-.358-.084-.817.274-1.024l3.464-2c.359-.208.817-.084 1.024.274s.084.817-.274 1.024l-3.464 2c-.118.069-.247.101-.374.101z"/><path d="m7.231 16.25c-.127 0-.256-.032-.375-.101l-3.464-2c-.359-.207-.481-.666-.274-1.024s.667-.482 1.024-.274l3.464 2c.359.207.481.666.274 1.024-.137.24-.39.375-.649.375z"/><path d="m12 17.25c-.414 0-.75-.336-.75-.75v-4c0-.414.336-.75.75-.75s.75.336.75.75v4c0 .414-.336.75-.75.75z"/><path d="m10.269 16.25c-.259 0-.511-.135-.65-.375-.207-.358-.084-.817.274-1.024l3.464-2c.358-.208.818-.084 1.024.274.207.358.084.817-.274 1.024l-3.464 2c-.118.069-.247.101-.374.101z"/><path d="m13.731 16.25c-.127 0-.256-.032-.375-.101l-3.464-2c-.359-.207-.481-.666-.274-1.024s.666-.482 1.024-.274l3.464 2c.359.207.481.666.274 1.024-.137.24-.39.375-.649.375z"/><path d="m19 17.25c-.414 0-.75-.336-.75-.75v-4c0-.414.336-.75.75-.75s.75.336.75.75v4c0 .414-.336.75-.75.75z"/><path d="m17.269 16.25c-.259 0-.511-.135-.65-.375-.207-.358-.084-.817.274-1.024l3.464-2c.357-.208.818-.084 1.024.274.207.358.084.817-.274 1.024l-3.464 2c-.118.069-.247.101-.374.101z"/><path d="m20.731 16.25c-.127 0-.256-.032-.375-.101l-3.464-2c-.359-.207-.481-.666-.274-1.024s.666-.482 1.024-.274l3.464 2c.359.207.481.666.274 1.024-.137.24-.39.375-.649.375z"/></svg>