<svg id="_x31__x2C_5" height="512" viewBox="0 0 24 24" width="512" xmlns="http://www.w3.org/2000/svg"><path d="m18.15 3.75c-.82 0-1.61.32-2.19.9l-.64.63c-.32.32-.68.59-1.07.8-.68.37-1.45.57-2.25.57s-1.57-.2-2.25-.57c-.39-.21-.75-.48-1.07-.8l-.64-.63c-.58-.58-1.37-.9-2.19-.9-.85 0-1.63.35-2.19.9-.56.56-.91 1.33-.91 2.18v1.51c0 1.4.51 2.76 1.43 3.83l.06.08c.92 1.06 1.43 2.42 1.43 3.83 0 .86.35 1.65.93 2.22.57.57 1.36.92 2.24.92.87 0 1.66-.35 2.23-.92.56-.56.92-1.34.93-2.19 0 1.72 1.4 3.12 3.13 3.14h.04c1.74 0 3.16-1.4 3.16-3.14 0-1.43.51-2.8 1.45-3.88l.01-.02c.94-1.09 1.46-2.47 1.46-3.91v-1.47c0-1.7-1.39-3.08-3.1-3.08zm-3.62 9.1-1.65.76c-.54.24-.88.77-.88 1.36 0-.59-.34-1.12-.88-1.36l-1.65-.76c-.54-.24-.88-.77-.88-1.36 0-.89.73-1.5 1.52-1.5.29 0 .6.09.87.28l.14.11c.53.37 1.23.37 1.76 0l.14-.11c1-.7 2.39 0 2.39 1.22 0 .59-.34 1.12-.88 1.36z" fill="#cfd8dc"/><g fill="#607d8b"><path d="m5.67 16.06c-.56.36-.92.98-.92 1.68v6.26h-3v-5.41c0-.88-.29-1.74-.73-2.5-.68-1.17-.02-2.64 1.3-2.94l2.23-.51z"/><path d="m19.46 12.64 2.22.51c1.32.3 1.98 1.77 1.3 2.94-.44.76-.73 1.62-.73 2.5v5.41h-3v-6.26c0-.7-.36-1.32-.92-1.68z"/><path d="m14.25.75v5.33c-.68.37-1.45.57-2.25.57s-1.57-.2-2.25-.57v-5.33c0 .69 1.01 1.25 2.25 1.25s2.25-.56 2.25-1.25z"/></g><path d="m15.165 20c-.014 0-.027 0-.041 0-1.287-.013-2.43-.651-3.135-1.622-.713.964-1.861 1.59-3.154 1.59-2.159 0-3.915-1.746-3.915-3.892 0-1.225-.442-2.41-1.245-3.34l-.065-.075c-1.038-1.203-1.61-2.737-1.61-4.321v-1.514c0-2.109 1.726-3.826 3.848-3.826 1.027 0 1.993.397 2.719 1.119l.637.632c.736.73 1.755 1.149 2.796 1.149s2.06-.419 2.796-1.149l.637-.632c.726-.722 1.692-1.119 2.719-1.119 2.122 0 3.848 1.717 3.848 3.826v1.474c0 1.615-.583 3.18-1.644 4.404-.828.956-1.277 2.16-1.277 3.404 0 1.042-.409 2.021-1.152 2.757-.74.734-1.719 1.135-2.762 1.135zm-2.415-3.924v.032c0 1.306 1.072 2.378 2.39 2.392.645-.029 1.27-.242 1.732-.7.456-.452.708-1.053.708-1.691 0-1.604.58-3.157 1.632-4.373.834-.965 1.288-2.181 1.288-3.436v-1.474c0-1.282-1.053-2.326-2.348-2.326-.628 0-1.219.243-1.663.684l-.637.632c-1.029 1.022-2.397 1.584-3.852 1.584s-2.823-.562-3.853-1.585l-.636-.631c-.444-.441-1.034-.684-1.663-.684-1.295 0-2.348 1.044-2.348 2.326v1.514c0 1.225.442 2.41 1.245 3.34l.065.075c1.039 1.203 1.61 2.737 1.61 4.321 0 1.318 1.083 2.392 2.415 2.392 1.331 0 2.414-1.073 2.414-2.392v-1.109c0-.29-.172-.556-.438-.677l-1.654-.756c-.799-.365-1.315-1.167-1.315-2.042 0-.843.466-1.606 1.217-1.994.755-.391 1.656-.329 2.35.165l.146.103c.267.188.622.19.886.002l.151-.106c.689-.49 1.59-.554 2.348-.163.751.388 1.217 1.151 1.217 1.994 0 .875-.516 1.677-1.315 2.042l-1.654.755c-.267.122-.438.388-.438.678zm-2.649-5.333c-.119 0-.24.029-.353.088-.122.063-.406.253-.406.661 0 .29.172.556.438.677l1.654.756c.209.096.399.222.565.37.167-.148.356-.274.565-.37l1.654-.756c.267-.121.438-.387.438-.677 0-.408-.284-.599-.406-.661-.259-.134-.556-.114-.793.055l-.151.106c-.781.556-1.834.554-2.618-.002l-.146-.103c-.133-.095-.287-.144-.441-.144z"/><path d="m1.75 24c-.414 0-.75-.336-.75-.75v-4.66c0-.679-.217-1.413-.629-2.124-.441-.759-.494-1.654-.145-2.457.354-.813 1.056-1.392 1.928-1.59l2.229-.511c.406-.092.806.16.898.564.093.403-.16.806-.563.898l-2.23.511c-.402.091-.725.355-.886.726-.156.36-.132.763.067 1.105.544.94.831 1.935.831 2.878v4.66c0 .414-.336.75-.75.75z"/><path d="m4.75 24c-.414 0-.75-.336-.75-.75v-5.51c0-.938.473-1.802 1.264-2.312.349-.225.813-.124 1.037.225s.124.813-.225 1.037c-.361.232-.576.624-.576 1.05v5.51c0 .414-.336.75-.75.75z"/><path d="m22.25 24c-.414 0-.75-.336-.75-.75v-4.66c0-.942.287-1.938.831-2.876.2-.344.224-.746.068-1.106-.161-.37-.484-.635-.885-.726l-2.222-.512c-.404-.093-.656-.495-.563-.898.093-.404.496-.658.899-.563l2.22.511c.87.197 1.572.776 1.926 1.589.349.803.296 1.698-.146 2.458-.411.71-.628 1.444-.628 2.123v4.66c0 .414-.336.75-.75.75z"/><path d="m19.25 24c-.414 0-.75-.336-.75-.75v-5.51c0-.426-.215-.818-.576-1.05-.349-.225-.449-.688-.225-1.037.225-.349.689-.449 1.037-.225.791.51 1.264 1.374 1.264 2.312v5.51c0 .414-.336.75-.75.75z"/><path d="m15 6h-1.5v-3.501c-.872.322-2.128.322-3 0v3.501h-1.5v-5.25c0-.414.336-.75.75-.75s.75.336.75.75c.039.132.561.5 1.5.5.933 0 1.454-.363 1.5-.506 0-.027.002-.054.005-.081.039-.377.358-.667.746-.667.414 0 .75.34.75.754v5.25z"/></svg>