<?xml version="1.0" encoding="iso-8859-1"?>
<!-- Generator: Adobe Illustrator 19.0.0, SVG Export Plug-In . SVG Version: 6.00 Build 0)  -->
<svg version="1.1" id="Capa_1" xmlns="http://www.w3.org/2000/svg" xmlns:xlink="http://www.w3.org/1999/xlink" x="0px" y="0px"
	 viewBox="0 0 512 512" style="enable-background:new 0 0 512 512;" xml:space="preserve">
<path style="fill:#ECEFF1;" d="M34.133,51.2h443.733C496.708,51.2,512,66.492,512,85.333v341.333
	c0,18.842-15.292,34.133-34.133,34.133H34.133C15.292,460.8,0,445.508,0,426.667V85.333C0,66.492,15.292,51.2,34.133,51.2z"/>
<g>
	<path style="fill:#455A64;" d="M68.267,51.2v221.867c0,9.421,7.646,17.067,17.067,17.067H102.4V460.8h34.133V290.133H153.6
		c9.421,0,17.067-7.646,17.067-17.067V51.2H68.267z"/>
	<path style="fill:#455A64;" d="M204.8,51.2v221.867c0,9.421,7.646,17.067,17.067,17.067h17.067V460.8h34.133V290.133h17.067
		c9.421,0,17.067-7.646,17.067-17.067V51.2H204.8z"/>
	<path style="fill:#455A64;" d="M341.333,51.2v221.867c0,9.421,7.646,17.067,17.067,17.067h17.067V460.8H409.6V290.133h17.067
		c9.421,0,17.067-7.646,17.067-17.067V51.2H341.333z"/>
</g>
<path d="M119.467,460.8c-9.421,0-17.067-7.646-17.067-17.067V273.067c0-9.421,7.646-17.067,17.067-17.067
	s17.067,7.646,17.067,17.067v170.667C136.533,453.154,128.887,460.8,119.467,460.8z"/>
<path d="M256,460.8c-9.421,0-17.067-7.646-17.067-17.067V273.067c0-9.421,7.646-17.067,17.067-17.067
	c9.421,0,17.067,7.646,17.067,17.067v170.667C273.067,453.154,265.421,460.8,256,460.8z"/>
<path d="M392.533,460.8c-9.421,0-17.067-7.646-17.067-17.067V273.067c0-9.421,7.646-17.067,17.067-17.067
	s17.067,7.646,17.067,17.067v170.667C409.6,453.154,401.954,460.8,392.533,460.8z"/>
<path d="M477.867,460.8H34.133C15.292,460.8,0,445.508,0,426.667V85.333C0,66.492,15.292,51.2,34.133,51.2h443.733
	C496.708,51.2,512,66.492,512,85.333v341.333C512,445.508,496.708,460.8,477.867,460.8z M34.133,85.333v341.333h443.733V85.333
	H34.133z"/>
<path d="M153.6,290.133H85.333c-9.421,0-17.067-7.646-17.067-17.067v-204.8c0-9.421,7.646-17.067,17.067-17.067
	S102.4,58.846,102.4,68.267V256h34.133V68.267c0-9.421,7.646-17.067,17.067-17.067s17.067,7.646,17.067,17.067v204.8
	C170.667,282.487,163.021,290.133,153.6,290.133z"/>
<path d="M290.133,290.133h-68.267c-9.421,0-17.067-7.646-17.067-17.067v-204.8c0-9.421,7.646-17.067,17.067-17.067
	c9.421,0,17.067,7.646,17.067,17.067V256h34.133V68.267c0-9.421,7.646-17.067,17.067-17.067c9.421,0,17.067,7.646,17.067,17.067
	v204.8C307.2,282.487,299.554,290.133,290.133,290.133z"/>
<path d="M426.667,290.133H358.4c-9.421,0-17.067-7.646-17.067-17.067v-204.8c0-9.421,7.646-17.067,17.067-17.067
	s17.067,7.646,17.067,17.067V256H409.6V68.267c0-9.421,7.646-17.067,17.067-17.067s17.067,7.646,17.067,17.067v204.8
	C443.733,282.487,436.087,290.133,426.667,290.133z"/>
<g>
</g>
<g>
</g>
<g>
</g>
<g>
</g>
<g>
</g>
<g>
</g>
<g>
</g>
<g>
</g>
<g>
</g>
<g>
</g>
<g>
</g>
<g>
</g>
<g>
</g>
<g>
</g>
<g>
</g>
</svg>
