<svg id="_x31__x2C_5" height="512" viewBox="0 0 24 24" width="512" xmlns="http://www.w3.org/2000/svg"><path d="m7.612 7.612-5.044 5.044c-1.172 1.172-1.819 2.728-1.819 4.388 0 3.422 2.784 6.206 6.206 6.206 1.659 0 3.216-.647 4.388-1.819l5.044-5.044z" fill="#eceff1"/><path d="m17.044.75c-1.659 0-3.216.647-4.388 1.819l-5.044 5.043 8.775 8.775 5.044-5.044c1.172-1.172 1.819-2.728 1.819-4.388 0-3.421-2.784-6.205-6.206-6.205z" fill="#f44336"/><path d="m6.62 24c-3.65 0-6.62-2.97-6.62-6.62 0-1.769.688-3.431 1.939-4.681l10.761-10.76c1.249-1.251 2.912-1.939 4.68-1.939 3.65 0 6.62 2.97 6.62 6.62 0 1.769-.688 3.431-1.939 4.681l-10.761 10.76c-1.249 1.251-2.912 1.939-4.68 1.939zm10.76-22.5c-1.368 0-2.653.533-3.62 1.5l-10.76 10.76c-.967.967-1.5 2.252-1.5 3.62 0 2.823 2.297 5.12 5.12 5.12 1.368 0 2.653-.533 3.62-1.5l10.76-10.76c.967-.967 1.5-2.252 1.5-3.62 0-2.823-2.297-5.12-5.12-5.12z"/><path d="m11.253 5.992h1.501v12.016h-1.501z" transform="matrix(.707 -.707 .707 .707 -4.97 11.995)"/></svg>