<?xml version="1.0" encoding="iso-8859-1"?>
<!-- Generator: Adobe Illustrator 19.0.0, SVG Export Plug-In . SVG Version: 6.00 Build 0)  -->
<svg version="1.1" id="Capa_1" xmlns="http://www.w3.org/2000/svg" xmlns:xlink="http://www.w3.org/1999/xlink" x="0px" y="0px"
	 viewBox="0 0 512 512" style="enable-background:new 0 0 512 512;" xml:space="preserve">
<path style="fill:#FFA000;" d="M496,144.01c-82.976,0-139.456,66.24-189.344,124.8c-37.632,44.032-73.408,85.984-114.656,94.464
	V288.01c0-8.837-7.163-16-16-16H16c-8.837,0-16,7.163-16,16v112c0,53.019,42.981,96,96,96c2.592,0,5.184,0,6.848,0l2.336-0.192
	c132.768-0.256,209.888-101.408,272-182.688c42.016-55.488,78.496-103.328,119.52-105.12c8.56-0.377,15.304-7.431,15.296-16v-32
	C512,151.173,504.837,144.01,496,144.01z"/>
<path style="fill:#ECEFF1;" d="M95.328,238.122c2.175,1.18,4.599,1.827,7.072,1.888h0.896c8.836-0.04,15.968-7.236,15.928-16.072
	c-0.01-2.178-0.464-4.332-1.336-6.328c-9.344-20.864-5.44-27.616-0.608-32.736c2.944-3.2,6.24-6.08,9.6-9.12
	c20.394-14.906,32.647-38.488,33.12-63.744c-0.422-41.202-25.319-78.202-63.328-94.112c-2.04-1.114-4.303-1.758-6.624-1.888
	c-4.698-0.215-9.271,1.549-12.608,4.864c-4.512,4.649-5.775,11.56-3.2,17.504c3.329,6.758,5.276,14.112,5.728,21.632
	c0,6.592-4.352,11.168-15.04,20.768C44.593,95.482,32.389,118.919,32,144.01c-0.543,25.651,9.436,50.407,27.616,68.512
	C70.133,222.84,82.179,231.475,95.328,238.122z"/>
<path style="fill:#FFC107;" d="M16,272.01h160c8.837,0,16,7.163,16,16v48l0,0H0l0,0v-48C0,279.173,7.163,272.01,16,272.01z"/>
<path d="M96,496.01c-53.019,0-96-42.981-96-96v-112c0-8.837,7.163-16,16-16h160c8.837,0,16,7.163,16,16v75.264
	c41.248-8.48,77.024-50.432,114.656-94.464c49.888-58.56,106.368-124.8,189.344-124.8c8.837,0,16,7.163,16,16v32
	c0.008,8.569-6.736,15.623-15.296,16c-41.024,1.792-77.44,49.632-119.68,104.992c-61.952,81.312-139.04,182.4-272,182.688
	c-0.736,0-1.536,0-2.336,0.192C101.12,496.01,98.56,496.01,96,496.01z M96,464.01c2.135,0.085,4.274,0.021,6.4-0.192
	c1.21-0.174,2.438-0.174,3.648,0c117.216-1.76,185.344-91.168,245.536-170.176c42.72-56,80-105.088,128.448-115.616v-0.928
	c-60.064,8.128-105.216,61.056-148.992,112.384c-47.104,55.2-91.584,107.328-154.048,107.328H176c-8.837,0-16-7.163-16-16v-76.8H32
	v96C32,435.356,60.654,464.01,96,464.01z"/>
<path d="M103.2,240.01h-0.8c-2.428-0.068-4.806-0.704-6.944-1.856c-13.146-6.653-25.19-15.287-35.712-25.6l0,0
	C41.528,194.45,31.505,169.687,32,144.01c0.404-25.087,12.605-48.518,32.928-63.232C75.648,71.178,80,66.602,80,60.01
	c-0.443-7.511-2.391-14.856-5.728-21.6c-2.59-5.953-1.326-12.881,3.2-17.536c3.318-3.323,7.885-5.09,12.576-4.864
	c2.319,0.115,4.583,0.75,6.624,1.856c38.02,15.914,62.919,52.93,63.328,94.144c-0.566,25.226-12.874,48.742-33.28,63.584
	c-3.2,3.04-6.624,5.984-9.6,9.12c-4.8,5.12-8.704,11.872,0.672,32.736c3.623,8.06,0.026,17.53-8.033,21.153
	C107.696,239.53,105.461,240.009,103.2,240.01z M111.328,67.754c-3.76,14.809-12.577,27.838-24.928,36.832
	c-13.493,8.66-21.868,23.399-22.4,39.424c-0.501,16.384,5.491,32.302,16.672,44.288c1.699-9.665,6.284-18.59,13.152-25.6
	c3.52-3.744,7.456-7.328,11.424-10.912C118.833,143,127.314,128.173,128,112.01C128.574,95.623,122.571,79.688,111.328,67.754z"/>
<g>
</g>
<g>
</g>
<g>
</g>
<g>
</g>
<g>
</g>
<g>
</g>
<g>
</g>
<g>
</g>
<g>
</g>
<g>
</g>
<g>
</g>
<g>
</g>
<g>
</g>
<g>
</g>
<g>
</g>
</svg>
