<?xml version="1.0" encoding="utf-8"?>
<!-- Generator: Adobe Illustrator 25.3.1, SVG Export Plug-In . SVG Version: 6.00 Build 0)  -->
<svg version="1.1" id="Calque_1" xmlns="http://www.w3.org/2000/svg" xmlns:xlink="http://www.w3.org/1999/xlink" x="0px" y="0px"
	 viewBox="0 0 512 512" style="enable-background:new 0 0 512 512;" xml:space="preserve">
<style type="text/css">
	.st0{fill:#607D8B;}
	.st1{fill:#FFC107;}
	.st2{fill:#CFD8DC;}
</style>
<path class="st0" d="M496,263.2l-83.7-251c-1.4-4.3-5.4-7.2-9.9-7.2H109.6c-4.5,0-8.5,2.9-9.9,7.2L16,263.2
	c-1.1,3.2-0.5,6.7,1.4,9.4c2,2.7,5.1,4.4,8.5,4.4h460.2c3.4,0,6.5-1.6,8.5-4.4C496.5,269.8,497.1,266.3,496,263.2z"/>
<path class="st1" d="M402.4,172.3H281.9c-4.8,0-9.7,1.1-14,3.3l-37.4,18.7c-3.6,1.8-5.8,5.4-5.8,9.4c0,4,2.2,7.6,5.8,9.3l37.4,18.7
	c4.3,2.2,9.2,3.3,14,3.3h120.6c5.8,0,10.5-4.7,10.5-10.5v-41.8C412.9,177,408.2,172.3,402.4,172.3z"/>
<path class="st2" d="M222.4,50.8c-2-2.5-5-4-8.2-4h-62.8c-4.8,0-9,3.3-10.1,7.9L99.4,222.1c-0.8,3.1-0.1,6.4,1.9,9s5,4,8.2,4h62.8
	c4.8,0,9-3.3,10.1-7.9l41.8-167.3C225.1,56.7,224.4,53.4,222.4,50.8z"/>
<path d="M486.1,276.9H25.9c-3.4,0-6.5-1.6-8.5-4.4c-2-2.7-2.5-6.2-1.4-9.4l83.7-251c1.4-4.3,5.4-7.2,9.9-7.2h292.8
	c4.5,0,8.5,2.9,9.9,7.2l83.7,251c1.1,3.2,0.5,6.7-1.4,9.4C492.6,275.3,489.5,276.9,486.1,276.9z M40.4,256h431.1L394.9,25.9H117.1
	L40.4,256z"/>
<path d="M130.5,507c-5.8,0-10.5-4.7-10.5-10.5V266.5c0-5.8,4.7-10.5,10.5-10.5c5.8,0,10.5,4.7,10.5,10.5v230.1
	C141,502.3,136.3,507,130.5,507z"/>
<path d="M381.5,507c-5.8,0-10.5-4.7-10.5-10.5V266.5c0-5.8,4.7-10.5,10.5-10.5c5.8,0,10.5,4.7,10.5,10.5v230.1
	C392,502.3,387.3,507,381.5,507z"/>
<path d="M381.5,402.4h-251c-5.8,0-10.5-4.7-10.5-10.5c0-5.8,4.7-10.5,10.5-10.5h251c5.8,0,10.5,4.7,10.5,10.5
	C392,397.7,387.3,402.4,381.5,402.4z"/>
<path d="M402.4,235.1H281.9c-4.8,0-9.7-1.2-14-3.3l-37.4-18.7c-3.6-1.8-5.8-5.4-5.8-9.3c0-4,2.2-7.6,5.8-9.4l37.4-18.7
	c4.3-2.2,9.2-3.3,14-3.3h120.6c5.8,0,10.5,4.7,10.5,10.5v41.8C412.9,230.4,408.2,235.1,402.4,235.1z M258.5,203.7l18.7,9.3
	c1.4,0.7,3.1,1.1,4.7,1.1H392v-20.9H281.9c-1.6,0-3.2,0.4-4.7,1.1L258.5,203.7z"/>
<path d="M172.3,235.1h-62.8c-3.2,0-6.3-1.5-8.2-4s-2.7-5.8-1.9-9l41.8-167.3c1.2-4.7,5.4-7.9,10.1-7.9h62.8c3.2,0,6.3,1.5,8.2,4
	c2,2.5,2.7,5.8,1.9,9l-41.8,167.3C181.3,231.8,177.1,235.1,172.3,235.1z M123,214.2h41.2l36.6-146.4h-41.2L123,214.2z"/>
<path d="M182.8,193.2h-31.4c-5.8,0-10.5-4.7-10.5-10.5c0-5.8,4.7-10.5,10.5-10.5h23.2l5.2-20.9h-18c-5.8,0-10.5-4.7-10.5-10.5
	c0-5.8,4.7-10.5,10.5-10.5h23.2l5.2-20.9h-18c-5.8,0-10.5-4.7-10.5-10.5s4.7-10.5,10.5-10.5h31.4c3.2,0,6.3,1.5,8.2,4s2.7,5.8,1.9,9
	l-20.9,83.7C191.8,190,187.6,193.2,182.8,193.2z"/>
</svg>
