<svg enable-background="new 0 0 24 24" height="512" viewBox="0 0 24 24" width="512" xmlns="http://www.w3.org/2000/svg"><g id="color"><g><g><path d="m20.54 9.022c-.214-.953-.417-1.853-.417-2.745 0-1.989.751-3.13.757-3.138.12-.174.152-.396.085-.597-.068-.202-.225-.359-.426-.427l-2.629-.88c-.207-.069-.432-.035-.608.092l-.282.202c-1.39.998-3.277.926-4.587-.172-.251-.21-.615-.21-.867 0-1.311 1.098-3.197 1.169-4.586.172l-.282-.202c-.177-.127-.403-.161-.609-.092l-2.629.88c-.2.067-.355.225-.424.425-.067.199-.036.42.081.595.008.011.759 1.153.759 3.142 0 .892-.202 1.793-.417 2.745-.225 1.006-.459 2.046-.459 3.135 0 8.191 8.739 10.597 8.828 10.62.056.016.114.023.172.023s.116-.007.172-.022c.089-.024 8.828-2.429 8.828-10.621 0-1.089-.234-2.129-.46-3.135z" fill="#ffc107"/></g></g><g><g><path d="m16.636 10.849c-.049-.144-.174-.248-.324-.271l-2.727-.407-1.231-2.597c-.067-.142-.189-.24-.368-.231-.157 0-.299.092-.365.234l-1.213 2.606-2.723.425c-.15.023-.274.129-.322.273-.047.144-.011.303.096.411l1.99 2.024-.46 2.873c-.025.153.041.307.168.396.07.049.151.073.233.073.068 0 .135-.017.197-.051l2.428-1.351 2.437 1.335c.137.075.303.065.429-.025.127-.09.191-.244.165-.397l-.479-2.87 1.976-2.038c.106-.11.142-.268.093-.412z" fill="#ff8f00"/></g></g></g><g id="_x31_.5"><g><g><path d="m12 24c-.064 0-.129-.008-.191-.025-.099-.026-9.809-2.699-9.809-11.8 0-1.21.26-2.366.511-3.483.238-1.059.463-2.059.463-3.05 0-2.209-.835-3.478-.844-3.491-.13-.195-.164-.441-.089-.663.076-.221.249-.397.471-.471l2.921-.978c.229-.077.48-.039.675.102l.313.225c1.544 1.107 3.641 1.028 5.097-.191.279-.233.684-.233.963 0 1.456 1.22 3.552 1.299 5.097.191l.313-.225c.196-.141.446-.178.676-.102l2.921.978c.224.075.398.25.474.475.074.224.039.469-.095.663-.006.009-.841 1.277-.841 3.487 0 .991.225 1.992.463 3.05.251 1.117.511 2.272.511 3.483 0 9.102-9.71 11.774-9.809 11.8-.062.017-.127.025-.191.025zm-8.188-21.837c.308.733.662 1.916.662 3.478 0 1.158-.254 2.287-.499 3.379-.245 1.086-.475 2.111-.475 3.155 0 7.297 7.231 9.894 8.503 10.294 1.32-.402 8.497-2.93 8.497-10.294 0-1.044-.23-2.069-.475-3.154-.245-1.092-.499-2.222-.499-3.379 0-1.562.354-2.745.661-3.478l-1.732-.58-.002.001c-1.935 1.389-4.51 1.406-6.453.102-1.943 1.305-4.516 1.287-6.453-.103l-.002-.001z"/></g></g><g><g><path d="m8.777 18c-.151 0-.302-.045-.43-.136-.235-.165-.356-.449-.311-.732l.546-3.423-2.367-2.409c-.197-.201-.266-.495-.177-.761.088-.267.318-.462.597-.506l3.23-.504 1.441-3.096c.123-.263.387-.432.677-.433h.003c.29 0 .554.167.678.429l1.463 3.086 3.233.482c.278.042.51.235.6.501.091.266.024.561-.172.763l-2.353 2.425.571 3.418c.047.283-.072.569-.306.735-.236.167-.545.184-.795.046l-2.888-1.582-2.876 1.601c-.113.065-.239.096-.364.096zm-.468-6.71 1.61 1.637c.167.17.243.409.205.644l-.362 2.272 1.889-1.052c.227-.125.499-.126.726-.002l1.896 1.039-.379-2.27c-.039-.235.036-.475.202-.646l1.599-1.648-2.185-.326c-.248-.037-.46-.194-.567-.42l-.95-2.005-.937 2.011c-.105.227-.317.386-.564.425z"/></g></g></g></svg>