<svg enable-background="new 0 0 24 24" height="512" viewBox="0 0 24 24" width="512" xmlns="http://www.w3.org/2000/svg"><path d="m16.508 0h-9.758c-1.519 0-2.75 1.231-2.75 2.75v4c0 .414.336.75.75.75h14.5c.414 0 .75-.336.75-.75v-1.625-1.633c0-1.928-1.564-3.492-3.492-3.492z" fill="#eceff1"/><path d="m21.25 6h-18.5c-1.517 0-2.75 1.233-2.75 2.75v6.5c0 1.517 1.233 2.75 2.75 2.75h18.5c1.517 0 2.75-1.233 2.75-2.75v-6.5c0-1.517-1.233-2.75-2.75-2.75z" fill="#607d8b"/><path d="m19.25 13h-14.5c-.414 0-.75.336-.75.75v7.5c0 1.517 1.233 2.75 2.75 2.75h10.5c1.517 0 2.75-1.233 2.75-2.75v-7.5c0-.414-.336-.75-.75-.75z" fill="#eceff1"/><path d="m21.25 18h-2c-.414 0-.75-.336-.75-.75s.336-.75.75-.75h2c.689 0 1.25-.561 1.25-1.25v-6.5c0-.689-.561-1.25-1.25-1.25h-18.5c-.689 0-1.25.561-1.25 1.25v6.5c0 .689.561 1.25 1.25 1.25h2c.414 0 .75.336.75.75s-.336.75-.75.75h-2c-1.517 0-2.75-1.233-2.75-2.75v-6.5c0-1.517 1.233-2.75 2.75-2.75h18.5c1.517 0 2.75 1.233 2.75 2.75v6.5c0 1.517-1.233 2.75-2.75 2.75z"/><path d="m17.25 24h-10.5c-1.517 0-2.75-1.233-2.75-2.75v-7.5c0-.414.336-.75.75-.75h14.5c.414 0 .75.336.75.75v7.5c0 1.517-1.233 2.75-2.75 2.75zm-11.75-9.5v6.75c0 .689.561 1.25 1.25 1.25h10.5c.689 0 1.25-.561 1.25-1.25v-6.75z"/><path d="m16.25 18h-8.5c-.414 0-.75-.336-.75-.75s.336-.75.75-.75h8.5c.414 0 .75.336.75.75s-.336.75-.75.75z"/><path d="m16.25 21h-8.5c-.414 0-.75-.336-.75-.75s.336-.75.75-.75h8.5c.414 0 .75.336.75.75s-.336.75-.75.75z"/><path d="m19.25 7.5c-.414 0-.75-.336-.75-.75v-4c0-.689-.561-1.25-1.25-1.25h-10.5c-.689 0-1.25.561-1.25 1.25v4c0 .414-.336.75-.75.75s-.75-.336-.75-.75v-4c0-1.517 1.233-2.75 2.75-2.75h10.5c1.517 0 2.75 1.233 2.75 2.75v4c0 .414-.336.75-.75.75z"/></svg>