<svg id="_x31__x2C_5" enable-background="new 0 0 24 24" height="512" viewBox="0 0 24 24" width="512" xmlns="http://www.w3.org/2000/svg"><g><path d="m17.625 22.8h-11.25c-1.365 0-2.475-1.11-2.475-2.475v-16.65c0-1.365 1.11-2.475 2.475-2.475h11.25c1.365 0 2.475 1.11 2.475 2.475v16.65c0 1.365-1.11 2.475-2.475 2.475z" fill="#eceff1"/></g><g><circle cx="12" cy="5" fill="#90a4ae" r="1.8"/></g><g><path d="m14.925 11.8h-5.85c-.373 0-.675-.302-.675-.675v-.45c0-1.365 1.11-2.475 2.475-2.475h2.25c1.365 0 2.475 1.11 2.475 2.475v.45c0 .373-.302.675-.675.675z" fill="#90a4ae"/></g><g><path d="m18.25 24h-12.5c-1.517 0-2.75-1.233-2.75-2.75v-18.5c0-1.517 1.233-2.75 2.75-2.75h12.5c1.517 0 2.75 1.233 2.75 2.75v18.5c0 1.517-1.233 2.75-2.75 2.75zm-12.5-22.5c-.689 0-1.25.561-1.25 1.25v18.5c0 .689.561 1.25 1.25 1.25h12.5c.689 0 1.25-.561 1.25-1.25v-18.5c0-.689-.561-1.25-1.25-1.25z"/></g><g><path d="m16.25 16h-8.5c-.414 0-.75-.336-.75-.75s.336-.75.75-.75h8.5c.414 0 .75.336.75.75s-.336.75-.75.75z"/></g><g><path d="m16.25 20h-8.5c-.414 0-.75-.336-.75-.75s.336-.75.75-.75h8.5c.414 0 .75.336.75.75s-.336.75-.75.75z"/></g><g><path d="m12 7c-1.103 0-2-.897-2-2s.897-2 2-2 2 .897 2 2-.897 2-2 2zm0-2.5c-.276 0-.5.224-.5.5s.224.5.5.5.5-.224.5-.5-.224-.5-.5-.5z"/></g><g><path d="m15.25 12c-.414 0-.75-.336-.75-.75v-.5c0-.689-.561-1.25-1.25-1.25h-2.5c-.689 0-1.25.561-1.25 1.25v.5c0 .414-.336.75-.75.75s-.75-.336-.75-.75v-.5c0-1.517 1.233-2.75 2.75-2.75h2.5c1.517 0 2.75 1.233 2.75 2.75v.5c0 .414-.336.75-.75.75z"/></g></svg>