<svg id="regular" enable-background="new 0 0 24 24" height="512" viewBox="0 0 24 24" width="512" xmlns="http://www.w3.org/2000/svg"><g><g><path d="m20.25 8.75c-.77 0-1.47-.29-2-.77v3.77h-12.5v-10c0-.55.45-1 1-1h10.5c.55 0 1 .45 1 1v1.77c.68-.61 1.63-.91 2.65-.7 1.15.24 2.09 1.2 2.3 2.36.35 1.91-1.1 3.57-2.95 3.57z" fill="#ffc107"/></g><g><path d="m13.3 16.68c-.35 1.91 1.1 3.57 2.95 3.57.77 0 1.47-.29 2-.77v2.77c0 .55-.45 1-1 1h-10.5c-.55 0-1-.45-1-1v-2.77c-.68.61-1.63.91-2.65.7-1.15-.24-2.09-1.2-2.3-2.36-.35-1.91 1.1-3.57 2.95-3.57.77 0 1.47.29 2 .77v-3.27h4.84c-.81-.54-1.34-1.45-1.34-2.5 0-1.66 1.34-3 3-3s3 1.34 3 3c0 1.05-.53 1.96-1.34 2.5h4.34v3.27c-.68-.61-1.63-.91-2.65-.7-1.15.24-2.09 1.2-2.3 2.36z" fill="#2196f3"/></g><g><path d="m18.25 12.5h-4.34c-.414 0-.75-.336-.75-.75s.336-.75.75-.75h3.59v-3.02c0-.297.175-.565.445-.686.271-.119.588-.068.808.129.906.821 2.443.707 3.226-.231.436-.521.606-1.188.481-1.875-.156-.862-.862-1.589-1.717-1.766-.726-.15-1.455.04-1.989.523-.219.2-.536.249-.808.13-.271-.119-.446-.388-.446-.684v-1.77c0-.138-.112-.25-.25-.25h-10.5c-.138 0-.25.112-.25.25v9.25h4.09c.414 0 .75.336.75.75s-.336.75-.75.75h-4.84c-.414 0-.75-.336-.75-.75v-10c0-.965.785-1.75 1.75-1.75h10.5c.965 0 1.75.785 1.75 1.75v.463c.642-.228 1.345-.276 2.048-.13 1.461.303 2.622 1.495 2.889 2.967.202 1.116-.092 2.248-.807 3.104-.988 1.186-2.702 1.641-4.13 1.131v2.465c0 .414-.336.75-.75.75z"/></g><g><path d="m17.25 24h-10.5c-.965 0-1.75-.785-1.75-1.75v-1.463c-.643.227-1.347.275-2.048.13-1.461-.303-2.622-1.495-2.889-2.967-.202-1.116.092-2.248.807-3.104.99-1.186 2.704-1.638 4.13-1.131v-1.965c0-.414.336-.75.75-.75h4.84c.414 0 .75.336.75.75s-.336.75-.75.75h-4.09v2.52c0 .297-.175.565-.445.686-.272.119-.588.069-.808-.129-.908-.822-2.444-.709-3.226.231-.436.521-.606 1.188-.481 1.875.156.862.862 1.589 1.717 1.766.729.153 1.455-.039 1.989-.523.22-.199.536-.249.808-.13.271.119.446.388.446.684v2.77c0 .138.112.25.25.25h10.5c.138 0 .25-.112.25-.25v-1.465c-1.427.51-3.141.056-4.13-1.131-.715-.856-1.009-1.988-.807-3.104.267-1.472 1.428-2.664 2.889-2.967.701-.146 1.405-.098 2.048.13v-1.213h-3.59c-.414 0-.75-.336-.75-.75s.336-.75.75-.75h4.34c.414 0 .75.336.75.75v3.27c0 .297-.175.565-.446.686-.271.119-.588.069-.808-.13-.535-.484-1.262-.674-1.989-.523-.854.177-1.561.903-1.717 1.766-.125.688.046 1.354.481 1.875.781.938 2.317 1.053 3.226.231.221-.199.538-.248.808-.129s.445.388.445.684v2.77c0 .965-.785 1.75-1.75 1.75z"/></g><g><path d="m13.911 12.5c-.242 0-.48-.117-.625-.334-.229-.345-.137-.811.208-1.04.63-.42 1.006-1.121 1.006-1.876 0-1.24-1.01-2.25-2.25-2.25s-2.25 1.01-2.25 2.25c0 .755.376 1.456 1.006 1.876.345.229.438.695.208 1.04s-.694.437-1.04.208c-1.048-.699-1.674-1.867-1.674-3.124 0-2.067 1.683-3.75 3.75-3.75s3.75 1.683 3.75 3.75c0 1.257-.626 2.425-1.674 3.124-.128.085-.272.126-.415.126z"/></g></g></svg>