<svg enable-background="new 0 0 24 24" height="512" viewBox="0 0 24 24" width="512" xmlns="http://www.w3.org/2000/svg"><path d="m7.383 11.046h-2.887c-.788 0-1.426-.639-1.426-1.426v-2.9c0-.788.639-1.426 1.426-1.426h2.887c.788 0 1.426.639 1.426 1.426v2.9c.001.787-.638 1.426-1.426 1.426z" fill="#42a5f5"/><path d="m19.444 11.046h-2.887c-.788 0-1.426-.639-1.426-1.426v-2.9c0-.788.639-1.426 1.426-1.426h2.887c.788 0 1.426.639 1.426 1.426v2.9c0 .787-.639 1.426-1.426 1.426z" fill="#42a5f5"/><path d="m19.25 12.165h-2.5c-1.517 0-2.75-1.234-2.75-2.75v-2.515c0-1.516 1.233-2.75 2.75-2.75h2.5c1.517 0 2.75 1.234 2.75 2.75v2.514c0 1.517-1.233 2.751-2.75 2.751zm-2.5-6.515c-.689 0-1.25.561-1.25 1.25v2.514c0 .689.561 1.25 1.25 1.25h2.5c.689 0 1.25-.561 1.25-1.25v-2.514c0-.689-.561-1.25-1.25-1.25z"/><path d="m16.25 20.182h-1.5c-.414 0-.75-.336-.75-.75s.336-.75.75-.75h1.5c2.344 0 4.25-1.912 4.25-4.261v-5.011c0-.414.336-.75.75-.75s.75.336.75.75v5.011c0 3.177-2.579 5.761-5.75 5.761z"/><path d="m7.25 12.165h-2.5c-1.517 0-2.75-1.234-2.75-2.75v-2.515c0-1.516 1.233-2.75 2.75-2.75h2.5c1.517 0 2.75 1.234 2.75 2.75v2.514c0 1.517-1.233 2.751-2.75 2.751zm-2.5-6.515c-.689 0-1.25.561-1.25 1.25v2.514c0 .689.561 1.25 1.25 1.25h2.5c.689 0 1.25-.561 1.25-1.25v-2.514c0-.689-.561-1.25-1.25-1.25z"/><path d="m4.25 20.182h-1.5c-.414 0-.75-.336-.75-.75s.336-.75.75-.75h1.5c2.344 0 4.25-1.912 4.25-4.261v-5.011c0-.414.336-.75.75-.75s.75.336.75.75v5.011c0 3.177-2.579 5.761-5.75 5.761z"/></svg>