<svg enable-background="new 0 0 24 24" height="512" viewBox="0 0 24 24" width="512" xmlns="http://www.w3.org/2000/svg"><g id="Color"><g><path d="m20.367 1.333c-.245-.142-.658-.277-1.243-.12-1.205.322-2.725 1.819-3.873 3.813-.612 1.057-1.057 2.137-1.286 3.123-.061.261.057.532.29.664l2.71 1.554c.095.055.199.081.302.081.151 0 .301-.056.416-.165.734-.691 1.444-1.613 2.051-2.667.723-1.256 1.217-2.553 1.39-3.654.276-1.75-.356-2.398-.757-2.629z" fill="#bbdefb"/></g><g><path d="m8.75 5.027c-1.148-1.995-2.669-3.492-3.873-3.814-.584-.156-.997-.021-1.243.12-.402.231-1.034.879-.758 2.628.173 1.1.667 2.398 1.39 3.654.608 1.054 1.317 1.976 2.051 2.667.116.109.265.165.416.165.104 0 .208-.026.302-.081l2.71-1.554c.233-.133.35-.403.29-.664-.228-.986-.673-2.066-1.285-3.121z" fill="#bbdefb"/></g><g><path d="m12 8.685c-3.889 0-8.159 4.501-8.159 8.599 0 4.094 4.23 5.958 8.159 5.958s8.159-1.864 8.159-5.958c0-4.098-4.27-8.599-8.159-8.599z" fill="#e3f2fd"/></g></g><g id="_x31_.5"><g><path d="m8.5 16.05c-.827 0-1.5-.673-1.5-1.5s.673-1.5 1.5-1.5 1.5.673 1.5 1.5-.673 1.5-1.5 1.5zm0-1.501v.001h.75z"/></g><g><path d="m15.5 16.05c-.827 0-1.5-.673-1.5-1.5s.673-1.5 1.5-1.5 1.5.673 1.5 1.5-.673 1.5-1.5 1.5zm0-1.501v.001h.75z"/></g><g><path d="m12 24.051c-4.366 0-9.066-2.072-9.066-6.62 0-4.554 4.745-9.555 9.066-9.555s9.066 5 9.066 9.555c0 4.548-4.7 6.62-9.066 6.62zm0-14.675c-3.536 0-7.566 4.291-7.566 8.055 0 3.537 3.8 5.12 7.566 5.12s7.566-1.583 7.566-5.12c0-3.764-4.03-8.055-7.566-8.055z"/></g><g><path d="m17.195 11.538c-.2 0-.399-.079-.546-.236-.284-.302-.269-.776.033-1.06.8-.752 1.582-1.772 2.261-2.95.803-1.395 1.348-2.814 1.534-3.995.183-1.156-.052-1.625-.202-1.711-.109-.062-.297-.026-.399.001-.889.238-2.479 1.594-3.87 4.008-.684 1.179-1.176 2.369-1.426 3.445-.094.403-.5.654-.9.561-.404-.094-.655-.497-.561-.9.283-1.219.832-2.552 1.588-3.856 1.416-2.461 3.293-4.309 4.78-4.707.722-.192 1.235-.027 1.537.149.494.284 1.274 1.084.934 3.244-.214 1.358-.824 2.96-1.716 4.51-.751 1.303-1.627 2.441-2.533 3.293-.145.137-.33.204-.514.204z"/></g><g><path d="m6.805 11.538c-.185 0-.369-.067-.514-.204-.906-.852-1.782-1.99-2.533-3.292-.892-1.551-1.502-3.153-1.716-4.511-.34-2.159.44-2.96.936-3.245.3-.173.813-.341 1.535-.148 1.487.398 3.364 2.246 4.781 4.709.755 1.302 1.304 2.635 1.587 3.854.094.403-.157.806-.561.9-.402.092-.806-.158-.9-.561-.25-1.076-.742-2.266-1.424-3.443-1.391-2.417-2.981-3.772-3.871-4.01-.102-.027-.289-.063-.397-.002-.152.087-.387.556-.204 1.712.186 1.181.731 2.6 1.534 3.996.679 1.176 1.461 2.196 2.261 2.949.302.284.316.758.033 1.06-.148.157-.347.236-.547.236z"/></g><g><g><path d="m12 18.444c-.547 0-1.061-.213-1.447-.6-.292-.293-.292-.768 0-1.061.293-.292.768-.292 1.061 0 .206.207.565.207.771 0 .293-.293.768-.292 1.061 0 .293.293.293.768 0 1.061-.385.387-.899.6-1.446.6z"/></g><g><path d="m13.375 20.933c-.72 0-1.396-.28-1.905-.79-.293-.293-.293-.768 0-1.061s.768-.293 1.061 0c.451.451 1.238.451 1.689 0 .292-.293.768-.293 1.061 0 .293.292.293.768 0 1.061-.51.509-1.186.79-1.906.79z"/></g><g><path d="m10.625 20.933c-.72 0-1.396-.28-1.905-.79-.293-.293-.293-.768 0-1.061s.768-.293 1.061 0c.451.451 1.238.451 1.689 0 .292-.293.768-.293 1.061 0 .293.292.293.768 0 1.061-.51.509-1.186.79-1.906.79z"/></g><g><path d="m12 20.343c-.414 0-.75-.336-.75-.75v-1.915c0-.414.336-.75.75-.75s.75.336.75.75v1.915c0 .414-.336.75-.75.75z"/></g></g></g></svg>