<?xml version="1.0" encoding="iso-8859-1"?>
<!-- Generator: Adobe Illustrator 19.0.0, SVG Export Plug-In . SVG Version: 6.00 Build 0)  -->
<svg version="1.1" id="Capa_1" xmlns="http://www.w3.org/2000/svg" xmlns:xlink="http://www.w3.org/1999/xlink" x="0px" y="0px"
	 viewBox="0 0 512.029 512.029" style="enable-background:new 0 0 512.029 512.029;" xml:space="preserve">
<path style="fill:#FFC107;" d="M400,351.998h-59.84c-19.03-0.061-36.228-11.358-43.84-28.8l-70.08-160
	c-17.764-40.89-58.138-67.303-102.72-67.2H16v64h107.52c19.147-0.067,36.501,11.252,44.16,28.8l70.08,160
	c17.691,40.806,57.925,67.209,102.4,67.2H400v64l96-96l-96-96V351.998z"/>
<path d="M400,495.998c-2.097-0.007-4.172-0.42-6.112-1.216c-5.984-2.473-9.887-8.309-9.888-14.784v-48h-43.84
	c-50.802-0.102-96.735-30.239-117.056-76.8l-70.08-160c-5.115-11.72-16.716-19.27-29.504-19.2H16c-8.837,0-16-7.163-16-16v-64
	c0-8.837,7.163-16,16-16h107.52c50.918-0.025,97.009,30.133,117.376,76.8l70.08,160c5.068,11.614,16.513,19.143,29.184,19.2H384v-48
	c0.001-6.475,3.904-12.311,9.888-14.784c5.983-2.419,12.832-1.062,17.44,3.456l96,96c6.256,6.24,6.269,16.371,0.029,22.627
	c-0.01,0.01-0.019,0.019-0.029,0.029l-96,96C408.322,494.325,404.246,496.006,400,495.998z M32,143.998h91.52
	c25.529-0.089,48.669,15.002,58.88,38.4l70.08,160c15.224,34.884,49.619,57.479,87.68,57.6H400c8.837,0,16,7.163,16,16v25.376
	l57.376-57.376L416,326.622v25.376c0,8.837-7.163,16-16,16h-59.84c-25.413-0.039-48.395-15.109-58.56-38.4l-70.08-160
	c-15.311-34.956-49.838-57.556-88-57.6H32V143.998z"/>
<path style="fill:#FFA000;" d="M400,159.998h-59.84c-19.03,0.061-36.228,11.358-43.84,28.8l-70.08,160
	c-17.764,40.89-58.138,67.303-102.72,67.2H16v-64h107.52c19.147,0.067,36.501-11.252,44.16-28.8l70.08-160
	c17.691-40.806,57.925-67.209,102.4-67.2H400v-64l96,96l-96,96V159.998z"/>
<path d="M123.52,431.998H16c-8.837,0-16-7.163-16-16v-64c0-8.837,7.163-16,16-16h107.52c12.788,0.07,24.389-7.48,29.504-19.2
	l70.08-160c20.321-46.561,66.254-76.698,117.056-76.8H384v-48c0.001-6.475,3.904-12.311,9.888-14.784
	c5.983-2.419,12.832-1.062,17.44,3.456l96,96c6.256,6.24,6.269,16.371,0.029,22.627c-0.01,0.01-0.019,0.019-0.029,0.029l-96,96
	c-6.24,6.256-16.371,6.269-22.627,0.029c-3.016-3.009-4.708-7.096-4.701-11.357v-48h-43.84c-12.671,0.057-24.116,7.586-29.184,19.2
	l-70.08,160C220.529,401.865,174.438,432.023,123.52,431.998z M32,399.998h91.52c38.185-0.019,72.744-22.623,88.064-57.6l70.08-160
	c10.156-23.27,33.107-38.336,58.496-38.4H400c8.837,0,16,7.163,16,16v25.376l57.376-57.376L416,70.622v25.376
	c0,8.837-7.163,16-16,16h-59.84c-38.084,0.096-72.51,22.695-87.744,57.6l-70.08,160c-10.202,23.376-33.31,38.463-58.816,38.4H32
	V399.998z"/>
<g>
</g>
<g>
</g>
<g>
</g>
<g>
</g>
<g>
</g>
<g>
</g>
<g>
</g>
<g>
</g>
<g>
</g>
<g>
</g>
<g>
</g>
<g>
</g>
<g>
</g>
<g>
</g>
<g>
</g>
</svg>
