<svg enable-background="new 0 0 24 24" height="512" viewBox="0 0 24 24" width="512" xmlns="http://www.w3.org/2000/svg"><g id="Color"><g><path d="m23.254 8.717c-3.06-1.452-5.122-.14-5.865.491-.284.241-.319.667-.078.951.164.194.412.261.643.216l.299 1.518c-.012.003-.022.007-.034.01-.361.091-.581.458-.49.82.077.306.352.51.654.51.055 0 .111-.007.166-.021 4.364-1.103 5.043-3.614 5.07-3.72.079-.312-.074-.637-.365-.775z" fill="#ffb74d"/></g><g><path d="m6.689 10.159c.241-.284.206-.71-.078-.951-.745-.631-2.804-1.943-5.865-.491-.291.138-.444.463-.365.775.027.106.707 2.617 5.07 3.72.055.014.111.021.166.021.301 0 .577-.203.654-.51.091-.361-.128-.728-.49-.82-.012-.003-.022-.007-.034-.01l.299-1.518c.232.046.48-.022.643-.216z" fill="#ffb74d"/></g><g><path d="m12 6.923c-3.085 0-6.276 2.025-6.276 5.414 0 1.379.564 2.944 1.548 4.296.679.933 1.038 1.981 1.038 3.029 0 1.797 1.462 3.26 3.26 3.26h.861c1.797 0 3.26-1.462 3.26-3.26 0-1.049.359-2.096 1.038-3.029.983-1.351 1.548-2.917 1.548-4.296-.001-3.389-3.192-5.414-6.277-5.414z" fill="#ffe082"/></g><g><g><g><path d="m12 20.938c-.236 0-.458-.111-.6-.3l-1.437-1.915c-.171-.228-.198-.531-.071-.786.127-.254.387-.415.671-.415h2.873c.284 0 .544.161.671.415s.1.558-.071.786l-1.436 1.916c-.142.188-.364.299-.6.299z" fill="#607d8b"/></g></g></g></g><g id="_x31_.5"><g><path d="m12.479 23.811h-.957c-1.997 0-3.622-1.625-3.622-3.622 0-1.165-.398-2.329-1.153-3.366-1.093-1.501-1.72-3.241-1.72-4.773 0-3.766 3.546-6.016 6.974-6.016s6.974 2.25 6.974 6.016c0 1.532-.627 3.271-1.72 4.773-.755 1.037-1.153 2.2-1.153 3.365-.001 1.998-1.626 3.623-3.623 3.623zm-.479-16.277c-2.633 0-5.474 1.727-5.474 4.516 0 1.204.535 2.658 1.433 3.89.942 1.295 1.44 2.764 1.44 4.248 0 1.17.952 2.123 2.122 2.123h.957c1.17 0 2.122-.952 2.122-2.122 0-1.484.498-2.954 1.44-4.249.897-1.232 1.433-2.687 1.433-3.89.001-2.789-2.84-4.516-5.473-4.516z"/></g><g><g><path d="m10.085 13.279c-.414 0-.75-.336-.75-.75 0-.229-.415-.229-.415 0 0 .414-.336.75-.75.75s-.75-.336-.75-.75c0-.941.767-1.708 1.708-1.708s1.707.766 1.707 1.708c0 .414-.336.75-.75.75z"/></g><g><path d="m15.83 13.279c-.414 0-.75-.336-.75-.75 0-.229-.415-.229-.415 0 0 .414-.336.75-.75.75s-.75-.336-.75-.75c0-.941.766-1.708 1.707-1.708s1.708.766 1.708 1.708c0 .414-.336.75-.75.75z"/></g></g><g><g><path d="m12 20.938c-.236 0-.458-.111-.6-.3l-1.437-1.915c-.171-.228-.198-.531-.071-.786.127-.254.387-.415.671-.415h2.873c.284 0 .544.161.671.415s.1.558-.071.786l-1.436 1.916c-.142.188-.364.299-.6.299z"/></g></g><g><path d="m18.159 13.52c-.335 0-.641-.226-.727-.566-.102-.401.143-.809.544-.911 2.641-.667 3.778-1.791 4.247-2.475-2.12-.732-3.521.049-4.198.624-.316.268-.788.23-1.058-.086-.267-.316-.228-.79.088-1.058.825-.702 3.117-2.16 6.517-.546.323.153.493.514.406.861-.03.118-.785 2.908-5.634 4.134-.062.016-.123.023-.185.023z"/></g><g><path d="m5.841 13.52c-.062 0-.123-.007-.185-.023-4.849-1.226-5.604-4.016-5.634-4.134-.087-.347.083-.708.406-.861 3.4-1.613 5.688-.155 6.517.546.316.268.355.742.087 1.057-.269.317-.74.354-1.058.086-.677-.574-2.078-1.357-4.199-.623.466.68 1.603 1.806 4.248 2.475.401.102.646.509.544.911-.086.34-.391.566-.726.566z"/></g><g><g><path d="m14.9 8.137c-.339 0-.646-.231-.729-.576-.096-.403.152-.808.556-.903 3.283-.782 6.06-2.956 7.617-5.963.191-.368.644-.511 1.011-.321.368.19.512.643.321 1.011-1.759 3.396-4.894 5.849-8.602 6.732-.057.014-.116.02-.174.02z"/></g><g><path d="m9.108 8.137c-.059 0-.127-.007-.184-.021-3.707-.883-6.842-3.336-8.601-6.732-.19-.368-.047-.82.321-1.011s.82-.047 1.011.321c1.555 3.003 4.324 5.174 7.601 5.96.34.072.598.373.598.733 0 .414-.332.75-.746.75z"/></g><g><path d="m14.356 7.936c-.283 0-.554-.16-.681-.433-.175-.375-.013-.822.363-.997.113-.053.227-.113.332-.181 1.477-.918 2.296-2.549 2.147-4.264-.036-.413.27-.776.683-.812.41-.03.775.27.812.682.198 2.281-.891 4.45-2.841 5.662-.152.098-.326.191-.5.272-.102.049-.209.071-.315.071z"/></g><g><path d="m9.644 7.936c-.105 0-.213-.022-.315-.07-.175-.081-.349-.175-.511-.279-1.94-1.206-3.029-3.375-2.831-5.656.036-.411.407-.712.812-.681.413.036.719.399.683.812-.149 1.714.67 3.346 2.137 4.257.115.074.229.134.342.187.376.175.538.621.363.997-.127.273-.397.433-.68.433z"/></g></g></g></svg>