<?xml version="1.0" encoding="iso-8859-1"?>
<!-- Generator: Adobe Illustrator 19.0.0, SVG Export Plug-In . SVG Version: 6.00 Build 0)  -->
<svg version="1.1" id="Capa_1" xmlns="http://www.w3.org/2000/svg" xmlns:xlink="http://www.w3.org/1999/xlink" x="0px" y="0px"
	 viewBox="0 0 512.12 512.12" style="enable-background:new 0 0 512.12 512.12;" xml:space="preserve">
<path style="fill:#455A64;" d="M16,256.06h64c8.837,0,16,7.163,16,16v224c0,8.837-7.163,16-16,16H16c-8.837,0-16-7.163-16-16v-224
	C0,263.223,7.163,256.06,16,256.06z"/>
<path style="fill:#FFD54F;" d="M501.888,290.588c-16.265-20.823-46.302-24.585-67.2-8.416l-118.144,91.776
	c-8.426,6.554-18.797,10.112-29.472,10.112H176c44.183,0,80-35.817,80-80c0-8.837-7.163-16-16-16H96v192h212.992
	c17.793-0.002,35.078-5.937,49.12-16.864l135.36-105.248c20.925-16.276,24.693-46.434,8.417-67.358
	C501.889,290.589,501.888,290.589,501.888,290.588z"/>
<path style="fill:#ECEFF1;" d="M256,64.06c-8.837,0-16-7.163-16-16v-32c0-8.837,7.163-16,16-16c8.837,0,16,7.163,16,16v32
	C272,56.897,264.837,64.06,256,64.06z"/>
<path style="fill:#CFD8DC;" d="M479.456,203.932C446.685,80.521,320.075,7.042,196.663,39.813
	C116.471,61.107,53.838,123.74,32.544,203.932c-2.28,8.537,2.793,17.306,11.33,19.586c1.346,0.359,2.733,0.541,4.126,0.542h416
	c8.837-0.001,15.999-7.166,15.998-16.002C479.997,206.665,479.815,205.278,479.456,203.932z"/>
<path style="fill:#B0BEC5;" d="M496,224.06H16c-8.837,0-16-7.163-16-16s7.163-16,16-16h480c8.837,0,16,7.163,16,16
	S504.837,224.06,496,224.06z"/>
<path d="M80,512.06H16c-8.837,0-16-7.163-16-16v-224c0-8.837,7.163-16,16-16h64c8.837,0,16,7.163,16,16v224
	C96,504.897,88.837,512.06,80,512.06z M32,480.06h32v-192H32V480.06z"/>
<path d="M309.12,480.06H80v-32h229.12c10.604-0.071,20.892-3.624,29.28-10.112L473.6,332.86c3.527-2.631,5.836-6.58,6.4-10.944
	c0.535-4.105-0.62-8.251-3.2-11.488c-2.596-3.534-6.53-5.848-10.88-6.4c-4.08-0.467-8.181,0.681-11.424,3.2L340.48,395.612
	c-16.791,13.203-37.52,20.402-58.88,20.448H176v-32h105.6c14.171-0.016,27.928-4.781,39.072-13.536l113.984-88.416
	c9.952-7.829,22.651-11.292,35.2-9.6c12.77,1.533,24.391,8.128,32.256,18.304c7.802,9.966,11.262,22.653,9.6,35.2
	c-1.574,12.746-8.19,24.329-18.368,32.16L358.048,463.42C344.002,474.178,326.812,480.024,309.12,480.06z"/>
<path d="M176,416.06c-8.837,0-16-7.163-16-16s7.163-16,16-16c38.021,0.008,70.796-26.747,78.4-64H80c-8.837,0-16-7.163-16-16
	s7.163-16,16-16h192c8.837,0,16,7.163,16,16C288,365.916,237.856,416.06,176,416.06z"/>
<path d="M496,224.06H16c-8.837,0-16-7.163-16-16s7.163-16,16-16h480c8.837,0,16,7.163,16,16S504.837,224.06,496,224.06z"/>
<path d="M256,64.06c-8.837,0-16-7.163-16-16v-32c0-8.837,7.163-16,16-16c8.837,0,16,7.163,16,16v32
	C272,56.897,264.837,64.06,256,64.06z"/>
<path d="M464,224.06c-7.255-0.005-13.599-4.891-15.456-11.904C420.343,105.817,311.276,42.474,204.937,70.675
	C135.795,89.012,81.793,143.014,63.456,212.156c-2.571,8.454-11.509,13.224-19.963,10.652c-8.025-2.441-12.803-10.664-10.949-18.844
	C65.315,80.553,191.925,7.074,315.337,39.845c80.192,21.294,142.825,83.927,164.119,164.119c2.256,8.535-2.828,17.285-11.36,19.552
	C466.762,223.883,465.384,224.066,464,224.06z"/>
<g>
</g>
<g>
</g>
<g>
</g>
<g>
</g>
<g>
</g>
<g>
</g>
<g>
</g>
<g>
</g>
<g>
</g>
<g>
</g>
<g>
</g>
<g>
</g>
<g>
</g>
<g>
</g>
<g>
</g>
</svg>
