<svg id="regular" enable-background="new 0 0 24 24" height="512" viewBox="0 0 24 24" width="512" xmlns="http://www.w3.org/2000/svg"><g><g><path d="m17.18 13.673c-.229-.102-.496-.063-.683.105l-3.527 3.139c-.159.142-.237.354-.207.565l.568 3.966c.034.238.214.422.443.498.061.02.124.03.188.03.176 0 .352-.073.477-.198 2.009-2.009 3.115-4.682 3.115-7.525.002-.251-.145-.478-.374-.58z" fill="#2196f3"/></g><g><path d="m9.738 6.449c-2.838 0-5.504 1.104-7.509 3.108l-.03.03c-.17.17-.229.421-.153.649s.274.394.512.428l3.957.567c.03.005.06.007.09.007.18 0 .353-.076.474-.213l3.132-3.519c.166-.187.207-.454.105-.682s-.328-.375-.578-.375z" fill="#2196f3"/></g><g><path d="m12.078 18.401c-.177 0-.354-.068-.489-.203l-5.788-5.788c-.259-.259-.271-.676-.027-.949l4.338-4.859c3.073-3.596 8.06-5.944 12.46-5.85.369.009.667.306.675.675.102 4.376-2.254 9.388-5.862 12.47l-4.848 4.328c-.13.118-.295.176-.459.176z" fill="#eceff1"/></g><g><path d="m17.133 8.985c-.543 0-1.085-.206-1.498-.619-.825-.826-.825-2.17 0-2.996.826-.826 2.17-.826 2.996 0 .825.826.825 2.17 0 2.996-.413.412-.956.619-1.498.619z" fill="#2196f3"/></g><g><path d="m1.099 23.572c-.175 0-.346-.069-.473-.196-.174-.174-.238-.43-.168-.666.224-.751 1.393-4.542 2.304-5.454 1.065-1.064 2.92-1.064 3.983 0 .532.532.825 1.239.825 1.992 0 .752-.293 1.459-.825 1.991-.912.912-4.704 2.08-5.454 2.304-.063.02-.128.029-.192.029z" fill="#ff9800"/></g><g><path d="m11.878 19.151c-.192 0-.384-.074-.53-.22l-6.279-6.279c-.281-.281-.294-.733-.029-1.03l4.706-5.271c3.333-3.901 8.727-6.445 13.519-6.347.4.009.723.332.732.732.11 4.748-2.445 10.185-6.359 13.529l-5.259 4.695c-.144.128-.322.191-.501.191zm-5.248-7.059 5.277 5.277 4.743-4.234c3.399-2.904 5.678-7.487 5.84-11.626-4.138.163-8.72 2.441-11.615 5.828z"/></g><g><path d="m13.749 22.727c-.075 0-.15-.011-.221-.035-.27-.09-.482-.307-.522-.588l-.67-4.677c-.059-.41.226-.79.636-.849.405-.061.79.226.849.636l.438 3.058c1.454-1.923 2.229-4.229 2.229-6.654 0-.414.336-.75.75-.75s.75.336.75.75c0 3.354-1.305 6.506-3.674 8.875-.149.147-.358.234-.565.234z"/></g><g><path d="m6.681 11.673c-.036 0-.071-.002-.107-.008l-4.677-.67c-.282-.04-.517-.237-.606-.508s-.017-.568.186-.769c2.4-2.4 5.552-3.705 8.906-3.705.414 0 .75.336.75.75s-.336.75-.75.75c-2.437 0-4.752.782-6.66 2.228l3.064.439c.41.059.695.438.636.849-.054.374-.375.644-.742.644z"/></g><g><path d="m17.133 9.366c-.641 0-1.281-.244-1.768-.731-.974-.975-.974-2.561 0-3.536.975-.975 2.561-.975 3.536 0 .974.975.974 2.561 0 3.536-.488.488-1.128.731-1.768.731zm1.237-1.261h.01zm-1.237-2.237c-.256 0-.513.097-.708.292-.39.39-.39 1.024 0 1.415.389.39 1.025.39 1.414 0 .39-.39.39-1.024 0-1.414-.194-.196-.45-.293-.706-.293z"/></g><g><path d="m.75 24c-.196 0-.388-.077-.53-.22-.195-.195-.267-.481-.188-.746.251-.841 1.56-5.089 2.582-6.11 1.193-1.192 3.271-1.192 4.462 0 .596.597.924 1.389.924 2.232s-.328 1.635-.924 2.231c-1.021 1.021-5.27 2.33-6.11 2.582-.071.021-.144.031-.216.031zm4.095-6.499c-.424 0-.848.161-1.171.484-.436.436-1.187 2.364-1.771 4.112 1.748-.584 3.676-1.335 4.112-1.771.646-.646.646-1.696 0-2.341-.323-.323-.746-.484-1.17-.484z"/></g></g></svg>