<?xml version="1.0" encoding="iso-8859-1"?>
<!-- Generator: Adobe Illustrator 19.0.0, SVG Export Plug-In . SVG Version: 6.00 Build 0)  -->
<svg version="1.1" id="Capa_1" xmlns="http://www.w3.org/2000/svg" xmlns:xlink="http://www.w3.org/1999/xlink" x="0px" y="0px"
	 viewBox="0 0 512 512" style="enable-background:new 0 0 512 512;" xml:space="preserve">
<path style="fill:#ECEFF1;" d="M479.082,203.392l-48-160c-2.034-6.765-8.264-11.395-15.328-11.392h-320
	c-7.064-0.003-13.294,4.627-15.328,11.392l-48,160c-2.522,8.389,2.17,17.247,10.528,19.872
	c68.835,21.777,140.602,32.871,212.8,32.896c72.198-0.025,143.965-11.119,212.8-32.896
	C476.912,220.639,481.605,211.781,479.082,203.392z"/>
<path style="fill:#455A64;" d="M142.666,488.192c0,0.384,0.544,0.544,0.704,0.896c1.432-0.937,2.771-2.009,4-3.2
	c19.768-24.517,55.667-28.367,80.184-8.599c3.079,2.483,5.891,5.279,8.392,8.343c7.916,10.939,23.2,13.389,34.139,5.473
	c2.017-1.46,3.799-3.219,5.285-5.217c19.768-24.517,55.667-28.367,80.184-8.599c3.079,2.483,5.891,5.279,8.392,8.343
	c1.295,1.274,2.709,2.421,4.224,3.424c0.16-0.352,0.544-0.512,0.672-0.864l45.76-114.24c3.203-7.989-0.487-17.08-8.352-20.576
	l-144-64c-4.136-1.837-8.856-1.837-12.992,0l-144,64c-7.865,3.496-11.555,12.587-8.352,20.576L142.666,488.192z"/>
<path d="M383.754,512c-17.242-0.167-33.484-8.118-44.192-21.632c-7.916-10.939-23.2-13.389-34.139-5.473
	c-2.017,1.46-3.799,3.219-5.285,5.217c-19.768,24.517-55.667,28.367-80.184,8.599c-3.079-2.483-5.891-5.279-8.392-8.343
	c-7.916-10.939-23.2-13.389-34.139-5.473c-2.017,1.46-3.799,3.219-5.285,5.217c-19.768,24.517-55.667,28.367-80.184,8.599
	c-3.079-2.483-5.891-5.279-8.392-8.343c-7.916-10.939-23.2-13.389-34.139-5.473c-2.017,1.46-3.799,3.219-5.285,5.217
	c-5.818,6.651-15.926,7.326-22.577,1.507c-6.426-5.622-7.306-15.299-1.999-21.987c20.015-24.407,56.027-27.966,80.433-7.951
	c2.905,2.383,5.568,5.046,7.951,7.951c7.916,10.939,23.2,13.389,34.139,5.473c2.017-1.46,3.799-3.219,5.285-5.217
	c19.768-24.517,55.667-28.367,80.184-8.599c3.079,2.483,5.891,5.279,8.392,8.343c7.916,10.939,23.2,13.389,34.139,5.473
	c2.017-1.46,3.799-3.219,5.285-5.217c19.768-24.517,55.667-28.367,80.184-8.599c3.079,2.483,5.891,5.279,8.392,8.343
	c7.916,10.939,23.2,13.389,34.139,5.473c2.017-1.46,3.799-3.219,5.285-5.217c19.768-24.517,55.667-28.367,80.184-8.599
	c3.079,2.483,5.891,5.279,8.392,8.343c5.818,6.651,5.144,16.759-1.507,22.577c-6.651,5.818-16.759,5.144-22.577-1.507
	c-0.169-0.193-0.333-0.389-0.492-0.59c-8.147-10.834-23.534-13.011-34.368-4.864c-1.842,1.385-3.479,3.022-4.864,4.864
	C417.427,503.76,401.102,511.81,383.754,512z"/>
<path d="M353.994,498.24c-2.04,0.008-4.062-0.383-5.952-1.152c-8.194-3.276-12.188-12.568-8.928-20.768l40.064-99.936
	l-123.424-54.88l-123.424,54.88l40.224,99.936c3.278,8.209-0.719,17.522-8.928,20.8c-8.209,3.278-17.522-0.719-20.8-8.928
	l-45.76-114.24c-3.203-7.989,0.487-17.08,8.352-20.576l144-64c4.136-1.837,8.856-1.837,12.992,0l144,64
	c7.865,3.496,11.555,12.587,8.352,20.576l-45.76,114.24C366.549,494.315,360.59,498.304,353.994,498.24z"/>
<path d="M463.754,64h-416c-8.837,0-16-7.163-16-16s7.163-16,16-16h416c8.837,0,16,7.163,16,16S472.591,64,463.754,64z"/>
<path d="M255.754,64c-8.837,0-16-7.163-16-16V16c0-8.837,7.163-16,16-16c8.837,0,16,7.163,16,16v32
	C271.754,56.837,264.591,64,255.754,64z"/>
<path d="M47.754,224c-1.56-0.006-3.111-0.232-4.608-0.672c-8.463-2.541-13.264-11.462-10.723-19.925
	c0.001-0.004,0.002-0.007,0.003-0.011l48-160c2.545-8.465,11.471-13.265,19.936-10.72s13.265,11.471,10.72,19.936l-48,160
	C61.048,219.373,54.818,224.003,47.754,224z"/>
<path d="M463.754,224c-7.064,0.003-13.294-4.627-15.328-11.392l-48-160c-2.545-8.465,2.255-17.391,10.72-19.936
	c8.465-2.545,17.391,2.255,19.936,10.72l48,160c2.547,8.462-2.248,17.386-10.709,19.933c-0.004,0.001-0.007,0.002-0.011,0.003
	C466.866,223.768,465.314,223.994,463.754,224z"/>
<path d="M255.754,256.16c-72.164-0.049-143.896-11.142-212.704-32.896c-8.43-2.651-13.115-11.634-10.464-20.064
	c2.651-8.43,11.634-13.115,20.064-10.464c132.225,41.909,274.175,41.909,406.4,0c8.43-2.651,17.413,2.034,20.064,10.464
	c2.651,8.43-2.034,17.413-10.464,20.064l0,0C399.781,245.037,327.983,256.131,255.754,256.16z"/>
<path d="M255.786,224L255.786,224c8.837,0,16,7.163,16,16v64c0,8.837-7.163,16-16,16l0,0c-8.837,0-16-7.163-16-16v-64
	C239.786,231.163,246.95,224,255.786,224z"/>
<g>
</g>
<g>
</g>
<g>
</g>
<g>
</g>
<g>
</g>
<g>
</g>
<g>
</g>
<g>
</g>
<g>
</g>
<g>
</g>
<g>
</g>
<g>
</g>
<g>
</g>
<g>
</g>
<g>
</g>
</svg>
