<svg id="_x31__x2C_5" height="512" viewBox="0 0 24 24" width="512" xmlns="http://www.w3.org/2000/svg"><path d="m23.23 19.05-3-14.5c-.09-.46-.5-.8-.98-.8h-10.5c-.48 0-.89.34-.98.8l-3 14.5c-.01.07-.02.13-.02.2 0 .55.45 1 1 1h16.5c.55 0 1-.45 1-1 0-.07-.01-.13-.02-.2z" fill="#90a4ae"/><path d="m19.23 19.05-3-14.5c-.09-.46-.5-.8-.98-.8h-10.5c-.48 0-.89.34-.98.8l-3 14.5c-.01.07-.02.13-.02.2 0 .55.45 1 1 1h16.5c.55 0 1-.45 1-1 0-.07-.01-.13-.02-.2z" fill="#cfd8dc"/><path d="m18.25 21h-16.5c-.965 0-1.75-.785-1.75-1.75 0-.102.011-.191.025-.292l3.01-14.56c.158-.807.88-1.398 1.715-1.398h10.5c.835 0 1.557.591 1.716 1.406l2.998 14.492c.025.161.036.25.036.352 0 .965-.785 1.75-1.75 1.75zm-13.5-16.5c-.118 0-.222.083-.244.193l-3.002 14.509c-.004.184.11.298.246.298h16.5c.136 0 .25-.114.25-.25h.75-.75c0-.026-.006-.048-.009-.074l-2.995-14.474c-.024-.119-.128-.202-.246-.202z"/><path d="m22.25 21h-4.5c-.414 0-.75-.336-.75-.75s.336-.75.75-.75h4.5c.136 0 .25-.114.25-.25l-3.004-14.548c-.024-.119-.128-.202-.246-.202h-4.5c-.414 0-.75-.336-.75-.75s.336-.75.75-.75h4.5c.835 0 1.557.591 1.716 1.406l2.998 14.492c.025.161.036.25.036.352 0 .965-.785 1.75-1.75 1.75z"/><path d="m10 12c-2.206 0-4-1.794-4-4v-2.25c0-.414.336-.75.75-.75s.75.336.75.75v2.25c0 1.378 1.122 2.5 2.5 2.5s2.5-1.122 2.5-2.5v-2.25c0-.414.336-.75.75-.75s.75.336.75.75v2.25c0 2.206-1.794 4-4 4z"/></svg>