<svg id="_x31__x2C_5" enable-background="new 0 0 24 24" height="512" viewBox="0 0 24 24" width="512" xmlns="http://www.w3.org/2000/svg"><g><path d="m17.625 18.875h-11.25c-.373 0-.675-.302-.675-.675v-4.275c0-3.474 2.827-6.3 6.3-6.3s6.3 2.826 6.3 6.3v4.275c0 .373-.302.675-.675.675z" fill="#f44336"/></g><g><path d="m21.609 23.375h-19.218c-.905 0-1.641-.622-1.641-1.385v-1.98c0-.764.736-1.385 1.641-1.385h19.219c.905 0 1.641.622 1.641 1.385v1.979c-.001.764-.737 1.386-1.642 1.386z" fill="#607d8b"/></g><g><path d="m22.25 24h-20.5c-.965 0-1.75-.785-1.75-1.75v-2.5c0-.965.785-1.75 1.75-1.75h20.5c.965 0 1.75.785 1.75 1.75v2.5c0 .965-.785 1.75-1.75 1.75zm-20.5-4.5c-.138 0-.25.112-.25.25v2.5c0 .138.112.25.25.25h20.5c.138 0 .25-.112.25-.25v-2.5c0-.138-.112-.25-.25-.25z"/></g><g><path d="m18.25 19.25c-.414 0-.75-.336-.75-.75v-4.5c0-3.033-2.468-5.5-5.5-5.5s-5.5 2.467-5.5 5.5v4.5c0 .414-.336.75-.75.75s-.75-.336-.75-.75v-4.5c0-3.86 3.141-7 7-7s7 3.14 7 7v4.5c0 .414-.336.75-.75.75z"/></g><g><path d="m8.75 14.75c-.414 0-.75-.336-.75-.75 0-2.206 1.794-4 4-4 .414 0 .75.336.75.75s-.336.75-.75.75c-1.379 0-2.5 1.122-2.5 2.5 0 .414-.336.75-.75.75z"/></g><g><path d="m12 5c-.414 0-.75-.336-.75-.75v-3.5c0-.414.336-.75.75-.75s.75.336.75.75v3.5c0 .414-.336.75-.75.75z"/></g><g><path d="m17.75 7c-.192 0-.384-.073-.53-.22-.293-.293-.293-.768 0-1.061l2.475-2.475c.293-.293.768-.293 1.061 0s.293.768 0 1.061l-2.476 2.475c-.146.147-.338.22-.53.22z"/></g><g><path d="m6.25 7c-.192 0-.384-.073-.53-.22l-2.475-2.475c-.293-.293-.293-.768 0-1.061s.768-.293 1.061 0l2.474 2.476c.293.293.293.768 0 1.061-.146.146-.338.219-.53.219z"/></g><g><path d="m2.25 12.75h-1.5c-.414 0-.75-.336-.75-.75s.336-.75.75-.75h1.5c.414 0 .75.336.75.75s-.336.75-.75.75z"/></g><g><path d="m23.25 12.75h-1.5c-.414 0-.75-.336-.75-.75s.336-.75.75-.75h1.5c.414 0 .75.336.75.75s-.336.75-.75.75z"/></g></svg>