<?xml version="1.0" encoding="iso-8859-1"?>
<!-- Generator: Adobe Illustrator 19.0.0, SVG Export Plug-In . SVG Version: 6.00 Build 0)  -->
<svg version="1.1" id="Capa_1" xmlns="http://www.w3.org/2000/svg" xmlns:xlink="http://www.w3.org/1999/xlink" x="0px" y="0px"
	 viewBox="0 0 512 512" style="enable-background:new 0 0 512 512;" xml:space="preserve">
<path style="fill:#ECEFF1;" d="M512,128H0v112c0.138,8.977,7.527,16.142,16.504,16.004c0.067-0.001,0.133-0.002,0.2-0.004
	c96.602,0.507,174.789,78.694,175.296,175.296c-0.248,8.974,6.825,16.451,15.8,16.7c0.067,0.002,0.133,0.003,0.2,0.004h88.032
	c17.12,0,23.936-7.584,23.968-16.704c0.507-96.602,78.694-174.789,175.296-175.296c8.974,0.248,16.451-6.825,16.7-15.8
	c0.002-0.067,0.003-0.133,0.004-0.2V128z"/>
<path style="fill:#607D8B;" d="M496,64H16C7.163,64,0,71.163,0,80v80h512V80C512,71.163,504.837,64,496,64z"/>
<path d="M496,160H16c-8.837,0-16-7.163-16-16V80c0-8.837,7.163-16,16-16h480c8.837,0,16,7.163,16,16v64
	C512,152.837,504.837,160,496,160z M32,128h448V96H32V128z"/>
<path d="M304,448h-96c-8.837,0-16-7.163-16-16s7.163-16,16-16h96c8.837,0,16,7.163,16,16S312.837,448,304,448z"/>
<path d="M304,448c-8.837,0-16-7.163-16-16c0.119-108.624,83.707-198.913,192-207.392V160H32v64.608
	C140.293,233.087,223.881,323.376,224,432c0,8.837-7.163,16-16,16s-16-7.163-16-16c-0.106-97.158-78.842-175.894-176-176
	c-8.837,0-16-7.163-16-16v-96c0-8.837,7.163-16,16-16h480c8.837,0,16,7.163,16,16v96c0,8.837-7.163,16-16,16
	c-97.158,0.106-175.894,78.842-176,176C320,440.837,312.837,448,304,448z"/>
<path d="M160,320.64c-8.531,0.301-15.69-6.371-15.991-14.902c-0.005-0.153-0.008-0.305-0.009-0.458V304
	c-2.266-59.906,13.81-119.077,46.08-169.6c5.302-7.069,15.331-8.502,22.4-3.2c7.069,5.302,8.502,15.331,3.2,22.4
	C187.542,198.564,173.706,251.007,176,304C176.04,312.959,168.954,320.329,160,320.64z"/>
<path d="M352,320.64c-8.531,0.301-15.69-6.371-15.991-14.902c-0.005-0.153-0.008-0.305-0.009-0.458
	c2.458-53.414-11.38-106.313-39.68-151.68c-5.302-7.069-3.869-17.098,3.2-22.4c7.069-5.302,17.098-3.869,22.4,3.2
	C354.19,184.923,370.266,244.094,368,304C368.04,312.959,360.954,320.329,352,320.64z"/>
<g>
</g>
<g>
</g>
<g>
</g>
<g>
</g>
<g>
</g>
<g>
</g>
<g>
</g>
<g>
</g>
<g>
</g>
<g>
</g>
<g>
</g>
<g>
</g>
<g>
</g>
<g>
</g>
<g>
</g>
</svg>
