<?xml version="1.0" encoding="iso-8859-1"?>
<!-- Generator: Adobe Illustrator 19.0.0, SVG Export Plug-In . SVG Version: 6.00 Build 0)  -->
<svg version="1.1" id="Capa_1" xmlns="http://www.w3.org/2000/svg" xmlns:xlink="http://www.w3.org/1999/xlink" x="0px" y="0px"
	 viewBox="0 0 512.001 512.001" style="enable-background:new 0 0 512.001 512.001;" xml:space="preserve">
<circle style="fill:#FFCA28;" cx="256.001" cy="256" r="256"/>
<path d="M414.401,451.52c-8.837-0.005-15.996-7.173-15.991-16.009c0.003-4.64,2.019-9.05,5.527-12.087
	c48.452-42.124,76.21-103.221,76.064-167.424c0-123.712-100.288-224-224-224s-224,100.288-224,224
	c-0.146,64.203,27.612,125.3,76.064,167.424c6.839,5.596,7.846,15.677,2.249,22.515c-5.596,6.839-15.677,7.846-22.515,2.249
	c-0.226-0.185-0.447-0.376-0.662-0.573C31.647,399.425-0.154,329.494,0.001,256c0-141.385,114.615-256,256-256s256,114.615,256,256
	c0.154,73.494-31.647,143.425-87.136,191.616C421.959,450.132,418.244,451.518,414.401,451.52z"/>
<path d="M256.001,512c-17.198,0.047-34.356-1.68-51.2-5.152c-8.747-1.254-14.822-9.361-13.568-18.108
	c1.254-8.747,9.361-14.822,18.109-13.568c0.627,0.09,1.248,0.217,1.859,0.38c29.575,5.905,60.025,5.905,89.6,0
	c8.747-1.254,16.855,4.821,18.108,13.568c1.15,8.022-3.879,15.637-11.708,17.728C290.356,510.32,273.199,512.047,256.001,512z"/>
<path d="M208.001,192h-128c-8.837,0-16-7.163-16-16s7.163-16,16-16h128c8.837,0,16,7.163,16,16S216.837,192,208.001,192z"/>
<path d="M432.001,192h-128c-8.837,0-16-7.163-16-16s7.163-16,16-16h128c8.837,0,16,7.163,16,16S440.837,192,432.001,192z"/>
<path d="M336.001,376.32c-3.169-0.006-6.266-0.952-8.896-2.72c-43.008-28.867-99.2-28.867-142.208,0
	c-7.258,5.041-17.228,3.244-22.269-4.014s-3.244-17.228,4.014-22.269c0.152-0.106,0.306-0.209,0.462-0.309
	c53.757-36.131,124.035-36.131,177.792,0c7.352,4.902,9.338,14.836,4.436,22.188C346.361,373.653,341.357,376.327,336.001,376.32z"
	/>
<path style="fill:#2196F3;" d="M176.001,432V176h-64v256c-17.673,0-32,14.327-32,32v32h128v-32
	C208.001,446.327,193.674,432,176.001,432z"/>
<path d="M208.001,512h-128c-8.837,0-16-7.163-16-16v-32c-0.011-20.351,12.813-38.496,32-45.28V176c0-8.837,7.163-16,16-16h64
	c8.837,0,16,7.163,16,16v242.72c19.187,6.784,32.011,24.929,32,45.28v32C224.001,504.837,216.837,512,208.001,512z M96.001,480h96
	v-16c0-8.837-7.163-16-16-16s-16-7.163-16-16V192h-32v240c0,8.837-7.163,16-16,16s-16,7.163-16,16V480z"/>
<path style="fill:#2196F3;" d="M400.001,432V176h-64v256c-17.673,0-32,14.327-32,32v32h128v-32
	C432.001,446.327,417.674,432,400.001,432z"/>
<path d="M432.001,512h-128c-8.837,0-16-7.163-16-16v-32c-0.011-20.351,12.813-38.496,32-45.28V176c0-8.837,7.163-16,16-16h64
	c8.837,0,16,7.163,16,16v242.72c19.187,6.784,32.011,24.929,32,45.28v32C448.001,504.837,440.837,512,432.001,512z M320.001,480h96
	v-16c0-8.837-7.163-16-16-16s-16-7.163-16-16V192h-32v240c0,8.837-7.163,16-16,16s-16,7.163-16,16V480z"/>
<g>
</g>
<g>
</g>
<g>
</g>
<g>
</g>
<g>
</g>
<g>
</g>
<g>
</g>
<g>
</g>
<g>
</g>
<g>
</g>
<g>
</g>
<g>
</g>
<g>
</g>
<g>
</g>
<g>
</g>
</svg>
