<?xml version="1.0" encoding="iso-8859-1"?>
<!-- Generator: Adobe Illustrator 19.0.0, SVG Export Plug-In . SVG Version: 6.00 Build 0)  -->
<svg version="1.1" id="Capa_1" xmlns="http://www.w3.org/2000/svg" xmlns:xlink="http://www.w3.org/1999/xlink" x="0px" y="0px"
	 viewBox="0 0 512.303 512.303" style="enable-background:new 0 0 512.303 512.303;" xml:space="preserve">
<g>
	<path style="fill:#8D6E63;" d="M431.116,289.303c11.094-13.972,17.088-31.311,16.992-49.152
		c-0.048-33.66-21.11-63.708-52.736-75.232c3.129-6.475,4.748-13.576,4.736-20.768c0-26.51-21.49-48-48-48h-96
		c-31.328,0-32-46.08-32-48c0-8.837-7.163-16-16-16h-16c-44.183,0.018-79.985,35.85-79.967,80.032
		c0.007,17.892,6.012,35.266,17.055,49.344c-15.744,2.881-30.204,10.586-41.376,22.048c-15.266,14.851-23.828,35.278-23.712,56.576
		c-0.016,17.817,5.945,35.124,16.928,49.152c-20.033,3.127-38.549,12.553-52.864,26.912c-37.52,37.461-37.568,98.244-0.108,135.764
		c18.034,18.063,42.519,28.2,68.044,28.172h320c53.019,0.1,96.081-42.799,96.182-95.818
		C512.379,336.969,477.911,296.618,431.116,289.303L431.116,289.303z"/>
	<path style="fill:#8D6E63;" d="M368.108,304.151h48c44.183,0,80,35.817,80,80s-35.817,80-80,80h-320c-44.183,0-80-35.817-80-80
		s35.817-80,80-80h48c-35.302-0.105-63.895-28.698-64-64c0.261-35.237,28.763-63.739,64-64h48c-35.346,0-64-28.654-64-64
		s28.654-64,64-64h16c0,0,0,64,48,64h96c17.673,0,32,14.327,32,32s-14.327,32-32,32h16c35.302,0.105,63.895,28.698,64,64
		C431.846,275.389,403.345,303.89,368.108,304.151z"/>
</g>
<path d="M416.108,480.151h-320C43.088,480.156,0.104,437.18,0.099,384.16c-0.004-47.22,34.331-87.432,80.969-94.825
	c-11.006-14.03-16.979-31.352-16.96-49.184c-0.124-21.309,8.438-41.749,23.712-56.608c11.183-11.441,25.639-19.133,41.376-22.016
	c-27.27-34.763-21.195-85.051,13.569-112.321c14.078-11.043,31.451-17.048,49.343-17.055h16c8.837,0,16,7.163,16,16
	c0,1.92,0.672,48,32,48h96c26.51,0,48,21.49,48,48c0.012,7.192-1.607,14.293-4.736,20.768c31.62,11.532,52.679,41.575,52.736,75.232
	c0.088,17.839-5.905,35.176-16.992,49.152c52.383,8.188,88.21,57.292,80.022,109.675
	C503.822,445.773,463.471,480.241,416.108,480.151z M96.108,320.151c-35.346,0-64,28.654-64,64s28.654,64,64,64h320
	c35.346,0,64-28.654,64-64s-28.654-64-64-64h-48c-8.837,0-16-7.163-16-16s7.163-16,16-16c26.415-0.226,47.774-21.585,48-48
	c0-26.51-21.49-48-48-48h-16c-8.837,0-16-7.163-16-16s7.163-16,16-16s16-7.163,16-16s-7.163-16-16-16h-96
	c-34.362-1.781-61.619-29.609-62.688-64h-1.312c-26.51,0-48,21.49-48,48s21.49,48,48,48c8.837,0,16,7.163,16,16s-7.163,16-16,16h-48
	c-26.415,0.226-47.774,21.585-48,48c0,26.51,21.49,48,48,48c8.837,0,16,7.163,16,16s-7.163,16-16,16H96.108z"/>
<g>
	<circle style="fill:#FAFAFA;" cx="192.108" cy="256.151" r="32"/>
	<circle style="fill:#FAFAFA;" cx="320.108" cy="256.151" r="32"/>
</g>
<path d="M192.108,304.151c-26.51,0-48-21.49-48-48s21.49-48,48-48s48,21.49,48,48S218.617,304.151,192.108,304.151z
	 M192.108,240.151c-8.837,0-16,7.163-16,16s7.163,16,16,16s16-7.163,16-16S200.944,240.151,192.108,240.151z"/>
<path d="M320.108,304.151c-26.51,0-48-21.49-48-48s21.49-48,48-48s48,21.49,48,48S346.617,304.151,320.108,304.151z
	 M320.108,240.151c-8.837,0-16,7.163-16,16s7.163,16,16,16s16-7.163,16-16S328.944,240.151,320.108,240.151z"/>
<path style="fill:#F44336;" d="M336.108,336.151c-9.981,44.183-53.89,71.909-98.073,61.927
	c-30.858-6.971-54.956-31.069-61.927-61.927H336.108z"/>
<path d="M256.108,416.151c-45.919,0.212-85.754-31.664-95.616-76.512c-1.926-8.624,3.503-17.177,12.127-19.103
	c1.145-0.256,2.315-0.385,3.489-0.385h160c8.837,0,16,7.163,16.001,15.999c0,1.174-0.129,2.344-0.385,3.489
	C341.862,384.487,302.027,416.363,256.108,416.151z M199.436,352.151c18.871,31.299,59.542,41.374,90.841,22.503
	c9.22-5.559,16.944-13.283,22.503-22.503H199.436z"/>
<g>
</g>
<g>
</g>
<g>
</g>
<g>
</g>
<g>
</g>
<g>
</g>
<g>
</g>
<g>
</g>
<g>
</g>
<g>
</g>
<g>
</g>
<g>
</g>
<g>
</g>
<g>
</g>
<g>
</g>
</svg>
