<?xml version="1.0" encoding="iso-8859-1"?>
<!-- Generator: Adobe Illustrator 19.0.0, SVG Export Plug-In . SVG Version: 6.00 Build 0)  -->
<svg version="1.1" id="Capa_1" xmlns="http://www.w3.org/2000/svg" xmlns:xlink="http://www.w3.org/1999/xlink" x="0px" y="0px"
	 viewBox="0 0 512 512" style="enable-background:new 0 0 512 512;" xml:space="preserve">
<circle style="fill:#FFCA28;" cx="256" cy="256" r="256"/>
<path style="fill:#FAFAFA;" d="M437.696,294.688c-3.022-4.029-7.764-6.4-12.8-6.4H86.4c-8.837-0.015-16.012,7.136-16.027,15.973
	c-0.003,1.481,0.2,2.954,0.603,4.379c28.985,102,135.169,161.191,237.17,132.206c63.998-18.186,114.02-68.208,132.206-132.206
	C441.692,303.83,440.71,298.669,437.696,294.688z"/>
<path d="M256,512C114.615,512,0,397.385,0,256S114.615,0,256,0s256,114.615,256,256C511.841,397.319,397.319,511.841,256,512z
	 M256,32C132.288,32,32,132.288,32,256s100.288,224,224,224s224-100.288,224-224C479.859,132.347,379.653,32.141,256,32z"/>
<path d="M400,208c-8.837,0-16-7.163-16-16c0-17.673-14.327-32-32-32s-32,14.327-32,32c0,8.837-7.163,16-16,16s-16-7.163-16-16
	c0-35.346,28.654-64,64-64s64,28.654,64,64C416,200.837,408.837,208,400,208z"/>
<path d="M208,208c-8.837,0-16-7.163-16-16c0-17.673-14.327-32-32-32s-32,14.327-32,32c0,8.837-7.163,16-16,16s-16-7.163-16-16
	c0-35.346,28.654-64,64-64s64,28.654,64,64C224,200.837,216.837,208,208,208z"/>
<path d="M256,448c-85.81-0.164-161.14-57.128-184.672-139.648c-2.404-8.503,2.541-17.345,11.045-19.749
	c1.414-0.4,2.877-0.603,4.347-0.603h338.56c8.837,0.003,15.998,7.168,15.995,16.005c0,1.47-0.203,2.933-0.603,4.347
	C417.14,390.872,341.81,447.836,256,448z M109.376,320c35.37,80.978,129.688,117.951,210.666,82.582
	c36.949-16.139,66.443-45.633,82.582-82.582H109.376z"/>
<g>
</g>
<g>
</g>
<g>
</g>
<g>
</g>
<g>
</g>
<g>
</g>
<g>
</g>
<g>
</g>
<g>
</g>
<g>
</g>
<g>
</g>
<g>
</g>
<g>
</g>
<g>
</g>
<g>
</g>
</svg>
