<?xml version="1.0" encoding="iso-8859-1"?>
<!-- Generator: Adobe Illustrator 19.0.0, SVG Export Plug-In . SVG Version: 6.00 Build 0)  -->
<svg version="1.1" id="Capa_1" xmlns="http://www.w3.org/2000/svg" xmlns:xlink="http://www.w3.org/1999/xlink" x="0px" y="0px"
	 viewBox="0 0 512 512" style="enable-background:new 0 0 512 512;" xml:space="preserve">
<circle style="fill:#FFCA28;" cx="256" cy="256" r="256"/>
<g>
	<circle style="fill:#FAFAFA;" cx="160" cy="192" r="32"/>
	<circle style="fill:#FAFAFA;" cx="352" cy="192" r="32"/>
	<path style="fill:#FAFAFA;" d="M417.952,382.048c-23.964-14.945-50.637-25.025-78.496-29.664
		c-8.608-1.996-17.204,3.365-19.2,11.973c-0.551,2.377-0.551,4.849,0,7.227c4.639,27.859,14.719,54.532,29.664,78.496
		c18.751,18.751,49.153,18.751,67.904,0s18.751-49.153,0-67.904L417.952,382.048z"/>
</g>
<path d="M256,512C114.615,512,0,397.385,0,256S114.615,0,256,0s256,114.615,256,256C511.841,397.319,397.319,511.841,256,512z
	 M256,32C132.288,32,32,132.288,32,256s100.288,224,224,224s224-100.288,224-224C479.859,132.347,379.653,32.141,256,32z"/>
<path d="M160,240c-26.51,0-48-21.49-48-48s21.49-48,48-48s48,21.49,48,48S186.51,240,160,240z M160,176c-8.837,0-16,7.163-16,16
	s7.163,16,16,16s16-7.163,16-16S168.837,176,160,176z"/>
<path d="M352,240c-26.51,0-48-21.49-48-48s21.49-48,48-48s48,21.49,48,48S378.51,240,352,240z M352,176c-8.837,0-16,7.163-16,16
	s7.163,16,16,16s16-7.163,16-16S360.837,176,352,176z"/>
<path d="M336,384H176c-8.837,0-16-7.163-16-16s7.163-16,16-16h160c8.837,0,16,7.163,16,16S344.837,384,336,384z"/>
<path d="M208,416c-8.837,0-16-7.163-16-16v-64c0-8.837,7.163-16,16-16s16,7.163,16,16v64C224,408.837,216.837,416,208,416z"/>
<path d="M256,416c-8.837,0-16-7.163-16-16v-64c0-8.837,7.163-16,16-16c8.837,0,16,7.163,16,16v64C272,408.837,264.837,416,256,416z"
	/>
<path d="M304,416c-8.837,0-16-7.163-16-16v-64c0-8.837,7.163-16,16-16s16,7.163,16,16v64C320,408.837,312.837,416,304,416z"/>
<path d="M384,464c-12.728,0.014-24.941-5.027-33.952-14.016c-14.962-23.956-25.043-50.632-29.664-78.496
	c-1.996-8.608,3.365-17.204,11.973-19.2c2.377-0.551,4.849-0.551,7.227,0c27.864,4.621,54.54,14.702,78.496,29.664
	c18.805,18.686,18.901,49.077,0.215,67.882C409.225,458.962,396.869,464.066,384,464z M358.176,390.208
	c3.001,13.027,7.896,25.545,14.528,37.152c6.356,6.139,16.485,5.963,22.624-0.394c5.988-6.2,5.988-16.03,0-22.23
	c-11.606-6.644-24.123-11.549-37.152-14.56V390.208z"/>
<g>
</g>
<g>
</g>
<g>
</g>
<g>
</g>
<g>
</g>
<g>
</g>
<g>
</g>
<g>
</g>
<g>
</g>
<g>
</g>
<g>
</g>
<g>
</g>
<g>
</g>
<g>
</g>
<g>
</g>
</svg>
