<?xml version="1.0" encoding="iso-8859-1"?>
<!-- Generator: Adobe Illustrator 19.0.0, SVG Export Plug-In . SVG Version: 6.00 Build 0)  -->
<svg version="1.1" id="Capa_1" xmlns="http://www.w3.org/2000/svg" xmlns:xlink="http://www.w3.org/1999/xlink" x="0px" y="0px"
	 viewBox="0 0 512 512" style="enable-background:new 0 0 512 512;" xml:space="preserve">
<circle style="fill:#FFCA28;" cx="256" cy="256" r="256"/>
<g>
	<circle style="fill:#FAFAFA;" cx="160" cy="192" r="32"/>
	<circle style="fill:#FAFAFA;" cx="352" cy="192" r="32"/>
</g>
<path d="M256,512C114.615,512,0,397.385,0,256S114.615,0,256,0s256,114.615,256,256C511.841,397.319,397.319,511.841,256,512z
	 M256,32C132.288,32,32,132.288,32,256s100.288,224,224,224s224-100.288,224-224C479.859,132.347,379.653,32.141,256,32z"/>
<path d="M160,240c-26.51,0-48-21.49-48-48s21.49-48,48-48s48,21.49,48,48S186.51,240,160,240z M160,176c-8.837,0-16,7.163-16,16
	s7.163,16,16,16s16-7.163,16-16S168.837,176,160,176z"/>
<path d="M352,240c-26.51,0-48-21.49-48-48s21.49-48,48-48s48,21.49,48,48S378.51,240,352,240z M352,176c-8.837,0-16,7.163-16,16
	s7.163,16,16,16s16-7.163,16-16S360.837,176,352,176z"/>
<path d="M357.824,394.176c-4.24-0.009-8.303-1.701-11.296-4.704c-50.042-49.888-131.014-49.888-181.056,0
	c-6.356,6.139-16.485,5.963-22.624-0.394c-5.988-6.2-5.988-16.03,0-22.23c62.546-62.363,163.758-62.363,226.304,0
	c6.256,6.24,6.269,16.371,0.029,22.627C366.172,392.492,362.084,394.184,357.824,394.176L357.824,394.176z"/>
<g>
</g>
<g>
</g>
<g>
</g>
<g>
</g>
<g>
</g>
<g>
</g>
<g>
</g>
<g>
</g>
<g>
</g>
<g>
</g>
<g>
</g>
<g>
</g>
<g>
</g>
<g>
</g>
<g>
</g>
</svg>
