<?xml version="1.0" encoding="iso-8859-1"?>
<!-- Generator: Adobe Illustrator 19.0.0, SVG Export Plug-In . SVG Version: 6.00 Build 0)  -->
<svg version="1.1" id="Capa_1" xmlns="http://www.w3.org/2000/svg" xmlns:xlink="http://www.w3.org/1999/xlink" x="0px" y="0px"
	 viewBox="0 0 512 512" style="enable-background:new 0 0 512 512;" xml:space="preserve">
<circle style="fill:#F44336;" cx="256" cy="256" r="256"/>
<g>
	<path style="fill:#FAFAFA;" d="M176,272c-17.673,0-32-14.327-32-32s14.327-32,32-32c7.289-0.033,14.366,2.454,20.032,7.04l0,0
		c13.785,11.059,15.995,31.2,4.935,44.985C194.892,267.597,185.708,272.002,176,272z"/>
	<path style="fill:#FAFAFA;" d="M336,208c17.673,0.013,31.989,14.35,31.976,32.024s-14.35,31.989-32.023,31.976
		c-17.673-0.013-31.989-14.35-31.976-32.023c0.007-9.661,4.379-18.803,11.896-24.872C321.552,210.47,328.669,207.958,336,208z"/>
</g>
<path d="M256,512C114.615,512,0,397.385,0,256S114.615,0,256,0s256,114.615,256,256C511.841,397.319,397.319,511.841,256,512z
	 M256,32C132.288,32,32,132.288,32,256s100.288,224,224,224s224-100.288,224-224C479.859,132.347,379.653,32.141,256,32z"/>
<path d="M176,288c-26.51,0-48-21.49-48-48s21.49-48,48-48s48,21.49,48,48S202.51,288,176,288z M176,224c-8.837,0-16,7.163-16,16
	s7.163,16,16,16s16-7.163,16-16c0.027-4.842-2.166-9.429-5.952-12.448l0,0C183.215,225.234,179.661,223.977,176,224z"/>
<path d="M196.128,231.104c-3.668,0.006-7.226-1.248-10.08-3.552l-68.096-55.104c-6.774-5.675-7.665-15.766-1.99-22.54
	c5.529-6.6,15.289-7.641,22.086-2.356l68.128,55.104c6.875,5.552,7.947,15.625,2.396,22.5
	C205.535,228.917,200.961,231.103,196.128,231.104L196.128,231.104z"/>
<path d="M336,288c-26.51,0-48-21.49-48-48s21.49-48,48-48s48,21.49,48,48S362.51,288,336,288z M336,224c-8.837,0-16,7.163-16,16
	s7.163,16,16,16s16-7.163,16-16S344.837,224,336,224z"/>
<path d="M315.872,231.104c-8.837-0.002-15.998-7.168-15.996-16.004c0.001-4.833,2.187-9.407,5.948-12.444l68.128-55.104
	c6.976-5.424,17.028-4.166,22.452,2.81c5.285,6.797,4.244,16.557-2.356,22.086l-68.096,55.104
	C323.098,229.856,319.54,231.11,315.872,231.104z"/>
<path d="M336,416c-4.111,0.001-8.064-1.58-11.04-4.416c-38.593-36.84-99.327-36.84-137.92,0c-6.398,6.097-16.527,5.854-22.624-0.544
	c-6.097-6.398-5.854-16.527,0.544-22.624l0,0c50.961-48.608,131.119-48.608,182.08,0c6.398,6.095,6.643,16.223,0.547,22.621
	C344.567,414.207,340.379,416.001,336,416z"/>
<g>
</g>
<g>
</g>
<g>
</g>
<g>
</g>
<g>
</g>
<g>
</g>
<g>
</g>
<g>
</g>
<g>
</g>
<g>
</g>
<g>
</g>
<g>
</g>
<g>
</g>
<g>
</g>
<g>
</g>
</svg>
