<?xml version="1.0" encoding="iso-8859-1"?>
<!-- Generator: Adobe Illustrator 19.0.0, SVG Export Plug-In . SVG Version: 6.00 Build 0)  -->
<svg version="1.1" id="Capa_1" xmlns="http://www.w3.org/2000/svg" xmlns:xlink="http://www.w3.org/1999/xlink" x="0px" y="0px"
	 viewBox="0 0 512 512" style="enable-background:new 0 0 512 512;" xml:space="preserve">
<circle style="fill:#455A64;" cx="256" cy="256" r="256"/>
<circle style="fill:#FAFAFA;" cx="256" cy="256" r="144"/>
<path d="M256,272c-33.071,2.015-61.607-22.954-64-56c2.393-33.046,30.929-58.015,64-56c33.071-2.015,61.607,22.954,64,56
	C317.607,249.046,289.071,274.015,256,272z M256,192c-17.344,0-32,10.976-32,24s14.656,24,32,24s32-10.976,32-24
	S273.344,192,256,192z"/>
<path d="M256,352c-33.071,2.015-61.607-22.954-64-56c2.393-33.046,30.929-58.015,64-56c33.071-2.015,61.607,22.954,64,56
	C317.607,329.046,289.071,354.015,256,352z M256,272c-17.344,0-32,10.976-32,24s14.656,24,32,24s32-10.976,32-24
	S273.344,272,256,272z"/>
<path d="M256,512C114.615,512,0,397.385,0,256S114.615,0,256,0s256,114.615,256,256C511.841,397.319,397.319,511.841,256,512z
	 M256,32C132.288,32,32,132.288,32,256s100.288,224,224,224s224-100.288,224-224C479.859,132.347,379.653,32.141,256,32z"/>
<path d="M256,416c-88.366,0-160-71.634-160-160S167.634,96,256,96s160,71.634,160,160C415.894,344.322,344.322,415.894,256,416z
	 M256,128c-70.692,0-128,57.308-128,128s57.308,128,128,128s128-57.308,128-128S326.692,128,256,128z"/>
<g>
</g>
<g>
</g>
<g>
</g>
<g>
</g>
<g>
</g>
<g>
</g>
<g>
</g>
<g>
</g>
<g>
</g>
<g>
</g>
<g>
</g>
<g>
</g>
<g>
</g>
<g>
</g>
<g>
</g>
</svg>
