<?xml version="1.0" encoding="utf-8"?>
<!-- Generator: Adobe Illustrator 25.3.1, SVG Export Plug-In . SVG Version: 6.00 Build 0)  -->
<svg version="1.1" id="Calque_1" xmlns="http://www.w3.org/2000/svg" xmlns:xlink="http://www.w3.org/1999/xlink" x="0px" y="0px"
	 viewBox="0 0 512 512" style="enable-background:new 0 0 512 512;" xml:space="preserve">
<style type="text/css">
	.st0{fill:#455A64;stroke:#000000;stroke-width:8;stroke-miterlimit:10;}
	.st1{fill:#CFD8DC;stroke:#000000;stroke-width:8;stroke-miterlimit:10;}
	.st2{fill:#607D8B;stroke:#000000;stroke-width:8;stroke-miterlimit:10;}
	.st3{fill:#ECEFF1;stroke:#000000;stroke-width:8;stroke-miterlimit:10;}
	.st4{fill:#FFC107;stroke:#000000;stroke-width:8;stroke-miterlimit:10;}
	.st5{stroke:#000000;stroke-width:8;stroke-miterlimit:10;}
	.st6{stroke:#000000;stroke-width:2;stroke-miterlimit:10;}
</style>
<path class="st0" d="M321.6,36.4c-2.2-12.1-10.7-21.6-22.1-25c-9.8-2.9-25.2-6.3-43-6.3c-16.3,0-31.1,1.9-43.8,5.7
	c-10.9,3.5-19.2,13.1-21.1,24.7l-8.4,50.7c-0.6,3.6,0.7,7.3,3.5,9.7c2.8,2.4,6.6,3.2,10.1,2c34.6-11.3,84.7-11.3,119.3,0
	c1.1,0.4,2.2,0.5,3.3,0.5c2.5,0,4.9-0.9,6.9-2.5c2.8-2.4,4.1-6.1,3.5-9.7L321.6,36.4z"/>
<path class="st1" d="M304.6,245.3c-3.1-1.2-6.6-0.8-9.4,1c-22.9,14.6-54.6,14.6-77.5,0c-2.8-1.8-6.2-2.2-9.4-1
	c-53,19.9-88.7,71.3-88.7,127.9c0,75.4,61.4,136.8,136.8,136.8c75.4,0,136.8-61.4,136.8-136.8C393.3,316.6,357.6,265.2,304.6,245.3z
	"/>
<path class="st2" d="M324.7,78.8c-0.6-0.4-1.3-0.7-2-0.9c-39.3-12.8-93.1-12.8-132.4,0c-0.7,0.2-1.3,0.5-1.9,0.9
	c-30.3,10.6-47.6,27.8-47.6,47.2c0,15.4,11.2,29.6,31.6,40.1c2.7,1.4,5.9,1.5,8.7,0.4c2.8-1.1,5-3.4,6-6.3c2.2-6.2,5.5-12.5,10-18.6
	c29.3-13.1,89.6-13.1,118.8,0c4.4,6.1,7.8,12.4,10,18.6c1,2.9,3.2,5.2,6,6.3c1.3,0.5,2.6,0.8,3.9,0.8c1.6,0,3.3-0.4,4.8-1.2
	c20.4-10.4,31.6-24.7,31.6-40.1C372.2,106.5,354.9,89.4,324.7,78.8z"/>
<path class="st3" d="M345.7,153.2c-3.1-9-8.1-17.9-14.6-26.5c-1-1.3-2.3-2.3-3.7-3.1c-17.4-8.6-43.3-13.5-70.9-13.5
	c-27.6,0-53.5,4.9-70.9,13.5c-1.5,0.7-2.7,1.7-3.7,3c-6.5,8.6-11.4,17.5-14.5,26.3c-3.6,9.9-5.5,20.3-5.5,30.8
	c0,33.1,16.8,63.1,44.6,80.2c14.8,9.5,32.1,14.5,50.1,14.5c18,0,35.3-5,49.9-14.4c28-17.2,44.8-47.2,44.8-80.3
	C351.2,173.4,349.3,163,345.7,153.2z"/>
<path class="st4" d="M256.5,247c-4.5,0-8.5-2.9-10-7.2L236,208.2c-1.8-5.5,1.2-11.5,6.6-13.3c5.6-1.9,11.5,1.2,13.3,6.6l0.5,1.6
	l0.5-1.6c1.9-5.5,7.8-8.5,13.3-6.7c5.5,1.9,8.5,7.8,6.6,13.3l-10.5,31.6C265,244.1,261,247,256.5,247z"/>
<path class="st5" d="M256.5,510c-75.4,0-136.8-61.4-136.8-136.8c0-56.6,35.7-108,88.8-127.9c5.4-2.1,11.5,0.7,13.6,6.1
	c2.1,5.5-0.7,11.5-6.1,13.6c-44.9,16.9-75.1,60.4-75.1,108.2c0,63.8,51.9,115.7,115.7,115.7c63.8,0,115.7-51.9,115.7-115.7
	c0-47.9-30.2-91.4-75.1-108.3c-5.4-2-8.2-8.1-6.1-13.6c2-5.5,8.1-8.3,13.6-6.1c53.1,19.9,88.7,71.4,88.7,128
	C393.3,448.6,331.9,510,256.5,510z"/>
<path class="st5" d="M267,331.1c0,5.8-4.7,10.5-10.5,10.5S246,337,246,331.1s4.7-10.5,10.5-10.5S267,325.3,267,331.1z"/>
<path class="st5" d="M267,373.2c0,5.8-4.7,10.5-10.5,10.5S246,379,246,373.2s4.7-10.5,10.5-10.5S267,367.4,267,373.2z"/>
<path class="st5" d="M267,415.3c0,5.8-4.7,10.5-10.5,10.5s-10.5-4.7-10.5-10.5s4.7-10.5,10.5-10.5S267,409.5,267,415.3z"/>
<path class="st5" d="M172.3,341.7c-2.2,0-4.4-0.7-6.3-2.1l-81.4-61H25c-5.8,0-10.5-4.7-10.5-10.5c0-5.8,4.7-10.5,10.5-10.5h63.1
	c2.3,0,4.5,0.7,6.3,2.1l84.2,63.1c4.7,3.5,5.6,10.1,2.1,14.7C178.7,340.2,175.5,341.7,172.3,341.7z"/>
<path class="st5" d="M88.2,278.5c-2.7,0-5.4-1-7.5-3.1l-42.1-42.1c-4.1-4.1-4.1-10.8,0-14.9s10.8-4.1,14.9,0l42.1,42.1
	c4.1,4.1,4.1,10.8,0,14.9C93.5,277.5,90.9,278.5,88.2,278.5z"/>
<path class="st5" d="M340.7,341.7c-3.2,0-6.4-1.4-8.4-4.2c-3.5-4.7-2.5-11.2,2.1-14.7l84.2-63.1c1.8-1.3,4-2.1,6.3-2.1H488
	c5.8,0,10.5,4.7,10.5,10.5c0,5.8-4.7,10.5-10.5,10.5h-59.6l-81.4,61C345.1,341,342.8,341.7,340.7,341.7z"/>
<path class="st5" d="M424.8,278.5c-2.7,0-5.4-1-7.4-3.1c-4.1-4.1-4.1-10.8,0-14.9l42.1-42.1c4.1-4.1,10.8-4.1,14.9,0
	c4.1,4.1,4.1,10.8,0,14.9l-42.1,42.1C430.2,277.5,427.5,278.5,424.8,278.5z"/>
<path class="st5" d="M335.8,167.3c-3.8,0-7.5-2.1-9.3-5.7c-2.7-5.2-0.7-11.5,4.5-14.2c12.8-6.7,20.2-14.5,20.2-21.4
	c0-17.4-40.5-36.8-94.7-36.8s-94.7,19.4-94.7,36.8c0,6.9,7.4,14.7,20.2,21.5c5.2,2.7,7.2,9,4.5,14.2c-2.7,5.2-9.1,7.1-14.2,4.5
	c-26.1-13.6-31.6-29.3-31.6-40.1c0-33,49.7-57.9,115.7-57.9c66,0,115.7,24.9,115.7,57.9c0,10.8-5.5,26.6-31.6,40.1
	C339.1,166.9,337.5,167.3,335.8,167.3z"/>
<path class="st5" d="M193.6,98.6c-0.6,0-1.2,0-1.7-0.2c-5.7-0.9-9.6-6.4-8.6-12.1l8.5-50.8c2-11.8,10.1-21.3,21.1-24.7
	C224.9,7,239.6,5,256.5,5c18,0,33.4,3.5,43.1,6.4c11.5,3.5,19.9,13.1,21.9,25l8.3,49.9c1,5.7-2.9,11.1-8.6,12.1
	c-5.6,1-11.1-2.9-12.1-8.6l-8.3-49.9c-0.7-4-3.4-7.2-7.2-8.3c-8.4-2.5-21.6-5.5-37-5.5c-18.3,0-30.5,2.6-37.5,4.8
	c-3.4,1.1-6,4.2-6.7,8.1l-8.5,50.8C203.1,94.9,198.6,98.6,193.6,98.6z"/>
<path class="st5" d="M256.5,278.5c-52.2,0-94.7-42.5-94.7-94.7c0-20.4,6.9-40.2,20-57.2c1-1.3,2.3-2.3,3.8-3.1
	c35.2-17,106.7-17,141.9,0c1.5,0.7,2.8,1.8,3.8,3.1c13.1,17,20,36.8,20,57.2C351.2,236.1,308.7,278.5,256.5,278.5z M197,141.5
	c-9.3,12.8-14.1,27.4-14.1,42.4c0,40.6,33,73.6,73.6,73.6c40.6,0,73.6-33,73.6-73.6c0-15-4.9-29.5-14.1-42.4
	C286.7,128.6,226.3,128.6,197,141.5z"/>
<path d="M246,162.8c0,5.8-4.7,10.5-10.5,10.5s-10.5-4.7-10.5-10.5s4.7-10.5,10.5-10.5S246,157,246,162.8z"/>
<path class="st6" d="M288.1,162.8c0,5.8-4.7,10.5-10.5,10.5s-10.5-4.7-10.5-10.5s4.7-10.5,10.5-10.5S288.1,157,288.1,162.8z"/>
<path d="M256.5,247c-4.5,0-8.5-2.9-10-7.2L236,208.2c-1.8-5.5,1.2-11.5,6.6-13.3c5.5-1.8,11.5,1.2,13.3,6.6l0.5,1.6l0.5-1.6
	c1.9-5.5,7.8-8.5,13.3-6.7c5.5,1.9,8.5,7.8,6.6,13.3l-10.5,31.6C265,244.1,261,247,256.5,247z"/>
</svg>
