<svg id="_x31__x2C_5" height="512" viewBox="0 0 24 24" width="512" xmlns="http://www.w3.org/2000/svg"><path d="m17.255 18.25h-10.51c-1.102 0-1.995-.893-1.995-1.995v-6.51c0-1.102.893-1.995 1.995-1.995h10.51c1.102 0 1.995.893 1.995 1.995v6.51c0 1.102-.893 1.995-1.995 1.995z" fill="#cfd8dc"/><g fill="#607d8b"><path d="m15.25 15.25h-6.5c-.552 0-1-.448-1-1v-2.5c0-.552.448-1 1-1h6.5c.552 0 1 .448 1 1v2.5c0 .552-.448 1-1 1z"/><path d="m22.294 20.301c.553-.182.956-.707.956-1.333 0-.709-.515-1.289-1.182-1.386.164-.281.265-.606.265-.957 0-1.036-.821-1.875-1.833-1.875-1.013 0-1.833.839-1.833 1.875 0 .442.156.843.407 1.164-.78.374-1.323 1.178-1.323 2.117 0 1.294 1.026 2.344 2.292 2.344 1.132 0 2.067-.843 2.251-1.949z"/><path d="m1.168 8.598c-.262-.516-.186-1.161.243-1.593.485-.489 1.242-.526 1.774-.123.077-.31.229-.605.469-.847.708-.714 1.856-.714 2.564 0s.708 1.872 0 2.586c-.302.305-.686.472-1.08.516.29.808.12 1.746-.522 2.393-.885.893-2.32.893-3.206 0-.792-.799-.869-2.04-.242-2.932z"/><circle cx="19" cy="3" r="1.25"/></g><path d="m19.25 15.52c-.414 0-.75-.336-.75-.75v-5.02c0-.689-.561-1.25-1.25-1.25h-10.16c-.414 0-.75-.336-.75-.75s.336-.75.75-.75h10.16c1.516 0 2.75 1.234 2.75 2.75v5.02c0 .414-.336.75-.75.75z"/><path d="m18.01 19h-11.26c-1.516 0-2.75-1.233-2.75-2.75v-4.26c0-.414.336-.75.75-.75s.75.336.75.75v4.26c0 .689.561 1.25 1.25 1.25h11.26c.414 0 .75.336.75.75s-.336.75-.75.75z"/><path d="m15.25 16h-6.5c-.965 0-1.75-.785-1.75-1.75v-2.5c0-.965.785-1.75 1.75-1.75h6.5c.965 0 1.75.785 1.75 1.75v2.5c0 .965-.785 1.75-1.75 1.75zm-6.5-4.5c-.138 0-.25.112-.25.25v2.5c0 .138.112.25.25.25h6.5c.138 0 .25-.112.25-.25v-2.5c0-.138-.112-.25-.25-.25z"/><path d="m20.042 23c-1.678 0-3.042-1.388-3.042-3.094 0-.917.409-1.779 1.084-2.359-.111-.293-.168-.604-.168-.922 0-1.447 1.159-2.625 2.583-2.625s2.583 1.178 2.583 2.625c0 .181-.02.361-.057.539.59.388.975 1.061.975 1.805 0 .779-.412 1.48-1.061 1.86-.389 1.279-1.55 2.171-2.897 2.171zm.458-7.5c-.598 0-1.083.505-1.083 1.125 0 .318.135.558.248.702.14.179.191.412.14.633-.052.222-.201.407-.406.505-.545.262-.897.827-.897 1.441 0 .879.691 1.594 1.542 1.594.749 0 1.385-.556 1.513-1.322.046-.274.24-.501.504-.588s.441-.337.441-.621c0-.322-.232-.6-.541-.645-.247-.036-.459-.192-.567-.418-.108-.225-.097-.488.029-.704.107-.183.162-.377.162-.577-.002-.62-.487-1.125-1.085-1.125z"/><path d="m3.013 12.95c-.807 0-1.565-.316-2.135-.891-.939-.947-1.14-2.378-.539-3.538-.194-.721.001-1.501.539-2.044.514-.518 1.244-.714 1.924-.573.093-.143.2-.276.32-.397.484-.488 1.129-.757 1.815-.757.686 0 1.33.269 1.814.758.996 1.003.996 2.637 0 3.642-.216.217-.464.391-.738.516.071.875-.235 1.759-.864 2.393-.57.575-1.329.891-2.136.891zm-.647-5.595c-.154 0-.306.06-.423.178-.188.189-.23.48-.106.725.125.248.103.544-.056.771-.432.614-.363 1.444.162 1.974.572.576 1.568.576 2.14 0 .414-.417.551-1.05.349-1.612-.077-.216-.051-.455.07-.65.122-.195.325-.323.553-.349.172-.02.421-.087.632-.299.418-.422.418-1.108 0-1.529-.201-.203-.467-.314-.75-.314-.283 0-.549.111-.75.314-.133.133-.225.301-.274.5-.061.245-.24.442-.478.526-.237.083-.502.043-.703-.11-.11-.083-.238-.125-.366-.125z"/><path d="m19 5c-1.103 0-2-.897-2-2s.897-2 2-2 2 .897 2 2-.897 2-2 2zm0-2.5c-.276 0-.5.224-.5.5s.224.5.5.5.5-.224.5-.5-.224-.5-.5-.5z"/></svg>