<svg id="Regular" height="512" viewBox="0 0 24 24" width="512" xmlns="http://www.w3.org/2000/svg"><path d="m15.397 1.75h-6.794c-2.68 0-4.853 2.099-4.853 4.688v10.812h16.5v-10.812c0-2.589-2.173-4.688-4.853-4.688z" fill="#ffc107"/><path d="m21 9.75c-1.243 0-2.25 1.049-2.25 2.344v3.635l-.259-.409c-.617-.977-1.692-1.57-2.848-1.57h-7.34c-1.126 0-2.178.563-2.803 1.5l-.25.376v-3.532c0-1.295-1.007-2.344-2.25-2.344s-2.25 1.049-2.25 2.344v.235c0 .738.333 1.432.9 1.875s.9 1.137.9 1.875v1.172h18.9v-1.172c0-.738.333-1.432.9-1.875s.9-1.137.9-1.875v-.235c0-1.295-1.007-2.344-2.25-2.344z" fill="#ffa000"/><path d="m20.5 20.25h-17c-.552 0-1-.448-1-1v-2h19v2c0 .552-.448 1-1 1z" fill="#ffc107"/><path d="m3.5 22.159c0 .603.448 1.091 1 1.091s1-.488 1-1.091v-1.909h-2z" fill="#ffa000"/><path d="m18.5 20.25v1.909c0 .603.448 1.091 1 1.091s1-.488 1-1.091v-1.909z" fill="#ffa000"/><path d="m20.25 10.25c-.414 0-.75-.336-.75-.75v-3.062c0-2.171-1.841-3.938-4.103-3.938h-6.794c-2.262 0-4.103 1.767-4.103 3.938v3.062c0 .414-.336.75-.75.75s-.75-.336-.75-.75v-3.062c0-2.999 2.514-5.438 5.603-5.438h6.795c3.088 0 5.602 2.439 5.602 5.438v3.062c0 .414-.336.75-.75.75z"/><path d="m5.25 18c-.414 0-.75-.336-.75-.75v-5.156c0-.879-.673-1.594-1.5-1.594s-1.5.715-1.5 1.594v.234c0 .505.229.985.611 1.284.744.582 1.189 1.503 1.189 2.466v1.172c0 .414-.336.75-.75.75s-.75-.336-.75-.75v-1.172c0-.505-.229-.985-.611-1.284-.745-.58-1.189-1.502-1.189-2.466v-.234c0-1.706 1.346-3.094 3-3.094s3 1.388 3 3.094v5.156c0 .414-.336.75-.75.75z"/><path d="m21.45 18c-.414 0-.75-.336-.75-.75v-1.172c0-.963.444-1.884 1.188-2.466.384-.299.612-.779.612-1.284v-.234c0-.879-.673-1.594-1.5-1.594s-1.5.715-1.5 1.594v5.156c0 .414-.336.75-.75.75s-.75-.336-.75-.75v-5.156c0-1.706 1.346-3.094 3-3.094s3 1.388 3 3.094v.234c0 .964-.444 1.886-1.189 2.466-.382.299-.61.779-.61 1.284v1.172c-.001.414-.337.75-.751.75z"/><path d="m18.491 16.079c-.243 0-.48-.119-.622-.339-.495-.783-1.322-1.239-2.226-1.239h-7.34c-.877 0-1.691.436-2.179 1.166-.23.345-.695.438-1.04.208s-.438-.696-.208-1.04c.766-1.149 2.047-1.835 3.427-1.835h7.341c1.421 0 2.723.717 3.481 1.919.221.349.122.818-.227 1.04-.127.081-.267.12-.407.12z"/><path d="m20.5 21h-17c-.965 0-1.75-.785-1.75-1.75v-2c0-.414.336-.75.75-.75h19c.414 0 .75.336.75.75v2c0 .965-.785 1.75-1.75 1.75zm-17.25-3v1.25c0 .138.112.25.25.25h17c.138 0 .25-.112.25-.25v-1.25z"/><path d="m4.5 24c-.965 0-1.75-.826-1.75-1.841v-1.909c0-.414.336-.75.75-.75s.75.336.75.75v1.909c0 .185.114.341.25.341s.25-.156.25-.341v-1.909c0-.414.336-.75.75-.75s.75.336.75.75v1.909c0 1.015-.785 1.841-1.75 1.841z"/><path d="m19.5 24c-.965 0-1.75-.826-1.75-1.841v-1.909c0-.414.336-.75.75-.75s.75.336.75.75v1.909c0 .185.114.341.25.341s.25-.156.25-.341v-1.909c0-.414.336-.75.75-.75s.75.336.75.75v1.909c0 1.015-.785 1.841-1.75 1.841z"/><path d="m9.5 8.25c-.192 0-.384-.073-.53-.22l-1.75-1.75c-.293-.293-.293-.768 0-1.061s.768-.293 1.061 0l1.75 1.75c.293.293.293.768 0 1.061-.147.147-.339.22-.531.22z"/><path d="m7.75 8.25c-.192 0-.384-.073-.53-.22-.293-.293-.293-.768 0-1.061l1.75-1.75c.293-.293.768-.293 1.061 0s.293.768 0 1.061l-1.751 1.75c-.146.147-.338.22-.53.22z"/><path d="m16.25 8.25c-.192 0-.384-.073-.53-.22l-1.75-1.75c-.293-.293-.293-.768 0-1.061s.768-.293 1.061 0l1.75 1.75c.293.293.293.768 0 1.061-.147.147-.339.22-.531.22z"/><path d="m14.5 8.25c-.192 0-.384-.073-.53-.22-.293-.293-.293-.768 0-1.061l1.75-1.75c.293-.293.768-.293 1.061 0s.293.768 0 1.061l-1.75 1.75c-.147.147-.339.22-.531.22z"/></svg>