<svg id="_x31__x2C_5" height="512" viewBox="0 0 24 24" width="512" xmlns="http://www.w3.org/2000/svg"><path d="m5.25 2.75-4.5 18.5h3.5l.71-3h4.79z" fill="#90a4ae"/><path d="m17.75 2.75h-12.5l5.5 18.5h3.5l-.87-3h5.5l.87 3h3.5z" fill="#607d8b"/><path d="m4.25 22h-3.5c-.23 0-.447-.105-.59-.287-.142-.181-.193-.417-.139-.641l4.5-18.5c.098-.402.505-.65.906-.551.403.098.649.504.552.906l-4.275 17.573h1.953l.573-2.423c.081-.338.382-.577.73-.577h4.79c.414 0 .75.336.75.75s-.336.75-.75.75h-4.197l-.573 2.423c-.081.338-.382.577-.73.577z"/><path d="m23.25 22h-3.5c-.334 0-.627-.221-.721-.541l-.713-2.459h-3.938l.593 2.041c.065.227.021.471-.121.66-.142.188-.364.299-.6.299h-3.5c-.332 0-.624-.218-.719-.536l-5.5-18.5c-.067-.227-.024-.473.117-.662.142-.19.366-.302.602-.302h12.5c.332 0 .624.218.719.536l5.5 18.5c.067.227.024.473-.117.662-.142.19-.366.302-.602.302zm-2.937-1.5h1.931l-5.054-17h-10.934l5.054 17h1.942l-.593-2.041c-.065-.227-.021-.471.121-.66.142-.188.363-.299.6-.299h5.5c.334 0 .627.221.721.541z"/></svg>