<?xml version="1.0" encoding="iso-8859-1"?>
<!-- Generator: Adobe Illustrator 19.0.0, SVG Export Plug-In . SVG Version: 6.00 Build 0)  -->
<svg version="1.1" id="Capa_1" xmlns="http://www.w3.org/2000/svg" xmlns:xlink="http://www.w3.org/1999/xlink" x="0px" y="0px"
	 viewBox="0 0 512 512" style="enable-background:new 0 0 512 512;" xml:space="preserve">
<path style="fill:#607D8B;" d="M164.608,234.912l-21.44-64c-2.811-8.36-11.857-12.868-20.224-10.08l-48,16
	C68.413,179.007,64.005,185.116,64,192v256c-0.009,6.896,4.402,13.021,10.944,15.2l48,16c1.633,0.528,3.339,0.798,5.056,0.8
	c6.875-0.001,12.982-4.394,15.168-10.912l21.44-64c0.546-1.641,0.827-3.359,0.832-5.088V240
	C165.435,238.27,165.154,236.553,164.608,234.912z"/>
<path style="fill:#546E7A;" d="M398.304,232.832l-32-64C363.591,163.418,358.055,160,352,160h-96
	c-6.055,0-11.591,3.419-14.304,8.832l-32,64c-3.959,7.9-0.764,17.514,7.137,21.473c2.225,1.115,4.679,1.695,7.167,1.695h160
	c8.837,0,16-7.164,15.999-16.001C399.999,237.511,399.419,235.057,398.304,232.832z"/>
<path style="fill:#455A64;" d="M416,224H112c-3.742,0.002-7.366,1.315-10.24,3.712l-96,80c-6.786,5.659-7.7,15.749-2.041,22.535
	c0.617,0.74,1.3,1.423,2.041,2.041l96,80c2.874,2.397,6.498,3.71,10.24,3.712h304c53.019,0,96-42.981,96-96S469.019,224,416,224z"/>
<path d="M416,416H112c-3.742-0.002-7.366-1.315-10.24-3.712l-96-80c-6.786-5.659-7.7-15.749-2.041-22.535
	c0.617-0.74,1.3-1.423,2.041-2.041l96-80c2.874-2.397,6.498-3.71,10.24-3.712h304c53.019,0,96,42.981,96,96S469.019,416,416,416z
	 M117.792,384H416c35.346,0,64-28.654,64-64s-28.654-64-64-64H117.792l-76.8,64L117.792,384z"/>
<path d="M16,400c-8.837,0-16-7.163-16-16V256c0-8.837,7.163-16,16-16s16,7.163,16,16v128C32,392.836,24.837,400,16,400z"/>
<path d="M128,480c-1.717-0.002-3.423-0.272-5.056-0.8l-48-16C68.402,461.021,63.991,454.895,64,448v-74.56c0-8.837,7.163-16,16-16
	s16,7.163,16,16v63.04l21.92,7.296l16.48-48.864c2.7-8.414,11.71-13.046,20.124-10.346c8.414,2.7,13.046,11.71,10.346,20.124
	c-0.043,0.133-0.087,0.266-0.134,0.398l-21.44,64C141.095,475.651,134.922,480.054,128,480z"/>
<path d="M80,282.56c-8.837,0-16-7.163-16-16V192c-0.009-6.896,4.402-13.021,10.944-15.2l48-16
	c8.377-2.785,17.426,1.739,20.224,10.112l21.44,64c2.92,8.34-1.474,17.468-9.814,20.388c-8.34,2.92-17.468-1.474-20.388-9.814
	c-0.046-0.132-0.091-0.265-0.134-0.398l-16.352-48.864L96,203.52v63.04C96,275.396,88.837,282.56,80,282.56z"/>
<path d="M384,256c-6.055,0-11.591-3.419-14.304-8.832L342.112,192h-76.224l-27.584,55.168c-4.02,7.869-13.658,10.99-21.527,6.97
	c-7.783-3.976-10.936-13.462-7.081-21.306l32-64C244.409,163.418,249.945,160,256,160h96c6.055,0,11.591,3.419,14.304,8.832l32,64
	c3.959,7.9,0.764,17.514-7.137,21.473C388.943,255.419,386.488,256,384,256z"/>
<path d="M304,192c-8.837,0-16-7.163-16-16V80c0-26.51,21.49-48,48-48h32c8.837,0,16,7.163,16,16s-7.163,16-16,16h-32
	c-8.837,0-16,7.163-16,16v96C320,184.836,312.837,192,304,192z"/>
<g>
	<path style="fill:#FAFAFA;" d="M400.64,336c-8.837,0-16-7.163-16-16c0-8.774,7.066-15.912,15.84-16h0.32c8.837,0,16,7.163,16,16
		s-7.163,16-16,16H400.64z"/>
	<path style="fill:#FAFAFA;" d="M336.64,336c-8.837,0-16-7.163-16-16c0-8.774,7.066-15.912,15.84-16h0.32c8.837,0,16,7.163,16,16
		s-7.163,16-16,16H336.64z"/>
	<path style="fill:#FAFAFA;" d="M272.64,336c-8.837,0-16-7.163-16-16c0-8.774,7.066-15.912,15.84-16h0.32c8.837,0,16,7.163,16,16
		s-7.163,16-16,16H272.64z"/>
</g>
<g>
</g>
<g>
</g>
<g>
</g>
<g>
</g>
<g>
</g>
<g>
</g>
<g>
</g>
<g>
</g>
<g>
</g>
<g>
</g>
<g>
</g>
<g>
</g>
<g>
</g>
<g>
</g>
<g>
</g>
</svg>
