<?xml version="1.0" encoding="iso-8859-1"?>
<!-- Generator: Adobe Illustrator 19.0.0, SVG Export Plug-In . SVG Version: 6.00 Build 0)  -->
<svg version="1.1" id="Capa_1" xmlns="http://www.w3.org/2000/svg" xmlns:xlink="http://www.w3.org/1999/xlink" x="0px" y="0px"
	 viewBox="0 0 512.054 512.054" style="enable-background:new 0 0 512.054 512.054;" xml:space="preserve">
<g>
	<path style="fill:#CFD8DC;" d="M508.544,230.075L364.8,49.275l-4.8-6.4c-5.189-7.152-15.194-8.743-22.347-3.554
		c-4.78,3.468-7.261,9.288-6.453,15.138l20.8,170.88c0.356,2.936,1.519,5.717,3.36,8.032l7.68,9.6
		c33.025,41.839,93.714,48.984,135.552,15.959c2.96-2.337,5.781-4.845,8.448-7.511C512.924,245.735,513.573,236.528,508.544,230.075
		z"/>
	<path style="fill:#CFD8DC;" d="M192,290.779c-0.381-2.978-1.602-5.786-3.52-8.096l-96-116.8c-3.063-3.736-7.649-5.888-12.48-5.856
		H16c-8.837,0-16,7.163-16,16v64c0.006,3.702,1.295,7.286,3.648,10.144l181.76,221.152c3.04,3.689,7.571,5.826,12.352,5.824
		c2.199-0.008,4.375-0.454,6.4-1.312c6.582-2.805,10.502-9.638,9.6-16.736L192,290.779z"/>
</g>
<path style="fill:#F44336;" d="M272,0.027L272,0.027c44.183,0,80,35.817,80,80v352c0,44.183-35.817,80-80,80l0,0
	c-44.183,0-80-35.817-80-80v-352C192,35.844,227.817,0.027,272,0.027z"/>
<path style="fill:#FAFAFA;" d="M272,128.027c-17.673,0-32-14.327-32-32s14.327-32,32-32s32,14.327,32,32
	S289.673,128.027,272,128.027z"/>
<path d="M272,512.027c-61.856,0-112-50.144-112-112v-288C160.034,50.171,210.206,0.054,272.062,0.088
	c34.182,0.019,66.483,15.646,87.714,42.434C375.543,62.249,384.09,86.774,384,112.027v288C384,461.883,333.856,512.027,272,512.027z
	 M272,32.027c-44.183,0-80,35.817-80,80v288c0,44.183,35.817,80,80,80s80-35.817,80-80v-288C352,67.844,316.183,32.027,272,32.027z"
	/>
<path d="M439.04,279.707c-29.603,0.049-57.583-13.522-75.872-36.8l-7.68-9.6c-5.523-6.91-4.398-16.989,2.512-22.512
	s16.989-4.398,22.512,2.512l7.68,9.6c20.858,25.483,57.295,31.72,85.44,14.624L334.4,62.139c-5.302-7.069-3.869-17.098,3.2-22.4
	s17.098-3.869,22.4,3.2l4.8,6.4l143.776,180.8c5.066,6.37,4.543,15.528-1.216,21.28C489.277,269.592,464.677,279.778,439.04,279.707
	z"/>
<path d="M197.76,477.147c-4.792,0.011-9.336-2.126-12.384-5.824L3.616,250.171c-2.341-2.862-3.619-6.446-3.616-10.144v-64
	c0-8.837,7.163-16,16-16h64c4.797-0.003,9.343,2.146,12.384,5.856l96,116.8c5.602,6.84,4.599,16.926-2.24,22.528
	c-6.839,5.602-16.926,4.599-22.528-2.24L72.448,192.027H32v42.272l178.112,216.704c5.602,6.834,4.604,16.915-2.229,22.517
	C205.028,475.861,201.452,477.142,197.76,477.147L197.76,477.147z"/>
<path d="M272,432.027c-8.837,0-16-7.163-16-16v-96c0-8.837,7.163-16,16-16s16,7.163,16,16v96
	C288,424.863,280.837,432.027,272,432.027z"/>
<path d="M320,384.027h-96c-8.837,0-16-7.163-16-16s7.163-16,16-16h96c8.837,0,16,7.163,16,16S328.837,384.027,320,384.027z"/>
<path d="M272,160.027c-26.51,0-48-21.49-48-48s21.49-48,48-48s48,21.49,48,48S298.51,160.027,272,160.027z M272,96.027
	c-8.837,0-16,7.163-16,16s7.163,16,16,16s16-7.163,16-16S280.837,96.027,272,96.027z"/>
<g>
</g>
<g>
</g>
<g>
</g>
<g>
</g>
<g>
</g>
<g>
</g>
<g>
</g>
<g>
</g>
<g>
</g>
<g>
</g>
<g>
</g>
<g>
</g>
<g>
</g>
<g>
</g>
<g>
</g>
</svg>
