<svg enable-background="new 0 0 24 24" height="512" viewBox="0 0 24 24" width="512" xmlns="http://www.w3.org/2000/svg"><circle cx="8.75" cy="4.852" fill="#4caf50" r="4.148"/><path d="m19.5 13v6c0 2.76-2.24 5-5 5h-4.79c-2.36 0-6.22-1.75-6.21-7.05 0-1.62 1.45-2.92 3-2.95h.05c.64 0 .95.5.95.5v-9c0-.83.67-1.5 1.5-1.5.39 0 .74.15 1 .39.31.27.5.67.5 1.11v5.5c0-.44.19-.84.5-1.11.26-.24.61-.39 1-.39s.74.15 1 .39c.31.27.5.67.5 1.11v1c0-.44.19-.84.5-1.11.26-.24.61-.39 1-.39s.74.15 1 .39c.31.27.5.67.5 1.11v1c0-.44.19-.84.5-1.11.26-.24.61-.39 1-.39.83 0 1.5.67 1.5 1.5z" fill="#ffcc80"/><path d="m7.25 17c-.414 0-.75-.336-.75-.75v-11c0-1.24 1.01-2.25 2.25-2.25s2.25 1.01 2.25 2.25v10c0 .414-.336.75-.75.75s-.75-.336-.75-.75v-10c0-.413-.337-.75-.75-.75s-.75.337-.75.75v11c0 .414-.336.75-.75.75z"/><path d="m13.25 16c-.414 0-.75-.336-.75-.75v-4c0-.413-.337-.75-.75-.75s-.75.337-.75.75v1c0 .414-.336.75-.75.75s-.75-.336-.75-.75v-1c0-1.24 1.01-2.25 2.25-2.25s2.25 1.01 2.25 2.25v4c0 .414-.336.75-.75.75z"/><path d="m16.25 16c-.414 0-.75-.336-.75-.75v-3c0-.413-.337-.75-.75-.75s-.75.337-.75.75v.75c0 .414-.336.75-.75.75s-.75-.336-.75-.75v-.75c0-1.24 1.01-2.25 2.25-2.25s2.25 1.01 2.25 2.25v3c0 .414-.336.75-.75.75z"/><path d="m15.25 24h-5.537c-3.236 0-6.699-1.905-6.712-7.254-.003-1.076.411-2.086 1.166-2.843.742-.744 1.728-1.153 2.775-1.153h.308c.414 0 .75.336.75.75s-.336.75-.75.75h-.308c-.646 0-1.255.253-1.713.712-.472.474-.73 1.105-.729 1.78.014 5.343 3.993 5.758 5.213 5.758h5.537c1.792 0 3.25-1.458 3.25-3.25v-6c0-.413-.337-.75-.75-.75s-.75.337-.75.75v.75c0 .414-.336.75-.75.75s-.75-.336-.75-.75v-.75c0-1.24 1.01-2.25 2.25-2.25s2.25 1.01 2.25 2.25v6c0 2.619-2.131 4.75-4.75 4.75z"/><path d="m13 5.703c-.414 0-.75-.336-.75-.75 0-1.93-1.57-3.5-3.5-3.5s-3.5 1.57-3.5 3.5c0 .414-.336.75-.75.75s-.75-.336-.75-.75c0-2.757 2.243-5 5-5s5 2.243 5 5c0 .414-.336.75-.75.75z"/></svg>