<?xml version="1.0" encoding="iso-8859-1"?>
<!-- Generator: Adobe Illustrator 19.0.0, SVG Export Plug-In . SVG Version: 6.00 Build 0)  -->
<svg version="1.1" id="Capa_1" xmlns="http://www.w3.org/2000/svg" xmlns:xlink="http://www.w3.org/1999/xlink" x="0px" y="0px"
	 viewBox="0 0 512.427 512.427" style="enable-background:new 0 0 512.427 512.427;" xml:space="preserve">
<circle style="fill:#FAFAFA;" cx="224.398" cy="288.228" r="208"/>
<path style="fill:#F44336;" d="M224.398,336.228c-26.51,0-48-21.49-48-48s21.49-48,48-48s48,21.49,48,48
	S250.908,336.228,224.398,336.228z M224.398,272.228c-8.837,0-16,7.163-16,16s7.163,16,16,16s16-7.163,16-16
	S233.235,272.228,224.398,272.228z"/>
<path style="fill:#455A64;" d="M224.398,304.228c-8.837,0.016-16.013-7.135-16.029-15.971c-0.008-4.26,1.684-8.348,4.701-11.357
	l176-176c6.139-6.356,16.268-6.532,22.624-0.393c6.356,6.139,6.532,16.268,0.393,22.624c-0.129,0.133-0.26,0.265-0.393,0.393
	l-176,176C232.701,302.526,228.638,304.218,224.398,304.228z"/>
<path style="fill:#FFC107;" d="M511.182,58.116c-2.473-5.984-8.309-9.887-14.784-9.888h-32v-32
	c0.016-8.837-7.135-16.013-15.971-16.029c-4.26-0.008-8.348,1.684-11.357,4.701l-48,48c-2.999,3.006-4.68,7.082-4.672,11.328v48
	c0,8.837,7.163,16,16,16h48c4.246,0.008,8.322-1.673,11.328-4.672l48-48C512.299,70.976,513.663,64.093,511.182,58.116z"/>
<path d="M224.398,512.228C100.687,512.447,0.22,412.338,0,288.626S99.89,64.448,223.602,64.228
	c35.77-0.064,71.035,8.44,102.844,24.799c7.856,4.056,10.936,13.712,6.88,21.568s-13.712,10.936-21.568,6.88
	c-94.621-48.565-210.697-11.229-259.262,83.392S41.267,411.564,135.888,460.13s210.697,11.229,259.262-83.392
	c28.332-55.2,28.332-120.67,0-175.87c-4.056-7.856-0.976-17.512,6.88-21.568c7.856-4.056,17.512-0.976,21.568,6.88
	c56.536,109.839,13.326,244.712-96.512,301.249C295.328,503.775,260.116,512.279,224.398,512.228z"/>
<path d="M224.398,352.228c-35.346,0-64-28.654-64-64s28.654-64,64-64s64,28.654,64,64S259.744,352.228,224.398,352.228z
	 M224.398,256.228c-17.673,0-32,14.327-32,32s14.327,32,32,32s32-14.327,32-32S242.071,256.228,224.398,256.228z"/>
<path d="M224.398,304.228c-8.837,0.016-16.013-7.135-16.029-15.971c-0.008-4.26,1.684-8.348,4.701-11.357l171.328-171.296V64.228
	c-0.008-4.246,1.673-8.322,4.672-11.328l48-48c6.24-6.256,16.371-6.269,22.627-0.029c3.016,3.009,4.708,7.096,4.701,11.357v32h32
	c8.837-0.016,16.013,7.135,16.029,15.971c0.008,4.26-1.684,8.348-4.701,11.357l-48,48c-3.006,2.999-7.082,4.68-11.328,4.672h-41.376
	L235.726,299.556C232.72,302.554,228.645,304.235,224.398,304.228z M416.398,96.228h25.376l16-16h-9.376c-8.837,0-16-7.163-16-16
	v-9.376l-16,16V96.228z"/>
<path d="M224.398,432.228c-79.529,0-144-64.471-144-144s64.471-144,144-144c12.658,0.002,25.26,1.692,37.472,5.024
	c8.501,2.413,13.436,11.26,11.024,19.761c-2.374,8.364-10.992,13.301-19.408,11.119c-9.48-2.586-19.262-3.898-29.088-3.904
	c-61.856,0-112,50.144-112,112s50.144,112,112,112s112-50.144,112-112c-0.006-9.826-1.318-19.608-3.904-29.088
	c-2.218-8.554,2.919-17.286,11.472-19.503c8.416-2.182,17.034,2.756,19.408,11.119c3.332,12.212,5.022,24.814,5.024,37.472
	C368.398,367.757,303.927,432.228,224.398,432.228z"/>
<g>
</g>
<g>
</g>
<g>
</g>
<g>
</g>
<g>
</g>
<g>
</g>
<g>
</g>
<g>
</g>
<g>
</g>
<g>
</g>
<g>
</g>
<g>
</g>
<g>
</g>
<g>
</g>
<g>
</g>
</svg>
