<?xml version="1.0" encoding="iso-8859-1"?>
<!-- Generator: Adobe Illustrator 19.0.0, SVG Export Plug-In . SVG Version: 6.00 Build 0)  -->
<svg version="1.1" id="Capa_1" xmlns="http://www.w3.org/2000/svg" xmlns:xlink="http://www.w3.org/1999/xlink" x="0px" y="0px"
	 viewBox="0 0 512.259 512.259" style="enable-background:new 0 0 512.259 512.259;" xml:space="preserve">
<g>
	<circle style="fill:#455A64;" cx="256.129" cy="64.129" r="64"/>
	<path style="fill:#455A64;" d="M337.473,188.929c-1.642-16.34-15.386-28.784-31.808-28.8h-17.536
		c-4.246-0.008-8.322,1.673-11.328,4.672l-20.672,20.672l-20.672-20.672c-3.006-2.999-7.082-4.68-11.328-4.672h-17.504
		c-16.318-0.11-30.066,12.159-31.808,28.384l-14.688,113.6c-1.114,8.766,5.09,16.775,13.856,17.889
		c0.711,0.09,1.427,0.133,2.144,0.127h17.28l13.376,163.2c1.649,16.413,15.505,28.883,32,28.8h34.848
		c16.596,0.069,30.49-12.561,32-29.088l13.248-162.912h17.248c8.836,0.07,16.057-7.036,16.127-15.872
		c0.006-0.717-0.037-1.433-0.127-2.144L337.473,188.929z"/>
</g>
<g>
	<circle style="fill:#90A4AE;" cx="416.129" cy="64.129" r="64"/>
	<circle style="fill:#90A4AE;" cx="96.129" cy="64.129" r="64"/>
	<path style="fill:#90A4AE;" d="M497.473,188.929c-1.642-16.34-15.386-28.784-31.808-28.8h-17.536
		c-4.246-0.008-8.322,1.673-11.328,4.672l-20.672,20.672l-20.672-20.672c-3.006-2.999-7.082-4.68-11.328-4.672h-5.664
		c3.407,7.364,5.653,15.212,6.656,23.264l14.432,112.608c2.437,18.312-3.19,36.782-15.424,50.624
		c-5.668,6.457-12.607,11.675-20.384,15.328l-2.656,32.288l5.824,57.088c1.649,16.413,15.505,28.883,32,28.8h35.04
		c16.596,0.069,30.49-12.561,32-29.088l12.928-130.912h17.248c8.836,0.07,16.057-7.036,16.127-15.872
		c0.006-0.717-0.037-1.433-0.127-2.144L497.473,188.929z"/>
	<path style="fill:#90A4AE;" d="M148.673,361.921c-24.914-11.845-39.435-38.32-36.032-65.696l14.56-113.696
		c0.89-7.748,2.996-15.308,6.24-22.4h-5.312c-4.246-0.008-8.322,1.673-11.328,4.672l-20.672,20.672l-20.672-20.672
		c-3.006-2.999-7.082-4.68-11.328-4.672H46.625c-16.318-0.11-30.066,12.159-31.808,28.384l-14.688,113.6
		c-1.114,8.766,5.09,16.775,13.856,17.889c0.711,0.09,1.427,0.133,2.144,0.127h17.28l13.376,131.2
		c1.649,16.413,15.505,28.883,32,28.8h34.848c16.596,0.069,30.49-12.561,32-29.088l5.792-56.768L148.673,361.921z"/>
</g>
<path d="M416.129,128.129c-35.346,0-64-28.654-64-64s28.654-64,64-64s64,28.654,64,64S451.476,128.129,416.129,128.129z
	 M416.129,32.129c-17.673,0-32,14.327-32,32s14.327,32,32,32s32-14.327,32-32S433.802,32.129,416.129,32.129z"/>
<path d="M433.665,480.129h-35.2c-16.422-0.016-30.166-12.46-31.808-28.8l-9.6-97.568c-0.948-8.786,5.406-16.676,14.192-17.624
	c0.027-0.003,0.053-0.006,0.08-0.008c8.765-0.784,16.546,5.589,17.504,14.336l9.6,97.6h35.2l14.496-145.536
	c0.825-8.206,7.752-14.441,16-14.4h13.824l-12.256-95.552l-11.168-0.448l-27.168,27.168c-6.248,6.246-16.376,6.246-22.624,0l-32-32
	c-6.139-6.356-5.963-16.485,0.394-22.624c6.2-5.988,16.03-5.988,22.23,0l20.768,20.832l20.672-20.672
	c3.001-3.011,7.077-4.703,11.328-4.704h17.536c16.422,0.016,30.166,12.46,31.808,28.8l14.656,113.184
	c1.114,8.766-5.09,16.775-13.856,17.889c-0.711,0.09-1.427,0.133-2.144,0.127h-17.536l-13.12,131.2
	C463.831,467.669,450.087,480.113,433.665,480.129z"/>
<path d="M96.129,128.129c-35.346,0-64-28.654-64-64s28.654-64,64-64s64,28.654,64,64S131.476,128.129,96.129,128.129z
	 M96.129,32.129c-17.673,0-32,14.327-32,32s14.327,32,32,32s32-14.327,32-32S113.802,32.129,96.129,32.129z"/>
<path d="M113.665,480.129h-35.2c-16.422-0.016-30.166-12.46-31.808-28.8l-12.992-131.2H16.129c-4.596-0.006-8.967-1.987-12-5.44
	c-3.081-3.421-4.538-8.004-4-12.576l14.56-113.6c1.745-16.262,15.549-28.543,31.904-28.384h17.536
	c4.246-0.008,8.322,1.673,11.328,4.672l20.672,20.704l20.672-20.672c6.356-6.139,16.485-5.963,22.624,0.394
	c5.988,6.2,5.988,16.03,0,22.23l-32,32c-6.248,6.246-16.376,6.246-22.624,0l-27.296-27.328H46.593l-12.288,96h13.824
	c8.248-0.041,15.175,6.194,16,14.4l14.464,145.6h35.2l9.6-97.6c0.494-8.823,8.047-15.574,16.87-15.08
	c8.823,0.494,15.574,8.047,15.08,16.87c-0.026,0.472-0.074,0.943-0.142,1.411l-9.6,97.6
	C143.954,467.717,130.136,480.179,113.665,480.129z"/>
<path d="M256.129,128.129c-35.346,0-64-28.654-64-64s28.654-64,64-64s64,28.654,64,64S291.476,128.129,256.129,128.129z
	 M256.129,32.129c-17.673,0-32,14.327-32,32s14.327,32,32,32s32-14.327,32-32S273.802,32.129,256.129,32.129z"/>
<path d="M273.665,512.129h-35.2c-16.422-0.016-30.166-12.46-31.808-28.8l-13.28-163.2h-17.248
	c-8.836,0.07-16.057-7.036-16.127-15.872c-0.006-0.717,0.037-1.433,0.127-2.144l14.56-113.6
	c1.745-16.262,15.549-28.543,31.904-28.384h17.536c4.246-0.008,8.322,1.673,11.328,4.672l20.672,20.704l20.672-20.672
	c3.001-3.011,7.077-4.703,11.328-4.704h17.536c16.422,0.016,30.166,12.46,31.808,28.8l14.656,113.184
	c1.114,8.766-5.09,16.775-13.856,17.889c-0.711,0.09-1.427,0.133-2.144,0.127h-17.248l-13.376,162.912
	C304.001,499.507,290.2,512.115,273.665,512.129z M194.305,288.129h13.824c8.349-0.028,15.315,6.367,16,14.688l14.56,177.6
	l34.976-0.288l14.464-177.312c0.685-8.32,7.651-14.716,16-14.688h13.824l-12.256-95.552l-11.168-0.448l-27.168,27.168
	c-6.248,6.246-16.376,6.246-22.624,0l-27.232-27.168h-10.912L194.305,288.129z"/>
<g>
</g>
<g>
</g>
<g>
</g>
<g>
</g>
<g>
</g>
<g>
</g>
<g>
</g>
<g>
</g>
<g>
</g>
<g>
</g>
<g>
</g>
<g>
</g>
<g>
</g>
<g>
</g>
<g>
</g>
</svg>
