<svg id="_x31__x2C_5" height="512" viewBox="0 0 24 24" width="512" xmlns="http://www.w3.org/2000/svg"><path d="m4.376 16.173c-.143 0-.283-.056-.386-.16l-2.73-2.729c-.213-.213-.213-.559 0-.772 1.016-1.016 2.668-1.016 3.683 0l.546.546c.146.146.197.363.132.559l-.727 2.183c-.06.179-.208.315-.392.359-.042.009-.085.014-.126.014z" fill="#90a4ae"/><path d="m20.706 22.25h-13.412c-1.403 0-2.544-1.105-2.544-2.464v-2.016c0-4.94 4.149-8.958 9.25-8.958s9.25 4.019 9.25 8.958v2.016c0 1.359-1.141 2.464-2.544 2.464z" fill="#cfd8dc"/><path d="m13.973 8.5c-1.705 0-3.304.418-4.652 1.137l.634 1.918c.304.936 1.295 1.585 2.42 1.585h3.197c1.125 0 2.116-.65 2.42-1.585l.634-1.918c-1.349-.719-2.948-1.137-4.653-1.137z" fill="#90a4ae"/><path d="m21.25 23h-14.5c-1.517 0-2.75-1.233-2.75-2.75v-2.25c0-5.514 4.486-10 10-10s10 4.486 10 10v2.25c0 1.517-1.233 2.75-2.75 2.75zm-7.25-13.5c-4.687 0-8.5 3.813-8.5 8.5v2.25c0 .689.561 1.25 1.25 1.25h14.5c.689 0 1.25-.561 1.25-1.25v-2.25c0-4.687-3.813-8.5-8.5-8.5z"/><path d="m21.25 12.75c-.414 0-.75-.336-.75-.75v-3c0-3.584-2.916-6.5-6.5-6.5s-6.5 2.916-6.5 6.5v3c0 .414-.336.75-.75.75s-.75-.336-.75-.75v-3c0-4.411 3.589-8 8-8s8 3.589 8 8v3c0 .414-.336.75-.75.75z"/><path d="m4.5 17.25c-.192 0-.384-.073-.53-.22l-3.75-3.75c-.293-.293-.293-.768 0-1.061 1.396-1.395 3.665-1.395 5.061 0l.75.75c.293.293.293.768 0 1.061s-.768.293-1.061 0l-.75-.75c-.624-.624-1.548-.767-2.31-.432l3.12 3.122c.293.293.293.768 0 1.061-.146.146-.338.219-.53.219z"/><path d="m15.773 14h-3.546c-1.215 0-2.271-.78-2.628-1.941l-.565-1.838c-.123-.397.1-.816.495-.938.397-.121.816.101.938.496l.565 1.838c.163.528.643.883 1.195.883h3.546c.552 0 1.032-.354 1.195-.883l.565-1.838c.122-.396.543-.617.938-.496.396.122.618.541.496.938l-.565 1.838c-.358 1.161-1.414 1.941-2.629 1.941z"/><path d="m14 9.25c-.414 0-.75-.336-.75-.75v-2.25c0-.414.336-.75.75-.75s.75.336.75.75v2.25c0 .414-.336.75-.75.75z"/><path d="m15.25 7h-2.5c-.414 0-.75-.336-.75-.75s.336-.75.75-.75h2.5c.414 0 .75.336.75.75s-.336.75-.75.75z"/></svg>