<svg id="regular" enable-background="new 0 0 24 24" height="512" viewBox="0 0 24 24" width="512" xmlns="http://www.w3.org/2000/svg"><path d="m8.953 19c-2.77 0-5.265-1.653-6.385-4.126l-1.382.986c-.229.163-.529.186-.779.057s-.407-.386-.407-.667v-6.5c0-.281.157-.538.406-.667.25-.129.551-.107.779.057l1.383.986c1.12-2.473 3.616-4.126 6.385-4.126 2.897 0 5.524 1.814 6.539 4.515.131.349-.014.741-.341.921l-2.844 1.564 2.845 1.564c.327.18.472.572.341.921-1.015 2.701-3.642 4.515-6.54 4.515z" fill="#ffc107"/><path d="m21 15c-1.127 0-2.15-.64-2.66-1.611l-1.116.559c-.155.077-.341.069-.486-.022-.148-.092-.238-.253-.238-.426v-3c0-.173.09-.334.237-.425.146-.091.331-.1.486-.022l1.116.559c.511-.972 1.534-1.612 2.661-1.612 1.654 0 3 1.346 3 3s-1.346 3-3 3z" fill="#ffd54f"/><path d="m8.953 19c-2.77 0-5.265-1.653-6.385-4.126l-1.382.986c-.229.163-.528.185-.779.057-.25-.129-.407-.386-.407-.667v-6.5c0-.281.157-.538.406-.667.251-.128.55-.107.779.057l1.383.986c1.12-2.473 3.616-4.126 6.385-4.126 2.897 0 5.525 1.814 6.539 4.516.131.349-.015.741-.341.921l-2.844 1.563 2.845 1.563c.326.18.472.572.341.921-1.014 2.702-3.642 4.516-6.54 4.516zm-6.019-6.058c.084 0 .168.014.249.042.229.081.406.27.473.504.666 2.363 2.845 4.012 5.297 4.012 2.058 0 3.941-1.164 4.872-2.954l-3.437-1.889c-.239-.132-.388-.384-.388-.657s.149-.525.389-.657l3.437-1.889c-.931-1.79-2.815-2.954-4.873-2.954-2.452 0-4.631 1.649-5.298 4.012-.066.234-.243.423-.473.504-.229.08-.485.044-.685-.098l-.997-.712v3.588l.998-.712c.129-.092.281-.14.436-.14z"/><path d="m21 15c-1.654 0-3-1.346-3-3s1.346-3 3-3 3 1.346 3 3-1.346 3-3 3zm0-4.5c-.827 0-1.5.673-1.5 1.5s.673 1.5 1.5 1.5 1.5-.673 1.5-1.5-.673-1.5-1.5-1.5z"/><path d="m17.001 14c-.234 0-.465-.109-.611-.314-.24-.337-.163-.805.175-1.046l.895-.64-.896-.64c-.338-.241-.415-.709-.175-1.046s.708-.417 1.046-.175l1.75 1.25c.198.141.315.369.315.611s-.117.47-.314.61l-1.75 1.25c-.132.095-.285.14-.435.14z"/></svg>