<?xml version="1.0" encoding="iso-8859-1"?>
<!-- Generator: Adobe Illustrator 19.0.0, SVG Export Plug-In . SVG Version: 6.00 Build 0)  -->
<svg version="1.1" id="Capa_1" xmlns="http://www.w3.org/2000/svg" xmlns:xlink="http://www.w3.org/1999/xlink" x="0px" y="0px"
	 viewBox="0 0 512 512" style="enable-background:new 0 0 512 512;" xml:space="preserve">
<ellipse style="fill:#FFC107;" cx="288" cy="176" rx="224" ry="176"/>
<g>
	<circle style="fill:#FFD54F;" cx="48" cy="464" r="32"/>
	<circle style="fill:#FFD54F;" cx="128" cy="384" r="48"/>
</g>
<path d="M288,352c-123.52,0-224-78.944-224-176S164.48,0,288,0s224,78.944,224,176S411.52,352,288,352z M288,32
	C182.112,32,96,96.608,96,176s86.112,144,192,144s192-64.608,192-144S393.888,32,288,32z"/>
<path d="M48,512c-26.51,0-48-21.49-48-48s21.49-48,48-48s48,21.49,48,48S74.51,512,48,512L48,512z M48,448c-8.837,0-16,7.163-16,16
	s7.163,16,16,16s16-7.163,16-16S56.837,448,48,448z"/>
<path d="M128,448c-35.346,0-64-28.654-64-64s28.654-64,64-64s64,28.654,64,64S163.346,448,128,448z M128,352
	c-17.673,0-32,14.327-32,32s14.327,32,32,32s32-14.327,32-32S145.673,352,128,352z"/>
<g>
</g>
<g>
</g>
<g>
</g>
<g>
</g>
<g>
</g>
<g>
</g>
<g>
</g>
<g>
</g>
<g>
</g>
<g>
</g>
<g>
</g>
<g>
</g>
<g>
</g>
<g>
</g>
<g>
</g>
</svg>
