<?xml version="1.0" encoding="iso-8859-1"?>
<!-- Generator: Adobe Illustrator 19.0.0, SVG Export Plug-In . SVG Version: 6.00 Build 0)  -->
<svg version="1.1" id="Capa_1" xmlns="http://www.w3.org/2000/svg" xmlns:xlink="http://www.w3.org/1999/xlink" x="0px" y="0px"
	 viewBox="0 0 512.001 512.001" style="enable-background:new 0 0 512.001 512.001;" xml:space="preserve">
<path style="fill:#D32F2F;" d="M411.341,244.672l-144-144c-6.259-6.238-16.389-6.222-22.627,0.037
	c-4.058,4.071-5.62,10.006-4.093,15.547L297.229,320c1.385,4.982,5.092,8.987,9.952,10.752c4.849,1.753,10.245,1.062,14.496-1.856
	l87.36-59.84c7.29-4.994,9.151-14.952,4.157-22.242c-0.557-0.813-1.188-1.573-1.885-2.27L411.341,244.672z"/>
<path style="fill:#F44336;" d="M272.621,112h-97.216L96.589,395.712c-1.665,5.993,0.295,12.408,5.024,16.448l112,96
	c5.988,5.121,14.812,5.121,20.8,0l112-96c4.718-4.047,6.664-10.461,4.992-16.448L272.621,112z"/>
<path style="fill:#D32F2F;" d="M174.125,112h99.776l44.416-88.832c3.959-7.9,0.764-17.514-7.137-21.473
	C308.956,0.581,306.502,0,304.013,0h-160c-8.837,0-16,7.164-15.999,16.001c0,2.488,0.581,4.943,1.695,7.167L174.125,112z"/>
<path d="M256.013,128h-64c-6.055,0-11.591-3.419-14.304-8.832l-48-96c-3.959-7.9-0.764-17.514,7.137-21.473
	C139.071,0.581,141.525,0,144.013,0h160c8.837,0,16,7.164,15.999,16.001c0,2.488-0.581,4.943-1.695,7.167l-48,96
	C267.605,124.581,262.068,128,256.013,128z M201.901,96h44.224l32-64H169.901L201.901,96z"/>
<path d="M224.013,512c-3.814,0-7.502-1.362-10.4-3.84l-112-96c-4.718-4.047-6.664-10.461-4.992-16.448l80-288
	c2.61-8.442,11.57-13.17,20.012-10.56c8.105,2.506,12.845,10.902,10.804,19.136l-77.312,278.176l93.888,80.48l93.888-80.48
	l-77.28-278.176c-2.126-8.577,3.103-17.254,11.68-19.38c8.234-2.042,16.631,2.699,19.136,10.804l80,288
	c1.672,5.987-0.274,12.401-4.992,16.448l-112,96C231.539,510.646,227.838,512.008,224.013,512z"/>
<path d="M312.653,331.84c-8.837-0.023-15.981-7.205-15.959-16.041c0.014-5.254,2.605-10.166,6.935-13.143l71.456-48.96
	l-130.4-130.368c-6.139-6.356-5.963-16.485,0.393-22.624c6.2-5.988,16.03-5.988,22.231,0l144,144
	c6.248,6.249,6.247,16.38-0.002,22.627c-0.697,0.697-1.457,1.328-2.27,1.885l-87.36,59.84
	C319.023,330.882,315.875,331.853,312.653,331.84z"/>
<g>
</g>
<g>
</g>
<g>
</g>
<g>
</g>
<g>
</g>
<g>
</g>
<g>
</g>
<g>
</g>
<g>
</g>
<g>
</g>
<g>
</g>
<g>
</g>
<g>
</g>
<g>
</g>
<g>
</g>
</svg>
