<?xml version="1.0" encoding="iso-8859-1"?>
<!-- Generator: Adobe Illustrator 19.0.0, SVG Export Plug-In . SVG Version: 6.00 Build 0)  -->
<svg version="1.1" id="Capa_1" xmlns="http://www.w3.org/2000/svg" xmlns:xlink="http://www.w3.org/1999/xlink" x="0px" y="0px"
	 viewBox="0 0 512 512" style="enable-background:new 0 0 512 512;" xml:space="preserve">
<rect x="112" y="208" style="fill:#B0BEC5;" width="304" height="208"/>
<path style="fill:#ECEFF1;" d="M400,0H112l112,208v288c0,8.837,7.163,16,16,16h256c8.837,0,16-7.163,16-16V208
	C512,91.36,462.816,0,400,0z"/>
<ellipse style="fill:#CFD8DC;" cx="112" cy="208" rx="112" ry="208"/>
<ellipse style="fill:#90A4AE;" cx="112" cy="208" rx="48" ry="80"/>
<path d="M112,416C49.216,416,0,324.64,0,208S49.216,0,112,0s112,91.36,112,208S174.784,416,112,416z M112,32
	c-37.856,0-80,72.288-80,176s42.144,176,80,176s80-72.288,80-176S149.856,32,112,32z"/>
<path d="M496,224c-8.837,0-16-7.163-16-16c0-103.712-42.144-176-80-176c-8.837,0-16-7.163-16-16s7.163-16,16-16
	c62.784,0,112,91.36,112,208C512,216.837,504.837,224,496,224z"/>
<path d="M112,288c-27.36,0-48-34.4-48-80s20.64-80,48-80s48,34.4,48,80S139.36,288,112,288z M112,160c-4,0-16,17.024-16,48
	s12,48,16,48s16-17.024,16-48S116,160,112,160z"/>
<path d="M208,416h-96c-8.837,0-16-7.163-16-16s7.163-16,16-16h96c8.837,0,16,7.163,16,16S216.837,416,208,416z"/>
<path d="M400,32H112c-8.837,0-16-7.163-16-16s7.163-16,16-16h288c8.837,0,16,7.163,16,16S408.837,32,400,32z"/>
<path d="M496,512H208c-8.837,0-16-7.163-16-16V208c0-8.837,7.163-16,16-16s16,7.163,16,16v272h256V208c0-8.837,7.163-16,16-16
	s16,7.163,16,16v288C512,504.837,504.837,512,496,512z"/>
<g>
</g>
<g>
</g>
<g>
</g>
<g>
</g>
<g>
</g>
<g>
</g>
<g>
</g>
<g>
</g>
<g>
</g>
<g>
</g>
<g>
</g>
<g>
</g>
<g>
</g>
<g>
</g>
<g>
</g>
</svg>
