<?xml version="1.0" encoding="iso-8859-1"?>
<!-- Generator: Adobe Illustrator 19.0.0, SVG Export Plug-In . SVG Version: 6.00 Build 0)  -->
<svg version="1.1" id="Capa_1" xmlns="http://www.w3.org/2000/svg" xmlns:xlink="http://www.w3.org/1999/xlink" x="0px" y="0px"
	 viewBox="0 0 512 512" style="enable-background:new 0 0 512 512;" xml:space="preserve">
<path style="fill:#455A64;" d="M208,272h64c8.837,0,16,7.163,16,16v64c0,8.837-7.163,16-16,16h-64c-8.837,0-16-7.163-16-16v-64
	C192,279.163,199.163,272,208,272z"/>
<g>
	<path style="fill:#607D8B;" d="M16,336c-8.837,0-16,7.163-16,16v64c0,8.837,7.163,16,16,16h336v-96H16z"/>
	<path style="fill:#607D8B;" d="M509.728,295.776l-48-80c-2.891-4.825-8.103-7.777-13.728-7.776H336c-8.837,0-16,7.163-16,16v208
		h176c8.837,0,16-7.163,16-16V304L509.728,295.776z"/>
</g>
<g>
	<polygon style="fill:#ECEFF1;" points="477.344,304 384,304 384,240 438.944,240 	"/>
	<circle style="fill:#ECEFF1;" cx="432" cy="416" r="32"/>
	<circle style="fill:#ECEFF1;" cx="112" cy="416" r="32"/>
</g>
<path d="M80,432H16c-8.837,0-16-7.163-16-16v-64c0-8.837,7.163-16,16-16h320c8.837,0,16,7.163,16,16s-7.163,16-16,16H32v32h48
	c8.837,0,16,7.163,16,16S88.837,432,80,432z"/>
<path d="M336,432H144c-8.837,0-16-7.163-16-16s7.163-16,16-16h176V224c0-8.837,7.163-16,16-16s16,7.163,16,16v192
	C352,424.836,344.837,432,336,432z"/>
<path d="M112,464c-26.51,0-48-21.49-48-48s21.49-48,48-48s48,21.49,48,48S138.51,464,112,464z M112,400c-8.837,0-16,7.163-16,16
	s7.163,16,16,16s16-7.163,16-16S120.837,400,112,400z"/>
<path d="M432,464c-26.51,0-48-21.49-48-48s21.49-48,48-48s48,21.49,48,48S458.51,464,432,464z M432,400c-8.837,0-16,7.163-16,16
	s7.163,16,16,16s16-7.163,16-16S440.837,400,432,400z"/>
<path d="M80,432H16c-8.837,0-16-7.163-16-16s7.163-16,16-16h64c8.837,0,16,7.163,16,16S88.837,432,80,432z"/>
<path d="M496,432h-32c-8.837,0-16-7.163-16-16s7.163-16,16-16h16v-91.552L438.944,240H336c-8.837,0-16-7.163-16-16s7.163-16,16-16
	h112c5.625-0.001,10.837,2.951,13.728,7.776l48,80c1.5,2.48,2.286,5.326,2.272,8.224v112C512,424.836,504.837,432,496,432z"/>
<path d="M400,432H144c-8.837,0-16-7.163-16-16s7.163-16,16-16h256c8.837,0,16,7.163,16,16S408.837,432,400,432z"/>
<path d="M496,336h-96c-8.837,0-16-7.163-16-16v-96c0-8.837,7.163-16,16-16s16,7.163,16,16v80h80c8.837,0,16,7.163,16,16
	S504.837,336,496,336z"/>
<path d="M272,368c-8.837,0-16-7.163-16-16v-48h-32v48c0,8.837-7.163,16-16,16s-16-7.163-16-16v-64c0-8.837,7.163-16,16-16h64
	c8.837,0,16,7.163,16,16v64C288,360.836,280.837,368,272,368z"/>
<path d="M240,304c-8.837,0-16-7.163-16-16V169.888l-160-80V160c0,8.837-7.163,16-16,16s-16,7.163-16,16
	c0.475,9.072,8.215,16.04,17.286,15.565c3.894-0.204,7.589-1.785,10.426-4.461c6.415-6.08,16.544-5.807,22.624,0.608
	c6.08,6.415,5.807,16.544-0.608,22.624c-19.043,18.442-49.431,17.954-67.874-1.089s-17.954-49.431,1.089-67.874
	c4.869-4.716,10.683-8.346,17.056-10.653V64C32,55.163,39.164,48,48.001,48c2.488,0,4.943,0.581,7.167,1.695l192,96
	C252.581,148.408,256,153.945,256,160v128C256,296.836,248.837,304,240,304z"/>
<g>
</g>
<g>
</g>
<g>
</g>
<g>
</g>
<g>
</g>
<g>
</g>
<g>
</g>
<g>
</g>
<g>
</g>
<g>
</g>
<g>
</g>
<g>
</g>
<g>
</g>
<g>
</g>
<g>
</g>
</svg>
