<?xml version="1.0" encoding="iso-8859-1"?>
<!-- Generator: Adobe Illustrator 19.0.0, SVG Export Plug-In . SVG Version: 6.00 Build 0)  -->
<svg version="1.1" id="Capa_1" xmlns="http://www.w3.org/2000/svg" xmlns:xlink="http://www.w3.org/1999/xlink" x="0px" y="0px"
	 viewBox="0 0 512.001 512.001" style="enable-background:new 0 0 512.001 512.001;" xml:space="preserve">
<g>
	<path style="fill:#455A64;" d="M224.001,0h64c8.837,0,16,7.163,16,16v70.72c0,8.837-7.163,16-16,16h-64c-8.837,0-16-7.163-16-16V16
		C208.001,7.163,215.164,0,224.001,0z"/>
	<path style="fill:#455A64;" d="M384.001,128h-256c-17.673,0-32,14.327-32,32v144c0,8.837,7.163,16,16,16h288
		c8.837,0,16-7.163,16-16V160C416.001,142.327,401.674,128,384.001,128z"/>
</g>
<g>
	<path style="fill:#607D8B;" d="M432.001,288h-352c-8.837,0-16,7.163-16,16v96c0,7.738,5.538,14.367,13.152,15.744l176,32
		c1.883,0.341,3.813,0.341,5.696,0l176-32c7.614-1.377,13.152-8.006,13.152-15.744v-96C448.001,295.163,440.837,288,432.001,288z"/>
	<circle style="fill:#607D8B;" cx="256.001" cy="160" r="96"/>
</g>
<path d="M80.001,512c-8.837-0.005-15.996-7.172-15.992-16.008c0.002-3.151,0.934-6.232,2.68-8.856l56.96-85.76
	c4.922-7.387,14.901-9.386,22.288-4.464c7.387,4.922,9.386,14.901,4.464,22.288l-56.96,85.76
	C90.429,509.417,85.379,512.062,80.001,512z"/>
<path d="M432.001,512c-5.352-0.003-10.347-2.681-13.312-7.136L361.601,419.2c-5.111-7.208-3.411-17.195,3.797-22.307
	s17.195-3.411,22.307,3.797c0.181,0.255,0.355,0.516,0.52,0.781l56.96,85.76c4.843,7.391,2.777,17.309-4.614,22.152
	C438.022,511.055,435.048,511.962,432.001,512z"/>
<path d="M256.001,448c-0.965-0.006-1.929-0.091-2.88-0.256l-176-32c-7.602-1.391-13.123-8.016-13.12-15.744v-96
	c0-8.837,7.163-16,16-16h352c8.837,0,16,7.163,16,16v96c0.003,7.728-5.518,14.353-13.12,15.744l-176,32
	C257.929,447.909,256.966,447.994,256.001,448z M96.001,386.656l160,29.088l160-29.088V320h-320V386.656z"/>
<path d="M400.001,320c-8.837,0-16-7.163-16-16V160h-49.6c-8.837,0-16-7.163-16-16s7.163-16,16-16h49.6c17.673,0,32,14.327,32,32v144
	C416.001,312.837,408.837,320,400.001,320z"/>
<path d="M112.001,320c-8.837,0-16-7.163-16-16V160c0-17.673,14.327-32,32-32h49.6c8.837,0,16,7.163,16,16s-7.163,16-16,16h-49.6v144
	C128.001,312.837,120.837,320,112.001,320z"/>
<path d="M256.001,256c-53.019,0-96-42.981-96-96s42.981-96,96-96s96,42.981,96,96S309.02,256,256.001,256z M256.001,96
	c-35.346,0-64,28.654-64,64s28.654,64,64,64s64-28.654,64-64S291.347,96,256.001,96z"/>
<path d="M288.001,102.72c-8.837,0-16-7.163-16-16V32h-32v54.72c0,8.837-7.163,16-16,16s-16-7.163-16-16V16c0-8.837,7.163-16,16-16
	h64c8.837,0,16,7.163,16,16v70.72C304.001,95.557,296.837,102.72,288.001,102.72z"/>
<path d="M256.641,176c-8.837,0-16-7.163-16-16s7.163-16,16-16h0.32c8.837,0,16,7.163,16,16s-7.163,16-16,16H256.641z"/>
<path d="M256.001,384c-8.837,0-16-7.163-16-16v-64c0-8.837,7.163-16,16-16s16,7.163,16,16v64
	C272.001,376.837,264.837,384,256.001,384z"/>
<path d="M176.001,352c-8.837,0-16-7.163-16-16v-32c0-8.837,7.163-16,16-16s16,7.163,16,16v32
	C192.001,344.837,184.837,352,176.001,352z"/>
<path d="M336.001,352c-8.837,0-16-7.163-16-16v-32c0-8.837,7.163-16,16-16s16,7.163,16,16v32
	C352.001,344.837,344.837,352,336.001,352z"/>
<g>
</g>
<g>
</g>
<g>
</g>
<g>
</g>
<g>
</g>
<g>
</g>
<g>
</g>
<g>
</g>
<g>
</g>
<g>
</g>
<g>
</g>
<g>
</g>
<g>
</g>
<g>
</g>
<g>
</g>
</svg>
