<svg id="_x31_px" enable-background="new 0 0 24 24" height="512" viewBox="0 0 24 24" width="512" xmlns="http://www.w3.org/2000/svg"><path d="m21.25 23.25h-6.5c-1.105 0-2-.895-2-2v-6.5c0-1.105.895-2 2-2h6.5c1.105 0 2 .895 2 2v6.5c0 1.105-.895 2-2 2z" fill="#607d8b"/><path d="m9.25 11.25h-6.5c-1.105 0-2-.895-2-2v-6.5c0-1.105.895-2 2-2h6.5c1.105 0 2 .895 2 2v6.5c0 1.105-.895 2-2 2z" fill="#2196f3"/><path d="m21.25 24h-6.5c-1.517 0-2.75-1.233-2.75-2.75v-6.5c0-1.517 1.233-2.75 2.75-2.75h6.5c1.517 0 2.75 1.233 2.75 2.75v6.5c0 1.517-1.233 2.75-2.75 2.75zm-6.5-10.5c-.689 0-1.25.561-1.25 1.25v6.5c0 .689.561 1.25 1.25 1.25h6.5c.689 0 1.25-.561 1.25-1.25v-6.5c0-.689-.561-1.25-1.25-1.25z"/><path d="m20.25 17.5h-4.5c-.414 0-.75-.336-.75-.75s.336-.75.75-.75h4.5c.414 0 .75.336.75.75s-.336.75-.75.75z"/><path d="m18 17.25c-.414 0-.75-.336-.75-.75v-.75c0-.414.336-.75.75-.75s.75.336.75.75v.75c0 .414-.336.75-.75.75z"/><path d="m20.25 21c-.056 0-.113-.006-.17-.02-2.518-.586-3.993-1.463-4.08-4.207-.013-.414.312-.76.726-.773.423-.021.76.312.773.726.051 1.598.48 2.225 2.92 2.793.404.094.654.497.561.9-.08.347-.389.581-.73.581z"/><path d="m15.75 21c-.341 0-.649-.234-.73-.58-.094-.403.157-.807.561-.9 2.44-.568 2.87-1.196 2.92-2.793.013-.415.347-.767.773-.726.414.013.739.359.726.773-.086 2.744-1.562 3.62-4.08 4.207-.057.013-.114.019-.17.019z"/><path d="m7.25 9c-.414 0-.75-.336-.75-.75v-3.25c0-.276-.224-.5-.5-.5s-.5.224-.5.5v3.25c0 .414-.336.75-.75.75s-.75-.336-.75-.75v-3.25c0-1.103.897-2 2-2s2 .897 2 2v3.25c0 .414-.336.75-.75.75z"/><path d="m7.25 7.5h-2.5c-.414 0-.75-.336-.75-.75s.336-.75.75-.75h2.5c.414 0 .75.336.75.75s-.336.75-.75.75z"/><path d="m9.25 12h-6.5c-1.517 0-2.75-1.233-2.75-2.75v-6.5c0-1.517 1.233-2.75 2.75-2.75h6.5c1.517 0 2.75 1.233 2.75 2.75v6.5c0 1.517-1.233 2.75-2.75 2.75zm-6.5-10.5c-.689 0-1.25.561-1.25 1.25v6.5c0 .689.561 1.25 1.25 1.25h6.5c.689 0 1.25-.561 1.25-1.25v-6.5c0-.689-.561-1.25-1.25-1.25z"/><path d="m19.25 9c-.414 0-.75-.336-.75-.75v-1.5c0-.689-.561-1.25-1.25-1.25h-1.5c-.414 0-.75-.336-.75-.75s.336-.75.75-.75h1.5c1.517 0 2.75 1.233 2.75 2.75v1.5c0 .414-.336.75-.75.75z"/><path d="m8.25 20h-1.5c-1.517 0-2.75-1.233-2.75-2.75v-1.5c0-.414.336-.75.75-.75s.75.336.75.75v1.5c0 .689.561 1.25 1.25 1.25h1.5c.414 0 .75.336.75.75s-.336.75-.75.75z"/></svg>