<svg id="_x31__x2C_5_px" enable-background="new 0 0 24 24" height="512" viewBox="0 0 24 24" width="512" xmlns="http://www.w3.org/2000/svg"><g><path d="m18.25 23.25h-12.5c-1.105 0-2-.895-2-2v-13.5h16.5v13.5c0 1.105-.895 2-2 2z" fill="#90a4ae"/></g><g><path d="m22.25 7.75h-20.5v-2c0-1.105.895-2 2-2h16.5c1.105 0 2 .895 2 2z" fill="#607d8b"/></g><g><path d="m18.25 24h-12.5c-1.517 0-2.75-1.233-2.75-2.75v-13.5c0-.414.336-.75.75-.75h16.5c.414 0 .75.336.75.75v13.5c0 1.517-1.233 2.75-2.75 2.75zm-13.75-15.5v12.75c0 .689.561 1.25 1.25 1.25h12.5c.689 0 1.25-.561 1.25-1.25v-12.75z"/></g><g><path d="m22.25 8.5h-20.5c-.414 0-.75-.336-.75-.75v-2c0-1.517 1.233-2.75 2.75-2.75h16.5c1.517 0 2.75 1.233 2.75 2.75v2c0 .414-.336.75-.75.75zm-19.75-1.5h19v-1.25c0-.689-.561-1.25-1.25-1.25h-16.5c-.689 0-1.25.561-1.25 1.25z"/></g><g><path d="m15.25 4.5h-6.5c-.414 0-.75-.336-.75-.75v-2c0-.965.785-1.75 1.75-1.75h4.5c.965 0 1.75.785 1.75 1.75v2c0 .414-.336.75-.75.75zm-5.75-1.5h5v-1.25c0-.138-.112-.25-.25-.25h-4.5c-.138 0-.25.112-.25.25z"/></g><g><path d="m7.75 20c-.414 0-.75-.336-.75-.75v-7.5c0-.414.336-.75.75-.75s.75.336.75.75v7.5c0 .414-.336.75-.75.75z"/></g><g><path d="m12 20c-.414 0-.75-.336-.75-.75v-7.5c0-.414.336-.75.75-.75s.75.336.75.75v7.5c0 .414-.336.75-.75.75z"/></g><g><path d="m16.25 20c-.414 0-.75-.336-.75-.75v-7.5c0-.414.336-.75.75-.75s.75.336.75.75v7.5c0 .414-.336.75-.75.75z"/></g></svg>