<?xml version="1.0" encoding="iso-8859-1"?>
<!-- Generator: Adobe Illustrator 19.0.0, SVG Export Plug-In . SVG Version: 6.00 Build 0)  -->
<svg version="1.1" id="Capa_1" xmlns="http://www.w3.org/2000/svg" xmlns:xlink="http://www.w3.org/1999/xlink" x="0px" y="0px"
	 viewBox="0 0 512 512" style="enable-background:new 0 0 512 512;" xml:space="preserve">
<path style="fill:#FFA000;" d="M199.008,276.26c0-30.496,24.736-55.232,55.232-55.264c5.344,0.064,10.624,0.928,15.712,2.56
	l15.296-22.4c5.056-7.232,3.264-17.216-3.968-22.272c-2.72-1.888-5.952-2.912-9.28-2.88h-77.504
	C127.872,154.18,69.888,111.684,29.024,54.692c-5.12-7.168-15.136-8.864-22.304-3.712C2.496,53.988,0,58.852,0,64.004v384
	c0,6.976,4.48,13.152,11.136,15.264c1.568,0.48,3.2,0.736,4.864,0.736c5.184,0,10.016-2.496,13.024-6.72
	c39.488-55.168,95.104-96.736,159.2-118.976c3.296-1.12,6.112-3.264,8.064-6.144l14.912-21.76
	C203.392,300.74,199.072,288.708,199.008,276.26z"/>
<path style="fill:#FFC107;" d="M512,208.004c0-17.664-14.336-32-32-32H275.2c-53.728-0.736-100.736,36.128-112.8,88.48
	c-12.864,60.64,25.856,120.224,86.496,133.088c7.584,1.6,15.328,2.432,23.104,2.432h56.768
	c58.432,1.248,108.896-40.672,118.4-98.368c2.624-21.12-0.992-42.56-10.4-61.632H512V208.004z M384,288.004
	c0,26.496-21.504,48-48,48h-64c-26.496,0-48-21.472-48-48s21.504-48,48-48h64C362.496,240.004,384,261.508,384,288.004z"/>
<path style="fill:#FFA000;" d="M436.768,240.004H336c20.256,0.096,38.304,12.896,45.056,32h65.024
	C444.544,260.964,441.408,250.18,436.768,240.004z"/>
<path d="M336,400.004h-64c-61.856,0-112-50.144-112-112s50.144-112,112-112h64c8.832,0,16,7.168,16,16s-7.168,16-16,16h-64
	c-44.192,0-80,35.84-80,80s35.808,80,80,80h64c44.192,0,80-35.808,80-80c0.096-8.96-1.504-17.824-4.672-26.208
	c-3.04-8.288,1.216-17.504,9.504-20.544c8.096-2.976,17.056,0.992,20.32,8.96c4.608,12.064,6.944,24.896,6.848,37.792
	C448,349.86,397.856,400.004,336,400.004z M336,336.004h-64c-26.496,0-48-21.472-48-48s21.504-48,48-48h64c26.496,0,48,21.504,48,48
	S362.496,336.004,336,336.004z M272,272.004c-8.832,0-16,7.168-16,16s7.168,16,16,16h64c8.832,0,16-7.168,16-16s-7.168-16-16-16H272
	z"/>
<path d="M16,464.004c-1.664,0-3.296-0.256-4.864-0.768C4.512,461.124,0,454.98,0,448.004v-384c0-8.832,7.136-16,15.968-16
	c5.184,0,10.048,2.496,13.056,6.72c40.896,56.96,98.848,99.456,165.472,121.28H272c8.832,0,16,7.168,16,16s-7.168,16-16,16h-80
	c-1.632,0-3.264-0.256-4.832-0.736C127.84,188.324,74.4,154.436,32,108.804v294.4c40.096-43.168,90.176-75.84,145.856-95.136
	c8.384-2.752,17.44,1.792,20.224,10.176c2.72,8.256-1.632,17.216-9.856,20.096c-64.096,22.208-119.744,63.776-159.2,118.944
	C26.016,461.508,21.184,464.004,16,464.004z"/>
<path d="M496,272.004H336c-8.832,0-16-7.168-16-16c0-8.832,7.168-16,16-16h144v-32H336c-8.832,0-16-7.168-16-16s7.168-16,16-16h160
	c8.832,0,16,7.168,16,16v64C512,264.836,504.832,272.004,496,272.004z"/>
<g>
</g>
<g>
</g>
<g>
</g>
<g>
</g>
<g>
</g>
<g>
</g>
<g>
</g>
<g>
</g>
<g>
</g>
<g>
</g>
<g>
</g>
<g>
</g>
<g>
</g>
<g>
</g>
<g>
</g>
</svg>
