<svg enable-background="new 0 0 24 24" height="512" viewBox="0 0 24 24" width="512" xmlns="http://www.w3.org/2000/svg"><g id="Color"><g><path d="m9.94 20.32c-.05.06-.11.11-.19.15l-2.08 1.06c-.38.19-.78.28-1.17.28-.94 0-1.84-.51-2.32-1.41l-.38-.73c-1.18-2.23-1.8-4.76-1.8-7.3v-.26l1.57 1.63 5.17 5.34z" fill="#a1887f"/></g><g><path d="m10.42 17.4-.12 1.13-.14 1.35c-.02.17-.09.32-.22.44l-1.2-1.24-5.17-5.34-1.57-1.63c0-.11 0-.21.01-.33.02-.55.07-1.11.15-1.66.21-1.42.62-2.83 1.2-4.14l.98 1.58 4.8 7.76z" fill="#ffa726"/></g><g><path d="m11.16 10.5-.48 4.47-.26 2.43-1.28-2.08-4.8-7.76-.98-1.58c.05-.13.11-.26.17-.38.19-.4.4-.8.64-1.18.28-.49.6-.97.94-1.42.36-.48.93-.73 1.53-.67.59.07 1.1.44 1.35.99l3.11 6.79c.06.12.08.26.06.39z" fill="#a1887f"/></g><g><path d="m18.306 4.889 2.307-1.024c.271-.12.446-.39.446-.686 0-.297-.175-.565-.446-.686l-3.125-1.385c-.592-.71-1.441-1.113-2.359-1.113-1.712 0-3.105 1.428-3.105 3.184 0 1.495.694 4.227 1.084 5.644-1.08.129-2.116.448-3.039.938-1.023.539-1.889 1.281-2.492 2.132-.789 1.052-1.205 2.277-1.205 3.545 0 .375.04.76.118 1.14.294 1.479 1.171 2.835 2.458 3.812 1.427 1.12 3.288 1.737 5.239 1.737 4.309 0 7.814-3.001 7.814-6.689-.001-4.465-2.554-8.824-3.695-10.549z" fill="#ffb74d"/></g></g><g id="_x31_.5"><g><path d="m16.421 23.995h-3.176c-.414 0-.75-.336-.75-.75v-1.562c0-.414.336-.75.75-.75s.75.336.75.75v.812h2.426c.414 0 .75.336.75.75s-.336.75-.75.75z"/></g><g><g><path d="m14.186 22.127c-1.951 0-3.811-.617-5.239-1.738-1.288-.979-2.164-2.335-2.458-3.812-.078-.38-.118-.765-.118-1.14 0-1.267.417-2.494 1.205-3.546.604-.85 1.469-1.592 2.492-2.132.924-.49 1.96-.809 3.039-.938-.39-1.417-1.084-4.149-1.084-5.643 0-1.756 1.393-3.184 3.105-3.184.918 0 1.767.403 2.359 1.114l3.125 1.385c.271.12.446.389.446.685 0 .297-.175.566-.446.686l-2.307 1.024c1.142 1.726 3.695 6.085 3.695 10.55 0 3.688-3.505 6.689-7.814 6.689zm.941-20.632c-.885 0-1.605.755-1.605 1.684 0 1.507.922 4.925 1.278 6.114.067.226.025.469-.114.659s-.359.303-.594.306c-1.186.017-2.334.303-3.323.828-.818.432-1.503 1.016-1.982 1.69-.604.806-.917 1.722-.917 2.662 0 .274.03.557.088.842.224 1.122.9 2.158 1.905 2.922 1.174.921 2.706 1.425 4.322 1.425 3.482 0 6.314-2.328 6.314-5.189 0-5.133-3.889-10.364-3.928-10.416-.137-.183-.184-.418-.126-.639s.213-.404.422-.497l1.591-.706-1.75-.775c-.121-.053-.225-.137-.302-.244-.309-.423-.775-.666-1.279-.666z"/></g><g><path d="m6.5 21.811c-.936 0-1.837-.513-2.319-1.413l-.381-.728c-1.177-2.233-1.8-4.759-1.8-7.3 0-.198 0-.395.01-.592.079-2.121.606-4.26 1.523-6.177.438-.916.968-1.791 1.574-2.599.365-.484.937-.733 1.529-.667.596.065 1.103.436 1.356.991l3.107 6.785c.173.377.007.822-.369.994-.377.174-.821.008-.994-.369l-3.109-6.787c-.042-.093-.107-.118-.155-.123-.046-.007-.111.004-.166.078-.545.728-1.024 1.518-1.42 2.345-.829 1.733-1.306 3.668-1.377 5.595-.009.181-.009.354-.009.527 0 2.298.563 4.582 1.628 6.603l.378.723c.293.548.947.768 1.484.496l2.079-1.06c.37-.189.82-.042 1.009.327.188.369.042.821-.327 1.009l-2.082 1.062c-.377.189-.776.28-1.169.28z"/></g><g><path d="m8.176 13.091c-.251 0-.497-.126-.639-.355l-3.965-6.417c-.218-.352-.109-.815.243-1.032s.815-.109 1.033.243l3.966 6.417c.218.353.108.815-.244 1.033-.123.075-.259.111-.394.111z"/></g><g><path d="m7.224 17.181c-.196 0-.392-.077-.539-.229l-4.465-4.615c-.288-.298-.28-.772.018-1.061.296-.288.772-.28 1.061.018l4.465 4.615c.288.298.28.772-.018 1.061-.146.141-.334.211-.522.211z"/></g></g></g></svg>