<svg id="_x31__x2C_5" height="512" viewBox="0 0 24 24" width="512" xmlns="http://www.w3.org/2000/svg"><path d="m15.898 11.893c-2.598.643-5.197.643-7.795 0-.789-.195-1.352-.898-1.352-1.711v-1.307c0-2.899 2.351-5.25 5.25-5.25 2.899 0 5.25 2.351 5.25 5.25v1.306c-.001.814-.564 1.516-1.353 1.712z" fill="#cfd8dc"/><path d="m12 14.5c-1.145 0-11.188-.069-11.188-2.469s10.043-2.468 11.188-2.468 11.187.069 11.187 2.469-10.042 2.468-11.187 2.468z" fill="#2196f3"/><path d="m17.25 12c-.414 0-.75-.336-.75-.75v-2.25c0-2.481-2.019-4.5-4.5-4.5s-4.5 2.019-4.5 4.5v2.25c0 .414-.336.75-.75.75s-.75-.336-.75-.75v-2.25c0-3.309 2.691-6 6-6s6 2.691 6 6v2.25c0 .414-.336.75-.75.75z"/><path d="m12 15c-1.228 0-12-.084-12-3s10.772-3 12-3 12 .084 12 3-10.772 3-12 3zm-10.412-3c.732.568 4.245 1.5 10.412 1.5s9.68-.932 10.412-1.5c-.732-.568-4.245-1.5-10.412-1.5s-9.68.932-10.412 1.5zm20.939.116h.01z"/><path d="m4.501 21c-.041 0-.083-.003-.125-.01-.408-.068-.685-.455-.616-.863l1-6c.068-.409.452-.683.863-.616.408.068.685.455.616.863l-1 6c-.06.366-.378.626-.738.626z"/><path d="m5.25 21h-1.5c-.414 0-.75-.336-.75-.75s.336-.75.75-.75h1.5c.414 0 .75.336.75.75s-.336.75-.75.75z"/><path d="m19.499 21c-.36 0-.678-.26-.739-.626l-1-6c-.068-.409.208-.795.616-.863.407-.067.795.208.863.616l1 6c.068.409-.208.795-.616.863-.041.007-.083.01-.124.01z"/><path d="m20.25 21h-1.5c-.414 0-.75-.336-.75-.75s.336-.75.75-.75h1.5c.414 0 .75.336.75.75s-.336.75-.75.75z"/><path d="m12 19c-.414 0-.75-.336-.75-.75v-3.75c0-.414.336-.75.75-.75s.75.336.75.75v3.75c0 .414-.336.75-.75.75z"/><path d="m12.75 19h-1.5c-.414 0-.75-.336-.75-.75s.336-.75.75-.75h1.5c.414 0 .75.336.75.75s-.336.75-.75.75z"/></svg>