<?xml version="1.0" encoding="iso-8859-1"?>
<!-- Generator: Adobe Illustrator 19.0.0, SVG Export Plug-In . SVG Version: 6.00 Build 0)  -->
<svg version="1.1" id="Capa_1" xmlns="http://www.w3.org/2000/svg" xmlns:xlink="http://www.w3.org/1999/xlink" x="0px" y="0px"
	 viewBox="0 0 448 448" style="enable-background:new 0 0 448 448;" xml:space="preserve">
<path style="fill:#4CAF50;" d="M325.888,106.112c-18.329-18.21-41.22-31.153-66.272-37.472c-1.287-0.321-2.609-0.482-3.936-0.48
	h-63.36c-1.329-0.007-2.653,0.165-3.936,0.512C124.616,84.82,79.965,142.219,80,208v144c0,17.673,14.327,32,32,32h224
	c17.673,0,32-14.327,32-32V208C367.981,169.806,352.84,133.173,325.888,106.112z"/>
<circle style="fill:#ECEFF1;" cx="224" cy="80" r="48"/>
<path style="fill:#455A64;" d="M224,256c-26.51,0-48,21.49-48,48v96c0,26.51,21.49,48,48,48s48-21.49,48-48v-96
	C272,277.49,250.509,256,224,256z"/>
<path d="M224,448c-26.51,0-48-21.49-48-48v-96c0-26.51,21.49-48,48-48s48,21.49,48,48v96C272,426.51,250.509,448,224,448z M224,288
	c-8.837,0-16,7.163-16,16v96c0,8.837,7.163,16,16,16s16-7.163,16-16v-96C240,295.163,232.836,288,224,288z"/>
<path d="M192,384h-80c-17.673,0-32-14.327-32-32V208c-0.027-65.767,44.604-123.157,108.352-139.328
	c8.457-2.562,17.39,2.216,19.952,10.673c2.562,8.457-2.216,17.39-10.673,19.952c-0.453,0.137-0.912,0.254-1.375,0.351
	C146.691,112.239,111.992,156.861,112,208v144h80c8.837,0,16,7.163,16,16S200.836,384,192,384z"/>
<path d="M336,384h-80c-8.837,0-16-7.163-16-16s7.163-16,16-16h80V208c0.183-51.188-34.573-95.901-84.224-108.352
	c-8.672-1.7-14.323-10.107-12.624-18.779s10.107-14.323,18.779-12.624c0.569,0.112,1.132,0.254,1.685,0.427
	C323.496,84.648,368.229,142.153,368,208v144C368,369.673,353.673,384,336,384z"/>
<path d="M224,128c-26.51,0-48-21.49-48-48s21.49-48,48-48s48,21.49,48,48S250.509,128,224,128z M224,64c-8.837,0-16,7.163-16,16
	s7.163,16,16,16s16-7.163,16-16S232.836,64,224,64z"/>
<path d="M237.12,66.88c-8.837-0.002-15.998-7.167-15.997-16.003c0.001-4.249,1.692-8.324,4.701-11.325l34.848-34.88
	C263.678,1.673,267.753-0.008,272,0h80c8.837,0,16,7.163,16,16s-7.163,16-16,16h-73.376l-30.176,30.176
	C245.446,65.187,241.371,66.879,237.12,66.88z"/>
<path d="M210.88,66.88c-4.251-0.001-8.327-1.693-11.328-4.704L169.376,32H96c-8.837,0-16-7.163-16-16S87.163,0,96,0h80
	c4.246-0.008,8.322,1.673,11.328,4.672l34.848,34.88c6.256,6.24,6.269,16.371,0.029,22.627
	C219.203,65.188,215.129,66.879,210.88,66.88L210.88,66.88z"/>
<g>
</g>
<g>
</g>
<g>
</g>
<g>
</g>
<g>
</g>
<g>
</g>
<g>
</g>
<g>
</g>
<g>
</g>
<g>
</g>
<g>
</g>
<g>
</g>
<g>
</g>
<g>
</g>
<g>
</g>
</svg>
