<svg id="_x31__x2C_5" enable-background="new 0 0 24 24" height="512" viewBox="0 0 24 24" width="512" xmlns="http://www.w3.org/2000/svg"><path d="m23.492 16.029-1.794-8.483c-.337-1.591-1.75-2.746-3.36-2.746h-12.677c-1.61 0-3.023 1.155-3.36 2.746l-1.794 8.483c-.166.784.027 1.59.53 2.21.497.611 1.229.961 2.011.961 1.069 0 2.016-.648 2.402-1.626l1.136-2.565c.038-.097.127-.159.226-.159h10.374c.099 0 .188.062.237.185l1.114 2.514c.397 1.004 1.344 1.652 2.413 1.652.782 0 1.515-.35 2.01-.962.505-.621.698-1.426.532-2.21z" fill="#2196f3"/><circle cx="16.5" cy="9.5" fill="#fff" r="2.025"/><path d="m21.113 20c-1.188 0-2.24-.72-2.681-1.835l-1.238-2.793c-.055-.136-.153-.205-.264-.205h-9.86c-.11 0-.209.069-.251.177l-1.262 2.85c-.43 1.086-1.482 1.806-2.67 1.806-.869 0-1.683-.389-2.233-1.068-.559-.689-.773-1.584-.589-2.455l1.993-9.426c.374-1.768 1.944-3.051 3.733-3.051h12.419c1.789 0 3.358 1.283 3.733 3.051l1.993 9.426c.184.871-.03 1.766-.589 2.455-.551.679-1.365 1.068-2.234 1.068zm-14.043-6.333h9.86c.73 0 1.377.442 1.647 1.126l1.238 2.793c.225.566.729.915 1.298.915.415 0 .804-.187 1.068-.513.272-.336.377-.774.287-1.2l-1.993-9.426c-.228-1.079-1.181-1.862-2.266-1.862h-12.418c-1.084 0-2.037.783-2.265 1.861l-1.993 9.426c-.09.426.014.864.287 1.2.263.326.653.513 1.067.513.568 0 1.073-.348 1.286-.886l1.262-2.85c.258-.656.904-1.097 1.635-1.097z"/><path d="m7.5 12c-.414 0-.75-.336-.75-.75v-3.5c0-.414.336-.75.75-.75s.75.336.75.75v3.5c0 .414-.336.75-.75.75z"/><path d="m9.25 10.25h-3.5c-.414 0-.75-.336-.75-.75s.336-.75.75-.75h3.5c.414 0 .75.336.75.75s-.336.75-.75.75z"/><path d="m16.5 12c-1.378 0-2.5-1.122-2.5-2.5s1.122-2.5 2.5-2.5 2.5 1.122 2.5 2.5-1.122 2.5-2.5 2.5zm0-3.5c-.551 0-1 .449-1 1s.449 1 1 1 1-.449 1-1-.449-1-1-1z"/></svg>