<svg id="_x31__x2C_5px" enable-background="new 0 0 24 24" height="512" viewBox="0 0 24 24" width="512" xmlns="http://www.w3.org/2000/svg"><g><path d="m21.78 10.53h-.1c-.85 0-1.57-.56-1.85-1.35-.09-.24-.19-.48-.3-.7-.36-.77-.25-1.68.35-2.29l.07-.07c.29-.28.43-.66.43-1.04 0-.42-.18-.84-.53-1.13-.6-.49-1.49-.38-2.04.16l-.01.01c-.6.6-1.5.71-2.28.35-.22-.11-.45-.21-.69-.29-.8-.29-1.36-1-1.36-1.85v-.11c0-.81-.66-1.47-1.47-1.47s-1.47.66-1.47 1.47v.11c0 .85-.56 1.56-1.36 1.85-.24.08-.47.18-.69.29-.78.36-1.68.25-2.28-.35l-.08-.07c-.28-.29-.66-.43-1.04-.43-.42 0-.84.18-1.13.53-.49.6-.38 1.49.16 2.04l.01.01c.6.6.71 1.5.35 2.28-.11.22-.21.45-.29.69-.29.8-1 1.36-1.85 1.36h-.11c-.81 0-1.47.66-1.47 1.47s.66 1.47 1.47 1.47h.11c.85 0 1.56.56 1.85 1.36.08.24.18.47.29.69.36.78.25 1.68-.35 2.28l-.07.08c-.58.58-.58 1.51 0 2.07.56.58 1.49.58 2.07 0l.07-.07c.61-.6 1.52-.71 2.29-.35.22.11.46.21.7.3.79.28 1.35 1 1.35 1.85v.1c0 .81.66 1.47 1.47 1.47s1.47-.66 1.47-1.47v-.1c0-.85.56-1.57 1.35-1.85.24-.09.48-.19.7-.3.77-.36 1.68-.25 2.29.35l.07.07c.58.58 1.51.58 2.07 0 .58-.56.58-1.49 0-2.07l-.07-.07c-.6-.61-.71-1.52-.35-2.29.11-.22.21-.46.3-.7.28-.79 1-1.35 1.85-1.35h.1c.81 0 1.47-.66 1.47-1.47s-.66-1.47-1.47-1.47z" fill="#607d8b"/><path d="m12 24c-1.223 0-2.217-.995-2.217-2.217v-.106c0-.507-.338-.957-.86-1.145-.262-.095-.517-.201-.767-.319-.509-.241-1.071-.164-1.43.198l-.076.076c-.419.419-.977.651-1.569.651-.003 0-.006 0-.009 0-.591-.002-1.145-.236-1.559-.657-.412-.405-.646-.958-.648-1.55-.003-.596.229-1.157.652-1.58l.072-.073c.362-.361.439-.923.199-1.433-.117-.247-.222-.501-.315-.76-.189-.526-.639-.866-1.147-.866h-.109c-1.222-.002-2.217-.996-2.217-2.219s.995-2.217 2.217-2.217h.109c.508 0 .958-.34 1.147-.866.093-.259.199-.514.315-.761.239-.509.162-1.071-.198-1.43-.844-.846-.937-2.183-.217-3.052.803-.967 2.397-1.04 3.278-.157l.073.072c.361.362.923.44 1.433.199.247-.116.501-.222.76-.315.526-.189.866-.639.866-1.147v-.109c0-1.222.994-2.217 2.217-2.217s2.217.995 2.217 2.217v.109c0 .508.34.958.866 1.147.259.093.514.199.761.315.51.239 1.072.163 1.43-.198.847-.845 2.184-.938 3.052-.218.514.427.808 1.05.808 1.711 0 .583-.237 1.154-.65 1.567l-.072.073c-.362.361-.439.923-.199 1.433.118.249.224.504.318.765.189.523.639.861 1.146.861h.106c1.222.001 2.217.995 2.217 2.218s-.995 2.217-2.217 2.217h-.106c-.507 0-.957.338-1.145.86-.095.262-.201.517-.319.767-.24.509-.163 1.071.198 1.43l.076.076c.421.422.653.983.65 1.579-.002.591-.236 1.145-.657 1.559-.405.412-.958.646-1.55.648-.003 0-.006 0-.009 0-.592 0-1.15-.232-1.571-.653l-.073-.072c-.361-.362-.923-.438-1.433-.199-.249.118-.504.224-.765.318-.523.189-.861.639-.861 1.146v.106c-.001 1.223-.995 2.218-2.218 2.218zm-4.449-5.429c.416 0 .84.093 1.245.285.208.098.42.186.636.265 1.124.406 1.85 1.409 1.85 2.556v.106c0 .396.322.717.717.717s.717-.322.717-.717v-.106c0-1.146.727-2.15 1.851-2.556.216-.078.428-.166.635-.264 1.09-.515 2.319-.322 3.133.493l.072.072c.139.14.32.215.512.215h.003c.188 0 .364-.075.496-.208.143-.141.217-.316.217-.504.001-.192-.075-.375-.213-.513l-.076-.076c-.812-.812-1.005-2.041-.491-3.13.098-.208.186-.42.265-.636.406-1.124 1.409-1.85 2.556-1.85h.106c.396 0 .717-.322.717-.717s-.322-.717-.717-.717h-.106c-1.146 0-2.15-.727-2.556-1.851-.078-.216-.166-.428-.264-.635-.515-1.09-.321-2.32.493-3.133l.072-.072c.136-.136.213-.32.213-.508 0-.217-.094-.414-.266-.557-.273-.227-.735-.175-1.025.117-.819.82-2.048 1.015-3.138.501-.205-.099-.414-.186-.629-.263-1.129-.406-1.859-1.41-1.859-2.559v-.109c0-.395-.321-.717-.717-.717s-.717.322-.717.717v.109c0 1.149-.729 2.153-1.859 2.559-.215.077-.424.164-.628.26-1.088.513-2.318.319-3.131-.494l-.073-.072c-.292-.292-.798-.267-1.065.053-.227.273-.174.734.117 1.025.82.82 1.014 2.049.501 3.138-.096.205-.183.414-.26.629-.406 1.129-1.41 1.859-2.559 1.859h-.109c-.395 0-.717.321-.717.717s.322.717.717.717h.109c1.149 0 2.153.729 2.559 1.859.077.214.164.424.26.628.513 1.089.318 2.318-.494 3.131l-.072.073c-.14.14-.216.322-.215.515 0 .188.075.364.208.496.141.143.316.217.504.217h.003c.191 0 .373-.076.51-.213l.076-.076c.511-.51 1.185-.776 1.886-.776z"/><path d="m8.81 16.56c-.619 0-1.215-.243-1.67-.699-.611-.611-.841-1.474-.613-2.308.108-.399.523-.634.921-.526.4.109.635.521.526.921-.121.443.118.743.226.852s.407.349.853.227c.397-.11.813.127.921.526.109.399-.126.812-.526.921-.213.057-.427.086-.638.086z"/><circle cx="13.5" cy="15.5" r="1.5"/><path d="m17.25 12c-.291 0-.568-.17-.69-.455-.102-.237-.309-.301-.394-.317-.083-.017-.3-.035-.483.148l-.403.404c-.293.293-.768.293-1.061 0s-.293-.768 0-1.061l.404-.404c.479-.479 1.16-.688 1.827-.561.665.128 1.222.577 1.489 1.199.163.381-.013.822-.394.985-.096.042-.196.062-.295.062z"/><path d="m8.299 9.74.961.961c.398.398 1.044.398 1.442 0 .398-.398.398-1.044 0-1.442l-.962-.96c-.398-.399-1.043-.399-1.441 0-.399.398-.399 1.043 0 1.441z"/><path d="m14.25 9c-.192 0-.384-.073-.53-.22l-.5-.5c-.293-.293-.293-.768 0-1.061s.768-.293 1.061 0l.5.5c.293.293.293.768 0 1.061-.147.147-.339.22-.531.22z"/></g></svg>