<svg id="_x31__x2C_5" height="512" viewBox="0 0 24 24" width="512" xmlns="http://www.w3.org/2000/svg"><path d="m2.355 13.355-1.252 1.243c-.438.438-.679 1.028-.679 1.645 0 1.287 1.046 2.333 2.333 2.333.617 0 1.207-.241 1.645-.679l1.252-1.243z" fill="#eceff1"/><path d="m17.7 13.25c-1.242 0-2.25 1.008-2.25 2.25s1.008 2.25 2.25 2.25h1.8v-4.5z" fill="#f44336"/><path d="m3.5.411c-1.703 0-3.089 1.385-3.089 3.089 0 .847.344 1.624.909 2.18l4.36-4.36c-.556-.564-1.333-.909-2.18-.909z" fill="#2196f3"/><path d="m5.68 1.32-4.36 4.36c.556.564 1.333.909 2.18.909 1.703 0 3.089-1.385 3.089-3.089 0-.847-.345-1.624-.909-2.18z" fill="#64b5f6"/><path d="m10.418 6.418 4.164 4.164c.539-.531.868-1.273.868-2.082 0-1.627-1.323-2.95-2.95-2.95-.809 0-1.551.329-2.082.868z" fill="#64b5f6"/><path d="m9.55 8.5c0 1.627 1.323 2.95 2.95 2.95.809 0 1.551-.329 2.082-.868l-4.164-4.164c-.539.531-.868 1.273-.868 2.082z" fill="#2196f3"/><path d="m9.325 18.325 4.35 4.35c.564-.555.907-1.33.907-2.175 0-1.699-1.382-3.082-3.082-3.082-.845 0-1.62.344-2.175.907z" fill="#2196f3"/><path d="m8.418 20.5c0 1.699 1.382 3.082 3.082 3.082.845 0 1.62-.343 2.175-.907l-4.35-4.35c-.563.555-.907 1.33-.907 2.175z" fill="#64b5f6"/><path d="m5.243 11.424c-.617 0-1.207.241-1.645.679l-1.243 1.252 3.299 3.299 1.243-1.252c.438-.438.679-1.028.679-1.645 0-1.287-1.046-2.333-2.333-2.333z" fill="#f44336"/><path d="m18.358 5.642 1.242 1.234c.435.435 1.021.675 1.633.675 1.278 0 2.316-1.038 2.316-2.316 0-.612-.24-1.198-.675-1.633l-1.242-1.234z" fill="#eceff1"/><path d="m16.45 2.766c0 .612.24 1.198.675 1.633l1.234 1.242 3.275-3.275-1.234-1.242c-.435-.434-1.021-.674-1.634-.674-1.278 0-2.316 1.038-2.316 2.316z" fill="#f44336"/><path d="m21.3 13.25h-1.8v4.5h1.8c1.242 0 2.25-1.008 2.25-2.25s-1.008-2.25-2.25-2.25z" fill="#eceff1"/><path d="m21.393 8c-.697 0-1.352-.271-1.844-.764l-2.786-2.786c-.492-.492-.763-1.146-.763-1.843 0-1.438 1.169-2.607 2.607-2.607.697 0 1.352.271 1.844.764l2.786 2.786c.492.492.763 1.146.763 1.843 0 1.438-1.169 2.607-2.607 2.607zm-2.786-6.5c-.61 0-1.107.497-1.107 1.107 0 .296.115.574.324.783l2.786 2.786c.209.209.487.324.783.324.61 0 1.107-.497 1.107-1.107 0-.296-.115-.574-.324-.783l-2.786-2.786c-.209-.209-.487-.324-.783-.324z"/><path d="m18.354 3.25h3.292v1.5h-3.292z" transform="matrix(.707 -.707 .707 .707 3.029 15.314)"/><path d="m2.607 19c-1.438 0-2.607-1.169-2.607-2.607 0-.697.271-1.352.764-1.844l2.786-2.786c.492-.492 1.146-.763 1.843-.763 1.438 0 2.607 1.169 2.607 2.607 0 .697-.271 1.352-.764 1.844l-2.786 2.786c-.492.492-1.146.763-1.843.763zm2.786-6.5c-.296 0-.574.115-.783.324l-2.786 2.786c-.209.209-.324.487-.324.783 0 .61.497 1.107 1.107 1.107.296 0 .574-.115.783-.324l2.786-2.786c.209-.209.324-.487.324-.783 0-.61-.497-1.107-1.107-1.107z"/><path d="m3.25 13.354h1.5v3.292h-1.5z" transform="matrix(.707 -.707 .707 .707 -9.435 7.222)"/><path d="m21.5 18h-4c-1.378 0-2.5-1.122-2.5-2.5s1.122-2.5 2.5-2.5h4c1.378 0 2.5 1.122 2.5 2.5s-1.122 2.5-2.5 2.5zm-4-3.5c-.551 0-1 .449-1 1s.449 1 1 1h4c.551 0 1-.449 1-1s-.449-1-1-1z"/><path d="m3.5 7c-1.93 0-3.5-1.57-3.5-3.5s1.57-3.5 3.5-3.5 3.5 1.57 3.5 3.5-1.57 3.5-3.5 3.5zm0-5.5c-1.103 0-2 .897-2 2s.897 2 2 2 2-.897 2-2-.897-2-2-2z"/><path d="m.672 2.75h5.657v1.5h-5.657z" transform="matrix(.707 -.707 .707 .707 -1.45 3.5)"/><path d="m12.5 12c-1.93 0-3.5-1.57-3.5-3.5s1.57-3.5 3.5-3.5 3.5 1.57 3.5 3.5-1.57 3.5-3.5 3.5zm0-5.5c-1.103 0-2 .897-2 2s.897 2 2 2 2-.897 2-2-.897-2-2-2z"/><path d="m11.75 5.672h1.5v5.657h-1.5z" transform="matrix(.707 -.707 .707 .707 -2.349 11.328)"/><path d="m11.5 24c-1.93 0-3.5-1.57-3.5-3.5s1.57-3.5 3.5-3.5 3.5 1.57 3.5 3.5-1.57 3.5-3.5 3.5zm0-5.5c-1.103 0-2 .897-2 2s.897 2 2 2 2-.897 2-2-.897-2-2-2z"/><path d="m10.75 17.672h1.5v5.657h-1.5z" transform="matrix(.707 -.707 .707 .707 -11.127 14.136)"/><path d="m18.75 13.75h1.5v3.5h-1.5z"/></svg>