<?xml version="1.0" encoding="iso-8859-1"?>
<!-- Generator: Adobe Illustrator 19.0.0, SVG Export Plug-In . SVG Version: 6.00 Build 0)  -->
<svg version="1.1" id="Capa_1" xmlns="http://www.w3.org/2000/svg" xmlns:xlink="http://www.w3.org/1999/xlink" x="0px" y="0px"
	 viewBox="0 0 512.114 512.114" style="enable-background:new 0 0 512.114 512.114;" xml:space="preserve">
<path style="fill:#2196F3;" d="M464.114,160.058h-16v-48c0-8.837-7.163-16-16-16h-384c-26.51,0-48,21.49-48,48v288
	c0,26.51,21.49,48,48,48h416c8.837,0,16-7.163,16-16v-288C480.114,167.222,472.951,160.058,464.114,160.058z"/>
<path style="fill:#FAFAFA;" d="M48.114,128.058h368v32h-368c-8.837,0-16-7.163-16-16S39.278,128.058,48.114,128.058z"/>
<path style="fill:#1976D2;" d="M384.114,272.058h96c8.837,0,16,7.163,16,16v64c0,8.837-7.163,16-16,16h-96c-26.51,0-48-21.49-48-48
	l0,0C336.114,293.549,357.604,272.058,384.114,272.058z"/>
<path style="fill:#4CAF50;" d="M410.002,160.058L350.418,40.89c-3.959-7.9-13.572-11.095-21.472-7.136L76.338,160.058H410.002z"/>
<path style="fill:#81C784;" d="M32.114,160.058h313.888L286.418,40.89c-3.959-7.9-13.572-11.095-21.472-7.136L32.114,150.17V160.058
	z"/>
<path d="M464.114,192.058h-416c-10.215-0.13-20.145-3.392-28.448-9.344C-1.683,166.999-6.25,136.952,9.466,115.603
	c9.045-12.287,23.392-19.542,38.649-19.545h96c8.837,0,16,7.163,16,16s-7.163,16-16,16h-96c-8.837,0-16,7.163-16,16
	c0,5.036,2.371,9.778,6.4,12.8c2.815,1.989,6.155,3.102,9.6,3.2h416c8.837,0,16,7.163,16,16S472.951,192.058,464.114,192.058z"/>
<path d="M432.114,192.058c-8.837,0-16-7.163-16-16v-48h-48c-8.837,0-16-7.163-16-16s7.163-16,16-16h64c8.837,0,16,7.163,16,16v64
	C448.114,184.895,440.951,192.058,432.114,192.058z"/>
<path d="M464.114,480.058h-416c-26.51,0-48-21.49-48-48v-288c0-8.837,7.163-16,16-16s16,7.163,16,16v288c0,8.837,7.163,16,16,16h400
	v-80c0-8.837,7.163-16,16-16s16,7.163,16,16v96C480.114,472.895,472.951,480.058,464.114,480.058z"/>
<path d="M464.114,288.058c-8.837,0-16-7.163-16-16v-96c0-8.837,7.163-16,16-16s16,7.163,16,16v96
	C480.114,280.895,472.951,288.058,464.114,288.058z"/>
<path d="M496.114,384.058h-112c-35.346,0-64-28.654-64-64s28.654-64,64-64h112c8.837,0,16,7.163,16,16v96
	C512.114,376.895,504.951,384.058,496.114,384.058z M384.114,288.058c-17.673,0-32,14.327-32,32s14.327,32,32,32h96v-64H384.114z"/>
<path d="M400.114,192.058c-6.055,0-11.591-3.419-14.304-8.832L328.946,69.53l-36.864,18.432c-7.931,3.898-17.519,0.628-21.417-7.302
	c-3.855-7.844-0.702-17.33,7.081-21.306l51.2-25.6c7.9-3.958,17.513-0.764,21.472,7.136l64,128c3.959,7.9,0.764,17.514-7.137,21.473
	C405.057,191.478,402.603,192.058,400.114,192.058z"/>
<path d="M336.114,192.058c-6.055,0-11.591-3.419-14.304-8.832L264.946,69.53L23.282,190.362c-7.869,4.02-17.507,0.899-21.527-6.97
	c-4.02-7.869-0.899-17.507,6.97-21.527c0.074-0.038,0.147-0.075,0.221-0.111l256-128c7.9-3.958,17.513-0.764,21.472,7.136l64,128
	c3.959,7.9,0.764,17.514-7.137,21.473C341.057,191.478,338.603,192.058,336.114,192.058z"/>
<g>
</g>
<g>
</g>
<g>
</g>
<g>
</g>
<g>
</g>
<g>
</g>
<g>
</g>
<g>
</g>
<g>
</g>
<g>
</g>
<g>
</g>
<g>
</g>
<g>
</g>
<g>
</g>
<g>
</g>
</svg>
