<svg id="_x31__x2C_5_1_" height="512" viewBox="0 0 24 24" width="512" xmlns="http://www.w3.org/2000/svg"><path d="m21.294 4.655c-5.372 2.749-8.434 7.137-9.306 13.153 5.232-2.846 8.325-7.22 9.306-13.153z" fill="#4caf50"/><path d="m19.337 21.247c-1.138-2.612-3.573-3.71-7.357-3.455 1.515 2.844 3.918 3.505 7.357 3.455z" fill="#4caf50"/><path d="m12 17.833c3.342-3.091 7.092-3.905 11.25-2.44-3.424 2.928-7.174 3.742-11.25 2.44z" fill="#66bb6a"/><path d="m2.706 4.655c5.372 2.749 8.434 7.137 9.306 13.153-5.232-2.846-8.325-7.22-9.306-13.153z" fill="#4caf50"/><path d="m4.663 21.247c1.138-2.612 3.573-3.71 7.357-3.455-1.515 2.844-3.918 3.505-7.357 3.455z" fill="#4caf50"/><path d="m12 17.833c-3.342-3.091-7.092-3.905-11.25-2.44 3.424 2.928 7.174 3.742 11.25 2.44z" fill="#66bb6a"/><path d="m12 17.833c3.261-5.694 3.261-11.389 0-17.083-3.261 5.694-3.261 11.389 0 17.083z" fill="#81c784"/><path d="m12 18.583c-.269 0-.517-.144-.651-.377-3.387-5.916-3.387-11.914 0-17.829.268-.467 1.034-.467 1.302 0 3.387 5.915 3.387 11.913 0 17.829-.134.233-.382.377-.651.377zm0-16.235c-2.28 4.661-2.28 9.227 0 13.887 2.28-4.66 2.28-9.226 0-13.887z"/><path d="m8.712 16.338c-.17 0-.341-.058-.481-.175-3.377-2.833-5.484-6.664-6.264-11.386-.047-.279.069-.561.297-.728.229-.167.531-.19.784-.062 3.154 1.614 5.592 3.816 7.246 6.546.214.354.101.815-.253 1.03-.354.212-.815.102-1.03-.253-1.254-2.07-3.013-3.813-5.24-5.195.894 3.636 2.714 6.624 5.424 8.898.317.267.359.739.093 1.057-.149.177-.361.268-.576.268z"/><path d="m8.333 19.183c-2.861 0-5.563-1.076-8.07-3.22-.204-.174-.299-.444-.25-.708.049-.263.235-.48.488-.57 4.421-1.557 8.462-.683 12.008 2.597.196.181.281.453.223.713-.058.261-.25.471-.504.552-1.327.425-2.627.636-3.895.636zm-5.966-3.482c2.518 1.765 5.169 2.351 8.04 1.774-2.472-1.861-5.123-2.446-8.04-1.774z"/><path d="m5.034 22c-.127 0-.254 0-.382-.002-.251-.003-.483-.132-.62-.343-.136-.211-.157-.476-.057-.706.659-1.513 1.729-2.605 3.182-3.247.379-.167.821.004.989.383.167.379-.004.822-.383.989-.734.324-1.328.787-1.793 1.401 2.794-.155 4.307-1.029 5.369-3 .197-.366.652-.501 1.016-.304.365.197.501.652.304 1.016-1.768 3.281-4.684 3.813-7.625 3.813z"/><path d="m15.288 16.338c-.214 0-.427-.091-.575-.268-.266-.317-.225-.79.093-1.057 2.71-2.274 4.531-5.262 5.424-8.898-2.228 1.383-3.986 3.125-5.24 5.195-.215.354-.677.465-1.03.253-.354-.215-.467-.676-.253-1.03 1.654-2.729 4.091-4.932 7.246-6.546.252-.128.556-.105.784.062.229.167.344.448.297.728-.78 4.722-2.888 8.553-6.264 11.386-.141.117-.312.175-.482.175z"/><path d="m15.667 19.183c-1.268 0-2.568-.211-3.895-.635-.254-.081-.446-.291-.504-.552-.058-.26.027-.532.223-.713 3.547-3.28 7.586-4.153 12.008-2.597.253.089.439.307.488.57.049.264-.046.533-.25.708-2.507 2.143-5.209 3.219-8.07 3.219zm-2.073-1.708c2.872.576 5.522-.008 8.04-1.774-2.92-.673-5.569-.086-8.04 1.774z"/><path d="m18.966 22c-2.941 0-5.856-.532-7.626-3.813-.197-.364-.061-.819.304-1.016.364-.197.819-.062 1.016.304 1.063 1.97 2.576 2.844 5.369 3-.466-.614-1.059-1.077-1.793-1.401-.379-.167-.55-.61-.383-.989.168-.378.61-.55.989-.383 1.453.642 2.523 1.734 3.182 3.247.1.23.079.495-.057.706s-.369.34-.62.343c-.127.002-.254.002-.381.002z"/><path d="m12 24c-.414 0-.75-.336-.75-.75v-5.25c0-.414.336-.75.75-.75s.75.336.75.75v5.25c0 .414-.336.75-.75.75z"/></svg>