<?xml version="1.0" encoding="iso-8859-1"?>
<!-- Generator: Adobe Illustrator 19.0.0, SVG Export Plug-In . SVG Version: 6.00 Build 0)  -->
<svg version="1.1" id="Capa_1" xmlns="http://www.w3.org/2000/svg" xmlns:xlink="http://www.w3.org/1999/xlink" x="0px" y="0px"
	 viewBox="0 0 511.985 511.985" style="enable-background:new 0 0 511.985 511.985;" xml:space="preserve">
<g>
	<path style="fill:#2196F3;" d="M164.632,364.981l77.824,123.552c4.712,7.476,14.591,9.717,22.067,5.005
		c2.021-1.274,3.731-2.984,5.005-5.005l77.824-123.552C292.58,326.321,219.405,326.321,164.632,364.981L164.632,364.981z"/>
	<path style="fill:#2196F3;" d="M113.368,283.541l34.112,54.208c65.329-45.01,151.663-45.01,216.992,0l34.144-54.4
		c-86.224-58.046-199.024-58.046-285.248,0L113.368,283.541z"/>
	<path style="fill:#2196F3;" d="M45.24,175.349c127.801-84.483,293.703-84.483,421.504,0l42.784-67.968
		c4.703-7.481,2.451-17.358-5.03-22.061c-0.062-0.039-0.123-0.077-0.186-0.115c-152.682-92.298-343.958-92.298-496.64,0
		c-7.545,4.6-9.931,14.446-5.331,21.99c0.038,0.062,0.076,0.124,0.115,0.186L45.24,175.349z"/>
	<path style="fill:#2196F3;" d="M62.264,202.389l34.048,54.08c96.63-64.637,222.698-64.637,319.328,0l34.08-54.08
		C332.305,124.523,179.68,124.523,62.264,202.389L62.264,202.389z"/>
</g>
<path d="M342.392,359.029c-2.8,0.013-5.552-0.728-7.968-2.144c-48.701-27.303-108.099-27.303-156.8,0
	c-7.623,4.469-17.426,1.912-21.895-5.712c-4.469-7.623-1.912-17.426,5.712-21.895c0.061-0.036,0.122-0.071,0.183-0.106
	c58.611-32.985,130.189-32.985,188.8,0c7.652,4.419,10.274,14.204,5.855,21.857c-2.852,4.94-8.119,7.988-13.823,7.999
	L342.392,359.029z"/>
<path d="M393.592,277.429c-2.849,0.01-5.647-0.753-8.096-2.208c-80.188-46.077-178.82-46.077-259.008,0
	c-7.753,4.24-17.475,1.392-21.715-6.36c-4.059-7.422-1.639-16.722,5.523-21.224c90.204-51.875,201.187-51.875,291.392,0
	c7.617,4.479,10.161,14.285,5.681,21.903C404.498,274.423,399.258,277.424,393.592,277.429L393.592,277.429z"/>
<path d="M444.792,196.149c-2.886-0.005-5.716-0.79-8.192-2.272c-111.557-65.28-249.659-65.28-361.216,0
	c-7.591,4.533-17.419,2.055-21.952-5.536c-4.533-7.591-2.055-17.419,5.536-21.952c121.701-71.198,272.347-71.198,394.048,0
	c7.582,4.539,10.048,14.365,5.51,21.946c-2.891,4.829-8.106,7.784-13.734,7.782L444.792,196.149z"/>
<path d="M255.992,495.989c-5.493,0.003-10.603-2.812-13.536-7.456l-240-381.152C-2.246,99.9,0.006,90.023,7.487,85.32
	c0.062-0.039,0.123-0.077,0.185-0.115c152.682-92.298,343.958-92.298,496.64,0c7.545,4.6,9.931,14.446,5.331,21.99
	c-0.038,0.062-0.076,0.124-0.115,0.186l-240,381.152C266.595,493.177,261.485,495.992,255.992,495.989z M38.392,104.341
	l217.6,345.632l217.6-345.6C337.918,30.56,174.078,30.548,38.392,104.341z"/>
<g>
</g>
<g>
</g>
<g>
</g>
<g>
</g>
<g>
</g>
<g>
</g>
<g>
</g>
<g>
</g>
<g>
</g>
<g>
</g>
<g>
</g>
<g>
</g>
<g>
</g>
<g>
</g>
<g>
</g>
</svg>
