<svg id="_x31__x2C_5" height="512" viewBox="0 0 24 24" width="512" xmlns="http://www.w3.org/2000/svg"><circle cx="12" cy="10" fill="#607d8b" r="1.5"/><g fill="#cfd8dc"><path d="m10.497 10.245-5.362 1.528c-1.185.338-1.736 1.695-1.12 2.759.616 1.064 2.072 1.267 2.958.413l4.009-3.863z"/><path d="m13.503 10.245 5.362 1.528c1.185.338 1.736 1.695 1.12 2.759-.616 1.064-2.072 1.267-2.958.413l-4.009-3.863z"/><path d="m12.485 8.487 1.353-5.392c.299-1.191-.605-2.345-1.838-2.345-1.233 0-2.137 1.154-1.838 2.346l1.353 5.392h.97z"/></g><path d="m11.5 11.5-1.25 3h3.5l-1.25-3z" fill="#90a4ae"/><path d="m10.25 14.5h3.5v6.75h-3.5z" fill="#607d8b"/><path d="m16.5 23.25h-9l1-2h7z" fill="#cfd8dc"/><path d="m12 12.25c-1.241 0-2.25-1.009-2.25-2.25s1.009-2.25 2.25-2.25 2.25 1.009 2.25 2.25-1.009 2.25-2.25 2.25zm0-3c-.414 0-.75.336-.75.75s.336.75.75.75.75-.336.75-.75-.336-.75-.75-.75z"/><path d="m5.662 16.227c-.124 0-.249-.009-.375-.026-.811-.114-1.511-.585-1.921-1.292s-.469-1.547-.163-2.305c.307-.76.936-1.326 1.726-1.551l5.362-1.528c.398-.112.813.117.927.516.032.113.037.228.018.337.105.038.204.1.287.186.288.298.279.773-.02 1.061l-4.009 3.863c-.5.478-1.152.739-1.832.739zm4.074-4.986-4.396 1.253c-.342.098-.614.342-.747.67-.131.326-.106.688.07.992.177.306.48.51.832.559.354.046.701-.064.957-.31z"/><path d="m18.338 16.227c-.681 0-1.333-.261-1.831-.741l-4.01-3.863c-.298-.288-.307-.762-.02-1.061.083-.086.182-.148.287-.186-.019-.109-.015-.224.018-.337.113-.399.528-.627.927-.516l5.362 1.528c.79.225 1.419.791 1.726 1.551.306.758.247 1.598-.163 2.305-.41.708-1.11 1.179-1.921 1.292-.126.019-.251.028-.375.028zm-4.074-4.986 3.284 3.164c.255.246.601.357.957.31.352-.049.655-.253.832-.559.176-.304.202-.666.07-.992-.133-.328-.405-.572-.747-.67z"/><path d="m12.486 9.237c-.061 0-.122-.007-.183-.022-.115-.029-.218-.084-.303-.156-.085.072-.188.127-.303.156-.402.1-.809-.144-.91-.545l-1.352-5.392c-.199-.792-.025-1.616.478-2.26.504-.647 1.265-1.018 2.087-1.018s1.583.371 2.087 1.018c.503.644.677 1.468.479 2.26l-1.353 5.392c-.086.34-.391.567-.727.567zm-.486-7.737c-.356 0-.686.161-.904.44-.216.277-.292.632-.206.973l1.11 4.427 1.11-4.427c.085-.34.01-.695-.206-.973-.218-.279-.548-.44-.904-.44z"/><path d="m13.75 15.25h-3.5c-.251 0-.485-.125-.624-.334s-.165-.473-.068-.705l1.25-3c.16-.382.6-.562.981-.404.08.033.15.079.211.133.061-.055.132-.1.211-.133.381-.159.821.021.981.404l1.25 3c.096.231.071.496-.068.705s-.373.334-.624.334zm-2.375-1.5h1.25l-.625-1.5z"/><path d="m13.75 22h-3.5c-.414 0-.75-.336-.75-.75v-6.75c0-.414.336-.75.75-.75h3.5c.414 0 .75.336.75.75v6.75c0 .414-.336.75-.75.75zm-2.75-1.5h2v-5.25h-2z"/><path d="m20.25 24h-16.5c-.414 0-.75-.336-.75-.75s.336-.75.75-.75h16.5c.414 0 .75.336.75.75s-.336.75-.75.75z"/><path d="m16.5 24h-9c-.26 0-.501-.135-.638-.355-.136-.221-.149-.498-.033-.73l1-2c.127-.254.387-.415.671-.415h7c.284 0 .544.161.671.415l1 2c.116.232.104.509-.033.73-.137.22-.378.355-.638.355zm-7.787-1.5h6.573l-.25-.5h-6.073z"/></svg>