<?xml version="1.0" encoding="iso-8859-1"?>
<!-- Generator: Adobe Illustrator 19.0.0, SVG Export Plug-In . SVG Version: 6.00 Build 0)  -->
<svg version="1.1" id="Capa_1" xmlns="http://www.w3.org/2000/svg" xmlns:xlink="http://www.w3.org/1999/xlink" x="0px" y="0px"
	 viewBox="0 0 512 512" style="enable-background:new 0 0 512 512;" xml:space="preserve">
<path style="fill:#FAFAFA;" d="M415.04,160H96.96c0.442-6.467,1.405-12.888,2.88-19.2L128,16h256l28.16,124.8
	C413.635,147.112,414.598,153.533,415.04,160z"/>
<path style="fill:#F44336;" d="M416,176c0,88.366-71.634,160-160,160S96,264.366,96,176c-0.009-5.348,0.312-10.691,0.96-16h318.08
	C415.689,165.309,416.009,170.652,416,176z"/>
<path style="fill:#ECEFF1;" d="M256,352c-97.158-0.106-175.894-78.842-176-176c-0.054-13.037,1.374-26.038,4.256-38.752
	c0.066-0.346,0.152-0.688,0.256-1.024l27.872-123.712C114.018,5.199,120.507,0,128,0h256c7.471,0.011,13.94,5.192,15.584,12.48
	l27.904,123.808c0.104,0.315,0.19,0.635,0.256,0.96c2.867,12.717,4.294,25.716,4.256,38.752
	C431.895,273.158,353.159,351.894,256,352z M115.2,145.28c-2.176,10.094-3.249,20.394-3.2,30.72c0,79.529,64.471,144,144,144
	s144-64.471,144-144c0.063-10.348-1.01-20.671-3.2-30.784l-0.224-1.024L371.2,32H140.8l-25.28,112.192L115.2,145.28z"/>
<path d="M256,352c-97.158-0.106-175.894-78.842-176-176c-0.038-13.036,1.389-26.035,4.256-38.752
	c0.066-0.346,0.152-0.688,0.256-1.024l27.904-123.712C114.047,5.211,120.519,0.015,128,0h256c7.471,0.011,13.94,5.192,15.584,12.48
	l27.904,123.808c0.104,0.315,0.19,0.635,0.256,0.96c2.867,12.717,4.294,25.716,4.256,38.752
	C431.895,273.158,353.159,351.894,256,352z M115.2,145.28c-2.192,10.091-3.265,20.394-3.2,30.72c0,79.529,64.471,144,144,144
	s144-64.471,144-144c0.063-10.348-1.01-20.671-3.2-30.784l-0.224-1.024L371.2,32H140.8l-25.28,112.192
	C115.424,144.576,115.2,144.928,115.2,145.28z"/>
<path d="M336,512H176c-8.837,0-16-7.163-16-16s7.163-16,16-16h160c8.837,0,16,7.163,16,16S344.837,512,336,512z"/>
<path d="M256,512c-8.837,0-16-7.163-16-16V336c0-8.837,7.163-16,16-16c8.837,0,16,7.163,16,16v160C272,504.837,264.837,512,256,512z
	"/>
<path d="M416,192H96c-8.837,0-16-7.163-16-16s7.163-16,16-16h320c8.837,0,16,7.163,16,16S424.837,192,416,192z"/>
<g>
</g>
<g>
</g>
<g>
</g>
<g>
</g>
<g>
</g>
<g>
</g>
<g>
</g>
<g>
</g>
<g>
</g>
<g>
</g>
<g>
</g>
<g>
</g>
<g>
</g>
<g>
</g>
<g>
</g>
</svg>
