<svg enable-background="new 0 0 24 24" height="512" viewBox="0 0 24 24" width="512" xmlns="http://www.w3.org/2000/svg"><g id="Color"><g><path d="m1.75 6h12.5c.965 0 1.75-.785 1.75-1.75v-2.5c0-.965-.785-1.75-1.75-1.75h-12.5c-.965 0-1.75.785-1.75 1.75v2.5c0 .965.785 1.75 1.75 1.75z" fill="#03a9f4"/></g><g><path d="m22.25 8h-12.5c-.96 0-1.75.79-1.75 1.75v12.5c0 .96.79 1.75 1.75 1.75h12.5c.96 0 1.75-.79 1.75-1.75v-12.5c0-.96-.79-1.75-1.75-1.75z" fill="#eceff1"/></g><g><path d="m20 15.5c0 .28-.16.54-.42.67l-5.5 2.75c-.1.05-.22.08-.33.08-.14 0-.27-.04-.39-.11-.23-.14-.36-.38-.36-.64v-5.5c0-.26.13-.5.36-.64.22-.14.49-.15.72-.03l5.5 2.75c.26.13.42.39.42.67z" fill="#f44336"/></g><g><circle cx="3" cy="20.5" fill="#90a4ae" r="3"/></g></g><g id="regular"><g><g><path d="m20.5 5c-1.379 0-2.5-1.121-2.5-2.5s1.121-2.5 2.5-2.5 2.5 1.121 2.5 2.5-1.121 2.5-2.5 2.5zm0-3.5c-.552 0-1 .448-1 1s.448 1 1 1 1-.448 1-1-.448-1-1-1z"/></g><g><path d="m23.25 6c-.192 0-.384-.073-.53-.22l-1.35-1.35c-.293-.293-.293-.768 0-1.061s.768-.293 1.061 0l1.35 1.35c.293.293.293.768 0 1.061-.147.147-.339.22-.531.22z"/></g></g><g><path d="m14.25 6h-12.5c-.965 0-1.75-.785-1.75-1.75v-2.5c0-.965.785-1.75 1.75-1.75h12.5c.965 0 1.75.785 1.75 1.75v2.5c0 .965-.785 1.75-1.75 1.75zm-12.5-4.5c-.138 0-.25.112-.25.25v2.5c0 .138.112.25.25.25h12.5c.138 0 .25-.112.25-.25v-2.5c0-.138-.112-.25-.25-.25z"/></g><g><path d="m22.25 24h-12.5c-.965 0-1.75-.785-1.75-1.75v-12.5c0-.965.785-1.75 1.75-1.75h12.5c.965 0 1.75.785 1.75 1.75v12.5c0 .965-.785 1.75-1.75 1.75zm-12.5-14.5c-.138 0-.25.112-.25.25v12.5c0 .138.112.25.25.25h12.5c.138 0 .25-.112.25-.25v-12.5c0-.138-.112-.25-.25-.25z"/></g><g><path d="m13.75 19c-.137 0-.273-.037-.395-.112-.22-.137-.355-.378-.355-.638v-5.5c0-.26.135-.501.355-.638.223-.138.498-.148.729-.033l5.5 2.75c.256.127.416.387.416.671s-.16.544-.415.671l-5.5 2.75c-.106.053-.221.079-.335.079zm.75-5.036v3.072l3.073-1.536z"/></g><g><path d="m3 23.5c-1.654 0-3-1.346-3-3s1.346-3 3-3 3 1.346 3 3-1.346 3-3 3zm0-4.5c-.827 0-1.5.673-1.5 1.5s.673 1.5 1.5 1.5 1.5-.673 1.5-1.5-.673-1.5-1.5-1.5z"/></g><g><path d="m5.25 12.5h-4.5c-.414 0-.75-.336-.75-.75s.336-.75.75-.75h4.5c.414 0 .75.336.75.75s-.336.75-.75.75z"/></g><g><path d="m5.25 9.5h-4.5c-.414 0-.75-.336-.75-.75s.336-.75.75-.75h4.5c.414 0 .75.336.75.75s-.336.75-.75.75z"/></g><g><path d="m5.25 15.5h-4.5c-.414 0-.75-.336-.75-.75s.336-.75.75-.75h4.5c.414 0 .75.336.75.75s-.336.75-.75.75z"/></g></g></svg>