<svg enable-background="new 0 0 24 24" height="512" viewBox="0 0 24 24" width="512" xmlns="http://www.w3.org/2000/svg"><path d="m22.8 19.92v2.205c0 .373-.302.675-.675.675h-20.25c-.373 0-.675-.302-.675-.675v-2.205z" fill="#ffb74d"/><path d="m22.8 1.875v2.205h-21.6v-2.205c0-.373.302-.675.675-.675h20.25c.373 0 .675.302.675.675z" fill="#ffb74d"/><path d="m4.08 8.506v11.414h-2.88v-13.44z" fill="#ffcc80"/><path d="m22.8 17.76v2.16h-2.506l-4.214-2.966-8.16-5.741-3.84-2.707-2.88-2.026v-2.4h2.16l4.56 3.206 4.08 2.871 4.08 2.87 3.84 2.707z" fill="#ffa726"/><path d="m22.8 4.08v13.68l-2.88-2.026v-11.654z" fill="#ffe0b2"/><path d="m19.92 19.661v.259h-3.84v-2.966z" fill="#ffcc80"/><path d="m16.08 16.954v2.966h-4.08v-5.837z" fill="#ffe0b2"/><path d="m12 14.083v5.837h-4.08v-8.707z" fill="#ffcc80"/><path d="m7.92 11.213v8.707h-3.84v-11.414z" fill="#ffe0b2"/><path d="m7.92 4.08v3.206l-3.84-2.697v-.509z" fill="#ffe0b2"/><path d="m12 4.08v6.077l-4.08-2.871v-3.206z" fill="#ffcc80"/><path d="m16.08 4.08v8.947l-4.08-2.87v-6.077z" fill="#ffe0b2"/><path d="m19.92 4.08v11.654l-3.84-2.707v-8.947z" fill="#ffcc80"/><path d="m23.25 24h-22.5c-.414 0-.75-.336-.75-.75v-22.5c0-.414.336-.75.75-.75h22.5c.414 0 .75.336.75.75v22.5c0 .414-.336.75-.75.75zm-21.75-1.5h21v-21h-21z"/><path d="m16.25 21c-.414 0-.75-.336-.75-.75v-2.68c0-.414.336-.75.75-.75s.75.336.75.75v2.68c0 .414-.336.75-.75.75z"/><path d="m16.25 13.8c-.414 0-.75-.336-.75-.75v-9.3c0-.414.336-.75.75-.75s.75.336.75.75v9.3c0 .414-.336.75-.75.75z"/><path d="m20.25 16.63c-.414 0-.75-.336-.75-.75v-12.13c0-.414.336-.75.75-.75s.75.336.75.75v12.13c0 .414-.336.75-.75.75z"/><path d="m12 21c-.414 0-.75-.336-.75-.75v-5.87c0-.414.336-.75.75-.75s.75.336.75.75v5.87c0 .414-.336.75-.75.75z"/><path d="m12 10.62c-.414 0-.75-.336-.75-.75v-6.12c0-.414.336-.75.75-.75s.75.336.75.75v6.12c0 .414-.336.75-.75.75z"/><path d="m7.75 21c-.414 0-.75-.336-.75-.75v-9.05c0-.414.336-.75.75-.75s.75.336.75.75v9.05c0 .414-.336.75-.75.75z"/><path d="m7.75 7.43c-.414 0-.75-.336-.75-.75v-2.93c0-.414.336-.75.75-.75s.75.336.75.75v2.93c0 .414-.336.75-.75.75z"/><path d="m3.75 21c-.414 0-.75-.336-.75-.75v-11.88c0-.414.336-.75.75-.75s.75.336.75.75v11.88c0 .414-.336.75-.75.75z"/><path d="m23.25 4.5h-22.5c-.414 0-.75-.336-.75-.75s.336-.75.75-.75h22.5c.414 0 .75.336.75.75s-.336.75-.75.75z"/><path d="m23.25 21h-22.5c-.414 0-.75-.336-.75-.75s.336-.75.75-.75h22.5c.414 0 .75.336.75.75s-.336.75-.75.75z"/><path d="m23.249 18.75c-.148 0-.3-.044-.431-.137l-20.25-14.25c-.339-.238-.42-.706-.182-1.045.236-.337.704-.424 1.045-.182l20.25 14.25c.339.238.42.706.182 1.045-.145.208-.378.319-.614.319z"/><path d="m20.644 21c-.148 0-.3-.044-.431-.137l-19.895-14c-.339-.238-.42-.706-.182-1.045.237-.338.706-.422 1.046-.181l19.895 14c.339.238.42.706.182 1.045-.147.207-.379.318-.615.318z"/></svg>