<svg id="_x31__x2C_5" height="512" viewBox="0 0 24 24" width="512" xmlns="http://www.w3.org/2000/svg"><path d="m17.5 23c-3.033 0-5.5-2.467-5.5-5.5s2.467-5.5 5.5-5.5 5.5 2.467 5.5 5.5-2.467 5.5-5.5 5.5z" fill="#607d8b"/><path d="m17.5 24c-3.584 0-6.5-2.916-6.5-6.5s2.916-6.5 6.5-6.5 6.5 2.916 6.5 6.5-2.916 6.5-6.5 6.5zm0-11.5c-2.757 0-5 2.243-5 5s2.243 5 5 5 5-2.243 5-5-2.243-5-5-5z"/><path d="m15.548 12.575c-.312 0-.603-.195-.709-.507l-3.798-11.075c-.135-.392.074-.818.466-.953.39-.133.818.074.952.466l3.798 11.075c.135.392-.074.818-.466.953-.08.029-.162.041-.243.041z"/><path d="m8.751 20c-.013 0-.026 0-.039-.001-3.885-.196-6.711-2.3-8.642-6.432-.175-.375-.013-.822.362-.997.373-.176.82-.013.997.362 1.673 3.582 4.08 5.403 7.358 5.568.413.021.731.373.711.787-.019.401-.351.713-.747.713z"/><path d="m9.25 17c-.075 0-.152-.011-.229-.036-3.534-1.129-4.312-1.712-6.393-4.794-.232-.343-.142-.81.201-1.042.344-.232.81-.141 1.041.202 1.885 2.791 2.408 3.184 5.607 4.206.395.126.612.548.486.943-.101.318-.396.521-.713.521z"/><path d="m9.75 14c-.091 0-.183-.016-.271-.051-2.271-.883-2.69-1.315-4.301-3.214-.268-.316-.229-.789.087-1.057.317-.266.789-.23 1.058.087 1.511 1.781 1.705 2.01 3.699 2.786.387.15.577.585.428.971-.116.296-.4.478-.7.478z"/></svg>