<svg id="_x31__x2C_5_px" height="512" viewBox="0 0 24 24" width="512" xmlns="http://www.w3.org/2000/svg"><path d="m16.758 1.254h-9.516c-1.374 0-2.492 1.118-2.492 2.492v6.57c0 .375.304.68.68.68h13.14c.375 0 .68-.304.68-.68v-6.57c0-1.374-1.118-2.492-2.492-2.492z" fill="#cfd8dc"/><path d="m20.25 10.75h-3.583l-.561 1.295c-.317.731-1.038 1.205-1.835 1.205h-4.541c-.797 0-1.518-.473-1.835-1.205l-.562-1.295h-3.583c-.552 0-1 .448-1 1v7.5c0 1.657 1.343 3 3 3h12.5c1.657 0 3-1.343 3-3v-7.5c0-.552-.448-1-1-1z" fill="#607d8b"/><path d="m9.942 13.25h4.117c.861 0 1.625-.231 1.897-.86l.711-1.64h-9.334l.711 1.64c.272.629 1.037.86 1.898.86z" fill="#fff"/><path d="m18.25 23h-12.5c-2.067 0-3.75-1.682-3.75-3.75v-7.5c0-.965.785-1.75 1.75-1.75h16.5c.965 0 1.75.785 1.75 1.75v7.5c0 2.068-1.683 3.75-3.75 3.75zm-14.5-11.5c-.138 0-.25.112-.25.25v7.5c0 1.241 1.01 2.25 2.25 2.25h12.5c1.24 0 2.25-1.009 2.25-2.25v-7.5c0-.138-.112-.25-.25-.25z"/><path d="m19.25 11.5c-.414 0-.75-.336-.75-.75v-7.25c0-.689-.561-1.25-1.25-1.25h-10.5c-.689 0-1.25.561-1.25 1.25v7.25c0 .414-.336.75-.75.75s-.75-.336-.75-.75v-7.25c0-1.517 1.233-2.75 2.75-2.75h10.5c1.517 0 2.75 1.233 2.75 2.75v7.25c0 .414-.336.75-.75.75z"/><path d="m2.75 14h-2c-.414 0-.75-.336-.75-.75s.336-.75.75-.75h2c.414 0 .75.336.75.75s-.336.75-.75.75z"/><path d="m23.25 14h-2c-.414 0-.75-.336-.75-.75s.336-.75.75-.75h2c.414 0 .75.336.75.75s-.336.75-.75.75z"/><path d="m14.059 14h-4.118c-1.313 0-2.264-.594-2.609-1.63l-.461-1.382c-.131-.393.082-.818.475-.949.396-.133.817.082.949.474l.461 1.382c.05.149.201.605 1.186.605h4.117c.984 0 1.136-.456 1.186-.605l.461-1.382c.132-.392.552-.607.949-.474.393.131.605.556.475.949l-.461 1.382c-.347 1.036-1.298 1.63-2.61 1.63z"/><path d="m6.25 17h-.5c-.414 0-.75-.336-.75-.75s.336-.75.75-.75h.5c.414 0 .75.336.75.75s-.336.75-.75.75z"/><path d="m18.25 17h-.5c-.414 0-.75-.336-.75-.75s.336-.75.75-.75h.5c.414 0 .75.336.75.75s-.336.75-.75.75z"/><path d="m14.25 17h-.5c-.414 0-.75-.336-.75-.75s.336-.75.75-.75h.5c.414 0 .75.336.75.75s-.336.75-.75.75z"/><path d="m10.25 17h-.5c-.414 0-.75-.336-.75-.75s.336-.75.75-.75h.5c.414 0 .75.336.75.75s-.336.75-.75.75z"/><path d="m8.25 20h-.5c-.414 0-.75-.336-.75-.75s.336-.75.75-.75h.5c.414 0 .75.336.75.75s-.336.75-.75.75z"/><path d="m16.25 20h-.5c-.414 0-.75-.336-.75-.75s.336-.75.75-.75h.5c.414 0 .75.336.75.75s-.336.75-.75.75z"/><path d="m12.25 20h-.5c-.414 0-.75-.336-.75-.75s.336-.75.75-.75h.5c.414 0 .75.336.75.75s-.336.75-.75.75z"/></svg>