<svg id="Regular" height="512" viewBox="0 0 24 24" width="512" xmlns="http://www.w3.org/2000/svg"><path d="m12.75 13.25-4-4c-1.574 1.574-3.797 2.315-6 2l-2 10 10-2c-.315-2.203.426-4.426 2-6z" fill="#cfd8dc"/><circle cx="6" cy="16" fill="#607d8b" r="1.5"/><path d="m16 0-7.5 9.5 4 4 11.5-9.5v-4z" fill="#cfd8dc"/><path d="m13.5 15.25c-.192 0-.384-.073-.53-.22l-6-6c-.293-.293-.293-.768 0-1.061s.768-.293 1.061 0l6 6c.293.293.293.768 0 1.061-.147.147-.339.22-.531.22z"/><path d="m.75 22c-.197 0-.388-.078-.53-.22-.177-.177-.254-.432-.205-.677l2-10c.078-.391.452-.652.841-.596 1.96.283 3.964-.388 5.364-1.787.293-.293.768-.293 1.061 0s.293.768 0 1.061c-1.563 1.563-3.727 2.396-5.928 2.28l-1.646 8.233 8.233-1.646c-.109-2.191.717-4.365 2.28-5.928.293-.293.768-.293 1.061 0s.293.768 0 1.061c-1.399 1.399-2.068 3.405-1.788 5.364.056.394-.205.763-.596.841l-10 2c-.049.009-.098.014-.147.014z"/><path d="m.75 22c-.192 0-.384-.073-.53-.22-.293-.293-.293-.768 0-1.061l4-4c.293-.293.768-.293 1.061 0s.293.768 0 1.061l-4 4c-.147.147-.339.22-.531.22z"/><path d="m6 18.25c-1.241 0-2.25-1.009-2.25-2.25s1.009-2.25 2.25-2.25 2.25 1.009 2.25 2.25-1.009 2.25-2.25 2.25zm0-3c-.414 0-.75.336-.75.75s.336.75.75.75.75-.336.75-.75-.336-.75-.75-.75z"/><path d="m12.5 14.25c-.218 0-.434-.094-.582-.276-.262-.321-.213-.794.108-1.055l10.75-8.75c.321-.262.793-.214 1.055.108.262.321.213.794-.108 1.055l-10.75 8.75c-.139.113-.306.168-.473.168z"/><path d="m8.5 10.25c-.16 0-.321-.051-.458-.156-.328-.253-.389-.724-.136-1.052l6.75-8.75c.253-.328.725-.39 1.052-.136.328.253.389.724.136 1.052l-6.75 8.75c-.148.191-.37.292-.594.292z"/><path d="m21.763 24h-16.513c-.414 0-.75-.336-.75-.75s.336-.75.75-.75h16.513c.336 0 .737-.081.737-.466 0-.592-.151-.646-.232-.674l-5.138-1.809c-.882-.312-1.475-1.144-1.475-2.071 0-.905.549-1.707 1.397-2.042l3.948-1.395c.39-.139.819.067.957.457.138.391-.066.819-.457.957l-3.922 1.386c-.247.098-.423.352-.423.637 0 .292.19.556.474.656l5.137 1.809c.819.288 1.234.991 1.234 2.089 0 1.157-.92 1.966-2.237 1.966z"/></svg>