<svg enable-background="new 0 0 24 24" height="512" viewBox="0 0 24 24" width="512" xmlns="http://www.w3.org/2000/svg"><g id="color"><g><path d="m21.25 4h-18.5c-1.517 0-2.75 1.233-2.75 2.75v10.5c0 1.517 1.233 2.75 2.75 2.75h18.5c1.517 0 2.75-1.233 2.75-2.75v-10.5c0-1.517-1.233-2.75-2.75-2.75z" fill="#4db6ac"/></g></g><g id="regular"><g><path d="m12 11.75c-.221 0-.43-.097-.573-.266l-2.75-3.25c-.267-.316-.228-.789.089-1.057.316-.268.79-.227 1.057.088l2.177 2.574 2.177-2.573c.267-.316.741-.357 1.057-.088.316.268.356.741.088 1.057l-2.75 3.25c-.142.168-.351.265-.572.265z"/></g><g><path d="m12 17c-.414 0-.75-.336-.75-.75v-5.25c0-.414.336-.75.75-.75s.75.336.75.75v5.25c0 .414-.336.75-.75.75z"/></g><g><path d="m14.25 12h-4.5c-.414 0-.75-.336-.75-.75s.336-.75.75-.75h4.5c.414 0 .75.336.75.75s-.336.75-.75.75z"/></g><g><path d="m14.25 14.5h-4.5c-.414 0-.75-.336-.75-.75s.336-.75.75-.75h4.5c.414 0 .75.336.75.75s-.336.75-.75.75z"/></g><g><g><path d="m21.25 20h-18.5c-1.517 0-2.75-1.233-2.75-2.75v-10.5c0-1.517 1.233-2.75 2.75-2.75h18.5c1.517 0 2.75 1.233 2.75 2.75v10.5c0 1.517-1.233 2.75-2.75 2.75zm-18.5-14.5c-.689 0-1.25.561-1.25 1.25v10.5c0 .689.561 1.25 1.25 1.25h18.5c.689 0 1.25-.561 1.25-1.25v-10.5c0-.689-.561-1.25-1.25-1.25z"/></g><g><path d="m6.25 8.5h-2.5c-.414 0-.75-.336-.75-.75s.336-.75.75-.75h2.5c.414 0 .75.336.75.75s-.336.75-.75.75z"/></g><g><path d="m20.25 17h-2.5c-.414 0-.75-.336-.75-.75s.336-.75.75-.75h2.5c.414 0 .75.336.75.75s-.336.75-.75.75z"/></g></g></g></svg>