<svg id="_x31__x2C_5" height="512" viewBox="0 0 24 24" width="512" xmlns="http://www.w3.org/2000/svg"><path d="m6.75 17.625c0-3.033 2.329-5.498 5.25-5.625s5.25-2.592 5.25-5.625c0-3.07-2.39-5.554-5.371-5.619-6.157.066-11.129 5.072-11.129 11.244 0 6.213 5.037 11.25 11.25 11.25.041 0 .08-.006.121-.006-2.981-.065-5.371-2.549-5.371-5.619z" fill="#cfd8dc"/><path d="m23.25 12c0-6.213-5.037-11.25-11.25-11.25-.041 0-.08.006-.121.006 2.98.065 5.371 2.549 5.371 5.619 0 3.033-2.329 5.498-5.25 5.625s-5.25 2.592-5.25 5.625c0 3.07 2.39 5.554 5.371 5.619 6.157-.066 11.129-5.072 11.129-11.244z" fill="#607d8b"/><circle cx="12" cy="6" fill="#607d8b" r="2.25"/><circle cx="12" cy="18" fill="#cfd8dc" r="2.25"/><path d="m12 24c-6.617 0-12-5.383-12-12s5.383-12 12-12 12 5.383 12 12-5.383 12-12 12zm0-22.5c-5.79 0-10.5 4.71-10.5 10.5s4.71 10.5 10.5 10.5 10.5-4.71 10.5-10.5-4.71-10.5-10.5-10.5z"/><path d="m12 9c-1.654 0-3-1.346-3-3s1.346-3 3-3 3 1.346 3 3-1.346 3-3 3zm0-4.5c-.827 0-1.5.673-1.5 1.5s.673 1.5 1.5 1.5 1.5-.673 1.5-1.5-.673-1.5-1.5-1.5z"/><path d="m12 21c-1.654 0-3-1.346-3-3s1.346-3 3-3 3 1.346 3 3-1.346 3-3 3zm0-4.5c-.827 0-1.5.673-1.5 1.5s.673 1.5 1.5 1.5 1.5-.673 1.5-1.5-.673-1.5-1.5-1.5z"/><path d="m12.239 24c-3.44 0-6.239-2.86-6.239-6.375 0-3.429 2.621-6.229 5.967-6.375 2.542-.11 4.533-2.252 4.533-4.875 0-2.688-2.126-4.875-4.739-4.875v-1.5c3.44 0 6.239 2.86 6.239 6.375 0 3.429-2.621 6.229-5.967 6.375-2.542.11-4.533 2.251-4.533 4.875 0 2.688 2.126 4.875 4.739 4.875z"/></svg>