<svg id="_x31__x2C_5" height="512" viewBox="0 0 24 24" width="512" xmlns="http://www.w3.org/2000/svg"><path d="m17.642 15.34c2.782 1.13 4.608 2.96 4.608 4.53 0 2.49-4.588 3.38-10.25 3.38s-10.25-.89-10.25-3.38c0-1.48 1.62-3.19 4.139-4.32z" fill="#607d8b"/><path d="m16.915 9.88c1.443.98 2.335 2.25 2.335 3.37 0 2.21-3.468 3-7.75 3s-7.75-.79-7.75-3c0-1.41 1.424-3.07 3.565-4.07z" fill="#78909c"/><path d="m15.519 4.63c2.202.68 3.731 2.14 3.731 3.37 0 1.66-2.798 2.25-6.25 2.25s-6.25-.59-6.25-2.25c0-1.04 1.106-2.25 2.769-3.01z" fill="#90a4ae"/><path d="m16.25 3.563c0 1.243-1.903 1.688-4.25 1.688s-4.25-.446-4.25-1.688 1.903-2.813 4.25-2.813 4.25 1.57 4.25 2.813z" fill="#b0bec5"/><path d="m12 24c-7.299 0-11-1.39-11-4.13 0-1.818 1.756-3.736 4.582-5.004.376-.17.821-.002.991.377.169.378 0 .822-.378.991-2.175.976-3.695 2.472-3.695 3.636 0 1.622 3.641 2.63 9.5 2.63s9.5-1.008 9.5-2.63c0-1.07-1.422-2.731-4.14-3.835-.384-.156-.568-.593-.413-.977.157-.385.595-.568.978-.413 3.083 1.252 5.075 3.304 5.075 5.225 0 2.74-3.701 4.13-11 4.13z"/><path d="m11.5 17c-7.025 0-8.5-2.039-8.5-3.75 0-1.724 1.606-3.633 3.998-4.75.374-.176.82-.013.997.362.175.376.013.823-.362.998-2.057.96-3.133 2.432-3.133 3.39 0 1.409 2.617 2.25 7 2.25s7-.841 7-2.25c0-.843-.787-1.922-2.006-2.75-.343-.233-.433-.699-.199-1.042.23-.342.697-.433 1.041-.199 1.668 1.133 2.664 2.625 2.664 3.991 0 1.711-1.475 3.75-8.5 3.75z"/><path d="m13 11c-4.645 0-7-1.009-7-3 0-1.353 1.259-2.802 3.208-3.692.375-.171.822-.006.994.371s.006.822-.371.994c-1.53.698-2.331 1.699-2.331 2.327 0 .692 1.44 1.5 5.5 1.5s5.5-.808 5.5-1.5c0-.8-1.225-2.042-3.202-2.653-.396-.123-.617-.542-.495-.938.123-.396.541-.616.938-.496 2.508.775 4.259 2.456 4.259 4.087 0 1.991-2.355 3-7 3z"/><path d="m12 6c-4.133 0-5-1.326-5-2.437 0-1.648 2.185-3.563 5-3.563s5 1.915 5 3.563c0 1.111-.867 2.437-5 2.437zm0-4.5c-2.057 0-3.5 1.338-3.5 2.063 0 .451 1.096.937 3.5.937s3.5-.486 3.5-.938c0-.724-1.443-2.062-3.5-2.062z"/></svg>