<svg id="_x31__x2C_5_px" height="512" viewBox="0 0 24 24" width="512" xmlns="http://www.w3.org/2000/svg"><path d="m11.07 6.745c-.2-.48-.42-.949-.658-1.456l-.332-.712c-.096-.21-.305-.328-.519-.291-.211.037-.378.219-.41.452l-.125.886c-.11-.136-.275-.203-.442-.175-.18.03-.331.165-.392.353-.041.127-.084.25-.125.372-.099.285-.193.561-.265.846-.299 1.179.004 2.138.791 2.503.239.111.522.164.811.164.424 0 .861-.116 1.189-.336.74-.499.928-1.521.477-2.606z" fill="#607d8b"/><path d="m11.59 9.625h-4.43c-.777 0-1.41.567-1.41 1.264v1.444c0 .299.271.542.604.542h6.042c.334 0 .604-.243.604-.542v-1.444c0-.697-.632-1.264-1.41-1.264z" fill="#cfd8dc"/><path d="m15.25 12.75h-10.5c-.552 0-1 .448-1 1v7.5c0 1.105.895 2 2 2h8.5c1.105 0 2-.895 2-2v-7.5c0-.552-.448-1-1-1z" fill="#607d8b"/><path d="m11.854 17.646-1.5-1.5c-.195-.195-.512-.195-.707 0l-1.5 1.5c-.195.195-.195.512 0 .707l1.5 1.5c.097.098.225.147.353.147s.256-.049.354-.146l1.5-1.5c.195-.196.195-.512 0-.708z" fill="#fff"/><path d="m18.25.75h-2v12h2c1.105 0 2-.895 2-2v-8c0-1.105-.895-2-2-2z" fill="#607d8b"/><path d="m9.354 10.498c-.439 0-.869-.074-1.231-.228-1.194-.506-1.655-1.836-1.201-3.47.109-.395.253-.778.402-1.173.063-.169.128-.34.19-.516.093-.261.322-.449.596-.49.253-.038.504.055.671.243l.189-1.228c.049-.323.301-.576.624-.627.325-.051.641.112.787.404l.503.986c.361.703.695 1.353.999 2.019.685 1.504.4 2.922-.723 3.614-.499.306-1.162.466-1.806.466zm-.905-3.569c-.029.09-.056.181-.082.272-.09.324-.331 1.403.341 1.688.456.193 1.233.13 1.665-.135.687-.422.24-1.502.144-1.714-.133-.292-.273-.583-.418-.875l-.108.699c-.046.299-.267.541-.56.614-.293.072-.602-.038-.783-.281z"/><path d="m14.25 24h-8.5c-1.517 0-2.75-1.233-2.75-2.75v-7.5c0-.965.785-1.75 1.75-1.75h11.5c.414 0 .75.336.75.75v8.5c0 1.517-1.233 2.75-2.75 2.75zm-9.5-10.5c-.138 0-.25.112-.25.25v7.5c0 .689.561 1.25 1.25 1.25h8.5c.689 0 1.25-.561 1.25-1.25v-7.75z"/><path d="m18.25 13.5h-2c-.414 0-.75-.336-.75-.75v-12c0-.414.336-.75.75-.75h2c1.517 0 2.75 1.233 2.75 2.75v8c0 1.517-1.233 2.75-2.75 2.75zm-1.25-1.5h1.25c.689 0 1.25-.561 1.25-1.25v-8c0-.689-.561-1.25-1.25-1.25h-1.25z"/><path d="m13.25 13.5h-7.5c-.414 0-.75-.336-.75-.75v-2c0-.965.785-1.75 1.75-1.75h5.5c.965 0 1.75.785 1.75 1.75v2c0 .414-.336.75-.75.75zm-6.75-1.5h6v-1.25c0-.138-.112-.25-.25-.25h-5.5c-.138 0-.25.112-.25.25z"/><path d="m10 21c-.192 0-.384-.073-.53-.22l-2.25-2.25c-.293-.293-.293-.768 0-1.061l2.25-2.25c.293-.293.768-.293 1.061 0l2.25 2.25c.293.293.293.768 0 1.061l-2.25 2.25c-.147.147-.339.22-.531.22zm-1.189-3 1.189 1.189 1.189-1.189-1.189-1.189z"/></svg>