<svg id="_x31__x2C_5" enable-background="new 0 0 24 24" height="512" viewBox="0 0 24 24" width="512" xmlns="http://www.w3.org/2000/svg"><path d="m19.25 13.949v-5.527c0-.349.279-.616.596-.552 2.258.5 3.404 1.284 3.404 2.33 0 1.008-1.354 3.815-3.397 4.3-.3.076-.603-.186-.603-.551z" fill="#0097a7"/><path d="m4.19 14.554c-1.883-.413-3.44-3.152-3.44-4.374 0-1.065 1.157-1.863 3.439-2.373.317-.066.603.205.603.562v5.622c0 .351-.279.631-.602.563z" fill="#0097a7"/><path d="m12 13.25c-.459 0-11.25-.333-11.25-3.38v9.13c0 2.79 5.659 4.25 11.25 4.25s11.25-1.46 11.25-4.25v-9.13c0 2.63-7.359 3.38-11.25 3.38z" fill="#00bcd4"/><path d="m20.5 22.334c-2.021.82-5.264 1.242-8.48 1.242-3.067 0-6.151-.383-8.19-1.134l2.91-2.959c.554-.483 1.415-.483 1.96 0l1.475 1.611c.409.447 1.119.43 1.506-.036l2.465-2.964c.562-.491 1.388-.514 1.933-.061z" fill="#e0f7fa"/><path d="m20.5 3c-.827 0-1.5-.673-1.5-1.5s.673-1.5 1.5-1.5 1.5.673 1.5 1.5-.673 1.5-1.5 1.5z"/><path d="m16.75 9h-1c-.689 0-1.25-.561-1.25-1.25v-3.5c0-.689.561-1.25 1.25-1.25h1c.689 0 1.25.561 1.25 1.25v3.5c0 .689-.561 1.25-1.25 1.25zm-.75-1.5h.5v-3h-.5z"/><path d="m7.75 9h-1c-.414 0-.75-.336-.75-.75s.336-.75.75-.75h.75v-.75h-.75c-.414 0-.75-.336-.75-.75s.336-.75.75-.75h1c.689 0 1.25.561 1.25 1.25v1.25c0 .689-.561 1.25-1.25 1.25zm0-2.25h.01z"/><path d="m7.75 6.75h-1c-.414 0-.75-.336-.75-.75s.336-.75.75-.75h.75v-.75h-.75c-.414 0-.75-.336-.75-.75s.336-.75.75-.75h1c.689 0 1.25.561 1.25 1.25v1.25c0 .689-.561 1.25-1.25 1.25zm0-2.25h.01z"/><path d="m12.25 9h-1c-.689 0-1.25-.561-1.25-1.25v-3.5c0-.689.561-1.25 1.25-1.25h1.5c.414 0 .75.336.75.75s-.336.75-.75.75h-1.25v.75h.75c.689 0 1.25.561 1.25 1.25v1.25c0 .689-.561 1.25-1.25 1.25zm-.75-1.5h.5v-.75h-.5z"/><path d="m12 24c-5.963 0-12-1.46-12-4.25v-9.75c0-.414.336-.75.75-.75s.75.336.75.75v9.75c0 1.095 4.188 2.75 10.5 2.75s10.5-1.655 10.5-2.75v-9.75c0-.414.336-.75.75-.75s.75.336.75.75v9.75c0 2.79-6.037 4.25-12 4.25z"/><path d="m4.04 22.97c-.192 0-.386-.074-.532-.221-.292-.294-.29-.769.004-1.061l3.05-3.03c.625-.624 1.605-.623 2.229.002l1.987 1.898.663.522-.541-.52 2.949-3.06c.636-.637 1.579-.664 2.205-.075l4.691 4.133c.311.273.341.748.066 1.058-.275.312-.749.341-1.059.067l-5.362-4.663.54.521-2.949 3.06c-.312.319-.713.496-1.134.499-.454.012-.813-.164-1.117-.469l-1.987-1.898c-.053-.05-.078-.059-.123-.013l-3.052 3.032c-.145.145-.337.218-.528.218z"/><circle cx="10.5" cy="16.5" r="1.5"/><path d="m12 14c-.12 0-12-.044-12-3.88 0-1.123 1.104-2.043 3.283-2.735.394-.125.816.093.942.488.125.395-.093.816-.489.942-1.689.537-2.236 1.111-2.236 1.305 0 1.282 5.773 2.38 10.5 2.38 6.514 0 10.5-1.541 10.5-2.38 0-.156-.413-.732-2.247-1.315-.395-.125-.612-.547-.487-.942.126-.394.545-.611.942-.488 2.185.694 3.292 1.618 3.292 2.745 0 3.069-7.85 3.88-12 3.88z"/><path d="m19.25 13c-.414 0-.75-.336-.75-.75v-1.72c0-.414.336-.75.75-.75s.75.336.75.75v1.72c0 .414-.336.75-.75.75z"/><path d="m4.75 13c-.414 0-.75-.336-.75-.75v-1.44c0-.414.336-.75.75-.75s.75.336.75.75v1.44c0 .414-.336.75-.75.75z"/></svg>