<svg id="_x31__x2C_5" enable-background="new 0 0 24 24" height="512" viewBox="0 0 24 24" width="512" xmlns="http://www.w3.org/2000/svg"><path d="m19.25 7-7.25 2.25-7.25-2.25 7.25-2.25z" fill="#2196f3"/><path d="m19.25 7v10l-7.25 2.25v-10z" fill="#42a5f5"/><path d="m12 9.25v10l-7.25-2.25v-10z" fill="#64b5f6"/><path d="m23.25 6.75c-.414 0-.75-.336-.75-.75v-.481l-.45-.17c-.388-.146-.583-.579-.437-.967.146-.387.579-.582.966-.437l.936.354c.292.11.485.389.485.701v1c0 .414-.336.75-.75.75z"/><path d="m23.25 15.98c-.414 0-.75-.336-.75-.75v-1.846c0-.414.336-.75.75-.75s.75.336.75.75v1.846c0 .415-.336.75-.75.75zm0-4.615c-.414 0-.75-.336-.75-.75v-1.846c0-.414.336-.75.75-.75s.75.336.75.75v1.846c0 .414-.336.75-.75.75z"/><path d="m22.314 20.104c-.303 0-.588-.185-.701-.485-.146-.388.049-.82.437-.967l.45-.17v-.482c0-.414.336-.75.75-.75s.75.336.75.75v1c0 .312-.193.591-.485.702l-.936.354c-.087.032-.177.048-.265.048z"/><path d="m10.654 23.492c-.088 0-.178-.016-.266-.048l-1.793-.678c-.387-.146-.582-.58-.436-.967s.577-.582.967-.437l1.793.678c.387.146.582.58.436.967-.113.3-.398.485-.701.485zm2.692 0c-.303 0-.588-.185-.701-.485-.146-.388.049-.82.437-.967l1.794-.678c.387-.145.82.049.966.437s-.049.82-.437.967l-1.794.678c-.088.032-.177.048-.265.048zm4.484-1.694c-.303 0-.588-.185-.701-.485-.146-.388.049-.82.437-.967l1.794-.678c.388-.144.82.049.966.437s-.049.82-.437.967l-1.794.678c-.087.032-.177.048-.265.048zm-11.66 0c-.088 0-.178-.016-.265-.048l-1.794-.678c-.388-.146-.583-.579-.437-.967s.579-.581.966-.437l1.794.678c.388.146.583.579.437.967-.113.3-.398.485-.701.485z"/><path d="m1.686 20.104c-.088 0-.178-.016-.265-.048l-.936-.354c-.292-.111-.485-.39-.485-.702v-1c0-.414.336-.75.75-.75s.75.336.75.75v.481l.45.17c.388.146.583.579.437.967-.114.301-.399.486-.701.486z"/><path d="m.75 15.981c-.414 0-.75-.336-.75-.75v-1.846c0-.414.336-.75.75-.75s.75.336.75.75v1.846c0 .414-.336.75-.75.75zm0-4.615c-.414 0-.75-.336-.75-.75v-1.846c0-.414.336-.75.75-.75s.75.335.75.75v1.846c0 .414-.336.75-.75.75z"/><path d="m.75 6.75c-.414 0-.75-.336-.75-.75v-1c0-.312.193-.591.485-.702l.936-.354c.388-.144.82.05.966.437.146.388-.049.82-.437.967l-.45.171v.481c0 .414-.336.75-.75.75z"/><path d="m19.624 4.38c-.088 0-.178-.016-.265-.048l-1.794-.678c-.388-.146-.583-.579-.437-.967s.58-.581.966-.437l1.794.678c.388.146.583.579.437.967-.113.3-.398.485-.701.485zm-15.248 0c-.303 0-.588-.185-.701-.485-.146-.388.049-.82.437-.967l1.793-.678c.387-.143.82.05.966.437.146.388-.049.82-.437.967l-1.793.678c-.087.032-.177.048-.265.048zm4.484-1.694c-.303 0-.588-.185-.701-.485-.146-.388.049-.82.437-.967l1.794-.678c.389-.145.82.049.966.437s-.049.82-.437.967l-1.794.678c-.087.032-.177.048-.265.048zm6.279 0c-.088 0-.178-.016-.266-.048l-1.793-.678c-.387-.146-.582-.58-.436-.967s.576-.582.967-.437l1.793.678c.387.146.582.58.436.967-.113.3-.399.485-.701.485z"/><path d="m12 10c-.075 0-.15-.011-.223-.034l-7.25-2.25c-.313-.097-.527-.387-.527-.716s.214-.619.527-.716l7.25-2.25c.145-.045.301-.045.445 0l7.25 2.25c.314.097.528.387.528.716s-.214.619-.527.716l-7.25 2.25c-.073.023-.148.034-.223.034zm-4.72-3 4.72 1.465 4.72-1.465-4.72-1.465z"/><path d="m12 20c-.075 0-.15-.011-.223-.034l-7.25-2.25c-.313-.097-.527-.387-.527-.716v-10c0-.414.336-.75.75-.75s.75.336.75.75v9.447l6.5 2.018 6.5-2.018v-9.447c0-.414.336-.75.75-.75s.75.336.75.75v10c0 .329-.214.619-.527.716l-7.25 2.25c-.073.023-.148.034-.223.034z"/><path d="m12 20c-.414 0-.75-.336-.75-.75v-10c0-.414.336-.75.75-.75s.75.336.75.75v10c0 .414-.336.75-.75.75z"/></svg>