<svg id="_x31__x2C_5" enable-background="new 0 0 24 24" height="512" viewBox="0 0 24 24" width="512" xmlns="http://www.w3.org/2000/svg"><path d="m21.25 5.5-5.75 1.75-5.75-1.75 5.75-1.75z" fill="#2196f3"/><path d="m21.25 5.5v8l-5.75 1.75v-8z" fill="#42a5f5"/><path d="m15.5 7.25v8l-5.75-1.75v-8z" fill="#64b5f6"/><g fill="#90a4ae"><path d="m1.75 8v3l2.5-1v-1z"/><path d="m1.75 14v3l2.5-1v-1z"/><path d="m1.75 2v3l2.5-1v-1z"/><path d="m22.25 23.25h-12.5c0-1.381 1.119-2.5 2.5-2.5h7.5c1.381 0 2.5 1.119 2.5 2.5z"/></g><path d="m15.5 8c-.074 0-.147-.011-.218-.032l-5.75-1.75c-.316-.097-.532-.388-.532-.718s.216-.621.532-.718l5.75-1.75c.143-.043.294-.043.437 0l5.75 1.75c.315.097.531.388.531.718s-.216.621-.532.718l-5.75 1.75c-.071.021-.144.032-.218.032zm-3.174-2.5 3.174.966 3.174-.966-3.174-.966z"/><path d="m15.5 16c-.074 0-.147-.011-.218-.032l-5.75-1.75c-.316-.097-.532-.388-.532-.718v-8c0-.414.336-.75.75-.75s.75.336.75.75v7.444l5 1.521 5-1.521v-7.444c0-.414.336-.75.75-.75s.75.336.75.75v8c0 .33-.216.621-.532.718l-5.75 1.75c-.071.021-.144.032-.218.032z"/><path d="m15.5 16c-.414 0-.75-.336-.75-.75v-8c0-.414.336-.75.75-.75s.75.336.75.75v8c0 .414-.336.75-.75.75z"/><path d="m1.75 19c-.414 0-.75-.336-.75-.75v-17.5c0-.414.336-.75.75-.75s.75.336.75.75v17.5c0 .414-.336.75-.75.75z"/><path d="m22.25 24h-12.5c-.414 0-.75-.336-.75-.75 0-1.792 1.458-3.25 3.25-3.25h7.5c1.792 0 3.25 1.458 3.25 3.25 0 .414-.336.75-.75.75zm-11.581-1.5h10.662c-.281-.591-.884-1-1.581-1h-7.5c-.697 0-1.3.409-1.581 1z"/><path d="m12.75 21.5c-.414 0-.75-.336-.75-.75v-1c0-.414.336-.75.75-.75s.75.336.75.75v1c0 .414-.336.75-.75.75z"/><path d="m19.25 21.5c-.414 0-.75-.336-.75-.75v-1c0-.414.336-.75.75-.75s.75.336.75.75v1c0 .414-.336.75-.75.75z"/><path d="m1.75 11.75c-.297 0-.579-.178-.696-.472-.154-.385.033-.821.418-.975l2.008-.803-2.008-.804c-.385-.153-.572-.59-.418-.974s.591-.57.975-.418l2.5 1c.284.114.471.389.471.696v1c0 .307-.187.582-.472.696l-2.5 1c-.091.036-.185.054-.278.054z"/><path d="m1.75 17.75c-.297 0-.579-.178-.696-.472-.154-.385.033-.821.418-.975l2.008-.803-2.009-.804c-.385-.153-.572-.59-.418-.975.154-.384.591-.568.975-.418l2.5 1c.285.115.472.39.472.697v1c0 .307-.187.582-.472.696l-2.5 1c-.091.036-.185.054-.278.054z"/><path d="m1.75 5.75c-.297 0-.579-.178-.696-.472-.154-.384.033-.821.418-.974l2.008-.804-2.008-.804c-.385-.153-.572-.59-.418-.974s.591-.569.975-.418l2.5 1c.284.114.471.389.471.696v1c0 .307-.187.582-.472.696l-2.5 1c-.091.036-.185.054-.278.054z"/><path d="m6.25 4.25h-2c-.414 0-.75-.336-.75-.75s.336-.75.75-.75h2c.414 0 .75.336.75.75s-.336.75-.75.75z"/><path d="m6.25 10.25h-2c-.414 0-.75-.336-.75-.75s.336-.75.75-.75h2c.414 0 .75.336.75.75s-.336.75-.75.75z"/><path d="m6.25 16.25h-2c-.414 0-.75-.336-.75-.75s.336-.75.75-.75h2c.414 0 .75.336.75.75s-.336.75-.75.75z"/><path d="m9.25 4.25h-.5c-.414 0-.75-.336-.75-.75s.336-.75.75-.75h.5c.414 0 .75.336.75.75s-.336.75-.75.75z"/><path d="m9.25 10.25h-.5c-.414 0-.75-.336-.75-.75s.336-.75.75-.75h.5c.414 0 .75.336.75.75s-.336.75-.75.75z"/><path d="m9.25 16.25h-.5c-.414 0-.75-.336-.75-.75s.336-.75.75-.75h.5c.414 0 .75.336.75.75s-.336.75-.75.75z"/></svg>