<?xml version="1.0" encoding="iso-8859-1"?>
<!-- Generator: Adobe Illustrator 19.0.0, SVG Export Plug-In . SVG Version: 6.00 Build 0)  -->
<svg version="1.1" id="Capa_1" xmlns="http://www.w3.org/2000/svg" xmlns:xlink="http://www.w3.org/1999/xlink" x="0px" y="0px"
	 viewBox="0 0 483.677 483.677" style="enable-background:new 0 0 483.677 483.677;" xml:space="preserve">
<path style="fill:#B0BEC5;" d="M278.716,33.023l166.278,96c15.305,8.837,20.549,28.408,11.713,43.713l-160,277.13
	c-8.837,15.305-28.408,20.549-43.713,11.713l-166.278-96c-15.305-8.837-20.55-28.408-11.713-43.713l160-277.13
	C243.84,29.431,263.411,24.187,278.716,33.023z"/>
<path style="fill:#CFD8DC;" d="M194.975,2.929l185.459,49.693c17.071,4.574,27.202,22.121,22.628,39.192l-91.105,340.007
	c-4.574,17.071-22.121,27.202-39.192,22.628L87.306,404.756c-17.071-4.574-27.202-22.121-22.628-39.192l91.105-340.007
	C160.357,8.486,177.904-1.645,194.975,2.929z"/>
<path style="fill:#ECEFF1;" d="M32,1.846h256c17.673,0,32,14.327,32,32v416c0,17.673-14.327,32-32,32H32c-17.673,0-32-14.327-32-32
	v-416C0,16.173,14.327,1.846,32,1.846z"/>
<path style="fill:#2196F3;" d="M196,289.846c32.022,1.099,58.873-23.969,59.972-55.992c0.013-0.387,0.023-0.773,0.028-1.16
	c0-44.16-72.96-91.456-87.584-100.448c-5.188-3.243-11.772-3.243-16.96,0C130.944,145.238,64,190.646,64,232.694
	c0.458,32.038,26.802,57.639,58.84,57.18c0.387-0.006,0.773-0.015,1.16-0.028c6.792-0.021,13.54-1.101,20-3.2v35.2h-16
	c-8.837,0-16,7.163-16,16s7.163,16,16,16h64c8.837,0,16-7.163,16-16s-7.163-16-16-16h-16v-35.2
	C182.46,288.745,189.208,289.825,196,289.846z"/>
<path d="M288,481.846H32c-17.673,0-32-14.327-32-32v-416c0-17.673,14.327-32,32-32h256c17.673,0,32,14.327,32,32v416
	C320,467.519,305.673,481.846,288,481.846z M32,33.846v416h256v-416H32z"/>
<path d="M304,453.366c-2.757,0.007-5.468-0.699-7.872-2.048c-7.701-4.333-10.432-14.089-6.099-21.79
	c0.006-0.011,0.013-0.023,0.019-0.034l161.6-286.08l-65.376-37.44c-7.661-4.418-10.29-14.211-5.872-21.872
	s14.211-10.29,21.872-5.872l65.28,37.44c15.164,8.668,20.576,27.895,12.16,43.2l-161.76,286.368
	C315.11,450.267,309.777,453.374,304,453.366z"/>
<path d="M304,421.046c-1.496,0.007-2.984-0.208-4.416-0.64c-8.476-2.447-13.372-11.294-10.944-19.776l93.408-325.44L299.84,53.046
	c-8.545-2.298-13.609-11.087-11.312-19.632c2.297-8.545,11.087-13.61,19.632-11.312L390.4,44.15
	c8.3,2.222,15.357,7.688,19.584,15.168c4.281,7.503,5.287,16.436,2.784,24.704L319.36,409.43
	C317.404,416.295,311.138,421.034,304,421.046z"/>
<path d="M196,289.846c-12.793-0.052-25.297-3.808-36-10.816c-10.703,7.008-23.207,10.764-36,10.816
	c-32.004,1.116-58.854-23.923-59.97-55.927c-0.014-0.408-0.024-0.816-0.03-1.225c0-42.048,66.944-87.488,87.456-100.384
	c5.188-3.243,11.772-3.243,16.96,0C183.04,141.238,256,188.47,256,232.694c-0.44,32.021-26.755,57.622-58.775,57.182
	C196.816,289.87,196.408,289.86,196,289.846z M160,242.23c4.494,0.003,8.779,1.896,11.808,5.216
	c6.324,6.598,15.053,10.351,24.192,10.4c14.571,0.882,27.099-10.216,27.98-24.787c0.007-0.122,0.014-0.243,0.02-0.365
	c0-14.624-27.968-44-64-67.648c-36.48,24.384-64,53.248-64,67.648c0.68,14.582,13.053,25.852,27.635,25.172
	c0.122-0.006,0.243-0.012,0.365-0.02c9.139-0.049,17.868-3.802,24.192-10.4C151.221,244.126,155.506,242.233,160,242.23z"/>
<path d="M160,353.846c-8.837,0-16-7.163-16-16V258.23c0-8.837,7.163-16,16-16s16,7.163,16,16v79.616
	C176,346.682,168.837,353.846,160,353.846z"/>
<path d="M192,353.846h-64c-8.837,0-16-7.163-16-16s7.163-16,16-16h64c8.837,0,16,7.163,16,16S200.837,353.846,192,353.846z"/>
<g>
</g>
<g>
</g>
<g>
</g>
<g>
</g>
<g>
</g>
<g>
</g>
<g>
</g>
<g>
</g>
<g>
</g>
<g>
</g>
<g>
</g>
<g>
</g>
<g>
</g>
<g>
</g>
<g>
</g>
</svg>
