<svg id="_x31__x2C_5" enable-background="new 0 0 24 24" height="512" viewBox="0 0 24 24" width="512" xmlns="http://www.w3.org/2000/svg"><path d="m23 9.31c0-2.146-1.722-3.91-3.951-4.212.173-2.314-1.801-4.098-4.103-4.098-1.133 0-2.18.426-2.946 1.161-.766-.735-1.813-1.161-2.946-1.161-2.301 0-4.276 1.783-4.103 4.098-2.229.302-3.951 2.066-3.951 4.212 0 1.241.571 2.394 1.557 3.199-.378.666-.575 1.408-.575 2.181 0 1.863 1.165 3.521 2.953 4.284-.14 2.093 1.685 4.026 4.119 4.026 1.133 0 2.18-.426 2.946-1.161.766.735 1.813 1.161 2.946 1.161 2.432 0 4.259-1.931 4.119-4.026 1.789-.763 2.953-2.421 2.953-4.284 0-.773-.197-1.516-.575-2.181.986-.805 1.557-1.958 1.557-3.199z" fill="#cfd8dc"/><path d="m11.25 15c-.414 0-.75-.336-.75-.75v-3.25c0-.276-.224-.5-.5-.5s-.5.224-.5.5v3.25c0 .414-.336.75-.75.75s-.75-.336-.75-.75v-3.25c0-1.103.897-2 2-2s2 .897 2 2v3.25c0 .414-.336.75-.75.75z"/><path d="m11.25 13.5h-2.5c-.414 0-.75-.336-.75-.75s.336-.75.75-.75h2.5c.414 0 .75.336.75.75s-.336.75-.75.75z"/><path d="m14.75 15c-.414 0-.75-.336-.75-.75v-4.5c0-.414.336-.75.75-.75s.75.336.75.75v4.5c0 .414-.336.75-.75.75z"/><path d="m18.804 5.912c-.081 0-.162-.013-.243-.04-.392-.134-.601-.561-.467-.953.08-.233.121-.484.121-.746 0-1.474-1.346-2.674-3-2.674-1.073 0-2.04.499-2.587 1.334-.277.423-.978.423-1.255 0-.547-.834-1.515-1.333-2.587-1.333-1.654 0-3 1.2-3 2.674 0 .261.041.512.121.746.133.392-.076.818-.468.952-.394.132-.818-.076-.953-.467-.133-.391-.2-.805-.2-1.231 0-2.301 2.018-4.174 4.5-4.174 1.233 0 2.378.458 3.214 1.258.836-.8 1.981-1.258 3.214-1.258 2.481 0 4.5 1.873 4.5 4.174 0 .426-.067.84-.201 1.231-.106.311-.397.507-.709.507z"/><path d="m15.214 24c-1.233 0-2.378-.458-3.214-1.258-.836.8-1.981 1.258-3.214 1.258-2.481 0-4.5-1.873-4.5-4.174 0-.072.002-.146.006-.218-1.951-.833-3.221-2.641-3.221-4.673 0-.843.215-1.653.626-2.379-1.074-.879-1.697-2.137-1.697-3.491 0-2.571 2.259-4.663 5.036-4.663 1.595 0 2.893 1.214 2.893 2.707 0 .414-.336.75-.75.75s-.75-.336-.75-.75c0-.666-.625-1.207-1.393-1.207-1.95 0-3.536 1.419-3.536 3.163 0 1.07.602 2.06 1.61 2.649.188.11.319.296.359.51s-.015.435-.151.605c-.488.612-.747 1.34-.747 2.105 0 1.571 1.112 2.961 2.767 3.459.38.115.605.506.513.893-.043.179-.065.366-.065.54 0 1.474 1.346 2.674 3 2.674 1.073 0 2.04-.499 2.587-1.334.277-.423.978-.423 1.255 0 .547.835 1.514 1.334 2.587 1.334 1.654 0 3-1.2 3-2.674 0-.174-.022-.361-.065-.54-.092-.387.133-.778.513-.893 1.655-.498 2.767-1.888 2.767-3.459 0-.765-.258-1.493-.747-2.105-.136-.17-.191-.391-.151-.605s.171-.4.359-.51c1.008-.589 1.61-1.579 1.61-2.649 0-1.744-1.586-3.163-3.536-3.163-.768 0-1.393.541-1.393 1.207s.625 1.207 1.393 1.207c.414 0 .75.336.75.75s-.336.75-.75.75c-1.595 0-2.893-1.214-2.893-2.707s1.298-2.707 2.893-2.707c2.776 0 5.035 2.092 5.035 4.663 0 1.354-.623 2.612-1.698 3.49.412.727.626 1.537.626 2.379 0 2.032-1.27 3.841-3.221 4.673.004.073.006.146.006.218.001 2.302-2.017 4.175-4.499 4.175z"/></svg>