<svg enable-background="new 0 0 24 24" height="512" viewBox="0 0 24 24" width="512" xmlns="http://www.w3.org/2000/svg"><g id="color"><g><path d="m17.4 14.45v8.1c0 .495-.405.9-.9.9h-9c-.495 0-.9-.405-.9-.9v-8.1c0-.495.405-.9.9-.9h9c.495 0 .9.405.9.9z" fill="#ffb74d"/></g><g><path d="m13.64 13.86v2.578c0 .387-.315.702-.702.702h-1.876c-.387 0-.702-.315-.702-.702v-2.578z" fill="#795548"/></g><g><path d="m19.875 9.5h-15.75c-.373 0-.675-.302-.675-.675 0-4.591 3.836-8.325 8.55-8.325s8.55 3.734 8.55 8.325c0 .373-.302.675-.675.675z" fill="#4caf50"/></g></g><g id="reg"><g><path d="m16.25 24h-8.5c-.965 0-1.75-.785-1.75-1.75v-7.5c0-.965.785-1.75 1.75-1.75h8.5c.965 0 1.75.785 1.75 1.75v7.5c0 .965-.785 1.75-1.75 1.75zm-8.5-9.5c-.138 0-.25.112-.25.25v7.5c0 .138.112.25.25.25h8.5c.138 0 .25-.112.25-.25v-7.5c0-.138-.112-.25-.25-.25z"/></g><g><path d="m13.75 17.5h-3.5c-.414 0-.75-.336-.75-.75v-3c0-.414.336-.75.75-.75h3.5c.414 0 .75.336.75.75v3c0 .414-.336.75-.75.75zm-2.75-1.5h2v-1.5h-2z"/></g><g><path d="m15.25 22h-2c-.414 0-.75-.336-.75-.75s.336-.75.75-.75h2c.414 0 .75.336.75.75s-.336.75-.75.75z"/></g><g><path d="m17.499 15.25c-.131 0-.264-.034-.385-.107-.355-.213-.471-.674-.258-1.029l3-5c.213-.355.672-.473 1.029-.257.355.213.471.674.258 1.029l-3 5c-.14.234-.389.364-.644.364z"/></g><g><path d="m6.501 15.216c-.254 0-.502-.129-.643-.362l-3-4.966c-.215-.354-.101-.815.254-1.03.354-.215.815-.1 1.029.254l3 4.966c.215.354.101.815-.254 1.03-.12.073-.254.108-.386.108z"/></g><g><path d="m10.501 14.25c-.275 0-.54-.152-.672-.415l-2-4c-.185-.37-.035-.82.336-1.006.372-.185.819-.034 1.006.335l2 4c.186.371.035.821-.336 1.006-.107.055-.222.08-.334.08z"/></g><g><path d="m13.499 14.25c-.112 0-.227-.025-.334-.079-.371-.186-.521-.636-.336-1.006l2-4c.186-.369.637-.52 1.006-.335.371.186.521.636.336 1.006l-2 4c-.132.262-.397.414-.672.414z"/></g><g><path d="m20.75 10h-17.5c-.414 0-.75-.336-.75-.75 0-5.101 4.262-9.25 9.5-9.25s9.5 4.149 9.5 9.25c0 .414-.336.75-.75.75zm-16.713-1.5h15.926c-.391-3.923-3.812-7-7.963-7s-7.572 3.077-7.963 7z"/></g></g></svg>