<svg id="_x31_px" enable-background="new 0 0 24 24" height="512" viewBox="0 0 24 24" width="512" xmlns="http://www.w3.org/2000/svg"><path d="m12 12.383c-2.283 0-4.567-.903-6.786-2.71l-.27-.22.057-.644c.31-2.96 2.77-5.185 5.721-5.185h2.556c2.951 0 5.411 2.224 5.721 5.174l.058.655-.27.22c-2.22 1.807-4.504 2.71-6.787 2.71z" fill="#ffa000"/><path d="m20.232 18.351-1.008-9.205-.981.775c-1.137.898-2.31 1.542-3.492 1.947v11.486h.807c2.585 0 4.693-2.035 4.693-4.528-.001-.149-.01-.299-.019-.475z" fill="#ffc107"/><path d="m4.777 9.146-1.008 9.231c-.009.15-.018.3-.018.449 0 2.493 2.108 4.528 4.693 4.528h.806v-11.486c-1.182-.405-2.356-1.048-3.492-1.947z" fill="#ffc107"/><path d="m14.319 11.547c-1.54.468-3.098.468-4.638 0-.147-.046-.293-.092-.431-.147v11.953h5.5v-11.952c-.138.055-.284.101-.431.146z" fill="#ffa000"/><path d="m15.883 24h-7.766c-2.821 0-5.117-2.305-5.117-5.138 0-.181.009-.361.027-.538l.979-9.417c.349-3.367 3.161-5.907 6.538-5.907h2.912c3.377 0 6.188 2.54 6.538 5.908l.979 9.417c.018.176.027.356.027.537 0 2.833-2.296 5.138-5.117 5.138zm-5.339-19.5c-2.606 0-4.775 1.961-5.046 4.563l-.978 9.416c-.013.125-.02.253-.02.383 0 2.006 1.623 3.638 3.617 3.638h7.766c1.994 0 3.617-1.632 3.617-3.638 0-.129-.007-.257-.02-.383l-.979-9.416c-.27-2.602-2.438-4.563-5.045-4.563z"/><path d="m12 13.011c-2.582 0-5.164-1.061-7.729-3.183-.318-.264-.363-.737-.1-1.056.265-.321.736-.363 1.057-.1 4.557 3.771 8.986 3.771 13.543 0 .319-.264.792-.221 1.057.1.264.319.219.792-.1 1.056-2.564 2.122-5.146 3.183-7.728 3.183z"/><path d="m9.25 23.75c-.414 0-.75-.336-.75-.75v-10.75c0-.414.336-.75.75-.75s.75.336.75.75v10.75c0 .414-.336.75-.75.75z"/><path d="m14.75 23.75c-.414 0-.75-.336-.75-.75v-10.5c0-.414.336-.75.75-.75s.75.336.75.75v10.5c0 .414-.336.75-.75.75z"/><path d="m14.25 4.25c-.414 0-.75-.336-.75-.75v-.5c0-.827-.673-1.5-1.5-1.5s-1.5.673-1.5 1.5v.5c0 .414-.336.75-.75.75s-.75-.336-.75-.75v-.5c0-1.654 1.346-3 3-3s3 1.346 3 3v.5c0 .414-.336.75-.75.75z"/><path d="m20.261 17.5c-.062 0-.123-.007-.185-.023-.402-.102-.646-.509-.544-.911l2.924-11.555c.03-.112.044-.222.044-.332 0-.65-.489-1.179-1.09-1.179-.195 0-.387.056-.552.162l-2.954 1.889c-.35.225-.813.121-1.036-.228-.224-.349-.121-.813.228-1.036l2.953-1.888c.407-.261.878-.399 1.361-.399 1.428 0 2.59 1.202 2.59 2.679 0 .238-.03.476-.091.706l-2.922 11.549c-.087.34-.391.566-.726.566z"/><path d="m3.739 17.5c-.335 0-.64-.226-.727-.566l-2.923-11.555c-.059-.224-.089-.462-.089-.7 0-1.477 1.162-2.679 2.59-2.679.483 0 .954.138 1.362.4l2.952 1.887c.349.223.451.687.228 1.036-.222.349-.687.453-1.036.228l-2.953-1.888c-.166-.107-.358-.163-.553-.163-.601 0-1.09.529-1.09 1.179 0 .11.014.22.042.326l2.926 11.561c.102.402-.142.81-.544.911-.062.016-.123.023-.185.023z"/></svg>