<?xml version="1.0" encoding="utf-8"?>
<!-- Generator: Adobe Illustrator 25.3.1, SVG Export Plug-In . SVG Version: 6.00 Build 0)  -->
<svg version="1.1" id="Capa_1" xmlns="http://www.w3.org/2000/svg" xmlns:xlink="http://www.w3.org/1999/xlink" x="0px" y="0px"
	 viewBox="0 0 492.6 492.6" style="enable-background:new 0 0 492.6 492.6;" xml:space="preserve">
<style type="text/css">
	.st0{fill:#FF7043;stroke:#000000;stroke-width:8;stroke-miterlimit:10;}
	.st1{fill:#37474F;stroke:#000000;stroke-width:8;stroke-miterlimit:10;}
	.st2{stroke:#000000;stroke-width:8;stroke-miterlimit:10;}
</style>
<circle class="st0" cx="245.7" cy="246.8" r="239"/>
<path class="st1" d="M399.4,64c-1.1-1.5-2.5-2.6-4.2-3.3C291.7-20.3,142.1-2,61.2,101.6s-62.6,253.1,40.9,334s253.1,62.6,334-40.9
	C515.8,292.8,499.5,145.9,399.4,64z M447.3,163.6c-24.8-22.5-53.5-40.3-84.5-52.8c2.4-13.6,12-24.8,24.9-29.4
	C413.7,103.8,434.1,132,447.3,163.6z M343,103.9c-14.9-4.9-30.1-8.6-45.6-11.1c0.1-18.1,0.2-37.3,0.2-57.8
	c25.8,6.3,50.1,17.2,72,32.3C356.4,75.6,346.8,88.7,343,103.9z M276.9,31c0,21.2,0,41-0.2,59.7c-14.4-1.3-28.8-1.7-43.2-1.2
	C231.1,72,222.7,56,209.6,44.2c-4.6-3.8-9.8-7-15.3-9.4c16.8-4.2,34.1-6.3,51.4-6.4C256.1,28.6,266.5,29.4,276.9,31z M153.6,49.2
	h0.2c15-1.9,30.1,2,42.3,10.9c8.7,8,14.3,18.8,16.1,30.5c-57.1,4.3-112.1,23.2-159.7,54.9C74.9,103.2,110.3,69.4,153.6,49.2z
	 M34.8,191.4c0.5-0.4,1-0.9,1.4-1.4c20.8-32.7,94-70.9,178.3-78.8v0.5c0,44.3-53.9,106-97.3,155.6c-24.4,25.1-45.7,53.1-63.5,83.2
	C27.2,301.9,20.4,244.9,34.8,191.4L34.8,191.4z M68.5,373.8c0.2-0.7,0.4-1.5,0.5-2.3c0-17.5,32.5-54.6,63.9-90.6
	c48-54.9,102.4-117.3,102.4-169.3c0-0.6-0.1-1.2-0.1-1.8c13.8-0.5,27.6-0.1,41.3,1.2c-2.4,211.3-16.8,254.6-70.9,348.8
	c-0.2,0.4-0.3,0.8-0.4,1.2C150,450.6,101.2,419.3,68.5,373.8z M227,464.1c55.4-97.7,68.1-150.3,70.3-350.5
	c14.4,2.3,28.5,5.8,42.4,10.3c-0.2,2.8-0.4,5.5-0.4,8.6c2.9,42.9,14.3,84.9,33.5,123.4c22.1,53,43,103.2,19.7,152
	c-40,36.8-92.4,57.2-146.8,57.2C239.4,465,233.2,464.6,227,464.1z M423,373.6c3.6-42.5-13.9-84.6-31.2-125.7
	c-18-36-28.8-75.2-31.8-115.4c0-0.3,0-0.6,0-0.9c38.8,16.5,73.1,42,99.9,74.5C471.3,264.6,458,325.3,423,373.6z"/>
<path class="st2" d="M245.7,485.8c-132,0-239-107-239-239s107-239,239-239s239,107,239,239C484.6,378.7,377.6,485.7,245.7,485.8z
	 M245.7,28.5c-120.5,0-218.3,97.7-218.3,218.3S125.1,465,245.7,465s218.3-97.7,218.3-218.3C463.8,126.3,366.2,28.7,245.7,28.5z"/>
<path class="st2" d="M469.9,211.9c-3.1,0-6-1.4-8-3.8c-57.8-69.7-146.2-106.3-236.4-97.9C136.5,115.7,58,155.9,36.2,190
	c-3.1,4.8-9.5,6.3-14.4,3.2c-4.8-3.1-6.3-9.5-3.2-14.4c24.7-38.7,105.2-83.1,205.6-89.4c96.7-8.6,191.5,30.8,253.6,105.4
	c3.7,4.4,3,11-1.4,14.6C474.5,211,472.2,211.9,469.9,211.9L469.9,211.9z"/>
<path class="st2" d="M58.6,381.9c-5.7,0-10.4-4.7-10.4-10.4c0-25.3,30.5-60.1,69-104.2c43.3-49.6,97.3-111.3,97.3-155.6
	c1.9-19.1-4.9-38-18.4-51.6c-12.2-8.9-27.3-12.9-42.3-10.9c-5.6,1.1-11.1-2.6-12.2-8.2s2.6-11.1,8.2-12.2c0.2,0,0.4-0.1,0.6-0.1
	c21-3,42.3,2.6,59.2,15.6c18.3,17.5,27.7,42.2,25.7,67.4c0,52-54.4,114.3-102.4,169.3C101.5,316.9,69,354,69,371.5
	C69,377.2,64.3,381.9,58.6,381.9z"/>
<path class="st2" d="M214.5,475.4c-5.7,0-10.4-4.6-10.4-10.4c0-1.8,0.5-3.6,1.4-5.2c60.6-105.4,71.4-146.9,71.4-431.3
	c0-5.7,4.7-10.4,10.4-10.4c5.7,0,10.4,4.7,10.4,10.4c0,277.7-8.3,327.2-74.1,441.7C221.7,473.4,218.2,475.4,214.5,475.4z"/>
<path class="st2" d="M401.6,423.5c-5.7,0-10.4-4.7-10.4-10.4c0-1.6,0.4-3.1,1-4.5c23.8-49,2.8-99.4-19.5-152.7
	c-19.2-38.5-30.6-80.4-33.5-123.4c0-67.7,50.6-72.8,51.1-72.8c5.7-0.4,10.7,3.8,11.2,9.5c0.5,5.7-3.8,10.7-9.5,11.2c0,0,0,0,0,0
	c-3.2,0.4-32,4.8-32,52c3.1,40.1,13.9,79.3,31.9,115.3c23.1,55.2,46.9,112.3,19,169.8C409.2,421.1,405.6,423.5,401.6,423.5z"/>
</svg>
