<svg id="_x31__x2C_5" height="512" viewBox="0 0 24 24" width="512" xmlns="http://www.w3.org/2000/svg"><path d="m22.23 13.04c.13.62-.34 1.21-.98 1.21h-1c-.45 0-.84-.3-.96-.73l-1.79-6.27c-1.42 1.9-1.91 4.33-1.33 6.63l2.05 8.12c.02.08.04.17.04.25 0 .55-.45 1-1.01 1h-10.51c-.55 0-1-.45-1-1 0-.08.01-.17.03-.25l2.06-8.12c.58-2.3.09-4.73-1.33-6.63l-1.79 6.27c-.12.43-.52.73-.96.73h-1c-.64 0-1.11-.59-.98-1.21.46-2.05 1.39-6.25 2.04-9.16.4-1.83 2.03-3.13 3.9-3.13h1.04l3.07 6.66 3.43-6.66h1.04c1.87 0 3.5 1.3 3.9 3.13.65 2.92 1.58 7.11 2.04 9.16z" fill="#cfd8dc"/><path d="m15.25.75-3.43 6.66-3.07-6.66z" fill="#90a4ae"/><path d="m8.25 12h7.5v1.5h-7.5z"/><path d="m10.75 23.75c-.414 0-.75-.336-.75-.75v-12.532c0-.752.182-1.503.526-2.172l4.057-7.889c.19-.368.642-.514 1.01-.324.368.189.513.642.324 1.01l-4.057 7.889c-.235.458-.36.972-.36 1.486v12.532c0 .414-.336.75-.75.75z"/><path d="m11.75 8c-.284 0-.555-.162-.682-.436l-3-6.5c-.172-.376-.008-.821.368-.995.377-.175.821-.009.995.367l3 6.5c.173.376.009.822-.367.996-.102.046-.209.068-.314.068z"/><path d="m17.254 24h-10.509c-.965 0-1.751-.785-1.751-1.75 0-.146.018-.292.054-.431l2.053-8.121c.389-1.539.254-3.131-.36-4.553l-1.31 4.585c-.214.748-.906 1.27-1.683 1.27h-.996c-.535 0-1.034-.239-1.368-.655-.333-.415-.458-.951-.342-1.47l2.034-9.161c.485-2.187 2.391-3.714 4.635-3.714h8.576c2.244 0 4.15 1.528 4.636 3.717l2.034 9.158c.116.519-.009 1.054-.342 1.469-.333.417-.832.656-1.367.656h-.996c-.778 0-1.47-.522-1.683-1.27l-1.31-4.584c-.615 1.422-.75 3.014-.361 4.553l2.054 8.122c.036.143.053.287.053.43 0 .964-.785 1.749-1.751 1.749zm-10.753-17.5c.234 0 .458.109.601.301 1.563 2.088 2.092 4.736 1.453 7.266l-2.054 8.122c-.007.199.105.311.244.311h10.51c.138 0 .251-.112.251-.25l-2.062-8.184c-.64-2.529-.11-5.177 1.453-7.266.17-.228.454-.34.736-.289.28.052.507.258.585.532l1.792 6.274c.03.107.129.182.241.182h.996c.107 0 .17-.059.199-.094.033-.042.068-.111.048-.205l-2.034-9.158c-.333-1.497-1.637-2.542-3.172-2.542h-8.577c-1.535 0-2.839 1.044-3.171 2.539l-2.033 9.161c-.022.1.02.172.047.207.029.034.092.093.198.093h.995c.111 0 .21-.075.241-.181l1.792-6.275c.078-.274.305-.48.585-.532.046-.008.092-.012.136-.012z"/></svg>