<?xml version="1.0" encoding="iso-8859-1"?>
<!-- Generator: Adobe Illustrator 19.0.0, SVG Export Plug-In . SVG Version: 6.00 Build 0)  -->
<svg version="1.1" id="Capa_1" xmlns="http://www.w3.org/2000/svg" xmlns:xlink="http://www.w3.org/1999/xlink" x="0px" y="0px"
	 viewBox="0 0 512.096 512.096" style="enable-background:new 0 0 512.096 512.096;" xml:space="preserve">
<path style="fill:#FFC107;" d="M376.048,154.016h-320c-8.837,0-16,7.163-16,16v278.08c0,35.346,28.654,64,64,64h224
	c35.346,0,64-28.654,64-64v-278.08C392.048,161.179,384.884,154.016,376.048,154.016z"/>
<path style="fill:#FFECB3;" d="M328.048,48.096c-12.339-0.021-24.513,2.839-35.552,8.352c-13.019-42.221-57.8-65.894-100.021-52.875
	c-25.284,7.797-45.078,27.59-52.875,52.875c-11.038-5.517-23.212-8.377-35.552-8.352c-44.183,0-80,35.817-80,80s35.817,80,80,80v32
	c0,26.51,21.49,48,48,48s48-21.49,48-48v-22.72c31.111,13.031,67.03,5.636,90.464-18.624c11.536,6.198,24.44,9.411,37.536,9.344
	c44.183,0,80-35.817,80-80S372.231,48.096,328.048,48.096z"/>
<path d="M328.048,512.096h-224c-35.346,0-64-28.654-64-64v-278.08c0-8.837,7.163-16,16-16s16,7.163,16,16v278.08
	c0,17.673,14.327,32,32,32h224c17.673,0,32-14.327,32-32v-278.08c0-8.837,7.163-16,16-16s16,7.163,16,16v278.08
	C392.048,483.442,363.394,512.096,328.048,512.096z"/>
<path d="M440.048,416.096h-64c-8.837,0-16-7.163-16-16s7.163-16,16-16h64c8.837,0,16-7.163,16-16v-128c0-8.837-7.163-16-16-16h-64
	c-8.837,0-16-7.163-16-16s7.163-16,16-16h64c26.51,0,48,21.49,48,48v128C488.048,394.606,466.558,416.096,440.048,416.096z"/>
<path d="M152.048,288.096c-26.51,0-48-21.49-48-48v-32c-44.183,0-80-35.817-80-80s35.817-80,80-80
	c12.34-0.025,24.514,2.835,35.552,8.352c13.019-42.221,57.8-65.894,100.021-52.875c25.284,7.797,45.078,27.59,52.875,52.875
	c11.038-5.517,23.212-8.377,35.552-8.352c44.183,0,80,35.817,80,80s-35.817,80-80,80c-13.096,0.071-26.001-3.142-37.536-9.344
	c-23.443,24.244-59.351,31.636-90.464,18.624v22.72C200.048,266.606,178.558,288.096,152.048,288.096z M120.048,173.856
	c8.837,0,16,7.163,16,16v50.24c0,8.837,7.163,16,16,16s16-7.163,16-16v-54.08c-0.001-8.837,7.162-16.001,15.999-16.001
	c4.678,0,9.121,2.046,12.161,5.601c18.961,19.844,50.419,20.559,70.263,1.598c2.709-2.589,5.117-5.476,7.177-8.606
	c2.469-3.966,6.549-6.655,11.168-7.36c4.592-0.666,9.249,0.661,12.8,3.648c8.455,7.292,19.267,11.271,30.432,11.2
	c26.51,0,48-21.49,48-48s-21.49-48-48-48c-13.89-0.067-27.092,6.041-36.032,16.672c-5.748,6.712-15.848,7.493-22.56,1.746
	c-4.201-3.598-6.246-9.11-5.408-14.578c0.082-1.279,0.082-2.561,0-3.84c0-26.51-21.49-48-48-48s-48,21.49-48,48
	c-0.082,1.279-0.082,2.561,0,3.84c1.394,8.726-4.549,16.93-13.275,18.324c-5.558,0.888-11.174-1.21-14.789-5.524
	c-8.925-10.593-22.085-16.687-35.936-16.64c-26.51,0-48,21.49-48,48s21.49,48,48,48c3.808,0.053,7.603-0.454,11.264-1.504
	C116.845,174.11,118.441,173.862,120.048,173.856L120.048,173.856z"/>
<path d="M280.048,416.096c-8.837,0-16-7.163-16-16v-128c0-8.837,7.163-16,16-16s16,7.163,16,16v128
	C296.048,408.932,288.884,416.096,280.048,416.096z"/>
<path d="M152.048,416.096c-8.837,0-16-7.163-16-16v-128c0-8.837,7.163-16,16-16s16,7.163,16,16v128
	C168.048,408.932,160.885,416.096,152.048,416.096z"/>
<g>
</g>
<g>
</g>
<g>
</g>
<g>
</g>
<g>
</g>
<g>
</g>
<g>
</g>
<g>
</g>
<g>
</g>
<g>
</g>
<g>
</g>
<g>
</g>
<g>
</g>
<g>
</g>
<g>
</g>
</svg>
