<svg enable-background="new 0 0 24 24" height="512" viewBox="0 0 24 24" width="512" xmlns="http://www.w3.org/2000/svg"><g id="color"><g><path d="m3.836 15.841c.664.594 1.417 1.065 2.224 1.419l4.244-2.665c.878-.554 2.054-.423 2.789.316l1.427 1.427c2.139-1.577 3.48-4.1 3.48-6.838 0-4.687-3.813-8.5-8.5-8.5s-8.5 3.813-8.5 8.5c0 2.419 1.033 4.73 2.836 6.341z" fill="#2196f3"/></g></g><g id="regular"><g><path d="m.751 24c-.25 0-.494-.124-.636-.352-.22-.35-.115-.813.237-1.033l10.75-6.75c.294-.186.682-.144.929.104l3.47 3.47 7.22-7.22c.293-.293.768-.293 1.061 0s.293.768 0 1.061l-7.75 7.75c-.293.293-.768.293-1.061 0l-3.577-3.577-10.246 6.432c-.123.078-.261.115-.397.115z"/></g><g><path d="m23.25 17.5c-.414 0-.75-.336-.75-.75v-3.25h-3.25c-.414 0-.75-.336-.75-.75s.336-.75.75-.75h4c.414 0 .75.336.75.75v4c0 .414-.336.75-.75.75z"/></g><g><path d="m6.55 17.42c-.096 0-.192-.018-.285-.057-3.199-1.315-5.265-4.402-5.265-7.863 0-4.687 3.813-8.5 8.5-8.5s8.5 3.813 8.5 8.5c0 2.611-1.171 5.038-3.214 6.658-.325.259-.796.202-1.054-.122-.257-.324-.203-.796.122-1.054 1.682-1.333 2.646-3.332 2.646-5.482 0-3.86-3.141-7-7-7s-7 3.14-7 7c0 2.851 1.702 5.393 4.335 6.477.383.157.566.596.408.979-.119.289-.398.464-.693.464z"/></g><g><g><path d="m9.88 13h-2.13c-.414 0-.75-.336-.75-.75s.336-.75.75-.75h2.13c.342 0 .62-.278.62-.62 0-.352-.278-.63-.62-.63h-.76c-1.169 0-2.12-.951-2.12-2.12 0-1.179.951-2.13 2.12-2.13h2.13c.414 0 .75.336.75.75s-.336.75-.75.75h-2.13c-.342 0-.62.278-.62.62 0 .352.278.63.62.63h.76c1.169 0 2.12.951 2.12 2.12 0 1.179-.951 2.13-2.12 2.13z"/></g><g><path d="m9.5 7.5c-.414 0-.75-.336-.75-.75v-1.5c0-.414.336-.75.75-.75s.75.336.75.75v1.5c0 .414-.336.75-.75.75z"/></g><g><path d="m9.5 14.5c-.414 0-.75-.336-.75-.75v-1.5c0-.414.336-.75.75-.75s.75.336.75.75v1.5c0 .414-.336.75-.75.75z"/></g></g></g></svg>