<?xml version="1.0" encoding="iso-8859-1"?>
<!-- Generator: Adobe Illustrator 19.0.0, SVG Export Plug-In . SVG Version: 6.00 Build 0)  -->
<svg version="1.1" id="Capa_1" xmlns="http://www.w3.org/2000/svg" xmlns:xlink="http://www.w3.org/1999/xlink" x="0px" y="0px"
	 viewBox="0 0 512 512" style="enable-background:new 0 0 512 512;" xml:space="preserve">
<g>
	<circle style="fill:#607D8B;" cx="96" cy="320" r="80"/>
	<circle style="fill:#607D8B;" cx="416" cy="320" r="80"/>
</g>
<path d="M96,416c-53.019,0-96-42.981-96-96s42.981-96,96-96s96,42.981,96,96S149.019,416,96,416z M96,256c-35.346,0-64,28.654-64,64
	s28.654,64,64,64s64-28.654,64-64S131.346,256,96,256z"/>
<path d="M416,416c-53.019,0-96-42.981-96-96s42.981-96,96-96s96,42.981,96,96S469.019,416,416,416z M416,256
	c-35.346,0-64,28.654-64,64s28.654,64,64,64s64-28.654,64-64S451.346,256,416,256z"/>
<path d="M208,160h-64c-8.837,0-16-7.163-16-16s7.163-16,16-16h64c8.837,0,16,7.163,16,16S216.837,160,208,160z"/>
<path d="M224,336H96c-8.837,0-16-7.163-16-16c0-2.999,0.843-5.937,2.432-8.48l80-128c2.659-4.296,7.191-7.084,12.224-7.52l192-16
	c6.706-0.624,13.068,3.078,15.84,9.216c2.826,6.091,1.548,13.3-3.2,18.048l-144,144C232.308,334.278,228.244,335.982,224,336z
	 M124.8,304h92.576l108.448-108.448l-140.512,11.744L124.8,304z"/>
<path d="M176,208c-8.837,0-16-7.163-16-16v-48c0-8.837,7.163-16,16-16s16,7.163,16,16v48C192,200.837,184.837,208,176,208z"/>
<path d="M416,336c-6.896,0.009-13.021-4.402-15.2-10.944l-48-144c-2.792-8.395,1.749-17.464,10.144-20.256
	c8.395-2.792,17.464,1.749,20.256,10.144l48,144c2.799,8.382-1.727,17.445-10.108,20.244c-0.012,0.004-0.024,0.008-0.036,0.012
	C419.423,335.73,417.717,336,416,336z"/>
<path d="M368,192c-8.837,0-16-7.163-16-16v-32c0-8.837-7.163-16-16-16h-32c-8.837,0-16-7.163-16-16s7.163-16,16-16h32
	c26.51,0,48,21.49,48,48v32C384,184.837,376.837,192,368,192z"/>
<path d="M224,336c-6.664,0-12.63-4.13-14.976-10.368l-48-128c-3.108-8.272,1.078-17.497,9.35-20.605
	c8.269-3.107,17.491,1.074,20.602,9.341l48,128c3.11,8.271-1.073,17.498-9.344,20.608C227.833,335.658,225.924,336.005,224,336z"/>
<g>
</g>
<g>
</g>
<g>
</g>
<g>
</g>
<g>
</g>
<g>
</g>
<g>
</g>
<g>
</g>
<g>
</g>
<g>
</g>
<g>
</g>
<g>
</g>
<g>
</g>
<g>
</g>
<g>
</g>
</svg>
