<?xml version="1.0" encoding="utf-8"?>
<!-- Generator: Adobe Illustrator 25.3.1, SVG Export Plug-In . SVG Version: 6.00 Build 0)  -->
<svg version="1.1" id="Calque_1" xmlns="http://www.w3.org/2000/svg" xmlns:xlink="http://www.w3.org/1999/xlink" x="0px" y="0px"
	 viewBox="0 0 490.7 490.7" style="enable-background:new 0 0 490.7 490.7;" xml:space="preserve">
<style type="text/css">
	.st0{fill:#455A64;stroke:#000000;stroke-width:7;stroke-miterlimit:10;}
	.st1{fill:#CFD8DC;stroke:#000000;stroke-width:7;stroke-miterlimit:10;}
	.st2{stroke:#000000;stroke-width:7;stroke-miterlimit:10;}
</style>
<path class="st0" d="M349.5,422.4H141.2c-28.7,0-52.1,23.3-52.1,52.1c0,5.7,4.7,10.4,10.4,10.4h291.6c5.7,0,10.4-4.7,10.4-10.4
	C401.5,445.7,378.2,422.4,349.5,422.4z"/>
<path class="st0" d="M432.8,5.8H57.9C29.2,5.8,5.8,29.2,5.8,57.9v291.6c0,28.7,23.3,52.1,52.1,52.1h374.9
	c28.7,0,52.1-23.3,52.1-52.1V57.9C484.8,29.2,461.5,5.8,432.8,5.8z"/>
<path class="st1" d="M57.9,26.7h374.9c17.2,0,31.2,14,31.2,31.2v260.3H26.7V57.9C26.7,40.7,40.7,26.7,57.9,26.7z"/>
<path class="st1" d="M224.5,386.8h42.9v42.9h-42.9V386.8z"/>
<path class="st2" d="M432.8,401.5H57.9c-28.7,0-52.1-23.4-52.1-52.1V57.9c0-28.7,23.4-52.1,52.1-52.1h374.9
	c28.7,0,52.1,23.4,52.1,52.1v291.6C484.8,378.2,461.5,401.5,432.8,401.5z M57.9,26.7c-17.2,0-31.2,14-31.2,31.2v291.6
	c0,17.2,14,31.2,31.2,31.2h374.9c17.2,0,31.2-14,31.2-31.2V57.9c0-17.2-14-31.2-31.2-31.2H57.9z"/>
<path class="st2" d="M391.1,484.8H99.6c-5.7,0-10.4-4.7-10.4-10.4c0-28.7,23.4-52.1,52.1-52.1h208.3c28.7,0,52.1,23.4,52.1,52.1
	C401.5,480.2,396.9,484.8,391.1,484.8z M111.7,464h267.2c-4.3-12.1-15.9-20.8-29.5-20.8H141.2C127.6,443.2,116,451.9,111.7,464z"/>
<path class="st2" d="M474.4,339H16.2c-5.8,0-10.4-4.7-10.4-10.4c0-5.8,4.7-10.4,10.4-10.4h458.2c5.7,0,10.4,4.7,10.4,10.4
	C484.8,334.4,480.2,339,474.4,339z"/>
<path class="st2" d="M224.5,443.2c-5.7,0-10.4-4.7-10.4-10.4v-41.6c0-5.8,4.7-10.4,10.4-10.4c5.7,0,10.4,4.7,10.4,10.4v41.6
	C234.9,438.5,230.3,443.2,224.5,443.2z"/>
<path class="st2" d="M266.2,443.2c-5.8,0-10.4-4.7-10.4-10.4v-41.6c0-5.8,4.7-10.4,10.4-10.4c5.7,0,10.4,4.7,10.4,10.4v41.6
	C276.6,438.5,271.9,443.2,266.2,443.2z"/>
<path class="st2" d="M266.2,151.6c-5.8,0-10.4-4.7-10.4-10.4v-37.3l-3,3c-4.1,4.1-10.7,4.1-14.7,0c-4.1-4.1-4.1-10.7,0-14.7
	l20.8-20.8c3-3,7.5-3.9,11.3-2.2c3.9,1.6,6.4,5.4,6.4,9.6v62.5C276.6,147,271.9,151.6,266.2,151.6z"/>
<path class="st2" d="M328.6,151.6c-5.8,0-10.4-4.7-10.4-10.4v-37.3l-3,3c-4.1,4.1-10.7,4.1-14.7,0c-4.1-4.1-4.1-10.7,0-14.7
	l20.8-20.8c3-3,7.4-3.9,11.3-2.2c3.9,1.6,6.4,5.4,6.4,9.6v62.5C339,147,334.4,151.6,328.6,151.6z"/>
<path class="st2" d="M203.7,151.6H162c-5.7,0-10.4-4.7-10.4-10.4V78.7c0-5.8,4.7-10.4,10.4-10.4h41.7c5.7,0,10.4,4.7,10.4,10.4v62.5
	C214.1,147,209.4,151.6,203.7,151.6z M172.4,130.8h20.8V89.1h-20.8V130.8z"/>
<path class="st2" d="M120.4,151.6H78.7c-5.8,0-10.4-4.7-10.4-10.4V78.7c0-5.8,4.7-10.4,10.4-10.4h41.6c5.8,0,10.4,4.7,10.4,10.4
	v62.5C130.8,147,126.1,151.6,120.4,151.6z M89.1,130.8H110V89.1H89.1V130.8z"/>
<path class="st2" d="M411.9,151.6h-41.7c-5.7,0-10.4-4.7-10.4-10.4V78.7c0-5.8,4.7-10.4,10.4-10.4h41.7c5.7,0,10.4,4.7,10.4,10.4
	v62.5C422.4,147,417.7,151.6,411.9,151.6z M380.7,130.8h20.8V89.1h-20.8V130.8z"/>
<path class="st2" d="M182.9,276.6c-5.7,0-10.4-4.7-10.4-10.4v-37.3l-3,3c-4.1,4.1-10.7,4.1-14.7,0c-4.1-4.1-4.1-10.7,0-14.7
	l20.8-20.8c3-3,7.5-3.9,11.3-2.2c3.9,1.6,6.4,5.4,6.4,9.6v62.5C193.3,271.9,188.6,276.6,182.9,276.6z"/>
<path class="st2" d="M328.6,276.6c-5.8,0-10.4-4.7-10.4-10.4v-37.3l-3,3c-4.1,4.1-10.7,4.1-14.7,0c-4.1-4.1-4.1-10.7,0-14.7
	l20.8-20.8c3-3,7.4-3.9,11.3-2.2c3.9,1.6,6.4,5.4,6.4,9.6v62.5C339,271.9,334.4,276.6,328.6,276.6z"/>
<path class="st2" d="M266.2,276.6h-41.7c-5.7,0-10.4-4.7-10.4-10.4v-62.5c0-5.8,4.7-10.4,10.4-10.4h41.7c5.7,0,10.4,4.7,10.4,10.4
	v62.5C276.6,271.9,271.9,276.6,266.2,276.6z M234.9,255.7h20.8v-41.7h-20.8V255.7z"/>
<path class="st2" d="M120.4,276.6H78.7c-5.8,0-10.4-4.7-10.4-10.4v-62.5c0-5.8,4.7-10.4,10.4-10.4h41.6c5.8,0,10.4,4.7,10.4,10.4
	v62.5C130.8,271.9,126.1,276.6,120.4,276.6z M89.1,255.7H110v-41.7H89.1V255.7z"/>
<path class="st2" d="M411.9,276.6h-41.7c-5.7,0-10.4-4.7-10.4-10.4v-62.5c0-5.8,4.7-10.4,10.4-10.4h41.7c5.7,0,10.4,4.7,10.4,10.4
	v62.5C422.4,271.9,417.7,276.6,411.9,276.6z M380.7,255.7h20.8v-41.7h-20.8V255.7z"/>
</svg>
