<svg id="Regular" height="512" viewBox="0 0 24 24" width="512" xmlns="http://www.w3.org/2000/svg"><path d="m17.38 14.25c0 1.585 1.311 3 2.935 3s2.935-1.279 2.935-2.864c0-1.002-.518-1.871-1.311-2.386.792-.515 1.311-1.384 1.311-2.386 0-1.585-1.311-2.864-2.935-2.864s-2.935 1.415-2.935 3h-10.76c0-1.585-1.311-3-2.935-3s-2.935 1.279-2.935 2.864c0 1.002.518 1.871 1.311 2.386-.792.515-1.311 1.384-1.311 2.386 0 1.585 1.311 2.864 2.935 2.864s2.935-1.415 2.935-3z" fill="#90a4ae"/><path d="m20.315 18c-1.746 0-3.255-1.312-3.607-3h-9.416c-.352 1.688-1.861 3-3.607 3-2.032 0-3.685-1.621-3.685-3.614 0-.89.332-1.734.917-2.386-.585-.652-.917-1.496-.917-2.386 0-1.993 1.653-3.614 3.685-3.614 1.746 0 3.255 1.312 3.607 3h9.416c.352-1.688 1.861-3 3.607-3 2.032 0 3.685 1.621 3.685 3.614 0 .891-.332 1.734-.917 2.386.585.652.917 1.496.917 2.386 0 1.993-1.653 3.614-3.685 3.614zm-13.695-4.5h10.76c.414 0 .75.336.75.75 0 1.199 1.021 2.25 2.185 2.25 1.205 0 2.185-.948 2.185-2.114 0-.716-.354-1.356-.97-1.758-.212-.138-.341-.375-.341-.628s.128-.49.341-.628c.617-.401.97-1.042.97-1.758 0-1.166-.98-2.114-2.185-2.114-1.164 0-2.185 1.051-2.185 2.25 0 .414-.336.75-.75.75h-10.76c-.414 0-.75-.336-.75-.75 0-1.199-1.021-2.25-2.185-2.25-1.205 0-2.185.948-2.185 2.114 0 .716.354 1.356.97 1.758.213.138.341.374.341.628s-.128.49-.341.628c-.616.402-.97 1.042-.97 1.758 0 1.166.98 2.114 2.185 2.114 1.164 0 2.185-1.051 2.185-2.25 0-.414.336-.75.75-.75z"/></svg>