<svg id="_x31__x2C_5" height="512" viewBox="0 0 24 24" width="512" xmlns="http://www.w3.org/2000/svg"><path d="m1.75 4.809v16.441c0 1.105.895 2 2 2h16.426c.552 0 1-.448 1-1v-17c0-.159-.04-.306-.103-.441z" fill="#607d8b"/><path d="m13.226 12.536-1.726-2.097-1.726 2.097c-.359.439-1.024.156-1.024-.443v-8.093h5.5v8.093c0 .6-.664.881-1.024.443z" fill="#4caf50"/><path d="m19.256 4.985h-15.7c-1.074 0-1.953-.879-1.953-1.953v-.33c0-1.074.879-1.953 1.953-1.953h15.7z" fill="#fff"/><path d="m21.25 24h-17.5c-1.517 0-2.75-1.233-2.75-2.75v-18.5c0-1.517 1.233-2.75 2.75-2.75h15.5c.414 0 .75.336.75.75v3.25h1.25c.414 0 .75.336.75.75v18.5c0 .414-.336.75-.75.75zm-18.75-18.801v16.051c0 .689.561 1.25 1.25 1.25h16.75v-17h-16.75c-.45 0-.875-.108-1.25-.301zm1.25-3.699c-.689 0-1.25.561-1.25 1.25s.561 1.25 1.25 1.25h14.75v-2.5z"/><path d="m14.25 14c-.206 0-.408-.085-.553-.243l-2.197-2.397-2.197 2.397c-.208.229-.537.304-.825.192s-.478-.39-.478-.699v-8.5c0-.414.336-.75.75-.75s.75.336.75.75v6.572l1.447-1.579c.284-.31.821-.31 1.105 0l1.447 1.579v-6.572c.001-.414.337-.75.751-.75s.75.336.75.75v8.5c0 .309-.19.587-.478.699-.088.034-.181.051-.272.051z"/></svg>