<svg id="regular" enable-background="new 0 0 24 24" height="512" viewBox="0 0 24 24" width="512" xmlns="http://www.w3.org/2000/svg"><path d="m12.24 13.96c-.08.03-.16.04-.24.04s-.16-.01-.24-.04l-11.76-3.92v9.21c0 1.52 1.23 2.75 2.75 2.75h18.5c1.52 0 2.75-1.23 2.75-2.75v-9.21z" fill="#607d8b"/><path d="m24 7.75v2.29l-11.76 3.92c-.08.03-.16.04-.24.04s-.16-.01-.24-.04l-11.76-3.92v-2.29c0-1.52 1.23-2.75 2.75-2.75h18.5c1.52 0 2.75 1.23 2.75 2.75z" fill="#78909c"/><path d="m12 14c-.08 0-.16-.013-.237-.039l-11.25-3.75c-.393-.13-.605-.555-.474-.948.13-.393.555-.606.949-.474l11.012 3.67 11.013-3.671c.394-.131.818.082.949.474.131.393-.081.818-.474.949l-11.25 3.75c-.078.026-.158.039-.238.039z"/><path d="m21.25 22h-18.5c-1.517 0-2.75-1.233-2.75-2.75v-11.5c0-1.517 1.233-2.75 2.75-2.75h18.5c1.517 0 2.75 1.233 2.75 2.75v11.5c0 1.517-1.233 2.75-2.75 2.75zm-18.5-15.5c-.689 0-1.25.561-1.25 1.25v11.5c0 .689.561 1.25 1.25 1.25h18.5c.689 0 1.25-.561 1.25-1.25v-11.5c0-.689-.561-1.25-1.25-1.25z"/><path d="m15.25 6.5c-.414 0-.75-.336-.75-.75v-2c0-.138-.112-.25-.25-.25h-4.5c-.138 0-.25.112-.25.25v2c0 .414-.336.75-.75.75s-.75-.336-.75-.75v-2c0-.965.785-1.75 1.75-1.75h4.5c.965 0 1.75.785 1.75 1.75v2c0 .414-.336.75-.75.75z"/></svg>