<svg id="_x31__x2C_5" enable-background="new 0 0 24 24" height="512" viewBox="0 0 24 24" width="512" xmlns="http://www.w3.org/2000/svg"><path d="m20.121 8.25h-5.727c-1.458 0-2.643-1.121-2.643-2.5 0-1.215.921-2.229 2.137-2.454.458-1.482 1.918-2.546 3.591-2.546 1.321 0 2.543.664 3.21 1.719 1.439.249 2.517 1.443 2.517 2.865-.002 1.607-1.385 2.916-3.085 2.916z" fill="#2196f3"/><path d="m9.25 5.25h-6.5v-1.5c0-.552.448-1 1-1h4.5c.552 0 1 .448 1 1z" fill="#90a4ae"/><path d="m10.25 5.25h-8.5c-.55 0-1 .45-1 1v17h10.5v-17c0-.55-.45-1-1-1z" fill="#607d8b"/><path d="m8 23.25h-4v-4c0-.414.336-.75.75-.75h2.5c.414 0 .75.336.75.75z" fill="#f5f5f5"/><path d="m15 19.25c-.689 0-1.25-.561-1.25-1.25s.561-1.25 1.25-1.25 1.25.561 1.25 1.25-.561 1.25-1.25 1.25z" fill="#8bc34a"/><path d="m20.5 9h-6.5c-1.654 0-3-1.346-3-3 0-1.457 1.045-2.676 2.425-2.944.519-1.779 2.177-3.056 4.075-3.056 1.499 0 2.886.797 3.643 2.062 1.633.299 2.857 1.733 2.857 3.438 0 1.93-1.57 3.5-3.5 3.5zm-3-7.5c-1.359 0-2.527 1.013-2.718 2.354-.052.371-.368.646-.742.646-.867 0-1.54.673-1.54 1.5s.673 1.5 1.5 1.5h6.5c1.103 0 2-.897 2-2 0-1.059-.824-1.933-1.876-1.991-.276-.016-.521-.182-.639-.432-.446-.958-1.422-1.577-2.485-1.577z"/><path d="m11.25 24h-10.5c-.414 0-.75-.336-.75-.75v-17c0-.965.785-1.75 1.75-1.75h6.55c.414 0 .75.336.75.75s-.336.75-.75.75h-6.55c-.136 0-.25.114-.25.25v16.25h9v-11.75c0-.414.336-.75.75-.75s.75.336.75.75v12.5c0 .414-.336.75-.75.75z"/><path d="m8.3 6h-5.55c-.414 0-.75-.336-.75-.75v-1.5c0-.965.785-1.75 1.75-1.75h4.5c.526 0 1.021.234 1.358.643.264.319.219.792-.101 1.056-.319.261-.791.219-1.055-.101-.037-.045-.101-.098-.202-.098h-4.5c-.136 0-.25.114-.25.25v.75h4.8c.414 0 .75.336.75.75s-.336.75-.75.75z"/><path d="m6 3.5c-.414 0-.75-.336-.75-.75v-2c0-.414.336-.75.75-.75s.75.336.75.75v2c0 .414-.336.75-.75.75z"/><path d="m15 24c-.414 0-.75-.336-.75-.75v-3.745c0-.414.336-.75.75-.75s.75.336.75.75v3.745c0 .414-.336.75-.75.75z"/><path d="m15 20c-1.103 0-2-.897-2-2s.897-2 2-2 2 .897 2 2-.897 2-2 2zm0-2.5c-.275 0-.5.225-.5.5s.225.5.5.5.5-.225.5-.5-.225-.5-.5-.5z"/><path d="m7.75 24h-3.5c-.414 0-.75-.336-.75-.75v-4.5c0-.414.336-.75.75-.75h3.5c.414 0 .75.336.75.75v4.5c0 .414-.336.75-.75.75zm-2.75-1.5h2v-3h-2z"/><path d="m7.25 15h-2.5c-.414 0-.75-.336-.75-.75s.336-.75.75-.75h2.5c.414 0 .75.336.75.75s-.336.75-.75.75z"/><path d="m7.25 9h-2.5c-.414 0-.75-.336-.75-.75s.336-.75.75-.75h2.5c.414 0 .75.336.75.75s-.336.75-.75.75z"/><path d="m7.25 12h-2.5c-.414 0-.75-.336-.75-.75s.336-.75.75-.75h2.5c.414 0 .75.336.75.75s-.336.75-.75.75z"/><path d="m18.25 24h-8.5c-.414 0-.75-.336-.75-.75s.336-.75.75-.75h8.5c.414 0 .75.336.75.75s-.336.75-.75.75z"/></svg>