<svg enable-background="new 0 0 24 24" height="512" viewBox="0 0 24 24" width="512" xmlns="http://www.w3.org/2000/svg"><path d="m19.425 19.425c-4.094 4.094-10.755 4.094-14.849 0s-4.094-10.755 0-14.849 10.755-4.094 14.849 0 4.093 10.755 0 14.849zm-11.314-11.314c-2.144 2.144-2.144 5.634 0 7.778s5.634 2.144 7.778 0 2.144-5.634 0-7.778-5.634-2.145-7.778 0z" fill="#eceff1"/><g fill="#f44336"><path d="m5.677 14.807-2.637 2.637c-.565.565-.565 1.485 0 2.051l1.465 1.465c.565.565 1.485.565 2.051 0l2.637-2.637c.565-.565.565-1.485 0-2.051l-1.465-1.465c-.565-.565-1.485-.565-2.051 0z"/><path d="m17.444 3.041-2.637 2.637c-.565.565-.565 1.485 0 2.051l1.465 1.465c.565.565 1.485.565 2.051 0l2.637-2.637c.565-.565.565-1.485 0-2.051l-1.465-1.465c-.566-.566-1.486-.566-2.051 0z"/><path d="m4.746 3.282-1.464 1.464c-.565.565-.565 1.485 0 2.051l2.637 2.637c.565.565 1.485.565 2.051 0l1.465-1.465c.565-.565.565-1.485 0-2.051l-2.638-2.636c-.565-.566-1.485-.566-2.051 0z"/><path d="m16.272 14.807-1.465 1.465c-.565.565-.565 1.485 0 2.051l2.637 2.637c.565.565 1.485.565 2.051 0l1.465-1.465c.565-.565.565-1.485 0-2.051l-2.637-2.637c-.566-.565-1.486-.565-2.051 0z"/></g><path d="m12 23.995c-3.073 0-6.146-1.17-8.485-3.509-4.679-4.679-4.679-12.292 0-16.97 4.679-4.679 12.292-4.679 16.971 0 4.679 4.678 4.679 12.292 0 16.97-2.34 2.339-5.413 3.509-8.486 3.509zm0-22.49c-2.689 0-5.378 1.023-7.425 3.07-4.094 4.094-4.094 10.755 0 14.849s10.755 4.095 14.85 0c4.094-4.094 4.094-10.755 0-14.849-2.047-2.046-4.736-3.07-7.425-3.07z"/><path d="m12 17.998c-1.537 0-3.073-.585-4.243-1.755-1.133-1.134-1.757-2.64-1.757-4.243s.624-3.109 1.757-4.242c2.339-2.339 6.146-2.34 8.485 0 1.134 1.133 1.758 2.639 1.758 4.242s-.624 3.109-1.757 4.243c-1.17 1.17-2.706 1.755-4.243 1.755zm0-10.496c-1.152 0-2.305.438-3.182 1.316-.85.85-1.318 1.98-1.318 3.182s.468 2.332 1.318 3.182c1.755 1.755 4.609 1.755 6.364 0 .85-.85 1.318-1.98 1.318-3.182s-.468-2.332-1.318-3.182c-.877-.877-2.03-1.316-3.182-1.316z"/><path d="m7.064 10.997c-.192 0-.384-.073-.53-.22l-4.448-4.448c-.293-.293-.293-.768 0-1.061s.768-.293 1.061 0l4.448 4.448c.293.293.293.768 0 1.061-.147.146-.339.22-.531.22z"/><path d="m18.201 22.133c-.192 0-.384-.073-.53-.22l-4.44-4.44c-.293-.293-.293-.768 0-1.061s.768-.293 1.061 0l4.44 4.44c.293.293.293.768 0 1.061-.147.147-.339.22-.531.22z"/><path d="m10.247 7.814c-.192 0-.384-.073-.53-.22l-4.448-4.447c-.293-.293-.293-.768 0-1.061s.768-.293 1.061 0l4.448 4.448c.293.293.293.768 0 1.061-.148.146-.34.219-.531.219z"/><path d="m21.383 18.952c-.192 0-.384-.073-.53-.22l-4.44-4.441c-.293-.293-.293-.768 0-1.061s.768-.293 1.061 0l4.44 4.441c.293.293.293.768 0 1.061-.147.146-.339.22-.531.22z"/><path d="m5.799 22.133c-.192 0-.384-.073-.53-.22-.293-.293-.293-.768 0-1.061l4.448-4.448c.293-.293.768-.293 1.061 0s.293.768 0 1.061l-4.448 4.448c-.147.147-.339.22-.531.22z"/><path d="m16.943 10.989c-.192 0-.384-.073-.53-.22-.293-.293-.293-.768 0-1.061l4.44-4.44c.293-.293.768-.293 1.061 0s.293.768 0 1.061l-4.44 4.44c-.147.147-.339.22-.531.22z"/><path d="m2.617 18.952c-.192 0-.384-.073-.53-.22-.293-.293-.293-.768 0-1.061l4.448-4.448c.293-.293.768-.293 1.061 0s.293.768 0 1.061l-4.448 4.448c-.148.146-.339.22-.531.22z"/><path d="m13.761 7.808c-.192 0-.384-.073-.53-.22-.293-.293-.293-.768 0-1.061l4.44-4.441c.293-.293.768-.293 1.061 0s.293.768 0 1.061l-4.44 4.441c-.147.146-.339.22-.531.22z"/></svg>