<svg fill="none" height="512" viewBox="0 0 24 24" width="512" xmlns="http://www.w3.org/2000/svg"><g clip-rule="evenodd" fill-rule="evenodd"><path d="m11.75 1c-5.93706 0-10.75 4.81294-10.75 10.75 0 5.9371 4.81294 10.75 10.75 10.75 5.9371 0 10.75-4.8129 10.75-10.75 0-5.93706-4.8129-10.75-10.75-10.75z" fill="#f44336"/><path d="m14 7.75c.4142 0 .75.33579.75.75v6.5c0 .4142-.3358.75-.75.75s-.75-.3358-.75-.75v-6.5c0-.41421.3358-.75.75-.75z" fill="#fafafa"/><path d="m9.5 7.75c.41421 0 .75.33579.75.75v6.5c0 .4142-.33579.75-.75.75s-.75-.3358-.75-.75v-6.5c0-.41421.33579-.75.75-.75z" fill="#fafafa"/></g><path d="m10.25 8.5c0-.41421-.33579-.75-.75-.75s-.75.33579-.75.75v6.5c0 .4142.33579.75.75.75s.75-.3358.75-.75z" fill="#000"/><path d="m14 7.75c.4142 0 .75.33579.75.75v6.5c0 .4142-.3358.75-.75.75s-.75-.3358-.75-.75v-6.5c0-.41421.3358-.75.75-.75z" fill="#000"/><path clip-rule="evenodd" d="m11.75 1c-5.93706 0-10.75 4.81294-10.75 10.75 0 5.9371 4.81294 10.75 10.75 10.75 5.9371 0 10.75-4.8129 10.75-10.75 0-5.93706-4.8129-10.75-10.75-10.75zm-9.25 10.75c0-5.10863 4.14137-9.25 9.25-9.25 5.1086 0 9.25 4.14137 9.25 9.25 0 5.1086-4.1414 9.25-9.25 9.25-5.10863 0-9.25-4.1414-9.25-9.25z" fill="#000" fill-rule="evenodd"/></svg>