<svg fill="none" height="512" viewBox="0 0 24 24" width="512" xmlns="http://www.w3.org/2000/svg"><path d="m12 1.25c-5.93706 0-10.75 4.81294-10.75 10.75 0 5.9371 4.81294 10.75 10.75 10.75 5.9371 0 10.75-4.8129 10.75-10.75 0-5.93706-4.8129-10.75-10.75-10.75z" fill="#4caf50"/><path d="m9.8975 6.364c-.2312-.1445-.52261-.15215-.76108-.01998-.23846.13217-.38642.38334-.38642.65598v10c0 .2726.14796.5238.38642.656.23847.1322.52988.1245.76108-.02l8-5c.2193-.1371.3525-.3774.3525-.636s-.1332-.4989-.3525-.636z" fill="#fafafa"/><g clip-rule="evenodd" fill="#000" fill-rule="evenodd"><path d="m9.8975 6.364c-.2312-.1445-.52261-.15215-.76108-.01998-.23846.13217-.38642.38334-.38642.65598v10c0 .2726.14796.5238.38642.656.23847.1322.52988.1245.76108-.02l8-5c.2193-.1371.3525-.3774.3525-.636s-.1332-.4989-.3525-.636zm6.1874 5.636-5.8349 3.6468v-7.29361z"/><path d="m12 1.25c-5.93706 0-10.75 4.81294-10.75 10.75 0 5.9371 4.81294 10.75 10.75 10.75 5.9371 0 10.75-4.8129 10.75-10.75 0-5.93706-4.8129-10.75-10.75-10.75zm-9.25 10.75c0-5.10863 4.14137-9.25 9.25-9.25 5.1086 0 9.25 4.14137 9.25 9.25 0 5.1086-4.1414 9.25-9.25 9.25-5.10863 0-9.25-4.1414-9.25-9.25z"/></g></svg>