<svg id="_x31__x2C_5" height="512" viewBox="0 0 24 24" width="512" xmlns="http://www.w3.org/2000/svg"><path d="m11.939 14 9.811 9.811 2.061-2.061-9.28-9.28c-.146-.146-.338-.22-.53-.22s-.384.073-.53.22z" fill="#cfd8dc"/><path d="m12.309 4.86-3.202-3.272c-.727-.744-2.033-.744-2.761 0l-4.773 4.876c-.364.372-.573.886-.573 1.41s.209 1.038.573 1.41l3.203 3.271c.127.13.294.195.46.195.167 0 .333-.065.46-.195l6.613-6.755c.255-.26.255-.681 0-.94z" fill="#cfd8dc"/><path d="m17.25 8.5c0 .41-.17.79-.44 1.06l-7.5 7.25c-.27.27-.65.44-1.06.44s-.79-.17-1.06-.44l-2.75-2.75 9.62-9.62 2.75 3c.27.27.44.65.44 1.06z" fill="#607d8b"/><path d="m3.75 15c-.192 0-.384-.073-.53-.22-.293-.293-.293-.768 0-1.061l10.5-10.5c.293-.293.768-.293 1.061 0s.293.768 0 1.061l-10.5 10.5c-.147.147-.339.22-.531.22z"/><path d="m4.88 13.25c-.192 0-.384-.073-.53-.22l-3.69-3.69c-.42-.419-.66-.999-.66-1.59s.24-1.171.66-1.59l5.5-5.5c.838-.839 2.343-.839 3.181 0l3.69 3.69c.293.293.293.768 0 1.061s-.768.293-1.061 0l-3.69-3.691c-.28-.28-.78-.28-1.06 0l-5.5 5.5c-.14.14-.22.333-.22.53s.08.39.22.53l3.69 3.69c.293.293.293.768 0 1.061-.146.146-.338.219-.53.219z"/><path d="m23.25 22c-.192 0-.384-.073-.53-.22l-9-9c-.293-.293-.293-.768 0-1.061s.768-.293 1.061 0l9 9c.293.293.293.768 0 1.061-.147.147-.339.22-.531.22z"/><path d="m21.25 24c-.192 0-.384-.073-.53-.22l-9-9c-.293-.293-.293-.768 0-1.061s.768-.293 1.061 0l9 9c.293.293.293.768 0 1.061-.147.147-.339.22-.531.22z"/><path d="m5 9c-.551 0-1-.449-1-1s.449-1 1-1 1 .449 1 1-.449 1-1 1z"/><path d="m8 6c-.551 0-1-.449-1-1s.449-1 1-1 1 .449 1 1-.449 1-1 1z"/><path d="m8.25 18c-.591 0-1.171-.24-1.59-.66l-2.75-2.75c-.293-.293-.293-.768 0-1.061s.768-.293 1.061 0l2.75 2.75c.28.28.779.28 1.06 0l7.509-7.259c.13-.13.21-.323.21-.52s-.08-.39-.22-.53l-2.772-3.023c-.28-.305-.259-.78.046-1.06s.78-.259 1.06.046l2.75 3c.396.396.636.976.636 1.567s-.24 1.171-.66 1.59l-7.509 7.259c-.41.411-.99.651-1.581.651z"/></svg>