<svg id="_x31__x2C_5" height="512" viewBox="0 0 24 24" width="512" xmlns="http://www.w3.org/2000/svg"><path d="m7.878 1.75h-5.387c-.914 0-1.658.561-1.658 1.25s.743 1.25 1.658 1.25h5.387c.344 0 .622-.21.622-.469v-1.562c0-.259-.278-.469-.622-.469z" fill="#cfd8dc"/><path d="m15.25 3.277c0-1.394-.991-2.527-2.209-2.527h-2.811c-.775 0-1.406.721-1.406 1.608v1.547c0 .887.631 1.608 1.406 1.608h1.004v3.737h4.016z" fill="#607d8b"/><path d="m11.417 9.25v1.6c0 .772.55 1.4 1.225 1.4h1.05c.675 0 1.225-.628 1.225-1.4v-1.6z" fill="#cfd8dc"/><path d="m8.5 5h-6.5c-1.103 0-2-.897-2-2s.897-2 2-2h6.5c.414 0 .75.336.75.75s-.336.75-.75.75h-6.5c-.276 0-.5.224-.5.5s.224.5.5.5h6.5c.414 0 .75.336.75.75s-.336.75-.75.75z"/><path d="m5.75 5c-.414 0-.75-.336-.75-.75v-2.5c0-.414.336-.75.75-.75s.75.336.75.75v2.5c0 .414-.336.75-.75.75z"/><path d="m14.25 13h-1.5c-.965 0-1.75-.785-1.75-1.75v-5.25h-1.25c-.965 0-1.75-.785-1.75-1.75v-2.5c0-.965.785-1.75 1.75-1.75h3.5c1.517 0 2.75 1.233 2.75 2.75v8.5c0 .965-.785 1.75-1.75 1.75zm-4.5-11.5c-.138 0-.25.112-.25.25v2.5c0 .138.112.25.25.25h2c.414 0 .75.336.75.75v6c0 .138.112.25.25.25h1.5c.138 0 .25-.112.25-.25v-8.5c0-.689-.561-1.25-1.25-1.25z"/><path d="m16.5 24c-2.068 0-3.75-1.682-3.75-3.75v-7.75c0-.414.336-.75.75-.75s.75.336.75.75v7.75c0 1.241 1.009 2.25 2.25 2.25s2.25-1.009 2.25-2.25v-10.75c0-2.068 1.682-3.75 3.75-3.75h.75c.414 0 .75.336.75.75s-.336.75-.75.75h-.75c-1.241 0-2.25 1.009-2.25 2.25v10.75c0 2.068-1.682 3.75-3.75 3.75z"/><path d="m15.25 10h-3.5c-.414 0-.75-.336-.75-.75s.336-.75.75-.75h3.5c.414 0 .75.336.75.75s-.336.75-.75.75z"/></svg>