<svg id="_x31__x2C_5" height="512" viewBox="0 0 24 24" width="512" xmlns="http://www.w3.org/2000/svg"><path d="m13.939 16 7.811 7.811 2.061-2.061-7.28-7.28c-.146-.146-.338-.22-.53-.22s-.384.073-.53.22z" fill="#cfd8dc"/><path d="m4.016 9.692c-.171 0-.342-.065-.472-.196l-2.396-2.396c-.374-.373-.588-.889-.588-1.417s.214-1.043.588-1.417l3.118-3.117c.745-.746 2.087-.747 2.833 0l2.396 2.396c.261.261.261.684 0 .945-.001 0-5.006 5.006-5.007 5.006-.13.131-.301.196-.472.196z" fill="#cfd8dc"/><path d="m15.611 10.22-.173-1.647c-.059-.563-.312-1.093-.712-1.494l-3.119-3.119c-.592-.593-1.647-.593-2.237 0l-5.41 5.41c-.297.297-.46.694-.46 1.119 0 .424.163.821.46 1.118l3.12 3.119c.4.401.93.654 1.492.713l1.647.174 1.178 1.178c.296.297.694.46 1.119.46s.823-.163 1.118-.46l3.156-3.156c.297-.296.46-.693.46-1.118s-.163-.822-.46-1.118z" fill="#607d8b"/><path d="m3.88 10.25c-.192 0-.384-.073-.53-.22l-2.69-2.69c-.419-.418-.66-.998-.66-1.59s.241-1.172.66-1.591l3.5-3.5c.836-.838 2.343-.838 3.181 0l2.689 2.691c.293.293.293.768 0 1.061s-.768.293-1.061 0l-2.69-2.69c-.279-.281-.78-.281-1.057-.001l-3.501 3.5c-.141.14-.221.333-.221.53s.08.39.221.529l2.689 2.691c.293.293.293.768 0 1.061-.146.146-.338.219-.53.219z"/><path d="m12.75 18c-.472 0-.913-.181-1.241-.51l-1.307-1.307-1.827-.193c-.624-.065-1.212-.346-1.655-.791l-3.46-3.459c-.329-.33-.51-.77-.51-1.24 0-.471.181-.912.51-1.24l6-6c.654-.657 1.825-.658 2.481 0l3.459 3.459c.444.444.725 1.033.79 1.657l.192 1.827 1.308 1.307c.329.329.51.769.51 1.24s-.181.912-.51 1.24l-3.5 3.5c-.327.329-.768.51-1.24.51zm-2.25-13.75c-.091 0-.147.038-.179.07l-6.001 6c-.032.032-.07.089-.07.18s.039.148.071.18l3.459 3.459c.202.202.469.329.752.359l2.092.222c.171.018.33.094.451.215l1.495 1.495c.064.064.296.064.358 0l3.501-3.5c.032-.032.07-.089.07-.18s-.038-.147-.07-.18l-1.495-1.495c-.121-.121-.197-.281-.216-.452l-.221-2.091c-.029-.284-.157-.551-.358-.753l-3.459-3.459c-.033-.032-.089-.07-.18-.07z"/><path d="m23.25 22c-.192 0-.384-.073-.53-.22l-7-7c-.293-.293-.293-.768 0-1.061s.768-.293 1.061 0l7 7c.293.293.293.768 0 1.061-.147.147-.339.22-.531.22z"/><path d="m21.25 24c-.192 0-.384-.073-.53-.22l-7-7c-.293-.293-.293-.768 0-1.061s.768-.293 1.061 0l7 7c.293.293.293.768 0 1.061-.147.147-.339.22-.531.22z"/><path d="m3.25 6c-.192 0-.384-.073-.53-.22l-1.31-1.31c-.293-.293-.293-.768 0-1.061.294-.293.769-.292 1.061 0l1.31 1.31c.293.293.293.768 0 1.061-.147.147-.34.22-.531.22z"/><path d="m5.25 4c-.192 0-.384-.073-.53-.22l-1.31-1.31c-.293-.293-.293-.768 0-1.061.294-.294.769-.292 1.061 0l1.31 1.31c.293.293.293.768 0 1.061-.147.147-.34.22-.531.22z"/></svg>