<svg id="_x31__x2C_5" height="512" viewBox="0 0 24 24" width="512" xmlns="http://www.w3.org/2000/svg"><path d="m15.953 9.451c-.49 0-.967-.038-1.437-.114-.331-.054-.563-.356-.529-.69l.338-3.285c.018-.175.108-.335.249-.441l.819-.616c1.184-.877 2.96-1.011 4.321-.331l2.66 1.325c.488.245.781.68.782 1.166.002.484-.286.92-.77 1.165-2.367 1.219-4.487 1.821-6.433 1.821z" fill="#607d8b"/><path d="m8.029 9.418c-1.924 0-4.024-.595-6.375-1.802-.475-.241-.76-.672-.758-1.151.001-.48.29-.911.773-1.152l2.631-1.311c1.345-.673 3.101-.541 4.268.325l.822.621c.139.105.228.262.246.435l.334 3.24c.034.33-.196.63-.523.683-.462.074-.934.112-1.418.112z" fill="#607d8b"/><path d="m12.332 23.188h-.663c-.255 0-.47-.272-.495-.629l-1.321-18.413c-.001-.022-.003-.043-.003-.064-.004-.079-.006-.159-.006-.24 0-1.671.967-3.03 2.156-3.03s2.156 1.359 2.156 3.03c0 .081-.002.162-.006.241 0 .021-.001.041-.003.062l-1.32 18.413c-.026.358-.24.63-.495.63z" fill="#eceff1"/><path d="m12.501 24c-.028 0-.058-.001-.086-.005-.412-.047-.707-.419-.66-.831l.18-1.57c.047-.412.421-.71.83-.66.412.047.707.419.66.831l-.18 1.57c-.044.383-.368.665-.744.665z"/><path d="m12.951 19.44c-.026 0-.054-.001-.081-.004-.412-.044-.71-.414-.666-.826l.319-2.98c.045-.412.406-.716.826-.666.412.044.71.414.666.826l-.319 2.98c-.042.384-.367.67-.745.67z"/><path d="m13.541 13.47c-.025 0-.052-.001-.078-.004-.412-.042-.711-.411-.669-.823l.944-9.166c.001-.018.002-.035.004-.052.005-.058.008-.116.008-.175 0-.965-.785-1.75-1.75-1.75s-1.75.785-1.75 1.75c0 .059.003.118.008.175.002.018.003.035.004.053l.935 9.045c.043.412-.257.781-.669.823-.42.043-.78-.257-.823-.669l-.94-9.1c-.003-.023-.005-.047-.005-.07-.007-.085-.01-.171-.01-.257 0-1.792 1.458-3.25 3.25-3.25s3.25 1.458 3.25 3.25c0 .087-.003.173-.01.258 0 .023-.002.046-.004.068l-.95 9.22c-.04.387-.365.674-.745.674z"/><path d="m11.039 19.38c-.379 0-.704-.286-.745-.671l-.32-3.02c-.043-.412.255-.781.667-.825.426-.044.781.254.825.667l.32 3.02c.043.412-.255.781-.667.825-.027.002-.054.004-.08.004z"/><path d="m11.499 24c-.377 0-.701-.283-.744-.667l-.18-1.61c-.046-.412.25-.782.662-.829.419-.045.782.251.828.663l.18 1.61c.046.412-.25.782-.662.829-.028.003-.057.004-.084.004z"/><path d="m15.471 9.996c-.58 0-1.146-.045-1.701-.135-.408-.066-.687-.451-.62-.86.066-.409.448-.692.86-.62 2.43.393 5.181-.22 8.396-1.877.032-.016.056-.031.071-.044-.017-.006-.04-.022-.072-.038l-3.15-1.569c-1.091-.547-2.617-.439-3.549.251l-.965.727c-.331.25-.802.183-1.051-.148s-.183-.801.148-1.05l.97-.73c1.402-1.038 3.505-1.198 5.117-.392l3.149 1.569c.578.29.925.805.926 1.38.002.573-.339 1.089-.912 1.38-2.802 1.443-5.313 2.156-7.617 2.156z"/><path d="m8.542 9.995c-2.305 0-4.819-.713-7.635-2.158-.569-.289-.91-.805-.908-1.378.001-.575.348-1.091.926-1.38l3.15-1.57c1.611-.807 3.714-.648 5.111.389l.985.745c.33.25.396.72.146 1.05-.248.329-.717.396-1.049.145l-.979-.74c-.927-.685-2.453-.792-3.543-.247l-3.151 1.57c-.032.016-.056.032-.073.045.016.006.038.02.067.035 3.276 1.681 5.948 2.277 8.411 1.879.415-.068.794.211.86.62s-.212.794-.62.86c-.553.09-1.119.135-1.698.135z"/><path d="m17.59 15.24c-.289 0-.564-.168-.688-.45-.166-.379.008-.822.388-.988.9-.393 1.46-.893 1.46-1.303 0-.14-.072-.298-.216-.47-.266-.318-.222-.792.097-1.056.315-.265.789-.224 1.056.096.374.449.563.93.563 1.43 0 1.062-.838 2.013-2.36 2.678-.098.043-.2.063-.3.063z"/><path d="m8.73 21.66c-.093 0-.188-.017-.278-.054-1.692-.676-2.702-1.837-2.702-3.106 0-.553.193-1.105.558-1.597.248-.333.716-.403 1.05-.156.332.247.402.717.155 1.049-.175.236-.263.472-.263.704 0 .623.674 1.28 1.759 1.714.385.154.572.59.418.975-.117.293-.399.471-.697.471z"/><path d="m12 22.25c-.414 0-.75-.336-.75-.75s.336-.75.75-.75c2.799 0 4.75-1.186 4.75-2.25s-1.951-2.25-4.75-2.25c-.459 0-.906-.021-1.343-.052-3.437-.234-6.907-1.468-6.907-3.698 0-.5.189-.981.563-1.43.265-.32.739-.361 1.056-.096.318.265.362.738.097 1.056-.144.172-.216.33-.216.47 0 .747 1.963 1.96 5.511 2.202.405.028.817.048 1.239.048 3.505 0 6.25 1.647 6.25 3.75s-2.745 3.75-6.25 3.75z"/></svg>