<svg enable-background="new 0 0 24 24" height="512" viewBox="0 0 24 24" width="512" xmlns="http://www.w3.org/2000/svg"><path d="m23 8.04h-22c-.552 0-1 .448-1 1v11.96c0 1.654 1.346 3 3 3h18c1.654 0 3-1.346 3-3v-11.96c0-.552-.448-1-1-1z" fill="#eceff1"/><path d="m21 3h-18c-1.657 0-3 1.343-3 3v3.04h24v-3.04c0-1.657-1.343-3-3-3z" fill="#2196f3"/><path d="m10.25 20h-3.5c-.414 0-.75-.336-.75-.75v-1.25c0-1.378 1.122-2.5 2.5-2.5.551 0 1-.449 1-1s-.449-1-1-1h-1.75c-.414 0-.75-.336-.75-.75s.336-.75.75-.75h1.75c1.378 0 2.5 1.122 2.5 2.5s-1.122 2.5-2.5 2.5c-.551 0-1 .449-1 1v.5h2.75c.414 0 .75.336.75.75s-.336.75-.75.75z"/><path d="m15.5 20h-1.75c-.414 0-.75-.336-.75-.75s.336-.75.75-.75h1.75c.551 0 1-.449 1-1s-.449-1-1-1h-1.75c-.414 0-.75-.336-.75-.75v-3c0-.414.336-.75.75-.75h3.5c.414 0 .75.336.75.75s-.336.75-.75.75h-2.75v1.5h1c1.378 0 2.5 1.122 2.5 2.5s-1.122 2.5-2.5 2.5z"/><path d="m21.25 24h-18.5c-1.517 0-2.75-1.233-2.75-2.75v-16.5c0-1.517 1.233-2.75 2.75-2.75h18.5c1.517 0 2.75 1.233 2.75 2.75v16.5c0 1.517-1.233 2.75-2.75 2.75zm-18.5-20.5c-.689 0-1.25.561-1.25 1.25v16.5c0 .689.561 1.25 1.25 1.25h18.5c.689 0 1.25-.561 1.25-1.25v-16.5c0-.689-.561-1.25-1.25-1.25z"/><path d="m23.25 9.5h-22.5c-.414 0-.75-.336-.75-.75s.336-.75.75-.75h22.5c.414 0 .75.336.75.75s-.336.75-.75.75z"/><path d="m5.75 6c-.414 0-.75-.336-.75-.75v-4.5c0-.414.336-.75.75-.75s.75.336.75.75v4.5c0 .414-.336.75-.75.75z"/><path d="m18.25 6c-.414 0-.75-.336-.75-.75v-4.5c0-.414.336-.75.75-.75s.75.336.75.75v4.5c0 .414-.336.75-.75.75z"/></svg>