<svg enable-background="new 0 0 24 24" height="512" viewBox="0 0 24 24" width="512" xmlns="http://www.w3.org/2000/svg"><g id="color_1_"><g><g><path d="m21.25 5h-.537l-.74-1.48c-.469-.937-1.411-1.52-2.459-1.52h-4.278c-1.048 0-1.99.583-2.459 1.52l-.74 1.48h-7.287c-1.517 0-2.75 1.233-2.75 2.75v10.5c0 1.517 1.233 2.75 2.75 2.75h18.5c1.517 0 2.75-1.233 2.75-2.75v-10.5c0-1.517-1.233-2.75-2.75-2.75z" fill="#607d8b"/></g></g><g><circle cx="16" cy="13" fill="#00bcd4" r="5"/></g></g><g id="regular_1.5"><g><path d="m16 18c-2.757 0-5-2.243-5-5s2.243-5 5-5 5 2.243 5 5-2.243 5-5 5zm0-8.5c-1.93 0-3.5 1.57-3.5 3.5s1.57 3.5 3.5 3.5 3.5-1.57 3.5-3.5-1.57-3.5-3.5-3.5z"/></g><g><path d="m21.25 21h-18.5c-1.517 0-2.75-1.233-2.75-2.75v-10.5c0-1.517 1.233-2.75 2.75-2.75h7.287l.74-1.48c.469-.937 1.411-1.52 2.459-1.52h4.278c1.048 0 1.99.583 2.459 1.52l.74 1.48h.537c1.517 0 2.75 1.233 2.75 2.75v10.5c0 1.517-1.233 2.75-2.75 2.75zm-18.5-14.5c-.689 0-1.25.561-1.25 1.25v10.5c0 .689.561 1.25 1.25 1.25h18.5c.689 0 1.25-.561 1.25-1.25v-10.5c0-.689-.561-1.25-1.25-1.25h-1c-.284 0-.544-.161-.671-.415l-.947-1.895c-.213-.425-.642-.69-1.118-.69h-4.278c-.476 0-.905.265-1.118.691l-.947 1.895c-.127.253-.387.414-.671.414z"/></g><g><path d="m7.25 10h-3.5c-.414 0-.75-.336-.75-.75s.336-.75.75-.75h3.5c.414 0 .75.336.75.75s-.336.75-.75.75z"/></g><g><path d="m5.25 6.5c-.414 0-.75-.336-.75-.75v-2c0-.414.336-.75.75-.75s.75.336.75.75v2c0 .414-.336.75-.75.75z"/></g></g></svg>