<svg id="_x31__x2C_5" height="512" viewBox="0 0 24 24" width="512" xmlns="http://www.w3.org/2000/svg"><path d="m7.884 2.702c1.37-1.292 2.759-1.95 4.117-1.95 1.356 0 2.745.658 4.125 1.955l-.938 2.53c-1.13-1.051-2.146-1.544-3.192-1.544-1.041 0-2.058.495-3.197 1.559z" fill="#d32f2f"/><path d="m17.412 23.25c-.208 0-.368-.102-.435-.203l-9.674-12.946c-.917-1.23-1.294-2.716-1.061-4.183.19-1.202.762-2.307 1.64-3.201.195.846.487 1.735 1.223 3.074 2.021 3.718 5.987 8.012 9.601 11.723.506.52.674 1.259.438 1.928l-1.229 3.468c-.072.202-.275.34-.503.34z" fill="#f44336"/><path d="m6.59 23.25c-.228 0-.431-.138-.504-.343l-1.229-3.467c-.234-.667-.066-1.406.439-1.926 3.613-3.71 7.579-8.004 9.603-11.725.733-1.337 1.025-2.227 1.221-3.072.878.894 1.449 1.999 1.64 3.201.233 1.467-.144 2.953-1.062 4.184l-9.648 12.909c-.092.138-.252.239-.46.239z" fill="#f44336"/><path d="m17.411 24c-.428 0-.828-.208-1.071-.556l-4.94-6.613c-.248-.332-.18-.802.151-1.049.333-.249.802-.179 1.05.152l4.739 6.343 1.101-3.094c.137-.39.032-.829-.272-1.141-1.556-1.59-2.978-3.106-4.229-4.505-.275-.309-.249-.783.06-1.059.31-.277.782-.25 1.06.059 1.235 1.383 2.643 2.882 4.181 4.456.707.722.943 1.752.616 2.689l-1.24 3.487c-.16.489-.647.831-1.206.831zm-.21-1.331c-.003.006-.005.011-.007.017zm.349-.111.006.008c-.002-.003-.004-.005-.006-.008z"/><path d="m9.502 13.787c-.229 0-.454-.104-.602-.301l-2.202-2.945c-1.76-2.36-1.692-5.486.166-7.779l.437-.532c.183-.223.472-.322.758-.253.28.068.496.291.556.573.395 1.857 1.694 4.159 3.974 7.037.257.325.202.796-.122 1.054-.325.258-.796.203-1.054-.122-1.88-2.374-3.141-4.412-3.82-6.182-.976 1.663-.88 3.714.307 5.307l2.201 2.944c.248.332.181.802-.151 1.05-.135.1-.292.149-.448.149z"/><path d="m6.591 24c-.547 0-1.034-.336-1.211-.836l-1.232-3.478c-.331-.933-.097-1.965.612-2.693 4.779-4.913 9.78-10.47 10.627-14.443.061-.283.277-.505.558-.573.281-.069.575.032.758.256l.433.533c1.862 2.293 1.929 5.419.164 7.779l-9.654 12.915c-.207.323-.612.54-1.055.54zm-.154-1.424c-.007.008-.014.017-.02.027zm9.97-18.236c-1.566 4.074-5.967 8.966-10.573 13.699-.312.321-.413.749-.272 1.146l1.097 3.095 9.439-12.632c1.19-1.593 1.288-3.644.309-5.308z"/><path d="m16.12 3.457c-.186 0-.371-.068-.517-.207-2.458-2.335-4.748-2.335-7.206 0-.3.285-.775.273-1.06-.027s-.273-.775.027-1.06c3.034-2.882 6.24-2.881 9.272 0 .3.285.313.76.027 1.06-.146.155-.345.234-.543.234z"/><path d="m15.19 5.99c-.177 0-.354-.062-.496-.188-2.061-1.818-3.319-1.819-5.39.001-.31.273-.784.243-1.058-.068s-.243-.785.068-1.058c2.656-2.336 4.724-2.335 7.372.001.311.274.34.748.066 1.059-.148.167-.355.253-.562.253z"/></svg>