<?xml version="1.0" encoding="iso-8859-1"?>
<!-- Generator: Adobe Illustrator 19.0.0, SVG Export Plug-In . SVG Version: 6.00 Build 0)  -->
<svg version="1.1" id="Capa_1" xmlns="http://www.w3.org/2000/svg" xmlns:xlink="http://www.w3.org/1999/xlink" x="0px" y="0px"
	 viewBox="0 0 512.008 512.008" style="enable-background:new 0 0 512.008 512.008;" xml:space="preserve">
<path style="fill:#FFC107;" d="M508.288,85.764c-3.039-3.648-7.54-5.758-12.288-5.76H107.52
	c-8.837,0.001-15.999,7.166-15.998,16.002c0,1.393,0.182,2.78,0.542,4.126l51.2,191.36c1.869,7.001,8.21,11.871,15.456,11.872h0.8
	l305.28-15.36c7.414-0.368,13.602-5.787,14.944-13.088l32-176C512.605,94.236,511.338,89.416,508.288,85.764z"/>
<g>
	<circle style="fill:#455A64;" cx="208" cy="448.004" r="48"/>
	<circle style="fill:#455A64;" cx="400" cy="448.004" r="48"/>
</g>
<path d="M208,496.004c-26.51,0-48-21.49-48-48s21.49-48,48-48s48,21.49,48,48S234.51,496.004,208,496.004L208,496.004z M208,432.004
	c-8.837,0-16,7.163-16,16s7.163,16,16,16s16-7.163,16-16S216.837,432.004,208,432.004z"/>
<path d="M400,496.004c-26.51,0-48-21.49-48-48s21.49-48,48-48s48,21.49,48,48S426.51,496.004,400,496.004L400,496.004z M400,432.004
	c-8.837,0-16,7.163-16,16s7.163,16,16,16s16-7.163,16-16S408.837,432.004,400,432.004z"/>
<path d="M432,368.004H176c-7.246-0.001-13.587-4.871-15.456-11.872L78.272,48.004H16c-8.837,0-16-7.163-16-16s7.163-16,16-16h74.56
	c7.246,0.001,13.587,4.871,15.456,11.872l82.272,308.128H432c8.837,0,16,7.163,16,16S440.837,368.004,432,368.004z"/>
<path d="M400,240.004c-8.837,0-16-7.163-16-16v-64c0-8.837,7.163-16,16-16s16,7.163,16,16v64
	C416,232.841,408.837,240.004,400,240.004z"/>
<path d="M304,240.004c-8.837,0-16-7.163-16-16v-64c0-8.837,7.163-16,16-16s16,7.163,16,16v64
	C320,232.841,312.837,240.004,304,240.004z"/>
<path d="M208,240.004c-8.837,0-16-7.163-16-16v-64c0-8.837,7.163-16,16-16s16,7.163,16,16v64
	C224,232.841,216.837,240.004,208,240.004z"/>
<path d="M158.4,301.764c-8.837,0.194-16.158-6.811-16.352-15.648c-0.194-8.837,6.811-16.158,15.648-16.352L450.56,256.58
	l26.24-144.576H107.52c-8.837,0-16-7.163-16-16s7.163-16,16-16H496c8.837,0,16,7.164,16,16.001c0,0.955-0.086,1.908-0.256,2.847
	l-32,176c-1.324,7.36-7.569,12.821-15.04,13.152l-305.568,13.76H158.4z"/>
<g>
</g>
<g>
</g>
<g>
</g>
<g>
</g>
<g>
</g>
<g>
</g>
<g>
</g>
<g>
</g>
<g>
</g>
<g>
</g>
<g>
</g>
<g>
</g>
<g>
</g>
<g>
</g>
<g>
</g>
</svg>
