<svg id="_x31__x2C_5_px" height="512" viewBox="0 0 24 24" width="512" xmlns="http://www.w3.org/2000/svg"><path d="m6.312 8.75h11.377c.918 0 1.718-.625 1.94-1.515l.809-2.485h-16.875l.809 2.485c.222.89 1.022 1.515 1.94 1.515z" fill="#cfd8dc"/><path d="m21.25 4.75h-.813l-.763 2.569c-.252.849-1.032 1.431-1.917 1.431h-11.514c-.885 0-1.665-.582-1.917-1.431l-.763-2.569h-.813c-1.105 0-2 .895-2 2v10.5c0 1.105.895 2 2 2h18.5c1.105 0 2-.895 2-2v-10.5c0-1.105-.895-2-2-2z" fill="#607d8b"/><path d="m7.349 11.625h10.468v4.625h-10.468z" fill="#cfd8dc"/><circle cx="6.25" cy="14" fill="#fff" r="2.625"/><circle cx="17.75" cy="14" fill="#fff" r="2.25"/><path d="m21.25 20h-18.5c-1.517 0-2.75-1.233-2.75-2.75v-10.5c0-1.517 1.233-2.75 2.75-2.75h18.5c1.517 0 2.75 1.233 2.75 2.75v10.5c0 1.517-1.233 2.75-2.75 2.75zm-18.5-14.5c-.689 0-1.25.561-1.25 1.25v10.5c0 .689.561 1.25 1.25 1.25h18.5c.689 0 1.25-.561 1.25-1.25v-10.5c0-.689-.561-1.25-1.25-1.25z"/><path d="m6.25 17c-1.654 0-3-1.346-3-3s1.346-3 3-3 3 1.346 3 3-1.346 3-3 3zm0-4.5c-.827 0-1.5.673-1.5 1.5s.673 1.5 1.5 1.5 1.5-.673 1.5-1.5-.673-1.5-1.5-1.5z"/><path d="m17.75 17c-1.654 0-3-1.346-3-3s1.346-3 3-3 3 1.346 3 3-1.346 3-3 3zm0-4.5c-.827 0-1.5.673-1.5 1.5s.673 1.5 1.5 1.5 1.5-.673 1.5-1.5-.673-1.5-1.5-1.5z"/><path d="m17.75 12.5h-11.5c-.414 0-.75-.336-.75-.75s.336-.75.75-.75h11.5c.414 0 .75.336.75.75s-.336.75-.75.75z"/><path d="m17.75 17h-11.5c-.414 0-.75-.336-.75-.75s.336-.75.75-.75h11.5c.414 0 .75.336.75.75s-.336.75-.75.75z"/><path d="m17.688 9.5h-11.376c-1.264 0-2.361-.856-2.668-2.083l-.622-2.485c-.1-.402.145-.809.546-.91.403-.101.809.144.909.546l.621 2.485c.14.557.639.947 1.214.947h11.377c.575 0 1.073-.39 1.213-.947l.621-2.484c.101-.402.507-.646.909-.546s.646.507.546.909l-.621 2.485c-.307 1.227-1.404 2.083-2.669 2.083z"/></svg>