<svg fill="none" height="512" viewBox="0 0 24 24" width="512" xmlns="http://www.w3.org/2000/svg"><path d="m12 1.25c-5.93706 0-10.75 4.81294-10.75 10.75 0 5.9371 4.81294 10.75 10.75 10.75 5.9371 0 10.75-4.8129 10.75-10.75 0-5.93706-4.8129-10.75-10.75-10.75z" fill="#486472"/><path d="m12 8.25c-2.07107 0-3.75 1.67893-3.75 3.75 0 2.0711 1.67893 3.75 3.75 3.75 2.0711 0 3.75-1.6789 3.75-3.75 0-2.07107-1.6789-3.75-3.75-3.75z" fill="#fafafa"/><g clip-rule="evenodd" fill-rule="evenodd"><path d="m4.46967 4.46967c.29289-.29289.76777-.29289 1.06066 0l3 3c.29289.29289.29289.76777 0 1.06066s-.76777.29289-1.06066 0l-3-3c-.29289-.29289-.29289-.76777 0-1.06066z" fill="#90a7b2"/><path d="m15.4697 15.4697c.2929-.2929.7677-.2929 1.0606 0l3 3c.2929.2929.2929.7677 0 1.0606s-.7677.2929-1.0606 0l-3-3c-.2929-.2929-.2929-.7677 0-1.0606z" fill="#90a7b2"/><path d="m2.75 12c0-2.28433.82804-4.37525 2.20034-5.989l2.51933 2.51933c.29289.29289.76777.29289 1.06066 0s.29289-.76777 0-1.06066l-2.51933-2.51933c1.61375-1.3723 3.70467-2.20034 5.989-2.20034 5.1086 0 9.25 4.14137 9.25 9.25 0 2.2843-.828 4.3753-2.2003 5.989l-2.5194-2.5193c-.2929-.2929-.7677-.2929-1.0606 0s-.2929.7677 0 1.0606l2.5193 2.5194c-1.6137 1.3723-3.7047 2.2003-5.989 2.2003-5.10863 0-9.25-4.1414-9.25-9.25zm9.25-10.75c-5.93706 0-10.75 4.81294-10.75 10.75 0 5.9371 4.81294 10.75 10.75 10.75 5.9371 0 10.75-4.8129 10.75-10.75 0-5.93706-4.8129-10.75-10.75-10.75zm-2.25 10.75c0-1.2426 1.0074-2.25 2.25-2.25s2.25 1.0074 2.25 2.25-1.0074 2.25-2.25 2.25-2.25-1.0074-2.25-2.25zm2.25-3.75c-2.07107 0-3.75 1.67893-3.75 3.75 0 2.0711 1.67893 3.75 3.75 3.75 2.0711 0 3.75-1.6789 3.75-3.75 0-2.07107-1.6789-3.75-3.75-3.75z" fill="#000"/></g></svg>