<svg enable-background="new 0 0 24 24" height="512" viewBox="0 0 24 24" width="512" xmlns="http://www.w3.org/2000/svg"><g id="Color"><g><path d="m22.746 20.536c-.099.252-.351.414-.621.414h-20.25c-.27 0-.522-.162-.621-.414-.108-.252-.054-.549.144-.738l2.061-2.061h.009l.909-.918.288-3.069.963-10.278c.072-.81.747-1.422 1.566-1.422h9.612c.819 0 1.494.612 1.566 1.431l.963 10.269.288 3.069.909.918h.009l2.061 2.061c.198.189.252.486.144.738z" fill="#ffa726"/></g><g><path d="m20.532 18.212c-.09.045-.18.063-.279.063h-16.506c-.099 0-.189-.018-.279-.063l.909-.918.288-3.069h14.67l.288 3.069z" fill="#8d6e63"/></g><g><g><path d="m13.25 19h-2.5c-.965 0-1.75-.785-1.75-1.75v-2.5c0-.965.785-1.75 1.75-1.75h2.5c.965 0 1.75.785 1.75 1.75v2.5c0 .965-.785 1.75-1.75 1.75zm-2.5-4.5c-.138 0-.25.112-.25.25v2.5c0 .138.112.25.25.25h2.5c.138 0 .25-.112.25-.25v-2.5c0-.138-.112-.25-.25-.25z" fill="#ffd54f"/></g></g><g><path d="m6.467 6.938c-1.537-1.538-5-1.54-5.4-1.538-.367.004-.663.3-.667.667-.004.391 0 3.862 1.538 5.4.752.753 1.571 1.13 2.381 1.13.776 0 1.544-.346 2.238-1.041 1.417-1.417 1.384-3.144-.09-4.618z" fill="#66bb6a"/></g></g><g id="_x31_.5"><g><path d="m9.885 18.5h-5.635c-.414 0-.75-.336-.75-.75s.336-.75.75-.75h5.635c.414 0 .75.336.75.75s-.336.75-.75.75z"/></g><g><path d="m19.75 18.5h-5.5c-.414 0-.75-.336-.75-.75s.336-.75.75-.75h5.5c.414 0 .75.336.75.75s-.336.75-.75.75z"/></g><g><path d="m23.25 22h-22.5c-.304 0-.577-.183-.693-.463-.115-.28-.052-.603.163-.817l3.308-3.308.445-4.988c.037-.414.402-.724.813-.681.413.037.718.401.681.813l-.47 5.26c-.016.176-.093.34-.217.464l-2.22 2.22h18.879l-2.22-2.22c-.124-.123-.2-.286-.217-.46l-1.414-15.093c-.012-.13-.118-.227-.248-.227h-10.68c-.13 0-.237.098-.249.228l-.365 3.617c-.041.413-.413.721-.821.671-.413-.041-.713-.41-.671-.822l.364-3.613c.085-.899.835-1.581 1.742-1.581h10.68c.909 0 1.657.683 1.742 1.587l1.39 14.824 3.309 3.309c.215.215.278.537.163.817-.117.28-.39.463-.694.463z"/></g><g><path d="m13.25 19h-2.5c-.965 0-1.75-.785-1.75-1.75v-2.5c0-.965.785-1.75 1.75-1.75h2.5c.965 0 1.75.785 1.75 1.75v2.5c0 .965-.785 1.75-1.75 1.75zm-2.5-4.5c-.138 0-.25.112-.25.25v2.5c0 .138.112.25.25.25h2.5c.138 0 .25-.112.25-.25v-2.5c0-.138-.112-.25-.25-.25z"/></g><g><path d="m19.4 15.5h-5.15c-.414 0-.75-.336-.75-.75s.336-.75.75-.75h5.15c.414 0 .75.336.75.75s-.336.75-.75.75z"/></g><g><path d="m9.75 15.5h-5.15c-.414 0-.75-.336-.75-.75s.336-.75.75-.75h5.15c.414 0 .75.336.75.75s-.336.75-.75.75z"/></g><g><path d="m4.354 12.997c-.899 0-1.81-.419-2.646-1.256-1.708-1.709-1.713-5.565-1.708-6 .005-.407.334-.736.741-.741.438.002 4.291.001 6 1.709 1.638 1.638 1.675 3.557.1 5.132-.771.771-1.624 1.156-2.487 1.156zm-2.831-6.475c.079 1.275.381 3.293 1.246 4.158 1.062 1.061 2.019 1.093 3.011.1.993-.993.961-1.95-.1-3.011-.868-.867-2.882-1.168-4.157-1.247z"/></g><g><path d="m7.222 15.161c-.414 0-.75-.336-.75-.75 0-2.875-2.502-4.283-2.608-4.342-.363-.198-.498-.653-.3-1.016.197-.363.648-.498 1.014-.302.139.075 3.394 1.876 3.394 5.66 0 .414-.336.75-.75.75z"/></g></g></svg>