<svg id="_x31__x2C_5" enable-background="new 0 0 24 24" height="512" viewBox="0 0 24 24" width="512" xmlns="http://www.w3.org/2000/svg"><path d="m15.17 8.76c-.56-1.19-1.77-2.01-3.17-2.01-1.77 0-3.22 1.3-3.46 3h-.04c-1.24 0-2.25 1.01-2.25 2.25s1.01 2.25 2.25 2.25h6.5c1.52 0 2.75-1.23 2.75-2.75 0-1.46-1.14-2.66-2.58-2.74z" fill="#2196f3"/><path d="m15 15h-6.5c-1.654 0-3-1.346-3-3 0-1.457 1.044-2.676 2.424-2.944.52-1.779 2.178-3.056 4.076-3.056 1.498 0 2.885.797 3.643 2.063 1.633.298 2.857 1.732 2.857 3.437 0 1.93-1.57 3.5-3.5 3.5zm-3-7.5c-1.36 0-2.528 1.013-2.717 2.354-.053.371-.369.646-.743.646-.867 0-1.54.673-1.54 1.5s.673 1.5 1.5 1.5h6.5c1.103 0 2-.897 2-2 0-1.059-.824-1.933-1.876-1.991-.276-.016-.521-.182-.638-.432-.448-.958-1.423-1.577-2.486-1.577z"/><path d="m12 22.044c-.414 0-.75-.336-.75-.75s.336-.75.75-.75c5.25 0 9.522-4.271 9.522-9.522 0-.414.336-.75.75-.75s.75.336.75.75c0 6.078-4.944 11.022-11.022 11.022z"/><path d="m21.68 8.37c-.311 0-.601-.194-.708-.504-1.324-3.807-4.929-6.366-8.972-6.366-2.169 0-4.199.71-5.87 2.054-.323.26-.795.209-1.054-.115-.26-.322-.209-.794.114-1.053 1.94-1.561 4.295-2.386 6.81-2.386 4.681 0 8.856 2.963 10.389 7.374.136.392-.071.818-.462.954-.082.028-.165.042-.247.042z"/><path d="m8.58 21.45c-.082 0-.166-.014-.248-.042-4.397-1.54-7.352-5.715-7.352-10.388 0-2.227.658-4.358 1.902-6.165.235-.342.701-.428 1.043-.191.341.234.427.702.192 1.043-1.071 1.554-1.637 3.391-1.637 5.313 0 4.038 2.551 7.644 6.348 8.973.391.137.597.564.46.956-.108.308-.398.501-.708.501z"/><path d="m13.467 24c-.192 0-.384-.073-.53-.22l-1.957-1.956c-.141-.141-.22-.331-.22-.53s.079-.39.22-.53l1.957-1.957c.293-.293.768-.293 1.061 0s.293.768 0 1.061l-1.426 1.427 1.426 1.426c.293.293.293.768 0 1.061-.147.145-.339.218-.531.218z"/><path d="m4.344 8.348c-.331 0-.634-.221-.724-.556l-.565-2.11-2.11.565c-.399.107-.812-.13-.919-.53s.13-.812.53-.919l2.835-.76c.191-.05.396-.025.569.075.172.1.298.264.35.455l.759 2.835c.107.4-.13.812-.531.919-.065.018-.13.026-.194.026z"/><path d="m21.782 8.933c-.127 0-.256-.032-.375-.101l-2.542-1.467c-.359-.207-.481-.666-.274-1.024.207-.359.666-.481 1.024-.274l1.892 1.092 1.092-1.892c.207-.359.666-.481 1.024-.274.359.207.481.666.274 1.024l-1.467 2.541c-.137.24-.389.375-.648.375z"/></svg>