<svg id="_x31__x2C_5" enable-background="new 0 0 24 24" height="512" viewBox="0 0 24 24" width="512" xmlns="http://www.w3.org/2000/svg"><path d="m18.91 13.48-3.19-1.01c-.2-.06-.34-.25-.34-.46 0-.08.02-.16.05-.23l2.8-5.36c.03-.06.05-.14.05-.22 0-.27-.21-.48-.48-.48-.08 0-.16.02-.22.05l-5.36 2.8c-.07.03-.15.05-.23.05-.21 0-.4-.14-.46-.34l-1.01-3.19c-.06-.2-.25-.34-.46-.34-.17 0-.31.08-.4.21l-6.16 8.59 6.83 6.82 8.71-6.03c.13-.09.21-.23.21-.4 0-.21-.14-.4-.34-.46z" fill="#ffc107"/><path d="m6 23.25c-2.895 0-5.25-2.355-5.25-5.25s2.355-5.25 5.25-5.25 5.25 2.355 5.25 5.25-2.355 5.25-5.25 5.25z" fill="#90a4ae"/><path d="m1.38 15.52c-.4.74-.63 1.58-.63 2.48 0 .14.01.27.03.41.15.06.3.09.47.09.83 0 1.5-.67 1.5-1.5 0-.79-.6-1.42-1.37-1.48z" fill="#607d8b"/><path d="m6 12.75c-.17 0-.33.01-.5.03.02 1.37 1.13 2.47 2.5 2.47.73 0 1.39-.32 1.84-.81-.95-1.04-2.31-1.69-3.84-1.69z" fill="#607d8b"/><path d="m6 24c-3.309 0-6-2.691-6-6s2.691-6 6-6 6 2.691 6 6-2.691 6-6 6zm0-10.5c-2.481 0-4.5 2.019-4.5 4.5s2.019 4.5 4.5 4.5 4.5-2.019 4.5-4.5-2.019-4.5-4.5-4.5z"/><path d="m3.541 23.38c-.034 0-.068-.002-.102-.007-.411-.056-.698-.434-.642-.844.352-2.582 2.589-4.529 5.203-4.529.414 0 .75.336.75.75s-.336.75-.75.75c-1.868 0-3.466 1.389-3.717 3.231-.051.376-.373.649-.742.649z"/><path d="m8 16c-1.766 0-3.224-1.439-3.25-3.209l1.5-.041c.014.974.799 1.75 1.75 1.75.488 0 .956-.208 1.282-.571.277-.308.752-.333 1.059-.056.308.277.333.751.056 1.059-.61.679-1.484 1.068-2.397 1.068z"/><path d="m1.25 19.25c-.266 0-.521-.048-.759-.144-.385-.154-.571-.591-.417-.975.155-.385.592-.572.975-.417.061.024.126.036.201.036.414 0 .75-.336.75-.75 0-.397-.3-.716-.698-.742-.413-.027-.727-.383-.7-.797s.387-.723.797-.7c1.178.076 2.101 1.06 2.101 2.239 0 1.241-1.009 2.25-2.25 2.25z"/><path d="m21.75 3c-.192 0-.384-.073-.53-.22-.293-.293-.293-.768 0-1.061l1.5-1.5c.293-.293.768-.293 1.061 0s.293.768 0 1.061l-1.5 1.5c-.147.147-.339.22-.531.22z"/><path d="m17.75 3c-.192 0-.384-.073-.53-.22-.293-.293-.293-.768 0-1.061l.5-.5c.293-.293.768-.293 1.061 0s.293.768 0 1.061l-.5.5c-.147.147-.339.22-.531.22z"/><path d="m21.75 7c-.192 0-.384-.073-.53-.22-.293-.293-.293-.768 0-1.061l.5-.5c.293-.293.768-.293 1.061 0s.293.768 0 1.061l-.5.5c-.147.147-.339.22-.531.22z"/><path d="m12.75 3c-.192 0-.384-.073-.53-.22-.293-.293-.293-.768 0-1.061l1.5-1.5c.293-.293.768-.293 1.061 0s.293.768 0 1.061l-1.5 1.5c-.147.147-.339.22-.531.22z"/><path d="m21.75 12c-.192 0-.384-.073-.53-.22-.293-.293-.293-.768 0-1.061l1.5-1.5c.293-.293.768-.293 1.061 0s.293.768 0 1.061l-1.5 1.5c-.147.147-.339.22-.531.22z"/><path d="m11.017 20.75c-.235 0-.467-.111-.613-.318-.239-.338-.158-.806.181-1.045l7.59-5.352-2.684-.851c-.001 0-.002 0-.003-.001-.513-.163-.858-.635-.858-1.175 0-.197.048-.394.139-.569l2.403-4.61-4.609 2.402c-.663.344-1.524-.019-1.747-.721l-.851-2.684-5.352 7.597c-.239.338-.708.418-1.045.181-.338-.239-.419-.707-.181-1.045l5.659-8.032c.228-.329.607-.527 1.011-.527.54 0 1.013.346 1.176.861l.917 2.894 5.079-2.647c.173-.091.371-.14.57-.14.68 0 1.234.554 1.234 1.234 0 .2-.049.399-.142.574l-2.644 5.071c.004.002.007.004.011.007l2.881.914c.515.163.861.635.861 1.175 0 .404-.198.783-.53 1.014l-8.021 5.656c-.132.093-.283.137-.432.137zm7.593-7.022c-.001 0-.002.001-.003.002zm-.686-7.291h-.001zm-.361-.359c0 .001-.001.002-.001.002zm-7.289-.691-.001.002c0-.001 0-.002.001-.002z"/></svg>