<svg id="_x31_px" enable-background="new 0 0 24 24" height="512" viewBox="0 0 24 24" width="512" xmlns="http://www.w3.org/2000/svg"><path d="m22.69 9.47c-4.46-2.19-8.36-2.39-12.45-.02-.3.18-.49.52-.49.87v4.58c0 4.03 2.81 7.51 6.75 8.35 3.94-.84 6.75-4.32 6.75-8.35v-4.53c0-.38-.22-.73-.56-.9z" fill="#4caf50"/><path d="m13.69 2.47c-4.46-2.19-8.36-2.39-12.45-.02-.3.18-.49.52-.49.87v4.58c0 4.03 2.81 7.51 6.75 8.35 3.94-.84 6.75-4.32 6.75-8.35v-4.53c0-.38-.22-.73-.56-.9z" fill="#ffc107"/><path d="m7.5 17c-.053 0-.105-.005-.157-.017-4.255-.912-7.343-4.732-7.343-9.083v-4.578c0-.626.332-1.208.867-1.519 4.107-2.39 8.288-2.392 13.155-.008.594.29.978.909.978 1.576v4.529c0 4.351-3.088 8.171-7.343 9.083-.052.012-.104.017-.157.017zm-.327-15.497c-1.907 0-3.722.532-5.553 1.597-.072.042-.12.131-.12.222v4.578c0 3.595 2.514 6.757 6 7.581 3.486-.824 6-3.986 6-7.581v-4.53c0-.097-.055-.188-.137-.229-2.232-1.092-4.259-1.638-6.19-1.638z"/><path d="m16.5 24c-.052 0-.104-.005-.155-.016-2.822-.597-5.158-2.433-6.411-5.039-.18-.373-.022-.821.351-1 .374-.178.821-.022 1 .351 1.026 2.135 2.92 3.653 5.213 4.186 3.488-.819 6.002-3.982 6.002-7.582v-4.53c0-.094-.059-.186-.146-.229-1.773-.877-3.39-1.39-4.939-1.566-.411-.047-.707-.418-.66-.83.046-.412.418-.714.83-.66 1.725.196 3.503.756 5.438 1.713.594.297.977.914.977 1.572v4.53c0 4.356-3.088 8.177-7.344 9.083-.051.012-.104.017-.156.017z"/><path d="m5.249 6c-.318 0-.6-.202-.706-.498-.027-.003-.06-.003-.087 0-.116.325-.441.539-.803.492-.411-.053-.7-.429-.647-.84.088-.679.702-1.154 1.494-1.154s1.406.475 1.494 1.153c.053.411-.236.787-.647.84-.033.005-.066.007-.098.007z"/><path d="m11.249 6c-.318 0-.6-.202-.706-.498-.027-.003-.06-.003-.087 0-.116.325-.442.539-.803.491-.411-.053-.7-.429-.647-.84.088-.678.702-1.153 1.494-1.153s1.406.475 1.494 1.153c.053.411-.236.787-.647.84-.033.005-.066.007-.098.007z"/><path d="m19.5 13c-.792 0-1.406-.475-1.494-1.153-.053-.411.236-.787.647-.84.352-.048.687.166.803.491.027.003.06.003.087 0 .116-.326.443-.539.803-.491.411.053.7.429.647.84-.087.678-.701 1.153-1.493 1.153z"/><path d="m7.5 13c-1.131 0-2.243-.586-3.303-1.743-.28-.305-.259-.78.046-1.06.306-.28.78-.259 1.06.046 1.529 1.668 2.865 1.668 4.395 0 .281-.306.754-.326 1.06-.046.305.28.326.754.046 1.06-1.061 1.157-2.173 1.743-3.304 1.743z"/><path d="m19.25 19c-.203 0-.405-.082-.553-.243-1.529-1.668-2.865-1.668-4.395 0-.28.305-.755.327-1.06.046-.305-.28-.326-.754-.046-1.06 2.12-2.313 4.485-2.313 6.605 0 .28.305.259.78-.046 1.06-.142.132-.324.197-.505.197z"/></svg>