<?xml version="1.0" encoding="iso-8859-1"?>
<!-- Generator: Adobe Illustrator 19.0.0, SVG Export Plug-In . SVG Version: 6.00 Build 0)  -->
<svg version="1.1" id="Capa_1" xmlns="http://www.w3.org/2000/svg" xmlns:xlink="http://www.w3.org/1999/xlink" x="0px" y="0px"
	 viewBox="0 0 512 512" style="enable-background:new 0 0 512 512;" xml:space="preserve">
<circle style="fill:#90CAF9;" cx="256" cy="256" r="240"/>
<path style="fill:#F44336;" d="M382.4,150.72l-72,152c-0.688,1.731-1.786,3.268-3.2,4.48L204.8,204.8
	c1.212-1.414,2.749-2.512,4.48-3.2l152-72c8.075-3.59,17.53,0.046,21.12,8.121C384.24,141.859,384.24,146.582,382.4,150.72z"/>
<path style="fill:#FAFAFA;" d="M307.2,307.2c-1.212,1.414-2.749,2.512-4.48,3.2l-152,72c-2.097,1.016-4.39,1.562-6.72,1.6
	c-4.244,0.056-8.313-1.688-11.2-4.8c-4.789-4.675-6.075-11.877-3.2-17.92l72-152c0.688-1.731,1.786-3.268,3.2-4.48L307.2,307.2z"/>
<path d="M256,512C114.615,512,0,397.385,0,256S114.615,0,256,0s256,114.615,256,256C511.841,397.319,397.319,511.841,256,512z
	 M256,32C132.288,32,32,132.288,32,256s100.288,224,224,224s224-100.288,224-224C479.859,132.347,379.653,32.141,256,32z"/>
<path d="M496,272h-64c-8.837,0-16-7.163-16-16c0-8.837,7.163-16,16-16h64c8.837,0,16,7.163,16,16C512,264.837,504.837,272,496,272z"
	/>
<path d="M80,272H16c-8.837,0-16-7.163-16-16c0-8.837,7.163-16,16-16h64c8.837,0,16,7.163,16,16C96,264.837,88.837,272,80,272z"/>
<path d="M256,96c-8.837,0-16-7.163-16-16V16c0-8.837,7.163-16,16-16c8.837,0,16,7.163,16,16v64C272,88.837,264.837,96,256,96z"/>
<path d="M256,512c-8.837,0-16-7.163-16-16v-64c0-8.837,7.163-16,16-16c8.837,0,16,7.163,16,16v64C272,504.837,264.837,512,256,512z"
	/>
<path d="M144,384c-8.837,0.002-16.002-7.16-16.004-15.996c-0.001-2.37,0.525-4.71,1.54-6.852l72.064-152
	c1.597-3.295,4.257-5.955,7.552-7.552l152-72c7.985-3.786,17.526-0.382,21.312,7.603c2.057,4.338,2.057,9.371,0,13.709
	L310.4,302.848c-1.602,3.329-4.287,6.014-7.616,7.616l-152,72C148.661,383.462,146.346,383.987,144,384z M228,228l-50.368,106.368
	L284,284l50.368-106.368L228,228z"/>
<path d="M296,312c-4.22-0.06-8.246-1.785-11.2-4.8l-80-80c-5.302-7.069-3.869-17.098,3.2-22.4c5.689-4.267,13.511-4.267,19.2,0
	l80,80c6.256,6.24,6.269,16.371,0.029,22.627c-3.009,3.016-7.096,4.708-11.357,4.701L296,312z"/>
<g>
</g>
<g>
</g>
<g>
</g>
<g>
</g>
<g>
</g>
<g>
</g>
<g>
</g>
<g>
</g>
<g>
</g>
<g>
</g>
<g>
</g>
<g>
</g>
<g>
</g>
<g>
</g>
<g>
</g>
</svg>
