<svg id="_x31__x2C_5" height="512" viewBox="0 0 24 24" width="512" xmlns="http://www.w3.org/2000/svg"><path d="m2.586 16.414 13.128-13.128c.723-.723 1.685-1.122 2.707-1.122.912 0 1.769-.355 2.415-1 .267-.267.622-.414 1-.414s.733.146 1 .413.413.622.413 1-.146.733-.413 1c-.645.646-1 1.503-1 2.415 0 1.022-.398 1.984-1.122 2.707l-13.128 13.129z" fill="#cfd8dc"/><path d="m8.75 24c-.192 0-.384-.073-.53-.22l-8-8c-.293-.293-.293-.768 0-1.061s.768-.293 1.061 0l8 8c.293.293.293.768 0 1.061-.147.147-.339.22-.531.22z"/><path d="m8.116 21.944-1.061-1.061 13.129-13.128c.582-.582.902-1.354.902-2.177 0-1.112.433-2.158 1.22-2.945.259-.259.259-.681 0-.939s-.681-.259-.939 0c-.787.787-1.833 1.22-2.945 1.22-.822 0-1.595.32-2.177.902l-13.129 13.128-1.061-1.061 13.129-13.128c.865-.865 2.015-1.341 3.237-1.341.712 0 1.381-.277 1.884-.78.844-.844 2.217-.844 3.061 0s.844 2.217 0 3.061c-.503.503-.78 1.172-.78 1.884 0 1.223-.477 2.373-1.341 3.237z"/></svg>