<?xml version="1.0" encoding="iso-8859-1"?>
<!-- Generator: Adobe Illustrator 19.0.0, SVG Export Plug-In . SVG Version: 6.00 Build 0)  -->
<svg version="1.1" id="Capa_1" xmlns="http://www.w3.org/2000/svg" xmlns:xlink="http://www.w3.org/1999/xlink" x="0px" y="0px"
	 viewBox="0 0 512 512" style="enable-background:new 0 0 512 512;" xml:space="preserve">
<path style="fill:#607D8B;" d="M368,448h16c17.673,0,32-14.327,32-32V16c0-8.837-7.163-16-16-16H80C44.654,0,16,28.654,16,64v400
	c0,26.51,21.49,48,48,48l0,0h336c17.673,0,32-14.327,32-32h-64V448z"/>
<g>
	<path style="fill:#FAFAFA;" d="M64,480h368v-32H64c-8.837,0-16,7.163-16,16S55.163,480,64,480z"/>
	<path style="fill:#FAFAFA;" d="M320,305.44c0.003-14.926-10.314-27.872-24.864-31.2l-46.112-10.496
		c-7.276-1.657-12.44-8.122-12.448-15.584v-10.4c-0.004-3.127,0.908-6.186,2.624-8.8c2.349-3.782,4.486-7.692,6.4-11.712
		c2.176-4.32,5.6-10.72,6.4-12c8.656-7.229,15.036-16.809,18.368-27.584c1.615-5.234,1.133-10.891-1.344-15.776
		c-1.009-2.143-1.544-4.479-1.568-6.848c0.326-11.211-0.576-22.425-2.688-33.44c-0.268-1.155-0.418-2.335-0.448-3.52
		c0.781-8.591-1.877-17.142-7.392-23.776c-3.504-2.734-7.782-4.291-12.224-4.448c-2.309-0.266-4.59-0.737-6.816-1.408
		c-9.402-5.381-20.016-8.288-30.848-8.448c-24.948,0.842-47.099,16.197-56.64,39.264c-2.223,10.187-2.913,20.649-2.048,31.04v4.448
		c0.04,2.527-0.519,5.027-1.632,7.296c-2.412,4.803-2.87,10.354-1.28,15.488c2.773,9.852,8.436,18.646,16.256,25.248
		c3.437,4.374,6.338,9.144,8.64,14.208c1.916,4.092,4.052,8.076,6.4,11.936c1.716,2.614,2.628,5.673,2.624,8.8v10.432
		c-0.008,7.462-5.172,13.927-12.448,15.584l-45.984,10.496c-14.587,3.306-24.939,16.275-24.928,31.232V320c0,8.837,7.163,16,16,16
		h192c8.837,0,16-7.163,16-16V305.44z"/>
</g>
<path style="fill:#4CAF50;" d="M448,0h-48c-8.837,0-16,7.163-16,16v96c0,8.837,7.163,16,16,16h48c17.673,0,32-14.327,32-32V32
	C480,14.327,465.673,0,448,0z"/>
<path style="fill:#2196F3;" d="M448,160h-48c-8.837,0-16,7.163-16,16v96c0,8.837,7.163,16,16,16h48c17.673,0,32-14.327,32-32v-64
	C480,174.327,465.673,160,448,160z"/>
<path style="fill:#FFC107;" d="M448,320h-64v128h64c17.673,0,32-14.327,32-32v-64C480,334.327,465.673,320,448,320z"/>
<path d="M32,480c-8.837,0-16-7.163-16-16V64C16,28.654,44.654,0,80,0h320c8.837,0,16,7.163,16,16v416c0,8.837-7.163,16-16,16
	s-16-7.163-16-16V32H80c-17.673,0-32,14.327-32,32v400C48,472.837,40.837,480,32,480z"/>
<path d="M432,512H64c-26.51,0-48-21.49-48-48s21.49-48,48-48h336c8.837,0,16,7.163,16,16s-7.163,16-16,16H64
	c-8.837,0-16,7.163-16,16s7.163,16,16,16h352v-48c0-8.837,7.163-16,16-16s16,7.163,16,16v64C448,504.837,440.837,512,432,512z"/>
<path d="M320,352H96c-8.837,0-16-7.163-16-16v-30.56c-0.091-22.421,15.432-41.885,37.312-46.784l46.112-10.528v-10.4
	c-2.657-4.277-5.092-8.688-7.296-13.216c-1.715-3.477-3.627-6.854-5.728-10.112c-10.125-8.782-17.345-20.432-20.704-33.408
	c-2.323-8.632-1.412-17.816,2.56-25.824v-4.32c-1.084-12.359-0.067-24.813,3.008-36.832C147.252,84.509,175.555,64.883,207.392,64
	c12.458,0.042,24.702,3.246,35.584,9.312c1.447,0.332,2.91,0.589,4.384,0.768c7.968,0.595,15.49,3.904,21.312,9.376
	c8.159,9.456,12.334,21.706,11.648,34.176c2.474,12.276,3.548,24.794,3.2,37.312c3.967,8.032,4.888,17.229,2.592,25.888
	c-3.403,13.175-10.776,24.984-21.12,33.824c-0.736,1.024-3.392,6.4-5.152,9.6c-2.179,4.571-4.615,9.016-7.296,13.312v10.4
	l46.112,10.528c21.951,4.899,37.507,24.453,37.344,46.944V336C336,344.837,328.837,352,320,352z M112,320h192v-14.56
	c-0.008-7.462-5.172-13.927-12.448-15.584l-58.56-13.376c-7.263-1.669-12.412-8.132-12.416-15.584V232.32
	c0.001-4.298,1.731-8.415,4.8-11.424c2.167-3.535,4.153-7.177,5.952-10.912c2.837-6.613,6.668-12.753,11.36-18.208
	c5.559-4.571,9.754-10.582,12.128-17.376c0.8-3.84,0.512-4.416,0-5.664c-2.001-3.529-3.101-7.497-3.2-11.552
	c0.341-10.998-0.55-22-2.656-32.8c-0.363-1.391-0.567-2.819-0.608-4.256c0-11.52-1.824-13.504-3.2-14.88
	c0.992,1.088-1.536,0.672-3.2,0.384c-5.079-0.599-10.015-2.071-14.592-4.352c-6.022-3.445-12.838-5.265-19.776-5.28
	c-18.38,0.881-34.706,12.013-42.24,28.8c-1.265,8.396-1.64,16.901-1.12,25.376v7.136c-0.099,4.055-1.199,8.023-3.2,11.552
	c-0.608,1.248-0.928,1.824,0,5.6c2.412,6.801,6.612,12.826,12.16,17.44c4.711,5.448,8.573,11.576,11.456,18.176
	c1.888,3.868,4.026,7.609,6.4,11.2c2.675,3.138,4.268,7.054,4.544,11.168v28.576c-0.004,7.452-5.153,13.915-12.416,15.584
	l-58.56,13.376c-7.293,1.582-12.524,7.994-12.608,15.456V320z"/>
<path d="M464,128h-64c-8.837,0-16-7.163-16-16s7.163-16,16-16h64V32h-64c-8.837,0-16-7.163-16-16s7.163-16,16-16h64
	c17.673,0,32,14.327,32,32v64C496,113.673,481.673,128,464,128z"/>
<path d="M464,288h-64c-8.837,0-16-7.163-16-16s7.163-16,16-16h64v-64h-64c-8.837,0-16-7.163-16-16s7.163-16,16-16h64
	c17.673,0,32,14.327,32,32v64C496,273.673,481.673,288,464,288z"/>
<path d="M464,448h-64c-8.837,0-16-7.163-16-16s7.163-16,16-16h64v-64h-48c-8.837,0-16-7.163-16-16s7.163-16,16-16h48
	c17.673,0,32,14.327,32,32v64C496,433.673,481.673,448,464,448z"/>
<g>
</g>
<g>
</g>
<g>
</g>
<g>
</g>
<g>
</g>
<g>
</g>
<g>
</g>
<g>
</g>
<g>
</g>
<g>
</g>
<g>
</g>
<g>
</g>
<g>
</g>
<g>
</g>
<g>
</g>
</svg>
