<?xml version="1.0" encoding="iso-8859-1"?>
<!-- Generator: Adobe Illustrator 19.0.0, SVG Export Plug-In . SVG Version: 6.00 Build 0)  -->
<svg version="1.1" id="Capa_1" xmlns="http://www.w3.org/2000/svg" xmlns:xlink="http://www.w3.org/1999/xlink" x="0px" y="0px"
	 viewBox="0 0 512.02 512.02" style="enable-background:new 0 0 512.02 512.02;" xml:space="preserve">
<path style="fill:#ECEFF1;" d="M375.736,64.212C331.786-1.921,242.545-19.903,176.413,24.047
	c-15.926,10.584-29.58,24.239-40.164,40.164C56.837,68.538-4.032,136.42,0.294,215.831c3.162,58.041,40.909,108.489,95.698,127.901
	v72.288h320v-72.288c74.963-26.559,114.203-108.858,87.645-183.822C484.226,105.12,433.777,67.374,375.736,64.212L375.736,64.212z"
	/>
<path style="fill:#CFD8DC;" d="M95.992,416.02v80c0,8.837,7.163,16,16,16h288c8.837,0,16-7.163,16-16v-80"/>
<path d="M383.992,160.02c-8.837,0-16-7.163-16-16c0-61.856-50.144-112-112-112s-112,50.144-112,112c0,8.837-7.163,16-16,16
	s-16-7.163-16-16c0-79.529,64.471-144,144-144s144,64.471,144,144C399.992,152.856,392.829,160.02,383.992,160.02z"/>
<path d="M111.992,347.86c-1.339,0.001-2.673-0.171-3.968-0.512c-76.949-20.092-123.04-98.76-102.948-175.709
	C21.59,108.395,78.629,64.207,143.992,64.02c8.959-0.04,16.329,7.046,16.64,16c0.301,8.531-6.371,15.69-14.902,15.991
	c-0.153,0.005-0.305,0.008-0.458,0.009C83.419,95.481,32.839,145.186,32.3,207.04c-0.447,51.304,34.023,96.352,83.66,109.332
	c8.554,2.217,13.691,10.949,11.473,19.503C125.608,342.915,119.265,347.839,111.992,347.86z"/>
<path d="M399.992,347.86c-8.837-0.026-15.979-7.21-15.953-16.047c0.021-7.273,4.945-13.616,11.985-15.441
	c59.841-15.658,95.66-76.861,80.002-136.703c-12.864-49.164-57.216-83.505-108.034-83.649c-8.959,0.04-16.329-7.046-16.64-16
	c-0.301-8.531,6.371-15.69,14.902-15.991c0.153-0.005,0.305-0.008,0.458-0.009h1.28c79.529,0.228,143.815,64.883,143.587,144.412
	c-0.187,65.364-44.375,122.402-107.619,138.916C402.665,347.689,401.331,347.861,399.992,347.86z"/>
<path d="M399.992,512.02h-288c-8.837,0-16-7.163-16-16V331.86c0-8.837,7.163-16,16-16s16,7.163,16,16v148.16h256V331.86
	c0-8.837,7.163-16,16-16s16,7.163,16,16v164.16C415.992,504.856,408.829,512.02,399.992,512.02z"/>
<path d="M399.992,448.02h-288c-8.837,0-16-7.163-16-16s7.163-16,16-16h288c8.837,0,16,7.163,16,16S408.829,448.02,399.992,448.02z"
	/>
<path d="M191.992,448.02c-8.837,0-16-7.163-16-16v-64c0-8.837,7.163-16,16-16s16,7.163,16,16v64
	C207.992,440.856,200.829,448.02,191.992,448.02z"/>
<path d="M255.992,448.02c-8.837,0-16-7.163-16-16v-96c0-8.837,7.163-16,16-16c8.837,0,16,7.163,16,16v96
	C271.992,440.856,264.829,448.02,255.992,448.02z"/>
<path d="M319.992,448.02c-8.837,0-16-7.163-16-16v-64c0-8.837,7.163-16,16-16s16,7.163,16,16v64
	C335.992,440.856,328.829,448.02,319.992,448.02z"/>
<path d="M127.992,224.02c-8.837,0-16-7.163-16-16v-64c0-8.837,7.163-16,16-16s16,7.163,16,16v64
	C143.992,216.856,136.829,224.02,127.992,224.02z"/>
<path d="M383.992,224.02c-8.837,0-16-7.163-16-16v-64c0-8.837,7.163-16,16-16s16,7.163,16,16v64
	C399.992,216.856,392.829,224.02,383.992,224.02z"/>
<g>
</g>
<g>
</g>
<g>
</g>
<g>
</g>
<g>
</g>
<g>
</g>
<g>
</g>
<g>
</g>
<g>
</g>
<g>
</g>
<g>
</g>
<g>
</g>
<g>
</g>
<g>
</g>
<g>
</g>
</svg>
