<svg enable-background="new 0 0 24 24" height="512" viewBox="0 0 24 24" width="512" xmlns="http://www.w3.org/2000/svg"><path d="m23.112 11.775h-2.475c-.373 0-.675-.302-.675-.675v-2.7c0-.373.302-.675.675-.675h2.475c.373 0 .675.302.675.675v2.7c.001.373-.302.675-.675.675z" fill="#546e7a"/><path d="m22.125 8.75h-20.25c-.373 0-.675-.302-.675-.675v-1.575c0-.338.249-.623.584-.669l11.475-1.575c.03-.004.061-.006.091-.006h3.6c.067 0 .133.01.197.029l5.175 1.575c.284.087.478.349.478.646v1.575c0 .373-.302.675-.675.675z" fill="#ffc107"/><path d="m3.75 19c-1.084 0-2-.965-2-2.107 0-.683.315-1.325.844-1.72.255-.191.406-.517.406-.873v-5.55c0-.414.336-.75.75-.75s.75.336.75.75v5.55c0 .827-.377 1.603-1.008 2.074-.151.113-.242.308-.242.519 0 .318.238.607.5.607.275 0 .5-.272.5-.607 0-.414.336-.75.75-.75s.75.336.75.75c0 1.162-.897 2.107-2 2.107z"/><path d="m17.25 24c-.414 0-.75-.336-.75-.75v-17.75h-2v17.75c0 .414-.336.75-.75.75s-.75-.336-.75-.75v-18.5c0-.414.336-.75.75-.75h3.5c.414 0 .75.336.75.75v18.5c0 .414-.336.75-.75.75z"/><path d="m17.25 22.25c-.208 0-.416-.087-.564-.256l-3.5-4c-.272-.312-.241-.786.07-1.059.311-.271.784-.241 1.059.07l3.5 4c.272.312.241.786-.07 1.059-.143.124-.319.186-.495.186z"/><path d="m17.25 17.75c-.208 0-.416-.087-.564-.256l-3.5-4c-.272-.312-.241-.786.07-1.059.311-.271.784-.243 1.059.071l3.5 4c.272.312.241.786-.07 1.059-.143.123-.319.185-.495.185z"/><path d="m17.25 13.25c-.208 0-.416-.087-.564-.256l-3.5-4c-.272-.312-.241-.785.07-1.058.311-.272.784-.243 1.059.071l3.5 4c.272.312.241.785-.07 1.058-.143.123-.319.185-.495.185z"/><path d="m23.25 9h-22.5c-.414 0-.75-.336-.75-.75v-1.75c0-.375.276-.692.648-.743l12.75-1.75c.404-.053.788.231.845.641.057.411-.23.789-.642.845l-12.101 1.661v.346h21v-.444l-5.219-1.588c-.396-.121-.619-.54-.499-.936.121-.397.537-.621.937-.499l5.75 1.75c.315.095.531.387.531.717v1.75c0 .414-.336.75-.75.75z"/><path d="m15.5 5.25c-.414 0-.75-.336-.75-.75v-3.75c0-.414.336-.75.75-.75s.75.336.75.75v3.75c0 .414-.336.75-.75.75z"/><path d="m23.25 12h-2.75c-.414 0-.75-.336-.75-.75v-3c0-.414.336-.75.75-.75h2.75c.414 0 .75.336.75.75v3c0 .414-.336.75-.75.75zm-2-1.5h1.25v-1.5h-1.25z"/><path d="m2 7.019c-.295 0-.575-.176-.694-.466-.156-.383.027-.821.41-.978l13.5-5.519c.253-.104.543-.061.756.111l6.5 5.25c.322.26.372.732.111 1.055-.26.323-.731.372-1.055.112l-6.154-4.972-13.09 5.351c-.094.038-.189.056-.284.056z"/></svg>