<?xml version="1.0" encoding="iso-8859-1"?>
<!-- Generator: Adobe Illustrator 19.0.0, SVG Export Plug-In . SVG Version: 6.00 Build 0)  -->
<svg version="1.1" id="Capa_1" xmlns="http://www.w3.org/2000/svg" xmlns:xlink="http://www.w3.org/1999/xlink" x="0px" y="0px"
	 viewBox="0 0 495.947 495.947" style="enable-background:new 0 0 495.947 495.947;" xml:space="preserve">
<path style="fill:#FFC107;" d="M455.984,167.96l-18.88,22.72l-124.16,148.8l-16.96,20.48c-28.409-21.441-67.591-21.441-96,0
	l-16.96-20.48l-124.16-148.8l-18.88-22.72c97.948-114.875,270.475-128.598,385.35-30.65
	C436.345,146.699,446.594,156.948,455.984,167.96z"/>
<path d="M295.984,375.96c-3.462,0-6.83-1.123-9.6-3.2c-22.756-17.067-54.044-17.067-76.8,0c-6.826,5.149-16.494,4.022-21.952-2.56
	l-160-192c-4.995-5.949-4.995-14.627,0-20.576c103.67-121.609,286.294-136.151,407.903-32.481
	c11.671,9.949,22.532,20.81,32.481,32.481c4.995,5.949,4.995,14.627,0,20.576l-160,192
	C305.035,373.78,300.642,375.883,295.984,375.96z M247.984,327.96c15.545-0.01,30.862,3.745,44.64,10.944l142.24-170.528
	C337.152,65.165,174.271,60.707,71.06,158.419c-3.409,3.228-6.729,6.548-9.957,9.957l142.24,170.592
	C217.116,331.747,232.433,327.97,247.984,327.96z"/>
<path style="fill:#FFE082;" d="M183.024,339.48l-40.64,33.92c-12.801,10.573-31.562,9.6-43.2-2.24l-73.92-73.92
	c-10.141-10.196-12.235-25.904-5.12-38.4l38.72-68.16L183.024,339.48z"/>
<path d="M122.032,396.728c-12.804-0.092-25.049-5.259-34.048-14.368l-74.016-73.792c-15.161-15.311-18.334-38.817-7.776-57.6
	l38.752-68.192c2.592-4.561,7.255-7.563,12.48-8.032c5.251-0.589,10.436,1.562,13.728,5.696l124.16,148.8
	c5.567,6.768,4.653,16.754-2.048,22.4l-40.608,33.92C144.063,392.741,133.23,396.692,122.032,396.728z M61.232,218.648l-27.328,48
	c-3.558,6.248-2.51,14.102,2.56,19.2l73.92,74.112c5.865,5.913,15.255,6.425,21.728,1.184l28.288-23.616L61.232,218.648z"/>
<path style="fill:#FFE082;" d="M470.704,297.24l-73.92,73.92c-11.638,11.84-30.399,12.813-43.2,2.24l-40.64-33.92l124.16-148.8
	l38.72,68.16C482.939,271.337,480.844,287.044,470.704,297.24z"/>
<path d="M373.904,396.728c-11.141-0.005-21.934-3.885-30.528-10.976l-40.672-33.984c-6.701-5.646-7.615-15.632-2.048-22.4
	l124.16-148.8c3.339-4.07,8.488-6.207,13.728-5.696c5.225,0.469,9.888,3.471,12.48,8.032l38.72,68.16
	c10.566,18.776,7.406,42.282-7.744,57.6l-74.016,73.696C398.973,391.471,386.717,396.637,373.904,396.728z M335.504,337.432
	l28.352,23.68c6.451,5.284,15.88,4.727,21.664-1.28l73.888-73.888l0,0c5.06-5.106,6.094-12.959,2.528-19.2l-27.296-48
	L335.504,337.432z"/>
<path style="fill:#FFC107;" d="M95.984,367.96c-15.605,24.226-37.658,43.62-63.68,56c-13.392-36.74-10.602-77.432,7.68-112
	L95.984,367.96z"/>
<path d="M32.304,439.96c-6.904,0.004-13.032-4.421-15.2-10.976c-14.713-40.902-11.53-86.107,8.768-124.544
	c2.382-4.485,6.753-7.573,11.776-8.32c5.009-0.709,10.062,0.96,13.664,4.512l55.872,56.128c5.55,5.55,6.255,14.306,1.664,20.672
	c-17.2,26.969-41.855,48.367-70.976,61.6C36.085,439.669,34.2,439.983,32.304,439.96z M45.424,340.024
	c-6.072,19.58-7.053,40.384-2.848,60.448c12.184-8.686,23.039-19.099,32.224-30.912L45.424,340.024z"/>
<path style="fill:#FFC107;" d="M463.664,423.96c-26.022-12.38-48.075-31.774-63.68-56l56-56
	C474.266,346.528,477.056,387.22,463.664,423.96z"/>
<path d="M463.664,439.96c-1.947-0.002-3.877-0.36-5.696-1.056c-29.121-13.233-53.776-34.631-70.976-61.6
	c-4.484-6.371-3.727-15.046,1.792-20.544l56-56c3.602-3.552,8.655-5.221,13.664-4.512c5.023,0.747,9.394,3.835,11.776,8.32
	c20.298,38.437,23.481,83.642,8.768,124.544C476.765,435.661,470.581,440.038,463.664,439.96z M421.168,369.56
	c9.173,11.87,20.029,22.337,32.224,31.072c4.205-20.064,3.224-40.868-2.848-60.448L421.168,369.56z"/>
<g>
</g>
<g>
</g>
<g>
</g>
<g>
</g>
<g>
</g>
<g>
</g>
<g>
</g>
<g>
</g>
<g>
</g>
<g>
</g>
<g>
</g>
<g>
</g>
<g>
</g>
<g>
</g>
<g>
</g>
</svg>
