<svg id="_x31__x2C_5" height="512" viewBox="0 0 24 24" width="512" xmlns="http://www.w3.org/2000/svg"><circle cx="5.5" cy="5.5" fill="#4caf50" r="4.75"/><circle cx="18.5" cy="5.5" fill="#4caf50" r="4.75"/><path d="m5.974 20.25c3.455 3.985 8.597 3.985 12.052 0z" fill="#ffa726"/><path d="m18.25 20-4.197-3.003c-.166-.154-.379-.247-.611-.247-.246 0-.471.104-.641.276l-.801.807-.802-.808c-.17-.171-.395-.276-.641-.276-.232 0-.445.093-.611.247l-4.196 3.004c.072.089.15.165.224.25h12.052c.074-.085.152-.161.224-.25z" fill="#ffcc80"/><path d="m5.5 11c-3.032 0-5.5-2.467-5.5-5.5s2.468-5.5 5.5-5.5 5.5 2.467 5.5 5.5-2.468 5.5-5.5 5.5zm0-9.5c-2.206 0-4 1.794-4 4s1.794 4 4 4 4-1.794 4-4-1.794-4-4-4z"/><path d="m18.5 11c-3.032 0-5.5-2.467-5.5-5.5s2.468-5.5 5.5-5.5 5.5 2.467 5.5 5.5-2.468 5.5-5.5 5.5zm0-9.5c-2.206 0-4 1.794-4 4s1.794 4 4 4 4-1.794 4-4-1.794-4-4-4z"/><path d="m12 24c-2.556 0-4.981-1.252-6.832-3.527-.13-.16-.188-.368-.161-.573s.139-.39.307-.51l4.196-3.003c.487-.47 1.604-.512 2.221.11l.269.272.27-.271c.616-.622 1.654-.645 2.295-.049l4.122 2.942c.168.121.279.305.307.51s-.031.413-.161.573c-1.852 2.274-4.277 3.526-6.833 3.526zm-5.14-3.874c1.474 1.537 3.275 2.374 5.14 2.374s3.665-.837 5.139-2.373l-3.521-2.52c-.221-.188-.215-.123-.283-.054l-.802.809c-.281.284-.783.284-1.064 0l-.802-.808c-.068-.07-.141-.071-.209-.007z"/><path d="m6.25 19.5h11.5v1.5h-11.5z"/><circle cx="18.5" cy="3.25" r=".75"/><circle cx="18.5" cy="7.75" r=".75"/><circle cx="16.25" cy="5.5" r=".75"/><circle cx="20.75" cy="5.5" r=".75"/><circle cx="5.5" cy="3.25" r=".75"/><circle cx="5.5" cy="7.75" r=".75"/><circle cx="3.25" cy="5.5" r=".75"/><circle cx="7.75" cy="5.5" r=".75"/></svg>