<svg enable-background="new 0 0 24 24" height="512" viewBox="0 0 24 24" width="512" xmlns="http://www.w3.org/2000/svg"><path d="m12.008 11.746c-1.359 0-2.498-.439-3.385-1.306-1.012-.995-1.617-2.545-1.617-4.148 0-.043.005-.086.015-.128l.132-.556c.041-.171.16-.316.326-.395.706-.336 2.232-.9 4.528-.9 2.282 0 3.806.564 4.512.9.166.079.286.224.326.395l.132.556c.011.042.015.085.015.128v.117c0 1.185-.423 2.865-1.608 4.03-.863.855-2.031 1.307-3.376 1.307z" fill="#ffcc80"/><path d="m16.139 5.495c-.093 0-.187-.021-.274-.065-.592-.299-1.882-.801-3.858-.801-1.99 0-3.281.502-3.874.801-.207.106-.46.082-.645-.063-.185-.144-.271-.382-.221-.611l.438-1.976c.18-.819.801-1.449 1.621-1.642l2.199-.503c.311-.077.651-.077.971.003l2.176.499c.805.179 1.444.825 1.624 1.644l.437 1.975c.051.229-.036.467-.221.611-.108.085-.241.128-.373.128z" fill="#f44336"/><path d="m15.825 12.6h-7.65c-1.368 0-2.475 1.107-2.475 2.475v5.85c0 1.368 1.107 2.475 2.475 2.475h7.65c1.368 0 2.475-1.107 2.475-2.475v-5.85c0-1.368-1.107-2.475-2.475-2.475z" fill="#ffb74d"/><path d="m9.57 12.475v3.443c0 .332.275.607.608.607h3.645c.332 0 .608-.275.608-.607v-3.443z" fill="#795548"/><path d="m18.178 20.088c-.224 0-.446-.066-.637-.195-.312-.211-.498-.563-.498-.94v-1.907c0-.377.187-.728.498-.94.313-.211.708-.255 1.059-.114.826.33 1.359 1.118 1.359 2.007s-.533 1.677-1.359 2.007c-.137.056-.28.082-.422.082z" fill="#ffcc80"/><path d="m5.822 20.088c-.142 0-.285-.027-.421-.081-.826-.33-1.359-1.118-1.359-2.007s.533-1.677 1.359-2.007c.35-.14.745-.096 1.059.114.312.211.498.563.498.94v1.907c0 .377-.187.728-.498.94-.192.128-.414.194-.638.194z" fill="#ffcc80"/><path d="m10 8c-.552 0-1-.449-1-1s.448-1 1-1 1 .449 1 1-.448 1-1 1z"/><path d="m14.026 8c-.552 0-1-.449-1-1s.448-1 1-1 1 .449 1 1-.448 1-1 1z"/><path d="m12.006 10.997c-.642 0-1.282-.236-1.771-.707-.299-.288-.307-.762-.02-1.061.288-.297.763-.306 1.061-.019.402.388 1.057.388 1.459 0 .299-.287.772-.279 1.061.019.287.298.279.773-.02 1.061-.488.471-1.129.707-1.77.707z"/><path d="m17.749 6.5c-.161 0-.324-.052-.461-.159-.015-.011-1.799-1.341-5.282-1.341-3.485 0-5.281 1.331-5.299 1.345-.328.249-.797.189-1.05-.139-.251-.328-.193-.795.132-1.048.087-.068 2.178-1.658 6.217-1.658s6.12 1.592 6.206 1.659c.326.255.384.727.129 1.053-.149.189-.368.288-.592.288z"/><path d="m16.25 24h-8.5c-1.517 0-2.75-1.234-2.75-2.75v-1.16c0-.414.336-.75.75-.75s.75.336.75.75v1.16c0 .689.561 1.25 1.25 1.25h8.5c.689 0 1.25-.561 1.25-1.25v-1.08c0-.414.336-.75.75-.75s.75.336.75.75v1.08c0 1.516-1.233 2.75-2.75 2.75z"/><path d="m5.75 16.66c-.414 0-.75-.336-.75-.75v-1.16c0-1.516 1.233-2.75 2.75-2.75h8.5c1.517 0 2.75 1.234 2.75 2.75v1.08c0 .414-.336.75-.75.75s-.75-.336-.75-.75v-1.08c0-.689-.561-1.25-1.25-1.25h-8.5c-.689 0-1.25.561-1.25 1.25v1.16c0 .414-.336.75-.75.75z"/><path d="m14.25 17h-4.5c-.414 0-.75-.336-.75-.75v-3.5c0-.414.336-.75.75-.75h4.5c.414 0 .75.336.75.75v3.5c0 .414-.336.75-.75.75zm-3.75-1.5h3v-2h-3z"/><path d="m18.058 20.865c-.308 0-.611-.091-.874-.268-.428-.29-.684-.772-.684-1.289v-2.615c0-.517.256-.999.684-1.289.43-.291.972-.349 1.452-.157 1.133.453 1.864 1.533 1.864 2.753s-.731 2.3-1.864 2.753c-.187.075-.383.112-.578.112zm0-4.231c-.01 0-.021.002-.032.011l-.026 2.663c.639-.171 1-.705 1-1.308s-.361-1.137-.921-1.361c-.005-.002-.013-.005-.021-.005z"/><path d="m5.942 20.865c-.195 0-.392-.037-.578-.111-1.133-.454-1.864-1.534-1.864-2.754s.731-2.3 1.864-2.753c.479-.191 1.022-.133 1.452.157.428.29.684.772.684 1.289v2.615c0 .517-.256.999-.684 1.289-.262.177-.567.268-.874.268zm-.299-4.922.278.696c-.56.224-.921.758-.921 1.361s.361 1.137.921 1.361l.079-2.669z"/><path d="m8.483 11c-.19 0-.381-.072-.527-.216-1.225-1.21-1.956-3.096-1.956-5.045 0-.065.009-.129.024-.19l.688-2.961c.226-.961 1.014-1.722 2.01-1.938l2.697-.586c.384-.083.789-.082 1.171 0l2.688.586c.995.216 1.783.978 2.007 1.938l.694 2.981c.014.056.021.113.021.17v.137c0 1.448-.511 3.498-1.945 4.909-.296.291-.771.287-1.061-.009-.291-.295-.287-.77.008-1.061 1.104-1.086 1.498-2.695 1.498-3.84v-.05l-.675-2.897c-.093-.399-.433-.718-.865-.812l-2.688-.586c-.174-.038-.357-.038-.533 0l-2.698.585c-.434.094-.773.414-.867.814l-.673 2.892c.02 1.205.425 2.823 1.51 3.895.294.291.297.766.006 1.061-.147.149-.34.223-.534.223z"/></svg>