<?xml version="1.0" encoding="iso-8859-1"?>
<!-- Generator: Adobe Illustrator 19.0.0, SVG Export Plug-In . SVG Version: 6.00 Build 0)  -->
<svg version="1.1" id="Capa_1" xmlns="http://www.w3.org/2000/svg" xmlns:xlink="http://www.w3.org/1999/xlink" x="0px" y="0px"
	 viewBox="0 0 512 512" style="enable-background:new 0 0 512 512;" xml:space="preserve">
<path style="fill:#CFD8DC;" d="M191.925,443.424L165.141,160h-36.992L96.437,442.592c-0.193,1.796-0.289,3.601-0.288,5.408
	c0,26.51,21.49,48,48,48s48-21.49,48-48C192.155,446.472,192.08,444.944,191.925,443.424z"/>
<ellipse style="fill:#ECEFF1;" cx="144.149" cy="96" rx="80" ry="96"/>
<path style="fill:#CFD8DC;" d="M415.925,443.424L389.141,160h-36.992l-31.712,282.592c-0.193,1.796-0.289,3.601-0.288,5.408
	c0,26.51,21.49,48,48,48s48-21.49,48-48C416.155,446.472,416.08,444.944,415.925,443.424z"/>
<path d="M144.149,512c-26.51,0-48-21.49-48-48l0,0l15.36-291.712c0.468-8.837,8.011-15.62,16.848-15.152
	c8.837,0.468,15.62,8.011,15.152,16.848l-15.36,289.28c-0.301,8.938,6.7,16.427,15.638,16.728c0.121,0.004,0.241,0.007,0.362,0.008
	c8.837,0,16-7.163,16-16l-15.328-290.016c-0.468-8.837,6.315-16.38,15.152-16.848c8.837-0.468,16.38,6.315,16.848,15.152
	l15.328,289.28c0.992,26.845-19.966,49.411-46.811,50.403C144.942,511.985,144.545,511.995,144.149,512z"/>
<path d="M368.149,512c-26.51,0-48-21.49-48-48l0,0l15.36-291.2c0.482-8.817,8.015-15.576,16.832-15.104
	c8.816,0.465,15.59,7.983,15.136,16.8l-15.328,288.768c-0.301,8.938,6.7,16.427,15.638,16.728c0.121,0.004,0.241,0.007,0.362,0.008
	c8.837,0,16-7.163,16-16l-15.328-289.408c-0.454-8.817,6.32-16.335,15.136-16.8c8.655-0.624,16.177,5.886,16.802,14.541
	c0.014,0.187,0.024,0.375,0.03,0.563l15.36,288.672c0.992,26.845-19.966,49.411-46.811,50.403
	C368.942,511.985,368.545,511.995,368.149,512z"/>
<path d="M144.149,192c-48.367-4.862-83.94-47.549-80-96c-3.94-48.451,31.633-91.138,80-96c48.367,4.862,83.94,47.549,80,96
	C228.089,144.451,192.516,187.138,144.149,192z M144.149,32c-26.464,0-48,28.8-48,64s21.536,64,48,64s48-28.8,48-64
	S170.613,32,144.149,32z"/>
<path d="M368.149,192c-44.183,0-80-35.817-80-80V48c0-8.837,7.163-16,16-16s16,7.163,16,16v64c0,26.51,21.49,48,48,48
	s48-21.49,48-48V48c0-8.837,7.163-16,16-16s16,7.163,16,16v64C448.149,156.183,412.332,192,368.149,192z"/>
<path d="M368.149,192c-8.837,0-16-7.163-16-16V48c0-8.837,7.163-16,16-16s16,7.163,16,16v128
	C384.149,184.837,376.986,192,368.149,192z"/>
<g>
</g>
<g>
</g>
<g>
</g>
<g>
</g>
<g>
</g>
<g>
</g>
<g>
</g>
<g>
</g>
<g>
</g>
<g>
</g>
<g>
</g>
<g>
</g>
<g>
</g>
<g>
</g>
<g>
</g>
</svg>
