<svg enable-background="new 0 0 24 24" height="512" viewBox="0 0 24 24" width="512" xmlns="http://www.w3.org/2000/svg"><g id="color"><g><path d="m21.25 4h-18.5c-1.517 0-2.75 1.233-2.75 2.75v10.5c0 1.517 1.233 2.75 2.75 2.75h18.5c1.517 0 2.75-1.233 2.75-2.75v-10.5c0-1.517-1.233-2.75-2.75-2.75z" fill="#4db6ac"/></g></g><g id="regular"><g><g><path d="m12.38 15.5h-2.13c-.414 0-.75-.336-.75-.75s.336-.75.75-.75h2.13c.342 0 .62-.278.62-.62 0-.352-.278-.63-.62-.63h-.76c-1.169 0-2.12-.951-2.12-2.12 0-1.179.951-2.13 2.12-2.13h2.13c.414 0 .75.336.75.75s-.336.75-.75.75h-2.13c-.342 0-.62.278-.62.62 0 .352.278.63.62.63h.76c1.169 0 2.12.951 2.12 2.12 0 1.179-.951 2.13-2.12 2.13z"/></g><g><path d="m12 10c-.414 0-.75-.336-.75-.75v-1.5c0-.414.336-.75.75-.75s.75.336.75.75v1.5c0 .414-.336.75-.75.75z"/></g><g><path d="m12 17c-.414 0-.75-.336-.75-.75v-1.5c0-.414.336-.75.75-.75s.75.336.75.75v1.5c0 .414-.336.75-.75.75z"/></g></g><g><g><path d="m21.25 20h-18.5c-1.517 0-2.75-1.233-2.75-2.75v-10.5c0-1.517 1.233-2.75 2.75-2.75h18.5c1.517 0 2.75 1.233 2.75 2.75v10.5c0 1.517-1.233 2.75-2.75 2.75zm-18.5-14.5c-.689 0-1.25.561-1.25 1.25v10.5c0 .689.561 1.25 1.25 1.25h18.5c.689 0 1.25-.561 1.25-1.25v-10.5c0-.689-.561-1.25-1.25-1.25z"/></g><g><path d="m6.25 8.5h-2.5c-.414 0-.75-.336-.75-.75s.336-.75.75-.75h2.5c.414 0 .75.336.75.75s-.336.75-.75.75z"/></g><g><path d="m20.25 17h-2.5c-.414 0-.75-.336-.75-.75s.336-.75.75-.75h2.5c.414 0 .75.336.75.75s-.336.75-.75.75z"/></g></g></g></svg>