<svg fill="none" height="512" viewBox="0 0 24 24" width="512" xmlns="http://www.w3.org/2000/svg"><path clip-rule="evenodd" d="m18.5 17.25c.4142 0 .75.3358.75.75v4.5c0 .4142-.3358.75-.75.75s-.75-.3358-.75-.75v-4.5c0-.4142.3358-.75.75-.75z" fill="#486472" fill-rule="evenodd"/><path clip-rule="evenodd" d="m5.5 14.25c.41421 0 .75.3358.75.75v7.5c0 .4142-.33579.75-.75.75s-.75-.3358-.75-.75v-7.5c0-.4142.33579-.75.75-.75z" fill="#486472" fill-rule="evenodd"/><path d="m19.7628 9.28849c.2287-.07623.4802-.03788.6757.10308.1956.14097.3115.36735.3115.60843v6.5c0 1.2426-1.0074 2.25-2.25 2.25s-2.25-1.0074-2.25-2.25v-5.5c0-.3228.2066-.6094.5128-.7115z" fill="#607d8b"/><path d="m4.23717 6.28849c-.22871-.07623-.48013-.03788-.6757.10308-.19558.14097-.31147.36735-.31147.60844v6.49999c0 1.2426 1.00736 2.25 2.25 2.25s2.25-1.0074 2.25-2.25v-5.49999c0-.32283-.20657-.60943-.51283-.71152z" fill="#607d8b"/><path d="m5 2.25c-1.51878 0-2.75 1.23122-2.75 2.75s1.23122 2.75 2.75 2.75h1c.41421 0 .75-.33579.75-.75v-4c0-.41421-.33579-.75-.75-.75z" fill="#486472"/><path d="m19 5.25c1.5188 0 2.75 1.23122 2.75 2.75s-1.2312 2.75-2.75 2.75h-1c-.4142 0-.75-.3358-.75-.75v-4c0-.41421.3358-.75.75-.75z" fill="#486472"/><path d="m7.5 1.25c-1.24264 0-2.25 1.00736-2.25 2.25v3c0 1.24264 1.00736 2.25 2.25 2.25s2.25-1.00736 2.25-2.25v-3c0-1.24264-1.00736-2.25-2.25-2.25z" fill="#90a7b2"/><path d="m16.5 4.25c1.2426 0 2.25 1.00736 2.25 2.25v3c0 1.2426-1.0074 2.25-2.25 2.25s-2.25-1.0074-2.25-2.25v-3c0-1.24264 1.0074-2.25 2.25-2.25z" fill="#90a7b2"/><path clip-rule="evenodd" d="m5 3.75h.25v2.5h-.25c-.69036 0-1.25-.55964-1.25-1.25s.55964-1.25 1.25-1.25zm0 4h.62889c.16431.24547.37564.4568.62111.62111v5.12889c0 .4142-.33579.75-.75.75s-.75-.3358-.75-.75v-5.76121c.08234.00742.16573.01121.25.01121zm2.75 5.75c0 .9797-.62611 1.8131-1.5 2.122v6.878c0 .4142-.33579.75-.75.75s-.75-.3358-.75-.75v-6.878c-.87389-.3089-1.5-1.1423-1.5-2.122v-6.37858c-.61075-.5044-1-1.26745-1-2.12142 0-1.51878 1.23122-2.75 2.75-2.75h.62889c.40363-.60299 1.09101-1 1.87111-1 1.24264 0 2.25 1.00736 2.25 2.25v3c0 1.15814-.87501 2.11191-2 2.23627zm-.25-6.25c-.41421 0-.75-.33579-.75-.75v-3c0-.41421.33579-.75.75-.75s.75.33579.75.75v3c0 .41421-.33579.75-.75.75zm11.5-2c1.5188 0 2.75 1.23122 2.75 2.75 0 .85397-.3892 1.61702-1 2.1214v6.3786c0 .9797-.6261 1.8131-1.5 2.122v3.878c0 .4142-.3358.75-.75.75s-.75-.3358-.75-.75v-3.878c-.8739-.3089-1.5-1.1423-1.5-2.122v-4.7637c-1.125-.1244-2-1.0782-2-2.2363v-3c0-1.24264 1.0074-2.25 2.25-2.25.7801 0 1.4675.39701 1.8711 1zm-.5 12c.4142 0 .75-.3358.75-.75v-5.7612c-.0823.0074-.1657.0112-.25.0112h-.6289c-.1643.2455-.3756.4568-.6211.6211v5.1289c0 .4142.3358.75.75.75zm-1.25-7.75v-3c0-.41421-.3358-.75-.75-.75s-.75.33579-.75.75v3c0 .41421.3358.75.75.75s.75-.33579.75-.75zm1.5-.25h.25c.6904 0 1.25-.55964 1.25-1.25s-.5596-1.25-1.25-1.25h-.25z" fill="#000" fill-rule="evenodd"/></svg>