<svg enable-background="new 0 0 24 24" height="512" viewBox="0 0 24 24" width="512" xmlns="http://www.w3.org/2000/svg"><g id="Color"><g><path d="m11.365 2.966c0-.559-.172-1.085-.483-1.48-.31-.393-.72-.609-1.157-.609-.003 0-.006 0-.01 0-.897.006-1.629.943-1.629 2.089l.002 18.171c0 1.15.73 2.086 1.65 2.086.898-.014 1.63-.949 1.63-2.086z" fill="#607d8b"/></g><g><path d="m22.252 7.886-3.942-3.589c-.458-.417-1.052-.647-1.672-.647h-12.991c-1.368 0-2.48 1.11-2.48 2.475v5.85c0 1.365 1.113 2.475 2.48 2.475h12.991c.619 0 1.212-.229 1.672-.646l3.942-3.59c.327-.298.514-.722.514-1.164s-.187-.866-.514-1.164z" fill="#ffd54f"/></g><g><path d="m13.63 9.066c-.001-.742-.215-1.528-.589-2.155-.453-.764-1.07-1.18-1.736-1.179-.667 0-1.283.418-1.736 1.179-.373.628-.588 1.413-.588 2.156-.001.766.233 1.41.675 1.864l.02.02c.414.414.992.643 1.63.642 1.157 0 2.324-.782 2.324-2.527z" fill="#66bb6a"/></g><g><path d="m11.119 8.296c-.525-.524-1.232-.929-1.94-1.107-.861-.22-1.591-.078-2.061.394-.471.471-.611 1.202-.393 2.06.18.708.583 1.415 1.108 1.94.541.542 1.162.832 1.795.841h.028c.586 0 1.156-.247 1.607-.698.817-.818 1.09-2.196-.144-3.43z" fill="#90caf9"/></g></g><g id="_x31_.5"><g><g><path d="m17.157 15.05h-14.434c-1.52 0-2.756-1.233-2.756-2.75v-6.5c0-1.517 1.236-2.75 2.756-2.75h14.435c.688 0 1.349.255 1.857.719l4.38 3.988c.363.331.571.802.571 1.293s-.208.962-.571 1.293l-4.38 3.988c-.51.464-1.169.719-1.858.719zm-14.434-10.5c-.693 0-1.256.56-1.256 1.25v6.5c0 .689.563 1.25 1.256 1.25h14.435c.314 0 .615-.117.848-.328l4.38-3.988c.071-.064.081-.143.081-.184s-.01-.119-.081-.184l-4.38-3.988c-.232-.211-.533-.328-.848-.328z"/></g><g><path d="m8.227 4.3c-.414 0-.75-.336-.75-.75v-1.256c0-1.229 1.002-2.236 2.234-2.245.611-.006 1.173.229 1.601.654.427.424.662.989.662 1.59v1.237c0 .414-.336.75-.75.75s-.75-.336-.75-.75v-1.236c0-.199-.078-.386-.22-.526-.142-.141-.329-.218-.529-.218-.001 0-.003 0-.004 0-.41.002-.744.337-.744.745v1.255c0 .414-.336.75-.75.75z"/></g><g><path d="m9.742 24.05c-1.261 0-2.263-1.005-2.263-2.24v-7.26c0-.414.336-.75.75-.75s.75.336.75.75v7.26c0 .401.336.74.734.74.426-.005.764-.337.764-.74v-7.26c0-.414.336-.75.75-.75s.75.336.75.75v7.26c.001 1.22-1.002 2.225-2.235 2.24z"/></g></g><g><g><path d="m11.311 12.276c-.39 0-.719-.302-.747-.697-.029-.413.282-.771.695-.801.801-.057 1.241-.629 1.241-1.612 0-1.323-.784-2.616-1.369-2.616-.352 0-.794.48-1.075 1.168-.159.384-.598.566-.979.409-.384-.157-.566-.595-.41-.978.539-1.314 1.46-2.099 2.464-2.099 1.69 0 2.869 2.169 2.869 4.116 0 1.775-1.034 2.995-2.636 3.108-.017.001-.036.002-.053.002z"/></g><g><path d="m9.729 13.051c-.723 0-1.502-.301-2.239-1.039-.648-.648-1.146-1.521-1.368-2.396-.268-1.059-.096-1.963.486-2.544.58-.582 1.48-.756 2.544-.486.874.222 1.747.72 2.396 1.368 1.523 1.523 1.187 3.224.177 4.234-.522.521-1.226.863-1.996.863zm-1.499-5.087c-.251 0-.45.057-.562.168-.184.185-.22.613-.092 1.116.154.611.519 1.248.975 1.703.729.728 1.498.791 2.113.176.615-.616.551-1.386-.177-2.113-.456-.456-1.093-.82-1.703-.975-.2-.05-.388-.075-.554-.075zm-1.091-.362h.01z"/></g></g></g></svg>