<svg id="_x31__x2C_5" height="512" viewBox="0 0 24 24" width="512" xmlns="http://www.w3.org/2000/svg"><path d="m22.121 21.322c.489 0 .89-.352.978-.821 1.545-8.341-9.082-12.859-11.881-13.514-2.792-.654-8.244-2.054-10.033 6.483-1.75 8.351 2.425 7.852 2.425 7.852z" fill="#b0bec5"/><path d="m6 23.45c-1.351 0-2.45-1.099-2.45-2.45s1.099-2.45 2.45-2.45 2.45 1.099 2.45 2.45-1.099 2.45-2.45 2.45z" fill="#607d8b"/><path d="m19 23.375c-1.31 0-2.375-1.065-2.375-2.375s1.065-2.375 2.375-2.375 2.375 1.065 2.375 2.375-1.065 2.375-2.375 2.375z" fill="#607d8b"/><path d="m14.704 14.568c-.448-.078-.834-.364-1.071-.767-.23-.41-.28-.904-.137-1.352l.684-4.149c1.121.195 7.271 3.257 8.276 7.406z" fill="#eceff1"/><path d="m8.464 4.25h-1.071c-.296 0-.536-.24-.536-.536v-.286c0-1.477 1.202-2.678 2.678-2.678h1.071c.296 0 .536.24.536.536v.286c.001 1.477-1.201 2.678-2.678 2.678z" fill="#00bcd4"/><path d="m5.562 8.25h-1.125c-1.964 0-3.562-1.598-3.562-3.563v-.374c0-.311.252-.563.562-.563h1.125c1.964 0 3.563 1.598 3.563 3.563v.375c0 .31-.252.562-.563.562z" fill="#00bcd4"/><path d="m23.84 17.22c.02.09.04.18.06.28h.01zm-12.16-10.78c.06.01.13.03.21.06l-.21-.07z" fill="#eceff1"/><path d="m22.1 21.99h-.9c-.414 0-.75-.336-.75-.75s.336-.75.75-.75h.9c.13 0 .237-.094.263-.228.22-1.185.187-2.344-.099-3.445-1.269-5.004-7.351-8.196-10.744-9.294-.395-.128-.61-.551-.483-.944.128-.394.553-.608.944-.483 3.688 1.193 10.308 4.715 11.736 10.35.339 1.312.38 2.689.12 4.092-.158.842-.889 1.452-1.737 1.452z"/><path d="m3.479 22.001c-.524 0-1.492-.213-2.255-1.047-1.309-1.429-1.567-4.086-.769-7.898.122-.6.276-1.195.457-1.766.126-.395.549-.616.941-.488.395.125.613.547.488.941-.165.521-.305 1.063-.417 1.616-.904 4.312-.147 5.96.384 6.559.562.633 1.258.582 1.282.576l.21-.004c.414 0 .75.336.75.75s-.336.75-.75.75h-.13c-.054.007-.118.011-.191.011z"/><path d="m16.55 21.99h-8.1c-.414 0-.75-.336-.75-.75s.336-.75.75-.75h8.1c.414 0 .75.336.75.75s-.336.75-.75.75z"/><path d="m6 24c-1.654 0-3-1.346-3-3s1.346-3 3-3 3 1.346 3 3-1.346 3-3 3zm0-4.5c-.827 0-1.5.673-1.5 1.5s.673 1.5 1.5 1.5 1.5-.673 1.5-1.5-.673-1.5-1.5-1.5z"/><path d="m19 24c-1.654 0-3-1.346-3-3s1.346-3 3-3 3 1.346 3 3-1.346 3-3 3zm0-4.5c-.827 0-1.5.673-1.5 1.5s.673 1.5 1.5 1.5 1.5-.673 1.5-1.5-.673-1.5-1.5-1.5z"/><path d="m22.751 16.61c-.04 0-.08-.003-.12-.01l-7.87-1.271c-.751-.117-1.427-.551-1.851-1.188-.424-.638-.563-1.43-.379-2.172l1.029-4.314c.096-.403.5-.65.903-.556.403.096.651.501.556.903l-1.03 4.32c-.086.347-.024.695.17.988.194.292.491.482.837.536l7.873 1.271c.409.065.688.451.621.859-.059.373-.378.634-.739.634z"/><path d="m6.75 12c-.414 0-.75-.336-.75-.75v-6.75c0-.414.336-.75.75-.75s.75.336.75.75v6.75c0 .414-.336.75-.75.75z"/><path d="m8.25 4.95h-1.5c-.414 0-.75-.336-.75-.75v-.4c0-2.067 1.683-3.75 3.75-3.75h1.5c.414 0 .75.336.75.75v.4c0 2.068-1.683 3.75-3.75 3.75zm-.723-1.5h.723c1.122 0 2.055-.825 2.223-1.9h-.723c-1.122 0-2.055.825-2.223 1.9z"/><path d="m6.25 9h-1.5c-2.619 0-4.75-2.131-4.75-4.75v-.5c0-.414.336-.75.75-.75h1.5c2.619 0 4.75 2.131 4.75 4.75v.5c0 .414-.336.75-.75.75zm-4.74-4.5c.128 1.676 1.532 3 3.24 3h.74c-.128-1.676-1.532-3-3.24-3z"/></svg>