<svg enable-background="new 0 0 24 24" height="512" viewBox="0 0 24 24" width="512" xmlns="http://www.w3.org/2000/svg"><path d="m22.233 10.021c0 .75-.29 1.453-.823 1.987l-3.469 3.477-8.566-8.585 3.469-3.477c1.038-1.059 2.936-1.059 3.983.009l4.582 4.592c.534.535.824 1.247.824 1.997z" fill="#42a5f5"/><path d="m17.941 15.485-4.217 4.217h-7.771l-2.693-2.69c-.524-.525-.823-1.228-.823-1.987 0-.768.299-1.471.832-2.005l6.106-6.12z" fill="#eceff1"/><path d="m21.25 21.044h-18.5c-.414 0-.75-.336-.75-.75s.336-.75.75-.75h18.5c.414 0 .75.336.75.75s-.336.75-.75.75z"/><path d="m12.16 21.044c-.192 0-.383-.073-.53-.219-.293-.292-.293-.767-.001-1.061l9.17-9.19c.239-.239.371-.553.371-.883 0-.336-.131-.654-.371-.893l-4.91-4.921c-.3-.308-.648-.371-.889-.371-.334 0-.644.129-.873.364l-10.256 10.279c-.308.301-.371.652-.371.894 0 .336.129.647.364.877l3.836 3.845c.292.293.292.768-.001 1.061-.293.292-.768.292-1.061-.001l-3.83-3.838c-.518-.509-.808-1.201-.808-1.944 0-.75.29-1.445.815-1.959l10.244-10.267c1.018-1.046 2.875-1.044 3.898.007l4.903 4.914c.521.522.809 1.216.809 1.953 0 .73-.288 1.42-.809 1.943l-9.17 9.19c-.146.147-.337.22-.53.22z"/><path d="m17.622 15.571c-.192 0-.384-.073-.531-.22l-7.74-7.757c-.292-.294-.292-.768.001-1.061.293-.292.768-.292 1.061.001l7.74 7.757c.292.293.292.768-.001 1.061-.147.146-.339.219-.53.219z"/></svg>