<svg id="_x31__x2C_5" height="512" viewBox="0 0 24 24" width="512" xmlns="http://www.w3.org/2000/svg"><path d="m23.048 14.707c-7.366-9.277-14.731-9.277-22.097 0-.323.407-.251 1.001.165 1.323 7.256 5.626 14.512 5.626 21.767 0 .416-.322.488-.916.165-1.323z" fill="#cfd8dc"/><circle cx="12" cy="14" fill="#607d8b" r="3.25"/><path d="m12 21c-3.79 0-7.58-1.459-11.343-4.377-.361-.28-.59-.683-.645-1.135-.054-.449.07-.893.352-1.247 7.631-9.61 15.642-9.609 23.272-.001v.001c.281.354.406.798.352 1.247-.055.452-.284.854-.645 1.135-3.763 2.918-7.553 4.377-11.343 4.377zm0-12.5c-3.425 0-6.945 2.245-10.461 6.674-.039.048-.042.1-.038.135.004.036.021.088.074.129 7.015 5.439 13.834 5.439 20.849 0 .054-.041.07-.093.074-.129.004-.035.001-.086-.038-.136-3.515-4.428-7.035-6.673-10.46-6.673z"/><path d="m12 18c-2.206 0-4-1.794-4-4s1.794-4 4-4 4 1.794 4 4-1.794 4-4 4zm0-6.5c-1.378 0-2.5 1.122-2.5 2.5 0 1.379 1.122 2.5 2.5 2.5s2.5-1.121 2.5-2.5c0-1.378-1.122-2.5-2.5-2.5z"/><path d="m12 5.53c-.414 0-.75-.336-.75-.75v-1.03c0-.414.336-.75.75-.75s.75.336.75.75v1.03c0 .414-.336.75-.75.75z"/><path d="m5.411 7.33c-.221 0-.439-.097-.587-.283l-.66-.83c-.258-.324-.204-.796.12-1.054s.796-.203 1.053.12l.66.83c.258.324.204.796-.12 1.054-.138.11-.303.163-.466.163z"/><path d="m18.589 7.33c-.164 0-.328-.053-.466-.163-.324-.258-.378-.729-.12-1.054l.66-.83c.258-.323.73-.378 1.054-.12s.378.729.12 1.054l-.66.83c-.148.186-.367.283-.588.283z"/><path d="m1.35 10.96c-.159 0-.32-.05-.456-.155l-.6-.46c-.329-.252-.391-.723-.139-1.051.252-.329.723-.392 1.051-.139l.6.46c.329.252.391.723.139 1.051-.147.193-.37.294-.595.294z"/><path d="m22.65 10.96c-.225 0-.448-.101-.596-.294-.252-.329-.19-.799.139-1.051l.6-.46c.327-.253.799-.19 1.051.139s.19.799-.139 1.051l-.6.46c-.135.105-.295.155-.455.155z"/></svg>