<svg fill="none" height="512" viewBox="0 0 24 24" width="512" xmlns="http://www.w3.org/2000/svg"><g clip-rule="evenodd" fill-rule="evenodd"><path d="m18.25 9c0-.41421.3358-.75.75-.75h1c2.0711 0 3.75 1.67893 3.75 3.75 0 2.0711-1.6789 3.75-3.75 3.75h-1c-.4142 0-.75-.3358-.75-.75s.3358-.75.75-.75h1c1.2426 0 2.25-1.0074 2.25-2.25s-1.0074-2.25-2.25-2.25h-1c-.4142 0-.75-.33579-.75-.75z" fill="#486472"/><path d="m5.75 9c0-.41421-.33579-.75-.75-.75h-1c-2.07107 0-3.75 1.67893-3.75 3.75 0 2.0711 1.67893 3.75 3.75 3.75h1c.41421 0 .75-.3358.75-.75s-.33579-.75-.75-.75h-1c-1.24264 0-2.25-1.0074-2.25-2.25s1.00736-2.25 2.25-2.25h1c.41421 0 .75-.33579.75-.75z" fill="#486472"/><path d="m7 7.25c-1.51878 0-2.75 1.23122-2.75 2.75v4c0 1.5188 1.23122 2.75 2.75 2.75h10c1.5188 0 2.75-1.2312 2.75-2.75v-4c0-1.51878-1.2312-2.75-2.75-2.75z" fill="#eceff1"/><path d="m8.25 12c0-.4142.33579-.75.75-.75h6c.4142 0 .75.3358.75.75s-.3358.75-.75.75h-6c-.41421 0-.75-.3358-.75-.75z" fill="#bcbcbc"/><path d="m9.25 10c0-.41421.33579-.75.75-.75h4c.4142 0 .75.33579.75.75 0 .4142-.3358.75-.75.75h-4c-.41421 0-.75-.3358-.75-.75z" fill="#bcbcbc"/><path d="m9.25 14c0-.4142.33579-.75.75-.75h4c.4142 0 .75.3358.75.75s-.3358.75-.75.75h-4c-.41421 0-.75-.3358-.75-.75z" fill="#bcbcbc"/></g><path d="m9 11.25c-.41421 0-.75.3358-.75.75s.33579.75.75.75h6c.4142 0 .75-.3358.75-.75s-.3358-.75-.75-.75z" fill="#000"/><path d="m9.25 10c0-.41421.33579-.75.75-.75h4c.4142 0 .75.33579.75.75 0 .4142-.3358.75-.75.75h-4c-.41421 0-.75-.3358-.75-.75z" fill="#000"/><path d="m10 13.25c-.41421 0-.75.3358-.75.75s.33579.75.75.75h4c.4142 0 .75-.3358.75-.75s-.3358-.75-.75-.75z" fill="#000"/><path clip-rule="evenodd" d="m7 7.25c-.85397 0-1.61702.38925-2.12142 1h-.87858c-2.07107 0-3.75 1.67893-3.75 3.75 0 2.0711 1.67893 3.75 3.75 3.75h.87858c.5044.6108 1.26745 1 2.12142 1h10c.854 0 1.617-.3892 2.1214-1h.8786c2.0711 0 3.75-1.6789 3.75-3.75 0-2.07107-1.6789-3.75-3.75-3.75h-.8786c-.5044-.61075-1.2674-1-2.1214-1zm-3 2.5h.26121c-.00742.08234-.01121.16573-.01121.25v4c0 .0843.00379.1677.01121.25h-.26121c-1.24264 0-2.25-1.0074-2.25-2.25s1.00736-2.25 2.25-2.25zm15.7388 0c.0074.08234.0112.16573.0112.25v4c0 .0843-.0038.1677-.0112.25h.2612c1.2426 0 2.25-1.0074 2.25-2.25s-1.0074-2.25-2.25-2.25zm-13.9888.25c0-.69036.55964-1.25 1.25-1.25h10c.6904 0 1.25.55964 1.25 1.25v4c0 .6904-.5596 1.25-1.25 1.25h-10c-.69036 0-1.25-.5596-1.25-1.25z" fill="#000" fill-rule="evenodd"/></svg>