<?xml version="1.0" encoding="iso-8859-1"?>
<!-- Generator: Adobe Illustrator 19.0.0, SVG Export Plug-In . SVG Version: 6.00 Build 0)  -->
<svg version="1.1" id="Capa_1" xmlns="http://www.w3.org/2000/svg" xmlns:xlink="http://www.w3.org/1999/xlink" x="0px" y="0px"
	 viewBox="0 0 512.049 512.049" style="enable-background:new 0 0 512.049 512.049;" xml:space="preserve">
<path style="fill:#455A64;" d="M503.601,161.944c-5.21-2.792-11.534-2.484-16.448,0.8l-192,128
	c-4.434,2.966-7.098,7.946-7.104,13.28v192c0,8.837,7.163,16,16,16h192c8.837,0,16-7.163,16-16v-320
	C512.039,170.134,508.794,164.725,503.601,161.944z"/>
<path style="fill:#546E7A;" d="M311.601,161.944c-5.21-2.792-11.534-2.484-16.448,0.8l-192,128
	c-4.434,2.966-7.098,7.946-7.104,13.28v192c0,8.837,7.163,16,16,16h192c8.837,0,16-7.163,16-16v-320
	C320.039,170.134,316.794,164.725,311.601,161.944z"/>
<path style="fill:#607D8B;" d="M160.049,46.872c-0.605-8.384-7.594-14.87-16-14.848h-96c-8.406-0.022-15.395,6.464-16,14.848
	l-32,448c-0.636,8.814,5.993,16.474,14.806,17.111c0.397,0.029,0.795,0.043,1.194,0.042h160c8.837,0.022,16.018-7.124,16.039-15.961
	c0.001-0.387-0.012-0.773-0.039-1.159L160.049,46.872z"/>
<path style="fill:#455A64;" d="M16.049,0.024h160c8.837,0,16,7.163,16,16v32c0,8.837-7.163,16-16,16h-160c-8.837,0-16-7.163-16-16
	v-32C0.049,7.188,7.212,0.024,16.049,0.024z"/>
<g>
	<rect x="368.049" y="336.024" style="fill:#FAFAFA;" width="64" height="64"/>
	<rect x="192.049" y="336.024" style="fill:#FAFAFA;" width="64" height="64"/>
</g>
<path d="M176.049,96.024h-160c-8.837,0-16-7.163-16-16v-64c0-8.837,7.163-16,16-16h160c8.837,0,16,7.163,16,16v64
	C192.049,88.861,184.885,96.024,176.049,96.024z M32.049,64.024h128v-32h-128V64.024z"/>
<path d="M176.049,512.024h-160C7.212,512.051,0.027,504.91,0,496.073c-0.001-0.433,0.015-0.865,0.049-1.297l32-416
	c0.923-8.703,8.475-15.174,17.216-14.752c8.813,0.643,15.437,8.308,14.794,17.121c-0.003,0.042-0.006,0.084-0.01,0.127
	l-30.72,398.752h125.44l-30.72-398.752c-0.713-8.808,5.85-16.526,14.657-17.238c0.042-0.003,0.084-0.007,0.127-0.01
	c8.741-0.422,16.293,6.049,17.216,14.752l32,416c0.689,8.81-5.894,16.51-14.703,17.199
	C176.914,512.009,176.482,512.026,176.049,512.024z"/>
<path d="M304.049,512.024h-192c-8.837,0-16-7.163-16-16s7.163-16,16-16h176V205.88l-120.416,80
	c-7.361,4.895-17.297,2.897-22.192-4.464c-4.895-7.361-2.897-17.297,4.464-22.192l145.28-96.64
	c7.356-4.896,17.289-2.901,22.184,4.455c1.77,2.66,2.704,5.789,2.68,8.984v320C320.049,504.861,312.885,512.024,304.049,512.024z"/>
<path d="M496.049,512.024h-192c-8.837,0-16-7.163-16-16v-192c0.003-5.352,2.681-10.347,7.136-13.312l192-128
	c7.357-4.895,17.289-2.9,22.184,4.456c1.746,2.624,2.678,5.704,2.68,8.856v320C512.049,504.861,504.885,512.024,496.049,512.024z
	 M320.049,480.024h160v-274.08l-160,106.656V480.024z"/>
<path d="M432.049,416.024h-64c-8.837,0-16-7.163-16-16v-64c0-8.837,7.163-16,16-16h64c8.837,0,16,7.163,16,16v64
	C448.049,408.861,440.885,416.024,432.049,416.024z M384.049,384.024h32v-32h-32V384.024z"/>
<path d="M240.049,416.024h-64c-8.837,0-16-7.163-16-16v-64c0-8.837,7.163-16,16-16h64c8.837,0,16,7.163,16,16v64
	C256.049,408.861,248.885,416.024,240.049,416.024z M192.049,384.024h32v-32h-32V384.024z"/>
<g>
</g>
<g>
</g>
<g>
</g>
<g>
</g>
<g>
</g>
<g>
</g>
<g>
</g>
<g>
</g>
<g>
</g>
<g>
</g>
<g>
</g>
<g>
</g>
<g>
</g>
<g>
</g>
<g>
</g>
</svg>
