<?xml version="1.0" encoding="iso-8859-1"?>
<!-- Generator: Adobe Illustrator 19.0.0, SVG Export Plug-In . SVG Version: 6.00 Build 0)  -->
<svg version="1.1" id="Capa_1" xmlns="http://www.w3.org/2000/svg" xmlns:xlink="http://www.w3.org/1999/xlink" x="0px" y="0px"
	 viewBox="0 0 480.019 480.019" style="enable-background:new 0 0 480.019 480.019;" xml:space="preserve">
<polygon style="fill:#F44336;" points="272,64.018 464,240.018 272,416.018 "/>
<path d="M272,432.018c-8.837,0-16-7.163-16-16v-352c-0.01-8.837,7.146-16.008,15.982-16.018c4.011-0.004,7.878,1.498,10.834,4.21
	l192,176c6.521,5.963,6.974,16.083,1.011,22.605c-0.322,0.352-0.659,0.689-1.011,1.011l-192,176
	C279.862,430.528,276.003,432.023,272,432.018z M288,100.402v279.232l152.32-139.616L288,100.402z"/>
<polygon style="fill:#F44336;" points="16,64.018 208,240.018 16,416.018 "/>
<path d="M16,432.018c-8.837,0-16-7.163-16-16v-352c-0.01-8.837,7.146-16.008,15.982-16.018c4.011-0.004,7.878,1.498,10.834,4.21
	l192,176c6.521,5.963,6.974,16.083,1.011,22.605c-0.322,0.352-0.659,0.689-1.011,1.011l-192,176
	C23.862,430.528,20.003,432.023,16,432.018z M32,100.402v279.232l152.32-139.616L32,100.402z"/>
<g>
</g>
<g>
</g>
<g>
</g>
<g>
</g>
<g>
</g>
<g>
</g>
<g>
</g>
<g>
</g>
<g>
</g>
<g>
</g>
<g>
</g>
<g>
</g>
<g>
</g>
<g>
</g>
<g>
</g>
</svg>
