<svg enable-background="new 0 0 24 24" height="512" viewBox="0 0 24 24" width="512" xmlns="http://www.w3.org/2000/svg"><path d="m22.08 18.386h-7.557c-.196 0-.381-.089-.504-.24-.123-.153-.171-.352-.13-.543l1.388-6.477c.064-.299.328-.512.633-.512h3.362c2.262 0 4.102 1.84 4.102 4.102 0 .046-.005.091-.014.136l-.648 3.023c-.063.298-.327.511-.632.511zm.647-3.67h.008z" fill="#90a4ae"/><path d="m13.55 18.4h-10.762c-.201 0-.392-.09-.52-.244-.128-.156-.181-.36-.143-.558l1.8-9.45c.061-.318.34-.548.663-.548h10.987c.204 0 .397.092.525.25.128.159.178.367.135.566l-2.025 9.45c-.067.312-.342.534-.66.534z" fill="#cfd8dc"/><path d="m19.5 20.525c-1.117 0-2.025-.908-2.025-2.025s.908-2.025 2.025-2.025 2.025.908 2.025 2.025-.908 2.025-2.025 2.025z" fill="#455a64"/><path d="m8.5 20.525c-1.117 0-2.025-.908-2.025-2.025s.908-2.025 2.025-2.025 2.025.908 2.025 2.025-.908 2.025-2.025 2.025z" fill="#455a64"/><path d="m6.5 19h-3.75c-.414 0-.75-.336-.75-.75s.336-.75.75-.75h3.75c.414 0 .75.336.75.75s-.336.75-.75.75z"/><path d="m14 19h-3.5c-.414 0-.75-.336-.75-.75s.336-.75.75-.75h2.894l1.929-9h-10.573c-.414 0-.75-.336-.75-.75s.336-.75.75-.75h11.5c.227 0 .441.103.583.278.143.177.198.407.15.629l-2.25 10.5c-.074.346-.379.593-.733.593z"/><path d="m22.5 19h-1c-.414 0-.75-.336-.75-.75s.336-.75.75-.75h.394l.605-2.825c-.04-1.758-1.482-3.175-3.249-3.175h-3.037l-1.286 6h2.573c.414 0 .75.336.75.75s-.336.75-.75.75h-3.5c-.227 0-.441-.103-.583-.278-.143-.177-.198-.407-.15-.629l1.607-7.5c.074-.346.379-.593.733-.593h3.643c2.619 0 4.75 2.131 4.75 4.75 0 .053-.005.105-.017.157l-.75 3.5c-.074.346-.379.593-.733.593z"/><path d="m19.5 21c-1.378 0-2.5-1.121-2.5-2.5s1.122-2.5 2.5-2.5 2.5 1.121 2.5 2.5-1.122 2.5-2.5 2.5zm0-3.5c-.551 0-1 .448-1 1s.449 1 1 1 1-.448 1-1-.449-1-1-1z"/><path d="m8.5 21c-1.378 0-2.5-1.121-2.5-2.5s1.122-2.5 2.5-2.5 2.5 1.121 2.5 2.5-1.122 2.5-2.5 2.5zm0-3.5c-.551 0-1 .448-1 1s.449 1 1 1 1-.448 1-1-.449-1-1-1z"/><path d="m6.25 10.5h-3.5c-.414 0-.75-.336-.75-.75s.336-.75.75-.75h3.5c.414 0 .75.336.75.75s-.336.75-.75.75z"/><path d="m6.25 13.5h-4.5c-.414 0-.75-.336-.75-.75s.336-.75.75-.75h4.5c.414 0 .75.336.75.75s-.336.75-.75.75z"/><path d="m6.25 16.5h-5.5c-.414 0-.75-.336-.75-.75s.336-.75.75-.75h5.5c.414 0 .75.336.75.75s-.336.75-.75.75z"/></svg>