<svg enable-background="new 0 0 24 24" height="512" viewBox="0 0 24 24" width="512" xmlns="http://www.w3.org/2000/svg"><path d="m23.78.22c-.155-.155-.368-.231-.591-.217-4.958.404-9.256 1.89-12.776 4.418-.228.164-.345.441-.305.718.219 1.491-.424 3.252-1.067 4.562-.263-.744-.649-1.427-1.018-1.978-.13-.194-.342-.316-.574-.332-.233-.013-.459.08-.613.254-3.182 3.623-4.14 7.431-3.015 11.985.066.271.277.481.547.548 1.21.3 2.371.451 3.492.451 3.454 0 6.526-1.438 9.474-4.394 4.18-4.18 6.11-8.649 6.662-15.425.02-.219-.06-.435-.216-.59z" fill="#ffc107"/><path d="m.75 24c-.192 0-.384-.073-.53-.22-.293-.293-.293-.768 0-1.061l11-11c.293-.293.768-.293 1.061 0s.293.768 0 1.061l-11 11c-.147.147-.339.22-.531.22z"/><path d="m7.861 20.629c-1.121 0-2.282-.151-3.492-.451-.27-.067-.481-.278-.547-.548-1.125-4.554-.167-8.362 3.015-11.985.153-.174.385-.262.612-.253.233.015.445.138.575.332.369.551.755 1.234 1.018 1.978.643-1.31 1.286-3.071 1.067-4.562-.041-.277.077-.555.305-.718 3.521-2.528 7.819-4.015 12.776-4.418.227-.012.437.062.591.217.156.156.235.372.217.591-.552 6.776-2.482 11.245-6.662 15.425-2.949 2.954-6.021 4.392-9.475 4.392zm-2.686-1.803c4.232.921 7.673-.216 11.1-3.65 3.719-3.718 5.532-7.703 6.146-13.593-4.143.46-7.763 1.739-10.78 3.809.19 3.248-2.361 6.928-2.475 7.09-.204.291-.585.397-.911.258-.327-.141-.509-.491-.438-.839.167-.811-.146-1.725-.52-2.459-2.233 2.884-2.894 5.83-2.122 9.384z"/></svg>