<?xml version="1.0" encoding="utf-8"?>
<!-- Generator: Adobe Illustrator 25.3.1, SVG Export Plug-In . SVG Version: 6.00 Build 0)  -->
<svg version="1.1" id="Capa_1" xmlns="http://www.w3.org/2000/svg" xmlns:xlink="http://www.w3.org/1999/xlink" x="0px" y="0px"
	 viewBox="0 0 512 512" style="enable-background:new 0 0 512 512;" xml:space="preserve">
<style type="text/css">
	.st0{fill:#FFA000;stroke:#000000;stroke-width:8;stroke-miterlimit:10;}
	.st1{fill:#FFC107;stroke:#000000;stroke-width:8;stroke-miterlimit:10;}
	.st2{stroke:#000000;stroke-width:8;stroke-miterlimit:10;}
</style>
<path class="st0" d="M428.1,66H83.9C56,66,33.4,88.5,33.3,116.4c0,2.3,0.1,4.5,0.4,6.8c0.7,5.5,5.8,9.5,11.3,8.7
	c1.4-0.2,2.7-0.6,3.8-1.3c4.5-2.6,9.6-3.9,14.7-3.9h72.1c13,0,24.6,8.3,28.8,20.6l1.7,5.5c7,20.6,26.3,34.5,48,34.6h234
	c5.3,0,10.5,1.4,15.1,4c1.6,0.9,3.3,1.4,5.1,1.4c5.6,0,10.1-4.5,10.1-10.1v-66.2C478.7,88.7,456,66,428.1,66z"/>
<path class="st1" d="M473.7,174.1c-7.7-4.5-16.5-6.8-25.4-6.8h-234c-13,0-24.6-8.3-28.8-20.6l-1.7-5.5c-7-20.6-26.3-34.5-48-34.6
	H63.7c-8.7-0.1-17.3,2.2-24.8,6.5c-16,8.9-25.8,25.8-25.8,44.1v242.9c0,28,22.7,50.6,50.6,50.6h384.7c28,0,50.6-22.7,50.6-50.6
	V217.8C499,199.8,489.4,183.1,473.7,174.1z"/>
<path class="st2" d="M448.3,450.7H63.7c-28,0-50.6-22.7-50.6-50.6V157.1c0-28,22.7-50.6,50.6-50.6h72.1c21.8,0,41.1,14,48,34.6
	l1.8,5.3c4.1,12.4,15.7,20.8,28.8,20.8h234c28,0,50.6,22.7,50.6,50.6v182.2C498.9,428,476.3,450.7,448.3,450.7z M63.7,126.7
	c-16.8,0-30.4,13.6-30.4,30.4v242.9c0,16.8,13.6,30.4,30.4,30.4h384.7c16.8,0,30.4-13.6,30.4-30.4V217.8c0-16.8-13.6-30.4-30.4-30.4
	h-234c-21.8,0-41.1-14-48-34.6l-1.8-5.3c-4.1-12.4-15.7-20.8-28.8-20.8L63.7,126.7L63.7,126.7z"/>
<path class="st2" d="M468.6,187.5c-5.6,0-10.1-4.5-10.1-10.1v-60.7c0-16.8-13.6-30.4-30.4-30.4H83.9c-16.8,0-30.4,13.6-30.4,30.4
	c0,5.6-4.5,10.1-10.1,10.1s-10.1-4.5-10.1-10.1C33.3,88.7,56,66,83.9,66h344.2c28,0,50.6,22.7,50.6,50.6v60.7
	C478.7,182.9,474.2,187.5,468.6,187.5z"/>
</svg>
