<?xml version="1.0" encoding="utf-8"?>
<!-- Generator: Adobe Illustrator 25.3.1, SVG Export Plug-In . SVG Version: 6.00 Build 0)  -->
<svg version="1.1" id="Capa_1" xmlns="http://www.w3.org/2000/svg" xmlns:xlink="http://www.w3.org/1999/xlink" x="0px" y="0px"
	 viewBox="0 0 490.8 490.8" style="enable-background:new 0 0 490.8 490.8;" xml:space="preserve">
<style type="text/css">
	.st0{fill:#CFD8DC;stroke:#000000;stroke-width:8;stroke-miterlimit:10;}
	.st1{fill:#2196F3;stroke:#000000;stroke-width:8;stroke-miterlimit:10;}
	.st2{fill:#455A64;stroke:#000000;stroke-width:8;stroke-miterlimit:10;}
	.st3{stroke:#000000;stroke-width:8;stroke-miterlimit:10;}
</style>
<path class="st0" d="M473.6,58.1v353.2c0,5.7-4.7,10.4-10.4,10.4H280.5c-7.7-52.6-6.9-128.2,6-155.8h-83.1c0-70,37.2-165,70.2-218.2
	h189.5C468.9,47.7,473.6,52.3,473.6,58.1z"/>
<path class="st1" d="M280.5,421.7H26.9c-5.7,0-10.4-4.7-10.4-10.4V58.1c0-5.7,4.7-10.4,10.4-10.4h246.8
	c-33,53.2-70.2,148.1-70.2,218.2h83.1C273.7,293.5,272.9,369.1,280.5,421.7z"/>
<g>
	<path class="st2" d="M297,484c-2.8,0-5.4-1.1-7.4-3c-24.4-24.4-30.5-150.4-17.3-204.7h-68.8c-5.7,0-10.4-4.7-10.4-10.4
		c0-88.4,58.4-218.6,96.5-256.7c4-4.1,10.6-4.2,14.7-0.3s4.2,10.6,0.3,14.7c-0.1,0.1-0.2,0.2-0.3,0.3
		c-33.5,33.4-85.9,149.6-90.2,231.6h72.4c5.7,0,10.4,4.6,10.4,10.4c0,1.5-0.3,3-1,4.4c-18.2,38.9-9.1,178.7,8.3,196
		c4.1,4.1,4.1,10.6,0,14.7C302.4,482.9,299.7,484,297,484L297,484L297,484z"/>
	<path class="st2" d="M245,359.3c-51.1-2.5-101.4-13.2-149-31.8c-5.4-2-8.1-8-6.2-13.3s8-8.1,13.3-6.2l0,0
		c45.4,17.7,93.2,28,141.8,30.5c48.6-2.6,96.5-12.9,141.9-30.5c5.4-2,11.4,0.8,13.3,6.2s-0.8,11.4-6.2,13.3l0,0
		C346.4,346.1,296.1,356.9,245,359.3z"/>
	<path class="st2" d="M151.5,172.4c-5.7,0-10.4-4.7-10.4-10.4v-41.6c0-5.7,4.7-10.4,10.4-10.4c5.7,0,10.4,4.7,10.4,10.4V162
		C161.9,167.7,157.3,172.4,151.5,172.4z"/>
	<path class="st2" d="M317.7,172.4c-5.7,0-10.4-4.7-10.4-10.4v-41.6c0-5.7,4.7-10.4,10.4-10.4s10.4,4.7,10.4,10.4V162
		C328.1,167.7,323.5,172.4,317.7,172.4z"/>
</g>
<path class="st3" d="M463.2,421.7H26.9c-5.7,0-10.4-4.7-10.4-10.4V58.1c0-5.7,4.7-10.4,10.4-10.4h436.3c5.7,0,10.4,4.7,10.4,10.4
	v353.2C473.6,417,468.9,421.7,463.2,421.7z M37.3,400.9h415.5V68.5H37.3V400.9z"/>
<path class="st3" d="M297,484c-2.8,0-5.4-1.1-7.4-3c-24.4-24.4-30.5-150.4-17.3-204.7h-68.8c-5.7,0-10.4-4.7-10.4-10.4
	c0-88.4,58.4-218.5,96.5-256.7c4-4.1,10.6-4.2,14.7-0.3s4.2,10.6,0.3,14.7c-0.1,0.1-0.2,0.2-0.3,0.3
	c-33.5,33.5-85.9,149.6-90.2,231.6h72.4c5.7,0,10.4,4.6,10.4,10.4c0,1.5-0.3,3-1,4.4c-18.2,38.9-9.1,178.7,8.3,196
	c4.1,4.1,4.1,10.6,0,14.7C302.4,482.9,299.7,484,297,484L297,484L297,484z"/>
<path class="st3" d="M245,359.3c-51.1-2.5-101.4-13.2-149-31.8c-5.4-1.9-8.3-7.8-6.4-13.2c1.9-5.4,7.8-8.3,13.2-6.4
	c0.1,0,0.3,0.1,0.4,0.2c45.4,17.7,93.2,28,141.8,30.5c48.6-2.6,96.5-12.9,141.8-30.5c5.3-2.1,11.4,0.5,13.5,5.9s-0.5,11.4-5.9,13.5
	c-0.1,0.1-0.3,0.1-0.4,0.2C346.4,346.1,296.1,356.9,245,359.3z"/>
<path class="st3" d="M151.5,172.4c-5.7,0-10.4-4.7-10.4-10.4v-41.6c0-5.7,4.7-10.4,10.4-10.4c5.7,0,10.4,4.7,10.4,10.4V162
	C161.9,167.7,157.3,172.4,151.5,172.4z"/>
<path class="st3" d="M317.7,172.4c-5.7,0-10.4-4.7-10.4-10.4v-41.6c0-5.7,4.7-10.4,10.4-10.4s10.4,4.7,10.4,10.4V162
	C328.1,167.7,323.5,172.4,317.7,172.4z"/>
</svg>
