<svg enable-background="new 0 0 24 24" height="512" viewBox="0 0 24 24" width="512" xmlns="http://www.w3.org/2000/svg"><g fill="#ffcc80"><path d="m10.282 1.965c0-.6-.498-1.091-1.106-1.091s-1.106.491-1.106 1.091l-.011 9.273h2.234z"/><path d="m13.666 11.773c.028-.1 1.034-1.287-.122-1.985-1.197-.664-1.735.854-1.836.949.103.051 1.63-.266 1.958 1.036z"/><path d="m17.992 16.195c.316-.592.626-1.251 1.002-1.754.296-.48.148-1.179-.398-1.484-.5-.277-1.189-.149-1.515.393-.368.678-.771 1.284-1.092 1.822-.261-.156-.523-.317-.783-.487.305-.573.607-1.199.97-1.676.467-.939.84-1.691.774-1.975-.256-.938-1.538-1.102-2.035-.262.094-.161-.828 1.413-1.511 2.579-.724-.628-1.149-1.179-.892-1.437.161-.175.107-.36.075-.436-.163-.495-.805-.091-5.463-.24-1.39 0-1.241 1.763-2.2 4.091-1.157 3.496 3.102 5.388 3.102 8.051v.404h8.318v-.305c0-.644.215-1.265.623-1.745l.354-.425c.859-1.058 1.653-3.854 1.675-5.206l-.118.196c-.078.136-.414.077-.886-.104z"/></g><path d="m7.804 24c-.414 0-.75-.336-.75-.75v-.851c0-.247-.076-.484-.221-.687l-1.974-2.772c-.859-1.207-1.089-2.761-.615-4.158l.991-2.923c.323-.949 1.22-1.588 2.233-1.588h4.737c.658 0 1.242.391 1.489.994.244.597.104 1.275-.357 1.729-.825.811-1.851 1.354-2.966 1.586 1.192 1.104 2.102 2.492 2.623 4.026.133.393-.077.818-.47.951-.392.136-.818-.076-.951-.469-.588-1.734-1.765-3.249-3.315-4.265l-.368-.24c-.277-.182-.402-.524-.307-.842.095-.317.387-.535.719-.535h.831c1.192 0 2.312-.455 3.153-1.282-.005-.152-.058-.152-.08-.152h-4.738c-.371 0-.697.229-.812.57l-.991 2.923c-.319.941-.164 1.99.417 2.806l1.974 2.771c.327.459.499.997.499 1.558v.851c-.001.413-.337.749-.751.749z"/><path d="m13.771 17.116c-.378 0-.761-.095-1.111-.293-.524-.298-.897-.779-1.052-1.356-.153-.572-.072-1.169.229-1.681l1.99-3.389c.618-1.053 1.99-1.412 3.056-.81.524.298.897.779 1.052 1.356.153.572.072 1.169-.229 1.681l-1.99 3.389c-.416.708-1.171 1.103-1.945 1.103zm1.996-6.323c-.258 0-.509.131-.646.364l-1.99 3.389c-.096.163-.122.353-.073.533.05.187.172.342.343.439.359.203.816.083 1.023-.265l1.99-3.389c.096-.163.122-.353.073-.533-.05-.187-.172-.342-.343-.439-.12-.067-.249-.099-.377-.099z"/><path d="m10.892 16.135c-.378 0-.761-.095-1.11-.294-.676-.383-1.108-1.107-1.124-1.889-.008-.414.32-.757.734-.766.415-.019.757.32.766.734.005.255.146.491.366.616.364.207.813.088 1.026-.269l1.989-3.382c.064-.108.096-.227.096-.354 0-.256-.138-.488-.37-.621-.358-.202-.816-.084-1.018.264l-.719 1.226c-.209.358-.669.478-1.026.269-.357-.21-.477-.67-.268-1.026l.717-1.223c.607-1.051 1.978-1.418 3.054-.813.7.401 1.13 1.138 1.13 1.926 0 .396-.105.781-.304 1.117l-1.989 3.382c-.421.707-1.177 1.103-1.95 1.103z"/><path d="m16.347 18.618c-.378 0-.761-.094-1.112-.293-.523-.297-.897-.778-1.051-1.355-.153-.572-.072-1.169.228-1.682l1.405-2.392c.618-1.053 1.99-1.412 3.056-.81.523.297.897.778 1.051 1.355.153.572.072 1.169-.228 1.682l-1.405 2.392c-.414.708-1.169 1.103-1.944 1.103zm-.371-1.597c.359.204.818.085 1.022-.265l1.405-2.392c.095-.163.121-.353.073-.534-.05-.186-.171-.342-.343-.438-.358-.204-.817-.085-1.023.265l-1.405 2.392c-.095.163-.121.353-.073.534.051.185.172.341.344.438z"/><path d="m10.732 11.771c-.414 0-.75-.335-.75-.749l-.009-8.803c0-.396-.334-.719-.744-.719s-.744.322-.745.719l-.009 8.783c0 .414-.336.749-.75.749 0 0 0 0-.001 0-.414 0-.75-.337-.749-.751l.009-8.783c.002-1.223 1.009-2.217 2.245-2.217s2.243.994 2.244 2.217l.009 8.804c0 .414-.335.75-.75.75z"/><path d="m16.514 23.999c-.414 0-.75-.336-.75-.75v-.763c0-.638.226-1.255.637-1.737l.331-.386c.939-1.101 1.359-2.556 1.15-3.99l-.09-.64c-.058-.41.228-.789.638-.848.418-.054.79.229.847.639l.089.636c.271 1.858-.274 3.748-1.496 5.18l-.33.384c-.175.205-.277.484-.277.763v.763c.001.413-.335.749-.749.749z"/></svg>