<?xml version="1.0" encoding="iso-8859-1"?>
<!-- Generator: Adobe Illustrator 19.0.0, SVG Export Plug-In . SVG Version: 6.00 Build 0)  -->
<svg version="1.1" id="Capa_1" xmlns="http://www.w3.org/2000/svg" xmlns:xlink="http://www.w3.org/1999/xlink" x="0px" y="0px"
	 viewBox="0 0 479.994 479.994" style="enable-background:new 0 0 479.994 479.994;" xml:space="preserve">
<path d="M63.774,322.682c-5.625,0.001-10.837-2.951-13.728-7.776C-8.957,216.408,23.012,88.73,121.47,29.658
	c98.479-59.069,226.195-27.154,285.312,71.296l16,26.848c14.232,23.707,26.148,48.729,35.584,74.72
	c3.323,8.188-0.62,17.519-8.808,20.843c-8.188,3.323-17.519-0.62-20.843-8.808c-0.146-0.358-0.278-0.722-0.397-1.09
	c-8.745-24.064-19.782-47.232-32.96-69.184l-16-26.848C329.369,34.07,221.266,7.014,137.902,57.002S27.481,215.094,77.47,298.458
	c4.542,7.58,2.079,17.407-5.501,21.949C69.493,321.891,66.661,322.677,63.774,322.682L63.774,322.682z"/>
<path d="M404.446,399.994c-8.837,0-16-7.163-16-16V350.01c-0.058-60.884-16.648-120.609-48-172.8l-16-26.816
	c-30.296-53.929-98.574-73.086-152.502-42.79s-73.086,98.574-42.79,152.502c1.045,1.86,2.143,3.69,3.293,5.488l16,26.88
	c10.454,17.396,15.984,37.305,16,57.6v33.92c0,8.837-7.163,16-16,16s-16-7.163-16-16V350.01
	c-0.005-14.485-3.942-28.697-11.392-41.12l-16-26.88c-39.289-69.147-15.084-157.051,54.062-196.34
	c66.854-37.986,151.757-16.747,192.85,48.244l16,26.816c34.33,57.169,52.47,122.596,52.48,189.28v33.984
	C420.446,392.831,413.282,399.994,404.446,399.994z"/>
<path d="M340.446,431.994c-8.837,0-16-7.163-16-16V350.01c-0.012-49.283-13.406-97.638-38.752-139.904l-16-26.784
	c-13.626-22.754-43.118-30.154-65.872-16.528c-22.754,13.626-30.154,43.118-16.528,65.872l16,26.816
	c16.433,27.339,25.126,58.63,25.152,90.528v65.984c0,8.837-7.163,16-16,16s-16-7.163-16-16V350.01
	c-0.003-26.089-7.105-51.686-20.544-74.048l-16-26.816c-21.799-38.431-8.316-87.257,30.115-109.056
	c37.105-21.047,84.197-9.277,107.037,26.752l16,26.784c28.368,47.233,43.367,101.287,43.392,156.384v65.984
	C356.446,424.831,349.282,431.994,340.446,431.994z"/>
<path d="M276.446,479.994c-8.837,0-16-7.163-16-16V350.042c-0.027-37.641-10.269-74.569-29.632-106.848l-16-26.816
	c-4.542-7.582-2.078-17.41,5.504-21.952s17.41-2.078,21.952,5.504l16,26.784c22.336,37.262,34.147,79.884,34.176,123.328v113.952
	C292.446,472.831,285.282,479.994,276.446,479.994z"/>
<g>
</g>
<g>
</g>
<g>
</g>
<g>
</g>
<g>
</g>
<g>
</g>
<g>
</g>
<g>
</g>
<g>
</g>
<g>
</g>
<g>
</g>
<g>
</g>
<g>
</g>
<g>
</g>
<g>
</g>
</svg>
