<?xml version="1.0" encoding="iso-8859-1"?>
<!-- Generator: Adobe Illustrator 19.0.0, SVG Export Plug-In . SVG Version: 6.00 Build 0)  -->
<svg version="1.1" id="Capa_1" xmlns="http://www.w3.org/2000/svg" xmlns:xlink="http://www.w3.org/1999/xlink" x="0px" y="0px"
	 viewBox="0 0 512.029 512.029" style="enable-background:new 0 0 512.029 512.029;" xml:space="preserve">
<path style="fill:#1E88E5;" d="M477.997,488.253l-63.68-114.56c-2.823-5.076-8.175-8.224-13.984-8.224h-32.64
	c-5.809,0-11.161,3.148-13.984,8.224l-63.68,114.56c-4.292,7.724-1.51,17.465,6.214,21.757c4.21,2.34,9.251,2.658,13.722,0.867
	l74.048-29.632l74.048,29.632c6.288,2.514,13.479,0.797,17.952-4.288C480.484,501.511,481.279,494.169,477.997,488.253z"/>
<path style="fill:#2196F3;" d="M395.309,4.669c-6.244-6.225-16.348-6.225-22.592,0c-112.313,111.428-113.03,292.805-1.602,405.118
	c0.532,0.536,1.066,1.07,1.602,1.602c6.244,6.225,16.348,6.225,22.592,0c112.313-111.428,113.03-292.805,1.602-405.118
	C396.379,5.734,395.845,5.201,395.309,4.669L395.309,4.669z"/>
<path style="fill:#64B5F6;" d="M299.533,180.221c27.45,7.98,55.893,12.031,84.48,12.032c28.587-0.001,57.03-4.052,84.48-12.032
	l9.824-2.848c-1.186-10.682-2.959-21.29-5.312-31.776l-13.472,3.904c-49.322,14.368-101.718,14.368-151.04,0l-13.472-3.904
	c-2.353,10.486-4.126,21.094-5.312,31.776L299.533,180.221z"/>
<path style="fill:#FAFAFA;" d="M400.653,128.029c-8.837,0-16-7.163-16-16c-0.002-8.713,6.969-15.826,15.68-16h0.32
	c8.837,0,16,7.163,16,16S409.489,128.029,400.653,128.029z"/>
<g>
	<path style="fill:#455A64;" d="M208.013,256.029c-26.51,0-48-21.49-48-48s21.49-48,48-48s48,21.49,48,48
		S234.522,256.029,208.013,256.029z M208.013,192.029c-8.837,0-16,7.163-16,16s7.163,16,16,16s16-7.163,16-16
		S216.849,192.029,208.013,192.029z"/>
	<path style="fill:#455A64;" d="M128.013,512.029c-53.019,0-96-42.981-96-96v-80c-0.003-8.837,7.159-16.002,15.995-16.005
		c4.097-0.001,8.039,1.57,11.013,4.389l48,45.44c6.415,6.08,6.688,16.209,0.608,22.624c-6.08,6.415-16.209,6.688-22.624,0.608l0,0
		l-20.992-19.872v42.816c0,35.346,28.654,64,64,64s64-28.654,64-64v-176c0-8.837,7.163-16,16-16s16,7.163,16,16v176
		C224.013,469.048,181.032,512.029,128.013,512.029z"/>
	<path style="fill:#455A64;" d="M208.013,192.029c-8.837,0-16-7.163-16-16v-160c0-8.837,7.163-16,16-16s16,7.163,16,16v160
		C224.013,184.865,216.849,192.029,208.013,192.029z"/>
</g>
<path d="M384.013,416.029c-4.231,0.008-8.292-1.661-11.296-4.64c-112.313-111.428-113.03-292.805-1.602-405.118
	c0.532-0.536,1.066-1.07,1.602-1.602c6.244-6.225,16.348-6.225,22.592,0c112.313,111.428,113.03,292.805,1.602,405.118
	c-0.532,0.536-1.066,1.07-1.602,1.602C392.305,414.368,388.243,416.036,384.013,416.029z M384.013,39.293
	c-85.335,96.307-85.335,241.165,0,337.472C469.348,280.458,469.348,135.6,384.013,39.293z"/>
<path d="M464.013,512.029c-2.039-0.007-4.058-0.398-5.952-1.152l-74.048-29.6l-74.048,29.6c-8.203,3.286-17.516-0.699-20.803-8.902
	c-1.791-4.471-1.473-9.511,0.867-13.722l63.68-114.56c4.295-7.732,14.044-10.519,21.776-6.224s10.519,14.044,6.224,21.776l0,0
	l-41.824,75.2l38.176-15.264c3.82-1.531,8.084-1.531,11.904,0l38.176,15.264l-41.824-75.2c-4.295-7.732-1.508-17.481,6.224-21.776
	s17.481-1.508,21.776,6.224l63.68,114.56c4.295,7.723,1.515,17.465-6.207,21.759C469.411,511.335,466.734,512.029,464.013,512.029z"
	/>
<path d="M384.013,192.029c-27.289-0.021-54.437-3.899-80.64-11.52c-8.482-2.477-13.351-11.361-10.875-19.843
	c2.476-8.479,11.354-13.348,19.835-10.877c46.819,13.6,96.541,13.6,143.36,0c8.484-2.472,17.365,2.402,19.837,10.885
	c2.471,8.48-2.398,17.359-10.877,19.835C438.45,188.129,411.301,192.008,384.013,192.029z"/>
<path d="M400.653,128.029c-8.837,0-16-7.163-16-16c-0.002-8.713,6.969-15.826,15.68-16h0.32c8.837,0,16,7.163,16,16
	S409.489,128.029,400.653,128.029z"/>
<path d="M208.013,256.029c-26.51,0-48-21.49-48-48s21.49-48,48-48s48,21.49,48,48S234.522,256.029,208.013,256.029z
	 M208.013,192.029c-8.837,0-16,7.163-16,16s7.163,16,16,16s16-7.163,16-16S216.849,192.029,208.013,192.029z"/>
<path d="M128.013,512.029c-53.019,0-96-42.981-96-96v-80c-0.02-8.837,7.127-16.016,15.963-16.037
	c4.108-0.009,8.063,1.562,11.045,4.389l48,45.472c6.415,6.08,6.688,16.209,0.608,22.624c-6.08,6.415-16.209,6.688-22.624,0.608
	l-20.992-19.872v42.816c0,35.346,28.654,64,64,64s64-28.654,64-64v-176c0-8.837,7.163-16,16-16s16,7.163,16,16v176
	C224.013,469.048,181.032,512.029,128.013,512.029z"/>
<path d="M208.013,192.029c-8.837,0-16-7.163-16-16v-160c0-8.837,7.163-16,16-16s16,7.163,16,16v160
	C224.013,184.865,216.849,192.029,208.013,192.029z"/>
<g>
</g>
<g>
</g>
<g>
</g>
<g>
</g>
<g>
</g>
<g>
</g>
<g>
</g>
<g>
</g>
<g>
</g>
<g>
</g>
<g>
</g>
<g>
</g>
<g>
</g>
<g>
</g>
<g>
</g>
</svg>
