<svg id="_x31__x2C_5" enable-background="new 0 0 24 24" height="512" viewBox="0 0 24 24" width="512" xmlns="http://www.w3.org/2000/svg"><path d="m20.25.75h-5.5v3.5h5.5l-2-1.75z" fill="#ffc107"/><path d="m12 23.188c-4.514 0-8.188-3.673-8.188-8.188s3.674-8.187 8.188-8.187 8.188 3.673 8.188 8.188-3.674 8.187-8.188 8.187z" fill="#90a4ae"/><path d="m15.25 20.25c-1.38 0-2.5 1.12-2.5 2.5 0 .16.02.32.05.46 1.7-.16 3.26-.84 4.5-1.88-.45-.66-1.2-1.08-2.05-1.08z" fill="#eceff1"/><path d="m10 19.5c-.827 0-1.5-.673-1.5-1.5s.673-1.5 1.5-1.5 1.5.673 1.5 1.5-.673 1.5-1.5 1.5z" fill="#b0bec5"/><path d="m12 24c-4.962 0-9-4.038-9-9s4.038-9 9-9 9 4.038 9 9-4.038 9-9 9zm0-16.5c-4.136 0-7.5 3.364-7.5 7.5s3.364 7.5 7.5 7.5 7.5-3.364 7.5-7.5-3.364-7.5-7.5-7.5z"/><path d="m5.75 15c-.82 0-1.619-.239-2.311-.692-.347-.227-.444-.691-.217-1.038.228-.348.693-.443 1.038-.217.448.292.963.447 1.49.447 1.516 0 2.75-1.233 2.75-2.75 0-.414.336-.75.75-.75s.75.336.75.75c0 2.343-1.907 4.25-4.25 4.25z"/><path d="m12.799 23.96c-.346 0-.658-.242-.732-.594-.044-.204-.067-.417-.067-.616 0-1.792 1.458-3.25 3.25-3.25 1.071 0 2.069.526 2.669 1.408.233.342.145.809-.197 1.042-.341.235-.809.145-1.042-.197-.321-.472-.855-.753-1.43-.753-.965 0-1.75.785-1.75 1.75 0 .096.012.201.033.304.086.405-.172.803-.578.889-.052.012-.104.017-.156.017z"/><path d="m10 20c-1.103 0-2-.897-2-2s.897-2 2-2 2 .897 2 2-.897 2-2 2zm0-2.5c-.276 0-.5.224-.5.5s.224.5.5.5.5-.224.5-.5-.224-.5-.5-.5z"/><path d="m15 16c-1.654 0-3-1.346-3-3s1.346-3 3-3c.414 0 .75.336.75.75s-.336.75-.75.75c-.827 0-1.5.673-1.5 1.5s.673 1.5 1.5 1.5 1.5-.673 1.5-1.5c0-.414.336-.75.75-.75s.75.336.75.75c0 1.654-1.346 3-3 3z"/><path d="m14.75 7.5c-.414 0-.75-.336-.75-.75v-6c0-.414.336-.75.75-.75h5.5c.313 0 .592.194.702.486s.027.623-.208.828l-1.355 1.186 1.354 1.186c.235.206.318.536.208.828s-.388.486-.701.486h-4.75v1.75c0 .414-.336.75-.75.75zm.75-4h2.754l-.498-.436c-.163-.142-.256-.348-.256-.564s.093-.422.256-.564l.498-.436h-2.754z"/></svg>