<svg id="_x31__x2C_5_px" height="512" viewBox="0 0 24 24" width="512" xmlns="http://www.w3.org/2000/svg"><path d="m23.25 2.75v18.5c0 1.105-.895 2-2 2h-18.5c-1.105 0-2-.895-2-2v-13.804l6.685-6.692c.004-.001 2.315-.004 2.315-.004v6h10.5v-6h1c1.105 0 2 .895 2 2z" fill="#cfd8dc"/><path d="m20.25.75v5c0 .552-.448 1-1 1h-8.5c-.552 0-1-.448-1-1v-5z" fill="#607d8b"/><path d="m18.454 11.549h-12.908c-.859 0-1.558.673-1.558 1.501v5.574c0 .827.699 1.501 1.558 1.501h12.908c.859 0 1.558-.673 1.558-1.501v-5.574c0-.828-.699-1.501-1.558-1.501z" fill="#607d8b"/><path d="m21.25 24h-18.5c-1.517 0-2.75-1.233-2.75-2.75v-13.172c0-.734.286-1.425.806-1.944l5.328-5.328c.519-.52 1.21-.806 1.944-.806h13.172c1.517 0 2.75 1.233 2.75 2.75v18.5c0 1.517-1.233 2.75-2.75 2.75zm-13.172-22.5c-.329 0-.651.133-.884.366l-5.328 5.328c-.232.233-.366.556-.366.884v13.172c0 .689.561 1.25 1.25 1.25h18.5c.689 0 1.25-.561 1.25-1.25v-18.5c0-.689-.561-1.25-1.25-1.25z"/><path d="m19.25 7.5h-8.5c-.965 0-1.75-.785-1.75-1.75v-5c0-.414.336-.75.75-.75s.75.336.75.75v5c0 .138.112.25.25.25h8.5c.138 0 .25-.112.25-.25v-5c0-.414.336-.75.75-.75s.75.336.75.75v5c0 .965-.785 1.75-1.75 1.75z"/><path d="m19.25 21h-14.5c-.965 0-1.75-.785-1.75-1.75v-6.5c0-.965.785-1.75 1.75-1.75h14.5c.965 0 1.75.785 1.75 1.75v6.5c0 .965-.785 1.75-1.75 1.75zm-14.5-8.5c-.138 0-.25.112-.25.25v6.5c0 .138.112.25.25.25h14.5c.138 0 .25-.112.25-.25v-6.5c0-.138-.112-.25-.25-.25z"/><path d="m13.25 7.5c-.414 0-.75-.336-.75-.75v-6c0-.414.336-.75.75-.75s.75.336.75.75v6c0 .414-.336.75-.75.75z"/><path d="m12.25 15.5h-5.5c-.414 0-.75-.336-.75-.75s.336-.75.75-.75h5.5c.414 0 .75.336.75.75s-.336.75-.75.75z"/><path d="m15.25 18h-8.5c-.414 0-.75-.336-.75-.75s.336-.75.75-.75h8.5c.414 0 .75.336.75.75s-.336.75-.75.75z"/></svg>