<svg id="_x31__x2C_5" enable-background="new 0 0 24 24" height="512" viewBox="0 0 24 24" width="512" xmlns="http://www.w3.org/2000/svg"><circle cx="12" cy="10" fill="#2196f3" r="6.25"/><g fill="#8bc34a"><path d="m10.498 3.92c-3.446.55-5.496 4.676-4.201 8.208l.503.026c.981.051 1.854-.776 1.948-1.956.023-.457.346-.767.652-.811 2.228-.424 2.533-3.858 1.098-5.467z"/><path d="m16.252 11.073c-.299.39-.644.239-1.034.096-2.844-.994-5.118 2.193-3.223 4.329l.469.526c3.162-.128 5.698-2.488 5.785-5.398-.685-.327-1.606-.119-1.997.447z"/><path d="m14.072 4.305c-.27 1.08-.095 2.077.414 2.948.861 1.415 2.226 1.021 3.45.876-.352-1.956-1.901-3.491-3.864-3.824z"/></g><path d="m12 17c-3.859 0-7-3.14-7-7s3.141-7 7-7 7 3.14 7 7-3.141 7-7 7zm0-12.5c-3.032 0-5.5 2.467-5.5 5.5s2.468 5.5 5.5 5.5 5.5-2.467 5.5-5.5-2.468-5.5-5.5-5.5z"/><path d="m12 19.994c-2.561 0-5.121-.975-7.07-2.924-1.888-1.887-2.928-4.398-2.928-7.07s1.04-5.183 2.928-7.07c1.076-1.077 2.336-1.87 3.744-2.358.397-.135.818.072.955.463.136.391-.072.818-.463.954-1.192.413-2.261 1.087-3.176 2.001-1.604 1.605-2.488 3.739-2.488 6.01s.884 4.405 2.488 6.01c3.314 3.313 8.705 3.313 12.02 0 .293-.293.768-.293 1.061 0s.293.768 0 1.061c-1.95 1.949-4.51 2.923-7.071 2.923z"/><path d="m6.73 13.04h-.54v-1.5h.54c.238 0 .465-.092.638-.259.106-.11.255-.326.262-.627 0-.562.194-1.101.563-1.544.35-.437.854-.745 1.41-.855.659-.142 1.146-.742 1.146-1.424v-.6c0-.654-.286-1.279-.784-1.716l.988-1.128c.823.721 1.296 1.758 1.296 2.844v.6c0 1.383-.984 2.6-2.342 2.893-.282.056-.455.213-.554.335-.151.183-.223.385-.223.611-.014.63-.263 1.218-.701 1.671-.472.457-1.069.699-1.699.699z"/><path d="m12.04 16.696-.82-1c-1.104-1.363-1.006-3.328.228-4.574.87-.869 2.166-1.163 3.379-.703l.336.136c.273.108.596.01.772-.245.453-.703 1.52-.954 2.283-.524l.386.229-.768 1.289-.37-.22c-.062-.035-.226-.032-.285.062-.592.848-1.643 1.168-2.575.801l-.328-.133c-.618-.233-1.314-.087-1.767.365-.691.698-.748 1.803-.128 2.568l.817.997z"/><path d="m16.42 8.94c-.979 0-1.872-.504-2.39-1.348-.652-1.113-.845-2.39-.549-3.609l1.457.354c-.203.839-.069 1.721.378 2.484.264.43.765.663 1.264.605l1.261-.151.178 1.489-1.25.15c-.132.016-.235.026-.349.026z"/><path d="m12 24c-.414 0-.75-.336-.75-.75v-3.75c0-.414.336-.75.75-.75s.75.336.75.75v3.75c0 .414-.336.75-.75.75z"/><path d="m14.25 24h-4.5c-.414 0-.75-.336-.75-.75s.336-.75.75-.75h4.5c.414 0 .75.336.75.75s-.336.75-.75.75z"/></svg>