<svg id="_x31__x2C_5" height="512" viewBox="0 0 24 24" width="512" xmlns="http://www.w3.org/2000/svg"><path d="m12.837 23.666h-5.674c-1.324 0-2.4-1.077-2.4-2.4v-1.528c0-.361.293-.655.655-.655h9.165c.361 0 .655.293.655.655v1.528c-.001 1.324-1.077 2.4-2.401 2.4z" fill="#cfd8dc"/><path d="m15.054 19.286h-9.75c-1.408 0-2.554-1.145-2.554-2.554v-8.821c0-3.968 3.228-7.196 7.196-7.196h.464c3.57 0 6.541 3.113 7.101 6.527.41-.248.85-.414 1.304-.492 1.192-.204 1.978-.046 2.426.331.631.533 1.008 1.367 1.008 2.232 0 .796-.31 1.295-.872 1.858l-3.157 3.149c-.389.389-.613.928-.613 1.479v.934c0 1.407-1.145 2.553-2.553 2.553z" fill="#00bcd4"/><path d="m13.25 24h-6.5c-1.517 0-2.75-1.233-2.75-2.75v-1.75c0-.414.336-.75.75-.75s.75.336.75.75v1.75c0 .689.561 1.25 1.25 1.25h6.5c.689 0 1.25-.561 1.25-1.25v-1.75c0-.414.336-.75.75-.75s.75.336.75.75v1.75c0 1.517-1.233 2.75-2.75 2.75z"/><path d="m15.25 20h-10.5c-1.517 0-2.75-1.233-2.75-2.75v-9.5c0-4.273 3.477-7.75 7.75-7.75h.5c3.845 0 7.044 2.814 7.647 6.49.441-.267.915-.446 1.404-.53 1.283-.219 2.13.219 2.612.626.681.574 1.087 1.473 1.087 2.404 0 .857-.334 1.664-.939 2.27l-3.4 3.392c-.419.419-.66 1-.66 1.593v1.005c-.001 1.517-1.234 2.75-2.751 2.75zm-5.5-18.5c-3.446 0-6.25 2.804-6.25 6.25v9.5c0 .689.561 1.25 1.25 1.25h10.5c.689 0 1.25-.561 1.25-1.25v-1.005c0-.988.401-1.956 1.101-2.654l3.4-3.391c.316-.318.499-.759.499-1.21 0-.487-.212-.969-.554-1.257-.347-.294-.813-.394-1.393-.294-.522.089-1.051.378-1.486.814l-.287.287c-.215.215-.536.278-.817.163-.28-.117-.463-.39-.463-.693v-.26c0-3.446-2.804-6.25-6.25-6.25z"/></svg>