<svg id="_x31_px" enable-background="new 0 0 24 24" height="512" viewBox="0 0 24 24" width="512" xmlns="http://www.w3.org/2000/svg"><path d="m18.25 23.5h-12.5c-1.105 0-2-.895-2-2v-18.75c0-1.105.895-2 2-2h12.5c1.105 0 2 .895 2 2v18.75c0 1.105-.895 2-2 2z" fill="#eceff1"/><path d="m12.25 9c-.414 0-.75-.336-.75-.75v-3.25c0-.276-.225-.5-.5-.5s-.5.224-.5.5v3.25c0 .414-.336.75-.75.75s-.75-.336-.75-.75v-3.25c0-1.103.897-2 2-2s2 .897 2 2v3.25c0 .414-.336.75-.75.75z"/><path d="m12.25 7.5h-2.5c-.414 0-.75-.336-.75-.75s.336-.75.75-.75h2.5c.414 0 .75.336.75.75s-.336.75-.75.75z"/><path d="m17.25 5.75h-2.5c-.414 0-.75-.336-.75-.75s.336-.75.75-.75h2.5c.414 0 .75.336.75.75s-.336.75-.75.75z"/><path d="m16 7c-.414 0-.75-.336-.75-.75v-2.5c0-.414.336-.75.75-.75s.75.336.75.75v2.5c0 .414-.336.75-.75.75z"/><path d="m18.25 24h-12.5c-1.517 0-2.75-1.233-2.75-2.75v-18.5c0-1.517 1.233-2.75 2.75-2.75h12.5c1.517 0 2.75 1.233 2.75 2.75v18.5c0 1.517-1.233 2.75-2.75 2.75zm-12.5-22.5c-.689 0-1.25.561-1.25 1.25v18.5c0 .689.561 1.25 1.25 1.25h12.5c.689 0 1.25-.561 1.25-1.25v-18.5c0-.689-.561-1.25-1.25-1.25z"/><path d="m14.25 14h-7.412c-.414 0-.75-.336-.75-.75s.336-.75.75-.75h7.412c.414 0 .75.336.75.75s-.336.75-.75.75z"/><path d="m14.25 20h-7.412c-.414 0-.75-.336-.75-.75s.336-.75.75-.75h7.412c.414 0 .75.336.75.75s-.336.75-.75.75z"/><path d="m17.25 17h-10.412c-.414 0-.75-.336-.75-.75s.336-.75.75-.75h10.412c.414 0 .75.336.75.75s-.336.75-.75.75z"/></svg>