<svg id="_x31__x2C_5px" enable-background="new 0 0 24 24" height="512" viewBox="0 0 24 24" width="512" xmlns="http://www.w3.org/2000/svg"><path d="m12 15.334c-3.033 0-5.5-2.495-5.5-5.561 0-3.783 4.806-8.694 5.011-8.901.259-.261.72-.261.978 0 .205.207 5.011 5.118 5.011 8.9 0 3.067-2.467 5.562-5.5 5.562z" fill="#00bcd4"/><path d="m12.75 24h-1.5c-.414 0-.75-.336-.75-.75v-.875c0-.896.673-1.625 1.5-1.625v-.25h-.75c-.414 0-.75-.336-.75-.75s.336-.75.75-.75h1.125c.62 0 1.125.533 1.125 1.188v.875c0 .655-.505 1.188-1.125 1.188h-.367c.021.003-.008.048-.008.124v.125h.75c.414 0 .75.336.75.75s-.336.75-.75.75zm-.375-3.5h.01z"/><path d="m8.25 21h-2.5c-.414 0-.75-.336-.75-.75s.336-.75.75-.75h2.5c.414 0 .75.336.75.75s-.336.75-.75.75z"/><path d="m8.25 23c-.414 0-.75-.336-.75-.75v-4.5c0-.414.336-.75.75-.75s.75.336.75.75v4.5c0 .414-.336.75-.75.75z"/><path d="m5.75 23c-.414 0-.75-.336-.75-.75v-4.5c0-.414.336-.75.75-.75s.75.336.75.75v4.5c0 .414-.336.75-.75.75z"/><path d="m17.25 23h-.5c-.965 0-1.75-.785-1.75-1.75v-2.5c0-.965.785-1.75 1.75-1.75h.5c.965 0 1.75.785 1.75 1.75v2.5c0 .965-.785 1.75-1.75 1.75zm-.5-4.5c-.138 0-.25.112-.25.25v2.5c0 .138.112.25.25.25h.5c.138 0 .25-.112.25-.25v-2.5c0-.138-.112-.25-.25-.25z"/><path d="m12 16c-3.309 0-6-2.722-6-6.067 0-4.126 5.243-9.484 5.466-9.71.282-.285.785-.285 1.067 0 .224.226 5.467 5.584 5.467 9.71 0 3.345-2.691 6.067-6 6.067zm.003-14.154c-1.294 1.432-4.503 5.269-4.503 8.087 0 2.518 2.019 4.567 4.5 4.567s4.5-2.049 4.5-4.567c0-2.597-2.876-6.303-4.497-8.087z"/></svg>