<svg id="Regular" height="512" viewBox="0 0 24 24" width="512" xmlns="http://www.w3.org/2000/svg"><path d="m17.757 19.994h-2.146c-1.099 0-1.992-.927-1.992-2.067 0-.188.023-.358.068-.506l1.165-4.776c.075-.306.32-.543.629-.606l4.918-1.015c.271-.054.549.028.744.223s.278.475.221.744l-1.257 5.997c-.201 1.151-1.192 2.006-2.35 2.006z" fill="#cfd8dc"/><path d="m17.38.75c-.46 0-.92.05-1.35.15l-11.86 2.73-2.05-.8c-.65-.27-1.37.19-1.37.86v5.62c0 .67.72 1.13 1.37.86l2.05-.8 11.86 2.73c.43.1.89.15 1.35.15 3.24 0 5.87-2.57 5.87-5.75s-2.63-5.75-5.87-5.75z" fill="#607d8b"/><path d="m17.5 9.25c-1.516 0-2.75-1.234-2.75-2.75s1.234-2.75 2.75-2.75 2.75 1.234 2.75 2.75-1.234 2.75-2.75 2.75z" fill="#cfd8dc"/><path d="m16.032 12.847c-.056 0-.112-.006-.169-.019l-11.632-2.68-1.841.722c-.53.223-1.146.161-1.636-.165-.472-.315-.754-.838-.754-1.398v-5.614c0-.56.282-1.083.754-1.398.49-.326 1.107-.384 1.65-.159l1.827.716 11.632-2.68c.402-.095.807.159.898.563.094.404-.158.806-.563.899l-11.856 2.732c-.145.032-.302.021-.442-.033l-2.057-.807c-.132-.055-.223-.006-.256.016-.04.027-.087.075-.087.151v5.613c0 .077.047.124.087.151.034.022.126.07.241.022l2.072-.812c.14-.055.297-.067.442-.033l11.857 2.732c.404.093.656.496.563.899-.079.347-.389.582-.73.582z"/><path d="m4 3.5h1.5v6h-1.5z"/><path d="m17.381 13c-.513 0-1.023-.058-1.519-.172-.403-.093-.655-.496-.562-.9.094-.405.502-.653.899-.562.384.089.781.134 1.181.134 2.822 0 5.119-2.243 5.119-5s-2.297-5-5.119-5c-.399 0-.797.045-1.181.134-.397.089-.806-.158-.899-.562-.094-.404.158-.807.562-.9.495-.114 1.006-.172 1.519-.172 3.649 0 6.619 2.916 6.619 6.5s-2.97 6.5-6.619 6.5z"/><path d="m17.5 10c-1.93 0-3.5-1.57-3.5-3.5s1.57-3.5 3.5-3.5 3.5 1.57 3.5 3.5-1.57 3.5-3.5 3.5zm0-5.5c-1.103 0-2 .897-2 2s.897 2 2 2 2-.897 2-2-.897-2-2-2z"/><path d="m13.037 24h-.681c-1.423 0-2.717-.84-3.296-2.141-.24-.541-.68-.945-1.239-1.137-.561-.193-1.154-.145-1.675.133l-1.044.556c-.364.196-.818.057-1.015-.309-.194-.366-.057-.82.31-1.015l1.043-.556c.878-.469 1.923-.554 2.869-.229.943.325 1.717 1.034 2.122 1.946.338.759 1.094 1.25 1.925 1.25h.681c.676 0 1.314-.327 1.709-.875l1.146-1.591c.242-.334.709-.413 1.047-.17.336.242.412.71.17 1.047l-1.146 1.591c-.675.939-1.769 1.5-2.926 1.5z"/><path d="m17.83 21h-2.63c-1.208 0-2.19-1.023-2.19-2.28 0-.205.024-.389.072-.547l1.55-6.399c.098-.403.502-.647.905-.552.402.098.649.503.552.906l-1.561 6.44c-.01.039-.019.073-.019.153 0 .438.304.78.69.78h2.63c.576 0 1.054-.428 1.162-1.04l1.542-7.609c.083-.407.477-.67.885-.586.405.082.668.478.586.884l-1.539 7.59c-.229 1.301-1.338 2.26-2.635 2.26z"/></svg>