<?xml version="1.0" encoding="iso-8859-1"?>
<!-- Generator: Adobe Illustrator 19.0.0, SVG Export Plug-In . SVG Version: 6.00 Build 0)  -->
<svg version="1.1" id="Capa_1" xmlns="http://www.w3.org/2000/svg" xmlns:xlink="http://www.w3.org/1999/xlink" x="0px" y="0px"
	 viewBox="0 0 512.273 512.273" style="enable-background:new 0 0 512.273 512.273;" xml:space="preserve">
<path style="fill:#D32F2F;" d="M432.262,240.172h-352c-44.183,0-80,35.817-80,80s35.817,80,80,80h352c44.183,0,80-35.817,80-80
	S476.445,240.172,432.262,240.172z"/>
<path style="fill:#FFC107;" d="M509.222,374.828c-3.001-4.171-7.822-6.647-12.96-6.656h-480
	c-8.837,0.007-15.995,7.176-15.988,16.012c0.001,1.714,0.278,3.417,0.82,5.044l10.112,30.336
	c15.234,45.74,58.03,76.599,106.24,76.608h277.632c48.21-0.009,91.006-30.868,106.24-76.608l10.144-30.336
	C513.072,384.347,512.238,378.99,509.222,374.828z"/>
<path style="fill:#4CAF50;" d="M509.574,231.308l-32-48c-2.965-4.455-7.961-7.133-13.312-7.136h-416
	c-5.351,0.003-10.347,2.681-13.312,7.136l-32,48c-1.75,2.625-2.686,5.709-2.688,8.864c0.033,35.346,28.714,63.973,64.06,63.94
	c18.347-0.017,35.805-7.908,47.94-21.668c23.379,26.51,63.822,29.047,90.332,5.668c2.006-1.769,3.899-3.662,5.668-5.668
	c23.379,26.51,63.822,29.047,90.332,5.668c2.006-1.769,3.899-3.662,5.668-5.668c23.379,26.51,63.822,29.047,90.332,5.668
	c2.006-1.769,3.899-3.662,5.668-5.668c23.379,26.51,63.822,29.047,90.332,5.668c13.76-12.135,21.651-29.593,21.668-47.94
	C512.26,237.017,511.325,233.933,509.574,231.308z"/>
<polygon style="fill:#FFEB3B;" points="96.262,368.172 176.262,431.18 256.262,368.172 "/>
<path style="fill:#FFC107;" d="M511.046,186.028C452.417,45.324,290.826-21.212,150.121,37.417
	C82.924,65.417,29.51,118.831,1.51,186.028c-3.393,8.159,0.47,17.524,8.629,20.917c1.941,0.807,4.021,1.224,6.123,1.227h480
	c8.837,0.006,16.005-7.153,16.011-15.989C512.274,190.071,511.857,187.979,511.046,186.028z"/>
<path d="M395.078,496.172H117.446c-48.202-0.004-90.994-30.849-106.24-76.576L1.094,389.228c-2.792-8.384,1.74-17.444,10.124-20.236
	c1.627-0.542,3.33-0.819,5.044-0.82h480c8.837,0.007,15.995,7.176,15.988,16.012c-0.001,1.714-0.278,3.417-0.82,5.044
	l-10.112,30.368C486.073,465.324,443.28,496.168,395.078,496.172z M38.47,400.172l3.2,9.312
	c10.88,32.621,41.389,54.639,75.776,54.688h277.632c34.422-0.008,64.981-22.034,75.872-54.688l3.2-9.312H38.47z"/>
<path d="M448.262,304.172c-18.367,0.001-35.85-7.889-48-21.664c-23.379,26.51-63.822,29.047-90.332,5.668
	c-2.006-1.769-3.899-3.662-5.668-5.668c-23.379,26.51-63.822,29.047-90.332,5.668c-2.006-1.769-3.899-3.662-5.668-5.668
	c-23.379,26.51-63.822,29.047-90.332,5.668c-2.006-1.769-3.899-3.662-5.668-5.668c-23.545,25.224-62.601,27.909-89.376,6.144
	c-14.405-11.969-22.703-29.752-22.624-48.48c0-8.837,7.163-16,16-16s16,7.163,16,16c-0.02,9.337,4.164,18.186,11.392,24.096
	c13.51,11.393,33.699,9.677,45.092-3.833c2.376-2.818,4.247-6.024,5.532-9.479c1.329-3.439,2.002-7.097,1.984-10.784
	c0-8.837,7.163-16,16-16s16,7.163,16,16c-0.034,3.542,0.595,7.058,1.856,10.368c5.649,16.653,23.729,25.572,40.381,19.923
	c9.232-3.132,16.52-10.32,19.779-19.507c1.329-3.439,2.002-7.097,1.984-10.784c0-8.837,7.163-16,16-16s16,7.163,16,16
	c-0.034,3.542,0.595,7.058,1.856,10.368c5.649,16.653,23.729,25.572,40.381,19.923c9.232-3.132,16.52-10.32,19.779-19.507
	c1.329-3.439,2.002-7.097,1.984-10.784c0-8.837,7.163-16,16-16s16,7.163,16,16c-0.034,3.542,0.595,7.058,1.856,10.368
	c5.649,16.653,23.729,25.572,40.381,19.923c9.232-3.132,16.52-10.32,19.779-19.507c1.329-3.439,2.002-7.097,1.984-10.784
	c0-8.837,7.163-16,16-16s16,7.163,16,16c-0.034,3.542,0.595,7.058,1.856,10.368c6.259,16.735,24.9,25.227,41.636,18.968
	c3.098-1.159,6-2.786,8.604-4.824c7.492-5.933,11.874-14.955,11.904-24.512c0-8.837,7.163-16,16-16s16,7.163,16,16
	c0.029,18.946-8.482,36.895-23.168,48.864C477.819,298.95,463.275,304.342,448.262,304.172z"/>
<path d="M496.262,256.172c-5.352-0.003-10.347-2.681-13.312-7.136l-27.264-40.864H56.838l-27.264,40.864
	c-4.68,7.496-14.55,9.778-22.045,5.099c-7.496-4.68-9.778-14.55-5.099-22.045c0.166-0.265,0.339-0.526,0.52-0.781l32-48
	c2.965-4.455,7.961-7.133,13.312-7.136h416c5.352,0.003,10.347,2.681,13.312,7.136l32,48c4.891,7.353,2.901,17.278-4.448,22.176
	C502.506,255.245,499.419,256.182,496.262,256.172z"/>
<path d="M176.262,448.172c-3.462,0-6.83-1.123-9.6-3.2l-64-48c-7.069-5.302-8.502-15.331-3.2-22.4s15.331-8.502,22.4-3.2l0,0
	l54.4,40.8l54.4-40.8c7.069-5.302,17.098-3.869,22.4,3.2c5.302,7.069,3.869,17.098-3.2,22.4l-64,48
	C183.093,447.05,179.724,448.172,176.262,448.172z"/>
<path d="M496.262,208.172h-480c-8.837,0-16-7.163-16-16s7.163-16,16-16h480c8.837,0,16,7.163,16,16S505.099,208.172,496.262,208.172
	z"/>
<path d="M496.262,208.172c-6.455-0.009-12.273-3.896-14.752-9.856C429.657,73.915,286.775,15.104,162.374,66.956
	c-59.393,24.756-106.604,71.967-131.36,131.36c-3.798,7.979-13.345,11.368-21.323,7.57c-7.424-3.534-10.962-12.12-8.181-19.858
	C60.114,45.333,221.679-21.216,362.374,37.388c67.216,27.997,120.643,81.424,148.64,148.64c3.382,8.147-0.469,17.494-8.608,20.896
	C500.464,207.754,498.374,208.179,496.262,208.172z"/>
<path d="M432.262,400.172h-352c-44.183,0-80-35.817-80-80c-0.155-20.366,7.667-39.984,21.792-54.656
	c6.186-6.345,16.343-6.474,22.688-0.288c6.345,6.186,6.474,16.343,0.288,22.688l0,0c-8.287,8.684-12.866,20.253-12.768,32.256
	c0,26.51,21.49,48,48,48h352c26.509-0.127,47.897-21.719,47.77-48.229c-0.057-11.906-4.537-23.367-12.57-32.155
	c-6.186-6.345-6.057-16.502,0.288-22.688c6.345-6.186,16.502-6.057,22.688,0.288c30.256,32.197,28.683,82.826-3.514,113.082
	C472.12,392.383,452.577,400.141,432.262,400.172z"/>
<g>
</g>
<g>
</g>
<g>
</g>
<g>
</g>
<g>
</g>
<g>
</g>
<g>
</g>
<g>
</g>
<g>
</g>
<g>
</g>
<g>
</g>
<g>
</g>
<g>
</g>
<g>
</g>
<g>
</g>
</svg>
