<?xml version="1.0" encoding="iso-8859-1"?>
<!-- Generator: Adobe Illustrator 19.0.0, SVG Export Plug-In . SVG Version: 6.00 Build 0)  -->
<svg version="1.1" id="Capa_1" xmlns="http://www.w3.org/2000/svg" xmlns:xlink="http://www.w3.org/1999/xlink" x="0px" y="0px"
	 viewBox="0 0 511.996 511.996" style="enable-background:new 0 0 511.996 511.996;" xml:space="preserve">
<path style="fill:#CFD8DC;" d="M428.798,285.548L272.414,178.06l-40.32-23.68c-2.454-1.443-5.249-2.205-8.096-2.208h-64.64
	c-5.985,0.006-11.467,3.351-14.208,8.672l-68.8,133.408c-3.613,6.982-1.619,15.554,4.704,20.224l126.752,93.696
	c28.67,21.032,67.719,20.85,96.192-0.448l125.44-96.32c7.014-5.375,8.343-15.418,2.968-22.432c-1.024-1.336-2.253-2.503-3.64-3.456
	L428.798,285.548z"/>
<path style="fill:#B0BEC5;" d="M434.046,291.436l-67.2-130.592c-2.741-5.321-8.223-8.666-14.208-8.672h-64.64
	c-4.246-0.008-8.322,1.673-11.328,4.672l-96,96c-5.843,5.845-6.273,15.179-0.992,21.536l12.512,15.072
	c14.428,17.384,39.026,22.355,59.072,11.936l34.944-18.208l78.912,62.656c5.791,4.528,13.921,4.528,19.712,0l44.8-34.56
	C435.653,306.567,437.503,298.255,434.046,291.436z"/>
<g>
	<path style="fill:#2196F3;" d="M167.166,113.772l-48-24c-7.904-3.952-17.514-0.748-21.466,7.156
		c-0.002,0.004-0.004,0.008-0.006,0.012l-96,192c-3.952,7.904-0.748,17.514,7.156,21.466c0.004,0.002,0.008,0.004,0.012,0.006l48,24
		c2.207,1.139,4.652,1.742,7.136,1.76c6.067,0.012,11.618-3.408,14.336-8.832l96-192c3.994-7.882,0.842-17.51-7.041-21.504
		C167.251,113.814,167.208,113.793,167.166,113.772z"/>
	<path style="fill:#2196F3;" d="M510.302,289.004l-96-192c-3.945-7.907-13.553-11.119-21.46-7.174
		c-0.004,0.002-0.008,0.004-0.012,0.006l-48,24c-7.907,3.945-11.119,13.553-7.174,21.46c0.002,0.004,0.004,0.008,0.006,0.012l96,192
		c3.945,7.907,13.553,11.119,21.46,7.174c0.004-0.002,0.008-0.004,0.012-0.006l48-24c7.907-3.945,11.119-13.553,7.174-21.46
		C510.306,289.012,510.304,289.008,510.302,289.004z"/>
</g>
<path d="M375.038,349.292c-3.612,0.004-7.12-1.214-9.952-3.456l-78.912-62.656l-34.944,18.24
	c-20.045,10.394-44.625,5.411-59.04-11.968l-12.512-15.072c-5.281-6.357-4.851-15.691,0.992-21.536l96-96
	c3.006-2.999,7.082-4.68,11.328-4.672h64.64c8.837,0,16,7.163,16,16s-7.163,16-16,16h-58.016l-80.992,80.992l3.2,3.84
	c4.751,5.734,12.83,7.432,19.488,4.096l44.32-23.136c5.603-2.918,12.398-2.266,17.344,1.664l87.04,69.12
	c6.928,5.485,8.097,15.548,2.612,22.476C384.588,347.071,379.945,349.308,375.038,349.292L375.038,349.292z"/>
<path d="M255.742,423.916c-17.249-0.001-34.045-5.518-47.936-15.744L81.054,314.476c-7.477-4.71-9.72-14.589-5.01-22.066
	c4.71-7.477,14.589-9.72,22.066-5.01c0.699,0.44,1.362,0.934,1.985,1.476l126.72,93.76c17.238,12.712,40.767,12.634,57.92-0.192
	l125.376-96.256c7.096-5.266,17.117-3.784,22.384,3.312c5.145,6.932,3.863,16.694-2.896,22.064l-125.6,96.16
	C290.104,418.231,273.161,423.916,255.742,423.916z"/>
<path d="M264.286,207.852c-2.847-0.003-5.642-0.765-8.096-2.208l-36.544-21.472h-60.288c-8.837,0-16-7.163-16-16s7.163-16,16-16
	h64.64c2.847,0.003,5.642,0.765,8.096,2.208l40.32,23.68c7.617,4.479,10.161,14.285,5.681,21.903
	C275.218,204.856,269.963,207.858,264.286,207.852z"/>
<path d="M435.198,344.172c-5.978,0-11.458-3.332-14.208-8.64l-99.2-192c-4.064-7.846-0.998-17.502,6.848-21.566
	c0.064-0.033,0.128-0.066,0.192-0.098l64-32c7.904-3.952,17.514-0.748,21.466,7.156c0.002,0.004,0.004,0.008,0.006,0.012l96,192
	c3.894,7.784,0.851,17.253-6.848,21.312l-60.8,32C440.353,343.552,437.794,344.178,435.198,344.172z M357.662,143.244l84.448,163.2
	l32.576-17.184L392.83,125.644L357.662,143.244z"/>
<path d="M76.798,344.172c-2.599-0.004-5.158-0.641-7.456-1.856l-60.8-32c-7.699-4.059-10.742-13.528-6.848-21.312l96-192
	c3.945-7.907,13.553-11.119,21.46-7.174c0.004,0.002,0.008,0.004,0.012,0.006l64,32c7.9,3.958,11.096,13.572,7.138,21.472
	c-0.032,0.064-0.065,0.128-0.098,0.192l-99.2,192C88.265,340.821,82.783,344.166,76.798,344.172z M37.31,289.324l32.576,17.184
	l84.448-163.2l-35.2-17.6L37.31,289.324z"/>
<g>
</g>
<g>
</g>
<g>
</g>
<g>
</g>
<g>
</g>
<g>
</g>
<g>
</g>
<g>
</g>
<g>
</g>
<g>
</g>
<g>
</g>
<g>
</g>
<g>
</g>
<g>
</g>
<g>
</g>
</svg>
