<?xml version="1.0" encoding="iso-8859-1"?>
<!-- Generator: Adobe Illustrator 19.0.0, SVG Export Plug-In . SVG Version: 6.00 Build 0)  -->
<svg version="1.1" id="Capa_1" xmlns="http://www.w3.org/2000/svg" xmlns:xlink="http://www.w3.org/1999/xlink" x="0px" y="0px"
	 viewBox="0 0 512 512" style="enable-background:new 0 0 512 512;" xml:space="preserve">
<path style="fill:#607D8B;" d="M401.792,318.72H110.208C71.712,319.168,0,320,0,368c0,63.04,128.768,96,256,96s256-32.96,256-96
	C512,320,440.32,319.168,401.792,318.72z"/>
<path style="fill:#455A64;" d="M427.584,52.992c-3.015-3.18-7.202-4.985-11.584-4.992H96c-4.393-0.001-8.594,1.804-11.616,4.992
	c-3.006,3.189-4.589,7.462-4.384,11.84l16,304c0.375,7.04,5.313,13.006,12.16,14.688C156.611,394.866,206.24,400.398,256,400
	c49.76,0.398,99.389-5.134,147.84-16.48c6.847-1.682,11.785-7.648,12.16-14.688l16-304
	C432.242,60.442,430.641,56.151,427.584,52.992z"/>
<path d="M256,464C128.768,464,0,431.04,0,368c0-48,71.712-48.832,110.24-49.28h0.16c8.837-0.053,16.043,7.067,16.096,15.904
	c0.053,8.837-7.067,16.043-15.904,16.096C42.208,351.488,32,361.888,32,368c0,26.08,87.264,64,224,64s224-37.92,224-64
	c0-6.112-10.208-16.512-78.592-17.28c-8.837-0.053-15.957-7.259-15.904-16.096c0.053-8.837,7.259-15.957,16.096-15.904l0,0
	C440.288,319.168,512,320,512,368C512,431.04,383.232,464,256,464z"/>
<path d="M256,400c-49.77,0.404-99.412-5.129-147.872-16.48c-6.834-1.694-11.757-7.657-12.128-14.688l-16-304
	c-0.205-4.378,1.378-8.651,4.384-11.84C87.406,49.804,91.607,47.999,96,48h320c4.393-0.001,8.594,1.804,11.616,4.992
	c3.006,3.189,4.589,7.462,4.384,11.84l-16,304c-0.371,7.031-5.294,12.994-12.128,14.688C355.412,394.871,305.77,400.404,256,400z
	 M127.328,355.2c84.956,16.832,172.388,16.832,257.344,0L399.136,80H112.864L127.328,355.2z"/>
<g>
</g>
<g>
</g>
<g>
</g>
<g>
</g>
<g>
</g>
<g>
</g>
<g>
</g>
<g>
</g>
<g>
</g>
<g>
</g>
<g>
</g>
<g>
</g>
<g>
</g>
<g>
</g>
<g>
</g>
</svg>
