<?xml version="1.0" encoding="iso-8859-1"?>
<!-- Generator: Adobe Illustrator 19.0.0, SVG Export Plug-In . SVG Version: 6.00 Build 0)  -->
<svg version="1.1" id="Capa_1" xmlns="http://www.w3.org/2000/svg" xmlns:xlink="http://www.w3.org/1999/xlink" x="0px" y="0px"
	 viewBox="0 0 512 512" style="enable-background:new 0 0 512 512;" xml:space="preserve">
<path style="fill:#607D8B;" d="M349.632,423.584c-2.92-4.722-8.08-7.592-13.632-7.584H176c-8.837,0-16,7.164-15.999,16.001
	c0,2.488,0.581,4.943,1.695,7.167l32,64C196.409,508.581,201.945,512,208,512h96c6.055,0,11.591-3.419,14.304-8.832l32-64
	C352.799,434.209,352.544,428.31,349.632,423.584z"/>
<path d="M304,512h-96c-6.055,0-11.591-3.419-14.304-8.832l-32-64c-3.959-7.9-0.764-17.514,7.137-21.473
	c2.225-1.115,4.679-1.695,7.167-1.695h160c8.837,0,16,7.164,15.999,16.001c0,2.488-0.581,4.943-1.695,7.167l-32,64
	C315.591,508.581,310.055,512,304,512z M217.888,480h76.224l16-32H201.888L217.888,480z"/>
<path style="fill:#F44336;" d="M432,144c0-80-78.784-128-176-128S80,64,80,144c0,115.008,80,145.984,128,224h96
	C352.992,288,432,256,432,144z"/>
<path d="M304,384h-96c-5.558,0.002-10.719-2.882-13.632-7.616c-14.869-22.566-31.945-43.597-50.976-62.784
	C104.384,271.456,64,228.064,64,144C64,59.232,142.976,0,256,0s192,59.232,192,144c0,81.6-39.808,125.152-78.336,167.264
	c-19.414,19.949-36.83,41.748-52,65.088C314.753,381.108,309.576,384.006,304,384z M216.736,352h78.496
	c15.204-22.134,32.2-42.983,50.816-62.336C383.584,248.64,416,213.184,416,144c0-76.8-82.944-112-160-112S96,67.2,96,144
	c0,71.456,32.8,106.784,70.848,147.68C185.135,310.356,201.822,330.534,216.736,352z"/>
<path d="M208,448c-8.837,0-16-7.163-16-16v-64c0-8.837,7.163-16,16-16s16,7.163,16,16v64C224,440.837,216.837,448,208,448z"/>
<path d="M304,448c-8.837,0-16-7.163-16-16v-64c0-8.837,7.163-16,16-16s16,7.163,16,16v64C320,440.837,312.837,448,304,448z"/>
<ellipse style="fill:#FBE9E7;" cx="256" cy="192" rx="112" ry="176"/>
<path d="M256,384c-3.077-0.002-6.088-0.891-8.672-2.56C189.664,344.32,128,275.2,128,192S189.664,39.68,247.328,2.56
	c5.28-3.405,12.064-3.405,17.344,0C322.336,39.68,384,108.96,384,192s-61.664,152.32-119.328,189.44
	C262.088,383.109,259.077,383.998,256,384z M256,35.2c-46.08,32.64-96,90.752-96,156.8s49.92,124.16,96,156.8
	c46.08-32.64,96-90.752,96-156.8S302.08,67.84,256,35.2z"/>
<path style="fill:#F44336;" d="M256,368c64-170.176,64-181.824,0-352C192,186.176,192,197.824,256,368z"/>
<path d="M256,384c-6.664,0-12.63-4.13-14.976-10.368C176,200.512,176,183.488,241.024,10.368c4.046-8.271,14.031-11.696,22.302-7.65
	c3.329,1.629,6.021,4.32,7.65,7.65c65.12,173.12,65.12,190.144,0,363.264C268.63,379.87,262.664,384,256,384z M256,61.824
	c-42.912,116.992-42.912,143.36,0,260.352C298.912,205.184,298.912,178.816,256,61.824z"/>
<g>
</g>
<g>
</g>
<g>
</g>
<g>
</g>
<g>
</g>
<g>
</g>
<g>
</g>
<g>
</g>
<g>
</g>
<g>
</g>
<g>
</g>
<g>
</g>
<g>
</g>
<g>
</g>
<g>
</g>
</svg>
