<svg id="_x31__x2C_5" height="512" viewBox="0 0 24 24" width="512" xmlns="http://www.w3.org/2000/svg"><path d="m18.97 12.55-3.02 7.92c-.13.33-.3.65-.5.93-.66-1.93-1.57-3.59-2.7-5 .09-3.66 2.12-6.45 6.1-8.33.48 1.48.54 3.22.12 4.48z" fill="#e53935"/><path d="m18.21 6.67c.26.42.48.89.64 1.4-3.98 1.88-6.01 4.67-6.1 8.33-1.99-2.5-4.69-4.24-7.98-5.31-.02-.15-.02-.3-.02-.46 0-1.38.36-2.87 1.05-3.95v-.01l-1.05-3.92 2.65-1 .72 2.69c.76-.39 1.56-.66 2.13-.81v-2.88h3.5v2.88c.56.15 1.37.42 2.13.81l.72-2.69 2.65 1z" fill="#f44336"/><path d="m15.45 21.4c-.77 1.13-2.03 1.85-3.45 1.85-1.78 0-3.31-1.14-3.96-2.78l-3.01-7.91c-.15-.44-.23-.94-.26-1.47 3.29 1.07 5.99 2.81 7.98 5.31 1.13 1.41 2.04 3.07 2.7 5z" fill="#c62828"/><path d="m8.12 5.19c-.104 0-.207-.021-.304-.064-.207-.092-.362-.272-.42-.492l-.72-2.69c-.107-.4.13-.811.531-.918.399-.105.811.13.918.531l.491 1.833c.323-.134.625-.24.884-.322v-2.318c0-.414.336-.75.75-.75s.75.336.75.75v2.88c0 .341-.229.639-.559.725-.317.083-1.144.324-1.978.752-.108.055-.225.083-.343.083z"/><path d="m12 24c-2.036 0-3.864-1.274-4.658-3.246l-3.011-7.933c-.221-.649-.329-1.378-.329-2.192 0-1.455.366-2.945.988-4.062l-.964-3.625c-.106-.4.132-.811.533-.917.399-.106.811.131.918.533l1.025 3.861c.028.078.043.163.043.251v.002.002.001.004c0 .011 0 .022-.001.034-.007.13-.047.262-.116.37-.58.909-.926 2.235-.926 3.546 0 .64.083 1.222.24 1.684l2.997 7.894c.558 1.388 1.841 2.293 3.261 2.293 1.423 0 2.701-.904 3.255-2.303l3.012-7.918c.492-1.46.188-3.81-.688-5.211-.11-.175-.142-.389-.089-.589l1.034-3.92c.106-.4.52-.64.917-.534.4.105.64.516.534.917l-.956 3.618c.986 1.793 1.274 4.404.66 6.225l-3.025 7.955c-.787 1.984-2.612 3.26-4.654 3.26z"/><path d="m15.88 5.19c-.118 0-.235-.028-.343-.083-.816-.419-1.657-.666-1.981-.752-.328-.088-.556-.386-.556-.725v-2.88c0-.414.336-.75.75-.75s.75.336.75.75v2.319c.26.083.563.189.885.32l.491-1.833c.107-.4.521-.635.918-.531.4.107.638.519.531.918l-.72 2.69c-.059.219-.213.4-.42.492-.098.043-.202.065-.305.065z"/><path d="m14.751 21.646c-1.715-4.94-5.056-8.16-10.214-9.843l.465-1.426c5.556 1.813 9.313 5.438 11.166 10.777z"/><path d="m13.5 16.279-1.5-.058c.152-3.884 2.349-6.851 6.53-8.819l.639 1.357c-3.685 1.735-5.54 4.195-5.669 7.52z"/></svg>