<svg id="regular" enable-background="new 0 0 24 24" height="512" viewBox="0 0 24 24" width="512" xmlns="http://www.w3.org/2000/svg"><path d="m5.375 17.75h-2.75c-.542 0-.982.44-.982.982v3.929c0 .325.264.589.589.589h3.536c.325 0 .589-.264.589-.589v-3.929c0-.542-.44-.982-.982-.982z" fill="#90caf9"/><path d="m13.495 11.948h-2.99c-.589 0-1.068.479-1.068 1.068v9.396c0 .354.287.641.641.641h3.844c.354 0 .641-.287.641-.641v-9.396c-.001-.589-.479-1.068-1.068-1.068z" fill="#64b5f6"/><path d="m21.495 13.802h-2.99c-.589 0-1.068.479-1.068 1.068v7.687c0 .354.287.641.641.641h3.844c.354 0 .641-.287.641-.641v-7.687c-.001-.589-.479-1.068-1.068-1.068z" fill="#2196f3"/><path d="m23.25 24h-22.5c-.414 0-.75-.336-.75-.75s.336-.75.75-.75h22.5c.414 0 .75.336.75.75s-.336.75-.75.75z"/><path d="m6.25 24h-4.5c-.414 0-.75-.336-.75-.75v-5c0-.689.561-1.25 1.25-1.25h3.5c.689 0 1.25.561 1.25 1.25v5c0 .414-.336.75-.75.75zm-3.75-1.5h3v-4h-3z"/><path d="m14.25 24h-4.5c-.414 0-.75-.336-.75-.75v-11c0-.689.561-1.25 1.25-1.25h3.5c.689 0 1.25.561 1.25 1.25v11c0 .414-.336.75-.75.75zm-3.75-1.5h3v-10h-3z"/><path d="m22.25 24h-4.5c-.414 0-.75-.336-.75-.75v-9c0-.689.561-1.25 1.25-1.25h3.5c.689 0 1.25.561 1.25 1.25v9c0 .414-.336.75-.75.75zm-3.75-1.5h3v-8h-3z"/><path d="m2.75 11c-.198 0-.396-.079-.545-.234-.284-.3-.271-.775.029-1.06l4.75-4.5c.174-.165.418-.238.649-.193l7.863 1.43 5.224-5.223c.293-.293.768-.293 1.061 0s.293.768 0 1.061l-5.5 5.5c-.174.175-.427.252-.664.208l-7.877-1.433-4.475 4.239c-.144.137-.329.205-.515.205z"/><path d="m21.25 6c-.414 0-.75-.336-.75-.75v-2.75h-2.75c-.414 0-.75-.336-.75-.75s.336-.75.75-.75h3.5c.414 0 .75.336.75.75v3.5c0 .414-.336.75-.75.75z"/></svg>