<svg id="_x31__x2C_5" enable-background="new 0 0 24 24" height="512" viewBox="0 0 24 24" width="512" xmlns="http://www.w3.org/2000/svg"><path d="m23.25 6.5-4.74 2-6.51 2.75-6.51-2.75-4.74-2 11.25-4.75z" fill="#cfd8dc"/><path d="m23.25 10.5-4.74 2-6.51 2.75-6.51-2.75-4.74-2 4.74-2 6.51 2.75 6.51-2.75z" fill="#2196f3"/><path d="m23.25 14.5-4.74 2-6.51 2.75-6.51-2.75-4.74-2 4.74-2 6.51 2.75 6.51-2.75z" fill="#cfd8dc"/><path d="m23.25 18.5-11.25 4.75-11.25-4.75 4.74-2 6.51 2.75 6.51-2.75z" fill="#2196f3"/><path d="m12 12c-.099 0-.198-.02-.292-.059l-11.25-4.75c-.277-.117-.458-.39-.458-.691s.181-.574.458-.691l11.25-4.75c.187-.079.396-.079.583 0l11.25 4.75c.278.117.459.39.459.691s-.181.574-.458.691l-11.25 4.75c-.094.039-.193.059-.292.059zm-9.322-5.5 9.322 3.936 9.322-3.936-9.322-3.936z"/><path d="m12 16c-.099 0-.198-.02-.292-.059l-11.25-4.75c-.277-.117-.458-.39-.458-.691 0-.302.181-.574.458-.691l4.74-2c.382-.16.822.018.982.399.162.382-.016.822-.398.983l-3.103 1.309 9.321 3.936 9.321-3.936-3.103-1.31c-.382-.161-.561-.601-.399-.982.161-.381.601-.559.982-.399l4.74 2c.278.117.459.389.459.691 0 .301-.181.574-.458.691l-11.25 4.75c-.094.039-.193.059-.292.059z"/><path d="m12 20c-.099 0-.198-.02-.292-.059l-11.25-4.75c-.277-.117-.458-.39-.458-.691 0-.302.181-.574.458-.691l4.74-2c.382-.161.822.018.982.399.161.381-.018.821-.399.982l-3.102 1.31 9.321 3.936 9.321-3.936-3.103-1.31c-.382-.161-.561-.601-.399-.982.161-.382.601-.56.982-.399l4.74 2c.278.117.459.389.459.691 0 .301-.181.574-.458.691l-11.25 4.75c-.094.039-.193.059-.292.059z"/><path d="m12 24c-.099 0-.198-.02-.292-.059l-11.25-4.75c-.277-.117-.458-.39-.458-.691 0-.302.181-.574.458-.691l4.74-2c.382-.161.822.018.982.399.161.381-.018.821-.399.982l-3.102 1.31 9.321 3.936 9.321-3.936-3.103-1.31c-.382-.161-.561-.601-.399-.982.161-.382.601-.56.982-.399l4.74 2c.278.117.459.389.459.691 0 .301-.181.574-.458.691l-11.25 4.75c-.094.039-.193.059-.292.059z"/></svg>