<?xml version="1.0" encoding="utf-8"?>
<!-- Generator: Adobe Illustrator 25.3.1, SVG Export Plug-In . SVG Version: 6.00 Build 0)  -->
<svg version="1.1" id="Capa_1" xmlns="http://www.w3.org/2000/svg" xmlns:xlink="http://www.w3.org/1999/xlink" x="0px" y="0px"
	 viewBox="0 0 512 512" style="enable-background:new 0 0 512 512;" xml:space="preserve">
<style type="text/css">
	.st0{fill:#F44336;stroke:#000000;stroke-width:9;stroke-miterlimit:10;}
	.st1{fill:#FFC107;stroke:#000000;stroke-width:9;stroke-miterlimit:10;}
	.st2{fill:#4CAF50;stroke:#000000;stroke-width:9;stroke-miterlimit:10;}
	.st3{fill:#2196F3;stroke:#000000;stroke-width:9;stroke-miterlimit:10;}
	.st4{fill:#FAFAFA;stroke:#000000;stroke-width:9;stroke-miterlimit:10;}
	.st5{stroke:#000000;stroke-width:9;stroke-miterlimit:10;}
</style>
<path class="st0" d="M486.6,162.7H256c-51.5-0.1-93.4,41.7-93.4,93.2c0,16,4.1,31.7,11.9,45.7L59.2,103.8
	c84-108.7,240.2-128.7,348.8-44.7C443,86,470.1,121.8,486.6,162.7z"/>
<path class="st1" d="M504.9,256C504.7,393.4,393.4,504.7,256,504.9c-10.4,0-20.8-0.7-31.1-2.1l112-200.1
	c25.7-44.7,10.4-101.7-34.2-127.5c-14.1-8.2-30.1-12.5-46.4-12.4h230.4C498.7,192.3,504.9,224,504.9,256z"/>
<path class="st2" d="M336.9,302.7l-112,200.1h-0.2C88.4,485.6-8.1,361.1,9.2,224.9C14.7,180.8,32,139,59.2,103.8l115.3,197.8l0.6,1
	c25.7,44.7,82.8,60,127.4,34.3C316.8,328.8,328.7,316.9,336.9,302.7z"/>
<path class="st0" d="M336.9,302.7c-25.7,44.7-82.8,60-127.4,34.3c-14.3-8.2-26.1-20.1-34.3-34.3l-0.6-1c-25.2-45-9.2-101.8,35.8-127
	c14-7.8,29.7-11.9,45.7-11.9h0.2c16.3,0,32.3,4.3,46.4,12.4C347.3,201,362.6,258,336.9,302.7z"/>
<path class="st3" d="M336.9,302.7c-25.7,44.7-82.8,60-127.4,34.3c-14.3-8.2-26.1-20.1-34.3-34.3l-0.6-1c-25.2-45-9.2-101.8,35.8-127
	c14-7.8,29.7-11.9,45.7-11.9h0.2c16.3,0,32.3,4.3,46.4,12.4C347.3,201,362.6,258,336.9,302.7z"/>
<path class="st4" d="M255.7,359.7c-18.1,0-35.8-4.8-51.5-13.8c-15.8-9.1-28.9-22.2-38-38c-28.6-49.6-11.6-113,37.9-141.6
	c15.8-9.1,33.7-13.9,51.9-13.9c57.3,0,103.7,46.3,103.8,103.6c0,18.2-4.8,36.1-13.9,51.9l0,0C327.2,340,292.8,359.7,255.7,359.7z
	 M256.2,173.1c-29.8-0.2-57.3,15.7-72.1,41.5c-22.9,39.7-9.3,90.5,30.4,113.4s90.5,9.3,113.4-30.4l0,0
	c22.9-39.7,9.3-90.4-30.4-113.3C285,176.9,270.7,173.1,256.2,173.1L256.2,173.1L256.2,173.1z"/>
<path class="st5" d="M256,504.9C118.6,504.9,7.2,393.4,7.2,256S118.6,7.2,256,7.2S504.9,118.6,504.9,256
	C504.7,393.4,393.4,504.7,256,504.9z M256,27.9C130,27.9,27.9,130,27.9,256S130,484.1,256,484.1S484.1,382,484.1,256
	C484,130.1,381.9,28.1,256,27.9z"/>
<path class="st5" d="M255.9,359.7c-57.4,0-104-46.5-104-103.9c0-57.4,46.5-104,103.9-104s104,46.5,104,103.9
	c0,47-31.5,88.2-77,100.4C274,358.5,265,359.7,255.9,359.7z M256.1,173.1c-7.3,0-14.6,1-21.6,2.9c-44,11.9-70,57.2-58.1,101.2
	c11.9,44,57.2,70,101.2,58.1c44-11.9,70-57.2,58.1-101.2C326,198.1,293.4,173.1,256.1,173.1z"/>
<path class="st5" d="M473.7,173.1H256c-5.7,0-10.4-4.6-10.4-10.4s4.6-10.4,10.4-10.4h217.7c5.7,0,10.4,4.6,10.4,10.4
	C484.1,168.4,479.5,173.1,473.7,173.1z"/>
<path class="st5" d="M175.2,313c-3.7,0-7.1-2-9-5.1L60.4,126.5c-3.2-4.8-1.8-11.2,2.9-14.4s11.2-1.8,14.4,2.9
	c0.2,0.3,0.4,0.7,0.6,1.1l105.8,181.4c2.9,4.9,1.2,11.3-3.7,14.2C178.9,312.6,177.1,313.1,175.2,313L175.2,313z"/>
<path class="st5" d="M235.3,494.5c-5.7,0-10.4-4.7-10.4-10.4c0-1.8,0.5-3.5,1.3-5.1l101.6-181.4c2.8-5,9.1-6.8,14.1-4
	c5,2.8,6.8,9.1,4,14.1L244.3,489.2C242.5,492.5,239,494.5,235.3,494.5z"/>
</svg>
