<?xml version="1.0" encoding="iso-8859-1"?>
<!-- Generator: Adobe Illustrator 19.0.0, SVG Export Plug-In . SVG Version: 6.00 Build 0)  -->
<svg version="1.1" id="Capa_1" xmlns="http://www.w3.org/2000/svg" xmlns:xlink="http://www.w3.org/1999/xlink" x="0px" y="0px"
	 viewBox="0 0 512.04 512.04" style="enable-background:new 0 0 512.04 512.04;" xml:space="preserve">
<path style="fill:#37474F;" d="M287.972,224v117.12c-1.322,18.475-0.398,37.043,2.752,55.296
	c3.975,9.298,10.858,17.057,19.616,22.112c11.638,6.803,24.921,10.279,38.4,10.048c24.046,1.245,47.785-5.854,67.2-20.096v76.8l0,0
	c-18.808,8.899-38.53,15.723-58.816,20.352c-18.797,4.376-38.045,6.513-57.344,6.368c-18.744,0.424-37.411-2.535-55.104-8.736
	c-16.989-5.248-32.739-13.88-46.304-25.376c-11.547-9.246-20.609-21.222-26.368-34.848c-5.796-17.303-8.324-35.533-7.456-53.76
	V209.856H95.972v-72.544c20.552-5.912,39.892-15.425,57.12-28.096c14.186-12.316,25.801-27.312,34.176-44.128
	C197.043,44.61,203.172,22.584,205.38,0h82.592v128h128v96H287.972z"/>
<path d="M295.396,512c-18.66,0.38-37.231-2.679-54.784-9.024c-17.369-5.727-33.387-14.939-47.072-27.072
	c-12.333-10.472-21.942-23.781-28-38.784c-5.946-18.1-8.569-37.126-7.744-56.16V228.736h-45.824c-8.837,0-16-7.163-16-16v-68
	c0.005-6.847,4.366-12.931,10.848-15.136c16.61-4.907,32.19-12.79,45.984-23.264c11.211-10.164,20.322-22.428,26.816-36.096
	c8.1-17.748,13.152-36.734,14.944-56.16c0.976-8.079,7.862-14.139,16-14.08h74.208c8.837,0,16,7.163,16,16v104.032h99.2
	c8.837,0,16,7.163,16,16v89.824c0,8.837-7.163,16-16,16h-99.2v100.352c-0.68,13.408-0.134,26.851,1.632,40.16
	c2.24,5.129,6.02,9.435,10.816,12.32c7.934,4.829,17.082,7.294,26.368,7.104c18.542,1.141,36.859-4.551,51.488-16
	c7.309-4.966,17.26-3.067,22.226,4.242c1.805,2.656,2.769,5.794,2.766,9.006v72.16c-0.006,6.114-3.496,11.69-8.992,14.368
	c-17.938,8.837-36.807,15.642-56.256,20.288C332.667,510.166,314.053,512.229,295.396,512z M127.972,196.736h45.824
	c8.837,0,16,7.163,16,16V380.96c-0.726,15.035,1.147,30.082,5.536,44.48c4.222,10.316,10.914,19.437,19.488,26.56
	c10.468,9.336,22.775,16.378,36.128,20.672c14.219,5.233,29.302,7.719,44.448,7.328c16.063,0.186,32.088-1.609,47.712-5.344
	c14.027-3.323,27.709-7.962,40.864-13.856v-34.656c-14.117,5.672-29.279,8.279-44.48,7.648
	c-15.258,0.209-30.261-3.919-43.264-11.904c-10.964-6.717-19.436-16.829-24.128-28.8c-3.541-16.724-4.661-33.87-3.328-50.912
	v-116.32c0-8.837,7.163-16,16-16h99.2v-57.824h-99.2c-8.837,0-16-7.163-16-16V32h-44.48c-2.766,18.083-8.156,35.666-16,52.192
	c-8.29,17.381-19.875,32.987-34.112,45.952c-13.801,11.204-29.433,19.941-46.208,25.824V196.736z"/>
<g>
</g>
<g>
</g>
<g>
</g>
<g>
</g>
<g>
</g>
<g>
</g>
<g>
</g>
<g>
</g>
<g>
</g>
<g>
</g>
<g>
</g>
<g>
</g>
<g>
</g>
<g>
</g>
<g>
</g>
</svg>
