<svg id="reg" enable-background="new 0 0 24 24" height="512" viewBox="0 0 24 24" width="512" xmlns="http://www.w3.org/2000/svg"><g fill="#cfd8dc"><ellipse cx="17.94" cy="7.974" rx="5.5" ry="5.5" transform="matrix(.722 -.693 .693 .722 -.525 14.644)"/><path d="m5.05 14.34c2.57-2.003 6.45-.216 6.45 3.16 0 2.21-1.79 4-4 4-2.01 0-3.68-1.48-3.95-3.42z"/><path d="m6.7 19.33c.49.22 1.06.23 1.59.01 1.647-.71 1.591-3.05-.05-3.7l-7.74-3.14v4.37z"/></g><path d="m.445 17.433 2.631 1.035c1.244 5.023 8.645 4.516 9.139-.688l6.086-3.644c3.283-.251 5.604-2.877 5.667-5.926.11-5.391-6.443-8.285-10.396-4.526-1.052 1.001-1.697 2.311-1.853 3.733l-3.558 5.34c-1.074-.139-2.161.099-3.091.694-1.062-.414-2.396-.949-4.057-1.655-.5-.212-1.043.158-1.043.69v4.249c0 .308.188.585.475.698zm15.409-3.58-3.766 2.254c-.346-1.25-1.208-2.31-2.42-2.906l2.263-3.395c.543 1.843 1.958 3.39 3.923 4.047zm1.971-10.364c2.596 0 4.698 2.103 4.644 4.69-.025 1.227-.531 2.371-1.425 3.221-2.97 2.829-7.946.671-7.862-3.408.051-2.515 2.125-4.503 4.643-4.503zm-8.821 11.057c2.99 1.468 1.912 5.941-1.418 5.941-1.013 0-1.928-.483-2.511-1.233.777.171 2.727 1.674 4.417.005.808-.797 1.033-1.937.586-2.979-.44-1.013-1.026-1.301-2.941-2.035.622-.086 1.27.007 1.867.301zm-7.534-.93c6.128 2.556 6.874 2.439 7.232 3.26.43 1.001-.615 2.002-1.595 1.566-.01-.004-.021-.009-.031-.013l-5.606-2.205z"/><path d="m17.884 11.61c1.93 0 3.5-1.57 3.5-3.5s-1.57-3.5-3.5-3.5-3.5 1.57-3.5 3.5 1.571 3.5 3.5 3.5zm0-5.5c1.103 0 2 .897 2 2s-.897 2-2 2-2-.897-2-2 .897-2 2-2z"/></svg>