<?xml version="1.0" encoding="utf-8"?>
<!-- Generator: Adobe Illustrator 25.3.1, SVG Export Plug-In . SVG Version: 6.00 Build 0)  -->
<svg version="1.1" id="Capa_1" xmlns="http://www.w3.org/2000/svg" xmlns:xlink="http://www.w3.org/1999/xlink" x="0px" y="0px"
	 viewBox="0 0 512 512" style="enable-background:new 0 0 512 512;" xml:space="preserve">
<style type="text/css">
	.st0{fill:#F44336;stroke:#000000;stroke-width:8;stroke-miterlimit:10;}
	.st1{fill:#4CAF50;stroke:#000000;stroke-width:8;stroke-miterlimit:10;}
	.st2{fill:#2196F3;stroke:#000000;stroke-width:8;stroke-miterlimit:10;}
	.st3{fill:#FFC107;stroke:#000000;stroke-width:8;stroke-miterlimit:10;}
	.st4{stroke:#000000;stroke-width:8;stroke-miterlimit:10;}
</style>
<path class="st0" d="M203.4,59.6l-184.7,24c-5.1,0.7-9,5.1-8.9,10.3v143.6c0,5.7,4.6,10.3,10.3,10.3h184.7c5.7,0,10.3-4.6,10.3-10.3
	V69.8c0-2.9-1.3-5.8-3.5-7.7C209.2,60.2,206.3,59.3,203.4,59.6z"/>
<path class="st1" d="M498.8,24.6c-2.2-2-5.1-2.9-8.1-2.6L244.4,54.2c-5.1,0.7-9,5.1-8.9,10.3v173.1c0,5.7,4.6,10.3,10.3,10.3H492
	c5.7,0,10.3-4.6,10.3-10.3V32.3C502.2,29.4,501,26.6,498.8,24.6z"/>
<path class="st2" d="M204.7,268.3H20c-5.7,0-10.3,4.6-10.3,10.3v143.6c0,5.2,3.8,9.6,8.9,10.3l184.7,24.1c0.4,0,0.9,0,1.3,0
	c5.7,0,10.3-4.6,10.3-10.3V278.6C215,272.9,210.4,268.3,204.7,268.3z"/>
<path class="st3" d="M492,268.3H245.7c-5.7,0-10.3,4.6-10.3,10.3v173.1c0,5.2,3.8,9.6,8.9,10.3L490.7,494c0.4,0,0.9,0,1.3,0
	c5.7,0,10.3-4.6,10.3-10.3l0,0V278.6C502.2,272.9,497.7,268.3,492,268.3z"/>
<path class="st4" d="M204.7,247.8H20c-5.7,0-10.3-4.6-10.3-10.3V93.9c0-5.2,3.8-9.6,8.9-10.3l184.7-24.1c5.6-0.7,10.8,3.2,11.5,8.9
	c0.1,0.5,0.1,0.9,0.1,1.4v167.7C215,243.2,210.4,247.8,204.7,247.8z M30.3,227.3h164.2V81.6L30.3,102.9V227.3z"/>
<path class="st4" d="M492,247.8H245.7c-5.7,0-10.3-4.6-10.3-10.3V64.4c0-5.2,3.8-9.6,8.9-10.3L490.7,22c5.6-0.7,10.8,3.2,11.5,8.9
	c0.1,0.5,0.1,0.9,0.1,1.4v205.2C502.2,243.2,497.7,247.8,492,247.8z M256,227.3h225.7V44L256,73.3V227.3z"/>
<path class="st4" d="M204.7,456.5c-0.4,0-0.9,0-1.3,0L18.7,432.5c-5.1-0.7-9-5.1-8.9-10.3V278.6c0-5.7,4.6-10.3,10.3-10.3h184.7
	c5.7,0,10.3,4.6,10.3,10.3v167.7C215,452,210.4,456.5,204.7,456.5z M30.3,413.2l164.2,21.3V288.8H30.3V413.2z"/>
<path class="st4" d="M492,494c-0.4,0-0.9,0-1.3,0l-246.2-32.1c-5.1-0.7-9-5.1-8.9-10.3V278.6c0-5.7,4.6-10.3,10.3-10.3H492
	c5.7,0,10.3,4.6,10.3,10.3v205.2C502.2,489.4,497.7,494,492,494z M256,442.7l225.7,29.5V288.8H256V442.7z"/>
</svg>
