<?xml version="1.0" encoding="utf-8"?>
<!-- Generator: Adobe Illustrator 25.3.1, SVG Export Plug-In . SVG Version: 6.00 Build 0)  -->
<svg version="1.1" id="Capa_1" xmlns="http://www.w3.org/2000/svg" xmlns:xlink="http://www.w3.org/1999/xlink" x="0px" y="0px"
	 viewBox="0 0 512 512" style="enable-background:new 0 0 512 512;" xml:space="preserve">
<style type="text/css">
	.st0{fill:#CFD8DC;stroke:#000000;stroke-width:8;stroke-miterlimit:10;}
	.st1{fill:#FAFAFA;stroke:#000000;stroke-width:8;stroke-miterlimit:10;}
	.st2{fill:#EEEEEE;stroke:#000000;stroke-width:8;stroke-miterlimit:10;}
	.st3{fill:#ECEFF1;stroke:#000000;stroke-width:8;stroke-miterlimit:10;}
	.st4{fill:#F44336;stroke:#000000;stroke-width:8;stroke-miterlimit:10;}
	.st5{stroke:#000000;stroke-width:8;stroke-miterlimit:10;}
</style>
<path class="st0" d="M437.2,413.1L263.5,290.4c-3.5-2.5-8.3-2.5-11.8,0L77.9,413.1c-2.7,1.9-4.3,5-4.3,8.4v10.2
	c0,5.6,4.6,10.2,10.2,10.2h347.6c5.6,0,10.2-4.6,10.2-10.2v-10.2C441.6,418.1,440,415,437.2,413.1z"/>
<path class="st1" d="M263.5,290.4L89.7,167.7c-4.6-3.3-11-2.2-14.3,2.4c-1.2,1.7-1.9,3.8-1.9,5.9v245.3c0,5.6,4.6,10.2,10.2,10.2
	c2.1,0,4.2-0.7,5.9-1.9l173.8-122.7c4.6-3.3,5.7-9.6,2.5-14.2C265.2,291.9,264.4,291.1,263.5,290.4L263.5,290.4z"/>
<path class="st2" d="M436,167c-3.4-1.7-7.5-1.5-10.6,0.7L251.6,290.4c-4.6,3.3-5.7,9.6-2.5,14.2c0.7,1,1.5,1.8,2.5,2.5l173.8,122.7
	c4.6,3.3,11,2.2,14.3-2.4c1.2-1.7,1.9-3.8,1.9-5.9V176.1C441.6,172.3,439.4,168.8,436,167z"/>
<path class="st3" d="M461.5,80.9c-1.4-4.2-5.3-7-9.7-7H63.3c-5.6,0-10.2,4.6-10.2,10.2c0,3.2,1.5,6.2,4.1,8.2l194.2,143.1
	c3.6,2.7,8.5,2.7,12.1,0L457.8,92.3C461.3,89.7,462.8,85.1,461.5,80.9z"/>
<path class="st4" d="M451.8,73.9c-2.2,0-4.4,0.7-6.1,2L257.6,214.5L69.5,75.9c-1.8-1.3-3.9-2-6.1-2c-28.2,0-51.1,22.9-51.1,51.1
	v265.8c0,28.2,22.9,51.1,51.1,51.1h20.4c5.6,0,10.2-4.6,10.2-10.2V195.8l157.6,111.3c3.5,2.5,8.3,2.5,11.8,0l157.7-111.3v235.8
	c0,5.6,4.6,10.2,10.2,10.2h20.4c28.2,0,51.1-22.9,51.1-51.1V125C502.9,96.7,480,73.9,451.8,73.9z"/>
<path class="st5" d="M451.8,441.9H63.3c-28.2,0-51.1-22.9-51.1-51.1V125c0-28.2,22.9-51.1,51.1-51.1h388.4
	c28.2,0,51.1,22.9,51.1,51.1v265.8C502.9,419,480,441.9,451.8,441.9z M63.3,94.3c-16.9,0-30.7,13.7-30.7,30.7v265.8
	c0,16.9,13.7,30.7,30.7,30.7h388.4c16.9,0,30.7-13.7,30.7-30.7V125c0-16.9-13.7-30.7-30.7-30.7H63.3z"/>
<path class="st5" d="M257.6,237.4c-2.2,0-4.4-0.7-6.1-2L57.2,92.3c-4.5-3.4-5.4-9.8-2-14.3c3.4-4.5,9.8-5.4,14.3-2l188.1,138.6
	L445.6,75.9c4.8-3,11.1-1.5,14.1,3.3c2.6,4.2,1.8,9.7-1.9,13L263.6,235.4C261.8,236.7,259.7,237.4,257.6,237.4z"/>
<path class="st5" d="M431.3,441.9c-5.6,0-10.2-4.6-10.2-10.2V195.8L263.4,307.1c-3.5,2.5-8.2,2.5-11.8,0L94,195.8v235.8
	c0,5.6-4.6,10.2-10.2,10.2s-10.2-4.6-10.2-10.2V176.1c0-5.6,4.6-10.2,10.2-10.2c2.1,0,4.2,0.7,5.9,1.9l167.9,118.5l167.9-118.6
	c4.6-3.3,11-2.1,14.2,2.5c1.2,1.7,1.9,3.8,1.9,6v255.6C441.6,437.3,437,441.9,431.3,441.9z"/>
<path class="st5" d="M431.3,431.6c-2.1,0-4.2-0.6-5.9-1.9L257.6,311.3L89.7,429.8c-4.7,3.1-11,1.9-14.2-2.9c-3-4.5-2-10.6,2.4-13.9
	l173.8-122.7c3.5-2.5,8.2-2.5,11.8,0l173.8,122.7c4.6,3.2,5.7,9.6,2.5,14.2C437.8,430.1,434.7,431.7,431.3,431.6L431.3,431.6
	L431.3,431.6z"/>
</svg>
