<?xml version="1.0" encoding="iso-8859-1"?>
<!-- Generator: Adobe Illustrator 19.0.0, SVG Export Plug-In . SVG Version: 6.00 Build 0)  -->
<svg version="1.1" id="Capa_1" xmlns="http://www.w3.org/2000/svg" xmlns:xlink="http://www.w3.org/1999/xlink" x="0px" y="0px"
	 viewBox="0 0 512 512" style="enable-background:new 0 0 512 512;" xml:space="preserve">
<g>
	<path style="fill:#37474F;" d="M416,288c-53.019,0-96,42.981-96,96v16c0,8.837,7.163,16,16,16h160c8.837,0,16-7.163,16-16v-16
		C512,330.981,469.019,288,416,288z"/>
	<circle style="fill:#37474F;" cx="416" cy="176" r="80"/>
	<path style="fill:#37474F;" d="M224,288c-44.183,0-80,35.817-80,80v32c0,8.837,7.163,16,16,16h128c8.837,0,16-7.163,16-16v-32
		C304,323.817,268.183,288,224,288z"/>
	<path style="fill:#37474F;" d="M64,288c-35.346,0-64,28.654-64,64v48c0,8.837,7.163,16,16,16h96c8.837,0,16-7.163,16-16v-48
		C128,316.654,99.346,288,64,288z"/>
	<circle style="fill:#37474F;" cx="224" cy="192" r="72"/>
	<circle style="fill:#37474F;" cx="64" cy="208" r="56"/>
</g>
<path d="M496,416H336c-8.837,0-16-7.163-16-16v-16c0-53.019,42.981-96,96-96s96,42.981,96,96v16C512,408.837,504.837,416,496,416z
	 M352,384h128c0-35.346-28.654-64-64-64S352,348.654,352,384z"/>
<path d="M416,256c-44.183,0-80-35.817-80-80s35.817-80,80-80s80,35.817,80,80S460.183,256,416,256z M416,128
	c-26.51,0-48,21.49-48,48s21.49,48,48,48s48-21.49,48-48S442.51,128,416,128z"/>
<path d="M288,416H160c-8.837,0-16-7.163-16-16v-32c0-44.183,35.817-80,80-80s80,35.817,80,80v32C304,408.837,296.837,416,288,416z
	 M176,384h96v-16c0-26.51-21.49-48-48-48s-48,21.49-48,48V384z"/>
<path d="M112,416H16c-8.837,0-16-7.163-16-16v-48c0-35.346,28.654-64,64-64s64,28.654,64,64v48C128,408.837,120.837,416,112,416z
	 M32,384h64v-32c0-17.673-14.327-32-32-32s-32,14.327-32,32V384z"/>
<path d="M224,264c-39.764,0-72-32.236-72-72s32.236-72,72-72s72,32.236,72,72C295.947,231.743,263.743,263.947,224,264z M224,152
	c-22.091,0-40,17.909-40,40s17.909,40,40,40s40-17.909,40-40C263.965,169.923,246.077,152.035,224,152z"/>
<path d="M64,264c-30.928,0-56-25.072-56-56s25.072-56,56-56s56,25.072,56,56C119.965,238.913,94.913,263.965,64,264z M64,184
	c-13.255,0-24,10.745-24,24s10.745,24,24,24s24-10.745,24-24C87.982,194.752,77.248,184.018,64,184z"/>
<g>
</g>
<g>
</g>
<g>
</g>
<g>
</g>
<g>
</g>
<g>
</g>
<g>
</g>
<g>
</g>
<g>
</g>
<g>
</g>
<g>
</g>
<g>
</g>
<g>
</g>
<g>
</g>
<g>
</g>
</svg>
