<?xml version="1.0" encoding="iso-8859-1"?>
<!-- Generator: Adobe Illustrator 19.0.0, SVG Export Plug-In . SVG Version: 6.00 Build 0)  -->
<svg version="1.1" id="Capa_1" xmlns="http://www.w3.org/2000/svg" xmlns:xlink="http://www.w3.org/1999/xlink" x="0px" y="0px"
	 viewBox="0 0 512 512" style="enable-background:new 0 0 512 512;" xml:space="preserve">
<polygon style="fill:#FFC107;" points="341.344,352 512,352 341.344,32 170.656,32 "/>
<polygon style="fill:#2196F3;" points="158.464,352 85.344,480 432,480 512,352 "/>
<polygon style="fill:#4CAF50;" points="170.656,32 0,330.656 85.344,480 253.056,186.496 "/>
<path d="M420.992,480H96c-5.716,0-10.998-3.05-13.856-8l-80-138.656c-2.858-4.95-2.858-11.05,0-16L162.144,40
	c2.858-4.95,8.14-8,13.856-8h160c5.884,0.003,11.291,3.235,14.08,8.416l160,297.152c2.692,5.047,2.484,11.147-0.544,16
	l-75.008,118.88C431.618,477.129,426.504,479.982,420.992,480z M105.248,448H412.16l65.312-103.488L326.4,64H185.248L34.464,325.344
	L105.248,448z M336,361.152H164.576c-8.837,0-16-7.164-16-16c0-2.808,0.739-5.567,2.144-8l88.672-153.6
	c2.847-5.071,8.266-8.151,14.08-8c5.803,0.085,11.106,3.305,13.856,8.416l82.752,153.6c4.189,7.781,1.276,17.484-6.504,21.672
	C341.247,360.494,338.644,361.151,336,361.152L336,361.152z M192.288,329.152h116.928L252.8,224.32L192.288,329.152z"/>
<path d="M496,361.152H336c-8.837,0-16-7.163-16-16s7.163-16,16-16h160c8.837,0,16,7.163,16,16S504.837,361.152,496,361.152z"/>
<path d="M96,480c-2.81,0.009-5.571-0.731-8-2.144c-7.652-4.418-10.274-14.203-5.856-21.856l68.576-118.848
	c4.469-7.623,14.271-10.18,21.895-5.712c7.552,4.427,10.144,14.102,5.817,21.712L109.856,472C106.998,476.95,101.716,480,96,480z"/>
<path d="M253.28,207.456c-5.895,0.009-11.318-3.225-14.112-8.416L161.92,55.584c-3.952-7.904-0.749-17.514,7.155-21.466
	c7.566-3.783,16.769-1.024,21.005,6.298l77.248,143.456c4.199,7.751,1.337,17.439-6.4,21.664
	C258.584,206.817,255.951,207.478,253.28,207.456z"/>
<g>
</g>
<g>
</g>
<g>
</g>
<g>
</g>
<g>
</g>
<g>
</g>
<g>
</g>
<g>
</g>
<g>
</g>
<g>
</g>
<g>
</g>
<g>
</g>
<g>
</g>
<g>
</g>
<g>
</g>
</svg>
