<?xml version="1.0" encoding="iso-8859-1"?>
<!-- Generator: Adobe Illustrator 19.0.0, SVG Export Plug-In . SVG Version: 6.00 Build 0)  -->
<svg version="1.1" id="Capa_1" xmlns="http://www.w3.org/2000/svg" xmlns:xlink="http://www.w3.org/1999/xlink" x="0px" y="0px"
	 viewBox="0 0 512.132 512.132" style="enable-background:new 0 0 512.132 512.132;" xml:space="preserve">
<path style="fill:#FFEB3B;" d="M488.412,370.039c-42.912-10.391-78.5-40.158-96.222-80.486l-0.276-0.58
	c-3.162-4.948-4.001-11.025-2.297-16.641c3.552-8.366,17.272-12.702,26.368-15.572c2.634-0.824,5.114-1.618,7.166-2.412
	c7.253-2.481,13.908-6.443,19.538-11.633c3.817-3.403,6.037-8.239,6.125-13.343c-0.963-8.762-7.311-15.993-15.894-18.106
	c-3.391-1.344-7.008-2.028-10.657-2.015c-3.435-0.06-6.842,0.628-9.984,2.015c-6.381,3.197-13.312,5.155-20.426,5.771
	c-2.328-0.065-4.623-0.562-6.768-1.466c0.184-3.053,0.398-6.107,0.582-9.465v-1.405c4.787-32.944,2.701-66.519-6.125-98.623
	c-7.058-16.087-17.249-30.616-29.981-42.747c-10.496-9.853-22.617-17.827-35.831-23.572c-17.681-7.613-36.721-11.591-55.981-11.693
	h-1.225h-8.422c-19.285,0.132-38.342,4.173-56.012,11.877c-13.186,5.733-25.277,13.697-35.739,23.541
	c-12.68,12.149-22.827,26.676-29.859,42.747c-8.865,32.074-11.002,65.627-6.278,98.562l0,0c0.214,3.542,0.459,7.236,0.674,10.839
	c-2.544,1.078-5.291,1.599-8.054,1.527c-7.605-0.398-15.039-2.407-21.805-5.893c-2.609-1.166-5.441-1.749-8.299-1.71
	c-5.166,0.048-10.228,1.46-14.669,4.091c-5.225,2.691-9.015,7.518-10.382,13.221c-0.945,6.548,1.724,13.095,6.982,17.129
	c5.461,4.524,11.682,8.049,18.375,10.412c2.082,0.824,4.532,1.588,7.166,2.412c9.187,2.87,22.815,7.206,26.368,15.572
	c1.687,5.607,0.848,11.667-2.297,16.61l-0.245,0.55c-6.398,13.773-14.707,26.58-24.683,38.045
	c-8.602,10.119-18.628,18.943-29.767,26.198c-12.696,8.251-26.972,13.782-41.925,16.244c-5.786,0.93-9.927,6.075-9.585,11.908
	c0.102,1.703,0.496,3.376,1.164,4.946l0,0c3.59,6.591,9.487,11.634,16.568,14.167c15.363,6.211,31.476,10.389,47.927,12.427
	c1.35,3.397,2.376,6.914,3.062,10.503c0.796,3.664,1.623,7.45,2.817,11.45c1.428,5.972,6.998,10.024,13.138,9.557
	c3.795-0.186,7.567-0.707,11.27-1.557c8.436-1.899,17.047-2.922,25.694-3.053c6.157,0.013,12.303,0.534,18.375,1.557
	c12.624,3.262,24.355,9.303,34.33,17.679c18.93,16.081,42.71,25.388,67.557,26.442c0.827,0,1.654,0,2.45,0c0.796,0,2.266,0,3.552,0
	c24.871-0.956,48.702-10.202,67.68-26.259l0,0c9.984-8.356,21.712-14.386,34.33-17.648c6.071-1.023,12.217-1.544,18.375-1.557
	c8.644,0.047,17.262,0.957,25.724,2.717c3.694,0.814,7.457,1.274,11.239,1.374h0.582c5.908,0.325,11.205-3.607,12.587-9.343
	c1.164-3.939,1.991-7.633,2.817-11.358c0.637-3.564,1.611-7.061,2.909-10.442c16.45-2.061,32.561-6.249,47.927-12.458
	c7.056-2.526,12.947-7.53,16.568-14.076c0.737-1.598,1.183-3.314,1.317-5.069C498.382,376.099,494.218,370.942,488.412,370.039z"/>
<path d="M259.025,496.066h-4.256c-28.234-0.333-55.487-10.404-77.152-28.512c-7.946-6.717-17.196-11.718-27.168-14.688
	c-12.477-1.798-25.174-1.376-37.504,1.248c-4.65,1.034-9.384,1.644-14.144,1.824c-13.081,0.412-24.744-8.183-28.224-20.8
	c-1.216-4.16-2.112-8.096-2.976-11.936c-14.072-2.256-27.823-6.188-40.96-11.712c-10.586-4.029-19.253-11.918-24.256-22.08
	c-1.377-3.26-2.168-6.737-2.336-10.272c-0.831-13.905,9.026-26.17,22.784-28.352c12.443-2.068,24.327-6.675,34.912-13.536
	c9.564-6.275,18.184-13.882,25.6-22.592c8.729-9.93,16.022-21.035,21.664-32.992c1.038-1.756,1.784-3.669,2.208-5.664
	c-1.472-0.32-11.712-3.552-15.584-4.768s-5.984-1.92-8.096-2.752c-8.295-3.05-15.979-7.558-22.688-13.312
	c-9.343-7.67-13.852-19.765-11.808-31.68c2.188-10.113,8.688-18.764,17.792-23.68c11.238-6.851,25.039-8.036,37.28-3.2
	c2.048,0.96,3.872,1.728,5.504,2.304c-4.412-32.52-1.726-65.609,7.872-96.992c7.798-17.632,18.999-33.552,32.96-46.848
	c11.567-10.889,24.926-19.7,39.488-26.048c19.34-8.419,40.187-12.828,61.28-12.96h9.44c21.078,0.118,41.917,4.471,61.28,12.8
	c14.619,6.349,28.041,15.16,39.68,26.048c13.993,13.313,25.206,29.269,32.992,46.944c9.613,31.038,12.343,63.799,8,96l2.752-1.216
	c10.363-5.377,22.684-5.425,33.088-0.128c14.385,4.334,24.508,17.222,25.312,32.224c-0.022,9.257-3.771,18.115-10.4,24.576
	c-7.094,6.708-15.522,11.844-24.736,15.072c-2.336,0.928-5.088,1.792-8.064,2.752c-5.344,1.481-10.506,3.553-15.392,6.176
	c0.288,0.48,0.704,1.504,1.376,2.88c15.237,35.022,45.767,61.065,82.752,70.592l0,0c13.776,2.198,23.633,14.492,22.784,28.416
	c-0.183,3.639-1.052,7.211-2.56,10.528c-5.043,10.005-13.651,17.757-24.128,21.728c-13.121,5.571-26.878,9.505-40.96,11.712
	c-0.928,4.224-1.792,7.936-2.976,11.872c-3.482,12.318-14.817,20.751-27.616,20.544c-4.939-0.064-9.86-0.622-14.688-1.664
	c-12.33-2.659-25.044-3.017-37.504-1.056c-9.94,2.929-19.161,7.899-27.072,14.592C313.285,485.148,286.694,495.216,259.025,496.066z
	 M135.153,419.554c6.917,0.013,13.821,0.601,20.64,1.76c14.718,3.463,28.439,10.274,40.096,19.904
	c16.006,13.758,36.136,21.796,57.216,22.848h5.92c21.031-1.047,41.115-9.063,57.088-22.784
	c11.696-9.677,25.475-16.512,40.256-19.968c16.21-2.498,32.735-2.086,48.8,1.216c2.05,0.433,4.123,0.753,6.208,0.96
	c0.704-2.592,1.248-5.024,1.76-7.52c0.852-4.983,2.347-9.834,4.448-14.432l3.744-7.008l7.872-1.248
	c14.646-1.734,28.999-5.392,42.688-10.88c1.376-0.64,2.528-1.216,3.488-1.76c-43.551-13.344-79.192-44.889-97.728-86.496
	c-5.227-8.911-6.156-19.703-2.528-29.376c7.924-12.768,20.912-21.555,35.712-24.16c2.24-0.704,4.32-1.344,6.016-2.016
	c4.985-1.617,9.59-4.23,13.536-7.68c1.184-1.696,0-3.2-3.456-4.544c-1.612-0.677-3.34-1.036-5.088-1.056
	c-9.187,4.093-18.979,6.665-28.992,7.616c-4.76-0.008-9.47-0.966-13.856-2.816l-10.08-4.448l1.152-20.352
	c4.277-30.141,2.701-60.824-4.64-90.368c-6.034-13.819-14.733-26.314-25.6-36.768c-8.945-8.379-19.274-15.145-30.528-20
	c-15.358-6.603-31.89-10.042-48.608-10.112h-3.328h-5.728c-16.821,0.037-33.457,3.499-48.896,10.176
	c-11.208,4.868-21.493,11.634-30.4,20c-10.855,10.428-19.553,22.888-25.6,36.672c-7.292,28.973-8.932,59.079-4.832,88.672
	l1.28,21.92l-9.888,4.544c-14.18,4.778-29.73,3.227-42.688-4.256c-2.683-0.195-5.368,0.371-7.744,1.632
	c-1.001,0.507-1.85,1.269-2.464,2.208c4.257,4.015,9.318,7.08,14.848,8.992c1.472,0.576,3.2,1.12,5.12,1.696
	c15.138,2.558,28.461,11.467,36.608,24.48c3.687,9.761,2.758,20.667-2.528,29.664c-6.868,14.914-15.845,28.762-26.656,41.12
	c-9.423,11.077-20.408,20.725-32.608,28.64c-11.79,7.592-24.77,13.152-38.4,16.448c0.96,0.544,2.112,1.152,3.488,1.792
	c13.688,5.49,28.042,9.148,42.688,10.88l7.968,1.248l3.744,7.136c2.007,4.531,3.447,9.292,4.288,14.176
	c0.576,2.624,1.152,5.248,1.856,7.936c1.92-0.224,3.904-0.64,6.08-1.088C116.185,420.743,125.651,419.671,135.153,419.554z"/>
<g>
</g>
<g>
</g>
<g>
</g>
<g>
</g>
<g>
</g>
<g>
</g>
<g>
</g>
<g>
</g>
<g>
</g>
<g>
</g>
<g>
</g>
<g>
</g>
<g>
</g>
<g>
</g>
<g>
</g>
</svg>
