<?xml version="1.0" encoding="utf-8"?>
<!-- Generator: Adobe Illustrator 25.3.1, SVG Export Plug-In . SVG Version: 6.00 Build 0)  -->
<svg version="1.1" id="Capa_1" xmlns="http://www.w3.org/2000/svg" xmlns:xlink="http://www.w3.org/1999/xlink" x="0px" y="0px"
	 viewBox="0 0 512 512" style="enable-background:new 0 0 512 512;" xml:space="preserve">
<style type="text/css">
	.st0{fill:#37474F;stroke:#000000;stroke-width:9;stroke-miterlimit:10;}
	.st1{stroke:#000000;stroke-width:9;stroke-miterlimit:10;}
</style>
<g>
	<path class="st0" d="M456.9,352.4c-1.7-2.6-4.3-4.3-7.4-4.7c-39.7-5.2-67.6-41.5-62.4-81.2c3.7-28,23.3-51.4,50.3-59.8
		c5.5-1.8,8.5-7.6,6.7-13.1c-0.3-0.9-0.7-1.7-1.1-2.4c-18.2-32.9-50.6-55.4-87.7-61.2c-18.7,0.9-37.1,4.8-54.6,11.7
		c-12.5,5-25.7,8.1-39.2,9.1c-13.5-1-26.7-4.1-39.2-9.1c-17.4-6.8-35.9-10.8-54.6-11.7c-38.9,0-114.6,55.1-114.6,156.3
		c0,96.1,70.1,218.8,125,218.8c21,0.2,41.7-4.6,60.4-13.9c7.1-3.9,14.9-6.3,22.9-6.9c8,0.7,15.9,3,22.9,6.9
		c18.8,9.3,39.5,14.1,60.4,13.9c43.5,0,92.7-74.8,113.3-144C459,358.1,458.5,354.9,456.9,352.4z"/>
	<path class="st0" d="M251.1,130c63.3-0.1,114.5-51.3,114.6-114.6C365.7,9.7,361,5,355.2,5C292,5.1,240.7,56.3,240.7,119.6
		C240.7,125.3,245.3,130,251.1,130z"/>
</g>
<path class="st1" d="M344.8,505c-21,0.2-41.7-4.6-60.4-13.9c-7.1-3.9-14.9-6.3-22.9-6.9c-8,0.7-15.9,3-22.9,6.9
	c-18.8,9.3-39.5,14.1-60.4,13.9c-54.9,0-125-122.7-125-218.8c0-101.1,75.6-156.3,114.6-156.3c18.7,0.9,37.1,4.8,54.5,11.7
	c12.5,5,25.7,8.1,39.2,9.1c13.5-1,26.7-4.1,39.2-9.1c17.4-6.8,35.8-10.8,54.5-11.7c37.1,5.8,69.5,28.4,87.7,61.2
	c3.1,4.9,1.7,11.3-3.2,14.4c-0.8,0.5-1.6,0.9-2.4,1.1c-38.2,12-59.4,52.6-47.5,90.8c8.4,26.9,31.8,46.5,59.8,50.2
	c5.7,0.8,9.7,6,8.9,11.7c-0.1,0.5-0.2,1-0.3,1.6C437.5,430.3,388.4,505,344.8,505z M261.5,463.3c11,0.5,21.8,3.5,31.5,8.7
	c16.1,8.1,33.9,12.3,51.9,12.1c24.7,0,66.9-49.9,89.9-118.3c-49.7-13.3-79.2-64.4-65.9-114.1c7-26.1,25-47.9,49.2-59.7
	c-14.5-21.7-37.1-36.5-62.8-41.3c-16.4,0.9-32.6,4.5-47.9,10.6c-14.6,5.9-30.1,9.3-45.8,10.2c-15.7-0.9-31.2-4.4-45.8-10.2
	c-15.3-6.1-31.5-9.7-47.9-10.6c-28,0-93.8,46.1-93.8,135.4c0,93.1,68,197.9,104.2,197.9c18,0.1,35.8-4,51.9-12.1
	C239.7,466.8,250.5,463.9,261.5,463.3z"/>
<path class="st1" d="M251.1,130c-5.8,0-10.4-4.7-10.4-10.4C240.7,56.3,292,5.1,355.2,5c5.8,0,10.4,4.7,10.4,10.4
	C365.6,78.7,314.3,129.9,251.1,130z M344.2,26.5c-43,5.2-76.9,39-82.1,82C305.1,103.4,339,69.5,344.2,26.5z"/>
</svg>
