<svg id="reg" enable-background="new 0 0 24 24" height="512" viewBox="0 0 24 24" width="512" xmlns="http://www.w3.org/2000/svg"><g fill="#ffc107"><path d="m15.06 1.32c-.33-1.01-1.44-1.55-2.47-1.22-1.02.33-1.55 1.43-1.23 2.46l.84 2.51 3.7-1.23z"/><path d="m17.39 7.53c-1.03.34-2.31.77-3.7 1.23l1.62 4.82 3.7-1.23z"/><path d="m21.08 18.54-.84-2.51c-1.03.35-2.31.78-3.69 1.24l.84 2.51c.32.9 1.32 1.55 2.46 1.22 1.03-.33 1.56-1.43 1.23-2.46z"/></g><path d="m20.8 4.51c-.34-1.02-1.45-1.56-2.47-1.23l-2.13.71-.05-.15c-.101.034-12.504 4.165-12.4 4.13l.025.075-2.195.735c-1.03.34-1.56 1.44-1.23 2.46.26.78 1.02 1.29 1.8 1.32.09.01 1.31-.36 3.08-.93l-.025-.074c9.293-3.041 5.49-1.808 11.884-3.927l.051.15c1.47-.49 2.42-.81 2.42-.81 1.03-.329 1.56-1.439 1.24-2.459z" fill="#00bcd4"/><path d="m7.7 6.74-3.7 1.23-.84-2.51c-.32-1.02.21-2.13 1.23-2.46 1.03-.33 2.14.21 2.47 1.23z" fill="#4caf50"/><path d="m23.65 12.52c-.33-1.02-1.44-1.56-2.46-1.23l-2.43.81.1.3c-.101.034-12.063 4.015-11.96 3.98l-.05-.15-2.42.81c-1.02.34-1.56 1.44-1.23 2.46.26.78 1.02 1.29 1.8 1.32.085.009 1.176-.32 2.778-.833l.052.153c2.902-.941 8.769-2.873 12.41-4.11l-.1-.3c1.392-.461 2.29-.76 2.29-.76.81-.26 1.32-1.02 1.32-1.84 0-.2-.03-.41-.1-.61z" fill="#e91e63"/><path d="m10.3 15.25-3.7 1.23-1.62-4.85c1.07-.35 2.35-.77 3.7-1.21z" fill="#4caf50"/><path d="m11.14 23.66c-1.14.33-2.14-.32-2.46-1.22l-.85-2.55c1.08-.35 2.35-.77 3.7-1.21l.84 2.52c.33 1.03-.2 2.13-1.23 2.46z" fill="#4caf50"/><path d="m14.281 8.749c-.132-.393-.557-.604-.949-.473l-4.697 1.573c-.394.133-.605.558-.473.95l1.521 4.531c.133.396.561.602.949.473 4.12-1.447 5.518-1.488 5.17-2.522zm-3.414 5.394-1.044-3.109 3.274-1.096 1.044 3.109z"/><path d="m20.612 10.858-1.571.522-1.043-3.1 1.561-.52c3.186-1.035 1.671-5.954-1.624-4.881l-1.569.522-.55-1.646c-1.041-3.181-5.944-1.671-4.89 1.627l.551 1.65-3.27 1.092-.55-1.644c-1.033-3.171-5.944-1.68-4.889 1.627l.551 1.648-1.558.516c-2.661.864-2.195 4.849.695 5.002.506.067.9-.103 2.496-.642l1.043 3.099-1.562.52c-2.706.883-2.123 4.89.656 4.997.549.082 1.005-.119 2.534-.637l.555 1.659c1.099 3.14 5.933 1.64 4.885-1.642l-.551-1.65 3.279-1.097.554 1.66c1.099 3.137 5.934 1.641 4.885-1.642l-.55-1.649 1.557-.519c3.168-.996 1.675-5.949-1.625-4.872zm1.161 3.447-2.28.759c-.392.13-.606.556-.474.949l.784 2.352c.446 1.397-1.59 1.973-2.04.691l-.787-2.361c-.13-.386-.545-.605-.95-.474l-4.702 1.572c-.393.131-.604.556-.473.949l.785 2.352c.447 1.398-1.591 1.973-2.04.69l-.789-2.361c-.131-.395-.558-.604-.948-.474-1.478.498-2.427.838-2.63.807-1.263-.052-1.416-1.725-.328-2.081l2.281-.759c.394-.13.606-.559.475-.951l-1.522-4.522c-.131-.391-.554-.6-.947-.473-1.742.587-2.451.835-2.553.813-.026-.003-.053-.006-.078-.007-1.266-.052-1.416-1.727-.329-2.081l2.275-.753c.394-.13.608-.556.476-.95l-.786-2.351c-.445-1.393 1.61-2 2.04-.691l.789 2.361c.131.393.562.606.948.474l4.692-1.567c.394-.132.605-.557.474-.949l-.785-2.352c-.444-1.388 1.609-2.004 2.04-.69l.789 2.361c.131.392.553.606.948.474l2.274-.757c1.389-.454 2 1.605.688 2.032l-2.28.759c-.394.13-.606.559-.475.951l1.521 4.522c.132.391.556.605.947.472l2.275-.757c1.391-.453 2.004 1.608.695 2.021z"/></svg>