<?xml version="1.0" encoding="iso-8859-1"?>
<!-- Generator: Adobe Illustrator 19.0.0, SVG Export Plug-In . SVG Version: 6.00 Build 0)  -->
<svg version="1.1" id="Capa_1" xmlns="http://www.w3.org/2000/svg" xmlns:xlink="http://www.w3.org/1999/xlink" x="0px" y="0px"
	 viewBox="0 0 512.014 512.014" style="enable-background:new 0 0 512.014 512.014;" xml:space="preserve">
<g>
	<circle style="fill:#AB47BC;" cx="399.996" cy="464.014" r="32"/>
	<path d="M399.996,512.014c-26.51,0-48-21.49-48-48s21.49-48,48-48s48,21.49,48,48S426.506,512.014,399.996,512.014L399.996,512.014
		z M399.996,448.014c-8.837,0-16,7.163-16,16s7.163,16,16,16s16-7.163,16-16S408.833,448.014,399.996,448.014z"/>
</g>
<path style="fill:#AB47BC;" d="M431.996,78.222l-16,289.792l78.816-279.296l0,0c0.918-2.785,1.351-5.708,1.28-8.64
	c0.53-17.673-13.367-32.43-31.04-32.96c-17.673-0.53-32.43,13.367-32.96,31.04l0,0v1.856"/>
<path d="M415.996,384.014c-0.88,0.005-1.758-0.07-2.624-0.224c-8.036-1.341-13.781-8.505-13.344-16.64l15.968-289.824
	c0.071-1.192,0.275-2.373,0.608-3.52c4.145-26.184,28.732-44.049,54.915-39.904c22.837,3.616,39.852,22.999,40.477,46.112
	c0.055,4.021-0.463,8.029-1.536,11.904l-0.256,1.152l-78.816,279.296C429.441,379.255,423.155,384.012,415.996,384.014z
	 M447.996,78.158v0.928l-8,144.928L478.94,85.966c0.171-1.092,0.45-2.163,0.832-3.2c1.192-9.095-5.214-17.433-14.309-18.626
	c-0.487-0.064-0.977-0.106-1.467-0.126C455.88,64.073,449.05,70.11,447.996,78.158L447.996,78.158z"/>
<path style="fill:#AB47BC;" d="M335.996,16.014c-20.003,10.655-43.997,10.655-64,0l-96,208l-96-208
	c-20.003,10.655-43.997,10.655-64,0l128,271.296v208.704h64V287.31L335.996,16.014z"/>
<path d="M207.996,512.014h-64c-8.837,0-16-7.163-16-16V290.926L1.532,22.83c-3.752-8-0.308-17.528,7.693-21.28
	c4.554-2.136,9.848-2.006,14.291,0.352c15.301,8.158,33.659,8.158,48.96,0c3.871-2.096,8.442-2.478,12.608-1.056
	c4.235,1.359,7.713,4.42,9.6,8.448l81.312,176.544L257.468,9.294c3.714-8.018,13.225-11.507,21.243-7.793
	c0.272,0.126,0.54,0.26,0.805,0.401c15.301,8.158,33.659,8.158,48.96,0c7.806-4.141,17.491-1.17,21.632,6.636
	c2.357,4.444,2.488,9.737,0.352,14.292L223.996,290.926v205.088C223.996,504.851,216.833,512.014,207.996,512.014z M159.996,480.014
	h32V287.342c-0.013-2.359,0.513-4.69,1.536-6.816L307.004,39.982c-9.086,0.325-18.165-0.832-26.88-3.424l-89.6,194.176
	c-4.553,8.024-14.748,10.837-22.772,6.284c-2.624-1.489-4.795-3.66-6.284-6.284l-89.6-194.176c-8.709,2.62-17.792,3.777-26.88,3.424
	L158.46,280.526c1.023,2.126,1.549,4.457,1.536,6.816V480.014z"/>
<g>
</g>
<g>
</g>
<g>
</g>
<g>
</g>
<g>
</g>
<g>
</g>
<g>
</g>
<g>
</g>
<g>
</g>
<g>
</g>
<g>
</g>
<g>
</g>
<g>
</g>
<g>
</g>
<g>
</g>
</svg>
