<svg id="reg" enable-background="new 0 0 24 24" height="512" viewBox="0 0 24 24" width="512" xmlns="http://www.w3.org/2000/svg"><path d="m.5 4.5h6.75c1.795 0 3.25 1.455 3.25 3.25 0 1.795-1.455 3.25-3.25 3.25h-6.75 7.25c2.071 0 3.75 1.679 3.75 3.75 0 2.071-1.679 3.75-3.75 3.75h-7.25z" fill="#b3b3b3"/><path d="m23.5 13h-9.97c.25-2.53 2.39-4.5 4.99-4.5 2.59 0 4.73 1.97 4.98 4.5z" fill="#b3b3b3"/><path d="m.75 19h7.092c4.552 0 6.131-6.037 2.107-8.203 2.701-2.354 1.029-6.797-2.595-6.797h-6.604c-.414 0-.75.336-.75.75v13.5c0 .414.336.75.75.75zm.75-13.5h5.854c3.211 0 3.215 4.768 0 4.768h-5.854zm0 6.268h6.342c3.861 0 3.861 5.732 0 5.732h-6.342z"/><path d="m18.374 7.857c-3.259 0-5.755 2.888-5.635 5.159-.247 3.28 2.397 5.984 5.635 5.984 2.012 0 3.888-1.065 4.895-2.781.503-.857-.791-1.613-1.293-.76-.739 1.259-2.12 2.041-3.602 2.041-2.187 0-3.965-1.668-4.125-3.771 1.443.017 4.136-.188 8.987-.033.016 0 .027-.008.042-.008 2-.09-.189-5.831-4.904-5.831zm-3.928 4.298c1.286-3.789 6.718-3.676 7.89.064-4.064.097-6.496-.066-7.89-.064z"/><path d="m21.308 6.464c.993 0 .992-1.5 0-1.5h-5.87c-.993 0-.992 1.5 0 1.5z"/></svg>