<svg id="reg" enable-background="new 0 0 24 24" height="512" viewBox="0 0 24 24" width="512" xmlns="http://www.w3.org/2000/svg"><path d="m22.838 14.441c1.665-7.484-4.892-14.284-12.592-12.979-4.18-2.594-9.746.338-9.746 5.311 0 1.157.319 2.24.874 3.173-1.547 7.502 5.063 14.203 12.757 12.809 5.404 2.858 11.46-2.834 8.707-8.314z" fill="#03a9f4"/><path d="m15.518 18.955c-.962.396-2.113.596-3.427.596-2.244 0-4.437-.542-5.734-2.395-1.968-2.783.657-4.07 1.868-3.061.876.739.699 2.028 2.192 2.73.865.399 2.723.44 3.802-.287 1.067-.714.968-1.837.389-2.374-1.537-1.418-5.933-.855-7.941-3.338-.874-1.077-1.039-2.977.034-4.356 1.782-2.294 7.228-2.655 9.72-.736 2.179 1.687 1.591 3.926-.168 3.926-2.115 0-1.003-2.768-4.418-2.768-2.683 0-3.794 2.151-.823 2.955 2.568.703 5.825.968 7.057 3.125.96 1.691.591 4.701-2.551 5.983z" fill="#fff"/><path d="m12.009 16.245c-3.268 0-1.645-3.269-4.646-3.269-4.034 0-2.913 7.174 4.622 7.174 8.239 0 9.052-7.585 3.98-9.696 1.891.131 3.176-1.742 2.062-3.783-1.36-2.513-5.449-3.243-8.455-2.482-2.651.672-4.234 2.37-4.234 4.542 0 5.875 9.193 4.443 8.889 6.446-.08.518-.883 1.068-2.218 1.068zm-5.171-7.514c0-3.953 8.219-4.392 9.872-1.344.258.474.303.92.123 1.224-.132.222-.377.35-.672.35-1.278 0-.703-2.708-4.322-2.708-2.996 0-3.889 2.113-2.89 3.306 1.758 2.15 8.674.914 8.674 5.256-.009 3.844-6.07 4.657-9.026 3.113-1.712-.914-2.951-3.452-1.234-3.452 1.339 0 .68 3.269 4.646 3.269 2.298 0 3.529-1.214 3.7-2.343.654-4.293-8.871-1.885-8.871-6.671zm7.966 1.317c-1.886-.558-4.173-.804-4.698-1.445-.236-.285.481-.85 1.733-.85 2.275 0 1.756 1.388 2.965 2.295z"/><path d="m13.966 23.302c.994.483 2.043.719 3.08.719 1.775 0 3.515-.694 4.882-2.032 2.106-2.063 2.666-5.058 1.461-7.696.707-3.568-.368-7.261-2.901-9.927-2.582-2.718-6.318-3.997-10.052-3.458-5.946-3.398-12.942 3.099-9.621 9.213-1.378 7.664 5.307 14.432 13.151 13.181zm-4.077-20.973c.58.361 5.383-1.272 9.512 3.07 4.063 4.276 2.228 8.722 2.533 9.325 2.364 4.709-2.85 9.596-7.499 7.134-.605-.319-5.346 1.335-9.507-2.927-4.133-4.234-2.321-8.723-2.679-9.324-2.861-4.813 2.798-10.281 7.64-7.278z"/></svg>