<?xml version="1.0" encoding="utf-8"?>
<!-- Generator: Adobe Illustrator 25.3.1, SVG Export Plug-In . SVG Version: 6.00 Build 0)  -->
<svg version="1.1" id="Capa_1" xmlns="http://www.w3.org/2000/svg" xmlns:xlink="http://www.w3.org/1999/xlink" x="0px" y="0px"
	 viewBox="0 0 512 512" style="enable-background:new 0 0 512 512;" xml:space="preserve">
<style type="text/css">
	.st0{fill:#CFD8DC;stroke:#000000;stroke-width:8;stroke-miterlimit:10;}
	.st1{fill:#4CAF50;stroke:#000000;stroke-width:8;stroke-miterlimit:10;}
	.st2{fill:#2196F3;stroke:#000000;stroke-width:8;stroke-miterlimit:10;}
	.st3{fill:#FAFAFA;stroke:#000000;stroke-width:8;stroke-miterlimit:10;}
	.st4{fill:#FFC107;stroke:#000000;stroke-width:8;stroke-miterlimit:10;}
	.st5{fill:#F44336;stroke:#000000;stroke-width:8;stroke-miterlimit:10;}
	.st6{fill:#C62828;stroke:#000000;stroke-width:8;stroke-miterlimit:10;}
	.st7{stroke:#000000;stroke-width:8;stroke-miterlimit:10;}
</style>
<path class="st0" d="M477.6,193.5V454c0.1,10.3-3,20.3-8.8,28.8c-1.9,2.9-4,5.7-6.5,8.1L255.6,284.1l-7.3-7.3l142.3-142.3l9,5.6
	l72.9,44.4C475.7,186.4,477.6,189.8,477.6,193.5z"/>
<path class="st1" d="M390.7,134.5L241,284.1L34.3,490.9c-2.4-2.5-4.6-5.2-6.5-8.1c-5.8-8.5-8.8-18.5-8.8-28.8V120.5
	c0-28.8,23.3-52.1,52.1-52.1h208.4c1.9,0.1,3.7,0.6,5.4,1.5l96.7,59L390.7,134.5z"/>
<path class="st2" d="M462.4,490.9c-2.5,2.4-5.2,4.6-8.1,6.5c-8.5,5.8-18.5,8.8-28.8,8.8H71.2c-10.3,0.1-20.3-3-28.8-8.8
	c-2.9-1.9-5.7-4-8.1-6.5L241,284.1l7.3-7.3l7.3,7.3L462.4,490.9z"/>
<path class="st3" d="M468.8,482.7c-3.7,5.9-8.7,10.9-14.6,14.6L241,284.1c-4-4.1-3.9-10.6,0.1-14.6c4-3.9,10.4-3.9,14.4,0
	L468.8,482.7z"/>
<path class="st4" d="M399.6,140.1l-144,144L42.4,497.3c-5.9-3.7-10.9-8.7-14.6-14.6l353.9-353.9L399.6,140.1z"/>
<g>
	<path class="st3" d="M112.9,193.5c-23,0-41.7-18.7-41.7-41.7s18.7-41.7,41.7-41.7s41.7,18.7,41.7,41.7S135.9,193.5,112.9,193.5z
		 M112.9,131c-11.5,0-20.8,9.3-20.8,20.8c0,11.5,9.3,20.8,20.8,20.8s20.8-9.3,20.8-20.8C133.7,140.3,124.4,131,112.9,131z"/>
	<path class="st3" d="M154.6,131h-41.7c-5.8,0-10.4-4.7-10.4-10.4c0-5.8,4.7-10.4,10.4-10.4h41.7c5.8,0,10.4,4.7,10.4,10.4
		C165,126.3,160.3,131,154.6,131z"/>
	<path class="st3" d="M112.9,276.8c-25.7,3-49-15.4-52-41.1c0-0.2,0-0.4-0.1-0.5c0-19.5,18.5-32.6,55.1-39.2c-2-4-3-8.4-3-12.9
		c0-5.8,4.7-10.4,10.4-10.4c5.8,0,10.4,4.7,10.4,10.4c0,4.7,4.3,9.2,11.4,16.1c11.5,8.6,18.7,21.7,19.9,36
		C165,271.8,140,276.8,112.9,276.8z M131.2,214.7c-36.5,4.6-49.6,13.8-49.6,20.5c0,4.2,5.6,20.8,31.3,20.8
		c29.9,0,31.3-7.1,31.3-20.8C144.1,227.9,139.3,222.5,131.2,214.7z"/>
</g>
<path class="st5" d="M383.8,5.9C320.5,6,269.3,57.3,269.2,120.5c0,6.3,0.7,12.6,1.9,18.8c2.5,16.2,8.5,31.6,17.7,45.1
	c4.8,8.3,10.4,17,16.3,26.3c33.9,48.6,57.2,103.8,68.6,162c1.1,5.6,6.6,9.3,12.3,8.1c4.1-0.8,7.3-4,8.1-8.1
	c11.3-58.2,34.7-113.4,68.6-162c5.9-9.2,11.5-17.8,15.9-25.6c9.3-13.7,15.4-29.3,18-45.6c1.2-6.2,1.9-12.6,1.9-18.9
	C498.3,57.3,447.1,6,383.8,5.9z"/>
<circle class="st6" cx="383.8" cy="120.5" r="52.1"/>
<path class="st7" d="M383.8,381c-5,0-9.2-3.5-10.2-8.3c-11.3-58.2-34.7-113.4-68.6-162.1c-5.9-9.2-11.5-17.8-16.3-26.2
	c-9.1-13.6-15.1-29-17.7-45.1c-1.2-6.2-1.8-12.5-1.9-18.8c0-63.3,51.3-114.6,114.6-114.6s114.6,51.3,114.6,114.6
	c0,6.4-0.7,12.7-1.9,18.9c-2.6,16.4-8.8,32-18,45.7c-4.4,7.7-9.9,16.3-15.9,25.6c-33.9,48.6-57.2,103.8-68.6,162
	C393,377.6,388.8,381,383.8,381z M383.8,26.8c-51.8,0-93.8,42-93.8,93.8c0,5.1,0.6,10.2,1.5,15.2c2.1,13.5,7.1,26.3,14.8,37.6
	c5.1,8.8,10.4,17.1,16.2,26c27,39.1,47.7,82.1,61.3,127.6c13.6-45.5,34.3-88.6,61.3-127.6c5.7-8.9,11.1-17.2,15.8-25.3
	c7.8-11.4,13-24.5,15.2-38.1c1-5,1.5-10.2,1.6-15.3C477.6,68.7,435.6,26.8,383.8,26.8z M383.8,172.6c-28.8,0-52.1-23.3-52.1-52.1
	s23.3-52.1,52.1-52.1c28.8,0,52.1,23.3,52.1,52.1S412.6,172.6,383.8,172.6z M383.8,89.3c-17.3,0-31.3,14-31.3,31.3
	s14,31.3,31.3,31.3s31.3-14,31.3-31.3S401.1,89.3,383.8,89.3z"/>
<path class="st7" d="M425.5,506.1H71.2c-28.8,0-52.1-23.3-52.1-52.1V120.5c0-28.8,23.3-52.1,52.1-52.1h208.4
	c5.8,0,10.4,4.7,10.4,10.4c0,5.8-4.7,10.4-10.4,10.4H71.2c-17.3,0-31.3,14-31.3,31.3V454c0,17.3,14,31.3,31.3,31.3h354.3
	c17.3,0,31.3-14,31.3-31.3V193.5c0-5.8,4.7-10.4,10.4-10.4c5.8,0,10.4,4.7,10.4,10.4V454C477.6,482.8,454.3,506.1,425.5,506.1z"/>
<path class="st7" d="M50.3,485.2c-5.8,0-10.4-4.6-10.4-10.4c0-2.8,1.1-5.4,3.1-7.4l260.5-260.5c4.1-4,10.7-3.9,14.7,0.3
	c3.9,4,3.9,10.4,0,14.5L57.7,482.2C55.8,484.1,53.1,485.2,50.3,485.2z"/>
<path class="st7" d="M446.3,485.2c-2.8,0-5.4-1.1-7.4-3l-198-198c-4-4.1-3.9-10.7,0.3-14.7c4-3.9,10.4-3.9,14.5,0l198,198
	c4.1,4.1,4.1,10.7,0,14.7C451.7,484.1,449.1,485.2,446.3,485.2z"/>
<path class="st7" d="M112.9,193.5c-23,0-41.7-18.7-41.7-41.7s18.7-41.7,41.7-41.7s41.7,18.7,41.7,41.7S135.9,193.5,112.9,193.5z
	 M112.9,131c-11.5,0-20.8,9.3-20.8,20.8c0,11.5,9.3,20.8,20.8,20.8s20.8-9.3,20.8-20.8C133.7,140.3,124.4,131,112.9,131z"/>
<path class="st7" d="M154.6,131h-41.7c-5.8,0-10.4-4.7-10.4-10.4c0-5.8,4.7-10.4,10.4-10.4h41.7c5.8,0,10.4,4.7,10.4,10.4
	C165,126.3,160.3,131,154.6,131z"/>
<path class="st7" d="M112.9,276.8c-25.7,3-49-15.4-52-41.1c0-0.2,0-0.4-0.1-0.6c0-19.5,18.5-32.6,55.1-39.2c-2-4-3-8.4-3-12.9
	c0-5.8,4.7-10.4,10.4-10.4c5.8,0,10.4,4.7,10.4,10.4c0,4.7,4.3,9.2,11.4,16.1c11.5,8.6,18.7,21.7,19.9,36
	C165,271.8,140,276.8,112.9,276.8z M131.2,214.7c-36.5,4.6-49.6,13.8-49.6,20.5c0,4.2,5.6,20.8,31.3,20.8c29.9,0,31.3-7.1,31.3-20.8
	C144.1,227.9,139.3,222.5,131.2,214.7z"/>
</svg>
