<?xml version="1.0" encoding="iso-8859-1"?>
<!-- Generator: Adobe Illustrator 19.0.0, SVG Export Plug-In . SVG Version: 6.00 Build 0)  -->
<svg version="1.1" id="Capa_1" xmlns="http://www.w3.org/2000/svg" xmlns:xlink="http://www.w3.org/1999/xlink" x="0px" y="0px"
	 viewBox="0 0 512.189 512.189" style="enable-background:new 0 0 512.189 512.189;" xml:space="preserve">
<path style="fill:#ECEFF1;" d="M363.931,318.888l86.08,86.08c18.433-12.08,43.168-6.93,55.248,11.503
	c10.318,15.744,8.23,36.556-5.008,49.937c-5.984,6.215-13.863,10.267-22.4,11.52c-1.253,8.537-5.305,16.416-11.52,22.4
	c-15.667,15.5-40.932,15.364-56.432-0.303c-13.238-13.381-15.326-34.194-5.008-49.937l-86.08-86.08L363.931,318.888z"/>
<path style="fill:#8D6E63;" d="M358.875,245.736l-4.096-4.096c15.064-55.117-0.736-114.075-41.344-154.272l-67.872-67.872
	c-6.248-6.246-16.376-6.246-22.624,0l-203.52,203.52c-6.246,6.248-6.246,16.376,0,22.624l67.872,67.872
	c40.458,40.18,99.171,55.923,154.304,41.376l4.064,4.064c20.145,19.984,49.368,27.801,76.8,20.544
	c27.901-6.942,49.732-28.651,56.832-56.512C386.698,295.436,378.925,266.027,358.875,245.736z"/>
<path style="fill:#EF5350;" d="M245.595,19.304C207.547-18.648,128.027,1.224,64.571,64.68s-83.296,142.912-45.344,180.992
	c13.853,13.111,32.433,20.039,51.488,19.2c49.815-4.285,96.146-27.319,129.632-64.448C263.771,137,283.643,57.48,245.595,19.304z"/>
<path d="M422.171,512.104c-31.016-0.147-56.04-25.41-55.893-56.426c0.03-6.265,1.108-12.481,3.189-18.39l-61.952-61.952
	c-6.139-6.356-5.963-16.485,0.394-22.624c6.2-5.988,16.03-5.988,22.23,0l70.08,70.08c5.414,5.415,6.232,13.907,1.952,20.256
	c-6.3,9.404-4.951,21.971,3.2,29.824c9.258,9.308,24.281,9.436,33.696,0.288c3.856-3.616,6.372-8.433,7.136-13.664
	c1.063-6.899,6.477-12.313,13.376-13.376c5.041-0.702,9.704-3.067,13.248-6.72c4.708-4.462,7.37-10.666,7.36-17.152
	c0.041-6.278-2.464-12.305-6.944-16.704c-7.931-8.233-20.628-9.582-30.112-3.2c-6.349,4.28-14.841,3.462-20.256-1.952l-70.08-70.08
	c-6.139-6.356-5.963-16.485,0.394-22.624c6.2-5.988,16.03-5.988,22.23,0l61.952,61.952c20.435-7.395,43.306-2.165,58.496,13.376
	c21.73,21.684,21.767,56.878,0.083,78.608c-0.112,0.113-0.225,0.225-0.339,0.336c-5.734,5.912-12.753,10.424-20.512,13.184
	C466.86,497.272,445.784,511.99,422.171,512.104z"/>
<path d="M70.875,265.032c-19.05,0.81-37.619-6.115-51.488-19.2c-38.048-38.176-18.176-117.728,45.28-181.088
	s142.88-83.36,180.992-45.28l0,0c38.08,38.08,18.208,117.6-45.248,181.024C166.956,237.62,120.666,260.685,70.875,265.032z
	 M194.203,32.36c-41.237,4.406-79.353,24.018-106.912,55.008c-53.344,53.344-66.656,114.336-45.28,135.744
	s82.464,8.064,135.776-45.248s66.656-114.368,45.248-135.776C215.088,35.161,204.722,31.663,194.203,32.36z"/>
<path d="M121.211,159.912c-8.837-0.02-15.984-7.199-15.965-16.035c0.009-4.223,1.687-8.27,4.669-11.261l22.624-22.624
	c6.139-6.356,16.268-6.532,22.624-0.393c6.356,6.139,6.532,16.268,0.393,22.624c-0.129,0.133-0.26,0.265-0.393,0.393l-22.624,22.624
	C129.533,158.238,125.458,159.919,121.211,159.912z"/>
<path d="M302.075,382.184c-21.14,0.004-41.423-8.36-56.416-23.264l-4.032-4.032c-55.148,14.565-113.885-1.194-154.336-41.408
	l-67.872-67.84c-6.356-6.139-6.532-16.268-0.393-22.624c6.139-6.356,16.268-6.532,22.624-0.393c0.133,0.129,0.264,0.26,0.393,0.393
	l67.872,67.84c34.339,34.131,84.961,46.034,130.912,30.784c5.798-2.016,12.239-0.536,16.576,3.808l10.88,10.848
	c12.168,12.033,29.822,16.678,46.336,12.192c16.551-4.058,29.512-16.92,33.696-33.44c4.599-16.606-0.012-34.404-12.096-46.688
	l-10.848-10.88c-4.317-4.298-5.818-10.675-3.872-16.448c15.768-45.955,3.83-96.881-30.72-131.04l-67.84-67.872
	c-6.356-6.139-6.532-16.268-0.393-22.624c6.139-6.356,16.268-6.532,22.624-0.393c0.133,0.129,0.265,0.26,0.393,0.393l67.84,67.872
	c40.613,40.194,56.425,99.149,41.376,154.272l4.064,4.096c20.109,20.244,27.912,49.667,20.48,77.216
	c-7.084,27.865-28.903,49.586-56.8,56.544C315.856,381.293,308.98,382.196,302.075,382.184z"/>
<g>
</g>
<g>
</g>
<g>
</g>
<g>
</g>
<g>
</g>
<g>
</g>
<g>
</g>
<g>
</g>
<g>
</g>
<g>
</g>
<g>
</g>
<g>
</g>
<g>
</g>
<g>
</g>
<g>
</g>
</svg>
