<?xml version="1.0" encoding="iso-8859-1"?>
<!-- Generator: Adobe Illustrator 19.0.0, SVG Export Plug-In . SVG Version: 6.00 Build 0)  -->
<svg version="1.1" id="Capa_1" xmlns="http://www.w3.org/2000/svg" xmlns:xlink="http://www.w3.org/1999/xlink" x="0px" y="0px"
	 viewBox="0 0 512.027 512.027" style="enable-background:new 0 0 512.027 512.027;" xml:space="preserve">
<path style="fill:#2196F3;" d="M1.806,8.686c2.741-5.321,8.223-8.666,14.208-8.672h160c5.167-0.004,10.017,2.487,13.024,6.688
	l149.28,208.832c6.109,6.384,5.887,16.513-0.498,22.622c-2.768,2.649-6.396,4.217-10.222,4.418l-154.24,8.288h-0.864
	c-5.178,0.015-10.043-2.477-13.056-6.688L2.99,25.326C-0.494,20.44-0.951,14.015,1.806,8.686z"/>
<path style="fill:#1E88E5;" d="M510.222,8.686c-2.741-5.321-8.223-8.666-14.208-8.672h-160c-5.167-0.004-10.017,2.487-13.024,6.688
	L173.71,215.534c-6.109,6.384-5.887,16.513,0.498,22.622c2.768,2.649,6.396,4.217,10.222,4.418l154.24,8.288h0.864
	c5.171-0.012,10.025-2.498,13.056-6.688L509.038,25.326C512.522,20.44,512.979,14.015,510.222,8.686z"/>
<circle style="fill:#FFC107;" cx="256.014" cy="352.014" r="160"/>
<path d="M256.014,512.014c-88.366,0-160-71.634-160-160s71.634-160,160-160s160,71.634,160,160
	C415.908,440.335,344.336,511.908,256.014,512.014z M256.014,224.014c-70.692,0-128,57.308-128,128s57.308,128,128,128
	s128-57.308,128-128S326.707,224.014,256.014,224.014z"/>
<path d="M172.526,250.894c-5.178,0.015-10.043-2.477-13.056-6.688L2.99,25.326C-2.153,18.14-0.497,8.145,6.689,3.003
	c2.72-1.946,5.981-2.992,9.325-2.989h160c5.167-0.004,10.017,2.487,13.024,6.688l80,112c5.143,7.193,3.481,17.193-3.712,22.336
	c-7.193,5.143-17.193,3.481-22.336-3.712l-75.2-105.312H47.118l138.496,193.568c5.168,7.168,3.546,17.168-3.622,22.336
	c-0.03,0.022-0.06,0.043-0.09,0.064C179.167,249.927,175.882,250.947,172.526,250.894z"/>
<path d="M339.502,250.894c-3.334,0.005-6.583-1.048-9.28-3.008c-7.204-5.118-8.894-15.106-3.776-22.31
	c0.021-0.03,0.043-0.06,0.064-0.09l138.4-193.472H344.238L198.606,235.566c-6.315,6.599-16.689,7.105-23.616,1.152
	c-6.173-5.181-6.977-14.385-1.796-20.558c0.256-0.305,0.524-0.599,0.804-0.882L322.99,6.702c3.007-4.201,7.857-6.692,13.024-6.688
	h160c8.837-0.007,16.006,7.15,16.013,15.987c0.003,3.344-1.043,6.605-2.989,9.325l-156.48,218.88
	C349.545,248.416,344.68,250.908,339.502,250.894z"/>
<path d="M272.014,432.014c-8.837,0-16-7.163-16-16v-112h-16c-8.837,0-16-7.163-16-16s7.163-16,16-16h32c8.837,0,16,7.163,16,16v128
	C288.014,424.85,280.851,432.014,272.014,432.014z"/>
<g>
</g>
<g>
</g>
<g>
</g>
<g>
</g>
<g>
</g>
<g>
</g>
<g>
</g>
<g>
</g>
<g>
</g>
<g>
</g>
<g>
</g>
<g>
</g>
<g>
</g>
<g>
</g>
<g>
</g>
</svg>
