<?xml version="1.0" encoding="iso-8859-1"?>
<!-- Generator: Adobe Illustrator 19.0.0, SVG Export Plug-In . SVG Version: 6.00 Build 0)  -->
<svg version="1.1" id="Capa_1" xmlns="http://www.w3.org/2000/svg" xmlns:xlink="http://www.w3.org/1999/xlink" x="0px" y="0px"
	 viewBox="0 0 512 512" style="enable-background:new 0 0 512 512;" xml:space="preserve">
<g>
	<path style="fill:#455A64;" d="M296.005,480h-48V301.76c0-8.832-7.168-16-16-16s-16,7.168-16,16V480h-48c-8.832,0-16,7.168-16,16
		s7.168,16,16,16h128c8.832,0,16-7.168,16-16S304.837,480,296.005,480z"/>
	<path style="fill:#455A64;" d="M329.253,226.048l-84.448-98.24c-2.944-3.744-7.52-5.824-12.288-5.568
		c-4.704,0.032-9.152,2.144-12.192,5.76L43.685,341.792c-5.248,6.368-4.832,15.648,0.992,21.504l48,48
		c3.008,2.976,7.104,4.672,11.328,4.704c3.456,0.032,6.848-1.12,9.6-3.2l213.152-163.488c3.488-2.688,5.696-6.688,6.144-11.072
		C333.445,233.856,332.133,229.408,329.253,226.048z"/>
</g>
<circle style="fill:#ECEFF1;" cx="344.005" cy="128" r="128"/>
<path style="fill:#90A4AE;" d="M265.925,27.296c-8.448,6.56-16.064,14.176-22.624,22.624l178.784,178.784
	c8.448-6.56,16.064-14.176,22.624-22.624L265.925,27.296z"/>
<path d="M344.005,256c-70.688,0-128-57.312-128-128s57.312-128,128-128s128,57.312,128,128S414.693,256,344.005,256z M344.005,32
	c-53.024,0-96,42.976-96,96s42.976,96,96,96s96-42.976,96-96S397.029,32,344.005,32z"/>
<path d="M423.045,223.04c-4.256,0-8.32-1.664-11.328-4.672L253.669,60.256c-6.144-6.368-5.952-16.48,0.416-22.624
	c6.208-5.984,16.032-5.984,22.24,0l158.048,158.112c6.24,6.272,6.208,16.384-0.032,22.624
	C431.333,221.344,427.269,223.04,423.045,223.04z"/>
<path d="M104.005,416c-4.256,0-8.32-1.664-11.328-4.672l-48-48c-5.824-5.824-6.272-15.136-1.024-21.504L220.293,128
	c5.632-6.816,15.712-7.776,22.528-2.144s7.776,15.712,2.144,22.528l-167.36,202.56l27.808,27.776l201.952-154.912
	c7.008-5.376,17.056-4.064,22.432,2.912c5.376,7.008,4.064,17.056-2.944,22.432L113.765,412.8
	C110.949,414.912,107.525,416.032,104.005,416z"/>
<path d="M232.005,512c-8.832,0-16-7.168-16-16V301.76c0-8.832,7.168-16,16-16s16,7.168,16,16V496
	C248.005,504.832,240.837,512,232.005,512z"/>
<path d="M296.005,512h-128c-8.832,0-16-7.168-16-16s7.168-16,16-16h128c8.832,0,16,7.168,16,16S304.837,512,296.005,512z"/>
<g>
</g>
<g>
</g>
<g>
</g>
<g>
</g>
<g>
</g>
<g>
</g>
<g>
</g>
<g>
</g>
<g>
</g>
<g>
</g>
<g>
</g>
<g>
</g>
<g>
</g>
<g>
</g>
<g>
</g>
</svg>
