<svg enable-background="new 0 0 24 24" height="512" viewBox="0 0 24 24" width="512" xmlns="http://www.w3.org/2000/svg"><g id="color"><g><g><path d="m17.528 18.038-.403-.886c-.044-.097-.044-.207 0-.304l.402-.886c.181-.398.189-.857.021-1.261-.167-.403-.498-.723-.906-.876l-.911-.342c-.099-.038-.178-.116-.215-.216l-.342-.91c-.153-.409-.473-.74-.876-.907-.404-.168-.864-.16-1.26.021l-.886.402c-.097.044-.207.044-.304 0l-.886-.402c-.399-.182-.859-.189-1.261-.021-.403.167-.723.498-.876.906l-.342.911c-.038.099-.116.178-.216.215l-.91.342c-.409.153-.74.473-.907.876s-.159.863.021 1.26l.403.886c.044.097.044.207 0 .304l-.402.886c-.181.398-.189.857-.021 1.261.167.403.498.723.906.876l.911.342c.099.038.178.116.215.216l.342.91c.153.409.473.74.876.907.193.08.399.12.606.12.224 0 .448-.047.655-.141l.886-.403c.097-.044.207-.044.304 0l.886.402c.397.181.857.188 1.261.021.403-.167.723-.498.876-.906l.342-.911c.038-.099.116-.178.216-.215l.91-.342c.409-.153.74-.473.907-.876.166-.402.158-.861-.022-1.259z" fill="#ffc107"/></g></g><g><g><circle cx="12" cy="17" fill="#ff8f00" r="2.835"/></g></g><g><g><g><path d="m21.9 2.075v2.853c0 1.116-.747 2.097-1.818 2.385l-3.582.981-1.8.486-2.52.693c-.063.018-.117.027-.18.027s-.117-.009-.18-.027l-2.52-.693-1.8-.486-3.582-.981c-1.071-.288-1.818-1.269-1.818-2.385v-2.853c0-.864.711-1.575 1.575-1.575h16.65c.864 0 1.575.711 1.575 1.575z" fill="#2196f3"/></g></g></g></g><g id="_x31_.5"><g><g><path d="m9.91 23.999c-.254 0-.509-.049-.748-.148-.498-.206-.893-.614-1.082-1.119l-.422-1.124c-.046-.123-.143-.22-.266-.266l-1.125-.422c-.504-.189-.913-.583-1.119-1.082-.207-.498-.197-1.065.026-1.557l.496-1.093c.055-.12.055-.256 0-.375l-.497-1.094c-.223-.491-.232-1.058-.026-1.556s.614-.893 1.119-1.082l1.124-.422c.123-.046.22-.143.266-.266l.422-1.125c.189-.504.583-.913 1.082-1.119.496-.207 1.064-.198 1.557.026l1.093.496c.12.055.256.054.375 0l1.094-.497c.49-.223 1.058-.233 1.556-.026.498.206.893.614 1.082 1.119l.422 1.124c.046.123.143.22.266.266l1.125.422c.504.189.913.583 1.119 1.082.207.498.197 1.065-.026 1.557l-.496 1.093c-.055.12-.055.256 0 .375l.497 1.094c.223.491.232 1.058.026 1.556s-.614.893-1.119 1.082l-1.124.422c-.123.046-.22.143-.266.266l-.422 1.125c-.189.504-.583.913-1.082 1.119-.498.207-1.065.198-1.557-.026l-1.093-.496c-.12-.055-.256-.054-.375 0l-1.094.497c-.255.116-.532.174-.808.174zm.001-12.499c-.075 0-.136.019-.175.035-.068.028-.191.099-.251.26l-.422 1.125c-.198.528-.615.945-1.144 1.143l-1.124.422c-.161.061-.232.183-.26.251s-.065.205.006.361l.497 1.094c.233.513.233 1.103 0 1.617l-.496 1.093c-.071.157-.035.294-.006.362.028.068.099.191.26.251l1.125.422c.528.198.945.615 1.143 1.144l.422 1.124c.061.161.183.232.251.26.068.029.206.065.361-.006l1.094-.497c.513-.233 1.103-.234 1.617 0l1.093.496c.157.072.295.035.362.006.068-.028.191-.099.251-.26l.422-1.125c.198-.528.615-.945 1.144-1.143l1.124-.422c.161-.061.232-.183.26-.251s.065-.205-.006-.361l-.497-1.094c-.233-.513-.233-1.103 0-1.617l.496-1.093c.071-.157.035-.294.006-.362-.028-.068-.099-.191-.26-.251l-1.125-.422c-.528-.198-.945-.615-1.143-1.144l-.422-1.124c-.061-.161-.183-.232-.251-.26-.066-.028-.205-.064-.361.006l-1.094.497c-.514.233-1.103.234-1.617 0l-1.093-.496c-.067-.03-.131-.041-.187-.041z"/></g></g><g><g><path d="m12 20.5c-1.93 0-3.5-1.57-3.5-3.5s1.57-3.5 3.5-3.5 3.5 1.57 3.5 3.5-1.57 3.5-3.5 3.5zm0-5.5c-1.103 0-2 .897-2 2s.897 2 2 2 2-.897 2-2-.897-2-2-2z"/></g></g><g><g><path d="m12 10c-.066 0-.133-.009-.198-.026l-8.777-2.4c-1.192-.327-2.025-1.418-2.025-2.654v-3.17c0-.965.785-1.75 1.75-1.75h18.5c.965 0 1.75.785 1.75 1.75v3.17c0 1.236-.833 2.327-2.025 2.653l-8.777 2.4c-.065.018-.132.027-.198.027zm-9.25-8.5c-.138 0-.25.112-.25.25v3.17c0 .562.378 1.058.92 1.206l8.58 2.347 8.58-2.347c.542-.148.92-.644.92-1.206v-3.17c0-.138-.112-.25-.25-.25z"/></g></g><g><g><path d="m7.75 8.84c-.414 0-.75-.336-.75-.75v-7.34c0-.414.336-.75.75-.75s.75.336.75.75v7.34c0 .414-.336.75-.75.75z"/></g></g><g><g><path d="m16.25 8.84c-.414 0-.75-.336-.75-.75v-7.34c0-.414.336-.75.75-.75s.75.336.75.75v7.34c0 .414-.336.75-.75.75z"/></g></g></g></svg>