<?xml version="1.0" encoding="iso-8859-1"?>
<!-- Generator: Adobe Illustrator 19.0.0, SVG Export Plug-In . SVG Version: 6.00 Build 0)  -->
<svg version="1.1" id="Capa_1" xmlns="http://www.w3.org/2000/svg" xmlns:xlink="http://www.w3.org/1999/xlink" x="0px" y="0px"
	 viewBox="0 0 511.996 511.996" style="enable-background:new 0 0 511.996 511.996;" xml:space="preserve">
<path style="fill:#1976D2;" d="M16,239.998h64c8.837,0,16,7.163,16,16v224c0,8.837-7.163,16-16,16H16c-8.837,0-16-7.163-16-16v-224
	C0,247.162,7.163,239.998,16,239.998z"/>
<path style="fill:#FFD54F;" d="M501.888,274.526c-16.265-20.823-46.302-24.585-67.2-8.416l-118.144,91.776
	c-8.426,6.554-18.797,10.112-29.472,10.112H192c44.183,0,80-35.817,80-80c0-8.837-7.163-16-16-16H96v192h212.992
	c17.793-0.002,35.078-5.937,49.12-16.864l135.36-105.28C514.377,325.58,518.144,295.446,501.888,274.526z"/>
<g>
	<path style="fill:#4CAF50;" d="M320,239.998c-15.628,0.158-30.835-5.061-43.072-14.784c-6.654-5.815-7.334-15.922-1.52-22.576
		c5.53-6.328,15.014-7.3,21.712-2.224c6.536,5.068,14.611,7.745,22.88,7.584c17.344,0,32-10.976,32-24s-14.656-24-32-24
		c-33.071,2.015-61.607-22.954-64-56c2.393-33.046,30.929-58.015,64-56c15.628-0.158,30.835,5.061,43.072,14.784
		c7.043,5.337,8.426,15.373,3.089,22.416c-5.337,7.043-15.373,8.426-22.416,3.088c-0.296-0.225-0.585-0.459-0.865-0.704
		c-6.536-5.068-14.611-7.745-22.88-7.584c-17.344,0-32,10.976-32,24s14.656,24,32,24c33.071-2.015,61.607,22.954,64,56
		C381.607,217.044,353.071,242.013,320,239.998z"/>
	<path style="fill:#4CAF50;" d="M320,79.998c-8.837,0-16-7.163-16-16v-32c0-8.837,7.163-16,16-16s16,7.163,16,16v32
		C336,72.835,328.837,79.998,320,79.998z"/>
	<path style="fill:#4CAF50;" d="M320,271.998c-8.837,0-16-7.163-16-16v-32c0-8.837,7.163-16,16-16s16,7.163,16,16v32
		C336,264.835,328.837,271.998,320,271.998z"/>
</g>
<path d="M80,495.998H16c-8.837,0-16-7.163-16-16v-224c0-8.837,7.163-16,16-16h64c8.837,0,16,7.163,16,16v224
	C96,488.835,88.837,495.998,80,495.998z M32,463.998h32v-192H32V463.998z"/>
<path d="M309.12,463.998H80v-32h229.12c10.604-0.071,20.892-3.624,29.28-10.112l135.2-105.088c3.557-2.618,5.873-6.591,6.4-10.976
	c0.517-4.084-0.637-8.203-3.2-11.424c-2.617-3.528-6.556-5.838-10.912-6.4c-4.078-0.578-8.211,0.583-11.392,3.2L340.48,379.614
	c-16.791,13.196-37.525,20.374-58.88,20.384H176v-32h105.6c14.168-0.001,27.926-4.757,39.072-13.504l114.016-88.416
	c9.908-7.793,22.543-11.255,35.04-9.6c12.775,1.541,24.396,8.148,32.256,18.336c7.812,9.961,11.273,22.652,9.6,35.2
	c-1.526,12.779-8.15,24.4-18.368,32.224L357.888,447.486C343.88,458.184,326.746,463.985,309.12,463.998z"/>
<path d="M176,399.998c-8.837,0-16-7.163-16-16s7.163-16,16-16c38.021,0.008,70.796-26.747,78.4-64H80c-8.837,0-16-7.163-16-16
	s7.163-16,16-16h192c8.837,0,16,7.163,16,16C288,349.854,237.856,399.998,176,399.998z"/>
<g>
</g>
<g>
</g>
<g>
</g>
<g>
</g>
<g>
</g>
<g>
</g>
<g>
</g>
<g>
</g>
<g>
</g>
<g>
</g>
<g>
</g>
<g>
</g>
<g>
</g>
<g>
</g>
<g>
</g>
</svg>
