<svg id="_x31__x2C_5" height="512" viewBox="0 0 24 24" width="512" xmlns="http://www.w3.org/2000/svg"><path d="m8.25 23.25h-2.5c-2.761 0-5-2.239-5-5v-7.5c0-2.761 2.239-5 5-5h2.5c2.761 0 5 2.239 5 5v7.5c0 2.761-2.239 5-5 5z" fill="#607d8b"/><path d="m7 15.32c-1.066 0-1.933-.867-1.933-1.933v-.773c0-1.066.867-1.933 1.933-1.933s1.933.867 1.933 1.933v.773c0 1.066-.867 1.933-1.933 1.933z" fill="#90a4ae"/><path d="m23.25 10.5h-2.25c-2.757 0-5-2.243-5-5 0-2.206-1.794-4-4-4h-.25c-2.206 0-4 1.794-4 4 0 .414-.336.75-.75.75s-.75-.336-.75-.75c0-3.033 2.468-5.5 5.5-5.5h.25c3.032 0 5.5 2.467 5.5 5.5 0 1.93 1.57 3.5 3.5 3.5h2.25c.414 0 .75.336.75.75s-.336.75-.75.75z"/><path d="m8.25 24h-2.5c-3.171 0-5.75-2.58-5.75-5.75v-7.5c0-3.17 2.579-5.75 5.75-5.75h2.5c3.171 0 5.75 2.58 5.75 5.75v7.5c0 3.17-2.579 5.75-5.75 5.75zm-2.5-17.5c-2.344 0-4.25 1.907-4.25 4.25v7.5c0 2.343 1.906 4.25 4.25 4.25h2.5c2.344 0 4.25-1.907 4.25-4.25v-7.5c0-2.343-1.906-4.25-4.25-4.25z"/><path d="m7 11.25c-.414 0-.75-.336-.75-.75v-4.5c0-.414.336-.75.75-.75s.75.336.75.75v4.5c0 .414-.336.75-.75.75z"/><path d="m7 16c-1.379 0-2.5-1.122-2.5-2.5v-1c0-1.378 1.121-2.5 2.5-2.5s2.5 1.122 2.5 2.5v1c0 1.378-1.121 2.5-2.5 2.5zm0-4.5c-.552 0-1 .449-1 1v1c0 .551.448 1 1 1s1-.449 1-1v-1c0-.551-.448-1-1-1z"/></svg>