<svg id="_x31__x2C_5" enable-background="new 0 0 24 24" height="512" viewBox="0 0 24 24" width="512" xmlns="http://www.w3.org/2000/svg"><path d="m13.175 23.25h-1.35c-2.357 0-4.275-1.918-4.275-4.275v-4.95c0-2.357 1.918-4.275 4.275-4.275h1.35c2.357 0 4.275 1.918 4.275 4.275v4.95c0 2.357-1.918 4.275-4.275 4.275z" fill="#2196f3"/><path d="m13.25 24h-1.5c-2.619 0-4.75-2.131-4.75-4.75v-5.5c0-2.619 2.131-4.75 4.75-4.75h1.5c2.619 0 4.75 2.131 4.75 4.75v5.5c0 2.619-2.131 4.75-4.75 4.75zm-1.5-13.5c-1.792 0-3.25 1.458-3.25 3.25v5.5c0 1.792 1.458 3.25 3.25 3.25h1.5c1.792 0 3.25-1.458 3.25-3.25v-5.5c0-1.792-1.458-3.25-3.25-3.25z"/><path d="m12.5 16c-.414 0-.75-.336-.75-.75v-2.5c0-.414.336-.75.75-.75s.75.336.75.75v2.5c0 .414-.336.75-.75.75z"/><path d="m12.5 10.5c-.414 0-.75-.336-.75-.75v-6.625c0-.896-.729-1.625-1.625-1.625s-1.625.729-1.625 1.625v1.625c0 1.792-1.458 3.25-3.25 3.25s-3.25-1.458-3.25-3.25v-4c0-.414.336-.75.75-.75s.75.336.75.75v4c0 .965.785 1.75 1.75 1.75s1.75-.785 1.75-1.75v-1.625c0-1.723 1.402-3.125 3.125-3.125s3.125 1.402 3.125 3.125v6.625c0 .414-.336.75-.75.75z"/></svg>