<svg fill="none" height="512" viewBox="0 0 24 24" width="512" xmlns="http://www.w3.org/2000/svg"><path d="m14 4.25c-.4142 0-.75.33579-.75.75v14c0 .4142.3358.75.75.75h1 .0048c4.2777-.0272 7.7452-3.482 7.7452-7.75s-3.4675-7.72278-7.7452-7.74998l-.0048-.00002z" fill="#607d8b"/><path d="m14 9.25c-.4142 0-.75.33579-.75.75v4c0 .4142.3358.75.75.75h1 .0048c1.5132-.0096 2.7452-1.2326 2.7452-2.75s-1.232-2.74036-2.7452-2.74998l-.0048-.00002z" fill="#fff"/><path d="m2 2.25c-.41421 0-.75.33579-.75.75v18c0 .4142.33579.75.75.75h13c.4142 0 .75-.3358.75-.75v-18c0-.41421-.3358-.75-.75-.75z" fill="#ffc107"/><path d="m9.33541 7.32918c-.23249-.11625-.5086-.10382-.72971.03283-.22111.13666-.3557.37806-.3557.63799v3.378c-.23458-.0829-.48702-.128-.75-.128-1.24264 0-2.25 1.0074-2.25 2.25s1.00736 2.25 2.25 2.25 2.25-1.0074 2.25-2.25v-4.28647l.9146.45729c.3705.18524.821.03507 1.0062-.33541.1853-.37048.0351-.82099-.3354-1.00623z" fill="#fff"/><g clip-rule="evenodd" fill="#000" fill-rule="evenodd"><path d="m8.25 11.378c-.23458-.0829-.48702-.128-.75-.128-1.24264 0-2.25 1.0074-2.25 2.25s1.00736 2.25 2.25 2.25 2.25-1.0074 2.25-2.25v-4.28647l.9146.45729c.3705.18524.821.03507 1.0062-.33541.1853-.37048.0351-.82099-.3354-1.00623l-1.99999-1c-.23249-.11625-.5086-.10382-.72971.03283-.22111.13666-.3557.37806-.3557.63799zm-.75 1.372c-.41421 0-.75.3358-.75.75s.33579.75.75.75.75-.3358.75-.75-.33579-.75-.75-.75z"/><path d="m1.25 3c0-.41421.33579-.75.75-.75h13c.4142 0 .75.33579.75.75v1.28979c3.9281.39629 7 3.69303 7 7.71021 0 4.0172-3.0719 7.3139-7 7.7102v1.2898c0 .4142-.3358.75-.75.75h-13c-.41421 0-.75-.3358-.75-.75zm13 17.25h-11.5v-16.5h11.5zm1.5-5.6063v3.557c3.1048-.3886 5.5-3.0205 5.5-6.2007 0-3.18025-2.3952-5.8121-5.5-6.20071v3.55703c1.1525.32917 2 1.38518 2 2.64368s-.8475 2.3145-2 2.6437zm0-3.64v1.9926c.3046-.2291.5-.5915.5-.9963s-.1954-.7672-.5-.9963z"/></g></svg>