<?xml version="1.0" encoding="iso-8859-1"?>
<!-- Generator: Adobe Illustrator 19.0.0, SVG Export Plug-In . SVG Version: 6.00 Build 0)  -->
<svg version="1.1" id="Capa_1" xmlns="http://www.w3.org/2000/svg" xmlns:xlink="http://www.w3.org/1999/xlink" x="0px" y="0px"
	 viewBox="0 0 511.924 511.924" style="enable-background:new 0 0 511.924 511.924;" xml:space="preserve">
<path style="fill:#2196F3;" d="M160.001,31.962c0-8.837-7.163-16-16-16c-3.462,0-6.83,1.123-9.6,3.2l-128,96
	c-7.069,5.302-8.502,15.331-3.2,22.4c3.022,4.029,7.764,6.4,12.8,6.4h128c8.837,0,16-7.163,16-16V31.962z"/>
<g>
	<path style="fill:#64B5F6;" d="M286.977,154.33l-48-128c-2.346-6.238-8.312-10.368-14.976-10.368h-80c-8.837,0-16,7.163-16,16v256
		c0.001,6.475,3.904,12.311,9.888,14.784c1.936,0.807,4.014,1.22,6.112,1.216c4.251-0.001,8.327-1.693,11.328-4.704l128-128
		C287.757,166.818,289.183,160.2,286.977,154.33z"/>
	<path style="fill:#64B5F6;" d="M474.273,467.706l-124.448-104.32c-3.285-2.802-7.581-4.122-11.872-3.648
		c-4.286,0.424-8.22,2.558-10.912,5.92l-83.52,104.32c-5.514,6.905-4.386,16.973,2.519,22.487c2.829,2.259,6.341,3.492,9.961,3.497
		h208c8.837-0.007,15.994-7.177,15.987-16.013C479.984,475.225,477.892,470.743,474.273,467.706z"/>
</g>
<path style="fill:#2196F3;" d="M510.241,152.698c-2.729-5.356-8.229-8.73-14.24-8.736h-224c-4.246-0.008-8.322,1.673-11.328,4.672
	l-128,128c-5.139,5.132-6.177,13.081-2.528,19.36l112,192c2.685,4.601,7.484,7.565,12.8,7.904h1.056
	c4.858-0.007,9.449-2.22,12.48-6.016l84-104.896l156.32-215.648C512.368,164.502,512.924,158.075,510.241,152.698z"/>
<path d="M144.001,143.962h-128c-8.837,0-16-7.163-16-16c0-5.036,2.371-9.778,6.4-12.8l128-96c7.069-5.302,17.098-3.869,22.4,3.2
	c2.077,2.77,3.2,6.138,3.2,9.6v96C160.001,136.799,152.838,143.962,144.001,143.962z M64.001,111.962h64v-48L64.001,111.962z"/>
<path d="M144.001,303.962c-8.837,0.016-16.013-7.135-16.029-15.971c-0.008-4.26,1.684-8.348,4.701-11.357l128-128
	c6.256-6.256,16.4-6.256,22.656,0s6.256,16.4,0,22.656l-128,128C152.323,302.289,148.247,303.97,144.001,303.962z"/>
<path d="M256.001,495.962c-5.692,0.002-10.955-3.02-13.824-7.936l-112-192c-1.435-2.444-2.187-5.23-2.176-8.064v-160
	c0-8.837,7.163-16,16-16s16,7.163,16,16v155.68l109.824,188.256c4.454,7.632,1.879,17.429-5.753,21.884
	c-0.002,0.001-0.005,0.003-0.007,0.004C261.623,495.227,258.836,495.979,256.001,495.962z"/>
<path d="M464.001,495.962h-208c-8.837,0.005-16.004-7.154-16.009-15.991c-0.002-3.631,1.231-7.156,3.497-9.993l83.488-104.224l0,0
	l137.664-189.792h-192.64c-6.664,0-12.63-4.13-14.976-10.368L212.897,47.962h-68.896c-8.837,0-16-7.163-16-16s7.163-16,16-16h80
	c6.664,0,12.63,4.13,14.976,10.368l44.128,117.632h212.896c8.836,0.078,15.936,7.304,15.858,16.141
	c-0.029,3.332-1.099,6.572-3.058,9.267l-147.68,203.584l113.024,94.752c6.769,5.68,7.652,15.772,1.972,22.541
	C473.108,493.833,468.681,495.921,464.001,495.962z M289.313,463.962h130.688l-78.208-65.568L289.313,463.962z"/>
<g>
</g>
<g>
</g>
<g>
</g>
<g>
</g>
<g>
</g>
<g>
</g>
<g>
</g>
<g>
</g>
<g>
</g>
<g>
</g>
<g>
</g>
<g>
</g>
<g>
</g>
<g>
</g>
<g>
</g>
</svg>
