<svg enable-background="new 0 0 24 24" height="512" viewBox="0 0 24 24" width="512" xmlns="http://www.w3.org/2000/svg"><path d="m19 4.86-8.991 4.383-3.501-1.701-1.458-.711-4.05-1.971 8.991-4.374 3.834 1.864 1.53.738z" fill="#ffa726"/><path d="m9.99 19.779-9.49-4.939v-9.48l9.49 4.37z" fill="#ffcc80"/><path d="m19.5 5.36v9.48l-9.49 4.939v-10.049z" fill="#ffb74d"/><path d="m17.5 23.35c-3.226 0-5.85-2.624-5.85-5.85s2.624-5.85 5.85-5.85 5.85 2.624 5.85 5.85-2.624 5.85-5.85 5.85z" fill="#4caf50"/><path d="m16.5 20.25c-.199 0-.39-.079-.53-.22l-1.75-1.75c-.293-.293-.293-.768 0-1.061s.768-.293 1.061 0l1.181 1.18 2.722-3.141c.272-.312.744-.348 1.058-.076.313.271.347.745.076 1.058l-3.25 3.75c-.137.157-.332.251-.54.258-.01.002-.019.002-.028.002z"/><path d="m17.5 24c-3.584 0-6.5-2.916-6.5-6.5s2.916-6.5 6.5-6.5 6.5 2.916 6.5 6.5-2.916 6.5-6.5 6.5zm0-11.5c-2.757 0-5 2.243-5 5s2.243 5 5 5 5-2.243 5-5-2.243-5-5-5z"/><path d="m10.007 10.5c-.278 0-.545-.155-.675-.422-.181-.372-.026-.821.346-1.002l9.244-4.5c.234-.113.507-.098.726.039.219.136.352.377.352.635v4c0 .414-.336.75-.75.75s-.75-.336-.75-.75v-2.801l-8.166 3.975c-.105.052-.217.076-.327.076z"/><path d="m9.25 20c-.125 0-.25-.031-.366-.095l-8.5-4.75c-.237-.133-.384-.384-.384-.655v-9.25c0-.258.133-.499.353-.636.218-.138.493-.152.726-.039l9.244 4.5c.373.181.527.63.346 1.002-.182.373-.632.526-1.002.346l-8.167-3.974v7.611l8.116 4.535c.362.202.491.659.289 1.021-.137.246-.393.384-.655.384z"/><path d="m.75 6c-.277 0-.544-.155-.674-.422-.181-.372-.026-.821.346-1.002l9.244-4.5c.207-.101.449-.101.656 0l9.256 4.5c.373.181.527.63.346 1.002s-.629.529-1.002.346l-8.928-4.34-8.916 4.34c-.105.052-.217.076-.328.076z"/><path d="m5.25 11.99c-.414 0-.75-.336-.75-.75v-3.8c0-.283.16-.542.413-.67l9.09-4.581c.369-.185.82-.038 1.007.333.186.37.038.821-.333 1.007l-8.677 4.373v3.338c0 .414-.336.75-.75.75z"/></svg>