<?xml version="1.0" encoding="iso-8859-1"?>
<!-- Generator: Adobe Illustrator 19.0.0, SVG Export Plug-In . SVG Version: 6.00 Build 0)  -->
<svg version="1.1" id="Capa_1" xmlns="http://www.w3.org/2000/svg" xmlns:xlink="http://www.w3.org/1999/xlink" x="0px" y="0px"
	 viewBox="0 0 512 512" style="enable-background:new 0 0 512 512;" xml:space="preserve">
<path style="fill:#455A64;" d="M208.009,0c-26.51,0-48,21.49-48,48v416c0,26.51,21.49,48,48,48s48-21.49,48-48l0,0V48
	C256.009,21.49,234.519,0,208.009,0z"/>
<path style="fill:#FFC107;" d="M506.537,179.968l-128-112c-2.913-2.554-6.654-3.963-10.528-3.968h-336c-17.673,0-32,14.327-32,32
	v192c0,17.673,14.327,32,32,32h336c3.874-0.005,7.615-1.414,10.528-3.968l128-112c6.645-5.825,7.31-15.934,1.485-22.579
	C507.561,180.926,507.064,180.43,506.537,179.968L506.537,179.968z"/>
<path d="M368.009,320h-336c-17.673,0-32-14.327-32-32V96c0-17.673,14.327-32,32-32h336c3.874,0.005,7.615,1.414,10.528,3.968
	l128,112c6.645,5.825,7.31,15.934,1.485,22.579c-0.462,0.527-0.958,1.023-1.485,1.485l-128,112
	C375.624,318.586,371.883,319.995,368.009,320z M32.009,96v192h329.984l109.696-96L361.993,96H32.009z"/>
<path d="M240.009,96c-8.837,0-16-7.163-16-16V48c0-8.837-7.163-16-16-16s-16,7.163-16,16v32c0,8.837-7.163,16-16,16s-16-7.163-16-16
	V48c0-26.51,21.49-48,48-48s48,21.49,48,48v32C256.009,88.837,248.846,96,240.009,96z"/>
<path d="M208.009,512c-26.51,0-48-21.49-48-48l0,0V304c0-8.837,7.163-16,16-16s16,7.163,16,16v160c0,8.837,7.163,16,16,16
	s16-7.163,16-16V304c0-8.837,7.163-16,16-16s16,7.163,16,16v160C256.009,490.51,234.519,512,208.009,512L208.009,512z"/>
<g>
</g>
<g>
</g>
<g>
</g>
<g>
</g>
<g>
</g>
<g>
</g>
<g>
</g>
<g>
</g>
<g>
</g>
<g>
</g>
<g>
</g>
<g>
</g>
<g>
</g>
<g>
</g>
<g>
</g>
</svg>
