<svg id="_x31__x2C_5" enable-background="new 0 0 24 24" height="512" viewBox="0 0 24 24" width="512" xmlns="http://www.w3.org/2000/svg"><path d="m16.446 11.522-3.546-8.217-.279-.648c-.216-.495-1.026-.495-1.242 0l-.279.648-3.546 8.217c-.09.216-.063.459.063.648l2.241 3.285c.126.189.342.297.558.297h3.168c.216 0 .432-.108.558-.297l2.241-3.285c.126-.189.153-.432.063-.648z" fill="#ffc107"/><path d="m15.825 24h-7.65c-.195 0-.38-.084-.508-.23s-.187-.341-.161-.534l.796-5.969c.104-.779.775-1.367 1.561-1.367h4.274c.786 0 1.457.588 1.561 1.366l.796 5.97c.025.193-.033.388-.161.534s-.313.23-.508.23z" fill="#607d8b"/><g fill="#2196f3"><path d="m2.911 3.458h-1.822c-.302 0-.547-.245-.547-.547v-1.822c0-.302.245-.547.547-.547h1.823c.302 0 .547.245.547.547v1.823c-.001.301-.246.546-.548.546z"/><path d="m21.5 14.62c-.893 0-1.62-.727-1.62-1.62s.727-1.62 1.62-1.62 1.62.727 1.62 1.62-.727 1.62-1.62 1.62z"/><path d="m2.5 14.458c-.804 0-1.458-.654-1.458-1.458s.654-1.458 1.458-1.458 1.458.654 1.458 1.458-.654 1.458-1.458 1.458z"/><path d="m22.911 3.458h-1.822c-.302 0-.547-.245-.547-.547v-1.822c0-.302.245-.547.547-.547h1.822c.302 0 .547.245.547.547v1.823c0 .301-.245.546-.547.546z"/></g><path d="m21.5 12.25c-.414 0-.75-.336-.75-.75 0-4.825-3.925-8.75-8.75-8.75s-8.75 3.925-8.75 8.75c0 .414-.336.75-.75.75s-.75-.336-.75-.75c0-5.652 4.598-10.25 10.25-10.25s10.25 4.598 10.25 10.25c0 .414-.336.75-.75.75z"/><path d="m3.25 4h-2.5c-.414 0-.75-.336-.75-.75v-2.5c0-.414.336-.75.75-.75h2.5c.414 0 .75.336.75.75v2.5c0 .414-.336.75-.75.75zm-1.75-1.5h1v-1h-1z"/><path d="m21.5 15c-1.103 0-2-.897-2-2s.897-2 2-2 2 .897 2 2-.897 2-2 2zm0-2.5c-.276 0-.5.224-.5.5s.224.5.5.5.5-.224.5-.5-.224-.5-.5-.5z"/><path d="m20.5 2.75h-17c-.414 0-.75-.336-.75-.75s.336-.75.75-.75h17c.414 0 .75.336.75.75s-.336.75-.75.75z"/><path d="m13.756 16.5c-.146 0-.293-.042-.422-.131-.342-.233-.43-.7-.196-1.042l2.26-3.309-3.398-7.875-3.398 7.875 2.26 3.309c.234.342.146.809-.196 1.042-.341.234-.809.147-1.042-.196l-2.493-3.65c-.145-.212-.171-.484-.069-.72l4.25-9.85c.237-.549 1.14-.549 1.377 0l4.25 9.85c.102.236.076.508-.069.72l-2.493 3.65c-.146.213-.381.327-.621.327z"/><path d="m16.249 24c-.37 0-.692-.274-.743-.651l-.884-6.632c-.016-.124-.123-.217-.248-.217h-4.749c-.125 0-.231.093-.248.217l-.884 6.632c-.055.411-.438.696-.843.645-.411-.055-.699-.432-.645-.843l.884-6.632c.118-.866.863-1.519 1.736-1.519h4.749c.873 0 1.619.653 1.734 1.518l.885 6.633c.055.411-.234.788-.645.843-.033.004-.066.006-.099.006z"/><path d="m12 11c-.414 0-.75-.336-.75-.75v-7.5c0-.414.336-.75.75-.75s.75.336.75.75v7.5c0 .414-.336.75-.75.75z"/><path d="m2.5 15c-1.103 0-2-.897-2-2s.897-2 2-2 2 .897 2 2-.897 2-2 2zm0-2.5c-.276 0-.5.224-.5.5s.224.5.5.5.5-.224.5-.5-.224-.5-.5-.5z"/><path d="m23.25 4h-2.5c-.414 0-.75-.336-.75-.75v-2.5c0-.414.336-.75.75-.75h2.5c.414 0 .75.336.75.75v2.5c0 .414-.336.75-.75.75zm-1.75-1.5h1v-1h-1z"/></svg>