<svg enable-background="new 0 0 24 24" height="512" viewBox="0 0 24 24" width="512" xmlns="http://www.w3.org/2000/svg"><g id="Layer_3"><g><path d="m24 1.75v20.5c0 .96-.79 1.75-1.75 1.75h-20.5c-.96 0-1.75-.79-1.75-1.75v-20.5c0-.96.79-1.75 1.75-1.75h20.5c.96 0 1.75.79 1.75 1.75z" fill="#90caf9"/></g><g><path d="m24 16.72v4.03h-12.44c-.41 0-.75-.34-.75-.75v-2c0-.24.12-.47.31-.61 1-.72 3.66-2.39 6.75-2.39 1.86 0 3.8.78 6.05 1.69.03.01.05.02.08.03z" fill="#689f38"/></g><g><path d="m24 18.97v3.28c0 .96-.79 1.75-1.75 1.75h-20.5c-.96 0-1.75-.79-1.75-1.75v-3.83l.26-.23c.14-.13 3.68-3.19 7.83-3.19 1.86 0 3.8.79 6.05 1.69 2.87 1.17 6.12 2.49 9.86 2.28z" fill="#8bc34a"/></g><g><path d="m8.75 7.25c0 .55-.45 1-1 1h-3c-.55 0-1-.45-1-1s.45-1 1-1c.03 0 .06 0 .09.01.19-.59.75-1.01 1.41-1.01s1.22.42 1.41 1.01c.03-.01.06-.01.09-.01.55 0 1 .45 1 1z" fill="#fafafa"/></g></g><g id="Layer_2"><g><path d="m22.25 24h-20.5c-.965 0-1.75-.785-1.75-1.75v-20.5c0-.965.785-1.75 1.75-1.75h20.5c.965 0 1.75.785 1.75 1.75v20.5c0 .965-.785 1.75-1.75 1.75zm-20.5-22.5c-.138 0-.25.112-.25.25v20.5c0 .138.112.25.25.25h20.5c.138 0 .25-.112.25-.25v-20.5c0-.138-.112-.25-.25-.25z"/></g><g><path d="m23.25 20.5c-3.709 0-6.879-1.283-9.675-2.415-2.1-.851-3.914-1.585-5.488-1.585-3.575 0-6.811 2.786-6.843 2.814-.312.271-.785.241-1.058-.071-.272-.312-.241-.784.07-1.058.148-.129 3.683-3.185 7.831-3.185 1.866 0 3.805.785 6.051 1.694 2.669 1.081 5.695 2.306 9.112 2.306.414 0 .75.336.75.75s-.336.75-.75.75z"/></g><g><path d="m23.25 17.98c-.093 0-.188-.018-.28-.055-2.004-.808-3.652-1.426-5.1-1.426-1.76 0-3.392.67-4.452 1.232-.364.194-.819.056-1.014-.311-.194-.366-.055-.82.311-1.014 1.21-.64 3.086-1.406 5.155-1.406 1.718 0 3.504.665 5.661 1.535.384.154.57.592.416.976-.119.292-.401.469-.697.469z"/></g><g><path d="m7.75 9h-3c-.965 0-1.75-.785-1.75-1.75 0-.827.577-1.522 1.35-1.704.398-.642 1.108-1.046 1.9-1.046s1.502.404 1.9 1.046c.773.182 1.35.877 1.35 1.704 0 .965-.785 1.75-1.75 1.75zm-3.021-1.998c-.129.014-.229.122-.229.248 0 .136.114.25.25.25h3c.136 0 .25-.114.25-.25 0-.128-.102-.236-.227-.249-.152.023-.312-.001-.453-.073-.178-.09-.312-.248-.374-.438-.094-.293-.374-.49-.696-.49s-.602.197-.696.49c-.062.19-.196.348-.374.438-.139.072-.299.095-.451.074z"/></g></g></svg>