<?xml version="1.0" encoding="utf-8"?>
<!-- Generator: Adobe Illustrator 25.3.1, SVG Export Plug-In . SVG Version: 6.00 Build 0)  -->
<svg version="1.1" id="Capa_1" xmlns="http://www.w3.org/2000/svg" xmlns:xlink="http://www.w3.org/1999/xlink" x="0px" y="0px"
	 viewBox="0 0 512 512" style="enable-background:new 0 0 512 512;" xml:space="preserve">
<style type="text/css">
	.st0{fill:#CFD8DC;stroke:#000000;stroke-width:10;stroke-miterlimit:10;}
	.st1{fill:#D32F2F;stroke:#000000;stroke-width:10;stroke-miterlimit:10;}
	.st2{fill:#F44336;stroke:#000000;stroke-width:10;stroke-miterlimit:10;}
	.st3{stroke:#000000;stroke-width:10;stroke-miterlimit:10;}
</style>
<path class="st0" d="M180.2,373.4l-41.4-41.3c-2.1-2.1-5.1-3.3-8.1-3c-3,0.2-5.8,1.8-7.5,4.1L9.4,488.4c-3.4,4.6-2.5,11,2,14.5
	c3.7,2.7,8.8,2.7,12.4,0L179,389.1c4.6-3.4,5.7-9.8,2.2-14.4C181,374.2,180.6,373.8,180.2,373.4L180.2,373.4z"/>
<path class="st1" d="M314.7,301.1L211.3,197.6c-17.4-13.6-39.1-20.4-61.1-19.3c-28.9-1-56.9,9.7-77.7,29.6
	c-16.8,16.8-15,42.8,5.2,77.2c19.1,29.9,41.6,57.5,67.3,82.3c41.2,41.2,93.1,83.9,131,83.9c10.6,0.3,21-3.9,28.5-11.5
	C347.4,396.8,336.7,323,314.7,301.1z"/>
<path class="st2" d="M397.5,218.3L294,114.8c-4-4-10.6-4-14.6,0l-82.8,82.8c-13.6,13.6-12.4,43.5,31,87.1
	c28.4,28.4,51,38.7,67.1,38.7c7.4,0.3,14.6-2.5,20-7.7l82.8-82.8C401.5,228.8,401.5,222.3,397.5,218.3z"/>
<path class="st1" d="M503.2,190.6c-1.6-3.9-5.4-6.4-9.6-6.4c-22.4,0-71.7-24.3-106.5-59.1S328.1,41,328.1,18.6
	c0-5.8-4.6-10.3-10.3-10.3c-2.7,0-5.4,1.1-7.3,3c-42.2,42.3-55.5,114.4,10.3,180.2c25.1,27.8,60.3,44.3,97.7,45.7
	c31.1-0.4,60.8-13.1,82.5-35.4C503.9,198.9,504.8,194.5,503.2,190.6z"/>
<path class="st2" d="M438.9,73.5C395.1,29.6,355.4,8.3,317.7,8.3c-5.8,0-10.3,4.7-10.3,10.3c0,30.9,29.3,85.2,65.1,121.1
	s90.3,65.1,121.1,65.1c5.8,0,10.3-4.7,10.3-10.3C504,156.9,482.6,117.3,438.9,73.5z"/>
<path class="st3" d="M418.4,237.2c-37.4-1.4-72.7-17.8-97.7-45.7c-27.5-25.1-44-60-45.7-97.1c0.1-31.3,12.9-61.2,35.3-83.1
	c2-2,4.6-3,7.3-3c37.7,0,77.3,21.3,121.1,65.1s65.1,83.5,65.1,121.1c0,2.7-1.1,5.4-3,7.3C479.2,224.2,449.6,236.9,418.4,237.2z
	 M322,29.1c-16.8,17.6-26.1,40.9-26.2,65.1c1.8,31.7,16,61.4,39.7,82.7c57.6,57.6,114.8,43.8,147.7,13.4
	c-1.8-30.4-21.6-64.8-58.9-102.2S352.5,30.9,322,29.1z"/>
<path class="st3" d="M493.7,204.9c-30.9,0-85.2-29.2-121.1-65.1s-65.1-90.2-65.1-121.1c0-5.8,4.7-10.3,10.3-10.3s10.3,4.7,10.3,10.3
	c0,22.4,24.3,71.7,59.1,106.5s84.1,59.1,106.5,59.1c5.8,0,10.3,4.7,10.3,10.3C504,200.3,499.3,204.9,493.7,204.9z"/>
<path class="st3" d="M294.7,323.3c-16.1,0-38.7-10.3-67.1-38.7c-43.5-43.5-44.6-73.5-31-87.1l82.8-82.8c4-4.1,10.5-4.2,14.6-0.3
	s4.2,10.5,0.3,14.6c-0.1,0.1-0.2,0.2-0.3,0.3l-82.8,82.8c-4.1,4.1-2.1,24.6,31,57.8c33.3,33.3,53.6,35.2,57.8,31l82.8-82.8
	c4.1-4,10.6-3.9,14.6,0.3c3.9,4,3.9,10.3,0,14.3l-82.8,82.8C309.4,320.9,302.1,323.6,294.7,323.3z"/>
<path class="st3" d="M275.9,451.3c-37.9,0-89.8-42.7-131-83.9c-25.5-24.7-48.1-52.3-67.2-82.2c-20.3-34.4-21.9-60.5-5.2-77.2
	c20.6-19.7,48.3-30.4,76.7-29.7h0.9c22-1.1,43.7,5.9,61,19.4c4,4.1,3.9,10.6-0.3,14.6c-4,3.9-10.3,3.9-14.3,0
	c-13.7-9.4-29.9-14-46.4-13.3h-0.8c-23-0.6-45.4,7.9-62.2,23.7c-11.6,11.6-1.9,34.7,8.4,52.2c18.2,28.5,39.7,54.6,64.1,78.1
	c62.5,62.5,112.3,90.2,130.2,72.5c27.1-30.3,31.3-74.7,10.3-109.5c-4-4.1-3.9-10.6,0.3-14.6c4-3.9,10.3-3.9,14.3,0
	c21.9,22,32.7,95.8-10.3,138.8C296.9,447.5,286.5,451.6,275.9,451.3z"/>
<path class="st3" d="M17.7,505c-5.8,0-10.3-4.7-10.3-10.3c0-2.2,0.7-4.4,2-6.2l113.8-155.1c3.4-4.6,9.9-5.5,14.5-2
	c4.6,3.4,5.5,9.9,2,14.4l-74,100.8l100.8-74c4.6-3.4,11-2.5,14.5,2c3.4,4.6,2.5,11-2,14.5l0,0L23.9,502.9
	C22.1,504.2,19.9,505,17.7,505z"/>
</svg>
