<?xml version="1.0" encoding="iso-8859-1"?>
<!-- Generator: Adobe Illustrator 19.0.0, SVG Export Plug-In . SVG Version: 6.00 Build 0)  -->
<svg version="1.1" id="Capa_1" xmlns="http://www.w3.org/2000/svg" xmlns:xlink="http://www.w3.org/1999/xlink" x="0px" y="0px"
	 viewBox="0 0 512 512" style="enable-background:new 0 0 512 512;" xml:space="preserve">
<path style="fill:#FFC107;" d="M288,224V29.728C288.036,13.469,274.978,0.211,258.72,0H256C114.615,0,0,114.615,0,256
	s114.615,256,256,256s256-114.615,256-256c0-17.673-14.327-32-32-32H288z"/>
<circle style="fill:#F44336;" cx="176" cy="192" r="32"/>
<circle style="fill:#4CAF50;" cx="192" cy="320" r="32"/>
<circle style="fill:#F44336;" cx="320" cy="336" r="32"/>
<path style="fill:#FFA000;" d="M445.12,224C463.497,329.152,393.152,429.292,288,447.669S82.708,395.7,64.331,290.549
	S116.3,85.257,221.451,66.88c22.016-3.848,44.533-3.848,66.549,0V32c0-17.673-14.327-32-32-32C114.615,0,0,114.615,0,256
	s114.615,256,256,256s256-114.615,256-256c0-17.673-14.327-32-32-32H445.12z"/>
<path d="M256,512C114.615,512,0,397.385,0,256S114.615,0,256,0c5.978,0.002,11.951,0.354,17.888,1.056
	c8.769,1.088,14.996,9.079,13.908,17.849c-1.08,8.705-8.968,14.917-17.684,13.927C265.428,32.284,260.716,32.006,256,32
	C132.288,32,32,132.288,32,256s100.288,224,224,224s224-100.288,224-224c-0.006-4.705-0.284-9.407-0.832-14.08
	c-1.124-8.765,5.07-16.781,13.835-17.905c0.039-0.005,0.078-0.01,0.117-0.015c8.709-0.824,16.535,5.327,17.792,13.984
	c0.733,5.977,1.096,11.994,1.088,18.016C511.841,397.319,397.319,511.841,256,512z"/>
<path d="M256,448c-106.039,0-192-85.961-192-192S149.961,64,256,64c6.012-0.015,12.018,0.348,17.984,1.088
	c8.776,1.029,15.057,8.978,14.028,17.754c-0.004,0.034-0.008,0.068-0.012,0.102c-1.227,8.691-9.131,14.838-17.856,13.888
	C265.452,96.255,260.728,95.977,256,96c-88.366,0-160,71.634-160,160s71.634,160,160,160s160-71.634,160-160
	c0.002-4.674-0.276-9.343-0.832-13.984c-1.185-8.757,4.953-16.816,13.71-18.001c0.038-0.005,0.076-0.01,0.114-0.015
	c8.743-1.006,16.693,5.142,17.92,13.856c0.745,6.019,1.108,12.079,1.088,18.144C447.894,361.995,361.995,447.894,256,448z"/>
<path d="M495.04,256H272c-8.837,0-16-7.163-16-16V16.96c0-8.837,7.163-16,16-16s16,7.163,16,16V224h207.04c8.837,0,16,7.163,16,16
	S503.877,256,495.04,256L495.04,256z"/>
<path d="M176,240c-26.51,0-48-21.49-48-48s21.49-48,48-48s48,21.49,48,48S202.51,240,176,240z M176,176c-8.837,0-16,7.163-16,16
	s7.163,16,16,16s16-7.163,16-16S184.837,176,176,176z"/>
<path d="M192,368c-26.51,0-48-21.49-48-48s21.49-48,48-48s48,21.49,48,48S218.51,368,192,368z M192,304c-8.837,0-16,7.163-16,16
	s7.163,16,16,16s16-7.163,16-16S200.837,304,192,304z"/>
<path d="M320,384c-26.51,0-48-21.49-48-48s21.49-48,48-48s48,21.49,48,48S346.51,384,320,384z M320,320c-8.837,0-16,7.163-16,16
	s7.163,16,16,16s16-7.163,16-16S328.837,320,320,320z"/>
<path d="M128.64,288c-8.837,0-16-7.163-16-16c-0.002-8.713,6.969-15.826,15.68-16h0.32c8.837,0,16,7.163,16,16
	S137.477,288,128.64,288L128.64,288z"/>
<path d="M256.64,400c-8.837,0-16-7.163-16-16s7.163-16,16-16h0.32c8.837,0,16,7.163,16,16s-7.163,16-16,16H256.64z"/>
<path d="M224.64,144.48c-8.837,0-16-7.163-16-16s7.163-16,16-16h0.32c8.837,0,16,7.163,16,16s-7.163,16-16,16H224.64z"/>
<path d="M384.64,304c-8.837,0-16-7.163-16-16c0-8.774,7.066-15.912,15.84-16h0.32c8.837,0,16,7.163,16,16s-7.163,16-16,16H384.64z"
	/>
<g>
</g>
<g>
</g>
<g>
</g>
<g>
</g>
<g>
</g>
<g>
</g>
<g>
</g>
<g>
</g>
<g>
</g>
<g>
</g>
<g>
</g>
<g>
</g>
<g>
</g>
<g>
</g>
<g>
</g>
</svg>
