<svg fill="none" height="512" viewBox="0 0 24 24" width="512" xmlns="http://www.w3.org/2000/svg"><path clip-rule="evenodd" d="m6.87317 4.89083c.33646.24159.41337.71019.17179 1.04666-.50047.69701-.79498 1.5508-.79498 2.47558 0 .92479.29451 1.77853.79498 2.47563.24158.3364.16467.805-.1718 1.0466-.33646.2416-.80506.1647-1.04665-.1718-.67746-.9435-1.07653-2.10147-1.07653-3.35043 0-1.24895.39907-2.40693 1.07653-3.35044.24159-.33647.71019-.41338 1.04666-.1718z" fill="#f44336" fill-rule="evenodd"/><path clip-rule="evenodd" d="m17.5626 11.9353c-.3364-.2415-.4134-.7102-.1718-1.0466.5005-.697.795-1.55081.795-2.4756s-.2945-1.77857-.795-2.47559c-.2416-.33646-.1646-.80507.1718-1.04665.3365-.24159.8051-.16468 1.0467.17179.6774.94352 1.0765 2.10149 1.0765 3.35045s-.3991 2.4069-1.0765 3.3504c-.2416.3365-.7102.4134-1.0467.1718z" fill="#f44336" fill-rule="evenodd"/><path clip-rule="evenodd" d="m4.6886 1.87177c.34697.22623.44485.69091.21862 1.03789-1.04806 1.60741-1.65718 3.52661-1.65719 5.59037 0 2.06377.60913 3.98297 1.65719 5.59037.22623.347.12835.8116-.21862 1.0379-.34698.2262-.81166.1283-1.03789-.2186-1.20212-1.8437-1.90068-4.0463-1.90068-6.40967.00001-2.36341.69856-4.56594 1.90068-6.40963.22624-.34698.69091-.44486 1.03789-.21863z" fill="#f44336" fill-rule="evenodd"/><path clip-rule="evenodd" d="m19.5905 15.1283c-.347-.2262-.4449-.6909-.2187-1.0379 1.0481-1.6074 1.6572-3.5266 1.6572-5.59036s-.6091-3.98296-1.6572-5.59037c-.2262-.34698-.1283-.81166.2187-1.03789.3469-.22623.8116-.12835 1.0378.21862 1.2022 1.8437 1.9007 4.04623 1.9007 6.40964 0 2.36336-.6985 4.56596-1.9007 6.40966-.2262.3469-.6909.4448-1.0378.2186z" fill="#f44336" fill-rule="evenodd"/><path d="m12 2.25c-1.7949 0-3.25 1.45507-3.25 3.25v5c0 1.7949 1.4551 3.25 3.25 3.25s3.25-1.4551 3.25-3.25v-5c0-1.79493-1.4551-3.25-3.25-3.25z" fill="#607d8b"/><path clip-rule="evenodd" d="m8.5 13.25c.41421 0 .75.3358.75.75v.5c0 .6904.55964 1.25 1.25 1.25h3c.6904 0 1.25-.5596 1.25-1.25v-.5c0-.4142.3358-.75.75-.75s.75.3358.75.75v.5c0 1.5188-1.2312 2.75-2.75 2.75h-3c-1.51878 0-2.75-1.2312-2.75-2.75v-.5c0-.4142.33579-.75.75-.75z" fill="#486472" fill-rule="evenodd"/><path clip-rule="evenodd" d="m12 15.75c.4142 0 .75.3358.75.75v5.5c0 .4142-.3358.75-.75.75s-.75-.3358-.75-.75v-5.5c0-.4142.3358-.75.75-.75z" fill="#486472" fill-rule="evenodd"/><path clip-rule="evenodd" d="m8.75 22c0-.4142.33579-.75.75-.75h5c.4142 0 .75.3358.75.75s-.3358.75-.75.75h-5c-.41421 0-.75-.3358-.75-.75z" fill="#486472" fill-rule="evenodd"/><g fill="#000"><path d="m19.3717 14.0903c-.2262.347-.1283.8117.2187 1.0379.3469.2263.8116.1284 1.0379-.2186 1.2021-1.8437 1.9006-4.0462 1.9006-6.40964 0-2.3634-.6985-4.56593-1.9006-6.40963-.2263-.34697-.691-.44485-1.0379-.21862-.347.22623-.4449.69091-.2187 1.03789 1.0481 1.60741 1.6572 3.52661 1.6572 5.59036 0 2.06374-.6091 3.98294-1.6572 5.59034z"/><path d="m4.68856 1.87171c.34698.22623.44486.69091.21862 1.03789-1.04805 1.60741-1.65718 3.52661-1.65718 5.59036 0 2.06374.60912 3.98294 1.65718 5.59034.22624.347.12836.8117-.21862 1.0379-.34697.2263-.81165.1284-1.03788-.2186-1.20212-1.8437-1.90068-4.0462-1.90068-6.40964 0-2.3634.69856-4.56593 1.90068-6.40963.22623-.34697.69091-.44485 1.03788-.21862z"/><path d="m7.04497 5.9374c.24159-.33647.16467-.80507-.17179-1.04666-.33647-.24159-.80507-.16467-1.04666.17179-.67746.94352-1.07652 2.10149-1.07652 3.35045s.39906 2.40692 1.07652 3.35042c.24159.3365.71019.4134 1.04666.1718.33646-.2416.41338-.7102.17179-1.0466-.50047-.697-.79497-1.55083-.79497-2.47562s.2945-1.77857.79497-2.47558z"/><path d="m17.3908 10.8886c-.2416.3364-.1647.8051.1718 1.0466.3364.2416.805.1647 1.0466-.1718.6775-.9435 1.0765-2.10144 1.0765-3.3504s-.399-2.40693-1.0765-3.35045c-.2416-.33647-.7102-.41338-1.0466-.17179-.3365.24158-.4134.71019-.1718 1.04665.5004.69702.7949 1.5508.7949 2.47559s-.2945 1.7786-.7949 2.4756z"/><path clip-rule="evenodd" d="m8.75 5.49997c0-1.79493 1.4551-3.25 3.25-3.25s3.25 1.45507 3.25 3.25v5.00003c0 1.7949-1.4551 3.25-3.25 3.25s-3.25-1.4551-3.25-3.25zm3.25-1.75c-.9665 0-1.75.7835-1.75 1.75v5.00003c0 .9665.7835 1.75 1.75 1.75s1.75-.7835 1.75-1.75v-5.00003c0-.9665-.7835-1.75-1.75-1.75z" fill-rule="evenodd"/><path d="m9.25 14c0-.4142-.33579-.75-.75-.75s-.75.3358-.75.75v.5c0 1.5187 1.23122 2.75 2.75 2.75h.75v4h-1.75c-.41421 0-.75.3358-.75.75s.33579.75.75.75h5c.4142 0 .75-.3358.75-.75s-.3358-.75-.75-.75h-1.75v-4h.75c1.5188 0 2.75-1.2313 2.75-2.75v-.5c0-.4142-.3358-.75-.75-.75s-.75.3358-.75.75v.5c0 .6903-.5596 1.25-1.25 1.25h-3c-.69036 0-1.25-.5597-1.25-1.25z"/></g></svg>