<svg enable-background="new 0 0 24 24" height="512" viewBox="0 0 24 24" width="512" xmlns="http://www.w3.org/2000/svg"><g id="Color"><g><g><path d="m20.411 8.641-5.6-5.35c-.351-.351.08-.1-.272.249-.352.352-.602.421-.252.773 0 0 .001.001.001.001l.002.003c.024.024.123.123.277.277l-4.504 4.005c-.563-.139-1.141-.208-1.722-.208-4.006 0-7.266 3.26-7.266 7.266s3.259 7.266 7.266 7.266 7.266-3.26 7.266-7.266c0-.592-.071-1.179-.212-1.749l3.994-4.744c.046.046.095.095.129.129l.121.121c.176.176.406.264.636.264s-.039.412.136.236c.352-.352.352-.921 0-1.273z" fill="#eceff1"/></g></g><g><g><path d="m14.764 18.063c-.707 2.904-3.332 5.059-6.449 5.059-3.184 0-6.762-3.287-7.404-6.289.675-.938 2.954-1.156 5.471-1.156 3.438.001 3.52 2.123 8.382 2.386z" fill="#66bb6a"/></g></g><g><g><circle cx="12" cy="12.05" fill="#66bb6a" r="1.62"/></g></g><g><g><circle cx="21.971" cy="2.05" fill="#66bb6a" r="1.458"/></g></g></g><g id="_x31_.5"><g><g><path d="m8.073 24.05c-4.451 0-8.073-3.622-8.073-8.073 0-4.452 3.622-8.073 8.073-8.073.645 0 1.287.077 1.913.23l4.091-4.09c.293-.293.768-.293 1.061 0s.293.768 0 1.061l-4.398 4.398c-.195.196-.482.267-.749.188-.624-.191-1.269-.288-1.918-.288-3.625 0-6.573 2.949-6.573 6.573s2.949 6.573 6.573 6.573 6.573-2.949 6.573-6.573c0-.662-.098-1.315-.292-1.942-.083-.266-.011-.556.186-.752l4.388-4.388c.293-.293.768-.293 1.061 0s.293.768 0 1.061l-4.079 4.079c.157.634.236 1.285.236 1.943 0 4.451-3.621 8.073-8.073 8.073z"/></g></g><g><g><path d="m14.908 18.68c-2.719 0-4.057-.869-5.238-1.636-1.069-.694-1.993-1.294-3.948-1.294-3.088 0-4.276 1.61-4.287 1.627-.234.341-.701.431-1.042.195-.342-.234-.43-.7-.196-1.043.064-.093 1.604-2.279 5.525-2.279 2.4 0 3.603.78 4.765 1.536 1.104.717 2.147 1.394 4.421 1.394.414 0 .75.336.75.75s-.336.75-.75.75z"/></g></g><g><g><path d="m12 14.05c-1.103 0-2-.897-2-2s.897-2 2-2 2 .897 2 2c0 1.102-.897 2-2 2zm0-2.5c-.276 0-.5.224-.5.5s.224.5.5.5.5-.224.5-.5-.224-.5-.5-.5z"/></g></g><g><g><path d="m21.971 4.05c-1.103 0-2-.897-2-2s.897-2 2-2 2 .897 2 2-.897 2-2 2zm0-2.5c-.276 0-.5.224-.5.5s.224.5.5.5.5-.224.5-.5-.224-.5-.5-.5z"/></g></g><g><g><path d="m21 10.75c-.192 0-.384-.073-.53-.22l-7-7c-.293-.293-.293-.768 0-1.061s.768-.293 1.061 0l7 7c.293.293.293.768 0 1.061-.147.147-.339.22-.531.22z"/></g></g></g></svg>