<svg enable-background="new 0 0 24 24" height="512" viewBox="0 0 24 24" width="512" xmlns="http://www.w3.org/2000/svg"><path d="m21.047 23.1h-18.094c-.468 0-.91-.207-1.209-.566-.3-.359-.424-.83-.34-1.291l2.373-13.05c.136-.749.787-1.293 1.549-1.293h13.348c.762 0 1.413.544 1.55 1.293l2.373 13.05c.084.461-.04.931-.34 1.291-.301.359-.742.566-1.21.566z" fill="#b0bec5"/><path d="m10.25 19h-3.5c-.414 0-.75-.336-.75-.75v-6.5c0-.414.336-.75.75-.75s.75.336.75.75v5.75h2.75c.414 0 .75.336.75.75s-.336.75-.75.75z"/><path d="m15.625 19h-1.875c-.414 0-.75-.336-.75-.75v-6.5c0-.414.336-.75.75-.75h1.875c1.31 0 2.375 1.065 2.375 2.375 0 .628-.245 1.2-.645 1.625.4.425.645.997.645 1.625 0 1.31-1.065 2.375-2.375 2.375zm-1.125-1.5h1.125c.482 0 .875-.393.875-.875s-.393-.875-.875-.875h-1.125zm0-3.25h1.125c.482 0 .875-.393.875-.875s-.393-.875-.875-.875h-1.125z"/><path d="m22.052 24h-20.104c-.521 0-1.01-.229-1.344-.629s-.471-.923-.378-1.435l2.636-14.5c.152-.832.876-1.436 1.722-1.436h14.831c.846 0 1.57.604 1.722 1.437l2.636 14.5c.093.511-.044 1.034-.378 1.434s-.823.629-1.343.629zm-17.468-16.5c-.121 0-.224.086-.246.206l-2.636 14.5c-.018.101.026.172.054.205s.09.09.192.09h20.104c.102 0 .164-.057.192-.09s.072-.104.054-.204l-2.636-14.5c-.022-.121-.125-.207-.246-.207z"/><path d="m12 7c-1.93 0-3.5-1.57-3.5-3.5s1.57-3.5 3.5-3.5 3.5 1.57 3.5 3.5-1.57 3.5-3.5 3.5zm0-5.5c-1.103 0-2 .897-2 2s.897 2 2 2 2-.897 2-2-.897-2-2-2z"/></svg>