<svg id="_x31__x2C_5px" enable-background="new 0 0 24 24" height="512" viewBox="0 0 24 24" width="512" xmlns="http://www.w3.org/2000/svg"><path d="m23.25 23.25h-22.5l1.42-2.59c2.36-4.71 3.58-9.65 3.58-14.91h12.5c0 5.26 1.22 10.2 3.58 14.91z" fill="#607d8b"/><path d="m19.25 5.25h-14.5c-.552 0-1-.448-1-1v-.5c0-.552.448-1 1-1h14.5c.552 0 1 .448 1 1v.5c0 .552-.448 1-1 1z" fill="#cfd8dc"/><g fill="#fff"><path d="m11.5 15.79-2.6 3.54c.88.61 1.95.96 3.1.96s2.22-.35 3.1-.96l-2.6-3.54z"/><path d="m12.99 15.35 4.49.38c.01-.14.02-.29.02-.44 0-2.26-1.36-4.2-3.3-5.04l-1.7 4.18z"/><path d="m11.01 15.1-4.49.38c-.01-.14-.02-.29-.02-.44 0-2.26 1.36-4.2 3.3-5.04l1.7 4.18z"/></g><path d="m19.25 6h-14.5c-.965 0-1.75-.785-1.75-1.75v-.5c0-.965.785-1.75 1.75-1.75h14.5c.965 0 1.75.785 1.75 1.75v.5c0 .965-.785 1.75-1.75 1.75zm-14.5-2.5c-.138 0-.25.112-.25.25v.5c0 .138.112.25.25.25h14.5c.138 0 .25-.112.25-.25v-.5c0-.138-.112-.25-.25-.25z"/><path d="m23.25 24h-22.5c-.265 0-.51-.14-.646-.368-.135-.228-.14-.51-.012-.742l1.422-2.595c2.341-4.684 3.486-9.449 3.486-14.545 0-.414.336-.75.75-.75s.75.336.75.75c0 5.26-1.23 10.388-3.657 15.24l-.827 1.51h19.967l-.813-1.484c-2.44-4.878-3.67-10.006-3.67-15.266 0-.414.336-.75.75-.75s.75.336.75.75c0 5.096 1.145 9.861 3.499 14.57l1.409 2.569c.127.232.123.515-.012.742-.136.229-.381.369-.646.369z"/><circle cx="12" cy="15.04" r="1.5"/><path d="m12 21.02c-1.223 0-2.394-.36-3.384-1.042-.167-.115-.281-.294-.314-.494-.034-.201.016-.406.137-.569l2.482-3.358c.141-.191.365-.305.603-.305h.954c.238 0 .462.113.603.305l2.482 3.358c.121.163.17.368.137.569-.034.2-.147.379-.314.494-.992.681-2.163 1.042-3.386 1.042zm-1.854-1.895c1.148.52 2.559.52 3.707 0l-1.755-2.374h-.197z"/><path d="m17.231 16.22c-.021 0-.042-.001-.063-.003l-4.286-.361c-.413-.034-.719-.397-.685-.811.003-.036.009-.071.017-.106-.007-.002-.014-.005-.021-.008-.383-.157-.567-.595-.41-.979l1.623-3.967c.077-.187.225-.334.411-.41s.396-.074.581.006c2.188.943 3.602 3.091 3.602 5.471 0 .16-.01.319-.021.47-.014.2-.107.387-.26.518-.136.116-.31.18-.488.18zm-4.002-1.84 3.254.274c-.122-1.365-.865-2.591-2.002-3.333z"/><path d="m6.769 16.22c-.178 0-.352-.063-.488-.181-.152-.131-.246-.317-.26-.518-.011-.15-.021-.309-.021-.469 0-2.38 1.414-4.527 3.603-5.471.185-.08.394-.082.581-.006.186.076.334.224.411.41l1.623 3.967c.157.384-.027.821-.41.979-.007.003-.014.006-.021.008.008.035.014.07.017.106.035.413-.272.776-.685.811l-4.286.361c-.022.002-.043.003-.064.003zm2.751-4.899c-1.138.742-1.88 1.968-2.002 3.333l3.254-.274z"/></svg>