<svg id="_x31__x2C_5" height="512" viewBox="0 0 24 24" width="512" xmlns="http://www.w3.org/2000/svg"><path d="m5.75 24-.55-1.703c-1.753-3.037-1.928-6.924-.458-10.146 1.181-2.586 1.318-5.621.376-8.327l-1.32-3.821 8.452-.003c.62 1.539 2.271 3.409 3.912 3.67l1.238.2c.495.075.85.486.85.979v.11c0 1.027-.417 2.038-1.144 2.772l-.628.634.733.51c1.902 1.322 3.038 3.425 3.038 5.624 0 3.212-2.323 5.996-5.65 6.77l-.146.038-.729.243c.576 1.604.713 1.324.683 2.449h-8.657z" fill="#ffcc80"/><path d="m13.75 10c-.329 0-.63-.217-.723-.549-.111-.399.123-.813.521-.924l1.57-.437c1.403-.388 2.382-1.676 2.382-3.13v-.106c0-.122-.09-.228-.21-.246l-1.248-.197c-1.899-.301-3.523-1.597-4.238-3.383-.154-.384.033-.82.418-.975.383-.152.821.033.975.418.52 1.297 1.699 2.239 3.08 2.457l1.247.197c.855.136 1.476.862 1.476 1.729v.106c0 2.126-1.431 4.008-3.479 4.576l-1.569.437c-.068.018-.136.027-.202.027z"/><path d="m5.751 24c-.259 0-.511-.134-.65-.374l-.551-.951c-1.874-3.241-2.062-7.394-.489-10.837 1.1-2.407 1.227-5.238.349-7.768l-1.067-3.074c-.136-.392.071-.818.463-.955.389-.13.818.071.955.463l1.067 3.074c1.003 2.892.855 6.129-.402 8.883-1.375 3.009-1.213 6.635.423 9.463l.551.95c.207.358.085.817-.273 1.025-.119.069-.249.101-.376.101z"/><path d="m14.249 24c-.342 0-.65-.235-.73-.582l-.07-.307c-.373-1.616-1.498-2.992-3.009-3.679-.377-.171-.544-.616-.372-.993.172-.378.618-.542.993-.372 1.933.879 3.372 2.639 3.85 4.707l.071.308c.092.404-.16.807-.563.899-.058.013-.114.019-.17.019z"/><path d="m13.829 22.175-.178-1.49c3.334-.398 5.849-3.058 5.849-6.185 0-2.283-1.349-4.387-3.52-5.491l.68-1.338c2.677 1.362 4.34 3.978 4.34 6.829 0 3.886-3.083 7.185-7.171 7.675z"/></svg>