<svg id="_x31__x2C_5" height="512" viewBox="0 0 24 24" width="512" xmlns="http://www.w3.org/2000/svg"><path d="m22.79 8.44-4.18-4.25c-.37-.36-.88-.5-1.36-.41l-5.5 14.84v3.13c0 .38.16.77.46 1.06s.71.44 1.11.44h8.36c.4 0 .81-.15 1.11-.44s.46-.68.46-1.06v-12.25c0-.38-.16-.77-.46-1.06z" fill="#90a4ae"/><path d="m17 3.78c-.08-.02-.16-.03-.25-.03h-6c-.41 0-.79.17-1.06.44l-8.5 8.5c-.27.27-.44.65-.44 1.06s.17.79.44 1.06l6 6c.27.27.65.44 1.06.44s.79-.17 1.06-.44l8.5-8.5c.27-.27.44-.65.44-1.06v-6c0-.74-.54-1.36-1.25-1.47z" fill="#cfd8dc"/><path d="m8.25 22c-.591 0-1.171-.24-1.59-.66l-6-6c-.42-.419-.66-.999-.66-1.59s.24-1.171.66-1.59l8.5-8.5c.419-.42.999-.66 1.59-.66h6c.15 0 .292.017.432.052 1.008.154 1.818 1.104 1.818 2.198v6c0 .591-.24 1.171-.66 1.59l-8.5 8.5c-.419.42-.999.66-1.59.66zm2.5-17.5c-.197 0-.39.08-.53.22l-8.5 8.5c-.14.14-.22.333-.22.53s.08.39.22.53l6 6c.28.28.779.28 1.06 0l8.5-8.5c.14-.14.22-.333.22-.53v-6c0-.361-.265-.675-.615-.729l-.135-.021z"/><path d="m21.68 24h-8.36c-.609 0-1.204-.237-1.631-.651-.438-.423-.689-1.006-.689-1.599v-3.13c0-.414.336-.75.75-.75s.75.336.75.75v3.13c0 .186.086.381.231.521.149.144.369.229.589.229h8.36c.22 0 .44-.085.588-.229.145-.14.231-.335.231-.521v-12.25c0-.186-.086-.381-.231-.521l-4.193-4.263c-.173-.168-.438-.248-.687-.199-.411.075-.8-.192-.875-.599-.076-.407.192-.799.599-.875.731-.138 1.488.091 2.021.61l4.192 4.262c.424.409.675.992.675 1.585v12.25c0 .593-.251 1.176-.688 1.599-.428.414-1.022.651-1.632.651z"/><circle cx="15.5" cy="6.5" r="1.5"/><path d="m21.5 7.25c-.414 0-.75-.336-.75-.75v-2.75c0-1.241-1.009-2.25-2.25-2.25s-2.25 1.009-2.25 2.25v1.75c0 .414-.336.75-.75.75s-.75-.336-.75-.75v-1.75c0-2.068 1.682-3.75 3.75-3.75s3.75 1.682 3.75 3.75v2.75c0 .414-.336.75-.75.75z"/></svg>