<svg id="_x31__x2C_5" height="512" viewBox="0 0 24 24" width="512" xmlns="http://www.w3.org/2000/svg"><g fill="#cfd8dc"><path d="m9.75 13.75h4.5v5h-4.5z"/><path d="m2.75 9.75h4.5v4.5h-4.5z"/><path d="m16.75 13.75h4.5v5h-4.5z"/></g><path d="m21 23.25h-18c-1.243 0-2.25-1.007-2.25-2.25 0-1.243 1.007-2.25 2.25-2.25h18c1.243 0 2.25 1.007 2.25 2.25 0 1.243-1.007 2.25-2.25 2.25z" fill="#607d8b"/><path d="m14.25 19.5h-4.5c-.414 0-.75-.336-.75-.75v-5c0-.414.336-.75.75-.75h4.5c.414 0 .75.336.75.75v5c0 .414-.336.75-.75.75zm-3.75-1.5h3v-3.5h-3z"/><path d="m7.25 15h-4.5c-.414 0-.75-.336-.75-.75v-4.5c0-.414.336-.75.75-.75h4.5c.414 0 .75.336.75.75v4.5c0 .414-.336.75-.75.75zm-3.75-1.5h3v-3h-3z"/><path d="m21.25 19.5h-4.5c-.414 0-.75-.336-.75-.75v-5c0-.414.336-.75.75-.75h4.5c.414 0 .75.336.75.75v5c0 .414-.336.75-.75.75zm-3.75-1.5h3v-3.5h-3z"/><path d="m8.25 10.25c-.414 0-.75-.336-.75-.75v-1.581l-2.5-1.538-2.5 1.538v1.581c0 .414-.336.75-.75.75s-.75-.336-.75-.75v-2c0-.26.135-.502.356-.639l3.25-2c.242-.148.545-.148.787 0l3.25 2c.222.137.357.379.357.639v2c0 .414-.336.75-.75.75z"/><path d="m5 6.25c-.689 0-1.25-.561-1.25-1.25s.561-1.25 1.25-1.25 1.25.561 1.25 1.25-.561 1.25-1.25 1.25zm0-1.5c-.138 0-.25.112-.25.25 0 .275.5.275.5 0 0-.138-.112-.25-.25-.25z"/><path d="m5 5.25c-.414 0-.75-.336-.75-.75v-3.75c0-.414.336-.75.75-.75s.75.336.75.75v3.75c0 .414-.336.75-.75.75z"/><path d="m21 24h-18c-1.654 0-3-1.346-3-3s1.346-3 3-3h18c1.654 0 3 1.346 3 3s-1.346 3-3 3zm-18-4.5c-.827 0-1.5.673-1.5 1.5s.673 1.5 1.5 1.5h18c.827 0 1.5-.673 1.5-1.5s-.673-1.5-1.5-1.5z"/></svg>