<svg id="_x31__x2C_5" height="512" viewBox="0 0 24 24" width="512" xmlns="http://www.w3.org/2000/svg"><path d="m11.75 8v1.25c0 1.105.895 2 2 2h2.5c1.105 0 2-.895 2-2v-3.842c0-1.517-1.133-2.796-2.639-2.978l-14.611-1.68v9.5c5.5.5 11.75-3 11.75-3z" fill="#ffcc80"/><path d="m13.25 18.75v-7.25h3.5v7z" fill="#cfd8dc"/><path d="m22.25 22.199c0-.464-.317-.873-.78-1.007l-2.902-.836c-.689-.198-1.246-.688-1.513-1.329-.321-.771-1.099-1.277-1.964-1.277s-1.642.506-1.964 1.277l-.257.616c-.11.263-.274.502-.482.703-.409.392-.638.925-.638 1.48v.004c0 .785.662 1.421 1.48 1.421h7.926c.604-.001 1.094-.472 1.094-1.052z" fill="#607d8b"/><path d="m16.25 12h-2.5c-1.517 0-2.75-1.233-2.75-2.75v-1.25c0-.414.336-.75.75-.75s.75.336.75.75v1.25c0 .689.561 1.25 1.25 1.25h2.5c.689 0 1.25-.561 1.25-1.25v-3.842c0-1.137-.851-2.097-1.979-2.234l-13.861-1.68c-.411-.05-.704-.423-.654-.834s.432-.707.834-.654l13.861 1.68c1.881.227 3.299 1.828 3.299 3.722v3.842c0 1.517-1.233 2.75-2.75 2.75z"/><path d="m1.751 7c-.242 0-.48-.117-.625-.334-.229-.345-.137-.811.208-1.04l.369-.246c1.867-1.244 4.156-1.551 6.284-.842.393.132.606.556.475.949-.132.393-.552.601-.949.475-1.687-.563-3.499-.319-4.978.666l-.369.246c-.128.085-.272.126-.415.126z"/><path d="m2.856 11.049c-.39 0-.781-.017-1.175-.052-.412-.038-.716-.402-.679-.815.038-.411.385-.719.816-.679 5.178.476 10.476-2.853 10.53-2.886.348-.222.813-.119 1.035.23.223.35.119.813-.23 1.035-.217.139-5.042 3.167-10.297 3.167z"/><path d="m13.25 19.5c-.414 0-.75-.336-.75-.75v-7.25c0-.414.336-.75.75-.75s.75.336.75.75v7.25c0 .414-.336.75-.75.75z"/><path d="m16.75 19.25c-.414 0-.75-.336-.75-.75v-7c0-.414.336-.75.75-.75s.75.336.75.75v7c0 .414-.336.75-.75.75z"/><path d="m21.155 24h-7.926c-1.229 0-2.229-.974-2.229-2.171 0-.758.317-1.494.869-2.024.135-.13.239-.282.311-.451l.255-.615c.44-1.057 1.482-1.739 2.656-1.739 1.173 0 2.216.682 2.656 1.737.181.435.555.762 1.028.897l2.902.837c.779.224 1.323.934 1.323 1.728 0 .993-.827 1.801-1.845 1.801zm-6.064-5.5c-.558 0-1.068.327-1.271.815l-.256.615c-.15.359-.37.68-.653.954-.266.255-.41.588-.41.94 0 .374.327.675.729.675h7.926c.19 0 .345-.135.345-.301 0-.13-.096-.245-.237-.286l-2.903-.837c-.913-.263-1.642-.905-1.997-1.762-.208-.493-.707-.813-1.273-.813z"/></svg>