<?xml version="1.0" encoding="iso-8859-1"?>
<!-- Generator: Adobe Illustrator 19.0.0, SVG Export Plug-In . SVG Version: 6.00 Build 0)  -->
<svg version="1.1" id="Capa_1" xmlns="http://www.w3.org/2000/svg" xmlns:xlink="http://www.w3.org/1999/xlink" x="0px" y="0px"
	 viewBox="0 0 512 512" style="enable-background:new 0 0 512 512;" xml:space="preserve">
<path style="fill:#455A64;" d="M400.16,0h-288c-17.673,0-32,14.327-32,32v448c0,17.673,14.327,32,32,32h288
	c17.673,0,32-14.327,32-32V32C432.16,14.327,417.833,0,400.16,0z M400.16,64v352h-288V64H400.16z"/>
<rect x="111.84" y="64.32" style="fill:#FAFAFA;" width="288" height="352"/>
<path d="M399.84,512h-288c-17.673,0-32-14.327-32-32V32c0-17.673,14.327-32,32-32h288c17.673,0,32,14.327,32,32v448
	C431.84,497.673,417.513,512,399.84,512z M111.84,32v448h288V32H111.84z"/>
<rect x="95.84" y="416" width="320" height="32"/>
<rect x="95.84" y="64" width="320" height="32"/>
<path style="fill:#2196F3;" d="M223.84,256h-64c-8.837,0-16-7.163-16-16v-64c0-8.837,7.163-16,16-16h64c8.837,0,16,7.163,16,16v64
	C239.84,248.837,232.677,256,223.84,256z M175.84,224h32v-32h-32V224z"/>
<path d="M351.84,256h-64c-8.837,0-16-7.163-16-16v-64c0-8.837,7.163-16,16-16h64c8.837,0,16,7.163,16,16v64
	C367.84,248.837,360.677,256,351.84,256z M303.84,224h32v-32h-32V224z"/>
<path d="M223.84,384h-64c-8.837,0-16-7.163-16-16v-64c0-8.837,7.163-16,16-16h64c8.837,0,16,7.163,16,16v64
	C239.84,376.837,232.677,384,223.84,384z M175.84,352h32v-32h-32V352z"/>
<rect x="271.84" y="288" width="32" height="32"/>
<path d="M351.84,384h-48v-32h32v-32h32v48C367.84,376.837,360.677,384,351.84,384z"/>
<g>
</g>
<g>
</g>
<g>
</g>
<g>
</g>
<g>
</g>
<g>
</g>
<g>
</g>
<g>
</g>
<g>
</g>
<g>
</g>
<g>
</g>
<g>
</g>
<g>
</g>
<g>
</g>
<g>
</g>
</svg>
