<svg enable-background="new 0 0 24 24" height="512" viewBox="0 0 24 24" width="512" xmlns="http://www.w3.org/2000/svg"><path d="m12 0c-6.617 0-12 5.383-12 12s5.383 12 12 12 12-5.383 12-12-5.383-12-12-12z" fill="#ffc107"/><circle cx="12" cy="18" r="1"/><path d="m12 24c-6.617 0-12-5.383-12-12s5.383-12 12-12 12 5.383 12 12-5.383 12-12 12zm0-22.5c-5.79 0-10.5 4.71-10.5 10.5s4.71 10.5 10.5 10.5 10.5-4.71 10.5-10.5-4.71-10.5-10.5-10.5z"/><path d="m12 14.75c-.414 0-.75-.336-.75-.75v-1.01c0-.952.604-1.806 1.502-2.122 1.195-.421 1.998-1.693 1.998-2.618 0-1.517-1.233-2.75-2.75-2.75s-2.75 1.233-2.75 2.75c0 .414-.336.75-.75.75s-.75-.336-.75-.75c0-2.344 1.906-4.25 4.25-4.25s4.25 1.906 4.25 4.25c0 1.669-1.317 3.44-2.999 4.032-.3.106-.501.391-.501.708v1.01c0 .414-.336.75-.75.75z"/></svg>