<?xml version="1.0" encoding="iso-8859-1"?>
<!-- Generator: Adobe Illustrator 19.0.0, SVG Export Plug-In . SVG Version: 6.00 Build 0)  -->
<svg version="1.1" id="Capa_1" xmlns="http://www.w3.org/2000/svg" xmlns:xlink="http://www.w3.org/1999/xlink" x="0px" y="0px"
	 viewBox="0 0 511.946 511.946" style="enable-background:new 0 0 511.946 511.946;" xml:space="preserve">
<path style="fill:#F44336;" d="M399.917,255.973h-32l64,64l64-64h-32v-16c-0.229-114.78-93.22-207.771-208-208v64
	c79.478,0.123,143.877,64.522,144,144V255.973z"/>
<path d="M431.917,335.973c-4.246,0.008-8.322-1.673-11.328-4.672l-64-64c-6.256-6.24-6.269-16.371-0.029-22.627
	c3.009-3.016,7.096-4.708,11.357-4.701h16c0-70.692-57.308-128-128-128c-8.837,0-16-7.163-16-16v-64c0-8.837,7.163-16,16-16
	c123.646,0.159,223.841,100.354,224,224h16c8.837-0.016,16.013,7.135,16.029,15.971c0.008,4.26-1.684,8.348-4.701,11.357l-64,64
	C440.239,334.3,436.164,335.98,431.917,335.973z M405.549,270.981l26.368,26.368l26.368-26.368
	c-6.249-2.35-10.381-8.332-10.368-15.008v-16c-0.124-99.786-76.571-182.891-176-191.328v32c81.75,8.335,143.948,77.154,144,159.328
	v16C415.931,262.649,411.798,268.631,405.549,270.981z"/>
<path style="fill:#F44336;" d="M165.677,115.173l16,27.744l23.424-87.456l-87.424-23.488l16,27.712l-13.856,8
	C20.457,125.291-13.586,252.42,43.693,351.973l55.424-32c-39.695-68.911-16.118-156.95,52.704-196.8L165.677,115.173z"/>
<path d="M43.693,367.973c-1.394-0.005-2.781-0.188-4.128-0.544c-4.056-1.126-7.505-3.805-9.6-7.456
	C-31.747,252.807,4.91,115.911,111.917,53.925l-8-13.888c-4.422-7.65-1.805-17.437,5.845-21.859
	c3.683-2.129,8.063-2.704,12.171-1.597l87.424,23.424c8.538,2.277,13.614,11.044,11.337,19.582
	c-0.003,0.011-0.006,0.022-0.009,0.034l-23.552,87.552c-1.68,6.25-6.959,10.872-13.376,11.712c-6.437,0.867-12.759-2.244-16-7.872
	l-7.84-13.952c-61.127,35.417-82.079,113.613-46.848,174.848c4.418,7.652,1.796,17.438-5.856,21.856l-55.424,32
	C49.341,367.221,46.542,367.984,43.693,367.973z M149.453,57.125c1.081,6.566-2.016,13.116-7.776,16.448l-13.76,8.032
	C41.551,131.618,7.803,239.393,50.221,329.733l27.808-16c-33.664-74.946-5.21-163.211,65.888-204.384l13.856-8
	c3.667-2.13,8.029-2.717,12.128-1.632c2.214,0.64,4.273,1.73,6.048,3.2l9.6-36.064L149.453,57.125z"/>
<path style="fill:#F44336;" d="M165.933,388.773l16-27.712l-87.424,23.424l23.424,87.424l16-27.712l13.856,8
	c99.515,57.189,226.538,23.155,284.128-76.128l-55.424-32c-39.835,68.78-127.817,92.353-196.704,52.704L165.933,388.773z"/>
<path d="M251.405,495.973c-39.198,0.019-77.704-10.325-111.616-29.984l-8.032,13.984c-3.197,5.676-9.553,8.803-16,7.872
	c-6.426-0.844-11.707-5.482-13.376-11.744l-23.392-87.424c-2.295-8.533,2.761-17.312,11.294-19.607
	c0.011-0.003,0.022-0.006,0.034-0.009l87.488-23.488c8.543-2.258,17.299,2.838,19.557,11.381c1.078,4.079,0.501,8.419-1.605,12.075
	l-7.968,13.856c61.231,35.33,139.509,14.334,174.839-46.897c0.003-0.005,0.006-0.01,0.009-0.015
	c4.418-7.652,14.204-10.274,21.856-5.856l55.424,32c7.652,4.418,10.274,14.204,5.856,21.856
	C405.692,453.396,331.568,496.108,251.405,495.973z M133.933,428.197c2.804,0.004,5.56,0.731,8,2.112l13.856,8
	c86.489,49.72,196.633,25.104,253.728-56.704l-27.808-16c-48.081,66.579-138.706,86.047-209.888,45.088l-13.856-7.968
	c-3.664-2.088-6.355-5.538-7.488-9.6c-0.569-2.227-0.678-4.546-0.32-6.816l-36.032,9.6l9.632,36.064
	C126.615,429.583,130.208,428.25,133.933,428.197z"/>
<g>
</g>
<g>
</g>
<g>
</g>
<g>
</g>
<g>
</g>
<g>
</g>
<g>
</g>
<g>
</g>
<g>
</g>
<g>
</g>
<g>
</g>
<g>
</g>
<g>
</g>
<g>
</g>
<g>
</g>
</svg>
