<svg id="_x31__x2C_5" enable-background="new 0 0 24 24" height="512" viewBox="0 0 24 24" width="512" xmlns="http://www.w3.org/2000/svg"><path d="m18.329 15.315h-12.658c-.355 0-.653-.272-.683-.626l-.502-5.772c-.185-2.115.53-4.224 1.96-5.786 1.424-1.555 3.448-2.446 5.554-2.446 2.105 0 4.127.89 5.55 2.441 1.431 1.561 2.148 3.671 1.964 5.79l-.502 5.772c-.03.355-.327.627-.683.627z" fill="#2196f3"/><path d="m23.25 24h-22.5v-5.75c0-1.657 1.343-3 3-3h16.5c1.657 0 3 1.343 3 3z" fill="#607d8b"/><g fill="#fff"><path d="m9 10.314c-.724 0-1.314-.589-1.314-1.314s.59-1.314 1.314-1.314 1.314.59 1.314 1.314-.59 1.314-1.314 1.314z"/><path d="m15 10.5c-.827 0-1.5-.673-1.5-1.5s.673-1.5 1.5-1.5 1.5.673 1.5 1.5-.673 1.5-1.5 1.5z"/><path d="m10.25 24h-5.75v-3.612c0-.352.276-.638.616-.638h4.518c.34 0 .616.285.616.638z"/></g><path d="m23.25 24c-.414 0-.75-.336-.75-.75v-5c0-1.241-1.01-2.25-2.25-2.25h-16.5c-1.24 0-2.25 1.009-2.25 2.25v5c0 .414-.336.75-.75.75s-.75-.336-.75-.75v-5c0-2.068 1.683-3.75 3.75-3.75h16.5c2.067 0 3.75 1.682 3.75 3.75v5c0 .414-.336.75-.75.75z"/><path d="m18.923 16c-.021 0-.044-.001-.066-.003-.412-.036-.718-.399-.682-.812l.549-6.313c.167-1.928-.458-3.771-1.759-5.189-1.292-1.408-3.055-2.183-4.965-2.183-1.911 0-3.675.777-4.968 2.188-1.301 1.419-1.924 3.26-1.756 5.184l.549 6.313c.036.413-.27.776-.682.812-.418.041-.776-.27-.813-.682l-.548-6.313c-.202-2.313.579-4.62 2.144-6.328 1.557-1.699 3.771-2.674 6.074-2.674 2.302 0 4.514.973 6.07 2.669 1.565 1.707 2.349 4.015 2.147 6.333l-.549 6.313c-.033.391-.36.685-.745.685z"/><path d="m9 11c-1.103 0-2-.897-2-2s.897-2 2-2 2 .897 2 2-.897 2-2 2zm0-2.5c-.275 0-.5.224-.5.5s.225.5.5.5.5-.224.5-.5-.225-.5-.5-.5z"/><path d="m15 11c-1.103 0-2-.897-2-2s.897-2 2-2 2 .897 2 2-.897 2-2 2zm0-2.5c-.275 0-.5.224-.5.5s.225.5.5.5.5-.224.5-.5-.225-.5-.5-.5z"/><path d="m23.25 10h-3.54c-.414 0-.75-.336-.75-.75s.336-.75.75-.75h3.54c.414 0 .75.336.75.75s-.336.75-.75.75z"/><path d="m4.29 10h-3.54c-.414 0-.75-.336-.75-.75s.336-.75.75-.75h3.54c.414 0 .75.336.75.75s-.336.75-.75.75z"/><path d="m10.25 24c-.414 0-.75-.336-.75-.75v-2.75h-4v2.75c0 .414-.336.75-.75.75s-.75-.336-.75-.75v-3.5c0-.414.336-.75.75-.75h5.5c.414 0 .75.336.75.75v3.5c0 .414-.336.75-.75.75z"/><path d="m19.25 20h-4.5c-.414 0-.75-.336-.75-.75s.336-.75.75-.75h4.5c.414 0 .75.336.75.75s-.336.75-.75.75z"/><path d="m19.25 23h-4.5c-.414 0-.75-.336-.75-.75s.336-.75.75-.75h4.5c.414 0 .75.336.75.75s-.336.75-.75.75z"/></svg>