<svg id="_x31__x2C_5_px" enable-background="new 0 0 24 24" height="512" viewBox="0 0 24 24" width="512" xmlns="http://www.w3.org/2000/svg"><g><path d="m15.369 1.51-13.849 13.849c-.332.332-.516.771-.509 1.245 0 .467.184.905.509 1.23l4.657 4.907c.332.332.771.516 1.237.516.467 0 .905-.184 1.237-.516l13.849-13.85c.325-.325.509-.764.509-1.23s-.176-.912-.509-1.245l-4.656-4.906c-.658-.658-1.818-.658-2.475 0z" fill="#ffc107"/></g><g><path d="m19.778 12.043c-.192 0-.384-.073-.53-.22l-1.415-1.414c-.293-.292-.293-.768 0-1.061s.768-.293 1.061 0l1.415 1.414c.293.292.293.768 0 1.061-.147.147-.339.22-.531.22z"/></g><g><path d="m17.657 14.164c-.192 0-.384-.073-.53-.22l-1.414-1.414c-.293-.293-.293-.768 0-1.061s.768-.293 1.061 0l1.414 1.414c.293.293.293.768 0 1.061-.147.147-.339.22-.531.22z"/></g><g><path d="m13.414 18.407c-.192 0-.384-.073-.53-.22l-1.414-1.414c-.293-.293-.293-.768 0-1.061s.768-.293 1.061 0l1.414 1.414c.293.293.293.768 0 1.061-.147.146-.339.22-.531.22z"/></g><g><path d="m11.293 20.528c-.192 0-.384-.073-.53-.22l-1.414-1.415c-.293-.293-.293-.768 0-1.061s.768-.293 1.061 0l1.414 1.415c.293.293.293.768 0 1.061-.147.147-.339.22-.531.22z"/></g><g><path d="m21.899 9.921c-.192 0-.384-.073-.53-.22l-2.828-2.828c-.293-.293-.293-.768 0-1.061s.768-.293 1.061 0l2.828 2.828c.293.293.293.768 0 1.061-.147.147-.339.22-.531.22z"/></g><g><path d="m9.171 22.649c-.192 0-.384-.073-.53-.22l-2.828-2.828c-.293-.293-.293-.768 0-1.061s.768-.293 1.061 0l2.828 2.828c.293.293.293.768 0 1.061-.147.147-.339.22-.531.22z"/></g><g><path d="m15.536 16.286c-.192 0-.384-.073-.53-.22l-2.829-2.829c-.293-.293-.293-.768 0-1.061s.768-.293 1.061 0l2.829 2.829c.293.293.293.768 0 1.061-.148.146-.339.22-.531.22z"/></g><g><path d="m7.404 24.003c-.467 0-.907-.182-1.237-.513l-5.657-5.657c-.331-.331-.513-.77-.513-1.237s.182-.907.513-1.237l14.849-14.849c.661-.661 1.813-.661 2.475 0l5.657 5.657c.331.331.513.77.513 1.237s-.182.907-.513 1.237l-14.85 14.849c-.33.331-.77.513-1.237.513zm9.192-22.506c-.064 0-.128.024-.177.073l-14.849 14.849c-.097.098-.097.256 0 .354l5.657 5.657c.098.098.256.098.354 0l14.849-14.849c.097-.098.097-.256 0-.354l-5.657-5.657c-.049-.049-.113-.073-.177-.073z"/></g></svg>