<svg id="_x31__x2C_5" enable-background="new 0 0 24 24" height="512" viewBox="0 0 24 24" width="512" xmlns="http://www.w3.org/2000/svg"><g><path d="m22.08 2.22-1.93 4.39.65 2.42.13.48c.14.54-.17 1.08-.71 1.23l-13.52 3.62c-1.07.29-2.16-.35-2.45-1.41l-1.29-4.83c-.29-1.07.34-2.17 1.41-2.45l18.35-4.92z" fill="#2196f3"/></g><g><path d="m21.77 8.77-.97.26-.65-2.42 1.93-4.39 1.1 4.1c.29 1.07-.35 2.17-1.41 2.45z" fill="#607d8b"/></g><g><path d="m13.971 13.515-.259-.966-4.83 1.294.259.966c.143.534.691.85 1.225.707l2.898-.776c.533-.143.85-.691.707-1.225z" fill="#607d8b"/></g><g><path d="m2.25 23.25h-1.5v-7.5h1.5c.552 0 1 .448 1 1v5.5c0 .552-.448 1-1 1z" fill="#607d8b"/></g><g><path d="m6.185 15.18c-1.215 0-2.329-.812-2.658-2.039l-1.295-4.829c-.19-.71-.092-1.452.276-2.087.367-.637.96-1.092 1.67-1.281l18.352-4.918c.28-.073.575.018.763.235.188.219.234.526.118.79l-2.463 5.624.708 2.644c.249.933-.306 1.895-1.238 2.144l-13.523 3.623c-.238.063-.476.094-.71.094zm15.225-13.302-16.845 4.515c-.323.086-.591.293-.758.582s-.212.626-.125.948l1.294 4.829c.178.666.86 1.066 1.531.885l13.522-3.624c.134-.035.213-.173.177-.307l-.776-2.896c-.044-.165-.03-.339.038-.495z"/></g><g><path d="m3.475 10.799c-.332 0-.635-.221-.725-.556-.107-.4.131-.812.53-.919l7.245-1.941c.192-.05.396-.025.569.075l.956.552 7.91-2.119c.41-.108.812.132.919.53.107.4-.131.812-.53.919l-8.211 2.199c-.193.05-.397.023-.569-.075l-.955-.552-6.944 1.861c-.066.018-.132.026-.195.026z"/></g><g><path d="m20.801 9.779c-.332 0-.635-.221-.725-.556-.107-.4.131-.812.53-.919l.967-.259c.666-.178 1.062-.864.884-1.531l-1.101-4.104c-.107-.4.13-.812.53-.919.409-.108.812.132.919.53l1.101 4.105c.392 1.466-.481 2.977-1.945 3.368l-.966.259c-.065.018-.131.026-.194.026z"/></g><g><path d="m10.108 16.301c-.773 0-1.482-.517-1.691-1.298l-.259-.966c-.107-.4.131-.812.53-.919.409-.107.812.131.919.53l.259.967c.035.134.175.215.307.177l2.896-.776c.133-.035.213-.173.177-.307l-.259-.966c-.107-.4.131-.812.53-.919.408-.109.812.132.919.53l.259.966c.25.932-.305 1.894-1.236 2.145l-2.898.776c-.152.04-.303.06-.453.06z"/></g><g><path d="m2.25 24h-1.5c-.414 0-.75-.336-.75-.75v-7.5c0-.414.336-.75.75-.75h1.5c.965 0 1.75.785 1.75 1.75v5.5c0 .965-.785 1.75-1.75 1.75zm-.75-1.5h.75c.138 0 .25-.112.25-.25v-5.5c0-.138-.112-.25-.25-.25h-.75z"/></g><g><path d="m12.01 20.25h-8.51c-.414 0-.75-.336-.75-.75s.336-.75.75-.75h8.51c.414 0 .75.336.75.75s-.336.75-.75.75z"/></g><g><circle cx="13" cy="19.5" r="1.5"/></g><g><path d="m12.74 19.29c-.329 0-.631-.218-.723-.551l-.94-3.41c-.11-.399.124-.812.523-.922.399-.112.812.124.922.523l.94 3.41c.11.399-.124.812-.523.922-.066.019-.133.028-.199.028z"/></g></svg>