<svg id="_x31__x2C_5" enable-background="new 0 0 24 24" height="512" viewBox="0 0 24 24" width="512" xmlns="http://www.w3.org/2000/svg"><path d="m13.741 23.25c-.642 0-1.284-.24-1.776-.722l-10.457-10.246c-.486-.476-.764-1.139-.762-1.819l.019-8.081c.002-.889.728-1.615 1.617-1.617l8.081-.019c.652.033 1.343.276 1.819.762l10.246 10.457c.97.99.962 2.592-.018 3.572l-6.973 6.973c-.493.493-1.145.74-1.796.74z" fill="#2196f3"/><path d="m5 6.25c-.689 0-1.25-.561-1.25-1.25s.561-1.25 1.25-1.25 1.25.561 1.25 1.25-.561 1.25-1.25 1.25z" fill="#fff"/><path d="m13.857 23.997c-.685 0-1.37-.256-1.894-.77l-11.15-10.926c-.519-.507-.815-1.215-.813-1.94l.021-8.617c.002-.948.776-1.722 1.724-1.724l8.616-.02c.695.035 1.432.294 1.94.813l10.925 11.15c1.034 1.056 1.025 2.764-.02 3.809l-7.436 7.436c-.524.525-1.219.789-1.913.789zm-3.488-22.497c-.001 0-.002 0-.003 0l-8.617.021c-.125 0-.228.103-.228.228l-.021 8.616c-.001.323.131.638.362.865l11.15 10.925c.47.46 1.232.458 1.698-.009l7.436-7.436c.466-.466.47-1.228.009-1.698l-10.925-11.15c-.226-.23-.54-.362-.861-.362z"/><path d="m5 7c-1.103 0-2-.897-2-2s.897-2 2-2 2 .897 2 2-.897 2-2 2zm0-2.5c-.276 0-.5.224-.5.5s.224.5.5.5.5-.224.5-.5-.224-.5-.5-.5z"/><path d="m13.591 14.117c-.192 0-.384-.073-.53-.22l-1.768-1.768c-.293-.293-.293-.768 0-1.061s.768-.293 1.061 0l1.768 1.768c.293.293.293.768 0 1.061-.147.147-.339.22-.531.22z"/><path d="m12 15.708c-.192 0-.384-.073-.53-.22l-1.061-1.061c-.683-.682-.683-1.793 0-2.475l1.768-1.768c.662-.661 1.815-.661 2.475 0l1.061 1.06c.293.292.293.768 0 1.061s-.768.293-1.061 0l-1.061-1.061c-.128-.128-.226-.128-.354 0l-1.768 1.768c-.098.098-.098.256 0 .354l1.061 1.061c.293.293.293.768 0 1.061-.146.147-.338.22-.53.22z"/><path d="m15.535 18.829c-.448 0-.896-.171-1.237-.512l-.354-.354c-.683-.682-.683-1.793 0-2.475l1.768-1.768c.683-.683 1.792-.683 2.475 0l.354.354c.682.682.682 1.792 0 2.475l-1.768 1.768c-.341.341-.79.512-1.238.512zm1.415-4.121c-.064 0-.128.024-.177.073l-1.768 1.768c-.098.098-.098.256 0 .354l.354.354c.098.097.255.097.354 0l1.767-1.768c.097-.098.097-.256 0-.354l-.354-.354c-.048-.049-.112-.073-.176-.073z"/><path d="m8.438 11.725c-.473 0-.911-.179-1.24-.508l-1.031-1.031c-.293-.293-.293-.768 0-1.061s.768-.293 1.061 0l1.031 1.031c.061.06.132.063.195.069.058-.002.17-.022.276-.128.143-.144.17-.36.058-.472l-.294-.294c-.698-.699-.672-1.862.058-2.593.732-.73 1.896-.756 2.593-.059l1.031 1.031c.293.293.293.768 0 1.061s-.768.293-1.061 0l-1.03-1.031c-.113-.111-.328-.084-.472.059-.143.143-.17.359-.058.471l.294.294c.698.699.672 1.862-.059 2.593-.346.347-.8.547-1.279.566-.025.001-.049.002-.073.002z"/></svg>