<?xml version="1.0" encoding="iso-8859-1"?>
<!-- Generator: Adobe Illustrator 19.0.0, SVG Export Plug-In . SVG Version: 6.00 Build 0)  -->
<svg version="1.1" id="Capa_1" xmlns="http://www.w3.org/2000/svg" xmlns:xlink="http://www.w3.org/1999/xlink" x="0px" y="0px"
	 viewBox="0 0 512 512" style="enable-background:new 0 0 512 512;" xml:space="preserve">
<g>
	<path style="fill:#607D8B;" d="M208,0h64c8.837,0,16,7.163,16,16v64c0,8.837-7.163,16-16,16h-64c-8.837,0-16-7.163-16-16V16
		C192,7.163,199.163,0,208,0z"/>
	<path style="fill:#607D8B;" d="M336,0h63.968c8.837,0,16,7.163,16,16v64c0,8.837-7.163,16-16,16H336c-8.837,0-16-7.163-16-16V16
		C320,7.163,327.163,0,336,0z"/>
	<path style="fill:#607D8B;" d="M80,256h64c8.837,0,16,7.163,16,16v64c0,8.837-7.163,16-16,16H80c-8.837,0-16-7.163-16-16v-64
		C64,263.163,71.163,256,80,256z"/>
</g>
<path style="fill:#FFC107;" d="M432,64H112C50.144,64,0,114.144,0,176v96c0,8.837,7.163,16,16,16h224c8.837,0,16-7.163,16-16v-48
	c0-17.673,14.327-32,32-32s32,14.327,32,32v208c0,8.837,7.163,16,16,16h160c8.837,0,16-7.163,16-16V144
	C512,99.817,476.183,64,432,64z"/>
<path style="fill:#FAFAFA;" d="M416,224c-26.51,0-48-21.49-48-48s21.49-48,48-48s48,21.49,48,48S442.51,224,416,224z"/>
<path style="fill:#455A64;" d="M16,416h480c8.837,0,16,7.163,16,16v64c0,8.837-7.163,16-16,16H16c-8.837,0-16-7.163-16-16v-64
	C0,423.163,7.163,416,16,416z"/>
<path d="M496,448c-8.837,0-16-7.163-16-16V144c0-26.51-21.49-48-48-48H112c-44.183,0-80,35.817-80,80v80h192v-32
	c0-35.346,28.654-64,64-64s64,28.654,64,64v208c0,8.837-7.163,16-16,16s-16-7.163-16-16V224c0-17.673-14.327-32-32-32
	s-32,14.327-32,32v48c0,8.837-7.163,16-16,16H16c-8.837,0-16-7.163-16-16v-96C0,114.144,50.144,64,112,64h320
	c44.183,0,80,35.817,80,80v288C512,440.837,504.837,448,496,448z"/>
<path d="M144,352H80c-8.837,0-16-7.163-16-16v-64c0-8.837,7.163-16,16-16h64c8.837,0,16,7.163,16,16v64
	C160,344.837,152.837,352,144,352z M96,320h32v-32H96V320z"/>
<path d="M112,384c-8.837,0-16-7.163-16-16v-32c0-8.837,7.163-16,16-16s16,7.163,16,16v32C128,376.837,120.837,384,112,384z"/>
<path d="M272,96h-64c-8.837,0-16-7.163-16-16V16c0-8.837,7.163-16,16-16h64c8.837,0,16,7.163,16,16v64C288,88.837,280.837,96,272,96
	z M224,64h32V32h-32V64z"/>
<path d="M400,96h-64c-8.837,0-16-7.163-16-16V16c0-8.837,7.163-16,16-16h64c8.837,0,16,7.163,16,16v64C416,88.837,408.837,96,400,96
	z M352,64h32V32h-32V64z"/>
<path d="M416,224c-26.51,0-48-21.49-48-48s21.49-48,48-48s48,21.49,48,48S442.51,224,416,224z M416,160c-8.837,0-16,7.163-16,16
	s7.163,16,16,16s16-7.163,16-16S424.837,160,416,160z"/>
<path d="M496,512H16c-8.837,0-16-7.163-16-16v-64c0-8.837,7.163-16,16-16h480c8.837,0,16,7.163,16,16v64
	C512,504.837,504.837,512,496,512z M32,480h448v-32H32V480z"/>
<g>
</g>
<g>
</g>
<g>
</g>
<g>
</g>
<g>
</g>
<g>
</g>
<g>
</g>
<g>
</g>
<g>
</g>
<g>
</g>
<g>
</g>
<g>
</g>
<g>
</g>
<g>
</g>
<g>
</g>
</svg>
