<svg enable-background="new 0 0 24 24" height="512" viewBox="0 0 24 24" width="512" xmlns="http://www.w3.org/2000/svg"><g id="Color"><g><g><path d="m21 10.455c0-5.076-4.037-9.207-9-9.207s-9 4.131-9 9.207c0 1.348.292 2.695.847 3.913-.437 1.486-.098 3.089.915 4.249.827.949 2.014 1.493 3.257 1.493h.24v1.55c0 .875.696 1.587 1.551 1.587h4.381c.855 0 1.551-.712 1.551-1.587v-1.55h.17c1.287 0 2.517-.564 3.374-1.546 1.042-1.195 1.396-2.847.954-4.379.504-1.182.76-2.436.76-3.73z" fill="#eceff1"/></g></g><g><g><circle cx="15.5" cy="14.572" fill="#90a4ae" r="1.822"/></g></g><g><g><circle cx="8.5" cy="14.55" fill="#90a4ae" r="1.822"/></g></g></g><g id="_x31_.5"><g><g><path d="m3.744 15.039c-.274 0-.539-.15-.67-.412-.703-1.394-1.074-2.959-1.074-4.524 0-5.514 4.486-10 10-10s10 4.486 10 10c0 1.496-.322 2.943-.957 4.3-.175.375-.621.537-.997.362-.375-.176-.537-.622-.361-.997.541-1.157.815-2.39.815-3.665 0-4.687-3.813-8.5-8.5-8.5s-8.5 3.813-8.5 8.5c0 1.333.316 2.664.913 3.849.186.37.038.821-.333 1.008-.107.054-.223.079-.336.079z"/></g></g><g><g><path d="m14.434 23.997h-4.868c-.95 0-1.724-.773-1.724-1.724v-1.683h-.266c-1.381 0-2.7-.591-3.619-1.622-1.545-1.729-1.646-4.324-.24-6.169l.68-.892c.857-1.127.941-2.639.213-3.853-.214-.355-.098-.816.257-1.029.354-.213.816-.098 1.029.257 1.046 1.743.926 3.915-.306 5.533l-.68.892c-.971 1.275-.901 3.067.166 4.262.636.713 1.547 1.121 2.5 1.121h1.016c.414 0 .75.336.75.75v2.434c0 .123.1.224.224.224h4.868c.124 0 .224-.101.224-.224v-2.434c0-.414.336-.75.75-.75h.938c1.003 0 1.961-.43 2.629-1.178 1.069-1.198 1.194-2.967.303-4.303l-.606-.909c-1.048-1.572-1.254-3.557-.553-5.311.154-.384.591-.571.975-.417s.571.59.417.975c-.518 1.294-.365 2.76.408 3.921l.606.909c1.27 1.904 1.092 4.426-.432 6.133-.952 1.067-2.318 1.68-3.749 1.68h-.188v1.684c.002.95-.772 1.723-1.722 1.723z"/></g></g><g><g><path d="m15.5 17.072c-1.378 0-2.5-1.121-2.5-2.5 0-1.378 1.122-2.5 2.5-2.5s2.5 1.122 2.5 2.5c0 1.379-1.122 2.5-2.5 2.5zm0-3.499c-.551 0-1 .448-1 .999 0 .552.449 1 1 1s1-.448 1-1c0-.551-.449-.999-1-.999z"/></g></g><g><g><path d="m8.5 17.05c-1.378 0-2.5-1.121-2.5-2.5s1.122-2.5 2.5-2.5 2.5 1.121 2.5 2.5-1.122 2.5-2.5 2.5zm0-3.5c-.551 0-1 .448-1 1s.449 1 1 1 1-.448 1-1-.449-1-1-1z"/></g></g><g><g><path d="m12 19.925c-1.392 0-1.5-.957-1.5-1.25 0-.698.515-2 1.5-2s1.5 1.302 1.5 2c0 .293-.108 1.25-1.5 1.25zm0-1.25h.75z"/></g></g></g></svg>