<svg id="_x31__x2C_5" height="512" viewBox="0 0 24 24" width="512" xmlns="http://www.w3.org/2000/svg"><path d="m22.764 15.557c-.01-.545-.455-.982-1-.982h-11.31c-.377 0-.689-.249-.689-.548v-1.447l-8.455 1.407c-.365.055-.609.331-.553.623l.459 2.377c.031.161.151.303.326.387l.648.548c.292.138.667.088.883-.119l.941-.9h1.605l.714.853c.13.153.345.244.575.244h11.352c.261 0 .5-.117.616-.304l.498-.793h1.502l.714.853c.134.158.352.244.575.244.131 0 .264-.03.382-.092 0 0 .246-.638.246-.822z" fill="#607d8b"/><path d="m14.519 11.79c-.124-.037-.257-.05-.39-.031l-4.302.574v1.449c0 .256.301.468.664.468h9.093z" fill="#eceff1"/><path d="m20.5 19.5c-.827 0-1.5-.673-1.5-1.5s.673-1.5 1.5-1.5 1.5.673 1.5 1.5-.673 1.5-1.5 1.5z" fill="#90a4ae"/><path d="m5 19.417c-.781 0-1.417-.636-1.417-1.417s.636-1.417 1.417-1.417 1.417.636 1.417 1.417-.636 1.417-1.417 1.417z" fill="#90a4ae"/><path d="m20.25 6c-.414 0-.75-.336-.75-.75v-3.25c0-.275-.225-.5-.5-.5s-.5.225-.5.5v3.25c0 .414-.336.75-.75.75s-.75-.336-.75-.75v-3.25c0-1.103.897-2 2-2s2 .897 2 2v3.25c0 .414-.336.75-.75.75z"/><path d="m20.25 4.5h-2.5c-.414 0-.75-.336-.75-.75s.336-.75.75-.75h2.5c.414 0 .75.336.75.75s-.336.75-.75.75z"/><path d="m23.25 6c-.414 0-.75-.336-.75-.75v-4.5c0-.414.336-.75.75-.75s.75.336.75.75v4.5c0 .414-.336.75-.75.75z"/><path d="m22.501 19c-.242 0-.48-.117-.625-.334l-.777-1.166h-1.635l-.543 1.085c-.127.255-.387.415-.671.415h-11c-.251 0-.485-.125-.624-.334l-.777-1.166h-1.747l-1.025 1.23c-.238.283-.646.35-.962.163l-1.25-.75c-.191-.115-.321-.31-.355-.529l-.5-3.25c-.062-.399.205-.776.603-.852l13.25-2.5c.145-.027.298-.012.437.049l9.25 4c.272.12.45.39.45.689v2c0 .251-.125.485-.334.624l-.75.5c-.128.085-.272.126-.415.126zm-14.85-1.5h10.135l.543-1.085c.127-.255.387-.415.671-.415h2.5c.251 0 .485.125.624.334l.376.563v-.654l-8.587-3.714-12.311 2.324.336 2.186.397.238.839-1.007c.142-.171.353-.27.576-.27h2.5c.251 0 .485.125.624.334z"/><path d="m19.63 15h-9.88c-.414 0-.75-.336-.75-.75v-1.42c0-.414.336-.75.75-.75s.75.336.75.75v.67h9.13c.414 0 .75.336.75.75s-.336.75-.75.75z"/><path d="m5 20c-1.103 0-2-.897-2-2s.897-2 2-2 2 .897 2 2-.897 2-2 2zm0-2.5c-.275 0-.5.225-.5.5s.225.5.5.5.5-.225.5-.5-.225-.5-.5-.5z"/><path d="m20.5 20c-1.103 0-2-.897-2-2s.897-2 2-2 2 .897 2 2-.897 2-2 2zm0-2.5c-.275 0-.5.225-.5.5s.225.5.5.5.5-.225.5-.5-.225-.5-.5-.5z"/></svg>