<?xml version="1.0" encoding="utf-8"?>
<!-- Generator: Adobe Illustrator 25.3.1, SVG Export Plug-In . SVG Version: 6.00 Build 0)  -->
<svg version="1.1" id="Calque_1" xmlns="http://www.w3.org/2000/svg" xmlns:xlink="http://www.w3.org/1999/xlink" x="0px" y="0px"
	 viewBox="0 0 490.7 490.7" style="enable-background:new 0 0 490.7 490.7;" xml:space="preserve">
<style type="text/css">
	.st0{fill:#B0BEC5;stroke:#000000;stroke-width:8;stroke-miterlimit:10;}
	.st1{stroke:#000000;stroke-width:8;stroke-miterlimit:10;}
</style>
<path class="st0" d="M297.2,245.8c0,28.9-23.4,52.4-52.4,52.4c-28.9,0-52.4-23.4-52.4-52.4c0-28.9,23.4-52.4,52.4-52.4
	C273.7,193.5,297.2,216.9,297.2,245.8z"/>
<path class="st1" d="M244.8,486.7c-5.8,0-10.5-4.7-10.5-10.5V287.7c0-5.8,4.7-10.5,10.5-10.5c5.8,0,10.5,4.7,10.5,10.5v188.5
	C255.3,482,250.6,486.7,244.8,486.7z"/>
<path class="st1" d="M244.8,214.4c-5.8,0-10.5-4.7-10.5-10.5V15.5c0-5.8,4.7-10.5,10.5-10.5c5.8,0,10.5,4.7,10.5,10.5V204
	C255.3,209.7,250.6,214.4,244.8,214.4z"/>
<path class="st1" d="M475.2,256.3H286.7c-5.8,0-10.5-4.7-10.5-10.5c0-5.8,4.7-10.5,10.5-10.5h188.5c5.8,0,10.5,4.7,10.5,10.5
	C485.7,251.6,481,256.3,475.2,256.3z"/>
<path class="st1" d="M203,256.3H14.5c-5.8,0-10.5-4.7-10.5-10.5c0-5.8,4.7-10.5,10.5-10.5H203c5.8,0,10.5,4.7,10.5,10.5
	C213.4,251.6,208.7,256.3,203,256.3z"/>
<path class="st1" d="M407.7,419.2c-2.7,0-5.4-1-7.4-3.1L267.1,282.9c-4.1-4.1-4.1-10.7,0-14.8c4.1-4.1,10.7-4.1,14.8,0l133.2,133.2
	c4.1,4.1,4.1,10.7,0,14.8C413.1,418.2,410.4,419.2,407.7,419.2z"/>
<path class="st1" d="M215.2,226.6c-2.7,0-5.4-1-7.4-3.1L74.5,90.3c-4.1-4.1-4.1-10.7,0-14.8s10.7-4.1,14.8,0l133.2,133.2
	c4.1,4.1,4.1,10.7,0,14.8C220.5,225.6,217.8,226.6,215.2,226.6z"/>
<path class="st1" d="M274.4,226.7c-2.7,0-5.4-1-7.4-3.1c-4.1-4.1-4.1-10.7,0-14.8L400.3,75.6c4.1-4.1,10.7-4.1,14.8,0
	c4.1,4.1,4.1,10.7,0,14.8L281.8,223.6C279.8,225.7,277.1,226.7,274.4,226.7z"/>
<path class="st1" d="M81.9,419.2c-2.7,0-5.4-1-7.4-3.1c-4.1-4.1-4.1-10.7,0-14.8l133.3-133.3c4.1-4.1,10.7-4.1,14.8,0
	c4.1,4.1,4.1,10.7,0,14.8L89.3,416.1C87.3,418.2,84.6,419.2,81.9,419.2z"/>
<path class="st1" d="M244.8,130.7c-3.5,0-6.8-1.8-8.7-4.7l-41.9-62.8c-3.2-4.8-1.9-11.3,2.9-14.5c4.8-3.2,11.3-1.9,14.5,2.9
	l33.2,49.8L278,51.6c3.2-4.8,9.7-6.1,14.5-2.9c4.8,3.2,6.1,9.7,2.9,14.5L253.5,126C251.6,128.9,248.3,130.7,244.8,130.7z"/>
<path class="st1" d="M286.7,444.8c-3.4,0-6.7-1.6-8.7-4.7l-33.2-49.8l-33.2,49.8c-3.2,4.8-9.7,6.1-14.5,2.9
	c-4.8-3.2-6.1-9.7-2.9-14.5l41.9-62.8c3.9-5.8,13.5-5.8,17.4,0l41.9,62.8c3.2,4.8,1.9,11.3-2.9,14.5
	C290.7,444.2,288.7,444.8,286.7,444.8z"/>
<path class="st1" d="M333.7,167.5c-2.7,0-5.4-1.1-7.4-3.1c-2.5-2.5-3.5-6-2.9-9.4l14.8-74.1c1.1-5.7,6.6-9.4,12.3-8.2
	c5.7,1.1,9.3,6.6,8.2,12.3L347,143.6l58.6-11.7c5.6-1.2,11.2,2.5,12.3,8.2c1.1,5.7-2.5,11.2-8.2,12.3l-74,14.8
	C335.1,167.4,334.4,167.5,333.7,167.5z"/>
<path class="st1" d="M141.2,419.2c-0.7,0-1.4-0.1-2.1-0.2c-5.7-1.1-9.3-6.6-8.2-12.3l11.7-58.7L84,359.8c-5.7,1.2-11.2-2.5-12.3-8.2
	c-1.1-5.7,2.5-11.2,8.2-12.3l74-14.8c3.4-0.7,7,0.4,9.5,2.9c2.5,2.5,3.5,6,2.9,9.4l-14.8,74C150.4,415.8,146.1,419.2,141.2,419.2z"
	/>
<path class="st1" d="M433.3,298.2c-2,0-4-0.6-5.8-1.8l-62.8-41.9c-2.9-1.9-4.7-5.2-4.7-8.7c0-3.5,1.7-6.8,4.7-8.7l62.8-41.9
	c4.8-3.2,11.3-1.9,14.5,2.9c3.2,4.8,1.9,11.3-2.9,14.5l-49.8,33.2l49.8,33.2c4.8,3.2,6.1,9.7,2.9,14.5
	C440,296.6,436.7,298.2,433.3,298.2z"/>
<path class="st1" d="M56.4,298.2c-3.4,0-6.7-1.6-8.7-4.7c-3.2-4.8-1.9-11.3,2.9-14.5l49.8-33.2l-49.8-33.2
	c-4.8-3.2-6.1-9.7-2.9-14.5c3.2-4.8,9.7-6.1,14.5-2.9l62.8,41.9c2.9,1.9,4.7,5.2,4.7,8.7c0,3.5-1.7,6.8-4.7,8.7l-62.8,41.9
	C60.4,297.6,58.4,298.2,56.4,298.2z"/>
<path class="st1" d="M348.5,419.2c-4.9,0-9.3-3.4-10.3-8.4l-14.8-74c-0.7-3.4,0.4-7,2.9-9.4c2.5-2.5,6-3.6,9.5-2.9l74,14.8
	c5.7,1.1,9.3,6.6,8.2,12.3c-1.1,5.7-6.7,9.3-12.3,8.2L347.1,348l11.7,58.7c1.1,5.7-2.6,11.2-8.2,12.3
	C349.9,419.1,349.1,419.2,348.5,419.2z"/>
<path class="st1" d="M156,167.5c-0.7,0-1.4-0.1-2.1-0.2l-74-14.8c-5.7-1.1-9.4-6.6-8.2-12.3c1.1-5.7,6.7-9.4,12.3-8.2l58.6,11.7
	L130.9,85c-1.1-5.7,2.6-11.2,8.2-12.3c5.7-1.2,11.2,2.5,12.3,8.2l14.8,74c0.7,3.4-0.4,7-2.9,9.4C161.4,166.4,158.7,167.5,156,167.5z
	"/>
<path class="st1" d="M244.8,298.2c-28.9,0-52.4-23.5-52.4-52.4c0-28.9,23.5-52.4,52.4-52.4c28.9,0,52.4,23.5,52.4,52.4
	C297.2,274.7,273.7,298.2,244.8,298.2z M244.8,214.4c-17.3,0-31.4,14.1-31.4,31.4c0,17.3,14.1,31.4,31.4,31.4
	c17.3,0,31.4-14.1,31.4-31.4C276.2,228.5,262.2,214.4,244.8,214.4z"/>
</svg>
