<?xml version="1.0" encoding="iso-8859-1"?>
<!-- Generator: Adobe Illustrator 19.0.0, SVG Export Plug-In . SVG Version: 6.00 Build 0)  -->
<svg version="1.1" id="Capa_1" xmlns="http://www.w3.org/2000/svg" xmlns:xlink="http://www.w3.org/1999/xlink" x="0px" y="0px"
	 viewBox="0 0 512.001 512.001" style="enable-background:new 0 0 512.001 512.001;" xml:space="preserve">
<path style="fill:#607D8B;" d="M287.88,0h-192c-8.837,0-16,7.163-16,16v48h224V16C303.88,7.163,296.717,0,287.88,0z"/>
<path style="fill:#ECEFF1;" d="M395.656,317.504l-0.672-0.704l-91.104-83.808V64h-224v197.888
	c-0.039,51.769,22.715,100.929,62.208,134.4l105.376,89.344C267.695,502.76,293.373,512.11,319.88,512
	c8.833,0.01,17.638-1,26.24-3.008c60.163-14.373,97.282-74.797,82.909-134.96c-5.193-21.738-16.771-41.425-33.245-56.528H395.656z"
	/>
<g>
	<path style="fill:#B0BEC5;" d="M395.656,317.504l-0.672-0.704l-0.736-0.672L235.304,475.2l12.16,10.304
		c20.213,17.174,45.892,26.57,72.416,26.496c8.833,0.01,17.638-1,26.24-3.008c60.163-14.373,97.282-74.797,82.909-134.96
		c-5.193-21.738-16.771-41.425-33.245-56.528H395.656z"/>
	<path style="fill:#B0BEC5;" d="M207.88,304c0.014-53.527-37.849-99.582-90.368-109.92c-12.426-2.244-25.133-2.471-37.632-0.672
		v68.48c-0.039,51.769,22.715,100.929,62.208,134.4l7.2,6.08c3.752-1.912,7.385-4.05,10.88-6.4
		C190.114,374.923,207.921,340.601,207.88,304z"/>
</g>
<path d="M287.88,96h-192c-8.837,0-16-7.163-16-16V16c0-8.837,7.163-16,16-16h192c8.837,0,16,7.163,16,16v64
	C303.88,88.837,296.717,96,287.88,96z M111.88,64h160V32h-160V64z"/>
<path d="M319.88,512c-26.478,0.035-52.104-9.358-72.288-26.496l-105.504-89.376c-39.497-33.399-62.257-82.515-62.208-134.24V80
	c0-8.837,7.163-16,16-16s16,7.163,16,16v181.888c-0.026,42.311,18.586,82.486,50.88,109.824l105.6,89.344
	c33.762,28.5,84.235,24.234,112.735-9.528c27.396-32.454,24.657-80.659-6.239-109.8l-0.64-0.576l-97.184-89.376
	c-3.288-3.033-5.156-7.303-5.152-11.776V80c0-8.837,7.163-16,16-16s16,7.163,16,16v152.992l91.104,83.808l0.672,0.576
	c45.611,41.783,48.713,112.63,6.93,158.24c-15.108,16.492-34.808,28.083-56.562,33.28C337.454,510.91,328.684,511.951,319.88,512z"
	/>
<path d="M234.44,469.44c-8.837-0.002-15.998-7.167-15.997-16.003c0.001-4.249,1.692-8.324,4.701-11.325l136.64-136.64
	c6.356-6.139,16.485-5.963,22.624,0.394c5.988,6.2,5.988,16.03,0,22.23l-136.64,136.64
	C242.767,467.747,238.691,469.439,234.44,469.44z"/>
<path d="M150.952,398.72c-8.837,0.007-16.006-7.151-16.013-15.987c-0.004-5.213,2.532-10.102,6.797-13.101
	c36.248-25.263,45.152-75.128,19.889-111.375C146.643,236.76,122.083,223.963,95.88,224c-8.837,0-16-7.163-16-16s7.163-16,16-16
	c61.856-0.041,112.033,50.071,112.073,111.927c0.024,36.606-17.843,70.914-47.849,91.881
	C157.433,397.712,154.233,398.73,150.952,398.72z"/>
<g>
</g>
<g>
</g>
<g>
</g>
<g>
</g>
<g>
</g>
<g>
</g>
<g>
</g>
<g>
</g>
<g>
</g>
<g>
</g>
<g>
</g>
<g>
</g>
<g>
</g>
<g>
</g>
<g>
</g>
</svg>
