<svg id="_x31__x2C_5" enable-background="new 0 0 24 24" height="512" viewBox="0 0 24 24" width="512" xmlns="http://www.w3.org/2000/svg"><path d="m18.76 15.875c-.002 0-.003 0-.005 0l-1.958-.026c-.268-.004-.484-.295-.484-.654v-8.597c0-.441.091-.873.263-1.247l.507-1.113c.315-.655 1.088-.642 1.392-.012l.514 1.125c.171.375.262.807.262 1.247v8.623c0 .175-.052.342-.145.465-.093.121-.217.189-.346.189z" fill="#90a4ae"/><path d="m16.25 12.95h-8.5v-4.899c0-2.053.817-4.034 2.24-5.435l1.289-1.269c.396-.39 1.044-.39 1.44 0l1.29 1.269c1.424 1.402 2.24 3.383 2.24 5.435v4.899z" fill="#607d8b"/><path d="m7.219 16.5c-.002 0-.003 0-.006 0l-2.125-.027c-.291-.004-.526-.304-.526-.672v-8.838c0-.453.098-.897.285-1.282l.551-1.144c.342-.673 1.181-.66 1.51-.013l.558 1.156c.186.386.284.829.284 1.283v8.865c0 .179-.057.351-.158.478-.099.124-.234.194-.373.194z" fill="#90a4ae"/><path d="m20.36 17.16-1.27-.85c-2.47-1.64-4.2-4.17-4.84-7.06h-4.5c-.32 1.45-.91 2.8-1.73 4s-1.88 2.24-3.11 3.06l-1.27.85c-.56.37-.89.99-.89 1.66v.43c0 1.1.9 2 2 2h14.5c1.1 0 2-.9 2-2v-.43c0-.67-.33-1.29-.89-1.66z" fill="#00bcd4"/><path d="m9.75 10.629v7.339c0 .376.255.688.563.688h3.375c.307 0 .563-.312.563-.688v-7.339z" fill="#eceff1"/><path d="m10.25 23.028c-.896 0-1.625-.729-1.625-1.625v-2.167c0-.697.567-1.264 1.264-1.264h.722c.697 0 1.264.567 1.264 1.264v2.167c0 .896-.729 1.625-1.625 1.625z" fill="#607d8b"/><path d="m13.75 23.333c-.827 0-1.5-.787-1.5-1.754v-2.339c0-.752.523-1.365 1.167-1.365h.667c.643 0 1.167.612 1.167 1.365v2.339c-.001.967-.674 1.754-1.501 1.754z" fill="#607d8b"/><path d="m13.252 6.113-.518-.855c-.337-.548-1.133-.548-1.47 0l-.518.855c-.651 1.063-.996 2.308-.996 3.595v.922h4.5v-.922c0-1.287-.345-2.532-.998-3.595z" fill="#cfd8dc"/><path d="m10.25 24c-1.24 0-2.25-1.009-2.25-2.25v-3c0-.965.785-1.75 1.75-1.75h1c.965 0 1.75.785 1.75 1.75v3c0 1.241-1.01 2.25-2.25 2.25zm-.5-5.5c-.138 0-.25.112-.25.25v3c0 .414.337.75.75.75s.75-.336.75-.75v-3c0-.138-.112-.25-.25-.25z"/><path d="m13.75 24c-1.24 0-2.25-1.009-2.25-2.25v-3c0-.965.785-1.75 1.75-1.75h1c.965 0 1.75.785 1.75 1.75v3c0 1.241-1.01 2.25-2.25 2.25zm-.5-5.5c-.138 0-.25.112-.25.25v3c0 .414.337.75.75.75s.75-.336.75-.75v-3c0-.138-.112-.25-.25-.25z"/><path d="m8.5 22h-3.75c-1.517 0-2.75-1.233-2.75-2.75v-.43c0-.921.458-1.777 1.225-2.288l1.273-.849c2.313-1.541 3.917-3.884 4.52-6.596.091-.404.484-.66.896-.569.404.09.659.49.569.895-.688 3.092-2.517 5.762-5.152 7.519l-1.274.848c-.349.233-.557.621-.557 1.04v.43c0 .689.561 1.25 1.25 1.25h3.75c.414 0 .75.336.75.75s-.336.75-.75.75z"/><path d="m19.25 22h-3.75c-.414 0-.75-.336-.75-.75s.336-.75.75-.75h3.75c.689 0 1.25-.561 1.25-1.25v-.43c0-.419-.208-.808-.557-1.04l-1.273-.849c-2.636-1.757-4.465-4.427-5.152-7.519-.09-.404.165-.805.569-.895.41-.092.805.165.896.569.603 2.712 2.207 5.055 4.52 6.596l1.273.849c.766.512 1.224 1.368 1.224 2.289v.43c0 1.517-1.233 2.75-2.75 2.75z"/><path d="m14.25 18.5c-.414 0-.75-.336-.75-.75v-7.858c0-1.251-.37-2.46-1.069-3.497l-.431-.638-.43.637c-.7 1.037-1.07 2.246-1.07 3.497v7.858c0 .414-.336.75-.75.75s-.75-.335-.75-.749v-7.858c0-1.552.459-3.052 1.327-4.337l.69-1.024c.449-.665 1.516-.665 1.965 0l.691 1.025c.868 1.284 1.327 2.784 1.327 4.336v7.858c0 .414-.336.75-.75.75z"/><path d="m16.25 14c-.414 0-.75-.336-.75-.75v-5.014c0-2.016-.798-3.957-2.188-5.325l-1.312-1.291-1.312 1.291c-1.39 1.369-2.188 3.31-2.188 5.325v5.014c0 .414-.336.75-.75.75s-.75-.336-.75-.75v-5.014c0-2.415.961-4.746 2.636-6.395l1.517-1.493c.455-.449 1.239-.451 1.696.001l1.516 1.491c1.674 1.651 2.635 3.981 2.635 6.396v5.014c0 .414-.336.75-.75.75zm-4.455-12.582c.001 0 .001.001 0 0zm.411-.001c-.001 0 0 0 0 0z"/><path d="m4.75 16.92c-.414 0-.75-.336-.75-.75v-9.863c0-.506.139-1.001.402-1.431l.778-1.276c.482-.751 1.667-.737 2.132-.014l.787 1.291c.262.429.401.924.401 1.43v7.143c0 .414-.336.75-.75.75s-.75-.336-.75-.75v-7.143c0-.23-.063-.455-.182-.65l-.568-.931-.567.931c-.12.196-.183.42-.183.65v9.863c0 .414-.336.75-.75.75z"/><path d="m19.25 16.92c-.414 0-.75-.336-.75-.75v-9.863c0-.23-.063-.455-.182-.65l-.568-.931-.567.931c-.12.196-.183.42-.183.65v7.143c0 .414-.336.75-.75.75s-.75-.336-.75-.75v-7.143c0-.506.139-1.001.402-1.431l.778-1.276c.482-.751 1.667-.737 2.132-.014l.787 1.291c.262.429.401.924.401 1.43v9.863c0 .414-.336.75-.75.75z"/><path d="m14.25 11.5h-4.5c-.414 0-.75-.336-.75-.75s.336-.75.75-.75h4.5c.414 0 .75.336.75.75s-.336.75-.75.75z"/></svg>