<svg id="_x31__x2C_5" height="512" viewBox="0 0 24 24" width="512" xmlns="http://www.w3.org/2000/svg"><g fill="#cfd8dc"><ellipse cx="20" cy="9.5" rx="3.25" ry="1.75"/><ellipse cx="16" cy="21" rx="2.25" ry="1.25"/><ellipse cx="10" cy="15" rx="2.25" ry="1.25"/><ellipse cx="13" cy="3" rx="2.25" ry="1.25"/></g><path d="m20 12c-2.28 0-4-1.075-4-2.5s1.72-2.5 4-2.5 4 1.075 4 2.5-1.72 2.5-4 2.5zm0-3.5c-1.551 0-2.5.647-2.5 1s.949 1 2.5 1 2.5-.647 2.5-1-.949-1-2.5-1z"/><path d="m16 23c-1.71 0-3-.859-3-2s1.29-2 3-2 3 .859 3 2-1.29 2-3 2zm0-2.5c-.939 0-1.461.368-1.501.509.04.123.562.491 1.501.491.921 0 1.44-.354 1.498-.5-.058-.146-.577-.5-1.498-.5z"/><path d="m14.239 11.494c-.142 0-.284-.008-.428-.025-.987-.115-1.859-.617-2.456-1.412-.53-.708-1.453-1.004-2.299-.742l-2.082.651c-.394.126-.817-.096-.94-.492s.097-.816.492-.94l2.083-.651c1.45-.451 3.035.061 3.946 1.273.347.464.855.756 1.43.823.576.068 1.138-.1 1.583-.471l.701-.585c.319-.266.792-.222 1.057.096s.222.791-.096 1.057l-.702.585c-.653.544-1.453.833-2.289.833z"/><path d="m12.036 22.715c-.085 0-.17-.004-.256-.013-.769-.076-1.455-.488-1.883-1.131-.268-.4-.772-.571-1.226-.421l-1.684.562c-.392.127-.817-.081-.948-.475s.082-.818.475-.949l1.683-.561c1.094-.367 2.307.051 2.948 1.012.178.267.463.438.783.47.317.032.633-.08.86-.307l.432-.433c.293-.293.768-.293 1.061 0 .293.292.293.768 0 1.061l-.432.433c-.486.485-1.136.752-1.813.752z"/><path d="m10 17c-1.71 0-3-.859-3-2s1.29-2 3-2 3 .859 3 2-1.29 2-3 2zm0-2.5c-.939 0-1.461.368-1.501.509.04.123.562.491 1.501.491.921 0 1.44-.354 1.498-.5-.058-.146-.577-.5-1.498-.5z"/><path d="m6.036 16.715c-.085 0-.17-.004-.256-.013-.769-.076-1.455-.488-1.883-1.131-.267-.4-.772-.57-1.225-.421l-1.684.562c-.393.127-.817-.082-.948-.475-.131-.394.082-.818.475-.949l1.683-.561c1.093-.368 2.306.051 2.948 1.012.178.267.463.438.783.47.317.032.633-.08.86-.307l.432-.433c.293-.293.768-.293 1.061 0 .293.292.293.768 0 1.061l-.432.433c-.487.485-1.137.752-1.814.752z"/><path d="m13 5c-1.71 0-3-.859-3-2s1.29-2 3-2 3 .859 3 2-1.29 2-3 2zm0-2.5c-.939 0-1.461.368-1.501.509.04.123.562.491 1.501.491.921 0 1.44-.354 1.498-.5-.058-.146-.577-.5-1.498-.5z"/><path d="m9.036 4.715c-.085 0-.17-.004-.256-.013-.769-.076-1.456-.488-1.884-1.131-.267-.4-.772-.569-1.225-.421l-1.684.562c-.391.127-.818-.081-.948-.475-.131-.393.081-.818.474-.949l1.683-.561c1.094-.367 2.307.051 2.948 1.012.178.267.463.438.783.47.317.032.633-.08.86-.307l.432-.433c.293-.293.768-.293 1.061 0 .293.292.293.768 0 1.061l-.432.433c-.485.485-1.135.752-1.812.752z"/></svg>