<?xml version="1.0" encoding="utf-8"?>
<!-- Generator: Adobe Illustrator 25.3.1, SVG Export Plug-In . SVG Version: 6.00 Build 0)  -->
<svg version="1.1" id="Calque_1" xmlns="http://www.w3.org/2000/svg" xmlns:xlink="http://www.w3.org/1999/xlink" x="0px" y="0px"
	 viewBox="0 0 512 512" style="enable-background:new 0 0 512 512;" xml:space="preserve">
<style type="text/css">
	.st0{fill:#CFD8DC;stroke:#000000;stroke-width:8;stroke-miterlimit:10;}
	.st1{stroke:#000000;stroke-width:8;stroke-miterlimit:10;}
</style>
<path class="st0" d="M499.2,14.2c-3.9-1.6-8.3-0.7-11.2,2.2L14,488.5c-2.9,2.9-3.9,7.4-2.2,11.2c1.6,3.9,5.3,6.4,9.5,6.4h474
	c5.7,0,10.3-4.6,10.3-10.3v-472C505.6,19.5,503.1,15.8,499.2,14.2z M423.1,413.3c0,5.7-4.6,10.3-10.3,10.3H227.4
	c-4.2,0-7.9-2.5-9.5-6.4c-1.6-3.9-0.7-8.3,2.2-11.2l185.5-185.5c3-3,7.4-3.9,11.2-2.2c3.9,1.6,6.4,5.4,6.4,9.5V413.3z"/>
<path class="st1" d="M495.3,506.1h-474c-4.2,0-7.9-2.5-9.5-6.4c-1.6-3.9-0.7-8.3,2.2-11.2L488,16.4c2.9-2.9,7.4-3.8,11.2-2.2
	c3.8,1.6,6.3,5.3,6.3,9.5v472.1C505.6,501.5,501,506.1,495.3,506.1z M46.2,485.5H485V48.5L46.2,485.5z"/>
<path class="st1" d="M495.3,258.8h-20.6c-5.7,0-10.3-4.6-10.3-10.3c0-5.7,4.6-10.3,10.3-10.3h20.6c5.7,0,10.3,4.6,10.3,10.3
	C505.6,254.2,501,258.8,495.3,258.8z"/>
<path class="st1" d="M495.3,217.6h-20.6c-5.7,0-10.3-4.6-10.3-10.3S469,197,474.7,197h20.6c5.7,0,10.3,4.6,10.3,10.3
	S501,217.6,495.3,217.6z"/>
<path class="st1" d="M495.3,176.4h-20.6c-5.7,0-10.3-4.6-10.3-10.3c0-5.7,4.6-10.3,10.3-10.3h20.6c5.7,0,10.3,4.6,10.3,10.3
	C505.6,171.8,501,176.4,495.3,176.4z"/>
<path class="st1" d="M495.3,135.2h-20.6c-5.7,0-10.3-4.6-10.3-10.3c0-5.7,4.6-10.3,10.3-10.3h20.6c5.7,0,10.3,4.6,10.3,10.3
	C505.6,130.5,501,135.2,495.3,135.2z"/>
<path class="st1" d="M495.3,93.9h-20.6c-5.7,0-10.3-4.6-10.3-10.3s4.6-10.3,10.3-10.3h20.6c5.7,0,10.3,4.6,10.3,10.3
	S501,93.9,495.3,93.9z"/>
<path class="st1" d="M495.3,300h-20.6c-5.5,0-10-4.3-10.3-9.8c-0.2-5.5,3.9-10.2,9.3-10.7c23.4-2.1,25.6-0.1,28.4,2.4
	c2.1,1.9,3.5,4.9,3.5,7.8C505.6,295.4,501,300,495.3,300z"/>
<path class="st1" d="M495.3,341.2h-20.6c-5.7,0-10.3-4.6-10.3-10.3c0-5.7,4.6-10.3,10.3-10.3h20.6c5.7,0,10.3,4.6,10.3,10.3
	C505.6,336.6,501,341.2,495.3,341.2z"/>
<path class="st1" d="M495.3,382.4h-20.6c-5.7,0-10.3-4.6-10.3-10.3c0-5.7,4.6-10.3,10.3-10.3h20.6c5.7,0,10.3,4.6,10.3,10.3
	C505.6,377.8,501,382.4,495.3,382.4z"/>
<path class="st1" d="M495.3,423.7h-20.6c-5.7,0-10.3-4.6-10.3-10.3c0-5.7,4.6-10.3,10.3-10.3h20.6c5.7,0,10.3,4.6,10.3,10.3
	C505.6,419,501,423.7,495.3,423.7z"/>
<path class="st1" d="M495.3,464.9h-20.6c-5.7,0-10.3-4.6-10.3-10.3s4.6-10.3,10.3-10.3h20.6c5.7,0,10.3,4.6,10.3,10.3
	S501,464.9,495.3,464.9z"/>
<path class="st1" d="M412.8,423.7H227.4c-4.2,0-7.9-2.5-9.5-6.4c-1.6-3.9-0.7-8.3,2.2-11.2l185.5-185.5c3-3,7.4-3.9,11.2-2.2
	c3.9,1.6,6.4,5.4,6.4,9.5v185.5C423.1,419,418.5,423.7,412.8,423.7z M252.3,403h150.3V252.8L252.3,403z"/>
</svg>
