<svg id="_x31__x2C_5" height="512" viewBox="0 0 24 24" width="512" xmlns="http://www.w3.org/2000/svg"><path d="m10.25 16.38-3.49-.2-1.26-3.43-1.26 3.43-3.49.2 2.71 2.32-.9 3.55 2.94-2 2.94 2-.9-3.55z" fill="#ffc107"/><path d="m23.25 16.38-3.49-.2-1.26-3.43-1.26 3.43-3.49.2 2.71 2.32-.9 3.55 2.94-2 2.94 2-.9-3.55z" fill="#ffc107"/><path d="m8.436 23c-.147 0-.294-.043-.422-.13l-2.514-1.711-2.514 1.711c-.258.175-.596.173-.852-.006-.255-.178-.374-.496-.297-.798l.786-3.102-2.36-2.015c-.233-.199-.322-.52-.224-.81s.363-.492.668-.509l3-.17 1.089-2.968c.108-.296.39-.492.704-.492s.596.196.704.492l1.089 2.968 3 .17c.306.018.57.219.668.509.098.291.009.611-.224.81l-2.36 2.015.786 3.102c.077.302-.042.62-.297.798-.13.091-.28.136-.43.136zm-2.936-3.498c.147 0 .295.043.422.13l1.301.886-.415-1.637c-.07-.277.023-.569.24-.754l1.293-1.104-1.625-.093c-.299-.017-.559-.21-.662-.491l-.554-1.511-.554 1.511c-.103.281-.363.474-.662.491l-1.626.092 1.293 1.104c.217.186.31.478.24.754l-.415 1.637 1.301-.886c.128-.086.276-.129.423-.129z"/><path d="m21.436 23c-.147 0-.294-.043-.422-.13l-2.514-1.711-2.514 1.711c-.257.175-.596.173-.852-.006-.255-.178-.374-.496-.297-.798l.786-3.102-2.36-2.015c-.233-.199-.322-.52-.224-.81s.363-.492.668-.509l3-.17 1.089-2.968c.108-.296.39-.492.704-.492s.596.196.704.492l1.089 2.968 3 .17c.306.018.57.219.668.509.098.291.009.611-.224.81l-2.36 2.015.786 3.102c.077.302-.042.62-.297.798-.13.091-.28.136-.43.136zm-2.936-3.498c.147 0 .295.043.422.13l1.301.886-.415-1.637c-.07-.277.023-.569.24-.754l1.293-1.104-1.626-.092c-.299-.017-.559-.21-.662-.491l-.553-1.512-.554 1.511c-.103.281-.363.474-.662.491l-1.626.092 1.293 1.104c.217.186.31.478.24.754l-.415 1.637 1.301-.886c.128-.086.276-.129.423-.129z"/><path d="m13.75 17.129h-3.5c-.414 0-.75-.336-.75-.75s.336-.75.75-.75h3.5c.414 0 .75.336.75.75s-.336.75-.75.75z"/><path d="m.75 17.129c-.065 0-.131-.008-.197-.026-.4-.108-.636-.52-.527-.92l3.415-12.593c.279-1.032 1.142-1.814 2.196-1.992l3.488-.588c.404-.067.795.207.865.615.069.408-.207.795-.615.864l-3.488.588c-.479.081-.871.436-.998.905l-3.415 12.593c-.091.334-.393.554-.724.554z"/><path d="m23.25 17.129c-.33 0-.633-.22-.723-.554l-3.416-12.593c-.127-.469-.52-.825-.999-.905l-3.487-.587c-.409-.069-.684-.456-.615-.864.069-.409.457-.682.864-.615l3.487.587c1.055.178 1.917.96 2.197 1.992l3.415 12.593c.108.4-.127.812-.527.92-.066.018-.132.026-.196.026z"/></svg>