<?xml version="1.0" encoding="iso-8859-1"?>
<!-- Generator: Adobe Illustrator 19.0.0, SVG Export Plug-In . SVG Version: 6.00 Build 0)  -->
<svg version="1.1" id="Capa_1" xmlns="http://www.w3.org/2000/svg" xmlns:xlink="http://www.w3.org/1999/xlink" x="0px" y="0px"
	 viewBox="0 0 512 512" style="enable-background:new 0 0 512 512;" xml:space="preserve">
<path style="fill:#FFC107;" d="M416,320c0.079,41.838-16.232,82.044-45.44,112h-43.84l-59.52-59.2
	c-5.883-6.186-15.666-6.431-21.851-0.549c-0.188,0.178-0.37,0.361-0.549,0.549L185.28,432h-43.84
	c-61.688-63.27-60.405-164.568,2.865-226.256s164.568-60.405,226.256,2.865C399.621,238.414,415.921,278.372,416,320z"/>
<path d="M496,448H320c-4.246,0.008-8.322-1.673-11.328-4.672L256,390.624l-52.672,52.704c-3.006,2.999-7.082,4.68-11.328,4.672H16
	c-8.837,0-16-7.163-16-16s7.163-16,16-16h169.376l59.296-59.328c6.24-6.256,16.371-6.269,22.627-0.029
	c0.01,0.01,0.019,0.019,0.029,0.029L326.624,416H496c8.837,0,16,7.163,16,16S504.837,448,496,448z"/>
<path d="M391.68,384c-1.856,0.009-3.699-0.317-5.44-0.96c-8.304-3.007-12.601-12.174-9.6-20.48c4.914-13.65,7.405-28.053,7.36-42.56
	c0-70.692-57.308-128-128-128s-128,57.308-128,128c-0.045,14.507,2.446,28.91,7.36,42.56c2.769,8.391-1.788,17.439-10.179,20.208
	c-8.058,2.659-16.79-1.434-19.901-9.328C99.091,356.305,95.95,338.218,96,320c0-88.366,71.634-160,160-160s160,71.634,160,160
	c0.05,18.218-3.091,36.305-9.28,53.44C404.43,379.775,398.416,383.997,391.68,384z"/>
<path d="M256,128c-8.837,0-16-7.163-16-16V80c0-8.837,7.163-16,16-16c8.837,0,16,7.163,16,16v32C272,120.837,264.837,128,256,128z"
	/>
<path d="M48,336H16c-8.837,0-16-7.163-16-16s7.163-16,16-16h32c8.837,0,16,7.163,16,16S56.837,336,48,336z"/>
<path d="M496,336h-32c-8.837,0-16-7.163-16-16s7.163-16,16-16h32c8.837,0,16,7.163,16,16S504.837,336,496,336z"/>
<path d="M108.8,188.8c-4.251-0.001-8.327-1.693-11.328-4.704l-22.624-22.592c-6.356-6.139-6.532-16.268-0.393-22.624
	c6.139-6.356,16.268-6.532,22.624-0.393c0.133,0.129,0.264,0.26,0.393,0.393l22.624,22.592c6.256,6.24,6.269,16.371,0.029,22.627
	C117.124,187.108,113.049,188.799,108.8,188.8z"/>
<path d="M403.2,188.8c-8.837-0.002-15.998-7.167-15.997-16.003c0.001-4.249,1.692-8.324,4.701-11.325l22.624-22.592
	c6.139-6.356,16.268-6.532,22.624-0.394c6.356,6.139,6.532,16.268,0.394,22.624c-0.129,0.133-0.26,0.265-0.394,0.394l-22.624,22.592
	C411.527,187.107,407.451,188.799,403.2,188.8z"/>
<g>
</g>
<g>
</g>
<g>
</g>
<g>
</g>
<g>
</g>
<g>
</g>
<g>
</g>
<g>
</g>
<g>
</g>
<g>
</g>
<g>
</g>
<g>
</g>
<g>
</g>
<g>
</g>
<g>
</g>
</svg>
