<svg id="_x31__x2C_5" height="512" viewBox="0 0 24 24" width="512" xmlns="http://www.w3.org/2000/svg"><g fill="#cfd8dc"><path d="m4.63 16.64h-2.76c-.381 0-.69.309-.69.69v.92c0 .888.722 1.61 1.61 1.61h1.84c.381 0 .69-.309.69-.69v-1.84c0-.381-.309-.69-.69-.69z"/><path d="m22.13 16.64h-2.76c-.381 0-.69.309-.69.69v1.84c0 .381.309.69.69.69h1.84c.888 0 1.61-.722 1.61-1.61v-.92c0-.381-.309-.69-.69-.69z"/><path d="m4.64 21.32c0 1.395 1.135 2.53 2.53 2.53h9.66c1.395 0 2.53-1.135 2.53-2.53v-.92h-14.72z"/></g><path d="m22.478 9.682c-.246-3.185-2.319-5.626-5.282-6.219-.044-.009-.09-.013-.135-.013h-10.121c-.045 0-.091.004-.135.013-2.964.593-5.037 3.035-5.283 6.219l-.56 7.053c-.015.192.05.381.181.523s.314.222.507.222h2.99v2.07h14.72v-2.07h2.99c.193 0 .376-.08.507-.222s.196-.331.181-.523z" fill="#ffc107"/><path d="m16.14.28h-8.28c-.381 0-.69.309-.69.69s.309.69.69.69c.61 0 1.066.779 1.743 2.062.503.952 1.073 2.032 1.931 2.817.132.121.299.181.466.181s.334-.06.466-.181c.858-.785 1.428-1.864 1.931-2.817.677-1.283 1.133-2.062 1.743-2.062.381 0 .69-.309.69-.69s-.309-.69-.69-.69z" fill="#ffc107"/><path d="m17.524.775c-.234-.225-.413-.495-1.134-.495-1.486 0-1.988 1.422-2.714 2.798-.32.606-1.114 1.73-1.676 2.437-.452-.568-1.069-1.76-1.426-2.437-.726-1.376-1.894-2.798-2.714-2.798-.721 0-1.15.27-1.384.495-.326.317-.499.755-.499 1.267 0 1.862 2.403 4.678 6.023 4.678s6.023-2.816 6.023-4.678c0-.512-.173-.95-.499-1.267z" fill="#cfd8dc"/><path d="m4.75 18h-4c-.209 0-.409-.087-.551-.241-.142-.154-.213-.359-.197-.568l.609-7.666c.267-3.461 2.52-6.116 5.742-6.76.404-.084.801.182.882.588.082.406-.182.801-.588.882-2.544.509-4.327 2.631-4.541 5.407l-.544 6.858h3.188c.414 0 .75.336.75.75s-.336.75-.75.75z"/><path d="m19.25 21h-14.5c-.414 0-.75-.336-.75-.75v-9.75c0-.414.336-.75.75-.75s.75.336.75.75v9h13v-9c0-.414.336-.75.75-.75s.75.336.75.75v9.75c0 .414-.336.75-.75.75z"/><path d="m17.25 24h-10.5c-1.517 0-2.75-1.233-2.75-2.75v-1c0-.414.336-.75.75-.75h14.5c.414 0 .75.336.75.75v1c0 1.517-1.233 2.75-2.75 2.75zm-11.75-3v.25c0 .689.561 1.25 1.25 1.25h10.5c.689 0 1.25-.561 1.25-1.25v-.25z"/><path d="m4.75 20h-2c-.965 0-1.75-.785-1.75-1.75v-1c0-.414.336-.75.75-.75h3c.414 0 .75.336.75.75v2c0 .414-.336.75-.75.75zm-2.25-2v.25c0 .138.112.25.25.25h1.25v-.5z"/><path d="m23.25 18h-4c-.414 0-.75-.336-.75-.75s.336-.75.75-.75h3.188l-.544-6.856c-.214-2.777-1.996-4.899-4.541-5.408-.406-.081-.67-.476-.588-.882s.477-.671.882-.588c3.222.644 5.475 3.298 5.742 6.762l.609 7.664c.017.209-.055.415-.197.568s-.342.24-.551.24z"/><path d="m21.25 20h-2c-.414 0-.75-.336-.75-.75v-2c0-.414.336-.75.75-.75h3c.414 0 .75.336.75.75v1c0 .965-.785 1.75-1.75 1.75zm-1.25-1.5h1.25c.138 0 .25-.112.25-.25v-.25h-1.5z"/><path d="m10.25 10c-.414 0-.75-.336-.75-.75v-2.991c0-.414.336-.75.75-.75s.75.336.75.75v2.991c0 .414-.336.75-.75.75z"/><path d="m13.75 14c-.414 0-.75-.336-.75-.75v-7.104c0-.414.336-.75.75-.75s.75.336.75.75v7.104c0 .414-.336.75-.75.75z"/><path d="m12 7c-3.935 0-6.546-3.061-6.546-5.084 0-.557.188-1.033.542-1.377.254-.246.72-.539 1.504-.539 1.616 0 2.433 1.546 3.222 3.042.514.972 1.044 1.977 1.785 2.656.228.209.304.537.192.825-.112.287-.39.477-.699.477zm-4.5-5.5c-.216 0-.384.042-.46.116-.071.069-.086.201-.086.3 0 .974 1.232 2.652 3.273 3.31-.309-.495-.578-1.004-.831-1.484-.737-1.395-1.232-2.242-1.896-2.242z"/><path d="m12 7c-.309 0-.587-.19-.699-.478s-.036-.616.192-.825c.74-.679 1.271-1.684 1.785-2.656.789-1.495 1.606-3.041 3.222-3.041.784 0 1.25.293 1.504.539.354.344.542.82.542 1.377 0 2.023-2.611 5.084-6.546 5.084zm4.5-5.5c-.664 0-1.159.847-1.896 2.242-.253.48-.522.99-.831 1.483 2.042-.657 3.273-2.335 3.273-3.31 0-.099-.015-.23-.086-.3-.076-.073-.244-.115-.46-.115z"/><path d="m16.5 1.5h-9c-.414 0-.75-.336-.75-.75s.336-.75.75-.75h9c.414 0 .75.336.75.75s-.336.75-.75.75z"/></svg>