<svg id="_x31__x2C_5_px" height="512" viewBox="0 0 24 24" width="512" xmlns="http://www.w3.org/2000/svg"><path d="m12 .646c-1.103 0-2 .897-2 2 0 .463.153.895.444 1.248.104.126.259.199.422.199h2.269c.163 0 .318-.073.422-.199.29-.353.443-.784.443-1.248 0-1.102-.897-2-2-2z" fill="#cfd8dc"/><path d="m12 3.875c-4.646 0-8.25 6.089-8.25 11.327 0 4.887 3.161 7.923 8.25 7.923s8.25-3.036 8.25-7.923c0-5.238-3.604-11.327-8.25-11.327z" fill="#607d8b"/><path d="m14.821 9.525h-5.642c-.788 0-1.429.641-1.429 1.429v3.093c0 .788.641 1.429 1.429 1.429h5.643c.788 0 1.429-.641 1.429-1.429v-3.093c-.001-.788-.642-1.429-1.43-1.429z" fill="#fff"/><path d="m12 24c-5.551 0-9-3.312-9-8.643 0-5.714 3.932-12.357 9-12.357s9 6.643 9 12.357c0 5.331-3.449 8.643-9 8.643zm0-19.5c-4.154 0-7.5 5.939-7.5 10.857 0 4.473 2.804 7.143 7.5 7.143s7.5-2.67 7.5-7.143c0-4.918-3.346-10.857-7.5-10.857z"/><path d="m15.319 16h-6.638c-.927 0-1.681-.754-1.681-1.681v-3.639c0-.926.754-1.68 1.681-1.68h6.639c.926 0 1.68.754 1.68 1.681v3.639c0 .926-.754 1.68-1.681 1.68zm-6.638-5.5c-.1 0-.181.081-.181.181v3.639c0 .1.081.181.181.181h6.639c.1 0 .181-.081.181-.181v-3.639c0-.1-.081-.181-.181-.181z"/><path d="m9.25 19h-1.5c-.414 0-.75-.336-.75-.75s.336-.75.75-.75h1.5c.414 0 .75.336.75.75s-.336.75-.75.75z"/><path d="m12.75 21h-1.5c-.414 0-.75-.336-.75-.75s.336-.75.75-.75h1.5c.414 0 .75.336.75.75s-.336.75-.75.75z"/><path d="m16.25 19h-1.5c-.414 0-.75-.336-.75-.75s.336-.75.75-.75h1.5c.414 0 .75.336.75.75s-.336.75-.75.75z"/><path d="m13.56 4.74c-.167 0-.336-.056-.476-.17-.32-.263-.366-.736-.104-1.056.176-.214.27-.479.27-.764 0-.689-.561-1.25-1.25-1.25s-1.25.561-1.25 1.25c0 .286.093.55.27.764.263.32.217.792-.104 1.056-.319.263-.793.217-1.056-.104-.399-.486-.61-1.079-.61-1.716 0-1.516 1.233-2.75 2.75-2.75s2.75 1.234 2.75 2.75c0 .637-.211 1.23-.61 1.716-.149.181-.364.274-.58.274z"/></svg>