<?xml version="1.0" encoding="iso-8859-1"?>
<!-- Generator: Adobe Illustrator 19.0.0, SVG Export Plug-In . SVG Version: 6.00 Build 0)  -->
<svg version="1.1" id="Capa_1" xmlns="http://www.w3.org/2000/svg" xmlns:xlink="http://www.w3.org/1999/xlink" x="0px" y="0px"
	 viewBox="0 0 512 512" style="enable-background:new 0 0 512 512;" xml:space="preserve">
<path style="fill:#ECEFF1;" d="M368,80H16C7.163,80,0,87.163,0,96v272c0,35.346,28.654,64,64,64h256c35.346,0,64-28.654,64-64V96
	C384,87.163,376.837,80,368,80z"/>
<path style="fill:#FFC107;" d="M184.864,194.656l-48-32c-5.369-3.573-12.359-3.573-17.728,0l-48,32
	C66.671,197.627,63.992,202.637,64,208v80c0,8.837,7.163,16,16,16h96c8.837,0,16-7.163,16-16v-80
	C192.008,202.637,189.329,197.627,184.864,194.656z"/>
<path d="M320,432H64c-35.346,0-64-28.654-64-64V96c0-8.837,7.163-16,16-16h352c8.837,0,16,7.163,16,16v272
	C384,403.346,355.346,432,320,432z M32,112v256c0,17.673,14.327,32,32,32h256c17.673,0,32-14.327,32-32V112H32z"/>
<path d="M400,336h-32v-32h32c44.183,0,80-35.817,80-80s-35.817-80-80-80h-32v-32h32c61.856,0,112,50.144,112,112
	S461.856,336,400,336z"/>
<path d="M176,304H80c-8.837,0-16-7.163-16-16v-80c-0.008-5.363,2.671-10.373,7.136-13.344l48-32c5.369-3.573,12.359-3.573,17.728,0
	l48,32c4.465,2.971,7.144,7.981,7.136,13.344v80C192,296.837,184.837,304,176,304z M96,272h64v-55.456L128,195.2l-32,21.344V272z"/>
<path d="M128,192c-8.837,0-16-7.163-16-16V96c0-8.837,7.163-16,16-16s16,7.163,16,16v80C144,184.837,136.837,192,128,192z"/>
<g>
</g>
<g>
</g>
<g>
</g>
<g>
</g>
<g>
</g>
<g>
</g>
<g>
</g>
<g>
</g>
<g>
</g>
<g>
</g>
<g>
</g>
<g>
</g>
<g>
</g>
<g>
</g>
<g>
</g>
</svg>
