<svg id="_x31__x2C_5" enable-background="new 0 0 24 24" height="512" viewBox="0 0 24 24" width="512" xmlns="http://www.w3.org/2000/svg"><path d="m19.95 7.152-1.672-4.579c-.056-.153-.048-.322.02-.47.069-.148.193-.262.347-.318 1.583-.576 3.342.242 3.919 1.822.279.765.244 1.592-.101 2.331-.345.74-.958 1.301-1.727 1.58-.313.115-.668-.044-.786-.366z" fill="#00bcd4"/><path d="m3.065 12.316c-.534 0-1.037-.329-1.23-.859l-.255-.7c-.12-.327-.105-.681.042-.997.148-.317.411-.558.74-.677l2.103-.763c.292-.107.613.044.72.336l.766 2.097c.106.291-.044.615-.336.721l-2.104.763c-.148.053-.298.079-.446.079z" fill="#607d8b"/><path d="m20.7 7.94-2.38-6.53c-.19-.52-.76-.79-1.28-.6-.02.01-.04.02-.07.03l-11.82 5.35c-.47.21-.71.75-.53 1.24l1.7 4.67c.18.48.71.75 1.21.61l12.51-3.48c.02-.01.05-.01.07-.02.51-.19.78-.76.59-1.27z" fill="#cfd8dc"/><path d="m13.5 12.375c-.758 0-1.375-.617-1.375-1.375s.617-1.375 1.375-1.375 1.375.617 1.375 1.375-.617 1.375-1.375 1.375z" fill="#607d8b"/><path d="m13.5 13c-1.103 0-2-.897-2-2s.897-2 2-2 2 .897 2 2-.897 2-2 2zm0-2.5c-.276 0-.5.224-.5.5s.224.5.5.5.5-.224.5-.5-.224-.5-.5-.5z"/><path d="m13.5 24c-.414 0-.75-.336-.75-.75v-5.5c0-.414.336-.75.75-.75s.75.336.75.75v5.5c0 .414-.336.75-.75.75z"/><path d="m7.82 24h-1.07c-.414 0-.75-.336-.75-.75s.336-.75.75-.75h1.07c.103 0 .196-.063.232-.155l4.191-10.483c.154-.384.592-.57.975-.418.385.154.572.59.418.975l-4.19 10.48c-.263.667-.902 1.101-1.626 1.101z"/><path d="m20.25 24h-1.07c-.724 0-1.363-.434-1.628-1.104l-4.188-10.477c-.154-.384.033-.821.418-.975.384-.152.821.033.975.418l4.19 10.48c.038.096.131.158.234.158h1.07c.414 0 .75.336.75.75s-.337.75-.751.75z"/><path d="m16.75 20h-6.5c-.414 0-.75-.336-.75-.75s.336-.75.75-.75h6.5c.414 0 .75.336.75.75s-.336.75-.75.75z"/><path d="m20.533 8.217c-.307 0-.594-.189-.705-.494-.141-.39.06-.82.449-.961.563-.204 1.011-.614 1.264-1.155.251-.538.277-1.142.073-1.7-.422-1.155-1.707-1.754-2.869-1.332-.388.142-.819-.059-.961-.449-.141-.389.06-.819.449-.961 1.935-.704 4.084.296 4.79 2.228.341.935.298 1.946-.123 2.849-.422.904-1.171 1.59-2.111 1.931-.084.03-.171.044-.256.044z"/><path d="m17.216 10.741c-.306 0-.593-.188-.705-.493l-2.896-7.929c-.142-.389.058-.82.447-.962.39-.14.819.059.962.447l2.896 7.929c.142.389-.058.82-.447.962-.085.032-.172.046-.257.046z"/><path d="m2.838 12.99c-.713 0-1.384-.439-1.642-1.146l-.34-.934c-.16-.437-.14-.909.057-1.332.197-.422.548-.743.987-.902l2.807-1.019c.39-.143.818.059.96.448l1.022 2.799c.068.187.059.394-.025.574s-.237.32-.424.388l-2.808 1.019c-.195.071-.396.105-.594.105zm1.677-3.667-2.104.763c-.083.03-.123.092-.139.126-.02.041-.036.106-.008.183l.341.934c.046.126.188.19.316.145l2.101-.762z"/><path d="m7.265 13.5c-.715 0-1.389-.444-1.646-1.142l-1.703-4.669c-.31-.856.098-1.814.927-2.184l11.817-5.349c.017-.008.104-.045.122-.051.906-.331 1.915.137 2.246 1.042l2.38 6.533c.159.434.14.905-.056 1.326-.197.424-.548.746-.99.906-.022.008-.06.02-.094.029-.01.003-.021.006-.031.009l-5.149 1.429c-.401.11-.813-.123-.923-.522s.123-.813.522-.923l5.149-1.429c.005-.001.01-.003.016-.004.098-.051.127-.098.141-.127.018-.04.035-.103.007-.178l-2.381-6.534c-.047-.126-.193-.197-.323-.148l-11.838 5.36c-.12.054-.175.183-.132.303l1.702 4.664c.042.116.174.183.299.15l4.502-1.251c.398-.112.812.123.923.522s-.123.813-.522.923l-4.501 1.251c-.154.043-.31.064-.464.064z"/><path d="m10.496 12.639c-.306 0-.593-.188-.705-.492l-2.549-6.97c-.142-.389.058-.82.447-.962s.82.059.962.447l2.549 6.969c.142.389-.058.82-.447.962-.084.031-.171.046-.257.046z"/></svg>