<svg id="_x31__x2C_5" height="512" viewBox="0 0 24 24" width="512" xmlns="http://www.w3.org/2000/svg"><ellipse cx="12" cy="9.5" fill="#cfd8dc" rx="11.25" ry="5.75"/><ellipse cx="12" cy="9.5" fill="#607d8b" rx="6.25" ry="2.25"/><path d="m12 16c-6.729 0-12-2.855-12-6.5s5.271-6.5 12-6.5 12 2.855 12 6.5-5.271 6.5-12 6.5zm0-11.5c-5.691 0-10.5 2.29-10.5 5s4.809 5 10.5 5 10.5-2.29 10.5-5-4.809-5-10.5-5z"/><path d="m12 12.5c-3.479 0-7-1.03-7-3s3.521-3 7-3 7 1.03 7 3-3.521 3-7 3zm0-4.5c-3.573 0-5.5 1.064-5.5 1.5s1.927 1.5 5.5 1.5 5.5-1.064 5.5-1.5-1.927-1.5-5.5-1.5z"/><path d="m.75 17c-.414 0-.75-.336-.75-.75v-6.75c0-.414.336-.75.75-.75s.75.336.75.75v6.75c0 .414-.336.75-.75.75z"/><path d="m23.25 17c-.414 0-.75-.336-.75-.75v-6.75c0-.414.336-.75.75-.75s.75.336.75.75v6.75c0 .414-.336.75-.75.75z"/><path d="m17.25 21c-.414 0-.75-.336-.75-.75v-5c0-.414.336-.75.75-.75s.75.336.75.75v5c0 .414-.336.75-.75.75z"/><path d="m6.75 21c-.414 0-.75-.336-.75-.75v-5c0-.414.336-.75.75-.75s.75.336.75.75v5c0 .414-.336.75-.75.75z"/></svg>