<?xml version="1.0" encoding="iso-8859-1"?>
<!-- Generator: Adobe Illustrator 19.0.0, SVG Export Plug-In . SVG Version: 6.00 Build 0)  -->
<svg version="1.1" id="Capa_1" xmlns="http://www.w3.org/2000/svg" xmlns:xlink="http://www.w3.org/1999/xlink" x="0px" y="0px"
	 viewBox="0 0 512.053 512.053" style="enable-background:new 0 0 512.053 512.053;" xml:space="preserve">
<g>
	<path style="fill:#2196F3;" d="M256.027,0.053c-136.384,0-256,127.104-256,272c0.015,8.837,7.191,15.988,16.027,15.973
		c4.086-0.007,8.015-1.577,10.981-4.389c38.66-36.734,99.324-36.734,137.984,0c2.968,2.828,6.908,4.409,11.008,4.416
		c2.202,0.02,4.383-0.427,6.4-1.312c5.839-2.548,9.609-8.317,9.6-14.688c0-192.768,70.816-241.344,72.384-242.368
		c7.529-4.626,9.882-14.48,5.255-22.009C266.754,2.938,261.589,0.051,256.027,0.053z"/>
	<path style="fill:#2196F3;" d="M256.027,0.053c-7.093,0.051-13.306,4.766-15.264,11.584c-1.996,6.861,0.799,14.213,6.848,18.016
		c0.736,0.448,72.416,48.448,72.416,242.4c-0.002,8.837,7.16,16.001,15.997,16.003c4.112,0.001,8.067-1.582,11.043-4.419
		c38.645-36.71,99.275-36.71,137.92,0c2.976,2.836,6.929,4.417,11.04,4.416c2.202,0.02,4.383-0.427,6.4-1.312
		c5.839-2.548,9.609-8.317,9.6-14.688C512.027,127.157,392.411,0.053,256.027,0.053z"/>
</g>
<path style="fill:#64B5F6;" d="M264.251,2.325c-5.063-3.034-11.385-3.034-16.448,0c-3.584,2.176-87.776,55.136-87.776,269.728
	c-0.009,6.371,3.761,12.14,9.6,14.688c2.017,0.885,4.198,1.332,6.4,1.312c4.1-0.007,8.04-1.588,11.008-4.416
	c38.662-36.698,99.29-36.698,137.952,0c6.396,6.097,16.524,5.855,22.621-0.541c2.837-2.976,4.42-6.931,4.419-11.043
	C352.027,57.461,267.835,4.501,264.251,2.325z"/>
<path d="M336.027,288.053c-4.111,0.001-8.064-1.58-11.04-4.416c-38.593-36.84-99.327-36.84-137.92,0
	c-6.181,5.892-15.899,5.892-22.08,0c-38.593-36.84-99.327-36.84-137.92,0c-6.398,6.097-16.527,5.854-22.624-0.544
	s-5.854-16.527,0.544-22.624c46.93-44.789,119.466-48.792,171.04-9.44c47.238-36.061,112.762-36.061,160,0
	c51.574-39.352,124.11-35.349,171.04,9.44c6.398,6.097,6.641,16.226,0.544,22.624s-16.226,6.641-22.624,0.544l0,0
	c-38.593-36.84-99.327-36.84-137.92,0C344.091,286.473,340.137,288.054,336.027,288.053z"/>
<path d="M496.027,288.053c-8.837,0-16-7.163-16-16c0-127.84-104.672-240-224-240s-224,112.16-224,240c0,8.837-7.163,16-16,16
	s-16-7.163-16-16c0-144.896,119.616-272,256-272s256,127.104,256,272C512.027,280.89,504.863,288.053,496.027,288.053z"/>
<path d="M176.027,288.053c-8.837,0-16-7.163-16-16c0-214.592,84.192-267.552,87.776-269.728c7.555-4.586,17.398-2.179,21.984,5.376
	c4.586,7.555,2.179,17.398-5.376,21.984c-1.6,1.024-72.384,49.632-72.384,242.368C192.027,280.89,184.863,288.053,176.027,288.053z"
	/>
<path d="M336.027,288.053c-8.837,0-16-7.163-16-16c0-193.952-71.68-241.952-72.416-242.4c-7.435-4.68-9.706-14.479-5.088-21.952
	c4.575-7.403,14.229-9.791,21.728-5.376c3.584,2.176,87.776,55.136,87.776,269.728C352.027,280.89,344.863,288.053,336.027,288.053z
	"/>
<path d="M216.027,512.053c-30.913-0.035-55.965-25.087-56-56v-8c0-8.837,7.163-16,16-16s16,7.163,16,16v8c0,13.255,10.745,24,24,24
	s24-10.745,24-24v-216c0-8.837,7.163-16,16-16c8.837,0,16,7.163,16,16v216C271.991,486.967,246.94,512.018,216.027,512.053z"/>
<g>
</g>
<g>
</g>
<g>
</g>
<g>
</g>
<g>
</g>
<g>
</g>
<g>
</g>
<g>
</g>
<g>
</g>
<g>
</g>
<g>
</g>
<g>
</g>
<g>
</g>
<g>
</g>
<g>
</g>
</svg>
