<svg id="_x31__x2C_5" height="512" viewBox="0 0 24 24" width="512" xmlns="http://www.w3.org/2000/svg"><path d="m22.856 16.482c-.421-2.174-2.914-8.803-4.584-10.552-1.442-1.531-3.03-2.325-4.714-2.344-1.062-.019-2.115.277-3.177.88-.422.184-.547.544-.225.928 1.212 1.552 6.171 4.44 6.983 7.31.913 3.286 1.376 5.673 1.934 9.174.092.716.417.756.872.746h1.037c.613 0 1.174-.43 1.39-1.081.268-.851.303-1.875.449-2.851v-.01c.13-.813.164-1.578.035-2.2z" fill="#ffc107"/><path d="m5.543 9.111c-.176 0-.341-.091-.434-.242l-3.045-4.94c-.124-.2-.095-.457.068-.625.164-.167.421-.202.623-.083l4.243 2.489c.23.135.318.424.2.664l-1.197 2.451c-.082.167-.248.276-.433.285-.009.001-.017.001-.025.001z" fill="#ffc107"/><path d="m18.518 21.877h-.002l-5.913-.018c-.673 0-1.191-.606-1.079-1.28l.341-2.203c-.055-.29-.589-1.753-.81-2.496l-2.315.476c-.234.218-.644.612-1.011.993-1.171 1.229-2.609 1.925-3.72.95-.531-.454-1.076-1.372-1.076-2.236 0-.81.263-1.059 4.237-10.106l.522-2.331c.055-.247.246-.442.491-.503.246-.062.505.021.67.213l2.177 2.534c.704.455 5.174 3.439 6.09 6.348 1.214 3.866 1.832 7.536 2.035 8.742l.023.135c.033.195-.021.394-.149.545-.127.15-.315.237-.511.237z" fill="#cfd8dc"/><path d="m3.42 17.89-.196-.221c-.237-.267-.514-.753-.514-1.243 0-.421.187-.729.592-1.631l.375.145c.589.227.985.801.985 1.428.001.847-.529 1.244-1.242 1.522z" fill="#90a4ae"/><path d="m21.44 23-9.49-.02c-.36 0-.701-.158-.934-.434-.234-.276-.333-.639-.274-.996l.383-2.468c-.094-.488-.721-2.578-1.307-4.421-.125-.395.093-.816.488-.942.396-.126.816.093.942.488.402 1.266 1.341 4.271 1.383 4.825.004.057.002.115-.007.171l-.354 2.277 9.171.019c.085 0 .164-.056.193-.139.7-1.958 1.001-3.619.807-4.442-.584-2.514-3.323-8.779-4.887-10.288-1.389-1.332-2.882-2.017-4.438-2.034-1.008-.013-2.017.247-3.05.784-.367.191-.819.05-1.011-.317-.191-.368-.048-.82.319-1.012 1.258-.654 2.518-.977 3.764-.953 1.944.022 3.782.847 5.456 2.453 1.938 1.869 4.711 8.455 5.308 11.027.34 1.439-.277 3.672-.856 5.291-.244.677-.889 1.131-1.606 1.131zm-9.217-1.215v.005c0-.002 0-.004 0-.005zm-.272-.305c.001 0 .001 0 0 0z"/><path d="m19.431 22.828c-.355 0-.671-.253-.737-.615l-.051-.283c-.226-1.267-.911-5.122-2.23-9.296-.77-2.436-4.795-5.407-6.281-6.346-.063-.04-.12-.089-.168-.145l-1.538-1.789-.274 1.224c-.01.047-.026.094-.045.138-.429.977-4.194 9.546-4.276 9.72-.196.42-.336.722-.369.964-.051.39.292 1.117.693 1.467.654.571 1.585.408 2.375-.416.507-.528 1.089-1.081 1.312-1.29.079-.074.173-.13.276-.165l2.422-.81c.394-.132.818.082.949.474.131.393-.081.818-.474.949l-2.265.758c-.262.248-.726.694-1.138 1.124-1.349 1.406-3.176 1.614-4.443.507-.68-.594-1.329-1.775-1.194-2.795.063-.471.254-.88.495-1.397.095-.206 2.794-6.346 4.235-9.625l.584-2.61c.062-.277.275-.495.55-.564s.566.023.75.238l2.441 2.837c.787.509 5.786 3.848 6.814 7.101 1.348 4.267 2.047 8.195 2.277 9.485l.049.276c.074.408-.196.798-.603.873-.046.007-.091.011-.136.011z"/><path d="m5.228 9.762c-.251 0-.497-.126-.639-.356l-4.477-7.262c-.181-.293-.139-.672.102-.918s.619-.297.915-.123l6.237 3.659c.357.209.477.669.268 1.026-.21.358-.67.477-1.026.268l-3.638-2.134 2.895 4.696c.218.353.108.815-.244 1.032-.123.076-.259.112-.393.112z"/><path d="m22.658 18.31c-1.468-1.886-2.769-3.002-5.074-3.126l.081-1.498c2.854.154 4.533 1.592 6.176 3.704z"/><path d="m3.431 18.941c-.3 0-.583-.181-.699-.477-.15-.386.04-.821.426-.972.459-.179.755-.613.755-1.106 0-.492-.314-.944-.781-1.125-.387-.149-.579-.583-.43-.969.149-.387.586-.578.969-.43 1.042.401 1.742 1.416 1.742 2.524 0 1.115-.671 2.098-1.709 2.504-.09.034-.183.051-.273.051z"/><circle cx="9.5" cy="9.5" r="1.5"/><path d="m19.799 9.915c-1.048-.658-2.693-1.207-3.485-1.398-.91-.225-1.854-.216-2.809.027l-.369-1.454c1.196-.304 2.386-.314 3.534-.03.915.221 2.719.827 3.926 1.586z"/></svg>