<?xml version="1.0" encoding="iso-8859-1"?>
<!-- Generator: Adobe Illustrator 19.0.0, SVG Export Plug-In . SVG Version: 6.00 Build 0)  -->
<svg version="1.1" id="Capa_1" xmlns="http://www.w3.org/2000/svg" xmlns:xlink="http://www.w3.org/1999/xlink" x="0px" y="0px"
	 viewBox="0 0 512.153 512.153" style="enable-background:new 0 0 512.153 512.153;" xml:space="preserve">
<path style="fill:#4CAF50;" d="M485.745,12.185c-2.194-8.56-10.912-13.72-19.472-11.526c-2.93,0.751-5.588,2.318-7.664,4.518
	c-35.124,27.993-75.157,49.198-118.048,62.528c-30.374,10.718-54.297,34.559-65.12,64.896
	c-11.541,40.105-4.039,83.289,20.352,117.152c1.823,2.926,4.554,5.174,7.776,6.4c14.89,5.087,30.538,7.598,46.272,7.424
	c52.789-0.417,101.398-28.795,127.712-74.56c0.319-0.443,0.598-0.914,0.832-1.408C512.977,120.857,486.865,16.601,485.745,12.185z"
	/>
<path style="fill:#388E3C;" d="M256.592,512.153c-7.873-0.016-14.564-5.757-15.776-13.536
	C179.44,104.729,27.152,31.417,25.616,30.745c-8.059-3.658-11.626-13.157-7.968-21.216S30.806-2.097,38.864,1.561
	c6.176,2.88,142.528,68.288,214.816,392.48c15.36-78.848,48.416-186.784,118.976-260.928c6.097-6.398,16.226-6.641,22.624-0.544
	c6.398,6.097,6.641,16.226,0.544,22.624c-112.544,118.4-123.136,339.392-123.232,341.632c-0.332,8.226-6.853,14.857-15.072,15.328
	H256.592z"/>
<path d="M349.841,263.705c-15.74,0.148-31.393-2.351-46.304-7.392c-3.225-1.288-5.943-3.591-7.744-6.56
	c-24.405-33.857-31.908-77.047-20.352-117.152c10.816-30.337,34.724-54.187,65.088-64.928c42.9-13.294,82.937-34.49,118.048-62.496
	c4.024-4.21,10.017-5.901,15.648-4.416c5.617,1.445,10.012,5.815,11.488,11.424c1.152,4.416,27.232,108.8-7.296,175.52
	c-0.251,0.495-0.529,0.975-0.832,1.44C451.255,234.91,402.637,263.287,349.841,263.705z M320.241,228.153
	c51.059,13.624,104.812-9.445,130.112-55.84c15.029-40.733,18.224-84.888,9.216-127.36c-33.793,21.518-69.876,39.205-107.584,52.736
	c-21.464,7.42-38.447,24.109-46.24,45.44C298.154,172.237,303.433,203.204,320.241,228.153z"/>
<path d="M256.592,512.153c-7.873-0.016-14.564-5.757-15.776-13.536C179.44,104.729,27.152,31.449,25.616,30.713
	c-8.123-3.478-11.889-12.882-8.412-21.006S30.087-2.182,38.211,1.295c0.22,0.094,0.438,0.193,0.654,0.298
	C45.04,4.441,181.392,69.849,253.68,394.041c15.36-78.848,48.416-186.752,118.976-260.928c6.097-6.398,16.226-6.641,22.624-0.544
	c6.398,6.097,6.641,16.226,0.544,22.624c-112.544,118.4-123.136,339.392-123.232,341.632c-0.332,8.226-6.853,14.857-15.072,15.328
	H256.592z"/>
<g>
</g>
<g>
</g>
<g>
</g>
<g>
</g>
<g>
</g>
<g>
</g>
<g>
</g>
<g>
</g>
<g>
</g>
<g>
</g>
<g>
</g>
<g>
</g>
<g>
</g>
<g>
</g>
<g>
</g>
</svg>
