<svg id="_x31__x2C_5" height="512" viewBox="0 0 24 24" width="512" xmlns="http://www.w3.org/2000/svg"><path d="m21.25 23.25h-18.5c-1.105 0-2-.895-2-2v-18.5c0-1.105.895-2 2-2h18.5c1.105 0 2 .895 2 2v18.5c0 1.105-.895 2-2 2z" fill="#607d8b"/><path d="m12 20.25c-4.549 0-8.25-3.701-8.25-8.25s3.701-8.25 8.25-8.25 8.25 3.701 8.25 8.25-3.701 8.25-8.25 8.25z" fill="#fff"/><g fill="#90a4ae"><path d="m15.124 4.62c-.793-.557-1.695-.87-2.648-.87-.767 0-1.495.2-2.165.565l.193.339c.818 1.461 1.179 2.957 1.108 4.592l-.026.583 2.126.713.206-.357c1.006-1.765 1.412-3.626 1.206-5.565z"/><path d="m19.811 13.443c-1.793.213-3.314-.079-4.649-.901l-.476-.292-2.014 1.936.17.379c.824 1.881 2.159 3.169 3.96 3.825 1.802-1.106 3.076-2.908 3.374-4.986z"/><path d="m9.123 11.788-.401-.022c-1.964-.095-3.613.433-4.899 1.585.262 1.951 1.425 3.639 3.081 4.673l.092-.271c.501-1.548 1.363-2.656 2.619-3.389l.447-.257z"/></g><path d="m12 14.255c-1.243 0-2.255-1.012-2.255-2.255s1.012-2.255 2.255-2.255 2.255 1.012 2.255 2.255-1.012 2.255-2.255 2.255z" fill="#607d8b"/><path d="m21.25 24h-18.5c-1.517 0-2.75-1.233-2.75-2.75v-18.5c0-1.517 1.233-2.75 2.75-2.75h18.5c1.517 0 2.75 1.233 2.75 2.75v18.5c0 1.517-1.233 2.75-2.75 2.75zm-18.5-22.5c-.689 0-1.25.561-1.25 1.25v18.5c0 .689.561 1.25 1.25 1.25h18.5c.689 0 1.25-.561 1.25-1.25v-18.5c0-.689-.561-1.25-1.25-1.25z"/><path d="m12 21c-4.963 0-9-4.038-9-9s4.037-9 9-9 9 4.038 9 9-4.037 9-9 9zm0-16.5c-4.136 0-7.5 3.364-7.5 7.5s3.364 7.5 7.5 7.5 7.5-3.364 7.5-7.5-3.364-7.5-7.5-7.5z"/><path d="m12 15c-1.654 0-3-1.346-3-3s1.346-3 3-3 3 1.346 3 3-1.346 3-3 3zm0-4.5c-.827 0-1.5.673-1.5 1.5s.673 1.5 1.5 1.5 1.5-.673 1.5-1.5-.673-1.5-1.5-1.5z"/><path d="m12.249 9.544-1.498-.089c.104-1.753-.422-3.367-1.608-4.933l1.195-.905c1.391 1.838 2.035 3.832 1.911 5.927z"/><path d="m14.094 10.458-1.188-.917c1.271-1.647 1.738-3.306 1.426-5.071l1.477-.262c.384 2.175-.192 4.278-1.715 6.25z"/><path d="m18.758 14.704c-1.766 0-3.363-.468-4.763-1.399l.83-1.249c1.464.973 3.133 1.322 5.11 1.07l.189 1.488c-.465.06-.921.09-1.366.09z"/><path d="m16.979 19.101c-2.165-.732-3.747-2.296-4.704-4.648l1.389-.565c.797 1.957 2.038 3.198 3.796 3.792z"/><path d="m7.526 18.641-1.434-.442c.721-2.336 1.973-4.021 3.827-5.149l.779 1.281c-1.526.929-2.563 2.339-3.172 4.31z"/><path d="m4.487 14.333-1.074-1.047c1.599-1.641 3.69-2.398 6.198-2.266l-.082 1.498c-2.08-.112-3.74.479-5.042 1.815z"/><path d="m22.5 23.25c-.192 0-.384-.073-.53-.22l-1.75-1.75c-.293-.293-.293-.768 0-1.061s.768-.293 1.061 0l1.75 1.75c.293.293.293.768 0 1.061-.147.147-.339.22-.531.22z"/><path d="m1.5 23.25c-.192 0-.384-.073-.53-.22-.293-.293-.293-.768 0-1.061l1.75-1.75c.293-.293.768-.293 1.061 0s.293.768 0 1.061l-1.75 1.75c-.147.147-.339.22-.531.22z"/><path d="m20.75 4c-.192 0-.384-.073-.53-.22-.293-.293-.293-.768 0-1.061l1.75-1.75c.293-.293.768-.293 1.061 0s.293.768 0 1.061l-1.75 1.75c-.147.147-.339.22-.531.22z"/><path d="m3.25 4c-.192 0-.384-.073-.53-.22l-1.75-1.75c-.293-.293-.293-.768 0-1.061s.768-.293 1.061 0l1.75 1.75c.293.293.293.768 0 1.061-.147.147-.339.22-.531.22z"/></svg>