<svg id="regular" enable-background="new 0 0 24 24" height="512" viewBox="0 0 24 24" width="512" xmlns="http://www.w3.org/2000/svg"><path d="m13.25 23.25h-10.5c-1.105 0-2-.895-2-2v-18c0-1.381 1.119-2.5 2.5-2.5h9.5c1.381 0 2.5 1.119 2.5 2.5v18c0 1.105-.895 2-2 2z" fill="#fafafa"/><circle cx="8" cy="17" fill="#2196f3" r="1.25"/><path d="m11.25 22.75v.5h-6.5v-.5c0-1.105.895-2 2-2h2.5c1.105 0 2 .895 2 2z" fill="#2196f3"/><path d="m10 3.25h-4.25c-.552 0-1-.448-1-1v-1.5h6.25v1.5c0 .552-.448 1-1 1z" fill="#607d8b"/><path d="m20.25 10.25v-1.5c0-.55-.45-1-1-1h-5.5c-.55 0-1 .2-1 .75v4.75c0 .55.45 1 1 1h5.5c.55 0 1-.45 1-1v-1.25l3 2.25v-6.5z" fill="#2196f3"/><path d="m10.25 4h-4.5c-.965 0-1.75-.785-1.75-1.75 0-.413-.336-.75-.75-.75h-.5c-.414 0-.75-.336-.75-.75s.336-.75.75-.75h.5c1.241 0 2.25 1.01 2.25 2.25 0 .138.112.25.25.25h4.5c.138 0 .25-.112.25-.25 0-1.24 1.009-2.25 2.25-2.25h.5c.414 0 .75.336.75.75s-.336.75-.75.75h-.5c-.414 0-.75.337-.75.75 0 .965-.785 1.75-1.75 1.75z"/><path d="m13.25 24h-10.5c-1.517 0-2.75-1.233-2.75-2.75v-18.5c0-1.517 1.233-2.75 2.75-2.75h10.5c1.517 0 2.75 1.233 2.75 2.75v1.5c0 .414-.336.75-.75.75s-.75-.336-.75-.75v-1.5c0-.689-.561-1.25-1.25-1.25h-10.5c-.689 0-1.25.561-1.25 1.25v18.5c0 .689.561 1.25 1.25 1.25h10.5c.689 0 1.25-.561 1.25-1.25v-3.5c0-.414.336-.75.75-.75s.75.336.75.75v3.5c0 1.517-1.233 2.75-2.75 2.75z"/><path d="m8 19c-1.103 0-2-.897-2-2s.897-2 2-2 2 .897 2 2-.897 2-2 2zm0-2.5c-.276 0-.5.225-.5.5s.224.5.5.5.5-.225.5-.5-.224-.5-.5-.5z"/><path d="m11.25 24c-.414 0-.75-.336-.75-.75v-.5c0-.689-.561-1.25-1.25-1.25h-2.5c-.689 0-1.25.561-1.25 1.25v.5c0 .414-.336.75-.75.75s-.75-.336-.75-.75v-.5c0-1.517 1.233-2.75 2.75-2.75h2.5c1.517 0 2.75 1.233 2.75 2.75v.5c0 .414-.336.75-.75.75z"/><path d="m23.25 15c-.159 0-.318-.051-.45-.15l-1.816-1.361c-.116.852-.85 1.511-1.734 1.511h-5.5c-.965 0-1.75-.785-1.75-1.75v-4.75c0-.692.458-1.5 1.75-1.5h5.5c.932 0 1.696.732 1.747 1.651l1.773-1.478c.223-.186.534-.228.798-.103.264.124.432.389.432.68v6.5c0 .284-.161.544-.415.671-.106.053-.221.079-.335.079zm-9.5-6.5c-.184 0-.276.033-.296.045l.046 4.705c0 .138.112.25.25.25h5.5c.138 0 .25-.112.25-.25v-1.25c0-.284.161-.544.415-.671.254-.125.559-.1.786.071l1.8 1.35v-3.398l-1.77 1.475c-.224.186-.536.227-.798.103-.263-.123-.432-.388-.432-.679v-1.5c0-.138-.112-.25-.25-.25h-5.501z"/></svg>