<?xml version="1.0" encoding="iso-8859-1"?>
<!-- Generator: Adobe Illustrator 19.0.0, SVG Export Plug-In . SVG Version: 6.00 Build 0)  -->
<svg version="1.1" id="Capa_1" xmlns="http://www.w3.org/2000/svg" xmlns:xlink="http://www.w3.org/1999/xlink" x="0px" y="0px"
	 viewBox="0 0 512 512" style="enable-background:new 0 0 512 512;" xml:space="preserve">
<path style="fill:#ECEFF1;" d="M32,80h448c17.673,0,32,14.327,32,32v288c0,17.673-14.327,32-32,32H32c-17.673,0-32-14.327-32-32V112
	C0,94.327,14.327,80,32,80z"/>
<g>
	<path style="fill:#2196F3;" d="M112,336H80c-8.837,0-16-7.163-16-16V208c-8.837,0-16-7.163-16-16s7.163-16,16-16h16
		c8.837,0,16,7.163,16,16v112h4.896l44.128-117.632c3.11-8.28,12.344-12.47,20.624-9.36s12.47,12.344,9.36,20.624l-48,128
		C124.658,331.88,118.676,336.013,112,336z"/>
	<path style="fill:#2196F3;" d="M176,336c-8.837-0.002-15.998-7.168-15.996-16.004c0-1.304,0.16-2.603,0.476-3.868l32-128
		c2.337-8.522,11.14-13.536,19.662-11.199c8.244,2.261,13.255,10.603,11.378,18.943l-32,128
		C189.743,330.997,183.344,335.998,176,336z"/>
	<path style="fill:#2196F3;" d="M263.136,336c-11.834-0.229-23.551-2.391-34.688-6.4c-8.466-2.532-13.276-11.448-10.744-19.914
		c2.532-8.466,11.448-13.276,19.914-10.744c0.382,0.114,0.761,0.243,1.133,0.386c12.289,5.614,26.299,6.143,38.976,1.472
		c5.184-2.801,8.999-7.598,10.56-13.28c0.96-3.488-4.736-11.264-19.456-20.032c-15.807-7.496-28.084-20.84-34.24-37.216
		c-2.513-10.986-0.37-22.521,5.92-31.872c19.904-32.224,68.384-20.992,73.856-19.584c8.494,2.438,13.403,11.299,10.965,19.793
		c-2.329,8.113-10.56,13.022-18.805,11.215c-9.6-2.4-32.768-4.32-38.784,5.376c-2.72,4.448-2.208,6.592-2.048,7.328
		c1.664,6.72,14.656,14.432,19.52,17.344c35.008,20.864,37.792,41.952,33.984,55.968c-3.877,14.198-13.424,26.175-26.4,33.12
		C283.649,333.731,273.455,336.15,263.136,336z"/>
	<path style="fill:#2196F3;" d="M336,336c-8.837,0-16-7.164-15.999-16.001c0-2.488,0.581-4.943,1.695-7.167l64-128
		C388.409,179.419,393.945,176,400,176h32c8.837,0,16,7.163,16,16v128c0,8.837-7.163,16-16,16s-16-7.163-16-16V208h-6.112
		l-59.584,119.168C347.591,332.581,342.055,336,336,336z"/>
	<path style="fill:#2196F3;" d="M432,288h-72c-8.837,0-16-7.163-16-16s7.163-16,16-16h72c8.837,0,16,7.163,16,16
		S440.837,288,432,288z"/>
</g>
<path d="M480,432H32c-17.673,0-32-14.327-32-32V112c0-17.673,14.327-32,32-32h448c17.673,0,32,14.327,32,32v288
	C512,417.673,497.673,432,480,432z M32,112v288h448V112H32z"/>
<g>
</g>
<g>
</g>
<g>
</g>
<g>
</g>
<g>
</g>
<g>
</g>
<g>
</g>
<g>
</g>
<g>
</g>
<g>
</g>
<g>
</g>
<g>
</g>
<g>
</g>
<g>
</g>
<g>
</g>
</svg>
