<svg enable-background="new 0 0 24 24" height="512" viewBox="0 0 24 24" width="512" xmlns="http://www.w3.org/2000/svg"><path d="m19.944 9.063-3.447 5.318c-.099.1-4.881 4.96-4.588 4.662-.592.592-1.67.465-2.104-.264-.307-.507-.668-1.631-.203-2.097.117-.117 4.172-4.172 4.07-4.07.169-.18.668-.06.52-.272-.104-.091-.971-1.681-2.992-1.586-1.276.073-2.644 2.126-2.728 2.545h-2.695c0-.021-.011-.042-.011-.063-.949-3.254.534-6.734 3.922-7.609l5.487-1.396z" fill="#ffcc80"/><path d="m22.808 7.806c-1.166 1.104-1.208 1.353-1.565 1.353-.674-.119-5.487-5.535-6.005-5.847-.079-.1-.636-.538-.211-.962.834-.784 1.377-1.699 1.914-1.163 5.204 5.486 6.574 5.911 5.867 6.619z" fill="#607d8b"/><path d="m15.319 16.089c-.179 6.525.388 7.56-.45 7.56h-11.718c-.252 0-.45-.198-.45-.45.18-9.02-.403-9.9.45-9.9h9.189c.009.009-2.7 2.754-2.7 2.754h-.009c-2.038 2.038.97 4.799 2.835 2.934z" fill="#eceff1"/><path d="m9.64 16.053c-.108.108-.207.225-.288.342.081-.117.171-.234.279-.342z" fill="#eceff1"/><path d="m17.25 24h-16.5c-.414 0-.75-.336-.75-.75s.336-.75.75-.75h16.5c.414 0 .75.336.75.75s-.336.75-.75.75z"/><path d="m21.118 10.188c-.002 0-.004 0-.006 0-.469-.001-.908-.186-1.238-.52l-5.524-5.587c-.675-.682-.671-1.789.008-2.468l1.1-1.1c.682-.683 1.793-.683 2.475 0l5.556 5.555c.683.682.683 1.793 0 2.475l-1.132 1.132c-.333.33-.772.513-1.239.513zm-4.424-8.688c-.064 0-.128.024-.177.073l-1.1 1.1c-.098.097-.098.255-.002.352l5.524 5.587c.063.064.138.074.177.074h.001c.039 0 .113-.01.177-.074l1.132-1.131c.098-.098.098-.256 0-.354l-5.556-5.555c-.048-.048-.111-.072-.176-.072zm-1.806.643h.01z"/><path d="m6.261 14.5c-.245 0-.485-.12-.629-.34-.668-1.025-1.021-2.218-1.021-3.45 0-.983.234-1.976.678-2.873.837-1.675 2.363-2.9 4.188-3.364l5.47-1.39c.396-.101.81.141.911.542.103.401-.141.81-.542.912l-5.47 1.39c-1.403.357-2.574 1.296-3.215 2.578-.34.688-.521 1.452-.521 2.205 0 .94.269 1.85.777 2.63.227.347.129.812-.219 1.038-.125.083-.267.122-.407.122z"/><path d="m10.98 19.99c-.892 0-1.697-.458-2.155-1.227-.584-.988-.397-2.271.453-3.124l3.362-3.371c-.354-.334-.837-.514-1.35-.484-.641.033-1.191.371-1.511.928l-.81 1.411c-.205.358-.664.484-1.023.277-.359-.206-.483-.665-.277-1.024l.81-1.41c.569-.992 1.592-1.62 2.734-1.679 1.154-.059 2.219.459 2.885 1.385l.162.237c.201.297.164.697-.091.951l-3.828 3.84c-.361.362-.456.908-.226 1.298.184.308.507.492.865.492.195 0 .48-.052.73-.301l4.331-4.391 3.459-5.335c.225-.348.689-.447 1.037-.222s.446.69.221 1.037l-3.5 5.4c-.027.043-.06.083-.095.119l-4.39 4.45c-.481.481-1.117.743-1.793.743z"/><path d="m15.27 24h-12.52c-.414 0-.75-.336-.75-.75v-9.5c0-.414.336-.75.75-.75h9.47c.414 0 .75.336.75.75s-.336.75-.75.75h-8.72v8h11.02v-6.85c0-.414.336-.75.75-.75s.75.336.75.75v7.6c0 .414-.336.75-.75.75z"/></svg>