<svg id="_x31__x2C_5" enable-background="new 0 0 24 24" height="512" viewBox="0 0 24 24" width="512" xmlns="http://www.w3.org/2000/svg"><path d="m17.25 8.03v-.03l-5.25-2.25-5.25 2.25v.03l-6-2.53 11.25-4.75 11.25 4.75z" fill="#2196f3"/><path d="m23.25 5.5v13l-11.25 4.75v-7l5.25-2.25v-5.97z" fill="#42a5f5"/><path d="m12 16.25v7l-11.25-4.75v-13l6 2.53v5.97z" fill="#64b5f6"/><path d="m17.25 14-5.25 2.25-5.25-2.25 5.25-2.25z" fill="#90a4ae"/><path d="m12 5.75v6l-5.25 2.25v-6z" fill="#607d8b"/><path d="m17.25 8v6l-5.25-2.25v-6z" fill="#cfd8dc"/><path d="m17.25 8.78c-.292 0-.57-.172-.691-.458-.16-.382.019-.822.4-.982l4.361-1.84-9.32-3.936-9.32 3.936 4.361 1.839c.382.161.561.601.4.982-.161.383-.603.561-.982.4l-6-2.53c-.278-.117-.459-.389-.459-.691 0-.301.181-.574.458-.691l11.25-4.75c.188-.079.396-.079.584 0l11.25 4.75c.277.117.458.39.458.691 0 .302-.181.574-.459.691l-6 2.53c-.095.04-.193.059-.291.059z"/><path d="m12 24c-.1 0-.198-.02-.292-.059l-11.25-4.75c-.277-.117-.458-.39-.458-.691v-13c0-.414.336-.75.75-.75s.75.336.75.75v12.502l10.5 4.434 10.5-4.434v-12.502c0-.414.336-.75.75-.75s.75.336.75.75v13c0 .301-.181.574-.458.691l-11.25 4.75c-.094.039-.192.059-.292.059z"/><path d="m17.25 14.75c-.414 0-.75-.336-.75-.75v-5.505l-4.5-1.929-4.5 1.929v5.505c0 .414-.336.75-.75.75s-.75-.336-.75-.75v-6c0-.3.179-.571.454-.689l5.25-2.25c.189-.081.402-.081.592 0l5.25 2.25c.275.118.454.389.454.689v6c0 .414-.336.75-.75.75z"/><path d="m12 17c-.101 0-.201-.02-.296-.061l-5.25-2.25c-.275-.118-.454-.389-.454-.689s.179-.571.454-.689l5.25-2.25c.189-.081.402-.081.592 0l5.25 2.25c.275.118.454.389.454.689s-.179.571-.454.689l-5.25 2.25c-.095.041-.195.061-.296.061zm-3.346-3 3.346 1.434 3.346-1.434-3.346-1.434z"/><path d="m12 12.5c-.414 0-.75-.336-.75-.75v-6c0-.414.336-.75.75-.75s.75.336.75.75v6c0 .414-.336.75-.75.75z"/><path d="m12 24c-.414 0-.75-.336-.75-.75v-7c0-.414.336-.75.75-.75s.75.336.75.75v7c0 .414-.336.75-.75.75z"/></svg>