<?xml version="1.0" encoding="utf-8"?>
<!-- Generator: Adobe Illustrator 25.3.1, SVG Export Plug-In . SVG Version: 6.00 Build 0)  -->
<svg version="1.1" id="Capa_1" xmlns="http://www.w3.org/2000/svg" xmlns:xlink="http://www.w3.org/1999/xlink" x="0px" y="0px"
	 viewBox="0 0 490.7 490.7" style="enable-background:new 0 0 490.7 490.7;" xml:space="preserve">
<style type="text/css">
	.st0{fill:#CFD8DC;stroke:#000000;stroke-width:8;stroke-miterlimit:10;}
	.st1{fill:#FF5722;stroke:#000000;stroke-width:8;stroke-miterlimit:10;}
	.st2{fill:#FF8A65;stroke:#000000;stroke-width:8;stroke-miterlimit:10;}
	.st3{stroke:#000000;stroke-width:8;stroke-miterlimit:10;}
</style>
<rect x="20.1" y="97.6" class="st0" width="452.5" height="308.5"/>
<rect x="20.1" y="344.4" class="st1" width="61.7" height="61.7"/>
<rect x="92.1" y="344.4" class="st2" width="144" height="61.7"/>
<rect x="246.3" y="344.4" class="st1" width="154.3" height="61.7"/>
<g>
	<rect x="410.9" y="344.4" class="st2" width="61.7" height="61.7"/>
	<rect x="328.6" y="262.1" class="st2" width="144" height="61.7"/>
	<rect x="20.1" y="262.1" class="st2" width="144" height="61.7"/>
</g>
<rect x="20.1" y="179.8" class="st1" width="61.7" height="61.7"/>
<g>
	<rect x="410.9" y="179.8" class="st2" width="61.7" height="61.7"/>
	<rect x="328.6" y="97.6" class="st2" width="144" height="61.7"/>
</g>
<rect x="174.3" y="97.6" class="st1" width="144" height="61.7"/>
<rect x="20.1" y="97.6" class="st2" width="144" height="61.7"/>
<g>
	<rect x="174.3" y="262.1" class="st1" width="144" height="61.7"/>
	<rect x="246.3" y="179.8" class="st1" width="154.3" height="61.7"/>
</g>
<rect x="92.1" y="179.8" class="st2" width="144" height="61.7"/>
<path class="st3" d="M472.6,426.7H20.1c-5.7,0-10.3-4.6-10.3-10.3V87.3c0-5.7,4.6-10.3,10.3-10.3h452.5c5.7,0,10.3,4.6,10.3,10.3
	v329.1C482.9,422.1,478.3,426.7,472.6,426.7z M30.4,406.1h431.9V97.6H30.4C30.4,97.6,30.4,406.1,30.4,406.1z"/>
<path class="st3" d="M246.3,426.7c-5.7,0-10.3-4.6-10.3-10.3v-82.3c0-5.7,4.6-10.3,10.3-10.3c5.7,0,10.3,4.6,10.3,10.3v82.3
	C256.6,422.1,252,426.7,246.3,426.7z"/>
<path class="st3" d="M410.9,426.7c-5.7,0-10.3-4.6-10.3-10.3v-82.3c0-5.7,4.6-10.3,10.3-10.3c5.7,0,10.3,4.6,10.3,10.3v82.3
	C421.2,422.1,416.6,426.7,410.9,426.7z"/>
<path class="st3" d="M81.8,426.7c-5.7,0-10.3-4.6-10.3-10.3v-82.3c0-5.7,4.6-10.3,10.3-10.3s10.3,4.6,10.3,10.3v82.3
	C92.1,422.1,87.5,426.7,81.8,426.7z"/>
<path class="st3" d="M472.6,344.4H20.1c-5.7,0-10.3-4.6-10.3-10.3c0-5.7,4.6-10.3,10.3-10.3h452.5c5.7,0,10.3,4.6,10.3,10.3
	C482.9,339.8,478.3,344.4,472.6,344.4z"/>
<path class="st3" d="M164.1,344.4c-5.7,0-10.3-4.6-10.3-10.3v-82.3c0-5.7,4.6-10.3,10.3-10.3s10.3,4.6,10.3,10.3v82.3
	C174.3,339.8,169.7,344.4,164.1,344.4z"/>
<path class="st3" d="M328.6,344.4c-5.7,0-10.3-4.6-10.3-10.3v-82.3c0-5.7,4.6-10.3,10.3-10.3c5.7,0,10.3,4.6,10.3,10.3v82.3
	C338.9,339.8,334.3,344.4,328.6,344.4z"/>
<path class="st3" d="M472.6,262.1H20.1c-5.7,0-10.3-4.6-10.3-10.3s4.6-10.3,10.3-10.3h452.5c5.7,0,10.3,4.6,10.3,10.3
	C482.9,257.5,478.3,262.1,472.6,262.1z"/>
<path class="st3" d="M246.3,262.1c-5.7,0-10.3-4.6-10.3-10.3v-82.3c0-5.7,4.6-10.3,10.3-10.3c5.7,0,10.3,4.6,10.3,10.3v82.3
	C256.6,257.5,252,262.1,246.3,262.1z"/>
<path class="st3" d="M410.9,262.1c-5.7,0-10.3-4.6-10.3-10.3v-82.3c0-5.7,4.6-10.3,10.3-10.3c5.7,0,10.3,4.6,10.3,10.3v82.3
	C421.2,257.5,416.6,262.1,410.9,262.1z"/>
<path class="st3" d="M81.8,262.1c-5.7,0-10.3-4.6-10.3-10.3v-82.3c0-5.7,4.6-10.3,10.3-10.3s10.3,4.6,10.3,10.3v82.3
	C92.1,257.5,87.5,262.1,81.8,262.1z"/>
<path class="st3" d="M472.6,179.8H20.1c-5.7,0-10.3-4.6-10.3-10.3s4.6-10.3,10.3-10.3h452.5c5.7,0,10.3,4.6,10.3,10.3
	S478.3,179.8,472.6,179.8z"/>
<path class="st3" d="M164.1,179.8c-5.7,0-10.3-4.6-10.3-10.3V87.3c0-5.7,4.6-10.3,10.3-10.3s10.3,4.6,10.3,10.3v82.3
	C174.3,175.2,169.7,179.8,164.1,179.8z"/>
<path class="st3" d="M328.6,179.8c-5.7,0-10.3-4.6-10.3-10.3V87.3c0-5.7,4.6-10.3,10.3-10.3c5.7,0,10.3,4.6,10.3,10.3v82.3
	C338.9,175.2,334.3,179.8,328.6,179.8z"/>
</svg>
