<?xml version="1.0" encoding="iso-8859-1"?>
<!-- Generator: Adobe Illustrator 19.0.0, SVG Export Plug-In . SVG Version: 6.00 Build 0)  -->
<svg version="1.1" id="Capa_1" xmlns="http://www.w3.org/2000/svg" xmlns:xlink="http://www.w3.org/1999/xlink" x="0px" y="0px"
	 viewBox="0 0 512 512" style="enable-background:new 0 0 512 512;" xml:space="preserve">
<path style="fill:#ECEFF1;" d="M443.873,5.28c-3.032-3.36-7.346-5.278-11.872-5.28h-352c-8.836-0.044-16.036,7.083-16.08,15.92
	c-0.003,0.561,0.024,1.122,0.08,1.68l48,480c0.825,8.206,7.752,14.441,16,14.4h256c8.248,0.041,15.175-6.194,16-14.4l48-480
	C448.458,13.091,446.954,8.603,443.873,5.28z"/>
<path style="fill:#2196F3;" d="M401.281,163.2L369.601,480h-227.2l-35.52-354.24c49.558-19.8,105.795-12.921,149.12,18.24
	C298.09,174.493,352.715,181.713,401.281,163.2z"/>
<path d="M384.001,512h-256c-8.248,0.041-15.175-6.194-16-14.4l-48-480C63.117,8.808,69.528,0.964,78.32,0.08
	c0.558-0.056,1.119-0.083,1.68-0.08h352c8.836-0.044,16.036,7.083,16.08,15.92c0.003,0.561-0.024,1.122-0.08,1.68l-48,480
	C399.176,505.807,392.248,512.042,384.001,512z M142.497,480h227.008l44.8-448H97.697L142.497,480z"/>
<path d="M340.897,188.8c-34.507,0.783-68.177-10.679-95.04-32.352c-48.832-40.16-114.048-23.712-148.576-10.336
	c-8.245,3.181-17.507-0.923-20.688-9.168s0.923-17.507,9.168-20.688l0,0c40.992-15.808,118.976-34.976,180.384,15.36
	c45.376,37.28,104.544,26.624,146.208,11.136c8.186-3.327,17.52,0.611,20.847,8.798s-0.611,17.52-8.798,20.847
	c-0.301,0.122-0.606,0.236-0.914,0.339C397.108,182.874,369.154,188.311,340.897,188.8z"/>
<g>
</g>
<g>
</g>
<g>
</g>
<g>
</g>
<g>
</g>
<g>
</g>
<g>
</g>
<g>
</g>
<g>
</g>
<g>
</g>
<g>
</g>
<g>
</g>
<g>
</g>
<g>
</g>
<g>
</g>
</svg>
