<svg enable-background="new 0 0 24 24" height="512" viewBox="0 0 24 24" width="512" xmlns="http://www.w3.org/2000/svg"><g id="Color"><g><g><path d="m.948 1.798 4.853 4.853c-1.726.5-3.363 1.272-4.853 2.292z" fill="#eceff1"/></g></g><g><g><path d="m6.613 5.84-4.824-4.825h6.963c-.967 1.486-1.68 3.114-2.139 4.825z" fill="#eceff1"/></g></g><g><g><path d="m.824 17.961v-8.338c1.699-1.408 3.698-2.375 5.838-2.826l3.509 3.509c-4.11 1.185-7.441 4.001-9.347 7.655z" fill="#eceff1"/></g></g><g><g><path d="m10.362 10.141-3.452-3.452c.389-2.074 1.269-4.023 2.572-5.688h8.33c-3.569 1.861-6.315 5.119-7.45 9.14z" fill="#eceff1"/></g></g></g><g id="_x31_.5"><g><g><path d="m.75 24.05c-.414 0-.75-.336-.75-.75v-22.5c0-.414.336-.75.75-.75h22.5c.414 0 .75.336.75.75s-.336.75-.75.75h-21.75v21.75c0 .414-.336.75-.75.75z"/></g></g><g><g><path d="m14.445 15.246c-.192 0-.384-.073-.53-.22l-13.695-13.696c-.293-.293-.293-.768 0-1.061s.768-.293 1.061 0l13.695 13.696c.293.293.293.768 0 1.061-.147.146-.338.22-.531.22z"/></g></g><g><g><path d="m11.021 11.822c-.414 0-.75-.336-.75-.75 0-.068.016-.156.04-.238 1.129-6.252 6.563-10.784 12.939-10.784.414 0 .75.336.75.75s-.336.75-.75.75c-5.664 0-10.487 4.035-11.471 9.594-.008.046-.021.09-.036.134-.09.314-.379.544-.722.544z"/></g></g><g><g><path d="m.75 23.991c-.414 0-.75-.336-.75-.75 0-6.387 4.56-11.836 10.841-12.957l.001.002c.07-.015.143-.023.199-.023.414 0 .75.336.75.75 0 .39-.298.711-.679.747-.003 0-.005.001-.008.001-5.565.993-9.604 5.821-9.604 11.48 0 .414-.336.75-.75.75zm10.291-12.949v-.028z"/></g></g><g><g><path d="m6.74 7.544c-.189 0-.378-.072-.523-.217l-.01-.01c-.205-.205-.267-.499-.185-.757.377-2.292 1.359-4.448 2.847-6.239.266-.319.737-.363 1.057-.098.318.265.362.737.098 1.056-1.336 1.61-2.213 3.551-2.536 5.614-.01.058-.025.115-.047.169-.036.095-.093.184-.169.26-.147.148-.339.222-.532.222z"/></g></g><g><g><path d="m.75 10.403c-.208 0-.416-.086-.564-.256-.272-.312-.241-.785.07-1.058 1.805-1.582 3.997-2.637 6.341-3.051l.001.002c.24-.043.498.026.68.207.293.293.293.768 0 1.061-.131.131-.299.204-.47.217-2.055.372-3.978 1.303-5.564 2.692-.142.125-.318.186-.494.186z"/></g></g></g></svg>