<?xml version="1.0" encoding="iso-8859-1"?>
<!-- Generator: Adobe Illustrator 19.0.0, SVG Export Plug-In . SVG Version: 6.00 Build 0)  -->
<svg version="1.1" id="Capa_1" xmlns="http://www.w3.org/2000/svg" xmlns:xlink="http://www.w3.org/1999/xlink" x="0px" y="0px"
	 viewBox="0 0 512 512" style="enable-background:new 0 0 512 512;" xml:space="preserve">
<path style="fill:#F44336;" d="M496,176h-96c-4.246-0.008-8.322,1.673-11.328,4.672L361.376,208H320v-16c0-8.837-7.163-16-16-16H160
	C71.634,176.042,0.035,247.711,0.077,336.077S71.789,496.042,160.155,496c78.455-0.038,145.309-56.956,157.861-134.4l184-74.912
	c5.989-2.43,9.928-8.225,9.984-14.688v-80C512,183.163,504.837,176,496,176z"/>
<circle style="fill:#FAFAFA;" cx="160" cy="336" r="80"/>
<g>
	<path style="fill:#F44336;" d="M352,144c-8.837,0-16-7.163-16-16V32c0-8.837,7.163-16,16-16s16,7.163,16,16v96
		C368,136.836,360.837,144,352,144z"/>
	<path style="fill:#F44336;" d="M288,144c-5.036,0-9.778-2.371-12.8-6.4l-48-64c-5.302-7.069-3.869-17.098,3.2-22.4
		c7.069-5.302,17.098-3.869,22.4,3.2l48,64c5.302,7.069,3.869,17.098-3.2,22.4C294.83,142.877,291.462,144,288,144z"/>
	<path style="fill:#F44336;" d="M416,144c-8.837,0-16-7.163-16-16c0-3.462,1.123-6.83,3.2-9.6l48-64
		c5.302-7.069,15.331-8.502,22.4-3.2s8.502,15.331,3.2,22.4l-48,64C425.778,141.629,421.036,144,416,144z"/>
</g>
<path d="M160,416c-44.183,0-80-35.817-80-80s35.817-80,80-80s80,35.817,80,80S204.183,416,160,416z M160,288
	c-26.51,0-48,21.49-48,48s21.49,48,48,48s48-21.49,48-48S186.51,288,160,288z"/>
<path d="M160,496C71.634,496,0,424.365,0,336s71.634-160,160-160h144c8.837,0,16,7.163,16,16v16h41.344l27.328-27.328
	c3.006-2.999,7.082-4.68,11.328-4.672h96c8.837,0,16,7.163,16,16v80c-0.004,6.51-3.952,12.368-9.984,14.816l-184,74.784
	C305.628,439.2,238.582,496.226,160,496z M160,208c-70.692,0.036-127.971,57.373-127.934,128.066
	C32.102,406.758,89.439,464.036,160.131,464c65.711-0.034,120.722-49.819,127.293-115.2c0.6-5.904,4.418-10.991,9.92-13.216
	L480,261.248V208h-73.376l-27.328,27.328c-2.999,2.991-7.061,4.671-11.296,4.672h-64c-8.837,0-16-7.163-16-16v-16H160z"/>
<path d="M352,144c-8.837,0-16-7.163-16-16V32c0-8.837,7.163-16,16-16s16,7.163,16,16v96C368,136.836,360.837,144,352,144z"/>
<path d="M288,144c-5.036,0-9.778-2.371-12.8-6.4l-48-64c-5.302-7.069-3.869-17.098,3.2-22.4c7.069-5.302,17.098-3.869,22.4,3.2
	l48,64c5.302,7.069,3.869,17.098-3.2,22.4C294.83,142.877,291.462,144,288,144z"/>
<path d="M416,144c-8.837,0-16-7.163-16-16c0-3.462,1.123-6.83,3.2-9.6l48-64c5.302-7.069,15.331-8.502,22.4-3.2
	s8.502,15.331,3.2,22.4l-48,64C425.778,141.629,421.036,144,416,144z"/>
<g>
</g>
<g>
</g>
<g>
</g>
<g>
</g>
<g>
</g>
<g>
</g>
<g>
</g>
<g>
</g>
<g>
</g>
<g>
</g>
<g>
</g>
<g>
</g>
<g>
</g>
<g>
</g>
<g>
</g>
</svg>
