<?xml version="1.0" encoding="iso-8859-1"?>
<!-- Generator: Adobe Illustrator 19.0.0, SVG Export Plug-In . SVG Version: 6.00 Build 0)  -->
<svg version="1.1" id="Capa_1" xmlns="http://www.w3.org/2000/svg" xmlns:xlink="http://www.w3.org/1999/xlink" x="0px" y="0px"
	 viewBox="0 0 512 512" style="enable-background:new 0 0 512 512;" xml:space="preserve">
<path style="fill:#FFC107;" d="M409.248,196.192c-0.648-0.289-1.31-0.545-1.984-0.768L304,164.128V80c0-8.837-7.163-16-16-16h-64
	c-8.837,0-16,7.163-16,16v84.128l-103.232,31.296c-0.676,0.217-1.338,0.474-1.984,0.768C70.115,207.043,48.049,237.576,48,272
	c0.027,7.631,1.104,15.222,3.2,22.56c0.152,0.564,0.334,1.119,0.544,1.664l60.8,204.352C114.58,507.399,120.88,512.055,128,512h256
	c7.073-0.002,13.305-4.647,15.328-11.424l60.96-204.32c0.208-0.608,0.379-1.228,0.512-1.856c2.082-7.286,3.158-14.822,3.2-22.4
	C463.956,237.584,441.905,207.054,409.248,196.192z"/>
<path style="fill:#607D8B;" d="M192,0h128c8.837,0,16,7.163,16,16v64c0,8.837-7.163,16-16,16H192c-8.837,0-16-7.163-16-16V16
	C176,7.163,183.164,0,192,0z"/>
<path style="fill:#455A64;" d="M50.24,288c0.416,2.176,0.32,4.384,0.928,6.56c0.152,0.564,0.334,1.119,0.544,1.664L87.456,416
	h337.12l35.712-119.744c0.208-0.608,0.379-1.228,0.512-1.856c0.608-2.176,0.48-4.32,0.928-6.4H50.24z"/>
<path d="M320,128H192c-8.837,0-16-7.163-16-16V16c0-8.837,7.163-16,16-16h128c8.837,0,16,7.163,16,16v96
	C336,120.837,328.837,128,320,128z M208,96h96V32h-96V96z"/>
<path d="M384,512H128c-7.073-0.002-13.305-4.647-15.328-11.424l-60.8-204.448c-0.259-0.507-0.483-1.031-0.672-1.568
	c-2.096-7.338-3.173-14.929-3.2-22.56c0.049-34.424,22.114-64.957,54.784-75.808c0.646-0.294,1.308-0.551,1.984-0.768L208,164.128
	V112c0-8.837,7.163-16,16-16s16,7.163,16,16v52.128c0.063,14.119-9.189,26.59-22.72,30.624L116,225.472
	c-0.672,0.288-1.344,0.544-2.048,0.768C93.776,232.328,79.978,250.925,80,272c0,4.321,0.56,8.623,1.664,12.8l0.32,0.992L139.936,480
	h232.128l57.952-194.272l0.32-1.024c1.099-4.145,1.658-8.415,1.664-12.704c0.023-21.075-13.775-39.672-33.952-45.76
	c-0.704-0.224-1.376-0.48-2.048-0.768l-101.28-30.72c-13.531-4.034-22.783-16.505-22.72-30.624V112c0-8.837,7.163-16,16-16
	s16,7.163,16,16v52.128l103.232,31.296c0.686,0.217,1.359,0.474,2.016,0.768C441.905,207.054,463.956,237.584,464,272
	c-0.027,7.631-1.104,15.222-3.2,22.56c-0.152,0.553-0.334,1.098-0.544,1.632l-60.96,204.384
	C397.277,507.342,391.061,511.984,384,512z"/>
<path d="M441.28,320H70.72c-8.837,0-16-7.163-16-16s7.163-16,16-16h370.56c8.837,0,16,7.163,16,16S450.117,320,441.28,320z"/>
<path d="M412.8,416H99.2c-8.837,0-16-7.163-16-16s7.163-16,16-16h313.6c8.837,0,16,7.163,16,16S421.637,416,412.8,416z"/>
<g>
</g>
<g>
</g>
<g>
</g>
<g>
</g>
<g>
</g>
<g>
</g>
<g>
</g>
<g>
</g>
<g>
</g>
<g>
</g>
<g>
</g>
<g>
</g>
<g>
</g>
<g>
</g>
<g>
</g>
</svg>
