<svg id="_x31__x2C_5" enable-background="new 0 0 24 24" height="512" viewBox="0 0 24 24" width="512" xmlns="http://www.w3.org/2000/svg"><path d="m20.325 20.1h-16.65c-1.365 0-2.475-1.11-2.475-2.475v-11.25c0-1.365 1.11-2.475 2.475-2.475h4.725c.179 0 .351.071.477.198l1.602 1.602h9.846c1.365 0 2.475 1.11 2.475 2.475v9.45c0 1.365-1.11 2.475-2.475 2.475z" fill="#03a9f4"/><path d="m21.25 21h-18.5c-1.517 0-2.75-1.233-2.75-2.75v-12.5c0-1.517 1.233-2.75 2.75-2.75h5.25c.199 0 .39.079.53.22l1.781 1.78h10.939c1.517 0 2.75 1.233 2.75 2.75v10.5c0 1.517-1.233 2.75-2.75 2.75zm-18.5-16.5c-.689 0-1.25.561-1.25 1.25v12.5c0 .689.561 1.25 1.25 1.25h18.5c.689 0 1.25-.561 1.25-1.25v-10.5c0-.689-.561-1.25-1.25-1.25h-11.25c-.199 0-.39-.079-.53-.22l-1.781-1.78z"/><path d="m11.5 16c-.414 0-.75-.336-.75-.75v-4.5c0-.414.336-.75.75-.75s.75.336.75.75v4.5c0 .414-.336.75-.75.75z"/><path d="m8.25 16h-2.5c-.266 0-.512-.141-.646-.37-.135-.229-.139-.512-.009-.744l1.881-3.386h-1.226c-.414 0-.75-.336-.75-.75s.336-.75.75-.75h2.5c.266 0 .512.141.646.37.135.229.139.512.009.744l-1.881 3.386h1.226c.414 0 .75.336.75.75s-.336.75-.75.75z"/><path d="m14.75 16c-.414 0-.75-.336-.75-.75v-4.5c0-.414.336-.75.75-.75h1.25c1.103 0 2 .897 2 2s-.897 2-2 2h-.5v1.25c0 .414-.336.75-.75.75zm.75-3.5h.5c.275 0 .5-.225.5-.5s-.225-.5-.5-.5h-.5z"/></svg>